<svg xmlns="http://www.w3.org/2000/svg" viewBox="0 0 500 500">
    <path fill="#607D8B" d="M62.5 234.8a270 270 0 0 0 9.8 111.1c9.5 20.6 28 17 44.2 13.8 23-5.2 109.8-34.7 131.4-39.8l2.4-.6c5.5-1.2 22-5 24 0 .4 3 3 48.4 15 58.6a24 24 0 0 0 16 5.6c1.3 0 17.2-4.3 22-9.4 1.4-1.2 67.6-51.6 86-67.8a64 64 0 0 0 24.4-54c-1.3-12.5-66.1-61.5-82.5-72.5q-48.5-32.2-62.6-34.6a26 26 0 0 0-19 4.2c-13.7 9.2-12.2 27.3-11 43.2a95 95 0 0 1 .5 18.9 10 10 0 0 1-3.5 6.7 35 35 0 0 1-22.8 1.2c-3-.4-104.4-7-141.7-7.8A30 30 0 0 0 62.5 235m200.8.4c20.3-7.4 18.6-28 17.2-46.3a108 108 0 0 1-.5-17.5 11 11 0 0 1 3.7-7.9c1.8-1.3 8-1.7 9-1.5 17.7 7.4 100.7 63.4 123.7 83.2 8.6 8 8.7 11.8.7 21.6a373 373 0 0 1-64.3 54.7 900 900 0 0 0-34.3 27c-4.3 4-10.2 9.6-14 10.1-4.6.5-10.2-.5-11.9-12.7q-.7-6-.9-13.2c-.6-17.2-1.4-38.6-26.3-40.7l-161.7 45.1c-10.1 2-12-4.8-14.3-16l-8.8-67c-.8-12.5-.7-24.8 8-25.8 7.3-.6 133.7 6 140 6.7 8.6 1.2 32 1 34.7 0m47.8-100c5.1 1.5 8.1-2.2 9.3-5.2a214 214 0 0 0 8-27.2A8 8 0 0 0 324 94a13 13 0 0 0-8.4.6 138 138 0 0 0-9.8 29.2c-1.3 4.6.3 9.8 5.3 11.4m28 12.3a260 260 0 0 0 22.7-17 9 9 0 0 0 .7-8.7 8 8 0 0 0-6.2-4.6c-2 0-20.6 12.4-27.4 18.1a7 7 0 0 0-2 5.4 9 9 0 0 0 4.1 6.8c1.2.6 6.8.6 8.1 0M292 132.2a8 8 0 0 0 5-9.1 185 185 0 0 0-7.4-22 8 8 0 0 0-5.7-4.3 8 8 0 0 0-6.5 2 9 9 0 0 0-2.4 7.8 199 199 0 0 0 7.1 21.5 9 9 0 0 0 7.4 4.5 8 8 0 0 0 2.5-.4"/>
</svg>
