<?xml version="1.0" encoding="utf-8"?>
<!-- Generator: Adobe Illustrator 16.0.0, SVG Export Plug-In . SVG Version: 6.00 Build 0)  -->
<!DOCTYPE svg PUBLIC "-//W3C//DTD SVG 1.1//EN" "http://www.w3.org/Graphics/SVG/1.1/DTD/svg11.dtd">
<svg version="1.1" id="Calque_1" xmlns="http://www.w3.org/2000/svg" xmlns:xlink="http://www.w3.org/1999/xlink" x="0px" y="0px"
	 width="200px" height="200px" viewBox="0 0 200 200" enable-background="new 0 0 200 200" xml:space="preserve">
<path fill="#607D8B" d="M25,87.92c-1.8,14.925-0.465,30.061,3.92,44.439c3.8,8.24,11.2,6.801,17.68,5.521
	c9.2-2.08,43.92-13.88,52.56-15.92l0.96-0.239c2.2-0.48,8.8-2,9.601,0c0.159,1.199,1.199,19.359,6,23.439
	c1.789,1.5,4.064,2.297,6.399,2.24c0.521,0,6.88-1.721,8.8-3.76c0.561-0.48,27.04-20.641,34.4-27.121
	c6.591-5.169,10.236-13.236,9.76-21.6c-0.52-5-26.439-24.6-33-29c-12.934-8.586-21.28-13.2-25.04-13.84
	c-2.655-0.445-5.38,0.157-7.601,1.68c-5.479,3.68-4.879,10.92-4.399,17.28c0.317,2.507,0.385,5.04,0.2,7.56
	c-0.098,1.042-0.602,2.004-1.4,2.68c-2.9,1.175-6.112,1.344-9.12,0.48c-1.2-0.16-41.76-2.8-56.68-3.12
	C31.939,77.966,26.313,82.004,25,88 M105.32,88.16c8.119-2.96,7.439-11.2,6.88-18.52c-0.257-2.324-0.323-4.665-0.2-7
	c0.037-1.212,0.572-2.356,1.48-3.16c0.72-0.52,3.199-0.68,3.6-0.6c7.08,2.96,40.279,25.36,49.48,33.28
	c3.439,3.199,3.479,4.72,0.279,8.64c-7.718,8.243-16.346,15.583-25.72,21.88c-4.66,3.488-9.235,7.09-13.72,10.801
	c-1.721,1.6-4.08,3.84-5.601,4.039c-1.84,0.201-4.079-0.199-4.76-5.08c-0.187-1.6-0.307-3.359-0.36-5.279
	c-0.24-6.881-0.56-15.439-10.52-16.28l-64.68,18.04c-4.04,0.801-4.8-1.92-5.72-6.4l-3.52-26.799c-0.32-5-0.28-9.921,3.2-10.321
	c2.92-0.24,53.48,2.4,56,2.68c3.44,0.48,12.8,0.4,13.88,0 M124.439,48.08c2.041,0.6,3.24-0.88,3.721-2.08
	c1.306-3.552,2.375-7.187,3.199-10.88c0.29-1.438-0.436-2.889-1.76-3.52c-1.115-0.295-2.297-0.21-3.359,0.24
	c-1.738,3.735-3.054,7.653-3.92,11.68C121.8,45.36,122.439,47.44,124.439,48.08 M135.641,53c3.147-2.1,6.179-4.37,9.08-6.8
	c0.687-1.034,0.793-2.35,0.279-3.48c-0.457-0.998-1.393-1.693-2.48-1.84c-0.799,0-8.24,4.96-10.959,7.24
	c-0.564,0.572-0.855,1.358-0.801,2.16c0.096,1.112,0.701,2.117,1.641,2.72C132.88,53.24,135.12,53.24,135.641,53 M116.8,46.88
	c1.471-0.557,2.318-2.1,2-3.64c-0.802-2.993-1.79-5.932-2.96-8.8c-0.447-0.899-1.292-1.537-2.279-1.72
	c-0.943-0.133-1.896,0.16-2.601,0.8c-0.8,0.827-1.157,1.986-0.96,3.12c0.783,2.918,1.73,5.79,2.84,8.6
	c0.614,1.066,1.73,1.745,2.96,1.8C116.14,47.04,116.477,46.986,116.8,46.88"/>
</svg>
