<?xml version="1.0" encoding="utf-8"?>
<!-- Generator: Adobe Illustrator 16.0.0, SVG Export Plug-In . SVG Version: 6.00 Build 0)  -->
<!DOCTYPE svg PUBLIC "-//W3C//DTD SVG 1.1//EN" "http://www.w3.org/Graphics/SVG/1.1/DTD/svg11.dtd">
<svg version="1.1" id="Calque_1" xmlns="http://www.w3.org/2000/svg" xmlns:xlink="http://www.w3.org/1999/xlink" x="0px" y="0px"
	 width="59px" height="48px" viewBox="0 0 59 48" enable-background="new 0 0 59 48" xml:space="preserve">
<g>
	<path fill="#ED1E79" d="M15.934,0L4.45,21.206c-1.723,3.248-2.919,5.874-3.589,7.88C0.287,31.093,0,32.859,0,34.389
		c0,3.82,1.292,7.068,3.876,9.742C6.556,46.711,9.666,48,13.207,48c3.732,0,6.842-1.338,9.331-4.012
		c2.584-2.675,3.876-5.875,3.876-9.6c0-3.535-1.148-6.4-3.445-8.598c-1.604-1.67-3.361-2.724-5.269-3.178l9.001-16.739L15.934,0z"/>
	<path fill="#ED1E79" d="M50,22.611l9-16.736L48.377,0L36.75,21.206c-1.723,3.248-2.871,5.874-3.445,7.88
		c-0.574,2.007-0.861,3.773-0.861,5.303c0,3.82,1.291,7.068,3.875,9.742c2.68,2.58,5.791,3.869,9.331,3.869
		c3.732,0,6.843-1.338,9.331-4.012c2.584-2.675,3.876-5.875,3.876-9.6c0-3.535-1.148-6.4-3.445-8.598
		C53.735,24.118,51.931,23.063,50,22.611z"/>
</g>
</svg>
