<svg xmlns="http://www.w3.org/2000/svg" width="1685.439" height="407.58" viewBox="127.87 134.81 1685.439 407.58"><path fill="#1D1D1B" d="M1715.689 301.52c-10.569-3.58-21.89-7.24-32.909-10.81-9.011-2.92-17.65-5.48-26-7.96-17.091-5.08-31.841-9.46-41.03-14.34-5.23-2.78-7.82-8.52-6.76-14.98 3.43-20.97 26.479-25.57 45.18-23.14 28 3.64 34.63 16.17 36.8 20.29 3.42 6.47 4.46 13.1 4.78 16.48.34 3.55 3.29 6.29 6.88 6.38h.351l77.829-16.36c4.91-1.03 8.07-5.74 7.171-10.71-2.11-11.71-5.641-22.97-10.48-33.48-19.49-42.3-58.98-69.33-111.18-76.12-79.53-10.35-145.301 31.43-156.4 99.32-8.01 48.97 10.55 90.601 49.63 111.36 21.05 11.18 53.66 21.729 88.271 32.92 10.64 3.439 21.64 7 31.58 10.37 21.229 7.189 31.859 16.399 31.609 27.37-.25 11.08-4.59 17.63-14.97 22.6-7.76 3.72-18.32 7.09-42.88 6.521-28.74-.66-47.24-10.671-54.971-29.771l-.27-.66c-2.78-6.7-4.22-18.16-4.71-22.78-.37-3.52-3.33-6.239-6.88-6.329h-.391L1506.51 406c-4.65 1.07-7.689 5.46-7.07 10.22.801 6.181 1.99 12.54 3.53 18.891 6.141 25.3 20.83 49.989 40.32 67.739 25.93 23.61 65.18 37.71 107.7 38.69 2.17.05 4.33.07 6.479.07 39.64 0 74.351-8.49 100.71-24.67 34.62-21.261 54.18-54.82 55.09-94.48 1.34-58.66-30.59-98.22-97.6-120.92l.02-.02zM1388.79 152.51a6.157 6.157 0 00-5.93-4.51h-141.43a6.155 6.155 0 00-5.93 4.51l-103.07 371.78c-1.09 3.92 1.86 7.79 5.931 7.79h97.85c2.76 0 5.19-1.84 5.93-4.51l16.671-60.141h106.67l16.67 60.141a6.158 6.158 0 005.93 4.51h97.85c4.07 0 7.011-3.87 5.931-7.79L1388.79 152.51zm-104.97 224.73l28.33-102.19 28.329 102.19h-56.659zm-222.34-226.67l-61.291 135.86L938.9 150.57a4.11 4.11 0 00-3.801-2.57H829c-2.91 0-4.89 2.94-3.8 5.63l121.12 259.55c.199.49.3 1.011.3 1.53v111.21c0 3.4 2.75 6.15 6.149 6.15h94.851c3.4 0 6.15-2.75 6.15-6.15V414.71c0-.53.1-1.05.3-1.53l121.12-259.55c1.09-2.69-.9-5.63-3.8-5.63h-106.1c-1.67 0-3.18 1.02-3.8 2.57h-.01zm-301.2 1.94a6.157 6.157 0 00-5.931-4.51H612.92a6.155 6.155 0 00-5.93 4.51L503.92 524.29c-1.09 3.92 1.86 7.79 5.93 7.79h97.85c2.76 0 5.189-1.84 5.93-4.51l16.67-60.141h106.67l16.67 60.141a6.158 6.158 0 005.931 4.51h97.85c4.07 0 7.01-3.87 5.93-7.79L760.28 152.51zM655.31 377.24l28.33-102.19 28.33 102.19h-56.66zm-172.68 58.29l-79.79-46.42c-4.29-2.5-9.76-1.15-12.44 3.08-15.69 24.649-41.18 39.369-68.2 39.369-46.06 0-83.53-41.71-83.53-92.979 0-51.27 37.47-92.98 83.53-92.98 27.01 0 52.51 14.72 68.2 39.37 2.69 4.22 8.15 5.57 12.45 3.08l79.79-46.42a9.165 9.165 0 004.301-5.71c.62-2.44.229-4.97-1.08-7.11-36.03-58.86-97.21-94-163.65-94-107.16 0-194.34 91.42-194.34 203.79 0 112.37 87.18 203.79 194.34 203.79 66.44 0 127.62-35.14 163.65-94a9.223 9.223 0 001.08-7.12 9.138 9.138 0 00-4.301-5.71l-.01-.03z"/></svg>