<?xml version="1.0" encoding="utf-8"?>
<!-- Generator: Adobe Illustrator 16.0.0, SVG Export Plug-In . SVG Version: 6.00 Build 0)  -->
<!DOCTYPE svg PUBLIC "-//W3C//DTD SVG 1.1//EN" "http://www.w3.org/Graphics/SVG/1.1/DTD/svg11.dtd">
<svg version="1.1" xmlns="http://www.w3.org/2000/svg" viewBox="106.261 89.9 380.235 77.823">
<g>
	<path fill="#7CFA72" d="M144.765,155.616c1.569-8.838-19.578-2.778-21.905-2.013c-0.027-0.121-0.654-4.627-0.654-4.627
		c-0.832-8.086-0.676-27.849-6.733-34.812c1.246,2.03,1.8,8.44,1.8,11.521l-0.546-2.309c-0.56-2.879-1.227-5.746-2.014-8.611
		c-0.662-0.433-2.853-0.986-3.253-1.095c-11.097-3.455-1.152,31.382-0.013,37.771c0.168,3.136,0.418,10.977,0.467,11.759
		c0.49,2.3,1.898,3.264,4.226,2.894c8.811-3.016,17.873-4.478,27.185-4.387l0.067-0.024c2.386,0,3.663-2.989,2.426-4.867
		C145.633,156.578,144.951,155.83,144.765,155.616z M107.754,120.111c-0.1-1.978-1.247-4.914,1.853-5.133
		c-0.147,0.268-0.427,3.56-0.427,3.56c-1.328,5.449,0.811,13.238,1.32,18.678l0.294,4.414
		C110.412,138.941,108.705,124.153,107.754,120.111z"/>
	<path fill="#7CFA72" d="M142.101,163.332c0.023-0.004,0.027-0.008-0.016-0.01c-2.402,0.104-22.655,2.347-26.078,4.241
		c-0.12,0.105-0.107,0.16,0,0.16c2.186-0.173,4.345-0.511,6.479-1.015c6.435-1.223,13.164-1.693,19.706-1.612h0.013
		C143.234,164.487,143.198,163.9,142.101,163.332z"/>
	<path fill="#7CFA72" d="M157.577,149.683l-0.813-5.215c7.315-4.427,15.193-7.877,23.518-9.879c1.801-0.31,3.552-0.799,5.253-1.467
		c1.49-1.011,2.094-2.396,1.814-4.159c-0.227-0.96-0.734-1.612-1.494-1.934c-0.053,0.014-0.851-1.44-1-1.625
		c-1.403-1.583-3.136-2.117-5.199-1.601c-0.48,0.079-8.916,2.612-11.493,3.426c-4.433,2.061-8.819,4.217-13.159,6.468
		c-0.105-1.331-0.667-4.24-0.667-4.24c2.432-1.232,24.219-9.698,25.999-10.399l3.933-1.479c0.15-1.719-0.125-3.367-0.827-4.947
		c-0.213-0.133-4.013-1.505-4.293-1.545c-11.097,3.651-22.959,6.196-33.384,11.572l-0.294,0.694c-2.291,2.54-2.362,5.127-0.213,7.76
		c0,0,4.015,24.31,4.6,27.078c-0.337,2.491,0.667,4.207,3.013,5.146c-0.4,2.128,2.216,2.444,3.626,2.095
		c0.16-0.015,9.333-4.107,9.333-4.107h0.08c7.978-4.072,16.567-7.228,25.238-9.413c0.44-0.08,0.707-0.854,0.707-0.854
		c2.078-1.957,1.247-4.648,0.56-7.054c-0.166-0.565-3.505-7.41-7.985-6.199C183.596,138.164,157.577,149.683,157.577,149.683z
		 M159.39,139.805c1.525-0.574,3.054-1.14,4.587-1.693c2.432-0.974,4.876-1.916,7.333-2.827l0.013,0.014l0.093,0.24
		c-4.393,1.759-9.093,4.163-13.145,6.6C158.924,141.497,159.297,140.725,159.39,139.805z M164.243,160.629
		c-1.154,0.782-2.34,1.513-3.559,2.188c-0.267,0.186-1.48,0.906-1.787,1.093c-0.053,0.053-2.424,0.407-3.533,0.4
		C158.386,163.254,164.243,160.629,164.243,160.629z"/>
	<path fill="#7CFA72" d="M144.631,121.805c1.688-0.948,3.434-1.771,5.24-2.467c8.19-3.386,16.867-5.655,25.318-8.306
		c0,0-1.799,0.146-2.159,0.225c-3.364,0.53-6.684,1.26-9.96,2.188c0,0-13.185,4.832-18.465,7.854
		C144.605,121.299,144.405,121.712,144.631,121.805z"/>
	<path fill="#7CFA72" d="M242.652,128.378c0.013,0.064,0.021,0.129,0.034,0.193C242.599,127.903,242.473,126.968,242.652,128.378z"
		/>
	<path fill="#7CFA72" d="M242.652,128.378c-0.737-5.105-1.501-10.208-2.294-15.306c-0.014-0.026-0.626,0.24-0.626,0.294
		c1.036,8.79,7.515,29.319,1.36,37.757c-0.348,0.387-2.041,1.96-2.44,2.24c9.033-7.228,1.069-31.873,0.187-41.225
		c-0.174-0.105-0.826,0.239-0.866,0.439c-0.067-0.054-0.2-0.372-0.2-0.372c-1.518,0.328-4.773,0.946-4.773,0.946
		c-3.588,0.618-7.17,0.587-10.746-0.094c-0.16,0.066-0.267,0.188-0.307,0.359c-0.199,0.333-0.227,0.787-0.08,1.373
		c-1.111,0.747-1.52,1.756-1.226,3.026c0.079,0.547,0.432,3.776,0.56,4.92c0.436,2.143,3.459,1.378,4.854,1.467
		c1.754,0.01,3.505-0.053,5.253-0.188c0,0,5.085,22.338-1.854,23.572c-1.494,0.236-2.863-0.079-4.105-0.944
		c-4.331-4.655-6.221-10.585-6.387-16.854c-0.014-0.053-0.31-3.178-1.359-4.358c-7.09-7.527-7.096,9.01-6.586,11.358
		c0.119,0.213,0.253,0.426,0.426,0.642c1.094,5.55,3.604,10.438,7.533,14.663c2.439,2.732,5.458,4.443,9.053,5.134
		c0.906,0.095,1.68,0.095,2.333,0c1.308,0.146,2.547,0.066,3.72-0.239c6.894-0.628,9.668-7.943,10-13.665l0.065-0.014
		c-0.021-4.96-0.509-9.873-1.459-14.739C242.754,129.098,242.799,129.459,242.652,128.378z M230.786,121.818
		c-0.959,0.121-7.146,0.559-7.146,0.559c-0.547,0.04-0.854-0.16-0.934-0.599c-0.025-0.307-0.186-1.494-0.213-1.814
		c0.618,0.931,1.484,1.463,2.6,1.601c1.883,0.28,3.771,0.34,5.666,0.175h0.027V121.818z M232.399,151.51
		c-2.029,1.091-3.955,0.922-5.773-0.507c0.875,0.321,1.776,0.45,2.707,0.389l-0.014-0.027c2.279-0.08,4.223-0.929,5.826-2.547
		C234.782,149.29,232.948,151.177,232.399,151.51z"/>
	<path fill="#7CFA72" d="M229.532,109.605C229.545,109.885,230.359,109.766,229.532,109.605L229.532,109.605z"/>
	<path fill="#7CFA72" d="M227.549,109.613c-0.039,0.459,5.185,2.458,6.875,1.686c3.18-1.649,4.068-4.104,2.668-7.358
		c-0.613-0.638-1.204-0.623-1.773,0.041c-1.054-0.574-2.293-0.682-3.72-0.334c-1.968,0.488-3.493,1.592-4.573,3.307l-0.013-0.014
		c-0.388,0.627-0.494,1.187-0.308,1.692C226.907,109.113,227.588,109.154,227.549,109.613z M235.025,109.179l-0.013,0.014
		c-1.68,1.496-3.569,1.833-5.666,1.013C229.299,108.926,233.237,109.873,235.025,109.179z"/>
	<path fill="#7CFA72" d="M275.063,120.686c-0.566-2.462-3.443-15.665-7.492-14.319c-0.605-1.204-1.477-2.169-2.613-2.894
		c-0.506-0.228-2.906-0.241-3.492-0.107c-1.102,0.04-2.133,0.328-3.094,0.866c-2.795,1.278-4.621,3.417-5.479,6.414
		c-0.054,0-0.533-0.015-0.64,0.053c0.238-0.92,1.539-4.42,1.984-5.227c0.068-0.094-0.105-0.16-0.158-0.039
		c-1.213,1.784-2.986,6.146-2.986,6.146c-5.777,11.328-8.156,33.704,3.8,42.677c2.414,1.683,5.067,2.256,7.959,1.722
		c0.907,0,1.801-0.066,2.668-0.175c2.168-0.492,3.979-1.577,5.438-3.253c8.053-7.295,6.4-22.54,4.092-31.878L275.063,120.686z
		 M267.583,138.857c-0.119,2-1.065,5.867-1.065,5.867c-0.067,0.506-0.175,1-0.349,1.465c-0.42,1.452-1.299,2.595-2.641,3.428
		c-3.47,1.211-6.322-1.76-7.865-4.413c0.935,0.479,1.881,0.561,2.826,0.28c0.334-0.08,0.613-0.229,0.867-0.454
		c-1.602-5.241-2.495-10.603-2.682-16.079c0.039-1.864,0.128-3.727,0.268-5.586c0,0,1.406-6.983,2.721-10.119
		c0.239-0.6,0.582-1.133,1.024-1.6c-3.591,10.656-3.715,21.357-0.373,32.104c3.07-6.897-1.913-20.854,0.067-29.559
		c0.182-0.972,0.47-1.908,0.865-2.813c0,0,1.08,0.654,1.24,0.975c0.762,1.664,1.615,3.283,2.227,5.014
		c1.4,5.093,2.144,10.284,2.894,15.506C267.73,134.857,267.73,136.844,267.583,138.857z"/>
	<path fill="#7CFA72" d="M313.288,100.94c-0.992,0.14-1.494,0.713-1.508,1.721l0.055,0.8c-7.996-3.854-1.023,29.52-4.707,35.464
		c-1.066,1.027-2.359,1.761-3.894,2.2c-1.426-0.087-2.724-0.54-3.894-1.359c-4.963-11.194-1.354-24.926-5.666-34.799
		c-0.981-1.836-2.506-2.866-4.573-3.093c-15.515-1.396-6.065,35.174-3.651,40.251c0.602,1.05,1.489,1.503,2.666,1.36
		c3.752,6.7,13.438,13.688,21.078,7.973c1.246-0.771,3.721-3.374,3.879-3.494c2.809-3.21,4.604-6.912,5.387-11.104l0.027,0.039
		c1.279-6.638,1.459-13.303,0.531-19.998C319.018,116.9,316.954,101.022,313.288,100.94z M294.436,131.418
		c-1.792-6.388-2.657-12.645-2.334-19.317c0.264-0.692,0.428-1.408,0.494-2.146c0.119,0.213,0.293,0.253,0.506,0.133v0.015
		c-0.707,7.158-0.188,14.277,1.561,21.385C294.607,131.432,294.527,131.418,294.436,131.418z"/>
	<path fill="#7CFA72" d="M294.436,131.418C294.527,131.418,294.301,130.938,294.436,131.418L294.436,131.418z"/>
	<path fill="#7CFA72" d="M363.817,114.486c-1.135-0.788-2.289-1.544-3.469-2.269c-0.266-0.731-0.691-1.293-1.252-1.692
		c-7.943-5.247-28.092-12.839-28.346-12.825c-2.633-0.318-7.459-1.237-8.906,2.026c-0.535,2.175,0.092,3.942,1.881,5.307
		c-0.387,0.652-0.904,1.279-1.572,1.853c0.813,2.714,1.586,5.438,2.318,8.174c0,0-1.186,0.106-1.438,0.174
		c-2.777,0.184-2.854,4.45-0.773,5.56c0.826,0.493,1.652,0.867,2.492,1.12l-1.84,0.373c0.889,0.311,1.795,0.546,2.721,0.707
		c0.32,0.025,0.48,0.213,0.506,0.521c0.119,0,0.508-0.027,0.508-0.027l0.652,2.801c0.902,3.731,1.801,7.465,2.693,11.199
		c0,0,1.457,8.861,1.84,10.625c0.146,0.883,0.65,1.287,1.52,1.214c0.094,0.427,0.268,0.84,0.561,1.239
		c1.232,0.934,2.447,0.907,3.641-0.08c0.652-0.641,1.227-1.479,1.693-2.532c0,0-0.107-1.172-0.174-1.385
		c-0.104-7.558-1.41-15.506-2.826-22.92c2.133-0.039,4.266-0.069,6.398-0.093c0.469,0.772,2.453,3.72,2.945,4.652
		c4.156,6.459,7.605,14.047,10.693,21.038c0.398,0.134,0.748,0.04,1.041-0.32c0,0.055,0.92,0.294,1.279,0.294
		c0.346-0.014,0.705-0.054,1.078-0.134c10.766,3.194-8.416-25.994-8.438-26.023c2.709,0.038,14.199,2.549,14.199-2.813
		C365.444,120.248,366.581,116.551,363.817,114.486z M344.057,114.686c-1.756-1.356-4.785-3.455-7.053-1.707
		c-0.359,0.348-0.586,0.761-0.666,1.239c-0.428,0.014-0.854,0-1.279-0.038c-0.434-1.685-0.922-3.351-1.467-5
		c-0.094-0.388-0.279-0.574-0.572-0.574c-0.279,0.014-0.521,0.121-0.732,0.334c-0.064-0.18-0.535-1.84-0.535-1.84
		c7.229,1.424,13.955,4.104,20.188,8.039L344.057,114.686z"/>
	<path fill="#7CFA72" d="M363.817,114.486C365.151,115.366,363.243,114.1,363.817,114.486L363.817,114.486z"/>
	<path fill="#7CFA72" d="M337.993,124.325l-0.643,0.04c1.262,6.572,2.207,13.189,2.842,19.852h0.014
		c0.459-4.808,0.057-7.739-0.773-12.864C339.045,128.951,338.565,126.605,337.993,124.325z"/>
	<path fill="#7CFA72" d="M339.432,131.352C339.819,133.738,339.045,128.951,339.432,131.352L339.432,131.352z"/>
	<path fill="#7CFA72" d="M397.282,96.434c-0.24-0.2-0.441-0.334-0.586-0.373c-1.869-1.063-3.443-0.734-4.723,0.985
		c-0.018,0.055-0.033,0.106-0.053,0.16c-0.52,0.359-0.947,0.866-1.293,1.533c-2.328,5.154,4.904,20.119,5.813,25.465L395,121.792
		c-0.096-2.381-4.693-8.202-6-10.119c-1.094-1.739-12.088-20.401-16.746-13.839c-0.398,0.613-0.559,1.253-0.52,1.894
		c-0.48,0.094-0.975,0.373-1.48,0.825c0.123,15.652,2.547,31.716,4.508,47.212c0.693,0.772,1.48,1.227,2.348,1.372
		c1.979,0.414,3.473-0.253,4.479-2c3.494-0.672,2.119-5.626,1.826-7.784c-0.293-3.221-0.604-6.438-0.934-9.653
		c-0.33-5.469-0.693-10.936-1.094-16.399c0.441,0.577,0.902,1.138,1.387,1.681l15.652,24.104l0.682,2.681
		c0.244,2.362,1.383,4.153,3.412,5.373c0.604,0.262,1.129,0.236,1.592-0.096c1.563-0.244,2.744-1.052,3.541-2.425
		c-1.199-9.907-2.898-19.729-5.094-29.465C401.147,108.769,399.067,102.69,397.282,96.434z M381.563,135.658
		c0.15,0.934,0.268,1.871,0.348,2.813c0.473,2.147,1.191,5.408,0.172,7.506c0.082-1.75-0.131-3.461-0.639-5.134l-0.24-4.825
		C381.229,135.964,381.563,135.658,381.563,135.658z"/>
	<path fill="#7CFA72" d="M402.561,115.152C403.694,119.979,402.028,112.752,402.561,115.152L402.561,115.152z"/>
	<path fill="#7CFA72" d="M400.721,98.127c-0.4-0.793-0.916-0.873-1.547-0.239c-0.254,0.293-0.32,0.6-0.186,0.905
		c4.174,14.843,7.223,29.913,9.145,45.211c0.107-0.174,0.201-0.268,0.293-0.268C408.411,142.578,404.667,111.92,400.721,98.127z"/>
	<path fill="#7CFA72" d="M370.959,116.593c0.012,0.12,0.02,0.239,0.031,0.359C371.155,118.597,371.032,117.335,370.959,116.593z"/>
	<path fill="#7CFA72" d="M370.991,116.952c-0.109-1.142-0.082-0.875-0.031-0.359c-0.254-2.665-0.484-5.319-0.689-7.974
		c-0.33-2.563-0.531-5.136-0.6-7.719c-0.457,1.379-0.586,2.787-0.387,4.226c1.016,11.686,1.828,23.455,3.533,35.065h0.025
		c0.279,1.705,0.492,2.679,0.641,2.906c0.133,0.238,0.213,0.346,0.213,0.346l-1.92-18.051
		C371.524,122.552,371.27,119.739,370.991,116.952z"/>
	<path fill="#7CFA72" d="M444.465,131.911c-1.197-2.235-1.602-5.785-2.227-7.893c4.648-3.212,2.133-10.38-3.293-10.611
		c-1.02-5.196-1.867-10.793-2.188-16.08c-0.121,2.746-0.135,8.226-0.188,8.174c-0.652-3.776-0.08-13.791-6.08-13.651
		c-0.891-1.346-2.139-1.994-3.746-1.947c-7.967,0.549-9.373,19.694-10.105,24.519c-4.324,0.985-12.449,10.301-3.68,11.799
		c0.066,0.215,0.053,0.454-0.041,0.721c0.74-0.03,1.469-0.133,2.189-0.307c-2.146,11.148,7.732,27.376,7.918,15.025
		c0,0,0.986-11.945,1.854-15.959l0.719-0.054c-0.508,2.032-0.396,11.735-0.395,14.135c0.131-4.773,0.635-9.508,1.529-14.201
		l6.252-0.493c0.75,3.007,3.277,15.983,6.52,16.934l0.027-0.041C444.907,154.531,445.663,134.146,444.465,131.911z M425.776,115.112
		c0.557-3.93,1.287-7.827,2.195-11.691c1.066,3.634,1.482,7.398,2.268,11.093C429.692,114.605,426.35,114.969,425.776,115.112z"/>
	<path fill="#7CFA72" d="M425.204,139.779c-0.004,0.142-0.016,0.283-0.02,0.425C425.2,140.467,425.204,140.276,425.204,139.779z"/>
	<path fill="#7CFA72" d="M486.083,134.396c0.088,0.126,0.166,0.232-0.061-0.111c-0.027-0.034-0.035-0.042-0.035-0.039
		c-0.338-0.389-0.678-0.774-1.02-1.161c1.563-8.838-19.57-2.778-21.904-2.014c-0.025-0.119-0.654-4.625-0.654-4.625
		c-0.832-8.084-0.676-27.853-6.732-34.813c1.246,2.028,1.799,8.44,1.799,11.52l-0.545-2.305c-0.561-2.882-1.227-5.748-2.014-8.613
		c-0.662-0.434-1.387-0.682-2.174-0.747c-0.332-0.12-1.865-0.547-2.293-0.573c-9.439-0.905,0.025,31.421,1.201,37.997
		c0.168,3.136,0.418,10.979,0.465,11.76c0.492,2.297,1.898,3.263,4.227,2.895c8.813-3.018,17.873-4.479,27.186-4.389l0.064-0.025
		C485.938,139.15,487.204,136.279,486.083,134.396z M447.944,97.581c-0.098-1.972-1.248-4.921,1.854-5.133
		c-0.145,0.267-0.266,0.547-0.359,0.826l-0.066,2.732c-1.324,5.449,0.807,13.239,1.32,18.68l0.293,4.414
		C450.59,116.336,448.899,101.66,447.944,97.581z"/>
	<path fill="#7CFA72" d="M482.292,140.8c0.023-0.003,0.027-0.007-0.016-0.009c-2.43,0.106-2.123,0.106-1.387,0.08
		c-4.113,0.227-8.236,0.646-12.359,1.306c-3.838,0.454-8.906,0.964-12.332,2.854c-0.121,0.106-0.107,0.159,0,0.159
		c2.186-0.169,4.346-0.506,6.479-1.014c6.436-1.224,13.162-1.692,19.705-1.611h0.012C483.422,141.956,483.387,141.369,482.292,140.8
		z"/>
</g>
</svg>
