<svg xmlns="http://www.w3.org/2000/svg" width="98.05" height="50" viewBox="-23.913 -12.194 98.05 50"><path d="M74.127-4.781c-.154 1.541-.511 3.073-.913 4.576-.681 2.528-1.485 5.02-2.185 7.542-.134.486-.02 1.041-.02 1.708-1.111-.44-1.601-.9-1.832-1.95-.457-2.084-.799-4.166-.609-6.282.198-2.229 1.979-7.954 3.006-7.71 1.842.445 2.666.982 2.553 2.116zm-4.405 15.765c.531.488 1.254 1.071 1.336 1.693.196 1.475-.583 3.395-2.843 2.788-.491-.13-.865-.69-1.43-1.173.736-1.258 1.283-2.286 1.939-3.241.123-.182.82-.231.998-.067zm-3.219 17.427c.942 1.54 1.594 3.283 2.188 5.001.609 1.769.026 3.296-1.445 4.091-1.293.703-2.507.022-3.726-.416-3.769-1.352-5.254-4.509-6.188-8.003-.609-2.278-.932-4.633-1.41-7.1-2.354 1.76-4.835 3.119-7.672.322-.53.618-.981 1.203-1.491 1.736-1.516 1.573-3.406 2.149-5.547 1.993-1.051-.079-2.353-1.795-2.208-2.946.118-.938.318-1.862.522-3-2.332 1.107-9.33 10.344-15.038 4.956-.379-.527-.803-1.025-1.201-1.532-1.623 1.007-3.104 2.234-4.806 2.886-1.609.616-3.325 1.403-5.201.837-1.31-.391-2.067-1.24-2.36-2.547-.16-.707-.467-1.424-.433-2.122.051-1.153-.517-1.262-1.432-1.229-1.489.056-2.982.018-4.475.018-2.023 0-9.795 2.433-11.854 2.787-2.412.416-4.855.816-7.296.877-1.678.038-7.326-1.85-8.215-2.645-1.661-1.484-1.403-3.002.215-4.495 1.468-1.35 3.14-2.146 5.014-2.661 1.369-.378 2.993.124 3.63 1.18.945 1.571-.175 3.676-2.166 4.002-.837.137-1.864.07-2.125-.759-.221-.704.189-1.602.32-2.408-.711-.103-3.521 2.102-3.746 2.364-.566.654-.446 1.329.171 1.78 2.105 1.552 4.536 1.964 7.075 1.733 3.203-.286 5.744-2.141 8.404-3.7.671-.392 1.342-.788 2.244-1.317-1.098-.488-1.905-.79-2.646-1.205-.44-.244-1.716-2.238-1.535-2.446.421-.475 1.11-.873 1.733-.953.309-.036 1.682 2.204 2.137 2.575 1.264 1.034 1.569 1.236 2.886-.03 3.043-2.916 7.359-10.473 7.249-10.79-.345.418-6.074 6.459-16.43 5.09-1.068-.095-1.722-1.228-1.882-2.838-.234-2.345.252-4.519 1.823-6.467C-9.249-.415-8.527-2.209-7.44-3.725-5.477-6.459-2.739-8.216.409-9.303c1.726-.599 7.584-1.596 8.739-1.605.416-.001 6.417.862 8.844 1.924.393.171 1.037.154 1.396-.059 2.143-1.264 4.36-2.358 6.772-2.972.774-.196 1.66-.25 2.417-.063.437.107.91.78 1.031 1.281.166.683-2.192 1.104-2.713.909-.735-.278-2.638.048-3.349.688-.259.234-2.105 2.284-1.966 2.486.601.862 1.409 1.849 2.343 2.131.854.255 4.297-.871 4.97-.995.588-.11 1.133.01 1.211.698.06.526-1.089 1.773-1.447 1.588-.959-.496-1.864-.387-2.888-.269-1.262.151-1.015.736-.696 1.447.74 1.649.28 3.153-.612 4.547-.349.545-.963.928-1.489 1.346-1.304 1.035-2.568 2.135-3.962 3.044-.945.622-1.99.336-2.673-.572-.928-1.233-1.601-2.709-1.13-4.198.324-1.017 1.186-1.975 2.042-2.679 1.228-1.01 4.467-3.031 4.709-3.247-.57-1.034-1.466-1.457-2.305-.757-1.838 1.54-3.836 2.987-4.747 5.37-1.18 3.083-2.356 6.167-3.565 9.241-1.096 2.787-5.342 7.986-5.561 8.329.444.154 3.252.597 4.211.707.747.09 1.138-.23 1.382-.909 1.131-3.126 2.968-5.654 5.632-7.759 2.501-1.971 5.071-3.704 8.078-4.695 1.652-.543 3.388-.953 5.115-1.125 1.908-.187 2.665 1.03 1.86 2.805-.521 1.142-1.239 2.192-1.844 3.298-.293.54-2.896 3.489-3.576 3.995-1.651 1.235-3.298 2.481-5.039 3.582-.839.527-1.991.573-2.807 1.123-.787.523-5.191 3.109-2.684 4.792.145.271.73.559.999.47 3.199-1.039 6.415-1.99 8.005-5.506.524-1.153 1.636-2.132 2.669-2.942 1.405-1.098 2.9-2.175 4.526-2.844 1.554-.641 3.319-.954 5.006-1.03 2.01-.091 3.169 2.037 2.503 4.198-.175.57-.358 1.139-.535 1.708.12.1 1.898-1.244 2.539-2.112.969-1.315 1.786-2.737 2.74-4.064.242-.341 1.556-2.25 3.763-.45-.034.694-.225 1.413-.503 2.055-1.261 2.897-3.832 9.113-3.813 9.436 2.346-1.199 5.357-7.041 5.744-7.87.462-.987.915-1.998 1.188-3.048.209-.797 2.137-1.502 2.411-1.731.696-.583 1.219-.175 1.746.221.612.459.147.82-.08 1.275-.318.637-3.554 7.834-3.635 8.236-.078.385-.134 1.096-.004 1.146.459.172 1.124.334 1.492.122 1.087-.635 2.084-1.422 3.071-2.206.176-.139.995-8.321 1.624-12.024.582-3.407 2.092-6.455 4.38-9.088.583-.669 1.348-1.132 2.141-.782.57.252 1.153.917 1.34 1.521.771 2.467-.2 4.741-1.09 6.97-.987 2.477-2.192 4.865-3.115 7.363-.418 1.13-.374 2.425-.587 3.973 1.054-.729 1.759-1.296 2.539-1.729.377-.204.895-.162 1.348-.229-.076.471-.004 1.061-.259 1.399-.595.779-1.472 1.359-2.01 2.172-1.6 2.411-1.363 2.467.389 4.47 1.446 1.647 2.744 3.373 3.863 5.207zM21.662-1.181c-1.7 1.069-2.265 2.665-2 4.978.612-.314 1.25-.427 1.462-.789.666-1.123 2.604-2.709 1.483-4.221-.282-.102-.707-.119-.945.032zM6.92-1.648c.726 1.045.981 2.419 1.315 3.296 2.322-2.606 4.92-5.521 7.624-8.558-1.283-.427-2.072-1.636-5.58-1.457s-6.295 1.878-7.275 2.3c-1.777.759-3.655 1.374-5.272 2.396-1.397.882-6.301 5.856-6.72 7.906-.33 1.613-.047 2.978.635 4.146.652 1.118 6.844-.581 8.226-.823 3.439-.604 4.189-1.7 4.888-4.758C5.259.619 4.445-.927 1.699-.657.283-.516-3.478.786-2.525 3.572c.356.942 1.235.942 2.032.896.658-.039 1.018-.338.788-1.159-.12-.427 0-1.235.286-1.401.648-.375 1.521-.732 2.198-.595.933.194 1.028 1.266 1.083 2.091.067.968-.583 1.649-1.418 1.897a14.957 14.957 0 0 1-3.38.57c-1.621.092-2.754-.648-3.118-1.824-.48-1.542.105-3.436 1.399-4.232C-1.427-.943-.171-1.671 1.13-2.3c1.962-.951 4.829-.729 5.79.652zm23.782 7.75c-.713.097-1.424.04-1.994.297-4.343 1.975-6.867 5.576-8.529 9.935 3.088-.138 9.949-6.402 10.523-10.232zm5.664 8.288c-2.337.552-3.752 2.034-5.008 3.735-1.233 1.666-2.382 3.363-2.544 5.563 1.159-.507 2.374-.951 3.155-1.798 1.634-1.763 3.015-3.761 4.551-5.622.657-.795.546-1.366-.154-1.878zm25.211-5.292c1.454-3.443 3.43-6.579 2.491-10.577-1.826 1.333-3.377 8.036-2.491 10.577zm2.583 24.571c3.189 1.89 2.467 1.121 2.454 1.051-.358-1.892-.456-3.874-1.76-5.46a2148.372 2148.372 0 0 0-3.459-4.196c-.1.033-.426 6.715 2.765 8.605z"/></svg>