<svg xmlns="http://www.w3.org/2000/svg" width="283.37" height="315.93" viewBox="0 0 283.37 315.93">
  <g id="illu-capy-game-on" transform="translate(-959.666 -249.55)">
    <path id="Tracé_2140" data-name="Tracé 2140" d="M3077.938,429.988l158.317-64.051,77.427,108.747-47.707,64.135-124.23-24.2Z" transform="translate(-2118.272 -11.495)" fill="#7cfa72"/>
    <g id="Illustration_46" data-name="Illustration 46" transform="translate(1011.371 314.846)">
      <g id="Groupe_1187" data-name="Groupe 1187" transform="translate(0 0)">
        <path id="Tracé_2344" data-name="Tracé 2344" d="M8.41,38.223c1.313.966,18.628,2.207,18.628,2.207l-1.325,8.963,14.641-8.458s41.3,2.1,47.743-.739c3.17-1.4,2.094-35.406-1.7-37.318s-76.947-1.415-79.873.4S2.146,10.32,2.877,19.433,4.011,34.987,8.41,38.223Z" transform="translate(140.213 -0.739)" fill="#fff"/>
        <path id="Tracé_2345" data-name="Tracé 2345" d="M287.036,88.973c-7.534-3.684-15.98-3.412-14.082-14.3-6.518.5-31.323,1.437-37.086-.835l-20.316-4.228-11.907-11.2H192.8c-2.742,3.919-6.019,10.948-4.8,15.848l-5.43,2.294c-2.011,24.976-9.363,55.6-9.363,55.6-16.436,15.7-23.516,25.4-33.118,41.79-15.962,27.244-11.659,58.424,8.545,81.841,16.891,3.756,51.323,7.054,67.568-.6-5.4-22.883-.29-21.921,5.226-.986,16.5-7.943,4.3,8.687,15.07,4.619,5.4-3.782.115-35.442.145-40.816l2.3-51.4c-.3-21.955,2.948-23.523,8.493-23.523,2.707,0,3.791,10.186,7.764,9.982,2.691-.138,11.079-11.981,14.435-12.44C279.063,132.651,284.575,100.289,287.036,88.973Z" transform="translate(-127.671 -26.017)" fill="#fff"/>
        <path id="Tracé_2346" data-name="Tracé 2346" d="M275.63,78.84c5.69,1.366,14.429,2.4,9.87-5.933C280.172,63.168,271.483,69.207,275.63,78.84Z" transform="translate(-207.362 -30.269)"/>
        <path id="Tracé_2347" data-name="Tracé 2347" d="M374.03,247.923c-1.185-1.2-7.386,4.628-3.933,6.63A6.906,6.906,0,0,0,374.03,247.923Z" transform="translate(-347.047 -110.359)"/>
        <path id="Tracé_2348" data-name="Tracé 2348" d="M391.5,353.96l1.764.043c-.13-2.653.753-5.847-1.51-7.848C390.282,346.11,390.724,352.811,391.5,353.96Z" transform="translate(-378.376 -154.186)"/>
        <path id="Tracé_2349" data-name="Tracé 2349" d="M347.291,239.312c3.2.667,4.257-2.869,4.229-5.433C348.769,233.692,347.006,236.791,347.291,239.312Z" transform="translate(-312.438 -104.172)"/>
        <path id="Tracé_2350" data-name="Tracé 2350" d="M384.342,319.706a18.618,18.618,0,0,0-1.3,5.092c.218,1.546,1.826,1.3,1.879,1.863.124,1.305-1.964,4.7.281,6.283,1.8-1.206,1.983-3.548,1.194-5.413-.23-.542-1.282-.977-1.411-1.611C384.9,325.518,388.085,317.3,384.342,319.706Z" transform="translate(-367.589 -142.209)"/>
        <path id="Tracé_2351" data-name="Tracé 2351" d="M348.287,262.212c3.187.78,4.878-3.271,2.72-5.424C349.313,258.231,347.961,259.82,348.287,262.212Z" transform="translate(-313.434 -114.38)"/>
        <path id="Tracé_2352" data-name="Tracé 2352" d="M335.947,224.02c-1.872-.721-5.877,4.343-3.312,4.834C334.512,229.213,336.535,225.812,335.947,224.02Z" transform="translate(-288.395 -99.753)"/>
        <path id="Tracé_2353" data-name="Tracé 2353" d="M229.251,234.958c-1.975-.372-3.073,4.234-1.2,4.826C230.844,240.664,230.686,235.228,229.251,234.958Z" transform="translate(-124.533 -104.647)"/>
        <path id="Tracé_2354" data-name="Tracé 2354" d="M361.544,261.1c3.153.382,3.16-3.181,3.019-5.434C362.51,255.376,360.792,260.312,361.544,261.1Z" transform="translate(-333.345 -113.876)"/>
        <path id="Tracé_2355" data-name="Tracé 2355" d="M265.6,311.625c2.087.258,4.326-.125,4.231-2.705C268.2,306.1,264.629,310.7,265.6,311.625Z" transform="translate(-185.372 -137.198)"/>
        <path id="Tracé_2356" data-name="Tracé 2356" d="M356.128,233.179c2.712.326,3.857-2.651,3.624-4.829C359.039,227.537,355.019,231.6,356.128,233.179Z" transform="translate(-325.509 -101.665)"/>
        <path id="Tracé_2357" data-name="Tracé 2357" d="M295.425,100.329c6.394-.572,4.611-6.123-.329-1.828Z" transform="translate(-231.535 -43.154)"/>
        <path id="Tracé_2358" data-name="Tracé 2358" d="M270,305.621c1.633.5,5.22-3.576,2.709-4.227C270.485,300.817,269.561,303.909,270,305.621Z" transform="translate(-191.589 -134.217)"/>
        <path id="Tracé_2359" data-name="Tracé 2359" d="M377.244,326.019c.424-1.843,1.635-4.9-.591-6.04C376.389,321.953,373.726,325.658,377.244,326.019Z" transform="translate(-354.5 -142.527)"/>
        <path id="Tracé_2360" data-name="Tracé 2360" d="M261.1,207.117l1.846-.265.6-3.561L262,202.3C260.482,203.44,261.22,205.491,261.1,207.117Z" transform="translate(-176.635 -90.109)"/>
        <path id="Tracé_2361" data-name="Tracé 2361" d="M339.565,217.9c1.074,1.534,5.837-1.217,2.725-3.608C341.249,214.743,338.651,216.591,339.565,217.9Z" transform="translate(-299.873 -95.45)"/>
        <path id="Tracé_2362" data-name="Tracé 2362" d="M376.062,264.422c-1-.03-3.735,3.08-1.811,4.212C376.885,269.2,377.651,264.469,376.062,264.422Z" transform="translate(-352.4 -117.78)"/>
        <path id="Tracé_2363" data-name="Tracé 2363" d="M359.054,247.881c1.678.512,3.665-3.584,3.019-4.225C359.488,243.229,358.925,245.877,359.054,247.881Z" transform="translate(-329.645 -108.51)"/>
        <path id="Tracé_2364" data-name="Tracé 2364" d="M395.333,326.311c-.72.678-1.31,5.382,1.2,4.83C397.1,330.513,396.967,324.773,395.333,326.311Z" transform="translate(-384.069 -145.231)"/>
        <path id="Tracé_2365" data-name="Tracé 2365" d="M336.42,251.191l1.865-.354.548-3.874C336.49,247,336.182,249.309,336.42,251.191Z" transform="translate(-293.701 -110.003)"/>
        <path id="Tracé_2366" data-name="Tracé 2366" d="M226.708,248.032c-2.009-.4-3.286,3.869-1.5,4.224C227.035,252.62,227.568,248.427,226.708,248.032Z" transform="translate(-119.866 -110.467)"/>
        <path id="Tracé_2367" data-name="Tracé 2367" d="M274.225,295.764c2.082.33,2.776-.364,3.612-2.116C276.18,291.531,273.888,293.6,274.225,295.764Z" transform="translate(-198.232 -130.404)"/>
        <path id="Tracé_2368" data-name="Tracé 2368" d="M356.269,250.222c-1.413-.26-3.076,3.331-1.2,4.215C355.916,254.092,358.025,250.545,356.269,250.222Z" transform="translate(-321.73 -111.449)"/>
        <path id="Tracé_2369" data-name="Tracé 2369" d="M346.13,250.583c1.992.038,2.666-1.9,2.414-3.62C346.552,246.925,345.878,248.859,346.13,250.583Z" transform="translate(-308.857 -110.003)"/>
        <path id="Tracé_2370" data-name="Tracé 2370" d="M268.229,204.448c-1.076,4.723,3.54,3.779,1.756.05Z" transform="translate(-187.397 -91.066)"/>
        <path id="Tracé_2371" data-name="Tracé 2371" d="M345.951,224.986c-2.438,2.513,1.016,3.544,2.249.133C347.619,224.048,346.6,224.313,345.951,224.986Z" transform="translate(-307.92 -99.952)"/>
        <path id="Tracé_2372" data-name="Tracé 2372" d="M338.718,239.7c1.169-.734,3.557-2.237,1.507-3.614Z" transform="translate(-297.207 -105.156)"/>
        <path id="Tracé_2373" data-name="Tracé 2373" d="M331.9,239.08c1.238.59,2.863-2.587,2.414-3.016l-.9,0C332.376,236.866,331.658,237.675,331.9,239.08Z" transform="translate(-286.758 -105.149)"/>
        <path id="Tracé_2374" data-name="Tracé 2374" d="M231.338,261.8c1.337,0,.394-2.931-.62-2.876S230,261.8,231.338,261.8Z" transform="translate(-127.948 -115.331)"/>
        <path id="Tracé_2375" data-name="Tracé 2375" d="M223.386,231.908c1.1.868,2.765-2,.895-2.411C222.7,229.15,222.877,231.505,223.386,231.908Z" transform="translate(-117.142 -102.208)"/>
        <path id="Tracé_2376" data-name="Tracé 2376" d="M233.448,250.583c1.42.4,2.306-3.626,1.2-3.626C233.1,247.425,232.315,250.152,233.448,250.583Z" transform="translate(-132.647 -110.001)"/>
        <g id="Groupe_1184" data-name="Groupe 1184" transform="translate(0 27.217)">
          <path id="Tracé_2377" data-name="Tracé 2377" d="M223.807,310.778c.195-.988,3.617-1.008,3.331-2.847a164.934,164.934,0,0,1-2.907-35.217c.349-9.547,1.709-19.2,2.29-28.776l.093-9.077c-.034-1.689.233-8.122.233-8.122-1.159-.23-1.614-.744-1.728-1.464a2.655,2.655,0,0,1,.124-1.767c.319-.8,1.87-.689,1.87-.689l.162.054.606-12.529-20.362-1.893a.286.286,0,0,1-.025-.014l-.785-.067-.008-1.182a4.312,4.312,0,0,1-.014-2.254l0-.4c.158-.664,1.425-.8,2.021-.791.107,0,.219.011.327.013,3.419-.022,10.427,1.253,12.895,1.485,1.793.168,11.289.27,11.8.567,1.525.888,2.585,5.554-1.041,4.653a.95.95,0,0,0-.247.217l-1.087,25.573c-.1,4.515-.209,9.03-.415,13.54-.8,17.543-2.99,34.918-1.225,52.548.73,7.3,6.752,20.024-4.241,21.464C225.867,319.254,224.975,315.123,223.807,310.778Z" transform="translate(-118.017 -117.971)"/>
          <path id="Tracé_2378" data-name="Tracé 2378" d="M134.533,237.707c-19.539-30.677-.847-70.052,20.88-94.009,4.238-4.672,9.4-8.781,13.425-13.521,1.354-1.538,1.806-6.4,1.974-7.922,1.469-13.354,3.381-26.724,5.592-39.671.865-5.067,1.618-15.552,8.8-14.281-.459-4.23-1.076-7.657,1.308-11.511,4.756-7.688,14.021-5.9,20.784-2.077,5.8-7.279,18.382-8.967,16.629,3.8.015-.121-2.123,6.294-3.407,7.577,0,0,53.423,10.936,61.163,13.73,2.13.769,5.687,2.1,6.142,4.584.721,3.934-2.4,14.88-3.469,19.327-1.873,7.766-6.891,27.973-13.071,32.621-1.848,1.389-5.255,2.092-6.548,3.246-1.6,1.429-3.274,5.791-5.331,7.725-2.52,2.369-5.289,3.39-8.376,1.342-2.2-1.46-10.326-16-10.275-18.579a2.016,2.016,0,0,1,2.439-2.054c.837.209,2.831,3.389,4.093,4.329,5.179,3.856,17.7,4.076,22.149-1.121,4.414-5.16,6.72-17.519,9.088-24.015-.7-.463-1.6.368-2.544.246-1.392-.18-10.942-10.242-6.462-11.584,4.173-1.25,7.08,6.149,10.836,1.514,1.233-1.521,3.216-11.317,1.692-12.817l-40.851-9.758-24.524-5.315-7,.714c-1.823-4.918-3.613-11.233-8.887-13.527-7.6-3.306-11.7,2.7-10.862,9.919.231,1.99,2.606,6.61,2.074,7.733-3.188,3.741-4.543-.764-5.253-.938-3.873-.954-4.427,3.163-5.052,6.057-3.046,14.1-4.559,28.465-5.861,42.849a36.153,36.153,0,0,1-1.843,8.833c-.032.064-.069.125-.106.185l.046.026-.171.16a3.145,3.145,0,0,1-.8.751c-25.307,23.867-54.989,65.333-35.478,100.681,3.12,5.652,8.757,8.77,11.273,12.914.768,1.265.828,3.3,1.531,3.91,3.315,2.882,26.1,2.3,31.459,4.529a13.141,13.141,0,0,1,3.631-10.266c-.943-1.24-13.857-.313-11.424-5.389,1.794-.34,3.924.258,5.665-.072,1.791-.339,8.871-8.359,10.244-10.315,18.791-26.773-1.793-55.638-33.646-48.723-5.014,1.089-8.949,4.026-13.789,5.257-.186-4.882,6.836-8.108,10.884-9.368,30.361-9.451,57.943,15.941,45.487,46.65-2.973,7.329-7.339,11.474-13.005,16.623-.589.535-1.3.536-1.016,1.7,4.326-.543,7.388,1.563,11.61.434,4.249-1.136,16.536-6.6,16.744-11.578-1.946-9.916-3.847-20.021-3.466-30.168l2.577-1.029,8.342,46.157c.418,1.92,5.611.827,6.292-.167-1.436-10.579-3.562-21.654-3.406-32.38.055-3.8.634-11.857,1.5-15.425.74-3.057,3.62-3.484,3.757-.791.428,8.361-.915,17.863-.385,26.511.431,7.04,2.106,15.118,3.183,22.2.667,4.387,3.917,11.958-2.682,13.968-7.2,2.194-10.922-.853-11.4-8.059l-3.3,1.2c-.93-.255-1.05-2.838-1.61-3.849-1.553-2.8-5.9-3.585-8.694-4.616-1.772-.038-.631.771.129,1.084,4.737,1.949,9.767,2.423,8.374,9.231-1.654,8.085-11.487,7.582-18.181,7.214-9.123-.5-20.44-1.918-29.644-3.022-4.265-.511-18.114-1.693-20.315-5.089-1.2-1.852.074-2.989-.285-4C143.668,247.568,136.156,240.256,134.533,237.707Zm121.589-98.088c.16,1.272,1.161,2.72-.235,3.717-1.4-1.241-1.409-4.764-3.965-3.494-2.227.951.955,5.893,2.2,6.231C257.042,146.863,262.7,140.135,256.123,139.619ZM212.6,237.989l1.806.608,0-2.415A1.519,1.519,0,0,0,212.6,237.989Z" transform="translate(-126.319 -49.076)"/>
          <path id="Tracé_2379" data-name="Tracé 2379" d="M277.822,68.691c5.068-1.117,10.407,5.791,8.543,10.407-1.335,1.309-7.5,1.48-9.224.8C273.71,78.531,273.775,69.583,277.822,68.691Z" transform="translate(-207.405 -57.76)"/>
          <path id="Tracé_2380" data-name="Tracé 2380" d="M294.684,99.786c-.58-1.929,3.158-3.183,4.659-2.076C300,99.815,295.225,101.586,294.684,99.786Z" transform="translate(-231.131 -70.555)"/>
          <path id="Tracé_2381" data-name="Tracé 2381" d="M263.669,202.964l.022,3.884-1.594.72C260.243,207.129,260.876,201.847,263.669,202.964Z" transform="translate(-176.794 -117.553)"/>
          <path id="Tracé_2382" data-name="Tracé 2382" d="M184.309,160.867c.969.6.644,2.794-1.128,3.183C179.708,164.812,181.116,158.891,184.309,160.867Z" transform="translate(-53.646 -98.69)"/>
          <path id="Tracé_2383" data-name="Tracé 2383" d="M211.84,188.143l-2.845.614C206.733,185.193,213.727,183.914,211.84,188.143Z" transform="translate(-96.153 -109.836)"/>
          <path id="Tracé_2384" data-name="Tracé 2384" d="M167.886,178.224c-2.291-1.129-.251-4.279,1.794-2.991C170.976,176.049,169.651,179.093,167.886,178.224Z" transform="translate(-31.08 -105.134)"/>
          <path id="Tracé_2385" data-name="Tracé 2385" d="M236.7,239.1c-1.3-.286-.724-5.329,1.128-4.17C238.631,235.73,238.248,239.444,236.7,239.1Z" transform="translate(-137.447 -131.784)"/>
          <path id="Tracé_2386" data-name="Tracé 2386" d="M164.862,158.008s1.86-1.025,2.587-.448-.065,2.26-.065,2.26C166.07,161.021,163.877,159.36,164.862,158.008Z" transform="translate(-27.382 -97.319)"/>
          <path id="Tracé_2387" data-name="Tracé 2387" d="M268.235,204.229l1.4-.242C271.6,208.134,266.551,208.516,268.235,204.229Z" transform="translate(-186.996 -118.078)"/>
          <path id="Tracé_2388" data-name="Tracé 2388" d="M231.568,227.458c1.643-.247,1.419,2.68-.007,3.251C230.406,230.123,230.722,227.585,231.568,227.458Z" transform="translate(-129.054 -128.526)"/>
        </g>
        <g id="Groupe_1185" data-name="Groupe 1185" transform="translate(150.338 11.028)">
          <path id="Tracé_2389" data-name="Tracé 2389" d="M24.683,28.674l-.018-.2-.2-.014a15.188,15.188,0,0,0-5.359.476.473.473,0,0,0-.293.282l-.028.057,0,.064a6.149,6.149,0,0,0,.185,1.072,6.3,6.3,0,0,1,.167.911l.008.087.191.191h.1a15.162,15.162,0,0,0,1.716-.107c.329-.035.616-.065.892-.069a2.671,2.671,0,0,1,.05.517c-.36,3.372-1.811,3.837-3.324,3.837-2.468,0-2.735-2.925-2.735-4.183,0-1.759,1.192-6.062,3.4-6.062a6.92,6.92,0,0,1,2.471.383,2.324,2.324,0,0,0,.738.165,1.592,1.592,0,0,0,.184-.024l.07-.013.053-.053a1.09,1.09,0,0,1,.161-.123c.891-.753,1-.86,1-1.142a1,1,0,0,0-.434-.749,5.142,5.142,0,0,0-3.641-1.292c-3.312,0-6.737,3.149-6.737,8.42a12.415,12.415,0,0,0,.417,3.362c.646,2.795,2.384,4.041,5.635,4.041a5.321,5.321,0,0,0,5.161-3.869l.03-.135a11.717,11.717,0,0,0,.226-4.913C24.743,29.3,24.712,28.994,24.683,28.674Z" transform="translate(-13.304 -21.131)"/>
          <path id="Tracé_2390" data-name="Tracé 2390" d="M43.035,24.13c-.124-3.406-1.558-4.124-2.71-4.124h0a3.772,3.772,0,0,0-.48-.022c-2.376,0-3.478,1.66-3.684,5.551-.377,7.631-.481,9.24-.587,10.68v.109a.372.372,0,0,0,.083.291.29.29,0,0,0,.216.093h2.113c.176,0,.266-.161.318-.282l.022-.05,0-.055c-.145-3.341-.17-4.337-.116-5.133.428,0,.81-.018,1.166-.032.319-.012.619-.023.913-.026.172,2.584.231,3.786.257,4.307.011.22.017.333.023.389l.015.155.148.049a2.761,2.761,0,0,0,.938.111h.976l.3-.213,0-.12c.173-9.951.119-11.117.1-11.571Zm-4.423.712c.1-1.283.519-1.846.907-1.828.454.018.943.789.943,2.005v.318L40.232,29.1c-1.056-.016-1.518-.029-1.719-.039,0-.065,0-.151,0-.245-.006-.275-.013-.624-.013-.766C38.5,26.656,38.517,26.056,38.612,24.843Zm-2.8,11.542Z" transform="translate(-23.22 -19.93)"/>
          <path id="Tracé_2391" data-name="Tracé 2391" d="M60.657,25.874c-1.695,0-2.563,1.487-3.259,2.681-.572.967-1.051,1.805-1.489,2.684-.069-.29-.133-.612-.2-.949-.38-1.922-.9-4.553-3.193-4.553a2.891,2.891,0,0,0-.426.023l-.058.008-.048.034c-1.531,1.106-1.626,15.3-1.626,15.44,0,.351.179.729.572.729a8.73,8.73,0,0,0,2.4-.252l.023-.037a1.138,1.138,0,0,0,.084-.347c-.045-2.373.027-4.789.1-7.125q.017-.594.035-1.188c.112.249.22.5.328.754a14.175,14.175,0,0,0,1.137,2.274l.068.1,1.577.069.109-.109c.159-.1.591-.606,2.39-4.737.093,2.086.182,5.626.238,7.888l.04,1.567v.383l.25.125.055.02c.14.031,2.174.211,2.462-.429l.021-.294c0-4.285-.112-8.392-.335-12.243C61.867,27.7,61.746,25.874,60.657,25.874Z" transform="translate(-29.809 -22.492)"/>
          <path id="Tracé_2392" data-name="Tracé 2392" d="M79.449,36.075c-.047-.373-.213-.562-.5-.562h0c-.316.011-1.083.125-1.824.235-.553.083-1.181.176-1.311.182,0,0-.042-.05-.043-.261-.116-1.136-.175-2.148-.175-3.009v-.043l3.336-.417-.523-2.52h-.2a.577.577,0,0,0-.131.022l-2.63.378a23.734,23.734,0,0,1-.365-4.561c.245-.033.657-.062,1.057-.089,1.5-.1,1.894-.159,2.023-.379L78.2,25v-.339a6.752,6.752,0,0,0-.1-1.021c-.038-.246-.077-.5-.093-.756l-.012-.06c-.108-.323-.572-.3-.82-.283l-4.892.372v.613l.98,14.1.007.084c.022.32.073,1.069.6,1.069a.233.233,0,0,0,.1-.02,2.326,2.326,0,0,0,.5-.06c1.7-.11,2.727-.232,3.481-.321.585-.069,1.008-.119,1.445-.128l.042,0c.089-.018.293-.1.251-.451A10.015,10.015,0,0,0,79.449,36.075Z" transform="translate(-39.572 -21.063)"/>
          <path id="Tracé_2393" data-name="Tracé 2393" d="M99.98,22.488a3.677,3.677,0,0,0-2.473.724,9.112,9.112,0,0,0-2.839,6.242,23.815,23.815,0,0,0,.13,6.662c.371,2.274,2.494,4.27,4.543,4.27,4.56,0,4.774-6.212,4.866-8.865.13-4.052-.438-6.675-1.737-8.017A3.333,3.333,0,0,0,99.98,22.488Zm1.36,8.063a35.335,35.335,0,0,1-.629,5.317,2.075,2.075,0,0,1-1.018,1.3,1.073,1.073,0,0,1-.936-.07h0c-1.159-.6-1.159-2.411-1.159-4.33V32c0-4.217,1.43-7.015,2.375-7.015.337,0,.654.392.894,1.1a13.831,13.831,0,0,1,.472,4.1Z" transform="translate(-49.468 -21.045)"/>
          <path id="Tracé_2394" data-name="Tracé 2394" d="M124.665,20.241l-.117-.021a11.412,11.412,0,0,0-2.141-.2h-.058c-.543,0-.719,1.007-.839,7.67-.013.714-.026,1.407-.042,1.94-.423-.9-.889-1.947-1.375-3.038-2.211-4.962-3-6.507-3.6-6.507-.031,0-.391-.026-2.735-.191l-.16-.011-.083.138a.646.646,0,0,0-.1.3v.163c.016.3.12,1.952.15,2.187l.767,11.445c0,.026.254,2.6.326,2.738l.2.216.119-.008c.968-.062,1.548-.053,1.894-.048.417.007.607.009.79-.136l.1-.079,0-.408c-.672-6.633-.984-9.3-1.122-10.443l5.547,10.76.118.028a5.946,5.946,0,0,0,1.654.083l.372-.016.208-.209,0-.1s.043-.957.064-1.354l.007-2.67c.056-9.207.063-10.39.227-11.636v-.085a.664.664,0,0,0-.1-.411Z" transform="translate(-57.894 -19.886)"/>
          <path id="Tracé_2395" data-name="Tracé 2395" d="M143.464,22.169c0-.052-.01-.1-.011-.124v-.116l-.082-.082a.725.725,0,0,0-.4-.15h0c-.2.011-.453.009-.727.008-1.243,0-2.072.027-2.245.522l-.016.083a3.058,3.058,0,0,1-.055.312l-.07,1.439c-.164,3.912-.333,7.957-.333,11.969,0,.715.886.715,1.264.715.218,0,.832-.048.984-.073l.216-.035.019-.218c.5-5.972.924-9.152,1.174-11.052a23.436,23.436,0,0,0,.292-3.025C143.477,22.316,143.47,22.243,143.464,22.169Z" transform="translate(-69.527 -20.693)"/>
          <path id="Tracé_2396" data-name="Tracé 2396" d="M140.654,49.224c-1.2,0-1.745,1.13-1.745,2.18a1.421,1.421,0,0,0,1.516,1.516,1.927,1.927,0,0,0,1.7-2.135A1.485,1.485,0,0,0,140.654,49.224Z" transform="translate(-69.252 -32.954)"/>
        </g>
        <g id="Groupe_1186" data-name="Groupe 1186" transform="translate(84.179 46.469)">
          <path id="Tracé_2397" data-name="Tracé 2397" d="M152.743,86.8V83.792h45.078v0h15.033V86.8h-3.007v9.011h-3.006V86.8h-3.007v3.006h-3.006v3h-3.007v0h-3v-3h-6.013v3H182.8v3.006h-3.007v3.007h-3.006v3.006H158.752V98.821h-3.007V95.814h-3V89.805h-5.988V86.8Zm18.031,12.023h3.007V95.814h3V92.808h3.006v-3h-3.006v-3h-3v6h-3.007Z" transform="translate(-146.755 -83.792)"/>
          <path id="Tracé_2398" data-name="Tracé 2398" d="M206.377,95.226v6.013h3.007V98.232h3V95.226h3.007v-3h-3.007v-3h-3v6Z" transform="translate(-182.358 -86.21)" fill="#fff"/>
        </g>
        <path id="Tracé_2399" data-name="Tracé 2399" d="M.164,12.972C-1.055-3.771,13.066.663,24.294.216,42.242.253,59.951.09,77.973.444c6.512-.59,11.351,1.431,10.359,8.671.342,12.813.863,14.825,1.126,27.91-3.408,7.126-12.5,4.616-18.845,4.638-9.895-.145-19.826-.386-29.644-.646l-17.649,9.81a1.942,1.942,0,0,1-2.113-.3c-.581-.514.521-3.32.763-4.057l1.4-5.759c-9.893.17-21.922.272-22.269-10.58C.782,28.447.763,28.577.148,24.564-.212,24.469.2,14.562.164,12.972ZM3.142,23.43c.3,1.01,1.222,11.322,2.492,11.639,5.133,2.5,18.057,2.663,20.094,2.67a1.828,1.828,0,0,1,1.846,2.082L25.39,46.469l12.344-7.254s1.253-1.522,5.607-1.17c12.144.623,24.809.433,37.107,1.17,1.656,0,5.618-1.069,5.853-1.872a147.844,147.844,0,0,0-.726-18.37A124.362,124.362,0,0,1,84.9,4.784c-.008-.341-.838-1.183-1.3-1.338L6.306,2.97A6.684,6.684,0,0,0,4.654,4.43C1.9,8.8,2.4,17.774,3.142,23.43Z" transform="translate(142.206 0)"/>
      </g>
    </g>
    <g id="Illustration_28" data-name="Illustration 28" transform="matrix(0.995, 0.105, -0.105, 0.995, 1178.692, 485.358)">
      <g id="Groupe_1150" data-name="Groupe 1150" transform="translate(0 0)">
        <path id="Tracé_2067" data-name="Tracé 2067" d="M.093.1A1.324,1.324,0,0,0,0,0,.194.194,0,0,0,.093.1Z" transform="translate(15.342 75.207)" fill="#75fafc"/>
        <path id="Tracé_2068" data-name="Tracé 2068" d="M0,.152C.164.156.247.1.179,0,.006.042.117.088,0,.152Z" transform="translate(23.969 76.374)" fill="#75fafc"/>
        <path id="Tracé_2069" data-name="Tracé 2069" d="M.034.052.156.115,0,0Z" transform="translate(24.341 76.304)" fill="#75fafc"/>
        <path id="Tracé_2070" data-name="Tracé 2070" d="M0,.078C.07.034.127,0,.061,0A.163.163,0,0,1,0,.078Z" transform="translate(25.558 76.106)" fill="#75fafc"/>
        <path id="Tracé_2071" data-name="Tracé 2071" d="M0,0,.006.064A.852.852,0,0,1,.1,0,.086.086,0,0,1,0,0Z" transform="translate(25.421 76.204)" fill="#75fafc"/>
        <path id="Tracé_2072" data-name="Tracé 2072" d="M.209.236.375.043.053,0C-.167.2.382-.054.209.236Z" transform="translate(25.645 75.9)" fill="#75fafc"/>
        <path id="Tracé_2073" data-name="Tracé 2073" d="M.587.429C.5.4.438.374.614,0,.372.308.387.43.411.567s.048.268-.248.489C.5.9.067,1.3,0,1.4.257,1.271.324.8.578.813.779.463.672.453.587.429Z" transform="translate(26.809 73.961)" fill="#75fafc"/>
        <path id="Tracé_2074" data-name="Tracé 2074" d="M0,.211C.033.326.29.119.317,0,.236.054.026.048,0,.211Z" transform="translate(26.491 74.956)" fill="#75fafc"/>
        <path id="Tracé_2075" data-name="Tracé 2075" d="M0,.273A2.6,2.6,0,0,0,.183.088L.15,0C.1.092.056.187,0,.273Z" transform="translate(27.719 73.869)" fill="#75fafc"/>
        <path id="Tracé_2076" data-name="Tracé 2076" d="M0,0,0,.033C.03.035.023,0,0,0Z" transform="translate(42.687 13.588)" fill="#75fafc"/>
        <path id="Tracé_2077" data-name="Tracé 2077" d="M.2,8.045a1.8,1.8,0,0,0,1.331-.16c.181-.066.357-.064.728-.144.27-.085.535-.274.774-.369A8.82,8.82,0,0,0,4.99,6.543a4.109,4.109,0,0,1,.95-.658c.49-.166.659-.606.856-.683a2.859,2.859,0,0,0,2-1.313c.181-.237.328-.39.473-.377a.928.928,0,0,0,.456.011c.421-.14.831-1.071,1.029-.665.1.055.186-.128.261-.2.207-.181.236-.443.444-.4.206-.045.4-.05.459.1a.422.422,0,0,1,.149.084c.265.263.118.57.127.923A13.2,13.2,0,0,1,12.5,5.132a2.732,2.732,0,0,1,.324,1.413.823.823,0,0,0,.187.315c.189.216.035.395.041.771a1.29,1.29,0,0,0,.314.654c.385.454.067.651.133,1.11.038.224.036.563.315.3.236-.177.506.158.557.409.113.356-.78.843-.366,1.239.124.107.019.234-.017.368-.266.524.22,1.02.331,1.548.02.337.116.986.321.68.082-.144.009-.36.074-.511.153-.225.413.082.436.308.062.279-.142.569-.192.819,0,.372.4-.01.525-.114a.323.323,0,0,1,.2.024c.383.155.172-.451.077-.616a2.1,2.1,0,0,1-.394-.917c.015-.222-.862-1.518-.172-1.019.127.114.218.227.285.178.1-.08-.085-.578-.046-.808-.02-.172.11-.262.167-.408a1.513,1.513,0,0,0-.035-.771c-.2-.8-.193-1.176-.344-1.98-.215-.589.03-1.618-.517-2-.212-.065-.306.111-.4-.147-.126-.3.129-.33.293-.665a3.115,3.115,0,0,0-.1-1.408c-.18-1.482-.782-3.594-2.55-3.9A2.489,2.489,0,0,0,10.63.355a1.229,1.229,0,0,0-.74.332c-.829.61-2.069,1.384-2.774,1.9A5.143,5.143,0,0,1,5.444,3.64,14.411,14.411,0,0,0,2.516,6.117,5.761,5.761,0,0,1,.653,7.288c-.3.086-.941.492-.507.735Z" transform="translate(27.464 0)" fill="#75fafc"/>
        <path id="Tracé_2078" data-name="Tracé 2078" d="M.024.019.027,0,0,.027A.022.022,0,0,1,.024.019Z" transform="translate(42.667 13.569)" fill="#75fafc"/>
        <path id="Tracé_2079" data-name="Tracé 2079" d="M27.124,40.394c-.077-.413-.212-.884-.207-.975-.027-.189.335.544.3.236a13.47,13.47,0,0,0-1-2.735,2.887,2.887,0,0,1-.307-1.147c-.208-.678-.421-1.349-.571-2.081-.129-.683-.5-.819-.652-1.494a8.313,8.313,0,0,0-.882-2.484,1.027,1.027,0,0,1-.072-.634c.06-.067.3.406.4.457a17.662,17.662,0,0,0-1.465-3.677c-.392-.9-.644-1.267-.9-1.978-.1-1.811-1.287-3.115-1.661-4.941-.688-2.454-1.572-4.659-2.416-7.032a44.731,44.731,0,0,0-2.061-5.286,1.654,1.654,0,0,1-.071-.192c-.064-.2.02-.414-.054-.66-.657-1.943-1.4-4.333-3.569-5.21C10.039-.367,8.78.1,6.965.271c-.5.022-.785.282-1.238.119A.6.6,0,0,0,5.238.4,8.205,8.205,0,0,1,3.5,1.048a2.484,2.484,0,0,0-.8.173,5.535,5.535,0,0,0-.5.478c-.439.43-1,.642-1.337,1.314A10.355,10.355,0,0,0,.186,5.041,2.238,2.238,0,0,0,.231,6.927a21.961,21.961,0,0,1,.909,2c.049.177.009.163-.114-.03C.752,8.482-.181,6.5.214,8.182a6.6,6.6,0,0,0,1.149,2.4c.083.092.259.317.231.056-.169-1.119.233-.817.413.081.073.4.058.761.143,1.121.113.517.4.9.432,1.184-.014.028-.066.036-.109.153-.03.085-.131.082-.149.161-.025.1-.009.294-.082.387s-.128.113-.213.226c-.125.063-.028.344.1.667A14.134,14.134,0,0,1,3.513,17.6a6.108,6.108,0,0,0,.053,1.118,22.692,22.692,0,0,0,.691,2.218,14.606,14.606,0,0,1,.434,1.57c.375,1.362.842,2.68,1.191,4.186a36.424,36.424,0,0,1,1.234,4.194c.552,2.783,1.551,5.564,2.179,8.234.172.669.565,1.393.705,2.011a1.908,1.908,0,0,0,.127.757,10.475,10.475,0,0,0,.79,1.367c.272.4.408.576.357.884a1.724,1.724,0,0,0-.024.351c.216,1.022,1.721,1.789,2.509,2.107a5.6,5.6,0,0,0,1.949.362,2.7,2.7,0,0,1,.879.107,7.178,7.178,0,0,0,2.665-.919c.775-.221,1.811-.816,2.727-1.138a5.142,5.142,0,0,0,1.161-.461c-.071-.046-.537-.05-.231-.229a9.786,9.786,0,0,0,3.2-1.795,4.487,4.487,0,0,0,.825-.655,1.905,1.905,0,0,0,.2-1.4Zm-1.107-2.852-.171-.47A.56.56,0,0,1,26.017,37.542Zm-.939-4.206a.641.641,0,0,1-.062-.041v0Zm-.542.141-.16-.44a.674.674,0,0,1,.186.131C24.6,33.365,24.581,33.441,24.537,33.477Zm2.065,8.3c-.13.126-.123-.03-.108-.192a3.23,3.23,0,0,0,.221-.61c.007,0,.011.007.018.007l.074-.267C26.791,41.14,26.842,41.516,26.6,41.782Z" transform="translate(37.477 23.967)" fill="#75fafc"/>
        <path id="Tracé_2080" data-name="Tracé 2080" d="M22.4,31.393A5.4,5.4,0,0,0,22.018,30c-.16-.283-.662-.976-.738-.843s.03.727-.192.545c-.306-.351-.242-1.067-.351-1.529-.045-.416-.51-.751-.159-1.049.144-.07.122-.281.208-.4.359-.255.37-.453-.024-1.065-.243-.479-.62-.964-.824-1.48-.329-.915-.019-1.116-.251-1.792-.191-.809-.531-1.567-.705-2.361-.391-1.471-.889-3.338-1.41-4.861a41.691,41.691,0,0,1-.955-4.086c-.68-2.366-1.143-4.316-1.847-6.453.066-.959-1.045-1.615-1.221-2.4a1.469,1.469,0,0,0-.145-.654A4.743,4.743,0,0,0,9.8.063c-.588.028-.635-.158-1.307,0-.624.106-1.129.412-1.74.563-.612.1-1.759.534-2.513.661-.133.03-.154.032-.335.079-.116.03-.169.061-.15.088.474.345-.687.469-1.37.818A8.382,8.382,0,0,0,.331,3.721a4.06,4.06,0,0,0-.1,1.54c.022.346-.2-.22-.228.014A10.625,10.625,0,0,0,.737,7.943a9.047,9.047,0,0,0,.2,1.332,4.994,4.994,0,0,0,.34,1.489,8.252,8.252,0,0,1,.471,1.908,4.992,4.992,0,0,1,.383,1c.018.269-.036.361-.134.236-.068-.061-.135-.183-.216-.2.142,1.551,1.353,3.371,1.6,4.719-.085,1.151.647,2.061.873,3.2A88.425,88.425,0,0,0,7.231,32.372a1.9,1.9,0,0,1,.077.751,5.186,5.186,0,0,0,6.928,3.694,11.233,11.233,0,0,1,1.581-.194c.191.025.317.134.529.025a5.882,5.882,0,0,1,1.022-.414,2.952,2.952,0,0,0,1.064-.266A5.726,5.726,0,0,0,20.3,34.836c.469-.586,1.245-1.08,1.552-1.716a4.132,4.132,0,0,0-.228-2.4c-.033-.167-.018-.207.049-.1a7.461,7.461,0,0,1,.474,1.2c.237.64.347.072.267-.344ZM.711,3.609c.122-.085.116.046.1.181a3.007,3.007,0,0,0-.236.464c-.006,0-.009-.007-.017-.009l-.088.2C.513,4.113.482,3.793.711,3.609ZM.8,7.043l.111.385A.37.37,0,0,1,.8,7.043Zm.42,3.465a.436.436,0,0,1,.056.033v0Zm.481.126c-.016-.162.013-.226.061-.257l.1.361A.544.544,0,0,1,1.7,10.634Z" transform="translate(23.787 36.846)" fill="#75fafc"/>
        <path id="Tracé_2081" data-name="Tracé 2081" d="M19.46,22.443c-.007-.394-.629-1.864-.969-1.576-.054.091-.07.242-.131.322-.212.04-.251-.4-.284-.646a2.857,2.857,0,0,0-.231-1.056c-.047-.162-.009-.209.1-.284.132-.194.457-.427.5-.591.13-.139-.126-.492-.263-.705a3.839,3.839,0,0,1-.683-1.5c-.053-.344.06-.523-.013-.823-.54-1.812-.917-3.57-1.44-5.412-.642-2.356-.975-4.83-1.649-7.175a4.557,4.557,0,0,0-.955-1.54c-.312-.388-.338-.594-.708-.714C12.305.487,11.552.634,11.165.448A1.753,1.753,0,0,0,9.721.031,29.953,29.953,0,0,0,6.589.886,13.11,13.11,0,0,1,3.809,1.8c-.155.062-.487.082-.557.207.011.21-.047.3-.659.536A10.157,10.157,0,0,0,.5,3.658c-.186.176-.242.93-.276,1.166C.193,5.1.042,4.8.006,5.035A2.527,2.527,0,0,0,.175,6.177a7.128,7.128,0,0,1,.61,2.207C.9,9.1,1.35,9.677,1.5,10.555c.114.331.654,1.207.142.97-.1-.014-.092.049-.066.165a20.3,20.3,0,0,0,1.393,2.963,5.641,5.641,0,0,1,.16.87c.083.532.56,1.189.737,1.827a65.068,65.068,0,0,0,2.853,8.166c.208.327.1.785.325,1.1,1.121,2.305,4.242,1.165,5.972.616a9.378,9.378,0,0,0,.96-.173c.341-.071.55.106.871.012a4.686,4.686,0,0,1,1.385-.427,4.9,4.9,0,0,0,1.8-1.416c.706-.807,1.354-1.531.884-2.65-.446-1.335.049-.362.26.087.336.7.38.243.3-.161ZM.685,4.131.6,4.28c.054-.26.019-.537.229-.651.113-.048.108.062.1.172a2.732,2.732,0,0,0-.218.34C.695,4.139.692,4.134.685,4.131ZM.647,6.293l.107.294C.621,6.515.63,6.411.647,6.293Zm.39,2.7a.385.385,0,0,1,.054.02v0Zm.473.05c-.015-.127.015-.181.062-.21l.1.275A.5.5,0,0,1,1.51,9.041Z" transform="translate(8.74 49.588)" fill="#75fafc"/>
        <path id="Tracé_2082" data-name="Tracé 2082" d="M9.043,36.883a8.617,8.617,0,0,1,1.765-.844,5.215,5.215,0,0,0,.742-.377,7.28,7.28,0,0,0,1-.408c1.135-.795,2.491-1.249,3.632-2.029.2-.185.691-.493.687-.759-.057-.082-.242-.075-.328-.136-.27-.075.048-.3.315-.469a4.8,4.8,0,0,1,.494-.319c.177-.054.289.253.482.278.637,0,1.236-.691,1.793-1.035,2.5-2.1,5.239-4.041,6.915-6.89.4-.706,1.091-.614,1.525-1.381.763-1.25,2.277-2.512,2.8-3.819a11.214,11.214,0,0,0,1.6-2.705c.254-.638.528-.726,1.025-1.393.644-1.144,1.23-2.206,1.778-3.381.517-1.543.707-2.52,1.087-3.677A21.125,21.125,0,0,1,38.045,1.5c.155-.474.6-1.174.181-1.5C37.542,0,37.1.937,36.8,1.481a7.587,7.587,0,0,0-.411,1.163A6.079,6.079,0,0,0,35.423,4.3c-.158.473-.278.875-.42,1.188-.189.4-.669.845-.889,1.333a16.248,16.248,0,0,1-1.061,2.2c-.139.267,0,.64-.233,1.03a12.252,12.252,0,0,1-.779,1.15,2.271,2.271,0,0,0-.391,1.431c-.168.463-.628.366-1.049.938a7.813,7.813,0,0,0-.776,1.352,8.916,8.916,0,0,0-1,2.53c-.145.472-.512.117-.818.3-.521.174-.909,1.447-1.123,1.912-.16.314-.614.594-.588.442.021-.126.129-.312.164-.435.013-.041-.019-.026-.067.024-.058.067-.152.21-.278.386-.362.427-.364.928-.651,1.32-.085.054-.132.019-.234.116a3.3,3.3,0,0,1-.852.818,4.038,4.038,0,0,0-.787.927c-.246.325-.223.871-.671,1.007-.146.066-.425-.035-.417.089-.032.16.011.312-.2.491a4.738,4.738,0,0,0-.8.974c-.4.644-.841.351-1.419.908-.338.234-.7.823-.985,1.006A8.445,8.445,0,0,0,16.3,29.979c-.45.473-.693.249-1.159.49-.43.229-.533.9-.793,1.042C13.1,31.222,12.5,32.54,11.7,33.17c-.267.216-.36.025-.769.132-.274-.014-2.382.9-1.208.738.441-.085.539.436.124.664a2.861,2.861,0,0,1-.3.175c-.361.118-.579.535-.949.372a2.226,2.226,0,0,0-1.718-.259c-.5.156.268.517-.446.445-1.064-.328-1.808.242-2.731.644a3.576,3.576,0,0,1-1.479.409c-.218,0-.454-.061-.62.034a.2.2,0,0,0,.071.371c.285.15,1.155-.225,1.346-.066.072.042.064.121-.019.234a1.6,1.6,0,0,1-.655.549C1.5,37.938.819,37,.207,37.272a.239.239,0,0,0-.043.464c.149.077.6.2.648.312-.058.125-.635.26-.58.493.135.169.467.1.678.052.727-.272,1.114-.246,1.6-.654.178-.134.239-.067.511-.106a10.621,10.621,0,0,0,1.9-.689c.174-.058,1.463-.944,1.173-.339-.21.2-.6.44-.834.641-.285.207.121.122.479.074.526-.077,1.012-.482,1.521-.56.245-.013.291.071.411.209.336.174.856-.1,1.3-.256Z" transform="translate(0 6.447)" fill="#75fafc"/>
      </g>
    </g>
    <g id="Illustration_29" data-name="Illustration 29" transform="translate(1042.208 249.55) rotate(31)">
      <path id="Tracé_2083" data-name="Tracé 2083" d="M58.859,42.931a5.762,5.762,0,0,0-.333-1.145.816.816,0,0,1-.09-.772c.046-.076.127-.205.225-.174s.2.154.273.208c.008-.519-.6-1.265-.873-.689-.052.183.041.369-.085.5-.093.1-.22.187-.233.335,0,.564-.093,1.652-.657,1.985-.383.088-.129-.35.006-.534a.749.749,0,0,0,.107-.795c-.111-.192-.189-.142-.329.05-.236.3-.554.5-.667.852-.125.388-.353.443-.635.558a.809.809,0,0,0-.743.993c.04.416.339.985.092,1.32-.124.106-.313-.216-.407-.584-.117-.717.012-.9-.525-.456a2.121,2.121,0,0,1-1.084.482c-.119.044-.157.02-.244.166-.073.122-.046.279-.234.282-.3.029-.735-.218-.941-.082-.184.076-.439.27-.456.485.012.131.2.342.223.49-.03.3-.515.3-.844.365-.367.051-.575-.225-.909-.233-.151.095-.233.326-.415.4-.381.115-.84.411-.688.806.019.105.065.242-.006.315-.278.17-.4-.677-.687-.322-.276.252-.573-.049-.392-.32.106-.116.395-.411.577-.618.277-.385-.194-.313-.455-.179a19.657,19.657,0,0,0-3.12,1.821c-.283.31-.287.633-.615.614-.734-.074-.715-.339-.8.458-.095.167-.438-.027-.68-.033-.336-.123-.377-.794-.816-.819-.3-.029-.723.811-1.048.636-.142-.066-.26-.179-.43-.124-.538.216-.608.7-1.192.38a10.814,10.814,0,0,1-2.864-.891,2.625,2.625,0,0,0-.725.023c-.312-.008-.442-.255-.772-.445-.982-.558-2.857-.389-3.238-1.1a1.42,1.42,0,0,0-.533-.575c-.352-.215-1.35.093-1.455-.3-.061-.241-.045-.409-.285-.552a2.774,2.774,0,0,0-2.344-.936c-.751.047-1.1-.36-.2-.554.363-.152-.257-.712-.467-.836a1.1,1.1,0,0,0-.471-.06.616.616,0,0,1-.452-.84c.362-.441,1.085-.453,1.614-.724.657-.237,1.132-.727,1.784-.928,1.988-.576,3.733-1.861,5.532-2.831.405-.307.2-1.072.4-.92.118.067.237.152.359.21.205.108.344-.048.408-.228.087-.228.151-.114.405-.066,1.082.242.266-1.452.659-2.032.126-.055.383.421.541.133.069-.077.142-.236.253-.242.265.108.728.591,1.065.357a.6.6,0,0,0,.039-.477c-.064-.248-.147-.323-.153-.143-.013.043,0,.152-.053.153-.1,0-.208-.431-.1-.725a2.164,2.164,0,0,0,.1-.662c0-.129.025-.122.122-.107a1.154,1.154,0,0,1,.421.195c.317.22.07.571.046.923a1.725,1.725,0,0,0,.1.863c.4.638.211-.639.262-.679.467-.511.014-1.056-.344-1.506-.052-.26.233-.111.437.1.978.91.429-.866,1.157-.8.294.014.74.5.943.456.059-.035.072-.138.119-.3.092-.419.362-.824.456-1.225.09-.279.58-.038.8-.086.14.024.213-.152.309-.262.152-.127.342-.036.547-.025.5.071.681-.2.567-.7-.239-1.064.784-.043.983.084.077.006-.006-.058-.055-.152-.094-.179-.548-.7-.327-.813.286.043-.287-1.2.088-.866.162.154.457.559.61.487a.99.99,0,0,1,.675.233c.046.026.071.028.067,0-.371-.857.473-.179.42-.715-.012-.286-.45-1.274.3-.682.2-.045.407-.395.634-.144a.71.71,0,0,0,.558.357c.047.014.085.025.1,0a5.1,5.1,0,0,0-.2-1.3,1.216,1.216,0,0,1-.014-.3c.049-.243.3.173.268.016a1.28,1.28,0,0,0-.344-.774c-.074-.022-.118.083-.167.149-.181.236-.2.275-.206.743a1.209,1.209,0,0,1-.148.51c-.118.186-.28.033-.224-.146.05-.221.223-.834-.173-.793-.261.1-.322.394-.47.513-.146-.014-.429-.2-.527.022a2.1,2.1,0,0,0,.093,1.027c.07.37.071.61-.119.229-.236-.353-.041-1.148-.623-.954a3.06,3.06,0,0,1-.346.011c-.092.008-.116-.017-.2.055-.116.3-.324-.031-.469-.138-.074-.068-.249-.168-.354-.088-.285.2.531,1.188-.413.683-.105-.064-.11-.071-.288-.192a.351.351,0,0,0-.131-.064c-.052-.007-.074.03-.113.07-.153.164-.174.1-.312.25-.1.126.218.946-.1.515-.083-.1-.107-.185-.2-.246-.081-.019-.179.087-.26-.01-.134-.187-.053-.351-.013-.562.1-.762-.678-.153-1.011.181a1.563,1.563,0,0,0-.5,1.035c-.027.225-.385.026-.441.126-.065.236.289.671-.15.454-.306-.036-.506-.615-.793-.655-.166.105-.131.654-.288.629-.364-.041-.252.485-.537.58a9.984,9.984,0,0,0-1.591.179c-.4.337-.7.22-1.214.447-.441.285-.707.648-1.228.532-.326-.033-.434.513-.607.571-.142.03-.249-.1-.346-.13a.831.831,0,0,0-.832.748c-.079.334-.15.764-.315.468-.111-.247-.069-.515-.317-.582a.314.314,0,0,0-.3.121c-.052.048-.087.262-.146.315-.189.109-.226.037-.549.065A4.021,4.021,0,0,0,28.34,33.56c-.078.145-.206.174-.319.3s-.2.406-.315.489c-.173.142-.595-.6-.812-.794-.244-.259-.124-.049.1.338.247.393.432.915,0,.551-.147-.132-.328-.688-.462-.832-.31-.365-.249-.011-.2.25-.007.71-.1,1.419-.838.524-.169-.16-.05.028.056.508.1.243.1.978-.244.554-.338-.442-.228.189-.277.518.025.554-.3,1-.755.536-.211-.25-.447-.433-.528,0-.067.56-.239,1.2-.357,1.741-.036.113-.1.075-.163-.007-.459-.586.34-1.379.139-2.03-.063-.067-.162-.054-.213-.152-.091-.143-.088-.379-.125-.3a.514.514,0,0,1-.254.176c-.108.034-.23.036-.294.116-.1.115-.081.4-.119.464-.379.15.027.759-.016,1.123.029.278-.085.586.174.6.028.006.147-.1.2-.165.155-.1.259.077.382.234.279.339.333,1.4-.348.848-.213-.179-.266-.378-.481-.255-.152.116-.5.453-.557.183-.074-.3-.322-.454-.467-.669a1,1,0,0,0-.3-.234c-.3-.216-.38-.931-.616-1.152-.3-.38.068.541-.049.515a2.735,2.735,0,0,1-.271-.263c-.066-.068-.068-.061-.1.01-.09.37-.947-.058-.628-.424l.1-.148a3.284,3.284,0,0,0,.608-.946c-.033-.153-.92.828-1.148.657-.257-.233-.006-.843.4-.852.236-.019.759-.491.392-.656a2.117,2.117,0,0,1-1.228-.4c-.388-.254-.775-.623-.371-1.056.108-.223.241-.266.369-.385.04-.127-.2-.115-.622-.028a1.036,1.036,0,0,1-.819-.235.227.227,0,0,1-.021-.343c.16-.046.268.184.413.248.3.316.826-.126,1.145.076.209.174.275.115.533.066.507.075,1.132.215,1.526-.118a4.346,4.346,0,0,0,1.377-1.307c1.3-.489,2.924-.583,4.073-1.346a44.01,44.01,0,0,0,6.781-2.864.877.877,0,0,0,.5-.7c.057-.291.063-.418.213-.306.352.273.638.378.806-.126.041-.09.077-.077.152-.041,1.21.549.86-.793.978-1.531.179-1.011.323.1.7-.229.1-.125.213-.3.307-.288.288.134.671.562,1.058.412.214-.105.149-.664.015-.761-.056.024-.051.217-.085.249-.186-.024-.194-.455-.087-.7.288-.579-.08-1.152.788-.558.279.2-.158.9-.119,1.3-.029.294.216.987.368.488a4.493,4.493,0,0,0,.024-.587.317.317,0,0,1,.126-.23.717.717,0,0,0,.073-.774,5.48,5.48,0,0,0-.418-.632c-.035-.267.255-.105.456.11.554.557.673.131.818-.367.092-.244.132-.513.476-.442.3.024.746.529.962.487.066-.035.087-.139.149-.3.129-.426.445-.826.573-1.234.041-.158.137-.115.247-.114.166-.032.557.067.719.014.1-.057.147-.164.232-.244.31-.194.87.158,1.133-.136a.734.734,0,0,0,.1-.6c-.184-1.045.755-.14,1.02.088.067.041.072.008.007-.09a3.3,3.3,0,0,1-.38-.691c-.112-.257.122-.132.148-.286a5.675,5.675,0,0,1-.074-.841c.051-.1.358.351.547.5.233.1.431-.012.7.168a1.27,1.27,0,0,0,.242.14c.018,0,.021-.011.012-.04l-.046-.125c-.247-.618.464-.13.552-.495a4.8,4.8,0,0,0-.132-.746c-.018-.353.257-.263.422-.054.06.05.088.031.129,0,.118-.051.429-.344.6-.142.094.143.192.329.4.348.085,0,.234.079.288.035.111-.239-.187-1.235-.138-1.62.082-.273.325.231.28-.021a1.284,1.284,0,0,0-.32-.768c-.133-.051-.232.3-.31.338-.139.091-.089.69-.225.936-.048.129-.227.421-.334.166a4.844,4.844,0,0,1,.117-.557c.036-.828-.594-.156-.717.121-.116.061-.424-.172-.569-.056-.257.342.02.93.019,1.319.026.3-.035.323-.16.044-.212-.325-.011-1.132-.556-.967a3.428,3.428,0,0,1-.526.014c-.17.02-.135.3-.353.123-.495-.526-.862-.432-.578.323.027.19-.1.226-.281.168-.374-.108-.6-.575-.917-.2-.406.169-.129.5-.2.806-.092-.023-.236-.33-.338-.39-.085-.019-.194.087-.275-.012a.406.406,0,0,1-.036-.4c.079-.2.206-.51-.054-.556a2.2,2.2,0,0,0-1.567,1.6c-.042.223-.408.019-.473.119-.075.242.255.664-.183.466-.255-.028-.45-.429-.63-.607-.109-.1-.2-.124-.259.017-.075.195-.14.552-.258.534-.421-.081-.272.5-.6.587-.3.048-1.167.026-1.564.085-.249.058-.332.216-.54.3-.23.075-.514-.008-.779.112-.4.151-.839.675-1.188.609-.194,0-.417-.055-.567.079-.142.1-.224.367-.365.458-.238.063-.325-.244-.547-.13l-.1.028c-.333.051-.55.251-.68.686-.284.979-.375.576-.484.007a.3.3,0,0,0-.5-.029c-.119.189-.138.406-.422.362a4.981,4.981,0,0,0-2.388.785c-.334.219-.36.443-.589.566-.255.056-.382.521-.554.623-.1.062-.238-.106-.421-.379-.3-.435-.733-.989-.281-.132.226.411.359.937-.059.554a4.32,4.32,0,0,1-.354-.759c-.291-.5-.348-.22-.286.1-.066.736-.225,1.5-.931.54-.162-.169-.055.025.009.516.082.257.009,1-.312.547-.277-.435-.264,0-.317.336-.082,1.105-.605,1.09-1.134.408-.081-.059-.156-.037-.229.068-.2.526-.316,1.1-.538,1.648-.054.116-.1.506-.266.257-.4-.646.458-1.306.373-2.023-.043-.1-.2-.066-.244-.229-.062-.162-.029-.327-.077-.26-.067.167-.481.158-.607.267s-.128.4-.174.462c-.43.127-.04.87-.132,1.157,0,.259-.155.57.114.586.049.011.152-.092.231-.156.169-.094.264.089.378.257.144.225.221.766.032.952-.639.3-.591-.97-1.32-.125-.129.111,0,.257.057.379.008.029-.01.035-.047.022a.757.757,0,0,1-.317-.627c.013-.181-.188-.3-.306-.432-.189-.367-.457-.39-.575-.855-.04-.189-.411-1.227-.43-.742.146.795.034.573-.264.188-.027-.03-.038-.023-.043.024-.012.258.105.631.086.91a1.675,1.675,0,0,1-.4.92c-.143.194-.167.463-.386.439-.32-.153-.418-1.062-.639-1.124-.144-.074-.174-.05-.264-.177a4.206,4.206,0,0,0-.654-.644c-.115-.175.137-.3-.053-.487a1.682,1.682,0,0,0-.751-.431.81.81,0,0,1-.515-.547c-.071-.2-.226-.382-.325-.006-.108.268.194.635.111.85a.718.718,0,0,1-.741.311c-.138-.086-.187-.228-.383-.313-.494-.235-.246-1.169.181-1.384.125-.078.32-.008.419-.053.09-.318-.035-.792.059-1.166,0-.32-.058-.6-.192-.5-.1.04-.31.165-.276-.037a.457.457,0,0,1,.841.048c.113.3.325-.275.521-.3.132-.028.3.156.344.127.153-.427.186-.5.721-.223.247.053.752.328.936.107.026-.19-.321-.286-.446-.4-.22-.134-.231-.287.046-.294.8.04.225-.257-.058-.5-.9-.631-.418-1.661-.623-2.613-.041-.913,1.1.021,1.342.035.089-.025-.225-.405-.186-.615.151-.31.661-.011.638-.463a1.554,1.554,0,0,1,.278-.876c.093-.171.348-.236.442-.391,0-.281-.143-.194-.13-.528.076-.486.627.33.709-.26.069-.207-.1-.7.2-.609a1.2,1.2,0,0,0,.281.077c.524-.334.489-1.313,1.092-1.6.218-.108.463-.189.674-.31.558-.5,1.825-1.091,1.868-1.895,0-.185-.01-.28.134-.335a2.669,2.669,0,0,0,1.359-.444c.348-.247.634-.638.964-.819.36-.205.649-.048,1.007-.175a9.46,9.46,0,0,1,1.352-.594A4.171,4.171,0,0,0,29.4,7.5c.405-.345.74,0,1.264-.319.416-.273.878-.695,1.438-.555.291.019.281.066.51.074.691.075,1.061-.737,1.541-1.071a.749.749,0,0,1,.3-.093c.222.02.182.279.127.448-.04.276.489.654.654.146.1-.208.1-.492.229-.664.129-.152.449-.189.592-.267a.293.293,0,0,0,.137-.2c-.024-.231.377-.746.707-.962.711-.536-.043.678.152,1.316.051.171.158.355.361.347.62-.113,1.332-.348,2.014-.446.429-.081.614-.288.9-.04.427.327,1.539-.333,1.852-.118.215.161-.733.306-.465.552.592.431,1.513-.812,1.858.262.228.207.411-.439.594-.526.244-.2.309.132.262.283-.032.16-.2.443-.012.567.124.081.767-.354.839-.278a.418.418,0,0,1-.009.208c-.107.595.852.18,1.15.374a18.724,18.724,0,0,1,1.315,1.417c.108.124.439.247.39-.041-.122-.4-.461-.687-.3-1.163a2.124,2.124,0,0,0-.339-1.786,5.977,5.977,0,0,0-3.1-2.514c-.4-.269-.927-.139-1.358-.186-.215-.015-.294-.336-.365-.4a1.041,1.041,0,0,0-.588-.435c-.362-.148-.808-.522-1.254-.663-.342-.142-.14-.274-.479-.384-.252-.056-.533-.171-.808-.25-.806-.38-1.474.171-2.232.049A3.387,3.387,0,0,0,36.9.137c-.526-.011-.8.436-1.272.421-.267-.006-.533.062-.895.083a3.168,3.168,0,0,0-2.366.166c-2.47,1.248-4.671.564-7.1,2.024-.429.249-.443.688-.541,1.093-.035.152-.13.269-.066.237.108,0,.467-.367.59-.326s.047.256-.022.355c-.319.461-1.178.4-1.666.7-.289.164-1.384,1.16-1.179.106.015-.228.007-.385-.072-.379-.252.075-.364.39-.638.51-.282.212-.771.126-1.114.3a3.28,3.28,0,0,0-.913.813,5.2,5.2,0,0,0-1.1,1.338,7.428,7.428,0,0,0-2.19,1.3,3.717,3.717,0,0,1-.342.378c-.231.2-.507.236-.576.5a.821.821,0,0,0,.16.832c.186.185.4.239.367.347-.059.232-.231.254-.376.522-.092.155-.176.4-.367.449-.251.064-.483-.165-.749.179a3.073,3.073,0,0,1-.247.244c-.366.247-.607.317-.772.806a3.182,3.182,0,0,1-.333.682c-.241.278-.576.065-.607.148a2.824,2.824,0,0,1-.193.479c-.5.536-1.041,1.265-1.518,1.89a6.309,6.309,0,0,0-.683,2.194,4.088,4.088,0,0,0-.247,1.6,3.478,3.478,0,0,1-.071.912c-.166.549.328.975.208,1.523A26.918,26.918,0,0,0,9.757,28.8a1.353,1.353,0,0,1-1.134,1.27,1.521,1.521,0,0,0-.843.317c-.333.122-.7-.2-.946.09-.34.367-.485,1.445-.826.307-.477-.634-.257.44-.314.659-.268.563-.077.841-.182,1.51-.205.875-.338-1.228-.806-1.265-.186-.064-.35.2-.547.494-.275.226-.358.7-.583.847a.389.389,0,0,0-.438.317c-.062.213-.329,1-.356.391-.019-.242-.041-.425-.155-.333-.189.017-.137.91-.417.845-.085,0-.221-.135-.243-.012.036.26.327,1.129-.122.468-.357-.6-.229.1-.276.4-.067-.014-.1-.1-.16-.147-.168-.13-.2.182-.268.286-.053.586-1.1.074-1.143.5.057.174.511.266.763.652A2.315,2.315,0,0,0,3.032,37.43c.508-.06.672-.434,1.056-.662.283.054.532.3.885.236.342.015.5.2.842.225a1.075,1.075,0,0,0,.716-.319,2.19,2.19,0,0,0,.836-.755c.259-.2.563-.014.974-.161.524-.147.928-.62,1.519-.554.729.044,1.626.006,1.936.79a39.154,39.154,0,0,0,2.486,4.664c-.186.6-1.095.559-1.63.554a2.186,2.186,0,0,0-1.132.574c-.237.14-.487.079-.712.25-.127.092-.336.324-.583.257-.349-.035-.286-.079-.533.064-.21.169-.273.824-.429.886s-.257-.315-.335-.426c-.088-.173-.3-.288-.332-.132-.015.224.089.474.079.691a3.069,3.069,0,0,0-.041.84,1.688,1.688,0,0,1,.023.939c-.087.178-.495-1.373-.868-1.39-.183-.047-.3.228-.451.531a2.618,2.618,0,0,0-.283.573c-.07.319-.138.309-.344.346-.265.132-.165.6-.29.828-.226.442-.158-.667-.364-.422-.09.054-.111.322-.114.57-.011.22-.067.316-.165.3-.059-.009-.144-.041-.194-.044-.1.03,0,.135.024.235.1.26.218.57.148.544-.187-.06-.3-.427-.507-.461-.074.064.079.5.043.623-.064-.007-.108-.09-.169-.124-.036-.022-.067-.029-.093-.007-.129.163-.118.545-.351.622s-.821-.023-.773.276c.059.131.361.2.618.391a2.731,2.731,0,0,0,1.621,1.029,1.448,1.448,0,0,0,1.374-.372c.084-.1.09-.108.221-.275.049-.062.088-.109.138-.119a2.239,2.239,0,0,0,.99.165c.325.056.4.169.774.137a1.189,1.189,0,0,0,.533-.353,1.926,1.926,0,0,0,.691-.806c.315-.234.73-.051,1.167-.369a2.982,2.982,0,0,1,.718-.445c.669-.238,2.024.289,2.288-.635a.611.611,0,0,0-.081-.521c-.04-.03-.142,0-.2-.076a.193.193,0,0,1,.161-.31c.924.017.994-.38,1.316.623.137.105.161-.168.322-.155a.935.935,0,0,0,1.246-.543c.344-.684,1.713,1.035,2.132,1.335.77.7,1.361,1.533,2.495,1.18a.452.452,0,0,1,.288.076c.128.1.071.281.033.416-.258.445.609,1.074.98,1.184.2.047.288-.1.437-.156.3-.041.228.531.359.666a1.5,1.5,0,0,0,.416.29c.334.186.487.668.887.714.85-.021,1.888-.571,2.778-.474.176.02.481.058.356.268-.087.126-.269.2-.225.361a1.9,1.9,0,0,0,1.435.333c.49-.026.362.579.581.775.313.214.622.618.973.809a1.051,1.051,0,0,0,1.07-.146c.237-.213.109-.5-.024-.429-.21.064-.277.223-.467.178-.109-.044-.109-.24.064-.4.278-.246.558-.125,1.016-.127a.987.987,0,0,0,.855-.38c.183-.2.252.128.471.3.2.218.576.171.688.5-.087.583-1.083.089-1.461.447a3.6,3.6,0,0,0-.327.213l-.168.1c-.236.188-1.079.179-.558.568.7.521,1.069-.143,1.583-.492.309-.139.5.223.805.126.551-.306,1.3-.371.59-1.093-.323-.411.155-.436.437-.267.424.262.471,1.029,1.094.956a4.254,4.254,0,0,0,1.756-.675,1.116,1.116,0,0,1,.967-.062c.3.136.582.319.888.426.339.162.594.438.84.377.162-.028.366-.336.6-.516.38-.319,1.128-.422,1.482-.674.323-.228.44-.56.785-.687a.2.2,0,0,1,.119-.02.814.814,0,0,0,.653,0c.346-.208.7.006,1.06-.031.4-.158.364-.539,1.058-.643.5-.1,1.037.075,1.505-.15a4.673,4.673,0,0,0,.785-.473c.218-.177.171-.342.134-.644-.127-1.247,1.592-.628,2.083-.452.092.024.116-.018.061-.094-.16-.21-.5-.333-.643-.568s-.028-.409.173-.411c.207-.026.327-.049.3-.4L52,47.672c-.066-.716.081-.746.618-.4.743.471,1.014-.607,1.791-.232.749.054-.051-.274.166-.6.1-.164.374-.208.558-.262a1.185,1.185,0,0,0,.588-.428c.226-.228-.023-.3-.126-.631a.6.6,0,0,1,.562-.862c.238.053.293.247.337.153a1.491,1.491,0,0,1,.455-.64c.275-.15.506-.4.724-.393.086.086.161.4.292.241a1.045,1.045,0,0,1,.482-.323c.195-.074.521.027.431-.3ZM51.336,45.6l-.022-.145a1.172,1.172,0,0,1,.024.143ZM43.621,26.992l-.035-.131c.012.043.025.088.036.13Zm-.762,3.732-.07-.064C42.808,30.535,42.8,30.431,42.859,30.724Zm-1.788.729c.1-.313.163-.03.254.109-.277-.04-.3.186-.571.106a2.507,2.507,0,0,1,.216.313c-.085.011-.216-.068-.379-.324C40.407,31.079,41.319,31.713,41.071,31.452ZM18.27,33a.05.05,0,0,1-.056,0C18.236,33,18.252,33,18.27,33ZM44.143,16.2l-.029-.133.03.132Zm-1.05,3.777-.069-.066C43.052,19.789,43.051,19.682,43.093,19.98Zm-1.946.721c.128-.315.174-.027.261.114-.291-.045-.335.185-.614.1a2.31,2.31,0,0,1,.207.32c-.091.01-.224-.072-.378-.333C40.468,20.314,41.389,20.969,41.146,20.7ZM21.911,39.281c.078-.082.542.25.346.471A1.818,1.818,0,0,1,21.911,39.281ZM17.07,27.111a1.063,1.063,0,0,0,.163.358c-.3-.134.019.433-.315.147a.645.645,0,0,1-.185-.4C16.832,27.183,16.965,27.084,17.07,27.111Zm-.506-.177c-.06.169.237.617-.016.6a.4.4,0,0,0-.066-.2.1.1,0,0,0-.094.017C16.334,27.209,16.433,27.066,16.564,26.934Zm-.332.719a.123.123,0,0,1,.017-.083.593.593,0,0,1,.11.293.625.625,0,0,0-.231-.237.132.132,0,0,1,.009-.016C16.2,27.61,16.219,27.63,16.232,27.653Zm-1.311-1.636a1.186,1.186,0,0,0-.105.709c.257.413.96.833,1.144,1.27.085.18-.267.335-.341.086.033-.114.148-.093.007-.265-.168-.385-.435-.388-.369.044.1.489-.206.293-.272-.052-.226-.251-.268-.922-.567-1.16-.19-.19-.456-.263-.685-.459.229-.273.857-.236,1.173-.2ZM42.54,52.282a1.163,1.163,0,0,1,.185.349.533.533,0,0,1-.533-.372c.132-.621,1.554.1,1.249-.2.5-.35.386-.037.466.113C43.328,52.137,43.063,52.389,42.54,52.282Zm5.391-1.492-.106-.051C47.948,50.575,48,50.448,47.932,50.79Z" transform="translate(0 0)" fill="#ed1e79"/>
    </g>
  </g>
</svg>
