<svg xmlns="http://www.w3.org/2000/svg" width="588.941" height="451.32" xml:space="preserve">
    <path fill="#9CF682" d="M55.01 210.68 355.871 13.31 494.51 265.029 384.27 451.32l-283.83-58.26L55 210.67l.01.01z"/>
    <path fill-rule="evenodd" clip-rule="evenodd" fill="#FFF" d="M451.037 301.696c-18.561-23.281-19.65 3.52-36.32-2.19-11.121.34-5.77 21.84-26.43 19.97-22.82.25 1.51 2.04-23.371 25.97-3.898 5.37-21.02-8.59-24.6-10.3-4.68-11-11.32-11.6-21.811-8.63-5.398 3.73-13.43 27.311.41 25.75 4.711 2.23 7.99 21.9 4.611 25.55-18.131 3.17-6.83 39.24-16.461 47.181-19.238 15.55-170.809-18.49-190.359-27.53-.7-21.35-12.86-57.36-6.1-77.8 1.88-8.811 14.26 3.93 15.86-5.21l9.78-92.721c.88-9.149-19.15-1.19-23.17-1.93-17.06-8.07-17.71-11.45-18.5-29.15-16.58-19.99.08-23.85-8.01-52.94 8.25-34.44 31.41 9.13 21.05-37.97-2.22-4.83 20.74-14.619 22.54-17.22 4.41-2.86 19.07 8.03 23.64 6.71 15.09-7.57 37.16-.24 53.19.16 4.06.5 18.85 14.18 23.14 13.03 28.71-1.98 30.21-28.4 47.58-15.971 9.449 3.521 4.59-13.6 5.141-17.619 1.42-3.91 22.189-26.851 25.459-15.95-10.551 31.88-.82 15.59 8.41 38.93-2.211 13.52-16.631 28.271-8.121 40.59 2.641 5.52 22.531 1.52 23.32-2.64 6.26-32.66 23.57-1.29 30.5 13.22 111.6 41.82 71.111 8.07 69.531 111.9 1.67.99 12.709 2.311 12.83 5.55-1.761 3.41 24.309 49.169 6.261 41.26zm-51.061 71.36 50.68 3.33-13.891 50.22-51.59 2.42 14.801-55.979v.009z"/>
    <path fill-rule="evenodd" clip-rule="evenodd" fill="#060605" d="M568.25 199.38c-14.639 0-20.93-11.69-20.93-23.5 0-10.27 6.291-23.63 20.68-23.63 14.381 0 20.93 12.33 20.93 23.5-.001 10.15-6.04 23.63-20.68 23.63zm.009-42.12c-5.779 0-7.189 9.12-7.189 18.37 0 9.89 2.18 18.75 7.32 18.75 5.65 0 6.811-10.15 6.811-18.75 0-9.25-1.541-18.37-6.942-18.37zm-52.41 43.15.004-.005.008.005h-.012zm-5-3.47 53.811-81.3 4.881 3.6-53.688 81.165-5.004-3.465zm1.932-33.52c-14.771 0-20.811-11.69-20.811-23.63 0-10.15 6.42-23.5 20.811-23.5 14.51 0 20.809 13.36 20.809 23.5s-6.04 23.63-20.809 23.63zm.25-42.12c-5.781 0-7.32 9.63-7.32 18.24s1.539 18.88 7.32 18.88c5.779 0 6.809-10.15 6.809-18.75-.001-9.12-1.03-18.37-6.809-18.37zM453.81 306.77c-5.189-1.41-15.51-13.649-17.58-13.649-4.77 2.53-14.539 11.819-19.859 10.93-4.811-.79-16.041-13.89-17.361-13.89-3.52 2.64-8.809 10.77-13.148 11.04-5.631.34-13.051-8.54-17.16-11.86-7.93 1.561-25.02 12.11-30.34 2.08a6.66 6.66 0 0 1-.781-4.33 147.525 147.525 0 0 1 18.18-35.16 22.728 22.728 0 0 1 9.291-4.779l.01.01c7.961-.52 15.949-.25 23.859.8 14.74.399 31.83-.37 46.291.979 14.18 1.32 17.189 8.631 21.66 20.58 3.5 9.211 6.109 18.73 7.789 28.44.88 7.049-4.04 10.659-10.851 8.809zm-15.051-47.29a7.504 7.504 0 0 0-4-.511c-.709.63 5.82 14.8 1.51 15.05-3.619.211-4.51-12.119-5.67-14.93l-47.1-2.1c-.52 2.779-2.709 17.619-4.58 18.05-5.91 1.44 1.371-17.28.512-18.09a28.28 28.28 0 0 0-14.811 1.76c-5.561 3.58-9.201 17.38-12.34 23.351 10.779-.221 10.479-13.471 14.219-20.961l3.881-.14-5.02 16.08c9.57-3.83 12.34 7.239 20.109 9.05-.17-2.09-.27-16.88 3.52-16.08 3.971 4.25-1.439 10.26 1.01 15.08l7.381-6.699 1.109-17.99 3.029-.41h.012v16.59l15.08 13.58v-25.67l2.5-1.51 1.52 1.51v18.1c0 .88.379 5.48 1.5 5.51 4.26-1.83 11.08-9.55 15.609-8.58 5.08 1.08 9.57 9 14.1 11.621-.759-5.75-8.759-29.601-13.08-31.661zM190.99 154.11a25.836 25.836 0 0 1-8.11 4.17c-12-11.01 15.69-12.78 8.11-4.17zm9.111-49.75c11.85-2.07 23.18 13.43 23.979 23.88.76 9.83-22.91 9.69-28.5 7.31-7.56-3.22-8.95-28.83 4.521-31.19zm28.319 209.53 3.99-.449c5.16 11.769-8.439 12.569-3.99.449zm15.06-2.5c1.859 1.25.74 12.12-1.51 12.9-8.85 3.06-4.71-17.11 1.51-12.9zm193.58-66.71c-8.279 6.641-15.41.471-11.381-9.8-3.029.44-3.699 2.91-7.318 1.83a120.375 120.375 0 0 1-19.91-22.37 7.657 7.657 0 0 1 .49-8.71c5.609-6.66 17.77 5.689 23.449 8.01a32.622 32.622 0 0 0 9.039-5.18c2.111-7.06 3.84-14.23 5.191-21.47.5-3.13 1.76-10.82.189-13.03a62.476 62.476 0 0 0-19.971-7.17c-31.049-8.65-63.1-14.5-94.77-20.41a82.59 82.59 0 0 1-9.629 54.23c-18.501 29.08-45.76 17.97-57.611-9.62-1.47-3.43-4.03-14.34-5.08-15.82-1.66-2.31-17.96-3-1.23-11.27a77.415 77.415 0 0 1 .71-27.61c-1.63-2.16-13.82-.67-16.371-4.29-1.07-1.52-2.37-9.84-3.52-13.03-5.119-13.62-16.53-27.12-32.439-25.87-14.2 1.11-18.78 15.22-17.62 27.68.75 8.29 5.78 15.78 6.11 23.89-3.93 3.33-7.48 5.23-12.09 1.72 4.62 19.42-4.42 39.52-22.02 48.95l-16.12 120.38c14.85 9.5 31.08 16.66 48.12 21.2 16.82 5 60.85 15.12 76.42 10.04 8.48-2.77 27.17-17.7 27.19.53a69.84 69.84 0 0 0 18.121-2.49c5.449-2.02 1.67-8.41 3.889-13.01-.41-1.181-1.289-1.391-2.41-1.59-5.52-.95-14.17-.45-20.109-1.011-11.45-1.08-22.91-2.77-34.3-3.92-4.97-2.08-4.93-11.45.56-12.739l71.449 6.109c5.391 6.08 6.641 13.86-4.029 12.561l-1 11.09c11.201-.95 11.609 11.2 12.07 19.62.77 14.43-.99 17.47-13.061 25.31l-1.129 35.85c-.881 2.641-11.451 2.19-12.49.7l1.23-43.069c2.58-3.61 15.18-7.5 16.25-11 .879-2.78-2.381-16.9-7.182-16.11l-29.869 5.74a565.334 565.334 0 0 0-2.041 59.91c.25 5.199 5.461 17.409-5.449 15.56-5.48-.93-6.44-15.78-6.63-20.58-.209-5.49 1.03-10.28 1.09-15.08-.84-15.34.16-30.72 2.979-45.82a49.88 49.88 0 0 1-21.609 7.101 295.213 295.213 0 0 1-107.49-25.34c-3.95-1.971-27.49-18.04-29.791-15.971l-3.88 15.5c.56 2.36 11.15 3.801 12.69 11.381a288.58 288.58 0 0 1 .14 42.1c-.06 5.29 1.87 9.37-6.589 10.479-11.25 1.461-6.531-13.47-6.411-19.529.19-9.69-.24-19.38 0-29-16.01-6.891-12.82-17.271-7.79-31.141 3.79-10.449 7.33-14.1 18.81-9.84l10.06-83.47c-17.12 4.76-39.83-7.49-42.16-25.72-.33-2.55.69-10.07.42-10.53a75.68 75.68 0 0 1-5.96-5.08c-4.25-5.51-5.9-12.6-4.53-19.43.4-2.78 2.74-6 2.64-7.93-.099-1.93-2.07-5.83-2.47-8.48-2.8-18.84 1.61-34.2 23.92-32.46.44-4.89-.71-10.86 0-15.59v.03a32.243 32.243 0 0 1 21.56-23.66 26.84 26.84 0 0 1 27.21 11.09c8.649-6.39 15.37-14.24 27.37-10.29 2.289.75 4.909 3.74 6.919 3.98 3.18.37 9.49-1.08 13.96-.71a51.81 51.81 0 0 1 25.06 9.19c1.1.79 1.55 2.81 2.28 2.93 1.71.29 4.77-1.76 6.96-2 3.899-.38 7.88.11 11.78-.06C253.02 79.11 266.39 73 278.77 76.97c-1.95-14.58 14.101-35.54 29.44-32.95 14.93 2.52 3 21.67 3.891 25.2.34 1.33 4.699 4.8 6.1 7.05a39.68 39.68 0 0 1-.41 35.17 10.955 10.955 0 0 1-5.881 6.32l5.111 12.5 9.969-3.09c-.4-13.09 9.27-29.18 23.24-18.56 10.27 7.82 10.67 22.91 14.041 34.23 19.059 5.29 38.879 8.48 57.979 13.44 12.291 3.19 32.121 7.3 29.59 23.79l-14.78 64.61zm-313.69-29.51c1.62-.03 3.23-.25 4.8-.66 9.39-1.7 8.38-9.18 9.811-16.86-3.44.13-6.891.05-10.32-.25a97.846 97.846 0 0 1-12.34-5.39c-2.16-.19-9.44 3.37-12.61 3.19.189 11.22 9.439 20.16 20.659 19.97zm-15.56-32.601.55-11.089a34.857 34.857 0 0 1-16.64-6.01c-3.618 10.616 6.603 17.135 16.09 17.099zm52.39-68.949c-4.27-2.72-5.02-5.51-11.9-2.7-3.04 1.23-9.54 13.99-13.85 5.29-2.93-5.91 6.68-15.52 12.58-16.12h.01c-10.78-23.36-34.63-9.67-30.939 13.31.79 4.93 7.41 13.86.52 17.09-5.51 2.59-18.439-7.72-23.22 0-5.62 8.479-3.3 19.91 5.18 25.54 4.5 2.98 10.08 3.84 15.26 2.35-3.34-4.78-3.2-19.09 4.5-19.17 9.75-.1 2.7 9.42 5.67 14.55 3.8 6.56 13.67 2.09 14.1 9.16.45 8.39-11.08 5.4-16.14 3.52-12.85 27.64 24.37 23.61 35.6 7.93a35.88 35.88 0 0 0 1.3-33.35c-5.98-12.52-15.48 8.29-18.56 9.14-5.03 1.37-7.129-4.14-5.54-8.64a25.179 25.179 0 0 1 20.82-15.36c5.86.05 11.23 6.94 10.57-4.41-.491-8.26-1.931-5.57-5.961-8.13zm15.013-25.58c-1.617-1.378-15.424 8.643-12.633 13.03l4.56 2.02c-1.61-3.44 9.06-14.12 8.05-15.05h.023zm78.307 30.88c-.339-1.41-3.88-3.83-5.089-6.04a39.339 39.339 0 0 1-3-10.58c-1.561-1.07-9.561-1.93-8.71 1.14 1.51 5.52 8.5 11.3 8.079 18.61 3.72.93 10.19 2.93 8.72-3.13zm7.18 44.03 1.51 1.51h27.161c2.039 0 8.75 2.33 9.42 4.73 2.16 7.69-11.271 5-13.99 6.78-.949.63-1.42 3.97-2.51 5.54-6.32 9.09-15.06 4.29-16.56-4.99-5-.11-1.521 7.45-.48 10.04 5.36 13.16 19.94 27.31 33.21 14.1 11.82-11.72 13.311-40.25 9.23-55.55-2.111-7.88-11.08-28.97-19.541-30.73-15.52-3.2-26.169 15.28-27.419 28.46l-.03-.01c-.611 6.41.449 13.6-.001 20.12zm45.821-83.01c-3.211-3.05-9.441-1.7-9.691-7.48-.26-4.62 7.57-10.93 7.121-16.58l.01-.02A23.337 23.337 0 0 0 289.26 76.3c0 4.66 4.41 13.99 1.761 17.36-7.149 5.34-11.26-4.24-17.38-5.96-11.59-3.27-21.4 12.45-14.85 22.4 3.61.7 5.05-3.15 7.51-4.94 9.381-8.12 23.19-8.49 33-.88 1.92 1.27 4.73 5.69 6.74 4.41a45.392 45.392 0 0 0 5.02-16.18 21.997 21.997 0 0 0-4.54-12.57zm34.66 38.26-1.891 18.99 11.93 3.13c1.651-2.27-4.051-22.34-10.039-22.12zm66.828-70.88h-5.379V27.64h-17.949v-4.8h17.949V4.89h5.379v17.95h17.861v4.8h-17.861v19.68zM232.28 7.93c-.49 0-.87 0-1.14-.02-.27-.01-.54-.03-.79-.06h-.031c0 .44-.03 1.07-.08 1.9-.15 5.62-.23 9.58-.23 11.88v3.17c0 4.36.221 7.11.66 8.26.44 1.15 1.25 1.72 2.44 1.72 1.47 0 2.571-.75 3.31-2.24.74-1.5 1.17-3.86 1.301-7.08h1.969v.39c0 4.23-.68 7.34-2.03 9.34-1.35 2-3.479 3-6.36 3-2.88 0-5.13-1.04-6.34-3.11-1.21-2.08-1.82-6.42-1.82-13.02 0-.8.041-2.87.12-6.21.08-3.34.141-6.08.19-8.22-.95-.05-2.27-.1-3.95-.14-1.68-.04-3.71-.07-6.11-.1 0 12.23-.6 20.41-1.8 24.57-1.2 4.16-3.32 6.23-6.359 6.23-1.86 0-3.24-.75-4.161-2.26-.919-1.51-1.37-3.78-1.37-6.83v-1.51h1.9c.05 1.44.31 2.5.77 3.15.46.65 1.19.99 2.17.99 2.17 0 3.7-1.64 4.6-4.93s1.42-9.76 1.55-19.4h-1.74c-1.99 0-3.56.35-4.72 1.04-1.161.69-1.88 1.74-2.17 3.13h-1.82c.18-3.61 1.19-6.14 3.02-7.58 1.83-1.44 5.03-2.17 9.591-2.17.899 0 3.589.08 8.069.25 4.47.17 8.49.25 12.051.25 1.75 0 3.06-.19 3.93-.56.859-.37 1.3-.93 1.3-1.68V0h1.82v.23c0 2.71-.61 4.67-1.839 5.88-1.231 1.21-3.191 1.82-5.901 1.82zM89.95 268.75c-2.94-.87-5.41-1.311-7.41-1.311-1.689 0-2.939.381-3.75 1.121-.81.739-1.48 2.469-2.02 5.159l-.52 2.62H86l-1.73 9.891h-9.61l-8.11 45.84c-.619 3.72-1.449 6.479-2.46 8.3-1.01 1.819-2.54 3.26-4.57 4.34s-4.83 1.62-8.39 1.62c-4.88 0-9.25-.62-13.12-1.88l2.67-10.36c3.409.72 6.02 1.08 7.83 1.08 1.94 0 3.3-.59 4.08-1.78.62-.91 1.2-2.979 1.73-6.229l7.031-40.92H51.88l1.69-9.891h9.47l.75-4.17c.88-4.779 1.62-7.84 2.25-9.189 1-2.061 2.38-3.62 4.12-4.69 2.31-1.38 5.58-2.06 9.8-2.06 4.221 0 8.391.64 12.521 1.92L89.95 268.75zM29.26 120.81v-4.15c5.12-.85 5.12-2.07 2.93-5.73l-6.1-10.24c-2.32 3.29-4.88 7.07-6.58 10-1.95 3.41-1.83 5.12 3.66 5.97v4.15H0v-4.15c6.71-1.34 9.14-2.68 13.29-7.56 2.93-3.54 6.22-8.05 9.88-13.17L12.44 78.74C8.78 73.01 7.56 71.67.981 70.81v-4.15h29.14v4.15c-4.02.85-4.88 1.95-3.17 4.76l5.85 9.27c2.56-3.54 4.881-7.07 6.22-9.27 1.581-2.8.98-4.02-3.9-4.76v-4.15h22.561v4.15c-6.83.98-8.661 1.34-13.17 7.07-1.83 2.19-4.63 5.73-8.9 11.34l11.71 18.29c4.15 6.58 7.07 8.41 12.56 9.15v4.15H29.26zm96.41 280.25c6.34 8.061-9.76 12.99-12.34 7.82-3.78-7.68 6.73-11.23 12.34-7.82zm125.69-30.23c15.28-3.521 14.67 23.1 1.76 23.97-13.33.92-11.269-21.8-1.76-23.97zm.83 19.95c7.22.689 9.08-17.141 1.2-16v-.011c-6.34.881-8 15.371-1.2 16.011zm.18 14.25c15.18-3.471 13.22 23.97.79 23.97-11.35 0-10.14-21.84-.79-23.97zm.78 19.95c5.49 0 8.26-14.511 2.82-16a4.203 4.203 0 0 0-2.601 0v-.011c-5.438 1.521-5.419 16.031-.219 16.011zm68.91-131.82c-.59-.41-5.789 1.98-6.93-1.689-2.711-8.611 16.189-10.101 7.939 1.67 8.16-1.891 8.611 6.56 13.59 11.069 11.051 10.01 25.4 9.42 39.271 9.09 5-.109 12.699-3.899 13.529 4.58.6 6.05-14.471 27.42-19.641 31.561-16.799 13.43-25.029-.811-32.84-14.391-3.369-5.84-17.209-31.45-17-36.36a12.48 12.48 0 0 1 2.082-5.53zm42.621 49.12c8.93-4.58 10.738-14.98-1.371-16.971l2 10.07c-6.039 2.101-5.9-9.13-10.709-9.95a5.885 5.885 0 0 0-5.221 6.17c1.411 7.001 7.459 14.701 15.301 10.681zm38.838 1.66c1.172-2.94 4.5-7.051 4.852-8.23 1.6-5.67-.121-15.81 5.289-20.86 3.68-3.43 12.801-4.13 14.59 1.391 1.17 3.64-.25 18.5.441 19.17 7.93-1.53 29.078 5.37 30.969 13.78a198.42 198.42 0 0 1-6.279 35.529 238.396 238.396 0 0 1-10.84 41.46c-2.551 4.7-7.93 5.86-9.531.11l8.811-37.58c-5.68-.44-12.129.63-17.65 0-7.42-1.63-14.66-4-21.619-7.05-2.061 1.84-7.23 40.67-12.02 46.57-2.451 3.02-8.68 3.97-9.07-1.86a175.496 175.496 0 0 1 6.27-29.83 471.726 471.726 0 0 1 15.787-52.6zm114.92 4.8 24.191-65.391h8.949v4.5h-5.5l-27.84 75.28h-3.09l-14.949-41.39-5.861 2.109-1.17-3.75 13.27-4.59 12 33.232z"/>
</svg>
