<svg xmlns="http://www.w3.org/2000/svg" width="283.371" height="315.93" xml:space="preserve">
    <path fill="#7CFA72" d="m0 168.943 158.317-64.051 77.427 108.747-47.707 64.135-124.23-24.199L0 168.943z"/>
    <path fill="#FFF" d="M190.051 80.681c-.729-9.082.719-14.295 3.633-16.102 2.916-1.806 75.807-2.302 79.59-.396 3.781 1.906 4.854 35.793 1.697 37.186-6.418 2.828-47.577.736-47.577.736l-14.587 8.428 1.319-8.931s-17.255-1.236-18.562-2.199c-4.382-3.223-4.784-9.641-5.513-18.722zm16.219 44.104c-2.453 11.276-7.945 43.524-17.346 51.457-3.345.458-11.702 12.257-14.384 12.396-3.96.202-5.038-9.948-7.736-9.948-5.526 0-8.759 1.563-8.464 23.441l-2.288 51.218c-.03 5.355 5.235 36.905-.146 40.675-10.735 4.052 1.429-12.52-15.015-4.605-5.497-20.857-10.593-21.817-5.209.985-16.188 7.626-50.496 4.342-67.327.601-20.133-23.335-24.42-54.402-8.515-81.552 9.567-16.33 16.622-25.995 32.999-41.642 0 0 7.327-30.514 9.33-55.401l5.411-2.287c-1.213-4.884 2.051-11.887 4.783-15.792h10.812l11.863 11.158 20.244 4.213c5.742 2.264 30.458 1.325 36.953.832-1.889 10.851 6.527 10.581 14.035 14.251z"/>
    <path fill="#060605" d="M70.133 245.326c-3.506-.359-.853-4.051-.589-6.018 2.218 1.134 1.011 4.185.589 6.018zm-10.245 2.409c-2.5.547-1.911-4.134-1.193-4.811 1.628-1.533 1.761 4.187 1.193 4.811zm2.411 13.858-1.757-.043c-.768-1.145-1.21-7.822.253-7.778 2.255 1.996 1.375 5.18 1.504 7.821zm2.502-16.047c.128.629 1.177 1.062 1.405 1.603.786 1.86.596 4.192-1.189 5.395-2.237-1.575-.156-4.96-.28-6.261-.053-.563-1.655-.316-1.873-1.857-.106-.746 1.048-4.908 1.301-5.071 3.729-2.4.552 5.788.636 6.191zm6.246-36.939c1.583.047.82 4.76-1.804 4.198-1.916-1.128.811-4.228 1.804-4.198zm-.608-2.438c-3.443-1.998 2.735-7.809 3.917-6.609a6.885 6.885 0 0 1-3.917 6.609zm21.115-15.042c-2.557-.488 1.435-5.534 3.298-4.816.589 1.786-1.429 5.177-3.298 4.816zm.895 4.816c-.239-1.4.478-2.207 1.511-3.004l.892-.002c.45.427-1.171 3.593-2.403 3.006zm-2.41 7.228c-.238-1.874.068-4.177 2.403-4.209l-.547 3.856-1.856.353zm-1.206-6.624 1.502-3.604c2.042 1.375-.336 2.871-1.502 3.604zm-1.813-12.049c-.909-1.301 1.68-3.144 2.716-3.595 3.102 2.382-1.646 5.124-2.716 3.595zm.588 2.709c-1.229 3.399-4.672 2.373-2.242-.131.651-.671 1.662-.934 2.242.131zm-2.996 15.359c-.252-1.717.419-3.646 2.401-3.605.254 1.716-.417 3.643-2.401 3.605zm-2.412 7.229c-.324-2.384 1.022-3.968 2.71-5.407 2.15 2.145.465 6.185-2.71 5.407zm-.001-12.649c-.283-2.512 1.474-5.6 4.214-5.415.028 2.555-1.021 6.081-4.214 5.415zm-.314 3.62c1.751.32-.352 3.856-1.195 4.202-1.87-.883-.213-4.461 1.195-4.202zm-3.905-7.235c-1.105-1.574 2.9-5.623 3.61-4.812.233 2.171-.908 5.139-3.61 4.812zm.598 10.245c.139 2.246.136 5.795-3.008 5.416-.751-.791.962-5.709 3.008-5.416zm-1.802-2.413c-.13-1.997.432-4.635 3.008-4.211.641.634-1.338 4.721-3.008 4.211zm57.262-26.649.021 3.868-1.588.72c-1.847-.44-1.217-5.701 1.567-4.588zm-6.625 61.58c-.968-.926 2.586-5.503 4.217-2.696.093 2.573-2.136 2.953-4.217 2.696zm1.006-60.843 1.399-.243c1.956 4.133-3.075 4.515-1.399.243zm-2.815 57.83c-.439-1.708.481-4.786 2.699-4.213 2.502.649-1.072 4.713-2.699 4.213zm-2.41-6.023c-.336-2.151 1.947-4.218 3.6-2.106-.836 1.743-1.526 2.436-3.6 2.106zm-7.753-110.593c.649 2.098-4.104 3.861-4.643 2.068-.578-1.923 3.148-3.172 4.643-2.068zm2.195-16.167c5.048-1.114 10.369 5.77 8.513 10.37-1.332 1.303-7.473 1.474-9.191.792-3.418-1.358-3.354-10.274.678-11.162zm66.825 49.58s1.854-1.023 2.578-.446c.723.575-.063 2.252-.063 2.252-1.31 1.198-3.495-.458-2.515-1.806zm1.118 9.376c1.291.815-.029 3.847-1.787 2.98-2.282-1.124-.25-4.261 1.787-2.98zm-7.911-7.892c.967.597.643 2.784-1.123 3.171-3.461.762-2.058-5.141 1.123-3.171zM76.461 183.896c4.223-4.658 9.367-8.752 13.377-13.474 1.349-1.531 1.799-6.376 1.968-7.895 1.464-13.306 3.369-26.628 5.57-39.529.865-5.049 1.613-15.497 8.769-14.23-.456-4.215-1.071-7.63 1.304-11.47 4.738-7.661 13.97-5.882 20.71-2.07 5.781-7.253 18.317-8.937 16.569 3.787.015-.124-2.116 6.271-3.396 7.549 0 0 4.352.892 10.743 2.228h30.159v.005h14.982v2.996h-2.996v6.261c3.783.921 6.668 1.689 8.062 2.193 2.122.766 5.666 2.095 6.12 4.566.719 3.92-2.388 14.827-3.457 19.259-1.866 7.737-6.865 27.873-13.025 32.505-1.84 1.384-5.238 2.084-6.523 3.233-1.598 1.426-3.264 5.771-5.313 7.7-2.511 2.36-5.269 3.375-8.346 1.336-2.192-1.454-10.292-15.947-10.239-18.513a2.011 2.011 0 0 1 2.43-2.048c.836.208 2.821 3.374 4.08 4.313 5.16 3.844 17.641 4.061 22.069-1.117 4.399-5.144 6.697-17.457 9.058-23.93-.693-.462-1.604.367-2.535.245-1.388-.179-10.903-10.205-6.439-11.542 4.158-1.246 7.056 6.127 10.798 1.509 1.228-1.516 3.204-11.279 1.687-12.771l-30.223-7.219h-5.156v2.995h-2.996v2.997h-2.996v2.996h-17.967v-2.996h-2.996v-2.997h-2.992v-5.988h-5.966v-2.996h5.966v-1.794l-6.795.694c-1.816-4.901-3.599-11.192-8.855-13.479-7.571-3.295-11.656 2.686-10.822 9.883.231 1.983 2.598 6.588 2.068 7.704-3.177 3.727-4.53-.761-5.235-.936-3.86-.95-4.411 3.153-5.035 6.036-3.034 14.045-4.543 28.363-5.841 42.698-.295 3.229-1.199 7.507-1.837 8.8-.032.063-.068.124-.104.187l.045.024-.171.158c-.22.296-.491.552-.801.751-25.217 23.783-54.793 65.103-35.353 100.326 3.11 5.631 8.728 8.736 11.233 12.868.767 1.259.827 3.286 1.527 3.896 3.304 2.868 26.008 2.292 31.347 4.509-.431-3.908 1.09-7.354 3.619-10.23-.939-1.231-13.81-.313-11.385-5.369 1.787-.34 3.911.257 5.645-.074 1.788-.338 8.84-8.33 10.208-10.276 18.724-26.679-1.786-55.441-33.525-48.55-4.996 1.083-8.917 4.012-13.743 5.237-.183-4.864 6.812-8.078 10.847-9.335 30.253-9.414 57.739 15.887 45.326 46.489-2.962 7.302-7.313 11.433-12.959 16.563-.587.531-1.296.532-1.013 1.692 4.31-.541 7.36 1.554 11.568.429 4.234-1.131 16.475-6.575 16.684-11.537-1.938-9.881-3.834-19.948-3.452-30.059l2.567-1.023 8.313 45.992c.416 1.911 5.59.824 6.271-.167-1.431-10.538-3.55-21.578-3.396-32.264.058-3.79.633-11.814 1.494-15.37.737-3.048 3.606-3.473 3.742-.788.426 8.33-.912 17.799-.383 26.416.43 7.014 2.096 15.065 3.171 22.124.665 4.372 3.903 11.917-2.672 13.918-7.179 2.186-10.884-.849-11.361-8.031l-3.29 1.201c-.924-.257-1.047-2.828-1.602-3.84-1.549-2.787-5.885-3.573-8.664-4.6-1.766-.037-.629.77.13 1.08 4.718 1.942 9.73 2.414 8.344 9.199-1.649 8.055-11.448 7.557-18.119 7.187-9.09-.499-20.367-1.908-29.538-3.011-4.254-.512-18.051-1.688-20.245-5.07-1.194-1.846.074-2.98-.282-3.992-.231-.662-7.716-7.949-9.332-10.485-19.473-30.568-.849-69.805 20.801-93.669zm56.981 93.952.002-.002 1.8.604v-2.402a1.513 1.513 0 0 0-1.802 1.8zm43.375-98.021c.16 1.268 1.155 2.71-.235 3.701-1.399-1.236-1.403-4.744-3.951-3.48-2.219.947.951 5.872 2.196 6.21 2.902.787 8.542-5.915 1.99-6.431zm8.414-63.876c2.114.479 4.127.943 5.992 1.382v-5.544h-2.996v2.996h-2.996v1.166zm-29.947 1.822v5.992h2.996v-2.996h2.992v-2.997h2.994v-2.992h-2.994v-2.991h-2.992v5.983h-2.996v.001zm34.05-42.361c-1.215-16.686 12.857-12.266 24.044-12.711 17.885.036 35.53-.123 53.489.227 6.488-.588 11.311 1.426 10.322 8.64.34 12.768.861 14.772 1.123 27.811-3.396 7.101-12.453 4.6-18.779 4.622-9.859-.145-19.754-.384-29.537-.644l-17.587 9.775a1.934 1.934 0 0 1-2.106-.3c-.578-.511.52-3.308.762-4.042l1.397-5.738c-9.86.168-21.844.271-22.19-10.542-.32-1.677-.339-1.548-.952-5.546-.361-.096.053-9.967.014-11.552zm2.967 10.42c.295 1.006 1.219 11.282 2.483 11.598 5.115 2.491 17.996 2.653 20.023 2.66s1.838 2.075 1.838 2.075l-2.174 6.625 12.3-7.229s1.248-1.516 5.586-1.165c12.1.621 24.721.432 36.977 1.165 1.648 0 5.598-1.064 5.832-1.865.317-5.465-.4-15.609-.724-18.302a123.893 123.893 0 0 1-.669-14.14c-.008-.339-.834-1.18-1.294-1.334l-77.026-.476a6.666 6.666 0 0 0-1.645 1.456c-2.745 4.353-2.249 13.296-1.507 18.932zm77.203 3.312-.02.217-.215.034c-.152.025-.764.073-.98.073-.377 0-1.26 0-1.26-.714 0-3.997.169-8.027.332-11.925l.07-1.435c.023-.101.041-.205.055-.308l.016-.083c.172-.494.998-.524 2.238-.521.272.001.524.003.724-.008a.713.713 0 0 1 .395.15l.082.081v.115c0 .021.007.072.011.124.002.057.009.115.014.171a23.256 23.256 0 0 1-.291 3.015c-.251 1.895-.669 5.064-1.171 11.014zm-1.078.543.064.002a1.48 1.48 0 0 1 1.4 1.554c0 1.032-.594 2.127-1.694 2.127a1.416 1.416 0 0 1-1.509-1.511c0-1.046.544-2.172 1.739-2.172zm-4.688-1.009-.063 1.351-.004.101-.207.208-.37.015a5.905 5.905 0 0 1-1.647-.083l-.118-.027-5.526-10.724c.138 1.14.448 3.797 1.118 10.406v.406l-.099.078c-.181.146-.371.143-.786.137a21.943 21.943 0 0 0-1.888.046l-.118.009-.195-.216c-.07-.139-.324-2.702-.324-2.728l-.764-11.401c-.028-.234-.133-1.88-.15-2.179v-.163a.651.651 0 0 1 .102-.303l.082-.137.158.012c2.337.165 2.695.191 2.726.191.604 0 1.388 1.539 3.592 6.484.484 1.088.949 2.131 1.371 3.027.015-.532.028-1.222.04-1.934.12-6.639.296-7.642.836-7.642h.059a11.31 11.31 0 0 1 2.133.196l.117.02.059.102a.666.666 0 0 1 .102.41v.085c-.166 1.24-.17 2.419-.227 11.593l-.009 2.66zm-16.767 4.065c-2.042 0-4.157-1.986-4.526-4.252a23.772 23.772 0 0 1-.13-6.638c.246-2.082.775-4.449 2.83-6.22a3.667 3.667 0 0 1 2.465-.721 3.315 3.315 0 0 1 2.48 1.01c1.295 1.336 1.861 3.95 1.73 7.987-.09 2.644-.304 8.834-4.849 8.834zm1.992-10.155a13.711 13.711 0 0 0-.47-4.087c-.239-.708-.556-1.098-.891-1.098-.942 0-2.367 2.787-2.367 6.989v.765c0 1.911 0 3.717 1.155 4.314.283.166.627.191.934.07a2.069 2.069 0 0 0 1.014-1.293c.058-.176.271-1.055.627-5.301l-.002-.359zm-11.967 7.999-.041.005c-.435.008-.856.058-1.44.126a58.356 58.356 0 0 1-3.467.32 2.213 2.213 0 0 1-.499.062.246.246 0 0 1-.098.021c-.53 0-.579-.748-.601-1.065l-.008-.084-.976-14.047v-.612l4.876-.369c.247-.015.709-.04.816.282l.012.061c.016.254.057.508.094.754.06.336.094.676.104 1.018v.341l-.033.057c-.129.219-.521.274-2.016.377-.398.027-.808.056-1.054.089.001 1.197.126 4.032.363 4.545l2.62-.377a.544.544 0 0 1 .132-.022h.195l.521 2.511-3.324.416v.042c0 .858.059 1.867.174 2.999.002.21.043.259.043.259.131-.01.756-.102 1.308-.184.738-.112 1.503-.223 1.817-.235.286 0 .451.19.498.56.127.561.206 1.131.234 1.705.042.347-.162.426-.25.445zm-9.874 1.685-.055-.02-.246-.123v-.382l-.041-1.561c-.057-2.252-.145-5.782-.237-7.86-1.792 4.116-2.223 4.619-2.382 4.72l-.107.109-1.572-.069-.068-.101a14.256 14.256 0 0 1-1.131-2.266c-.108-.251-.215-.505-.326-.751l-.035 1.185c-.068 2.327-.141 4.734-.095 7.099a1.177 1.177 0 0 1-.084.345l-.022.037c-.181.24-2.373.25-2.396.25-.392 0-.569-.376-.569-.726 0-.144.095-14.283 1.621-15.385l.047-.034.058-.008c.142-.019.282-.025.425-.023 2.284 0 2.803 2.623 3.182 4.537.068.336.131.656.199.945.437-.875.914-1.709 1.484-2.673.694-1.192 1.559-2.672 3.248-2.672 1.084 0 1.205 1.823 1.246 2.505.223 3.84.334 7.933.334 12.202l-.021.293c-.29.638-2.317.458-2.457.427zm-10.2-2.98v.121l-.296.211h-.97a2.75 2.75 0 0 1-.936-.11l-.146-.048-.016-.154c-.006-.056-.011-.169-.021-.388-.026-.519-.086-1.716-.256-4.292-.295.002-.592.014-.911.025-.355.014-.735.028-1.161.033-.056.793-.03 1.787.115 5.115v.055l-.022.05c-.052.121-.142.281-.316.281h-2.106a.293.293 0 0 1-.215-.092.38.38 0 0 1-.083-.29v-.106c.106-1.433.21-3.037.585-10.642.207-3.877 1.304-5.532 3.672-5.532.159-.003.32.004.479.021h.005c1.148 0 2.577.716 2.7 4.11l-.002.103c.02.452.074 1.615-.099 11.529zm-2.464-10.745c0-1.212-.487-1.98-.939-1.998-.387-.018-.806.543-.903 1.821a32.923 32.923 0 0 0-.116 3.197c0 .141.007.489.013.763.003.095.003.181.003.246.572.021 1.143.034 1.714.04l.23-3.752-.002-.317zm-6.01 8.386a5.3 5.3 0 0 1-5.143 3.855c-3.24 0-4.971-1.242-5.615-4.026a12.424 12.424 0 0 1-.416-3.351c0-5.253 3.416-8.392 6.722-8.396 1.187 0 2.763.338 3.63 1.287a1 1 0 0 1 .43.747c0 .282-.113.389-1.001 1.138-.058.036-.11.078-.161.124l-.051.053-.07.012c-.063.012-.123.02-.185.024a2.367 2.367 0 0 1-.737-.164 6.885 6.885 0 0 0-2.465-.383c-2.201 0-3.389 4.287-3.389 6.04 0 1.253.266 4.169 2.727 4.169 1.507 0 2.952-.461 3.311-3.821 0-.173-.017-.347-.05-.516-.272.007-.561.034-.889.068-.567.068-1.138.104-1.71.107h-.1l-.189-.189-.008-.087a6.322 6.322 0 0 0-.167-.907 6.26 6.26 0 0 1-.185-1.069l-.003-.062.028-.057a.468.468 0 0 1 .292-.281c1.204-.468 3.606-.598 5.34-.474l.203.013.019.203c.031.318.063.621.089.913a11.673 11.673 0 0 1-.226 4.896l-.031.134zm-45.701 80.701-2.835.612c-2.255-3.552 4.713-4.827 2.835-.612zm-8.815 31.926c.857.395.327 4.572-1.494 4.211-1.781-.356-.51-4.61 1.494-4.211zm-3.307-2.416c-1.873-.591-.778-5.18 1.191-4.809 1.431.27 1.587 5.686-1.191 4.809zm-.75 8.426c1.01-.055 1.949 2.867.616 2.867-1.33 0-1.623-2.814-.616-2.867zm-.252-17.384c1.638-.247 1.413 2.672-.009 3.238-1.153-.581-.836-3.108.009-3.238zm-2.132 4.201c.804.795.422 4.495-1.125 4.153-1.291-.283-.721-5.307 1.125-4.153zm1.615 6.57c1.105 0 .224 4.015-1.193 3.61-1.129-.427-.344-3.144 1.193-3.61zm12.626-17.186a.958.958 0 0 0-.247.219l-1.082 25.484c-.098 4.498-.209 8.996-.414 13.491-.801 17.479-2.979 34.796-1.222 52.361.729 7.273 6.728 19.954-4.226 21.384.396-4.537-.494-8.652-1.657-12.984.194-.986 3.604-1.005 3.319-2.836-2.084-11.538-3.328-23.343-2.896-35.09.349-9.514 1.702-19.13 2.279-28.676l.093-9.043c-.034-1.682.232-8.092.232-8.092-1.154-.229-1.608-.742-1.723-1.459a2.66 2.66 0 0 1 .124-1.761c.317-.79 1.862-.685 1.862-.685l.163.055.603-12.484-20.287-1.887-.026-.016-.782-.064-.01-1.178a4.335 4.335 0 0 1-.014-2.247v-.396c.158-.661 1.418-.792 2.016-.787.106 0 .217.011.324.013 3.407-.021 10.391 1.249 12.85 1.478 1.787.168 11.249.27 11.759.565 1.52.887 2.575 5.533-1.038 4.635z"/>
    <path fill="#75FAFC" d="M276.101 309.099c-1.298.891-4.106 2.204-4.041 2.257-2.186.912-11.252 3.821-11.784-1.301.217-3.098-7.171-30.792-5.947-31.249.242-.259-1.074-5.023-1.196-5.909-.147-1.175.81.655.839.84-1.838-6.695 5.727-10.845 11.58-7.173 5.732 3.048 8.127 24.279 9.06 30.006-.089-.06 1.641 7.738 2.005 10.357-.001.312-.269 1.703-.516 2.172zm-15.649-55.537c-.072.04-.15-.081-.264-.207-.074-.066.314 2.636.217 2.583a1.14 1.14 0 0 0-.732.012c.075-.24.308-.506.276-.788 0-.229-.226-.56-.401-.353-.08.142-.029.363-.125.498-.522.626.115-3.916.133-3.829-.055-.595-1.316-7.636-1.484-7.843a1.06 1.06 0 0 0-.583-.247c-.571-.183-1.499 1.336-2.306 1.015-2.648-.527-6.004 4.883-9.471 3.547l-.048-.026c.927.648 9.726-7.069 12.549-6.715 3.392.963 1.222 4.482 1.715 6.168.067.266.179.101.382.187.331.29.972 5.446.142 5.998zm-4.096-6.095c-2.367 8.459-18.477 29.947-23.549 29.416-.188-.045-.268-.361-.449-.327a1.42 1.42 0 0 0-.885.698c.079.068.264.08.312.168-.015.164-7.796 4.45-9.499 3.753.021.021.004.021-.11-.055-.104-.148-.14-.236-.386-.251-.68.443-1.357.534-2.033.274.255-.175.664-.372.893-.549-.063.103-5.748 1.499-5.996 1.108-.025-.202.391-.288.562-.378-.26-.082-1.131-.861-.454-.882.637-.207 1.217.796 2.081.56.179-.06.336-.16.483-.275-.623-.142-1.567-.646-1.105-.88 1.281-.576 4.24-.735 5.389-.969 1.498-.218 1.574.761 2.973.026.436-.183.393-.71-.053-.671 2.672-.084 12.847-5.574 13.689-8.263.004-.125.27.005.422-.045.884-.17 4.019-4.613 3.784-3.775.906-.435 1.554-1.151 1.941-2.155.323-.149.65.243.842-.21v.001h.001c.669-1.98 6.776-12.79 11.147-16.319zm-33.643 43.371c3.172-1.74 10.632-4.618 13.071-.832 1.144 1.506 3.971 16.831 3.163 17.533-.046.115-.256 2.327-.193 2.242.367-.251.751 2.592.491 1.859-.163-.466-.552-1.482-.249-.112.244.804-2.833 3.555-3.658 3.8l-.025.008-.219.063c-.012.056-.089.075-.209.059l.004-.001c-3.302.857-7.447.594-8.087-1.171-2.241-3.937-2.67-10.783-3.86-15.373-.193-1.749-1.23-4.811-.855-6.763.431-.278.642-.715.626-1.312zm.137.487.015.013a3.05 3.05 0 0 1 .252-.315c.024-.107.04-.216-.076-.18-.22.091-.216.37-.295.621l.104-.139zm16.335-1.449c.079.021-1.173-6.072-.88-8.549.053-.228.307-1.021.49-1.505 2.484-2.924 10.844-3.876 13.186-.756 2.711 7.594 4.674 31.201 5.074 32.159-2.631 4.241-13.931 4.401-14.418-1.522 1.242-6.044-3.538-13.682-3.452-19.827z"/>
    <path fill="#ED1E79" d="M84.387 27.432c-.063.587-1.07 1.262-1.219 1.256-.868.37-1.133.879-.8 1.523a.726.726 0 0 0 .792.167c.191-.131.149-.606.394-.767.478-.415.662 4.575.706 4.653.622.535 1.682-1.23 1.874-1.482.122.012.247.011.373 0-.19.25-.308 2.734-.165 3.132.024.033.041.038.052.009.023-.135-.001-.328.17-.347 1.088-.286.325.737 1.023.855.543-.37.659-.781.349-1.236-.101.008-.243.034-.279-.002-.948-.739 5.315.461 5.063-1.088.464-.038.931.019 1.375.167-.077.271-.124.55-.141.831.131.557.32.044.368-.425.178.239.276.526.29.823 2.584.173 4.73.4 6.849 1.171 1.725.05 5.053 1.993 6.434 1.052.362.145.494.453.412.912.235-.253 2.755.126 2.611.383.276.123.371.351.282.682.232-.209.191-.643.626-.553-.192.053 2.272 1.059 2.448 1.155.544.175-.081.73-.089 1.119-.057.304.39-1.463 1.998-.372a4.854 4.854 0 0 0-.416.395c-.066.327 1.387-.923 1.54-.699.037.285-.024.574-.172.82-.104.234-.02-.322-.242-.142-.259.29-.581 1.287-.809 1.422.165-.015-1.264-1.458-1.421-1.204-.063.656-.414.919-1.056.79.009.071-.012.122-.063.154-.094-.148-1.141-1.328-.777-1.521-.241.361-1.059 1.261-.841 1.752-.09-.341-.354-1.626-.796-.655a.728.728 0 0 1-.383.414c-.107-.096-3.357-.12-3.748-.07-.181-.141-.267-.745-.489-.927.003.004-1.635.162-1.855-.21-.037.831-.564 1.127-1.097 1.749-.173-.69.098-1.232.808-1.625-.378-.989-.399-.303-.97.013-.229.145-.467.507-.326.632.044-.004.002.5-.237.465-.405-.096-.479-.668-.641-.944-2.077-1.961-16.895-2.73-20.994-4.103-.121.021-.18.119-.178.296.262.423.621.781 1.045 1.041-.177.025-.309-.016-.525.108-.538.845-.373 1.551.493 2.121a8.132 8.132 0 0 0-1.515.801c.094.271 1.387-.037 1.327.11a14.4 14.4 0 0 1-1.214.5c.08-.022.493.957.445 1.131-.081.089.297-.885.332-.398-.07-.317-.018 2.472-.025 2.491.464-.014.737.201.823.649.248.844.81-.065.771-.504-.013-.202.002-.407-.182-.413-.087.026-.243.042-.263.023-.834-.623 1.522-1.664 1.834-1.762.085-.055-.121 1.072-.392 2.007 1.218-.302 3.447-.703 3.225-1.742a2 2 0 0 0 1.3-.048c.027.196-.138.761-.093.953.221-.223.365-.487.428-.791.068.288-.003 1.142.224 1.122 1.161-.051 3.868-.657 4.634.083.168.196-.019.394-.066.664a3.473 3.473 0 0 1 1.64-.357c.064.082.079.249.212.305 1.969.563 4.459.613 6.207.68.216.196.052.791.285.995-.157-.281 3.143-.702 2.768-.287-.152.153-.314.244-.308.475.152.058.233.155.249.291.112-.616.973-.029 1.101.246.492.961.379-.325.729-.329.831-.037 1.019 1.801 1.015 2.057.415-.168.66-.51.735-1.027.325.353.703.393 1.132.125-.341.336-.411.67-.204 1.006.216-.107 1.033-1.11 1.23-.865.043.288-.011.584-.153.838-.064.149-.039-.34-.219-.167a7.543 7.543 0 0 0-.716 1.411c-.062-.249-2.063-1.64-2.356-.132-.2.419-.766-1.637-.709-1.373.028.115-1.273 1.307-.799 1.687-.051-.117-3.067-1.122-3.224-1.003-.441.32-.89.633-1.346.936-.189-.084-.286-.737-.522-.917-.777.353-1.351.246-1.723-.325-.045.898-.438 1.518-1.179 1.86.267-.541.564-1.065.897-1.566a1.157 1.157 0 0 0-.236-.402c-.325-.315-.952 1.17-.955 1.167 0 0-.649-.18-.807-.42-.342.156-.579.034-.722-.362-.657.257-.948 2.128-1.705 1.31-.446-.451-.709.049-1.02-.6.692 2.025-9.062-1.351-10.821-.841-4.021 2.646 9.013 13.566 10.139 14.509 1.484 1.151 5.762 2.301 5.608 2.336.08.42.259.814.528 1.148.024-.005 3.174-.308 3.348.115.015-.138.015-.302.06-.384.235-.288 2.59.645 3.214.582.17.435.232.903.183 1.367.271-.31 4.139-3.138 4.037-1.796-.326.312 1.069-.33 1.564-.741.551-.323.632.644.329 1.069-.027-.085-.034-.255-.108-.329-.416-.535-1.132 2.082-1.026 1.847 0 0-.761.064-1.131.059-.199.056-.081-.247-.105-.366a1.79 1.79 0 0 0-1.565.186c.527-.313-1.396.542-1.461.659-.343-.017-2.126.052-1.771.336-.693-.649-1.479-.932-2.36-.852-.11.091-.972.463-.976.589-.01.28.197.571.21.838-.697.312-1.395.054-2.09-.77-.089.17-8.042-1.062-8.976-1.485-.599-.221-2.775-2.164-3.646-2.596-.56-.295-.161-.958-.363-1.417-.606-.119-1.385-.805-.964-.452-.14-.807-2.082-.956-2.372-.918-.851.062-2.134-3.164-2.354-3.783.006-.016.017-.022.024-.035-2.458.732-2.24-3.815-2.775-4.085-.156-.039-.311.033-.449-.121-.361-.719-.338-1.353.07-1.903.027.068-3.002-4.729-2.598-4.952-1.086.805-2.763-1.83-2.742-1.418.008.1.039.542-.105.658-1.491 1.229-10.571-2.522-10.173-4.98.516.323 1.808-.375 1.904-.383.151.146.319.159.46-.072.039.031.09.105.137.146.293-.105.547-.3.725-.558.309-.086-.377.794.062.558.2-.101 2.179-1.398 2.434-1.109.299.227-.249 1.745-.073 1.646.584-.508.881-1.486 1.357-2.085.225.229.232.841.232.841l2.382.381s1.66-4.626-.155-6.401c-2.787-2.164-6.143-3.488-5.498-5.67.544.27 1.084.32 1.619.148.024.07.004.164.049.214a1.43 1.43 0 0 0 .83-.491c.086-.089.852-.408 1.02-.314.146-.011.061.154-.063.365.105-.169 2.75-.623 2.764-.604.367.296-.723 2.116-.055 1.506 4.397-4.639 8.689-12.034 21.212-12.299.497-.01-.118-.879.236-1.277 1.051-.898 7.137-.826 8.633-.341.068.041-.014.175-.157.355.835.606 3.127.786 3.042.671-.08-.105 20.067 5.277 16.62 16.414-.257.56-.896-3.557-1.37-3.076a.423.423 0 0 0 .126-.167c-.018-.104-.798-.111-.855-.249.325-.226.42-.507.278-.846-.957.32-1.684-.073-2.183-1.179-.082-.355.787.065.698-.191.04.098-5.943-3.334-6.344-3.1-.428.327-.651-.289-.461-.495.143-.109.324-.301.151-.444-5.437-3.095-12.186-.802-17.664-.995a1.394 1.394 0 0 1-.188-.225c-.333.468-.749.536-1.247.202-.202.27-.032.28-.193.513-.6.266-1.601.369-2.113.66-.153.151-.108.645-.197.616-.181-.142-.564-1.431-1.017-.892-.282.809-1.298 3.549-1.35 3.839"/>
</svg>
