<svg xmlns="http://www.w3.org/2000/svg" width="317.579" height="270.791" viewBox="1.333 -0.03 317.579 270.791" xml:space="preserve">
    <path fill="#FFF" d="m22.007 40.071 13.545 76.63 34.06 2.612-5.086 72.495-5.234 38.81 32.79 15.087 84.825 3.521 29.298-39.715-7.54-64.167-36.093-53.987-7.952-70.078-46.224-11.268-19.213 12.412-67.176 17.648z"/>
    <path fill="#060605" d="M81.215 100.254a3.61 3.61 0 0 1-3.701-3.528c-.019-.36.033-.718.12-1.061.88-.923 4.372 3.882 3.58 4.589zm101.056 87.029c-.562-.696-.139-6.674 1.493-4.991.718.766 1.103 5.693-1.493 4.99zm-1.361 14.457-1.843-.043c.27-2.765-.496-6.151 1.967-8.125 1.53.019.731 7.004-.124 8.168zm-8.343-23.769c.177 2.075 2.777 6.073-.913 6.282-.354-1.947-1.47-5.197.913-6.282zm4.694 7.552c-.194 1.359 1.818 5.009-.602 6.553a4.542 4.542 0 0 1-.981-5.713c.267-.555 1.384-.962 1.55-1.62.108-.413-2.813-9.157.977-6.457a19.76 19.76 0 0 1 1.114 5.386c-.303 1.601-1.967 1.268-2.058 1.851zm-4.764-39.813c1.044.013 3.748 3.399 1.681 4.492-2.763.457-3.335-4.521-1.681-4.492zm.759-2.53a7.221 7.221 0 0 1-3.788-7.12c1.297-1.211 7.488 5.198 3.788 7.12zm-23.992-15.034a3.082 3.082 0 0 1 1.434 3.225c-1.322.555-2.862-2.84-2.382-3.27l.948.045zm2.604-1.762c-1.974.269-3.92-3.387-3.224-5.23 1.993-.658 5.942 4.834 3.224 5.23zm.996 12.683-1.93-.451-.378-4.077c2.444.151 2.664 2.561 2.308 4.528zm1.592-6.88c-1.18-.828-3.607-2.515-1.398-3.85l1.398 3.85zm2.493-12.541c-1.194 1.55-6.035-1.559-2.667-3.908 1.066.524 3.69 2.59 2.667 3.908zm1.602 2.782c2.422 2.741-1.235 3.646-2.35.03.66-1.095 1.708-.773 2.35-.03zm2.832 10.713c-3.383.538-4.313-3.208-4.158-5.885 2.869-.06 4.578 3.265 4.158 5.885zm-2.799 5.566c-2.084-.057-2.692-2.117-2.356-3.9 2.098.052 2.71 2.11 2.356 3.9zm-1.555 4.886a3.29 3.29 0 0 1 1.154-2.992 6.203 6.203 0 0 1 2.574 5.803 3.308 3.308 0 0 1-3.728-2.811zm4.503-6.642c1.493-.206 3.048 3.628 1.047 4.464-.87-.4-2.897-4.218-1.047-4.464zm4.454-7.389c-2.85.203-3.902-2.96-3.548-5.224.78-.827 4.776 3.629 3.548 5.224zm-1.133 10.721c2.157-.214 3.702 5.02 2.881 5.834-3.305.24-3.136-3.479-2.88-5.834zm2.01-2.455c-1.777.455-3.657-3.926-2.944-4.565 2.72-.318 3.192 2.47 2.945 4.565zm-57.12-31.155c1.527 1.266.656 3.374.705 5.08l-1.916-.366-.45-3.747 1.66-.967zm-1.982 62.245c1.841-2.864 5.35 2.109 4.284 3.033-2.18.169-4.51-.348-4.284-3.033zm6.658-60.768c.892 4.987-3.882 3.77-1.837-.037l1.837.037zm-.338 60.733c-1.721.442-5.273-3.996-2.616-4.55 2.357-.491 3.166 2.78 2.616 4.55zm-.829-8.581c1.832-2.135 4.14.142 3.67 2.385-2.19.263-2.873-.513-3.67-2.385zm22.085-111.933-.454 1.892c-6.655-.911-4.512-6.624.454-1.892zm-4.603-7.31c-6.012 1.145-15.194 1.796-10.021-6.685 6.049-9.914 14.827-3.175 10.02 6.684zm-40.72 100.743-.932-.045c-2.637-1.184 1.367-6.036.932.045zm-1.384-17.143c2.078-.288 3.003 4.576 1.01 5.097-2.952.782-2.53-4.893-1.01-5.097zm3.035-4.281.534 2.21c-2.725 2.773-3.357-2.602-.534-2.21zm2.958 4.563c-.046 1.713 1.522 4.085-1.144 4.374-1.433-.356-1.344-4.952 1.144-4.374zm-2.407 10.64c-1.592-.563-1.152-2.456-1.073-3.847 1.593.563 1.157 2.455 1.073 3.848zm-5.964-14.215c1.667-.272 1.36 2.183.814 2.575-1.184.847-2.803-2.233-.814-2.575zm-.195 10.765c2.115-.317 3.248 4.205 1.353 4.49-1.883.282-1.52-3.354-1.353-4.49zM32.133 54.516c-.381-7.24 5.128-7.662 10.995-9.043 7.456-1.753 15.554-2.371 23.031-4.272.967-5.028 3.007-14.517 9.864-13.316 5.945 1.038 1.363 9.585 8.137 9.215 2.384-6.826 8.836-12.594 16.344-9.977-1.35-13.16 12.863-12.3 17.27-2.987 12.51-7.517 27.091-1.66 22.995 14.4 6.291 1.062 6.835 4.99 7.795 10.465 3.065 17.503 3.005 36.801 5.21 54.52 4.06 5.664 9.747 10.521 14.269 16.011 21.523 26.097 39.115 68.145 17.194 99.236-1.822 2.585-10.028 9.856-10.309 10.537-.409 1.043.85 2.3-.492 4.17-2.468 3.44-16.994 3.994-21.476 4.315-9.674.707-21.561 1.627-31.12 1.7-7.016.052-17.31.1-18.64-8.43-1.11-7.177 4.163-7.418 9.204-9.233.81-.29 2.046-1.084.188-1.124-2.967.95-7.548 1.538-9.309 4.391-.637 1.026-.902 3.719-1.875 3.939l-3.39-1.425c-.848 7.506-4.886 10.512-12.306 7.865-6.778-2.424-3.027-10.178-2.111-14.724 1.473-7.358 3.623-15.715 4.422-23.04.98-9.021.038-19.003.902-27.717.274-2.804 3.264-2.217 3.883 1.015.7 5.36.98 10.777.807 16.188a231.216 231.216 0 0 1-5.145 33.66c.668 1.073 6.043 2.459 6.562.485l10.992-47.807 2.638 1.215c-.49 10.613-2.2 21.13-5.103 31.346-.026 5.216 12.54 11.525 16.923 12.922 4.386 1.403 7.65-.66 12.154.119.353-1.2-.389-1.237-.977-1.825a45.577 45.577 0 0 1-12.766-18.005c-11.525-32.71 18.547-57.878 49.799-46.507 4.168 1.515 11.36 5.249 10.908 10.303-5.003-1.523-8.962-4.77-14.145-6.17-32.952-8.807-55.864 20.348-37.547 49.248 1.354 2.11 8.337 10.834 10.194 11.275 1.853.442 4.056-.088 5.913.357 2.284 5.42-11.153 3.824-12.207 5.07a13.736 13.736 0 0 1 3.293 10.909c5.708-2.063 29.484-.333 33.089-3.182.753-.608.93-2.732 1.79-4.01 2.833-4.227 8.877-7.207 12.41-12.941 22.406-36.432-7.597-81.901-33.08-107.933l-5.8-56.967c-2.127-8.662-5.33-2.32-7.539-2.213-4.721.237-1.454-4.605-.931-6.397 1.301-4.453 2.512-11.23-2.686-13.88-8.274-4.215-15.02 6.162-16.9 12.963l-6.047 1c.6 2.761-.416 8.828.193 10.959.34 1.177 2.674 1.443 2.3 2.733-4.432 1.606-3.396 3.218-5.059 6.41-12.836 24.603-30.432 1.146-24.86-16.987-5.193.483-43.486 6.314-44.12 8.475-.228 3.364.095 15.436 5.192 14.924 1.85-.179 8.199-6.505 9.318-1.554.464 2.035-6.222 9.525-8.02 10.257-1.886.766-3.293-1.388-3.16.453a97.09 97.09 0 0 0 7.837 24.307c3.873 6.646 9.369 5.467 16.199 6.79l11.299-7.983 1.403.606c2.655 3.022-5.005 7.602-4.028 8.513 5.129.14 10.373.237 15.516.094 4.696-.14 10.11-1.147 14.747-.971.623.03 1.942.226 2.071.927l-.217 3.999-22.218.849-.01 13.277 1.924-.547c.294 2.504.982 4.432-2.132 4.657a72.067 72.067 0 0 1-.07 15.18c-.019 10.925 1.13 22.023 1 32.925a172.375 172.375 0 0 1-4.753 36.67c-.387 1.907 3.192 2.097 3.348 3.138a38.584 38.584 0 0 0-2.377 13.53c-11.414-2.047-4.505-15.044-3.374-22.645 2.705-18.336 1.278-36.595 1.3-54.958.018-13.471.83-26.942.571-40.409-.165-.826-.727-.944-1.441-1.106a57.802 57.802 0 0 0-9.506-.476c-2.491.248-4.705 2.754-7.648 2.219-2.402-.44-2.051-3.072-2.86-3.79-1.143-1.031-8.193-2.323-10.994-4.818-3.977-3.545-8.028-18.004-9.362-23.514a200.354 200.354 0 0 1-5.283-27.848zm70.421 158.762a1.872 1.872 0 0 0-.683-.03l-.12 2.536 1.922-.56a1.593 1.593 0 0 0-1.119-1.946zM89.264 37.346l11.451-1.376c-.294-8.11-9.602-4.132-11.451 1.376zm12.829 22.536c-1.362-.615-2.742-4.708-2.983-4.875-.726-.508-10.45.354-8.987-2.424a10.172 10.172 0 0 1 2.608-1.777l.032-.002c3.146-.527 8.274.881 11.686.55L104.3 40.61 87.05 42.7c-4.3 10.851 3.503 35.962 15.044 17.182zM70.744 40.274h.021c1.233.153 4.655-.178 5.082-1.418l-.914-6.61c-2.09.163-4.682 7.507-4.189 8.028z"/>
    <path opacity=".8" fill="#F1F1F1" d="m5.166 38.415-2.178 3.128 3.78.164-2.126 3.24 3.818.247-2.164 3.155 3.832.275-2.178 3.13 3.782.163-2.126 3.239 3.818.246-2.165 3.155 11.631-5.65L54.063 37.75l11.63-5.654-3.832-.275 2.177-3.127-3.78-.165 2.125-3.236-3.818-.246 2.165-3.155-3.833-.275 2.177-3.128-3.78-.164 2.125-3.236-3.819-.246 2.166-3.166-11.631 5.655-31.173 15.155-11.63 5.654 3.834.275zM144.149 250.618l-2.179 3.13 3.78.163-2.126 3.24 3.819.246-2.164 3.155 3.833.276-2.18 3.128 3.782.165-2.125 3.238 3.817.246-2.165 3.156 11.631-5.65 31.173-15.158 11.631-5.654-3.833-.276 2.178-3.126-3.78-.165 2.125-3.236-3.818-.246 2.164-3.156-3.832-.274 2.179-3.128-3.782-.164 2.125-3.236-3.818-.247 2.165-3.165-11.63 5.654-31.172 15.155-11.631 5.655 3.833.274z"/>
    <path fill="#FFF" stroke="#FFF" stroke-width="5.579" d="M184.004 46.99c-1.256-.777-8.293-.844-8.101-2.709 1.9-3.711 8.312-9.838 8.214-14.01-.156-6.654-.027-14.758 1.934-21.286 1.084-3.601 4.725-5.358 8.246-5.711 8.483-.852 16.601-.4 25.039-.348 25.656.154 51.373-.353 76.975.355 7.495.207 18.838-2.006 18.057 9.425-.191 3.94-.174 7.889.053 11.827.523 19.461 1.299 38.768 1.688 58.226-1.711 2.84-5.693 6.063-9.027 6.361-5.986.536-12.312-.3-18.259-.387-20.582-.3-41.082-.871-61.577-1.432-9.861-.269-27.822 1.383-35.965-3.771-4.367-2.765-4.962-7.4-5.4-12.132-.744-8.114-.706-16.344-1.877-24.408z"/>
    <path d="M184.004 46.99c-1.256-.777-8.293-.844-8.101-2.709 1.9-3.711 8.312-9.838 8.214-14.01-.156-6.654-.027-14.758 1.934-21.286 1.084-3.601 4.725-5.358 8.246-5.711 8.483-.852 16.601-.4 25.039-.348 25.656.154 51.373-.353 76.975.355 7.495.207 18.838-2.006 18.057 9.425-.191 3.94-.174 7.889.053 11.827.523 19.461 1.299 38.768 1.688 58.226-1.711 2.84-5.693 6.063-9.027 6.361-5.986.536-12.312-.3-18.259-.387-20.582-.3-41.082-.871-61.577-1.432-9.861-.269-27.822 1.383-35.965-3.771-4.367-2.765-4.962-7.4-5.4-12.132-.744-8.114-.706-16.344-1.877-24.408zm-4.926-3.309c1.541-.009 7.053 1.422 7.619 2.586l2.422 31.916a5.548 5.548 0 0 0 1.6 2.339c5.511 4.982 25.209 3.7 32.951 3.921 25.625.74 51.281 1.933 76.973 2.146.936.009 1.828.39 2.843.4 2.022.022 9.165-1.406 9.776-3.5.395-1.343.127-6.395.09-8.167-.467-22.156-2.057-44.3-2.145-66.529-.025-1.082-1.777-2.72-2.779-2.945l-116.199-.716a9.39 9.39 0 0 0-3.12 2.605c-1.327 1.916-2.974 16.793-3.216 20.043-.031.414-.018.831-.008 1.241h1.439c.67.649-2.791 6.82-3.433 7.84-1.101 1.738-3.99 4.526-4.626 5.751a1.725 1.725 0 0 0-.187 1.069z"/>
    <path d="M202.449 17.544c.383.027.757.129 1.1.3.027.02.055.036.084.051v1.647h-.313c-3.28 0-3.5 7.394-.532 8.541a4.29 4.29 0 0 0 1.799.133v1.716a1.08 1.08 0 0 1-.183.083 3.36 3.36 0 0 1-1.282.232c-6.583.001-6.003-12.586-.673-12.703zM206.111 17.59c.018-.183.067-.583.366-.583l1.748.051c.067.017.05.083.05.133a1.389 1.389 0 0 1-.05.35c-.134 2.4-.433 4.512-.433 6.827 0 .033-.017.166.066.183l3.547.2a.26.26 0 0 0 .184-.1c.276-2.271.421-4.556.433-6.843 0-.083.067-.267.2-.267.482 0 1.216.133 1.748.101l.05.116v.45l-.25 12.521c-.583 0-1.165 0-1.965-.067v-.133c0-1.215.149-2.414.149-3.63a.852.852 0 0 0-.05-.4l-4.444.033a26.178 26.178 0 0 0 .133 3.979v.018c0 .066 0 .183-.117.183l-1.801.05c-.1 0-.1-.1-.1-.167.003-3.377.337-6.724.536-13.005zM215.017 18.059v-.333l3.913-.301c.083 0 .5-.05.55.101.033.516.166 1 .166 1.5v.228c-.874.17-1.758.281-2.646.333v.15c0 .149.049 4.112.449 4.112l2.331-.333c.017 0 .067-.018.083-.018l.366 1.766-2.8.35v.217c0 .85.066 1.766.15 2.581 0 .167.032.4.232.4.283 0 2.199-.333 2.682-.351.166 0 .199.167.217.3.104.472.17.95.199 1.433 0 .033.033.167-.05.183-.866.018-1.632.216-4.212.383a3.39 3.39 0 0 1-.4.051c-.017 0-.066.016-.082.016-.301 0-.301-.649-.316-.8l-.832-11.968zM221.963 28.983l5.346-9.657c-1.314-.117-2.764.067-4.729 0-.018 0-.018-.05-.018-.067l.033-1.864 7.176-.333a.3.3 0 0 1 .216.333l-.233 1.864c-.865 1.716-3.18 6.327-4.799 8.809 0 .017.032.066.049.066l4.613.135-.051 1.8c-.018.166-.083.315-.25.333a57.627 57.627 0 0 0-7.21-.05c-.149 0-.183-.134-.166-.301l.023-1.068zM240.123 17.544c.383.027.756.129 1.1.3.025.02.054.036.083.051v1.647h-.316c-3.28 0-3.5 7.394-.532 8.541a4.291 4.291 0 0 0 1.799.133v1.716a1.08 1.08 0 0 1-.183.083 3.36 3.36 0 0 1-1.282.232c-6.581.001-5.995-12.586-.669-12.703zM242.887 30.931c.083-1.133.166-2.348.5-9.092.166-3.146 1-4.528 2.931-4.528.128-.003.256.003.383.016 1.748 0 2.082 1.948 2.131 3.313v.083c.018.365.066 1.216-.082 9.84l-.117.083h-.666a2.435 2.435 0 0 1-.832-.083c-.016-.166-.033-.949-.25-4.18h-.116c-.601 0-1.215.051-2.031.051a38.213 38.213 0 0 0 .083 4.578s-.05.117-.083.117h-1.8c-.066 0-.05-.1-.05-.117v-.081zm2.1-5.994.033.083c.017.017.583.032 1.782.05.05-.017.05-.083.05-.133l.2-3.264v-.282c0-2.231-1.782-2.781-1.982-.166a29.073 29.073 0 0 0-.1 2.747c-.004.199.017.881.017.965zM253.273 25.169a8.643 8.643 0 0 0-.083-1.016l-.116-.133a3.353 3.353 0 0 1-.566.032c-2.016 0-2.647-1.6-2.647-3.446v-.416c-.02-.874.063-1.746.25-2.601.649.033 1.315-.066 1.966-.066h.133c.033 0 .1.05.1.066l.05.384v2.399c0 .033-.017.3-.017.333v.217c.017.7.033.916.9 1.017l3.199-.317c.25-.166.266-.366.35-.632-.017-.8-.082-1.915-.066-2.781l2.064.05c.018.601.084 1.301.084 1.932v.183a5.083 5.083 0 0 1-.767 2.914c-.549.732-2.28.7-2.431 1.132l.017 6.577-.05.018-1.9.1c-.1-.016-.166 0-.216-.133-.037-.668-.187-5.097-.254-5.813zM259.416 30.931c.084-1.133.168-2.348.5-9.092.168-3.146 1-4.528 2.932-4.528.127-.003.256.003.383.016 1.748 0 2.081 1.948 2.131 3.313v.083c.018.365.066 1.216-.083 9.84l-.116.083h-.666a2.444 2.444 0 0 1-.834-.083c-.017-.166-.033-.949-.25-4.18h-.117c-.6 0-1.215.051-2.03.051a38.006 38.006 0 0 0 .083 4.578s-.051.117-.083.117h-1.8c-.067 0-.051-.1-.051-.117l.001-.081zm2.1-5.994.032.083c.017.017.584.032 1.781.05.051-.017.051-.083.051-.133l.199-3.264v-.282c0-2.231-1.781-2.781-1.981-.166a29.062 29.062 0 0 0-.101 2.747c0 .198.017.881.017.965h.002zM267.463 27.017c.067-.018.906-.083 1.225-.101h.091c.068 0 .136-.017.159.05.091.483.408 1.565 1.361 1.565.885 0 1.951-.633 1.951-1.282 0-3.164-5.854-3.613-5.854-6.526 0-1.516 1.61-3.101 4.084-3.101.184.012.366.039.544.083 1.293.267 1.793.434 2.383 1.366.159.315.227.383.227.6l-1.52 1.232a.617.617 0 0 1-.113.017c-.613 0-.908-1.531-2.246-1.531-.613 0-.885.315-.885.766 0 2.313 5.559 2.863 5.922 6.493.18 1.848-1.793 3.729-4.539 3.729a3.4 3.4 0 0 1-3.43-1.85l-.045-.083a2.18 2.18 0 0 1-.318-.949c.003-.328.612-.444 1.003-.478zM276.264 31.38c.021-.237.064-.472.133-.7-.05 0-.116.018-.167.018a.964.964 0 0 1-1.067-.965c0-.517.434-1.3 1.082-1.3.932 0 1.315.565 1.315 1.448 0 .632-.649 2.015-1.415 2.015-.066 0-.083-.051-.083-.101.002-.098.169-.265.202-.415zM205.162 39.236c-.017-.101-.1-1.382-.117-1.7v-.117a.36.36 0 0 1 .051-.133c2.131.15 2.131.15 2.148.15.615 0 2.746 5.428 4.045 8.042.133-.601.018-8.093.533-8.093a8.55 8.55 0 0 1 1.682.15.318.318 0 0 1 .051.216v.067c-.133 1-.133 1.881-.184 10.04v1.132c-.017.3-.05 1.049-.05 1.049l-.05.05a5.33 5.33 0 0 1-1.449-.05l-4.712-9.141a.074.074 0 0 0-.05.05c0 .45.066.167.966 9.041v.2c-.167.133-.416 0-1.981.1l-.049-.05c-.017-.033-.184-1.482-.233-2.065l-.601-8.938zM219.662 39.236c-.017-.101-.1-1.382-.117-1.7v-.117a.36.36 0 0 1 .051-.133c2.131.15 2.131.15 2.148.15.615 0 2.746 5.428 4.045 8.042.133-.601.017-8.093.533-8.093a8.55 8.55 0 0 1 1.682.15.318.318 0 0 1 .051.216v.067c-.133 1-.133 1.881-.184 10.04v1.132c-.016.3-.05 1.049-.05 1.049l-.05.05a5.33 5.33 0 0 1-1.449-.05l-4.712-9.141a.074.074 0 0 0-.05.05c0 .45.066.167.965 9.041v.2c-.166.133-.416 0-1.98.1l-.051-.05c-.017-.033-.183-1.482-.232-2.065l-.6-8.938zM229.05 38.936a1.128 1.128 0 0 1 1.215-1.149c.45 0 .616.55.616.883a10.552 10.552 0 0 1-.633 3.014c-.051.134-.133.648-.383.648h-.434c-.083 0-.184-.3-.2-.333l-.181-3.063zM231.881 38.037v-.333l3.914-.3c.082 0 .5-.05.549.1.033.517.166 1 .166 1.5v.233c-.873.17-1.758.281-2.646.333v.149c0 .15.051 4.112.449 4.112l2.331-.333c.017 0 .067-.017.083-.017l.367 1.765-2.801.351v.217c0 .849.067 1.765.15 2.581 0 .167.033.399.232.399.283 0 2.201-.333 2.682-.35.166 0 .2.167.217.3.104.472.171.95.2 1.432 0 .033.033.167-.05.184-.866.017-1.633.216-4.213.383a3.152 3.152 0 0 1-.399.05c-.017 0-.067.017-.083.017-.3 0-.3-.649-.316-.801l-.832-11.972zM238.658 46.994c.049-.017.665-.083.899-.1h.067c.049 0 .1-.017.117.05.066.482.299 1.564 1 1.564a1.515 1.515 0 0 0 1.432-1.281c0-3.164-4.301-3.613-4.301-6.527a3.067 3.067 0 0 1 3-3.1c.137.011.271.039.4.083a2.099 2.099 0 0 1 1.749 1.365c.097.187.153.391.166.601l-1.115 1.231a.293.293 0 0 1-.083.018c-.449 0-.666-1.532-1.648-1.532-.448 0-.648.316-.648.766 0 2.314 4.079 2.863 4.346 6.493a3.473 3.473 0 0 1-3.33 3.731 2.47 2.47 0 0 1-2.515-1.849l-.032-.083a2.735 2.735 0 0 1-.234-.948c-.004-.332.445-.444.73-.482zM245.516 39.785c-.033-.117-.149-.1-.25-.1-.366 0-.716.1-1.101.1a.163.163 0 0 1-.166-.15v-2.03h5.428v2.264h-1.881l-.051.083v1.049c.15 3.031.366 6.094.366 9.142 0 .167-.032.3-.2.35h-1.632a.171.171 0 0 1-.198-.141l-.002-.01c-.013-3.531-.231-7.044-.313-10.557zM255.637 40.052c-.05-.833-.216-1.632-.216-2.447 0-.101.016-.533.016-.616.083-.5.75-.649 1.182-.649 2.631 0 3.28.649 3.746 1.183.57.65.858 1.501.801 2.363a2.318 2.318 0 0 1-1.383 2.182 6.03 6.03 0 0 1-1.947.367l.465 7.441v.45c-.668.13-1.349.197-2.03.2a364.186 364.186 0 0 1-.634-10.474zm2.264.549c.933 0 1.249-.5 1.249-1.35 0-.616-.882-1.032-1.432-1.032-.15 0-.166.101-.166.233 0 .666.115 1.482.15 2.081.018.102.182.069.199.068zM261.397 50.908c.083-1.132.166-2.347.5-9.091.166-3.147 1-4.529 2.931-4.529.129-.002.256.003.383.016 1.748 0 2.082 1.948 2.131 3.313v.083c.018.366.068 1.216-.082 9.84l-.117.083h-.666a2.433 2.433 0 0 1-.832-.083c-.018-.166-.034-.949-.25-4.179h-.117c-.6 0-1.215.05-2.031.05a38.026 38.026 0 0 0 .084 4.579s-.051.116-.084.116h-1.8c-.067 0-.05-.101-.05-.116v-.082zm2.101-5.994.032.083c.017.018.583.033 1.782.05.05-.016.05-.083.05-.133l.2-3.263v-.283c0-2.231-1.782-2.781-1.98-.166a28.743 28.743 0 0 0-.101 2.747c-.003.199.015.881.015.965h.002zM269.156 46.994c.051-.017.666-.083.9-.1h.066c.051 0 .101-.017.117.05.066.482.301 1.564 1 1.564a1.512 1.512 0 0 0 1.432-1.281c0-3.164-4.299-3.613-4.299-6.527a3.065 3.065 0 0 1 3-3.1c.136.011.27.039.399.083a2.096 2.096 0 0 1 1.748 1.365c.097.187.154.391.167.601l-1.116 1.231a.332.332 0 0 1-.083.018c-.449 0-.666-1.532-1.648-1.532-.449 0-.648.316-.648.766 0 2.314 4.079 2.863 4.346 6.493a3.471 3.471 0 0 1-3.201 3.723c-.043.004-.086.006-.129.008a2.47 2.47 0 0 1-2.514-1.849l-.033-.083a2.71 2.71 0 0 1-.232-.948c-.004-.332.445-.444.728-.482zM198.569 57.249c.033-.1.033-.316.134-.366l1.016-.032a6.154 6.154 0 0 1 3.813 1.448c.018.018.083.083.083.101.983.783 1.415 3.031 1.415 4.3 0 3.214-.533 6.977-4.479 7.243l-2.215.033-.033-.051.266-12.676zm1.966 10.839h.066c2.199-.2 2.4-2.431 2.4-4.146v-.466c0-2.031-.201-3.613-1.766-4.813a.677.677 0 0 0-.4-.183h-.1c-.117.965-.3 7.309-.316 9.491-.001.1.03.117.116.117zM206.027 58.014v-.333l3.913-.301c.083 0 .5-.05.55.101.033.516.166 1 .166 1.5v.232c-.873.17-1.758.281-2.646.333v.15c0 .15.05 4.112.449 4.112l2.332-.333c.016 0 .066-.018.082-.018l.366 1.766-2.8.35v.217c0 .85.066 1.766.15 2.581 0 .167.033.4.232.4.283 0 2.2-.333 2.682-.351.166 0 .199.167.217.301.104.471.17.95.199 1.432 0 .033.033.167-.049.183-.867.018-1.633.216-4.213.383a3.364 3.364 0 0 1-.4.051c-.016 0-.066.016-.082.016-.301 0-.301-.649-.316-.8l-.832-11.972zM212.803 66.972c.05-.018.665-.083.899-.101h.067c.05 0 .101-.016.117.05.067.483.3 1.565 1 1.565a1.515 1.515 0 0 0 1.432-1.282c0-3.164-4.3-3.613-4.3-6.527a3.066 3.066 0 0 1 3-3.1c.137.012.271.04.4.083a2.1 2.1 0 0 1 1.748 1.366c.097.186.152.391.166.6l-1.115 1.232a.339.339 0 0 1-.084.017c-.448 0-.666-1.532-1.647-1.532-.448 0-.649.316-.649.767 0 2.313 4.08 2.863 4.347 6.493a3.473 3.473 0 0 1-3.33 3.73 2.47 2.47 0 0 1-2.515-1.848l-.032-.083a2.733 2.733 0 0 1-.233-.949c-.007-.331.446-.447.729-.481zM229.718 57.082a4.187 4.187 0 0 1 2.947 1.032c.166.15.316.283.316.5 0 .133-.033.183-.783.815a.944.944 0 0 0-.15.117.903.903 0 0 1-.116.018 10.682 10.682 0 0 0-2.729-.466c-2.065 0-3.101 3.8-3.101 5.36 0 1.683.5 3.764 2.53 3.764 1.232 0 2.701-.333 3.031-3.447 0-.207-.022-.414-.067-.616-.017-.083-.101-.05-.134-.05-.6 0-1.231.149-2.264.149l-.05-.05c-.05-.583-.267-1.1-.3-1.682.018-.033.05-.117.117-.133a12.79 12.79 0 0 1 4.5-.4 11.673 11.673 0 0 1-.135 4.995 4.297 4.297 0 0 1-4.199 3.146c-2.465 0-4.029-.832-4.6-3.279a10.399 10.399 0 0 1-.351-2.814c.01-3.146 1.925-6.959 5.538-6.959zM236.66 64.342c0-.032-.051-.133-.134-.133-.25 1.632.166 4.379.183 6.211 0 .051.018.267.018.316h-1.866l-.101-.083c0-.018-.032-.416-.032-.583-.033-.783-.05-1.549.083-12.5l.05-.55c0-.216 2.563-.05 3.247 0 .066 0 .116.017.15.017a2.9 2.9 0 0 1 2.464 2.581c0 .1.017.533.017.633 0 1.648-.749 2.281-2.348 2.682.066.282.166.583.199.849l2.101 6.244v.35a7.08 7.08 0 0 1-1.349.466l-2.682-6.5zm-.051-2.681c1.133 0 1.948-.249 1.948-1.564 0-.866-.832-1.282-1.615-1.282h-.233c-.25.117-.166 1.1-.315 2.514v.167c-.002.165.016.165.215.165zM245.433 57.382c2.646 0 3.214 3.23 3.1 6.844-.082 2.413-.35 6.727-3.6 6.727a3.792 3.792 0 0 1-3.348-3.164 18.325 18.325 0 0 1-.1-5.145 6.891 6.891 0 0 1 2.148-4.745 2.643 2.643 0 0 1 1.8-.517zm-1.049 11.389c.9.466 1.582-.333 1.814-1.082.275-1.385.443-2.789.5-4.2v-.3c0-7.193-3.33-4.313-3.33 1.415v.6c.001 1.619.016 3.051 1.016 3.567zM249.927 66.972c.05-.018.666-.083.9-.101h.066c.05 0 .1-.016.117.05.066.483.3 1.565 1 1.565a1.513 1.513 0 0 0 1.432-1.282c0-3.164-4.3-3.613-4.3-6.527a3.067 3.067 0 0 1 3-3.1c.136.012.271.04.399.083a2.097 2.097 0 0 1 1.748 1.366c.098.186.154.391.166.6l-1.115 1.232a.333.333 0 0 1-.082.017c-.449 0-.666-1.532-1.648-1.532-.449 0-.648.316-.648.767 0 2.313 4.078 2.863 4.346 6.493a3.472 3.472 0 0 1-3.33 3.73 2.467 2.467 0 0 1-2.514-1.848l-.033-.083a2.711 2.711 0 0 1-.233-.949c-.003-.331.446-.447.729-.481zM263.297 64.342c0-.032-.051-.133-.133-.133-.25 1.632.166 4.379.183 6.211 0 .051.017.267.017.316h-1.861l-.1-.083c0-.018-.033-.416-.033-.583-.033-.783-.05-1.549.084-12.5l.049-.55c0-.216 2.564-.05 3.248 0 .066 0 .117.017.149.017a2.901 2.901 0 0 1 2.464 2.581c0 .1.018.533.018.633 0 1.648-.75 2.281-2.348 2.682.066.282.165.583.199.849l2.1 6.244v.35a7.057 7.057 0 0 1-1.349.466l-2.687-6.5zm-.051-2.681c1.133 0 1.948-.249 1.948-1.564 0-.866-.832-1.282-1.614-1.282h-.233c-.25.117-.166 1.1-.316 2.514v.167c-.002.165.016.165.215.165zM284.871 59.762c-.033-.115-.15-.1-.25-.1-.367 0-.717.1-1.101.1a.162.162 0 0 1-.166-.149v-2.031h5.429v2.264H286.9l-.05.083v1.05c.149 3.03.366 6.094.366 9.141 0 .167-.033.3-.2.35h-1.632a.17.17 0 0 1-.199-.14l-.001-.01c-.014-3.531-.231-7.044-.313-10.558zM290.313 66.972c.05-.018.666-.083.899-.101h.067c.05 0 .101-.016.117.05.067.483.3 1.565 1 1.565a1.516 1.516 0 0 0 1.433-1.282c0-3.164-4.301-3.613-4.301-6.527a3.066 3.066 0 0 1 3-3.1c.137.012.271.04.4.083a2.1 2.1 0 0 1 1.748 1.366 1.5 1.5 0 0 1 .166.6l-1.116 1.232a.331.331 0 0 1-.083.017c-.449 0-.666-1.532-1.648-1.532-.449 0-.648.316-.648.767 0 2.313 4.078 2.863 4.346 6.493a3.472 3.472 0 0 1-3.33 3.73 2.467 2.467 0 0 1-2.514-1.848l-.034-.083a2.733 2.733 0 0 1-.233-.949c0-.331.449-.447.731-.481zM302.766 68.521c.483.004.872.4.868.884l-.002.048c0 .583-.316 1.348-1.032 1.348a.829.829 0 0 1-.899-.9c0-.664.315-1.38 1.065-1.38zm-.533-10.573c.023-.093.04-.188.05-.283.117-.333 1.383-.216 1.981-.25.046.01.091.026.133.05 0 .033.017.184.017.217 0 1.382-.433 2.747-1.065 10.224-.101.017-.533.05-.683.05-.25 0-.717 0-.717-.315.002-3.25.15-6.464.284-9.693zM200.902 37.413c2.646 0 3.215 3.23 3.1 6.843-.082 2.414-.35 6.728-3.6 6.728a3.791 3.791 0 0 1-3.347-3.164 18.294 18.294 0 0 1-.101-5.146 6.898 6.898 0 0 1 2.148-4.745 2.651 2.651 0 0 1 1.8-.516zm-1.049 11.389c.9.467 1.582-.333 1.814-1.082.276-1.385.443-2.789.5-4.199v-.301c0-7.192-3.33-4.312-3.33 1.415v.601c.001 1.618.018 3.05 1.016 3.566z"/>
    <path d="M269.27 16.514v14.519a.477.477 0 0 0 .399.525.475.475 0 0 0 .4-.525V16.514c0-.477-.445-.706-.693-.359a.614.614 0 0 0-.106.359zM270.595 16.514v14.519a.476.476 0 0 0 .4.525.476.476 0 0 0 .399-.525V16.514c0-.477-.444-.706-.694-.359a.636.636 0 0 0-.105.359z"/>
    <path fill="#FF0079" d="M281.596 61.087c.956 3.438.61 7.294-2.162 9.684-.763-2.19-1.613-4.351-2.245-6.594-.083-.311-.174-.634-.264-.955a48.286 48.286 0 0 1 3.601-1.589c1.931-1.236-1.06-.318-3.835.767a46.393 46.393 0 0 0-1.219-3.691c-.613-1.184-1.148 1.481-1.667 2.52-.361.981-.724 2.03-1.074 3.084a33.533 33.533 0 0 0-3.681 2.43 7.235 7.235 0 0 1-.049-.858c-.008-5.636 3.849-7.915 8.031-9.34.711-.266.913-.479-.068-.353-4.7.58-8.75 3.2-9.278 8.361l-.013.107a9.967 9.967 0 0 0 .134 3.087 11.996 11.996 0 0 0-3.144 3.8 15.745 15.745 0 0 0 3.448-2.694c1.575 4.509 6.625 6.553 11.241 3.692.229.522.486 1.031.771 1.525.994 1.476.142-.788-.016-1.253-.064-.214-.141-.423-.21-.637.071-.051.144-.1.214-.148 3.288-2.38 3.03-7.208 1.778-10.447-.061-.269-.37-1.022-.293-.498zm-6.546-1.008v-.019c.137.929.35 1.845.638 2.738-.601.247-1.151.49-1.601.707.443-1.104.766-2.252.963-3.426zm3.202 11.537c-3.783 2.379-7.879.047-8.969-3.729.065-.047.131-.1.199-.146a36.82 36.82 0 0 1 2.756-1.912 82.67 82.67 0 0 0-.6 1.956c-.342 1.224-.439 1.91-.208 1.685.499-.802.922-1.65 1.262-2.532.247-.582.517-1.215.785-1.865a51.594 51.594 0 0 1 2.5-1.378c.19.586.383 1.166.554 1.733.516 1.639 1.168 3.237 1.823 4.771.147.343.3.7.446 1.061a8.186 8.186 0 0 1-.548.356z"/>
    <path d="M290.689 21.125c.53 0 1.01-.335 1.402-.66.325-.269.396-.212.756-.407.293-.158 1.22-1.029 1.433-.787.125.143.615.48.657.595.024.071.15.408.254.408.377 0 1.097.96 1.385 1.226.554.64.976-.133.467-.379-.057-.028-.148-.755-.209-.868-.161-.303-.402-.572-.568-.884-.229-.425-.504-.938-.809-1.309.264-.343 1.021-1.371 1.02-1.325.001-.046 1.44-1.334 1.371-1.728-.078-.439-.959.092-1.212.217-.301-.052-.768.48-1.018.635-.413.253-.834.547-1.209.85.072-.094-.714-1.166-.821-1.348a21.387 21.387 0 0 1-.494-.889c-.115-.144-.313-.074-.397-.222-.133-.239-.881-.837-1.143-.431-.49.756 1.963 4.356 1.606 3.866.032.098-.086.254-.024.399-.248-.216-1.491.849-1.831 1.077-.418.278-1.826 1.964-.616 1.964zM299.551 23.513c.779 0 2.311-1.223 2.48-1.44.168-.066.341-.119.518-.157.152-.084.302-.275.436-.388.254.357.612.68.938.935-.026.277 1.312 1.456 1.687 1.667.194.054.716-.07.424-.38-.007-.146-.144-.309-.176-.467a.866.866 0 0 0-.16-.346c.084-.211-.763-1.482-.876-1.654-.284-.344-.614-.686-.311-.996.23-.235 1.382-1.524 1.642-2.029.094-.115.931-1.044.26-1.044-.124 0-1.977 1.055-2.231 1.242-.099.072-1.086.68-1.086.807.343-.39-.358-.847-.602-1.313-.183-.351-.392-1.174-.876-1.209-.197-.01-.547-.674-.878-.657-1.198-.223.341 2.37.395 2.557.073.251.221.394.421.544.085.084.079.431.108.509.141.321.271.53.389.866-.07-.054-.534-.384-.527-.123.01.394-.832.825-1.15.995-.443.235-2.201 2.081-.825 2.081zM306.835 27.875c-.158-.335-.796.527-.876.698-.222.307-.109.422-.474.596-.386.184-.703.592-1.017.876-.426.269-.816.367-1.22.808-.461.264-.911.583-1.43.791-2.879 1.15-6.007.342-8.802-.513.372-.372-1.119-.875-1.119-.272-.394-.35-.315-.245-.333-.728-.01-.255-.163-.288-.356-.349-.499-.157-.506-.364-.867-.7-.651-.604-1.357-1.389-1.681-2.222-.404-1.044-.631-2.237-1.109-3.238-.287-.468-.269-1.016-.384-1.615-.064-.336-.131-2.1-.466-2.1-.367-.044-.621 1.096-.667 1.344-.16.857-.07 1.751.102 2.599.154.765.387 1.515.673 2.24.221.559.382 1.492.733 1.94.381.791 1.018 1.191 1.492 1.873.378.544.769.972 1.296 1.356 1.51 1.098 3.299 1.839 5.113 2.255 1.723.395 4.068.699 5.619-.368-.094.543.667-.191.723-.29a9.45 9.45 0 0 0 2.675-1.516c.244-.2.581-.52.82-.776.012-.012.25-.566.268-.531.49-.249.494-.675.825-1.027.293-.312.693-.633.462-1.131-.037-.078.072.156 0 0z"/>
</svg>
