<svg xmlns="http://www.w3.org/2000/svg" viewBox="-10.17 -0.28 439.03 390.69"><path fill="#FFF" d="M423.6 230.2c-3.09-11.64-8.64-27.75-17.57-38.28-18.3-21.6-43.33-37.38-74.4-46.88-24.03-7.35-52.3-11.08-84-11.08-4.72 0-24.04 1.17-25.03 1.27-.25-2.03-8.85-68.55-12.11-79.4-1.6-5.3-7.15-16.08-8.76-17.72a37.3 37.3 0 00-9.31-24.96A39.5 39.5 0 00162.73-.28c-5.48 0-28.13 11.04-33.02 18.1-5.65-4.06-12.57-7.09-20.87-7.09-5.96 0-14.62 1.7-23.27 9.38-4.96-4.66-15.68-5.83-16.17-5.8-18.24 1.28-24.97 21.35-27.18 27.95a120 120 0 00-1.06 3.32c-6.68 1.46-29.87 7.3-33.05 8.37-4.46 1.5-14.9 5.02-17.72 16.53l-.57 4.35c-.11 5.3 7.65 42.7 7.86 43.9 1.6 12.08 12.47 39.7 18.52 48.94 11.03 16.84 26.73 17.9 36.11 18.53 2.19.15 19.75 1.96 19.75 1.96-1.96 19.93-3.67 55.19 4.28 84.26-3.22 5.9-23.25 38.8-26.87 45.24-5.03 8.96-10.7 19.04-5.8 29.55l.02.04a60 60 0 004.54 9.95c7.25 12.22 17.15 14.04 22.4 14.04 4.48 0 11.12-1.27 17.36-7.34 9-8.76 18.43-23.94 28.9-41.45 3.14 1.1 12 3.04 13.1 3.24 1.43 3.91 12.14 56.02 22.62 62.1l11.7 2.62 31.55-2.64s-6.62-53.65-7.57-60.68c10.66.68 37.28 1.26 39.53 1.2 3.27-.09 43.76-2.77 58.45-6.84 2.83 2.31 5.54 4.67 7.88 6.85-5.68 2.57-58.31 9.57-58.31 9.57s32.29 37.06 34.55 40.17c7.2 9.95 16 11.44 20.59 11.44.82 0 42.51-14.17 54.59-20.72.54 4.02 1.98 8.48 5.6 12.37 3.84 4.11 23.03 7.66 27.42 7.66 16.93 0 25.16-10.85 27.06-20.14 4.61-22.65 2.94-38.59 1.23-47.9 13.58-16.48 20.93-33.49 21.87-50.67.58-10.74-1.3-25.27-5.16-39.87"/><path fill="#060605" fill-rule="evenodd" d="M408.2 289.8c-2.94 5.35-16.75 20.53-17.46 22.94-1.12 3.81 2.61 9.53 3.1 13.92 1.42 12.68-2.59 26.6-7.8 38-3.82 8.34-8.55 19.37-19.8 16.82-15.25-3.46-2.37-31.87-4.06-42.27l-23.26 13.26c-27.19 8.28-64.93 32.87-90.76 9.64-5.57-5-8.08-8.11-2.99-15.02 3.92-5.33 9.93-5 16.11-5.48 15-1.2 27.36 2.5 41.27-6.95 2.9-1.96 11.49-9.52 10.01-12.86-6.77-7.26-12.09-17-19.66-22.93-39.16 10.8-80.39 9.52-120.53 6.55 2.68 16.73 4.33 33.67 6.72 50.49 2.11 14.86 11.65 30.5-9.74 33.14-18.44 2.28-14.75-21.96-16.75-33.93-2.8-16.8-7.76-32.88-12.84-49.07-10-2.77-19.5-3.52-27.33-11.12-1.62-.42-2.9 1.93-3.78 2.93-11.25 13.02-30.6 52.44-44.28 58.2-6.6 2.78-20.08 1.02-19.72-7.59.25-6.09 16.75-27.6 21-34.72a391 391 0 0011.3-20.33c5.65-10.95 15.27-27.99 14.68-39.79s-3.69-24.7-4.34-37.07c-.84-16.14.7-32.52-1.58-48.56-.99-1.42-15.96-1.45-18.67-1.07-4.43.61-8.64 5.8-13.9 4.24-3.13-.92-3.09-5.1-4.32-6.1-2.69-2.19-14.86-2.95-20.46-8.44-6.56-6.42-14.15-29.3-16.9-38.7C7.77 105.33 1.84 84.01.3 71.38c-1.15-9.49.8-11.07 8.97-14.46 14.64-6.07 33.18-7.1 48.38-12.16 1.26-8.76 4-25.25 15.91-23.75 10.32 1.3 3.12 16.4 14.76 15.2 3.54-11.94 14.2-22.4 27.34-18.5-3.37-22.56 21.18-22.23 29.49-6.56 21-13.97 46.54-5.02 40.8 22.94 1.7 2.2 8.12-.9 12.06 8.7 6.71 31.57 10.42 63.87 14.74 95.9l33.22-3.33c34.38-1.72 67.18 5.08 99.34 16.37 23.56 8.27 60.06 36.07 66.53 61.05 7.33 28.28 11.07 50.22-3.64 77.02m-40.29 58.97c.75.73 15.54 5.43 16.71 3.57.38-.6 1.52-9.7 1.63-11.45.45-6.73-.15-13.57-1.14-20.2-1.89-.49-2.18.78-3.27 1.62-1.78 1.37-13.19 10.7-13.6 11.47-1.38 2.61-2.42 12.95-.33 15M64.48 326.81c-.45 1.46.77 1.8 1.77 2.37 3.48 2.01 7.61 3.78 11.2 5.67h.01l28.23-44.32-10.22-16.7zM72 28.61c-3.54.45-7.43 13.3-6.53 14.16h.01c2.14.16 8-.68 8.63-2.86zm25.11 7.61l19.6-3.3c-1.18-13.94-16.85-6.34-19.6 3.3m26.14 4.41l-29.53 4.98c-6.54 19.03 8.93 61.64 27.28 28.37-2.39-.95-5.1-7.88-5.52-8.15-1.3-.83-17.97 1.46-15.69-3.45 1.08-.89 3.23-3 4.4-3.26h.01c5.4-1.16 14.33.85 20.18 0zm267.9 155.82c-37.54-44.8-101.64-53.1-157.15-51.25-4.28.14-26.89 3.71-28.68.94l-.02-.02c-2.33-14.88-3.6-29.97-5.8-44.88-2.09-14.15-4.2-36.94-8-49.76-4.4-14.75-9.39-3.57-13.17-3.2-8.9.86-1.35-11.8-.78-16.13 1.77-13.53-6.08-24.04-20.1-17.9-8.5 3.71-12.28 14.93-15.05 23.1l-10.33 2.21c1.27 4.71-.03 15.23 1.21 18.85.7 2.01 4.73 2.27 4.2 4.52-7.49 3.13-5.59 5.82-8.2 11.45-3.5 7.55-8.18 15.58-16.66 18.23-22.14 6.91-32.22-29.27-27.5-45.45-8.92 1.25-74.39 14.4-75.3 18.17-.13 5.81 1.4 26.57 10.14 25.28 3.17-.47 13.6-11.88 15.92-3.44.96 3.47-9.95 16.91-12.98 18.31-3.19 1.48-5.79-2.12-5.4 1.04 1 8.45 10.71 33.93 15.45 41.24 7.22 11.14 16.6 8.65 28.45 10.38l18.81-14.68 2.45.93c4.81 5.01-8 13.5-6.27 15l55.5-3.12.13 7.5-38.19 3.25 1.11 22.9 3.26-1.1c.71 4.28 2.06 7.55-3.28 8.2 4.81 33.3-6.55 87.61 35.23 101.03 2.13.7 3.96 1.18 6.24.84l-4.38-9.25c-.5-2.12 1.26-2.1 2.62-1.52 1 .42 6.13 6.84 7.04 8.23 5.31 8.13 9.47 21.2 11.86 30.66 1.61 6.36 5.28 34.71 9.27 37.05l10.64-.9c-2.32-17.69-3.82-35.96-6.79-53.6-.82-4.86-1.92-11.84-3.26-16.37-.8-2.74-3.42-4.25-3-7.36l6.61-.63 4.45 13.57c18.56 1.11 37.4 2.85 56.1 2.38 3.1-.08 5.7-1.04 8.62-1.2 18.1-.92 37.17-.97 54.02-8.11-7.45-14.93-12.2-36.68-10.92-53.45.6-7.88 6.12-32.03 13.85-35.21 1.25-.52 2.92-.88 2.45 1.34-1.27 5.92-4.5 12.76-5.9 19.18-6.67 30.5-3.13 58.08 18.53 81.78 5.67 6.2 20.27 13.66 11.4 23.3-8.01 8.73-28.48 16.86-40.28 18.1 3.35 3.46 7.16 16.73 12.27 16.16 2.02-.22 9.18-2.8 11.71-3.66 38.54-13.15 103.44-52.75 105.89-98.02.93-17.44-7.02-51.76-18.04-64.9m-96.55-35.43c.96-1.06 2.55-2.36 3.98-2.49 2.24-.2 4.39 2.07 5.8 3.58-2.8 3.1-7.63 2.08-9.78-1.09m-5.46-4.27c-4.5 1.36-7.8-1.99-12.02-2.83 2.1-9.5 22.87-.45 12.02 2.83m-12.03 11.9c-.96 4.32-12.26-2.5-7.05-3.8 2.01-.5 7.61 1.25 7.05 3.8m-9.8-12.53c1.92-.68 8.73.43 8.7 2.72-.06 2.97-9.5 1.56-8.7-2.72m-7.65 13.08c3.4-.42 7.56.12 7.63 4.35-3.4.42-7.56-.12-7.63-4.35m-9.82-10.9c2.13-.36 14-.49 13.07 3.77-1.06 4.86-14.7 2.44-13.07-3.77m2.2-7.65c-2.76-3 10.96-5.7 10.9.55-3.2 3.86-7.32.27-10.9-.55m-10.92 4.91c-.67-3.25 6.03-2.26 6.53-1.6 1.74 2.26-4.76 5.34-6.53 1.6m-4.36-4.89l-.17 4.18c-10.06 4.2-11.84-6.65.17-4.18m-2.49 13.31c3.36-.75 5.84-.43 7.91 2.5-2.94 4.22-8.69 3.46-11.96 0a7.4 7.4 0 014.05-2.5m13.38 12.84c-2.9.17-6.79.56-6.53-3.26 2.91-.17 6.8-.56 6.53 3.26m-2.17-8.7l7.63 1.1c2.97 3.06-8.97 3.14-7.63-1.1m16.36 13.6c-.83 3.98-9.39.28-8.72-3.8 1.97-.6 9.37.68 8.72 3.8m19.57-4.83v.01l-.43 3.24c-2.17 3-11.43-1-10.4-5.49zm-3.2-13.14c2.92.14 8.42-.69 10.63 1.34.54.5.67 1.83 1.28 2.48-2.39 5.76-14.18-1.82-11.91-3.82M177.34 51.46l-.59 3.3c-11.53-1.03-8.3-11.04.6-3.3m-26.29-22.9c9.61-17.57 25.28-6.68 17.8 10.7-10.26 2.45-26.02 4.32-17.8-10.7m-8.02 127.64l3.17-.09c1.94 8.52-6.38 6.81-3.17.1m20.57 104.62c2.55 3.52-5.66 6.36-7.57 1.54-1.15-2.9 6.6-2.88 7.57-1.54m3.32 9.75l-1.79 4.2c-8.03 2.55-8.13-8.75 1.8-4.2m1.1 7.63c2.14 3.05-4.76 6.94-7.49 4.2v-4.06c.85-1.34 6.86-1.03 7.5-.14m-28.37-115.55l-3.33-.48-1.08-6.42 2.78-1.79c2.74 2.06 1.41 5.76 1.63 8.7m-57.8-25.06c1.44-1.66 7.85 6.34 6.53 7.62-4.4.33-7.19-3.58-6.53-7.62m-24.52-18.54c-4.24-1.17-.45-9.39 3.68-6.43 2.27 1.62.24 7.52-3.68 6.43m-10.4 11.45l-5.45 1.64c-1.29-6 5.17-8.12 5.44-1.64m-7.63-21.24h4.35v4.35H39.3zm72.56 85c-2.49-.5-2.73-8.4 1.61-7.62.06 2.94 2.97 6.91-1.6 7.62m-3.85-15.25l1.1 3.76c-4.48 5.02-6.02-4.19-1.1-3.76m-2.72 16.33c-5.03 1.6-4.74-8.22-2.16-8.7 3.56-.67 5.54 7.64 2.16 8.7m-6.52-14.15c2.85-.63 2.53 3.62 1.61 4.35-1.98 1.56-4.98-3.6-1.6-4.35m3.24 26.15c-3.2.64-2.9-5.64-2.7-7.62 3.61-.73 5.91 6.98 2.7 7.62m4.92 8.71h-1.6c-4.69-1.83 1.84-10.5 1.6 0m3.26-10.89c-2.78-.84-2.19-4.14-2.16-6.54 2.78.84 2.2 4.14 2.16 6.54" clip-rule="evenodd"/></svg>