<?xml version="1.0" encoding="utf-8"?>
<!-- Generator: Adobe Illustrator 16.0.0, SVG Export Plug-In . SVG Version: 6.00 Build 0)  -->
<!DOCTYPE svg PUBLIC "-//W3C//DTD SVG 1.1//EN" "http://www.w3.org/Graphics/SVG/1.1/DTD/svg11.dtd">
<svg version="1.1" id="Calque_1" xmlns="http://www.w3.org/2000/svg" xmlns:xlink="http://www.w3.org/1999/xlink" x="0px" y="0px"
	 width="78.703px" height="135.019px" viewBox="0.38 0.716 78.703 135.019" enable-background="new 0.38 0.716 78.703 135.019"
	 xml:space="preserve">
<g>
	<g>
		<path d="M74.393,135.734c0,0-2-25.074-2-64.573c0-39.5,2-66.031,2-66.031V135.734z"/>
	</g>
	<path fill="#FFFFFF" d="M77.164,38.416l1.086,1.901l-1.709,4.777l-1.676,6.646l-2.051,3.527v27.176l0.24,0.431l-0.322,1.483
		l2.625,4.597l-1.269,1.175l2.318,4.282l-1.099,1.071l-4.543,7.382l0.277,4.325c0,0-10,23.334-13.904,21.502
		c-3.906-1.832-3.158-24.137,0-37.203l-3.158-7.344c0,0-11.766,7.676-20.3,5.929l-3.38,3.594c0,0-25.344-13.415-27.838-25.983
		l10.802-36.541c0,0-4.487-14.399,2.41-18.395s12.962,3.246,12.962,3.246l14.708-2.664c0,0,1.079-12.649,9.721-11.734
		c8.643,0.916,12.715,8.407,10.056,13.567s-4.653,7.396-4.653,7.396l9.381,10.104L77.164,38.416L77.164,38.416z"/>
	<path d="M42.637,12.712c-4.438,0.118-8.742,1.543-13.074,2.404c-0.271-0.028-1.383-1.422-1.763-1.769
		c-3.268-2.978-7.92-4.132-11.902-1.785c-6.27,3.694-6.005,13.369-3.579,19.339l-1.931,6.01c-5.77-3.417-10.715,0.062-9.925,6.632
		c0.44,3.654,2.534,6.166,4.637,8.998c-0.909,4.113-2.342,8.112-3.359,12.189c-0.219,0.882-0.765,2.67-0.649,3.5
		c0.091,0.654,0.609,0.787,0.864,1.228c0.637,1.101,1.086,2.343,1.792,3.498C7.74,79.5,14.843,85.119,21.088,89.449
		c2.004,1.391,6.755,4.734,8.991,5.119c1.318,0.229,1.492-0.454,2.025-0.438c0.447,0.015,1.996,0.556,2.458,0.769
		c4.254,1.971,3.638,5.983,9.685,4.766c6.437-1.297,8.165-6.717,10.104-12.021c0.062-0.17,0.072-0.384,0.312-0.406l1.235,3.091
		c-1.519,10.116-4.019,21.374-3.157,31.604c0.293,3.476,1.512,10.207,6.521,7.48c4.084-2.223,8.772-11.719,10.779-15.995
		c0.645-1.374,2.615-5.3,2.75-6.549c0.105-0.972-0.216-2.576,0.121-3.405c0.268-0.656,3.033-2.729,3.729-3.646
		c0.592-0.78,1.139-1.988,0.887-2.969c-1.174-4.568-8.025,0.313-9.614,2.422c-1.448,1.922-0.933,4.522,0.726,6.14
		c0.494,0.481,1.729,0.846,1.52,1.541c-2.004,4.222-3.816,8.559-6.162,12.606c-1.102,1.901-4.309,7.15-6.333,7.784
		c-0.892,0.28-1.162-0.432-1.472-1.165c-1.863-4.404-0.652-15.867-0.063-20.891c0.434-3.68,1.135-7.324,1.587-10.999
		c1.076,0.905,1.742,4.006,2.728,4.726c1.182,0.859,2.412-0.355,1.798-1.636c-2.384-4.048-4.114-8.589-6.419-12.657
		c-0.135-0.238-0.313-0.416-0.504-0.607c3.695-4.523,6.59-9.75,8.158-15.397c0.289-1.041,1.354-4.864,0.828-5.609
		c-0.462-0.65-1.385-0.396-1.757,0.193c-0.504,0.798-1.12,4.019-1.512,5.222c-1.313,4.039-3.263,8.039-5.888,11.346l-0.803-4.646
		l1.494,0.301c1.237-1.15-1.102-1.681-2.041-1.569c-0.998,0.116-2.406,1.336-2.502,2.327c-0.053,0.554,0.273,1.005,0.85,0.845
		c0.476-0.134,0.402-0.789,0.754-0.938c0.524,1.864,0.215,3.946-0.406,5.762c-1.188,3.473-6.335,5.91-9.729,6.627
		c-3.359,0.709-6.677,0.389-10.085,0.342c-1.159,0.572-1.336,1.941-1.85,2.984c-2.71-0.304-4.831-2.258-7.11-3.561
		c0.77-1.464-0.921-3.173-1.458-1.261c-0.197,0.186-3.713-2.486-4.153-2.821c-4.835-3.683-11.126-9.398-13.79-14.908
		c-0.933-1.933-0.662-2.149-0.171-4.134c1.672-6.735,3.76-13.997,6.081-20.53c0.328-0.925,1.198-3.847,1.6-4.45
		c0.187-0.28,1.809-1.353,2.192-1.537c2.437-1.161,5.271-1.205,7.906-1.45c0.552,5.26,2.962,10.451,6.988,13.935
		c4.44,3.842,11.307,5.336,15.392,0.143c6.994-8.9-2.226-27.005-13.627-26.277c-5.432,0.347-8.267,5.116-8.758,10.081
		c-2.996-0.066-6.028,0.074-8.798,1.305l1.616-5.85c-1.388-4.064-2.132-7.642-1.058-11.941c1.714-6.854,8.92-7.576,13.395-2.803
		c-0.967,0.491-3.929,1.061-4.607,1.727c-0.614,0.602-0.34,1.869,0.522,2.035c0.862,0.166,3.377-1.001,4.444-1.32
		c1.162-0.349,2.344-0.669,3.521-0.971c2.714-0.693,8.228-2.244,10.795-2.36c1.853-0.084,1.36,0.295,1.979,1.557
		c0.367,0.747,0.802,2.031,1.832,1.946c2.242-0.183,0.158-3.32-0.121-4.456c-1.793-7.288,4.48-13.481,11.475-9.701
		c5.907,3.194,7.537,12.133,1.588,16.177c-1.676,1.14-2.613,0.817-1.333,3.281s5.306,6.913,7.358,9.154
		c0.51,0.556,2.717,2.491,2.896,2.888s-0.318,1.004-0.392,1.53c-0.354,2.568,3.368,5.646,5.437,6.721
		c0.829,0.431,3.191,1.332,4.053,1.17c2.131-0.4,2.617-3.072,1.709-4.766c-2.444,0.547-4.681-0.597-6.611-1.966
		c-1.066-0.756-2.73-2.134-3.238-3.337c-0.3-0.71-0.256-1.82-0.551-2.333c-0.637-1.102-3.322-3.587-4.338-4.803
		c-1.396-1.673-2.926-3.535-4.014-5.362c0.455-0.157,0.992-0.5,1.358-0.807c6.295-5.282,4.402-15.485-2.335-19.457
		C50.398-2.395,41.928,3.72,42.637,12.708V12.712z M31.92,27.505c9.861,0.822,17.193,18.996,8.739,23.862
		c-6.738,3.878-13.963-4.884-15.59-10.769C23.599,35.282,24.723,26.905,31.92,27.505z M6.058,49.573
		C2.895,46.858,0.294,37.35,7.102,38.037c0.597,0.061,2.469,0.647,2.458,1.33l-3.5,10.208L6.058,49.573z"/>
	<path fill="#FFFFFF" d="M42.475,95.33c-0.104-1.885,0.416-3.756,1.355-5.293c-3.993,0.141-6.343,9.117-0.445,8.129
		c3.424-0.574,5.604-4.277,5.961-7.426c0.387-3.407-0.676-3.689-3.123-1.877c-1.524,1.13-2.147,3.447-2.498,5.215
		c-0.121,0.607-0.129,1.525-1.033,1.402L42.475,95.33z"/>
	<path d="M23.355,76.217c-1.887-0.869-4.186-2.311-6.268-2.541c-3.004-0.332-3.989,1.713-1.721,3.657
		c2.293,1.968,6.905,3.136,9.787,2.255l4.708,6.447c1.278,0.74,2.222-0.67,1.5-1.834l-4.654-6.654
		c1.285-1.752,2.096-7.59-0.183-8.604c-1.146-0.508-2.378-0.143-3.038,0.93c-1.134,1.841-0.476,4.352-0.129,6.346L23.355,76.217z"/>
	<path d="M54.955,8.28c-3.686-0.523-6.018,2.719-6.721,5.831c-0.123,0.543-0.435,2.189-0.375,2.65
		c0.31,2.461,7.142,3.724,9.024,2.888c1.591-0.704,2.703-4.442,2.623-6.062C59.383,11.098,57.588,8.653,54.955,8.28z"/>
	<path d="M72.607,27.416c-3.244,0.231-4.896,3.284-4.19,6.707c0.496,2.413,5.905,5.876,8.342,5.809
		c2.089-0.059,2.782-2.147,2.029-3.895c-0.606-1.409-6.235-4.905-6.235-5.373l0.057-3.246v-0.002H72.607z"/>
	<path d="M74.948,89.607c-1.087-0.219-3.459,0.797-4.446,1.367c-1.158,0.668-3.521,2.576-4.322,3.619
		c-1.715,2.231-1.646,5.276,0.053,7.499c0.537-0.829,0.328-1.825,0.843-2.805c1.262-2.404,6.438-5.877,9.329-4.986l0.175-0.122
		C77.457,92.537,76.991,90.023,74.948,89.607z"/>
	<path d="M65.785,93.715c0.281,0.264,1.074-1.047,1.258-1.223c2.186-2.098,4.992-3.596,8.059-3.506
		c0.859-1.318,1.168-5.646-1.004-5.666c-1.195-0.012-5.256,2.451-6.258,3.33C65.512,88.691,64.771,90.623,65.785,93.715
		L65.785,93.715z"/>
	<path d="M67.539,41.183c-1.45,3.397,0.22,5.749,3.122,7.588c0.974,0.617,4.456,2.451,5.476,2.424
		c2.293-0.063,1.91-4.282,0.904-5.557C73.303,45.976,69.91,43.756,67.539,41.183z"/>
	<path d="M27.083,59.156c-0.982-0.163-3.414,0.319-4.491,0.523c-4.832,0.92-11.699,3.251-16.152,5.388
		c-0.523,0.25-2.03,0.788-1.886,1.496c0.181,0.571,0.58,0.521,1.082,0.437c1.156-0.196,4.345-1.86,5.756-2.391
		c5.142-1.931,10.577-3.709,16.066-4.183l0.363-0.28c0.156-0.679-0.117-0.888-0.736-0.99L27.083,59.156z"/>
	<path d="M50.615,83.963c0.082-0.081,0.146-0.262,0.15-0.377c0.019-0.51-1.568-3.563-1.934-4.222
		c-1.523-2.77-3.466-5.331-5.479-7.749c-0.947-1.139-2.695-3.352-3.722-4.244c-0.506-0.439-1.161-0.493-1.354,0.25
		c-0.028,0.279,0.109,0.484,0.25,0.705c0.884,1.383,2.899,3.191,4.033,4.568c1.946,2.369,3.717,4.828,5.266,7.483
		c0.465,0.799,1.418,3.076,1.869,3.556C49.957,84.211,50.342,84.234,50.615,83.963L50.615,83.963z"/>
	<path d="M64.154,98.34l-2.156,3.715l-4.152,9.635c0.303,0.783,1.108,0.309,1.518-0.157c0.726-0.825,2.031-2.964,2.642-3.972
		c1.037-1.717,1.797-3.61,2.921-5.291L64.154,98.34L64.154,98.34z"/>
	<path d="M74.266,54.806c0.672-0.676,0.799-2.082,0.504-2.963c-1.619-0.668-3.502-1.513-4.927-2.529
		c-0.471-0.336-1.409-1.813-1.587-0.511l2.613,5.742C71.65,55.476,73.389,55.69,74.266,54.806L74.266,54.806z"/>
	<path d="M38.385,20.289c-1.229-0.531-4.897-1.649-5.663-0.041c-0.25,0.528-0.303,1.018,0.229,1.377
		c0.888,0.599,1.407,0.136,2.267,0.182c0.86,0.047,2.137,0.489,2.904,0.887c0.963,0.502,2.608,2.383,3.547,1.658
		c1.683-1.299-2.239-3.615-3.285-4.065L38.385,20.289z"/>
	<path d="M71.313,79.607c-0.875-0.168-1.877,0.172-2.396,0.938c-0.513,1.654-1.459,3.171-2.035,4.779
		c-0.103,0.28-0.528,1.219-0.108,1.331l5.955-3.704c0.313-1.255-0.008-3.076-1.412-3.349L71.313,79.607z"/>
	<path d="M63.693,59.128c-1.346-0.11-1.813,1.48-0.441,2.049c0.822,0.342,3.018,1.028,2.919-0.527
		C66.121,59.847,64.398,59.187,63.693,59.128z"/>
	<path d="M64.508,58.288c-0.689,0-1.248-0.561-1.248-1.251c0-0.691,0.559-1.251,1.248-1.251c0.69,0,1.25,0.56,1.25,1.251
		S65.198,58.288,64.508,58.288z"/>
	<path d="M32.853,77.996c1.884,1.441,2.389-2.51,0.412-2.164C32.3,76,32.218,77.511,32.853,77.996z"/>
	<path d="M40.577,81.992c0.226,0.281,1.728,0.789,1.837,0.268c0.094-0.763-0.08-1.354-0.686-1.705
		C40.695,79.955,39.971,81.236,40.577,81.992z"/>
	<path d="M35.661,71.691c-1.556-0.477-1.581,2.377,0.359,1.998C37.182,73.463,36.386,71.914,35.661,71.691z"/>
	<path d="M22.883,82.105c-0.949-0.312-1.126,1.405-0.411,1.617C23.089,83.902,23.714,82.379,22.883,82.105z"/>
	<path d="M37.613,35.951c-3.904-0.852-3.03,6.125-0.221,7.515c2.192,1.083,3.574-0.585,3.403-2.633
		c-0.118-1.417-1.594-4.535-3.184-4.882H37.613z"/>
</g>
</svg>
