<svg xmlns="http://www.w3.org/2000/svg" xmlns:xlink="http://www.w3.org/1999/xlink" width="318.921" height="273.9" viewBox="0 0 318.921 273.9">
  <defs>
    <filter id="Tracé_14013" x="8.083" y="4.204" width="211.616" height="249.138" filterUnits="userSpaceOnUse">
      <feOffset dx="1.138" dy="1.138" input="SourceAlpha"/>
      <feGaussianBlur result="blur"/>
      <feFlood/>
      <feComposite operator="in" in2="blur"/>
      <feComposite in="SourceGraphic"/>
    </filter>
    <filter id="Tracé_14050" x="0" y="8.067" width="67.089" height="54.263" filterUnits="userSpaceOnUse">
      <feOffset dx="0.342" dy="0.342" input="SourceAlpha"/>
      <feGaussianBlur result="blur-2"/>
      <feFlood flood-opacity="0.4"/>
      <feComposite operator="in" in2="blur-2"/>
      <feComposite in="SourceGraphic"/>
    </filter>
    <filter id="Tracé_14051" x="138.61" y="219.637" width="67.089" height="54.264" filterUnits="userSpaceOnUse">
      <feOffset dx="0.342" dy="0.342" input="SourceAlpha"/>
      <feGaussianBlur result="blur-3"/>
      <feFlood flood-opacity="0.4"/>
      <feComposite operator="in" in2="blur-3"/>
      <feComposite in="SourceGraphic"/>
    </filter>
  </defs>
  <g id="illu-capy-rat" transform="translate(-1138.39 -504.207)">
    <g id="Illustration_32" data-name="Illustration 32" transform="matrix(0.998, 0.07, -0.07, 0.998, 1241.254, 642.367)">
      <g id="Groupe_2077" data-name="Groupe 2077" transform="translate(-108.236 -128.161)">
        <g transform="matrix(1, -0.07, 0.07, 1, -4.02, -2.49)" filter="url(#Tracé_14013)">
          <path id="Tracé_14013-2" data-name="Tracé 14013" d="M0,35.84l18.773,75.093,33.976.22V183.44l-2.493,38.872L83.841,235l84.411-2.409,26.307-41.446L182.612,128,143.042,76.944,130.275,7.964,83.626,0l-18.2,13.653Z" transform="matrix(1, 0.07, -0.07, 1, 24.48, 4.2)" fill="#fff"/>
        </g>
        <path id="Tracé_14014" data-name="Tracé 14014" d="M0,31.351l32.623-9.464s1.27-10.305,1.926-11.343,4.986-2.416,4.986-2.416l4.345,9.416,3.872,1.066,9.51-13.179,5.9-1.091,10.161,7.148L85.543,0H96.672L101.6,8.652v7.6l5.568,2.354,9.59,59.43,33.98,40.48s11.139,19.373,10.4,39.006-7.158,31.025-15.466,38.307-3.689,6.639-3.689,6.639l-40.813,6-27.783-6.35,2.938-17.152-3.8-.03-5.22,15.9-8.513-2.864-2.811,8.647-4.134-1.045-3.148-6.96,3-34.91L49.341,110.98,47.752,86.8,17.858,84.328l-9.209-14Z" transform="translate(36.4 13.843)" fill="#fff"/>
        <path id="Tracé_14015" data-name="Tracé 14015" d="M82.559,6.346C94.488-1.593,109.04,3.471,105.77,19.4c6.216.751,6.926,4.572,8.118,9.892,3.81,17,4.643,35.917,7.622,53.173,4.236,5.361,10.034,9.856,14.722,15.024,22.288,24.575,41.462,64.966,21.419,96.435-1.666,2.615-9.371,10.116-9.612,10.8-.368,1.042.939,2.208-.292,4.107-2.257,3.484-16.464,4.7-20.839,5.221-9.442,1.132-21.051,2.586-30.41,3.1-6.866.378-16.953.894-18.65-7.4-1.428-6.983,3.731-7.47,8.591-9.47.779-.32,1.95-1.15.132-1.112-2.861,1.056-7.326,1.863-8.918,4.734-.575,1.038-.7,3.688-1.652,3.949l-3.387-1.233c-.491,7.392-4.3,10.518-11.694,8.266-6.769-2.061-3.436-9.829-2.752-14.328,1.105-7.27,2.823-15.556,3.266-22.778.543-8.871-.834-18.618-.4-27.194.142-2.764,3.1-2.325,3.854.811.886,3.66,1.48,11.927,1.536,15.823.16,11-2.021,22.364-3.494,33.216.7,1.02,6.026,2.141,6.455.172l8.557-47.348,2.644,1.055c.39,10.409-1.559,20.775-3.556,30.946.213,5.109,12.817,10.711,17.176,11.877,4.331,1.159,7.473-1,11.91-.445.293-1.193-.438-1.194-1.042-1.742-5.813-5.283-10.291-9.534-13.34-17.052-12.778-31.5,15.516-57.548,46.66-47.855,4.153,1.293,11.356,4.6,11.164,9.61-4.965-1.263-9-4.276-14.144-5.393-32.675-7.094-53.79,22.516-34.514,49.981,1.409,2.006,8.672,10.233,10.508,10.581,1.786.338,3.971-.275,5.811.073,2.5,5.207-10.751,4.256-11.719,5.528a13.481,13.481,0,0,1,3.726,10.531c5.5-2.285,28.87-1.69,32.271-4.646.721-.627.783-2.714,1.571-4.011,2.58-4.251,8.364-7.45,11.564-13.247,20.272-36.725-11.223-79.892-37.39-104.215l-8.32-55.548c-2.5-8.391-5.337-2.029-7.486-1.821-4.6.444-1.642-4.448-1.208-6.227,1.079-4.425,1.94-11.121-3.272-13.473C88.658,4.017,82.528,14.49,81,21.244L75.122,22.5c.722,2.677-.017,8.665.691,10.726.393,1.142,2.69,1.29,2.381,2.571-4.255,1.779-3.175,3.309-4.659,6.511C62.09,67,43.779,44.832,48.4,26.817,43.336,27.53,6.09,35.008,5.566,37.152c-.068,3.3.8,15.114,5.772,14.383,1.8-.265,7.735-6.757,9.059-1.955C20.942,51.552,14.739,59.2,13.016,60c-1.816.84-3.294-1.208-3.079.591.574,4.809,6.1,19.3,8.794,23.463,4.107,6.34,9.439,4.921,16.187,5.907l10.7-8.351,1.4.531c2.738,2.851-4.552,7.677-3.566,8.531,5.035-.1,10.175-.242,15.2-.623,4.6-.349,9.856-1.595,14.406-1.635.611-.006,1.911.13,2.074.811L75.1,93.155,53.37,95.01,54,108.033l1.853-.622c.405,2.438,1.171,4.295-1.869,4.661,1.256,4.733.42,9.937.637,14.865.471,10.708,2.11,21.53,2.5,32.221a169.192,169.192,0,0,1-2.982,36.125c-.294,1.886,3.218,1.907,3.417,2.921-1.2,4.458-2.113,8.7-1.707,13.367-11.276-1.477-5.1-14.531-4.35-22.018,1.81-18.085-.433-35.908-1.257-53.9-.6-13.2-.432-26.433-1.3-39.618-.207-.8-.757-.887-1.463-1.018a57.1,57.1,0,0,0-9.34-.029c-2.432.338-4.48,2.917-7.386,2.526-2.376-.32-2.153-2.911-2.978-3.583-1.171-.952-8.137-1.892-10.994-4.207-4.061-3.292-8.7-17.27-10.262-22.608C4.462,60.106.752,46.973.063,40.075-.644,33,4.732,32.332,10.417,30.71c7.223-2.061,15.126-3.044,22.366-5.248C33.5,20.476,35.06,11.1,41.833,11.95c5.87.738,1.776,9.325,8.394,8.649,2.014-6.793,8.079-12.744,15.554-10.528C63.864-2.756,77.829-2.571,82.559,6.346ZM66.383,18.729c-.668-7.931-9.586-3.606-11.149,1.878ZM37.24,24.33c1.217.093,4.552-.389,4.911-1.625l-1.2-6.43C38.937,16.529,36.725,23.841,37.24,24.33Zm22.028,9.3c3.065-.662,8.151.485,11.481,0L70.1,23.115l-16.8,2.835c-3.722,10.826,5.081,35.065,15.521,16.14-1.362-.54-2.9-4.486-3.14-4.638-.737-.47-10.223.828-8.923-1.963A10.1,10.1,0,0,1,59.268,33.634Zm18.3,160.575a1.558,1.558,0,0,0-1.855-1.853l0,2.477Z" transform="translate(33.785 8.112)"/>
        <path id="Tracé_14016" data-name="Tracé 14016" d="M11.429,11.165C5.592,12.567-3.373,13.626,1.3,5.08,6.771-4.91,15.683,1.284,11.429,11.165Z" transform="translate(118.404 19.273)"/>
        <path id="Tracé_14017" data-name="Tracé 14017" d="M.01.166c1.216-1.236,7.576,4.748,4.035,6.8A7.083,7.083,0,0,1,.01.166Z" transform="translate(172.174 121.562)"/>
        <path id="Tracé_14018" data-name="Tracé 14018" d="M1.875,8.007.066,8.051C.2,5.33-.707,2.052,1.614,0,3.118-.045,2.665,6.829,1.875,8.007Z" transform="translate(184.53 177.537)"/>
        <path id="Tracé_14019" data-name="Tracé 14019" d="M4.338,5.582C1.051,6.266-.028,2.638,0,.008,2.823-.183,4.631,3,4.338,5.582Z" transform="translate(159.771 113.66)"/>
        <path id="Tracé_14020" data-name="Tracé 14020" d="M2.556.452A19.1,19.1,0,0,1,3.9,5.674C3.671,7.261,2.023,7.006,1.967,7.587c-.127,1.339,2.014,4.825-.287,6.445C-.163,12.795-.355,10.392.455,8.479c.235-.556,1.315-1,1.447-1.653C1.986,6.413-1.283-2.017,2.556.452Z" transform="translate(180.121 162.24)"/>
        <path id="Tracé_14021" data-name="Tracé 14021" d="M3.782,5.564C.514,6.365-1.222,2.208.993,0,2.73,1.48,4.117,3.111,3.782,5.564Z" transform="translate(160.327 126.697)"/>
        <path id="Tracé_14022" data-name="Tracé 14022" d="M.107.072c1.92-.739,6.029,4.455,3.4,4.959C1.578,5.4-.5,1.911.107.072Z" transform="translate(150.977 108.016)"/>
        <path id="Tracé_14023" data-name="Tracé 14023" d="M1.036.022C3.063-.359,4.189,4.365,2.262,4.973-.6,5.875-.435.3,1.036.022Z" transform="translate(91.406 114.266)"/>
        <path id="Tracé_14024" data-name="Tracé 14024" d="M3.142,5.587C-.092,5.978-.1,2.323.045.013,2.151-.289,3.914,4.773,3.142,5.587Z" transform="translate(167.794 126.055)"/>
        <path id="Tracé_14025" data-name="Tracé 14025" d="M4.342,3.7C2.2,3.965-.094,3.572,0,.926,1.68-1.964,5.339,2.748,4.342,3.7Z" transform="translate(113.222 155.841)"/>
        <path id="Tracé_14026" data-name="Tracé 14026" d="M3.748,5.063C.965,5.4-.21,2.343.03.109.76-.724,4.885,3.441,3.748,5.063Z" transform="translate(164.706 110.459)"/>
        <path id="Tracé_14027" data-name="Tracé 14027" d="M4.228,3.535C-2.33,2.948-.5-2.746,4.566,1.659Z" transform="translate(130.095 35.73)"/>
        <path id="Tracé_14028" data-name="Tracé 14028" d="M3.667,4.409C1.992,4.921-1.687.74.888.073,3.172-.519,4.12,2.651,3.667,4.409Z" transform="translate(115.759 152.033)"/>
        <path id="Tracé_14029" data-name="Tracé 14029" d="M.73,6.2C.294,4.305-.948,1.167,1.336,0,1.607,2.024,4.339,5.825.73,6.2Z" transform="translate(175.802 162.646)"/>
        <path id="Tracé_14030" data-name="Tracé 14030" d="M2.508,4.944.613,4.672,0,1.019,1.581,0C3.139,1.171,2.382,3.276,2.508,4.944Z" transform="translate(110.713 95.699)"/>
        <path id="Tracé_14031" data-name="Tracé 14031" d="M3.862,3.7C2.76,5.274-2.127,2.452,1.067,0,2.134.466,4.8,2.362,3.862,3.7Z" transform="translate(155.284 102.52)"/>
        <path id="Tracé_14032" data-name="Tracé 14032" d="M.845,0C1.868-.03,4.677,3.16,2.7,4.321,0,4.9-.785.049.845,0Z" transform="translate(174.745 131.04)"/>
        <path id="Tracé_14033" data-name="Tracé 14033" d="M3.772,4.462A3.571,3.571,0,0,1,.054.128C.876-.815,4.519,3.735,3.772,4.462Z" transform="translate(80.281 86.26)"/>
        <path id="Tracé_14034" data-name="Tracé 14034" d="M3.224,4.381C1.5,4.906-.534.7.128.047,2.779-.391,3.356,2.324,3.224,4.381Z" transform="translate(166.47 119.201)"/>
        <path id="Tracé_14035" data-name="Tracé 14035" d="M1.542.268c.739.7,1.344,5.521-1.228,4.955C-.271,4.577-.134-1.31,1.542.268Z" transform="translate(186.765 166.1)"/>
        <path id="Tracé_14036" data-name="Tracé 14036" d="M2.476,4.337.563,3.974,0,0C2.4.038,2.72,2.407,2.476,4.337Z" transform="translate(153.566 121.108)"/>
        <path id="Tracé_14037" data-name="Tracé 14037" d="M.071.027C2.132-.386,3.441,4,1.61,4.361-.265,4.734-.038,1.151.071.027Z" transform="translate(90.194 121.701)"/>
        <path id="Tracé_14038" data-name="Tracé 14038" d="M1.931.031c.033,1.675,1.688,3.93-.917,4.336C-.4,4.086-.541-.417,1.931.031Z" transform="translate(96.393 114.254)"/>
        <path id="Tracé_14039" data-name="Tracé 14039" d="M3.705,3.079C1.569,3.418.857,2.706,0,.908,1.7-1.263,4.05.861,3.705,3.079Z" transform="translate(118.204 147.163)"/>
        <path id="Tracé_14040" data-name="Tracé 14040" d="M.7.014C2.146-.252,3.851,3.43,1.929,4.338,1.058,3.983-1.105.345.7.014Z" transform="translate(163.736 122.954)"/>
        <path id="Tracé_14041" data-name="Tracé 14041" d="M2.528,3.715C.484,3.753-.207,1.769.052,0,2.1-.038,2.787,1.946,2.528,3.715Z" transform="translate(159.099 121.107)"/>
        <path id="Tracé_14042" data-name="Tracé 14042" d="M2.227,0c1.1,4.845-3.632,3.877-1.8.051Z" transform="translate(114.717 96.922)"/>
        <path id="Tracé_14043" data-name="Tracé 14043" d="M2.307.6C4.808,3.182,1.265,4.239,0,.74.6-.358,1.638-.087,2.307.6Z" transform="translate(158.543 108.271)"/>
        <path id="Tracé_14044" data-name="Tracé 14044" d="M1.733.008l.619,2.137C-.191,5-1.068-.237,1.733.008Z" transform="translate(93.485 109.938)"/>
        <path id="Tracé_14045" data-name="Tracé 14045" d="M2.369,3.707C1.169,2.955-1.28,1.413.824,0Z" transform="translate(154.911 114.917)"/>
        <path id="Tracé_14046" data-name="Tracé 14046" d="M2.555,3.094C1.284,3.7-.383.44.079,0L1,0C2.064.823,2.8,1.653,2.555,3.094Z" transform="translate(151.005 114.908)"/>
        <path id="Tracé_14047" data-name="Tracé 14047" d="M1.882,2.9l-.918,0C-1.7,1.863,2.018-3.073,1.882,2.9Z" transform="translate(92.719 128.12)"/>
        <path id="Tracé_14048" data-name="Tracé 14048" d="M1.783,2.509C.657,3.4-1.053.456.865.036,2.489-.32,2.3,2.095,1.783,2.509Z" transform="translate(89.095 111.153)"/>
        <path id="Tracé_14049" data-name="Tracé 14049" d="M1.27,3.72C-.314,3.24.025,1.363.041,0,1.625.48,1.285,2.357,1.27,3.72Z" transform="translate(95.191 121.105)"/>
        <g transform="matrix(1, -0.07, 0.07, 1, -4.02, -2.49)" filter="url(#Tracé_14050)">
          <path id="Tracé_14050-2" data-name="Tracé 14050" d="M3.822,30.053,1.879,33.309l3.763-.1L3.757,36.571l3.806-.021L5.636,39.832l3.822.006L7.514,43.094l3.763-.1L9.393,46.355l3.806-.021-1.928,3.282L22.418,43.2,52.294,25.99l11.147-6.42-3.822-.006,1.943-3.255-3.763.1,1.884-3.358-3.806.021,1.928-3.282-3.822-.006,1.943-3.255-3.763.1,1.884-3.358-3.806.021L52.17,0,41.023,6.42,11.147,23.627,0,30.047Z" transform="matrix(1, 0.07, -0.07, 1, 3.46, 8.07)" fill="#f1f1f1" opacity="0.8"/>
        </g>
        <g transform="matrix(1, -0.07, 0.07, 1, -4.02, -2.49)" filter="url(#Tracé_14051)">
          <path id="Tracé_14051-2" data-name="Tracé 14051" d="M3.822,30.053,1.879,33.309l3.763-.1L3.757,36.571l3.806-.021L5.636,39.832l3.822.006L7.514,43.094l3.763-.1L9.393,46.355l3.806-.021-1.928,3.282L22.418,43.2,52.294,25.99l11.147-6.42-3.822-.006,1.943-3.255-3.763.1,1.884-3.358-3.806.021,1.928-3.282-3.822-.006,1.943-3.255-3.763.1,1.884-3.358-3.807.021L52.17,0,41.023,6.42,11.147,23.627,0,30.047Z" transform="matrix(1, 0.07, -0.07, 1, 142.07, 219.64)" fill="#f1f1f1" opacity="0.8"/>
        </g>
      </g>
    </g>
    <g id="Illustration_57" data-name="Illustration 57" transform="translate(1384.396 550.237)">
      <g id="Groupe_2080" data-name="Groupe 2080" transform="translate(-70.103 -43.269)">
        <path id="Tracé_14052" data-name="Tracé 14052" d="M16.6,52.729c-1.256-.777-8.292-.844-8.1-2.709,1.9-3.711,8.312-9.838,8.214-14.01-.157-6.654-.028-14.758,1.934-21.286,1.083-3.6,4.724-5.358,8.246-5.711,8.483-.851,16.6-.4,25.038-.347,25.656.154,51.374-.353,76.975.355,7.495.207,18.838-2.006,18.056,9.425a111.536,111.536,0,0,0,.053,11.827c.523,19.461,1.3,38.768,1.688,58.226-1.71,2.839-5.694,6.062-9.028,6.361-5.986.536-12.311-.3-18.258-.387-20.582-.3-41.082-.871-61.578-1.431-9.861-.269-27.822,1.382-35.964-3.772-4.368-2.765-4.962-7.4-5.4-12.132C17.734,69.023,17.772,60.793,16.6,52.729Z" transform="translate(-8.5 -8.5)" fill="#fff" stroke="#fff" stroke-width="5.579"/>
        <path id="Tracé_14053" data-name="Tracé 14053" d="M16.6,52.729c-1.256-.777-8.292-.844-8.1-2.709,1.9-3.711,8.312-9.838,8.214-14.01-.157-6.654-.028-14.758,1.934-21.286,1.083-3.6,4.724-5.358,8.246-5.711,8.483-.851,16.6-.4,25.038-.347,25.656.154,51.374-.353,76.975.355,7.495.207,18.838-2.006,18.056,9.425a111.536,111.536,0,0,0,.053,11.827c.523,19.461,1.3,38.768,1.688,58.226-1.71,2.839-5.694,6.062-9.028,6.361-5.986.536-12.311-.3-18.258-.387-20.582-.3-41.082-.871-61.578-1.431-9.861-.269-27.822,1.382-35.964-3.772-4.368-2.765-4.962-7.4-5.4-12.132C17.734,69.023,17.772,60.793,16.6,52.729ZM11.675,49.42c1.54-.008,7.053,1.422,7.619,2.586l2.422,31.916a5.533,5.533,0,0,0,1.6,2.339c5.51,4.983,25.208,3.7,32.951,3.921,25.624.74,51.281,1.933,76.972,2.146.935.008,1.828.389,2.843.4,2.023.023,9.165-1.406,9.777-3.5.393-1.343.126-6.394.089-8.167-.466-22.156-2.057-44.3-2.144-66.529-.025-1.082-1.778-2.72-2.779-2.946l-116.2-.715a9.381,9.381,0,0,0-3.12,2.605c-1.327,1.916-2.973,16.793-3.216,20.043-.031.414-.017.831-.007,1.241l1.438,0c.67.65-2.79,6.821-3.432,7.84-1.1,1.738-3.99,4.527-4.626,5.751A1.722,1.722,0,0,0,11.675,49.42Z" transform="translate(-8.5 -8.5)"/>
        <g id="Groupe_2078" data-name="Groupe 2078" transform="translate(20.918 14.25)">
          <path id="Tracé_14054" data-name="Tracé 14054" d="M80.93,53.545a2.927,2.927,0,0,1,1.1.3.529.529,0,0,0,.083.05v1.648H81.8c-3.28,0-3.5,7.393-.533,8.541a4.308,4.308,0,0,0,1.8.133v1.715a1.037,1.037,0,0,1-.183.083,3.369,3.369,0,0,1-1.282.233C75.019,66.249,75.6,53.662,80.93,53.545Z" transform="translate(-75.302 -53.012)"/>
          <path id="Tracé_14055" data-name="Tracé 14055" d="M99.455,52.5c.017-.183.067-.583.366-.583l1.748.05c.067.017.05.083.05.133a1.356,1.356,0,0,1-.05.35c-.133,2.4-.433,4.512-.433,6.827,0,.033-.016.166.067.183l3.547.2a.254.254,0,0,0,.183-.1,59.057,59.057,0,0,0,.433-6.843c0-.083.067-.266.2-.266.483,0,1.216.133,1.748.1l.05.117v.45l-.25,12.521c-.583,0-1.165,0-1.965-.067v-.133c0-1.215.15-2.414.15-3.63a.877.877,0,0,0-.05-.4l-4.445.033a26.413,26.413,0,0,0,.133,3.979v.017c0,.067,0,.183-.117.183l-1.8.05c-.1,0-.1-.1-.1-.167C98.922,62.128,99.255,58.781,99.455,52.5Z" transform="translate(-90.165 -51.921)"/>
          <path id="Tracé_14056" data-name="Tracé 14056" d="M127.684,53.805v-.333l3.913-.3c.083,0,.5-.05.55.1.033.516.166,1,.166,1.5V55a20.007,20.007,0,0,1-2.647.333v.15c0,.15.05,4.112.45,4.112l2.331-.333c.016,0,.067-.017.083-.017l.366,1.765-2.8.35v.217c0,.849.067,1.765.15,2.581,0,.167.033.4.233.4.283,0,2.2-.333,2.681-.35.167,0,.2.167.217.3a9.276,9.276,0,0,1,.2,1.432c0,.033.033.167-.05.183-.866.017-1.632.216-4.212.383a3.261,3.261,0,0,1-.4.05c-.017,0-.067.016-.083.016-.3,0-.3-.649-.316-.8Z" transform="translate(-109.488 -52.757)"/>
          <path id="Tracé_14057" data-name="Tracé 14057" d="M148.8,63.995l5.345-9.657c-1.315-.117-2.764.067-4.729,0-.017,0-.017-.05-.017-.067l.033-1.865,7.176-.333a.3.3,0,0,1,.216.333l-.233,1.865c-.866,1.715-3.18,6.327-4.8,8.808,0,.017.033.067.05.067l4.612.134-.05,1.8c-.017.166-.083.316-.25.333a57.734,57.734,0,0,0-7.21-.05c-.15,0-.183-.133-.166-.3Z" transform="translate(-123.658 -52.023)"/>
          <path id="Tracé_14058" data-name="Tracé 14058" d="M195.726,53.545a2.93,2.93,0,0,1,1.1.3.516.516,0,0,0,.083.05v1.648h-.316c-3.28,0-3.5,7.393-.533,8.541a4.307,4.307,0,0,0,1.8.133v1.715a1.024,1.024,0,0,1-.183.083,3.369,3.369,0,0,1-1.282.233C189.815,66.249,190.4,53.662,195.726,53.545Z" transform="translate(-152.425 -53.012)"/>
          <path id="Tracé_14059" data-name="Tracé 14059" d="M212.6,66.455c.083-1.132.166-2.347.5-9.091.166-3.147,1-4.529,2.931-4.529a3.126,3.126,0,0,1,.383.016c1.748,0,2.081,1.948,2.131,3.313v.083c.017.366.066,1.216-.083,9.84l-.116.083h-.666a2.447,2.447,0,0,1-.833-.083c-.016-.166-.033-.949-.249-4.179h-.117c-.6,0-1.215.05-2.031.05a37.942,37.942,0,0,0,.083,4.579s-.05.117-.083.117h-1.8c-.067,0-.05-.1-.05-.117Zm2.1-5.994.033.083c.017.017.583.033,1.782.05.05-.016.05-.083.05-.133l.2-3.263v-.283c0-2.231-1.782-2.781-1.982-.166-.083,1.066-.1,1.581-.1,2.747C214.679,59.695,214.7,60.377,214.7,60.461Z" transform="translate(-166.534 -52.535)"/>
          <path id="Tracé_14060" data-name="Tracé 14060" d="M237.27,61.136a8.676,8.676,0,0,0-.083-1.016l-.117-.133a3.31,3.31,0,0,1-.566.033c-2.015,0-2.647-1.6-2.647-3.447v-.416a11.039,11.039,0,0,1,.25-2.6c.649.033,1.315-.067,1.965-.067h.133c.033,0,.1.05.1.067l.05.383v2.4c0,.033-.017.3-.017.333v.217c.017.7.033.916.9,1.016l3.2-.317c.25-.166.266-.366.35-.632-.017-.8-.083-1.915-.067-2.781l2.065.05c.017.6.083,1.3.083,1.931v.183a5.075,5.075,0,0,1-.766,2.914c-.549.732-2.281.7-2.431,1.132l.017,6.577-.05.017-1.9.1c-.1-.016-.166,0-.216-.133C237.487,66.281,237.337,61.852,237.27,61.136Z" transform="translate(-180.818 -52.978)"/>
          <path id="Tracé_14061" data-name="Tracé 14061" d="M262.97,66.455c.083-1.132.167-2.347.5-9.091.167-3.147,1-4.529,2.931-4.529a3.123,3.123,0,0,1,.383.016c1.748,0,2.081,1.948,2.131,3.313v.083c.017.366.067,1.216-.083,9.84l-.117.083h-.666a2.446,2.446,0,0,1-.833-.083c-.017-.166-.033-.949-.25-4.179h-.117c-.6,0-1.216.05-2.031.05a37.983,37.983,0,0,0,.083,4.579s-.05.117-.083.117h-1.8c-.067,0-.05-.1-.05-.117Zm2.1-5.994.033.083c.016.017.583.033,1.781.05.05-.016.05-.083.05-.133l.2-3.263v-.283c0-2.231-1.782-2.781-1.982-.166-.083,1.066-.1,1.581-.1,2.747C265.052,59.695,265.068,60.377,265.068,60.461Z" transform="translate(-200.375 -52.535)"/>
          <path id="Tracé_14062" data-name="Tracé 14062" d="M285.3,63.189c.068-.017.907-.083,1.225-.1h.091c.068,0,.136-.017.159.05.091.483.408,1.565,1.361,1.565.885,0,1.951-.633,1.951-1.282,0-3.164-5.854-3.613-5.854-6.527,0-1.515,1.611-3.1,4.084-3.1a3.086,3.086,0,0,1,.544.083c1.293.266,1.793.433,2.383,1.366.159.316.227.383.227.6l-1.52,1.232a.6.6,0,0,1-.114.017c-.612,0-.907-1.532-2.246-1.532-.613,0-.885.316-.885.766,0,2.314,5.559,2.863,5.922,6.493.181,1.848-1.793,3.73-4.538,3.73A3.4,3.4,0,0,1,284.66,64.7l-.045-.083a2.168,2.168,0,0,1-.318-.949C284.3,63.339,284.91,63.223,285.3,63.189Z" transform="translate(-214.659 -53.183)"/>
          <path id="Tracé_14063" data-name="Tracé 14063" d="M312.064,89.672a3.437,3.437,0,0,1,.133-.7c-.05,0-.116.017-.167.017a.963.963,0,0,1-1.066-.966c0-.516.433-1.3,1.082-1.3.932,0,1.315.566,1.315,1.449,0,.632-.649,2.014-1.415,2.014-.067,0-.083-.05-.083-.1C311.864,89.989,312.031,89.822,312.064,89.672Z" transform="translate(-232.621 -75.303)"/>
          <path id="Tracé_14064" data-name="Tracé 14064" d="M97.416,115.656c-.017-.1-.1-1.382-.117-1.7v-.117a.362.362,0,0,1,.05-.133c2.131.15,2.131.15,2.148.15.616,0,2.747,5.428,4.046,8.042.133-.6.017-8.092.533-8.092a8.481,8.481,0,0,1,1.682.15.324.324,0,0,1,.05.216v.067c-.133,1-.133,1.881-.183,10.04v1.132c-.017.3-.05,1.049-.05,1.049l-.05.05a5.362,5.362,0,0,1-1.449-.05l-4.712-9.141a.075.075,0,0,0-.05.05c0,.45.067.167.966,9.041v.2c-.167.133-.416,0-1.981.1l-.05-.05c-.016-.033-.183-1.482-.233-2.065Z" transform="translate(-89.075 -93.431)"/>
          <path id="Tracé_14065" data-name="Tracé 14065" d="M141.6,115.656c-.017-.1-.1-1.382-.117-1.7v-.117a.364.364,0,0,1,.05-.133c2.131.15,2.131.15,2.148.15.616,0,2.747,5.428,4.046,8.042.133-.6.016-8.092.533-8.092a8.485,8.485,0,0,1,1.682.15.324.324,0,0,1,.05.216v.067c-.133,1-.133,1.881-.183,10.04v1.132c-.016.3-.05,1.049-.05,1.049l-.05.05a5.362,5.362,0,0,1-1.449-.05l-4.712-9.141a.075.075,0,0,0-.05.05c0,.45.067.167.965,9.041v.2c-.166.133-.416,0-1.981.1l-.05-.05c-.017-.033-.183-1.482-.233-2.065Z" transform="translate(-118.759 -93.431)"/>
          <path id="Tracé_14066" data-name="Tracé 14066" d="M170.449,116.378a1.129,1.129,0,0,1,1.215-1.149c.45,0,.616.55.616.883a10.536,10.536,0,0,1-.633,3.013c-.05.134-.133.649-.383.649h-.433c-.083,0-.183-.3-.2-.333Z" transform="translate(-138.219 -94.453)"/>
          <path id="Tracé_14067" data-name="Tracé 14067" d="M179.072,114.678v-.333l3.913-.3c.083,0,.5-.05.549.1.033.516.167,1,.167,1.5v.233a20.01,20.01,0,0,1-2.647.333v.15c0,.15.05,4.112.449,4.112l2.331-.333c.017,0,.067-.017.083-.017l.367,1.765-2.8.35v.217c0,.849.067,1.765.15,2.581,0,.167.033.4.233.4.283,0,2.2-.333,2.681-.35.166,0,.2.167.217.3a9.276,9.276,0,0,1,.2,1.432c0,.033.033.167-.05.183-.866.017-1.632.216-4.212.383a3.254,3.254,0,0,1-.4.05c-.017,0-.067.016-.083.016-.3,0-.3-.649-.316-.8Z" transform="translate(-144.012 -93.652)"/>
          <path id="Tracé_14068" data-name="Tracé 14068" d="M198.117,124.062c.05-.017.666-.083.9-.1h.067c.05,0,.1-.016.117.05.067.483.3,1.565,1,1.565a1.515,1.515,0,0,0,1.432-1.282c0-3.164-4.3-3.613-4.3-6.527a3.066,3.066,0,0,1,3-3.1,1.712,1.712,0,0,1,.4.083,2.1,2.1,0,0,1,1.749,1.366,1.488,1.488,0,0,1,.166.6l-1.115,1.232a.336.336,0,0,1-.083.017c-.45,0-.666-1.532-1.648-1.532-.449,0-.649.316-.649.766,0,2.314,4.079,2.863,4.345,6.493a3.472,3.472,0,0,1-3.33,3.73,2.468,2.468,0,0,1-2.514-1.848l-.033-.083a2.738,2.738,0,0,1-.233-.949C197.384,124.212,197.833,124.1,198.117,124.062Z" transform="translate(-156.281 -94.079)"/>
          <path id="Tracé_14069" data-name="Tracé 14069" d="M217.518,116.853c-.033-.117-.15-.1-.25-.1-.366,0-.716.1-1.1.1a.163.163,0,0,1-.166-.15v-2.031h5.428v2.264h-1.882l-.05.083v1.049c.15,3.031.366,6.094.366,9.141,0,.167-.033.3-.2.35h-1.632a.172.172,0,0,1-.2-.15C217.818,123.879,217.6,120.366,217.518,116.853Z" transform="translate(-168.823 -94.079)"/>
          <path id="Tracé_14070" data-name="Tracé 14070" d="M251.017,114.528c-.05-.833-.216-1.632-.216-2.448,0-.1.016-.533.016-.616.083-.5.75-.649,1.182-.649,2.631,0,3.28.649,3.746,1.182a3.254,3.254,0,0,1,.8,2.364,2.316,2.316,0,0,1-1.382,2.181,6.031,6.031,0,0,1-1.948.367l.466,7.442v.45a10.885,10.885,0,0,1-2.031.2C251.384,121.521,251.184,118.025,251.017,114.528Zm2.264.549c.933,0,1.249-.5,1.249-1.349,0-.616-.882-1.032-1.432-1.032-.15,0-.166.1-.166.233,0,.666.116,1.482.15,2.081C253.1,115.111,253.265,115.078,253.282,115.078Z" transform="translate(-192.201 -91.487)"/>
          <path id="Tracé_14071" data-name="Tracé 14071" d="M269.008,127.328c.083-1.132.166-2.347.5-9.091.166-3.147,1-4.529,2.931-4.529a3.125,3.125,0,0,1,.383.016c1.748,0,2.081,1.948,2.131,3.313v.083c.017.366.067,1.216-.083,9.84l-.117.083h-.666a2.445,2.445,0,0,1-.832-.083c-.017-.166-.034-.949-.25-4.179h-.117c-.6,0-1.215.05-2.031.05a38.02,38.02,0,0,0,.083,4.579s-.05.116-.083.116h-1.8c-.067,0-.05-.1-.05-.116Zm2.1-5.994.033.083c.017.017.583.033,1.782.05.05-.016.05-.083.05-.133l.2-3.263v-.283c0-2.231-1.782-2.781-1.981-.166-.083,1.066-.1,1.581-.1,2.747C271.089,120.568,271.106,121.25,271.106,121.334Z" transform="translate(-204.432 -93.431)"/>
          <path id="Tracé_14072" data-name="Tracé 14072" d="M291.05,124.062c.05-.017.666-.083.9-.1h.067c.05,0,.1-.016.117.05.066.483.3,1.565,1,1.565a1.515,1.515,0,0,0,1.432-1.282c0-3.164-4.3-3.613-4.3-6.527a3.066,3.066,0,0,1,3-3.1,1.715,1.715,0,0,1,.4.083,2.1,2.1,0,0,1,1.748,1.366,1.484,1.484,0,0,1,.167.6l-1.116,1.232a.34.34,0,0,1-.083.017c-.45,0-.666-1.532-1.648-1.532-.45,0-.649.316-.649.766,0,2.314,4.079,2.863,4.346,6.493a3.472,3.472,0,0,1-3.33,3.73,2.468,2.468,0,0,1-2.514-1.848l-.033-.083a2.73,2.73,0,0,1-.233-.949C290.317,124.212,290.766,124.1,291.05,124.062Z" transform="translate(-218.715 -94.079)"/>
          <path id="Tracé_14073" data-name="Tracé 14073" d="M77.02,173.713c.033-.1.033-.317.133-.366l1.016-.033a6.152,6.152,0,0,1,3.813,1.449c.017.017.083.083.083.1.983.783,1.415,3.031,1.415,4.3,0,3.214-.533,6.977-4.479,7.243l-2.215.033-.033-.05Zm1.965,10.839h.067c2.2-.2,2.4-2.431,2.4-4.146v-.466c0-2.031-.2-3.613-1.765-4.812a.685.685,0,0,0-.4-.183h-.1c-.117.965-.3,7.309-.316,9.491C78.869,184.535,78.9,184.552,78.985,184.552Z" transform="translate(-75.272 -133.475)"/>
          <path id="Tracé_14074" data-name="Tracé 14074" d="M100.291,175.552v-.333l3.913-.3c.083,0,.5-.05.55.1.033.516.166,1,.166,1.5v.233a19.954,19.954,0,0,1-2.647.333v.15c0,.15.05,4.112.45,4.112l2.331-.333c.016,0,.067-.017.083-.017l.366,1.765-2.8.35v.217c0,.849.067,1.765.15,2.581,0,.167.033.4.233.4.283,0,2.2-.333,2.681-.35.167,0,.2.167.217.3a9.278,9.278,0,0,1,.2,1.432c0,.033.033.167-.05.183-.866.017-1.632.216-4.212.383a3.257,3.257,0,0,1-.4.05c-.017,0-.067.016-.083.016-.3,0-.3-.649-.316-.8Z" transform="translate(-91.085 -134.549)"/>
          <path id="Tracé_14075" data-name="Tracé 14075" d="M119.336,184.936c.05-.017.666-.083.9-.1h.067c.05,0,.1-.016.117.05.067.483.3,1.565,1,1.565a1.514,1.514,0,0,0,1.432-1.282c0-3.164-4.3-3.613-4.3-6.527a3.066,3.066,0,0,1,3-3.1,1.719,1.719,0,0,1,.4.083,2.1,2.1,0,0,1,1.748,1.366,1.489,1.489,0,0,1,.166.6l-1.115,1.232a.336.336,0,0,1-.083.017c-.449,0-.666-1.532-1.648-1.532-.449,0-.649.316-.649.766,0,2.314,4.079,2.863,4.346,6.493a3.472,3.472,0,0,1-3.33,3.73,2.469,2.469,0,0,1-2.514-1.848l-.033-.083a2.738,2.738,0,0,1-.233-.949C118.6,185.086,119.053,184.97,119.336,184.936Z" transform="translate(-103.354 -134.975)"/>
          <path id="Tracé_14076" data-name="Tracé 14076" d="M161.163,174.023a4.186,4.186,0,0,1,2.947,1.032c.167.15.317.283.317.5,0,.133-.033.183-.783.816a.926.926,0,0,0-.15.117.937.937,0,0,1-.117.017,10.685,10.685,0,0,0-2.73-.466c-2.065,0-3.1,3.8-3.1,5.361,0,1.682.5,3.763,2.531,3.763,1.232,0,2.7-.333,3.03-3.447a2.764,2.764,0,0,0-.067-.616c-.016-.083-.1-.05-.133-.05-.6,0-1.232.15-2.264.15l-.05-.05c-.05-.583-.266-1.1-.3-1.682.017-.033.05-.117.117-.133a12.8,12.8,0,0,1,4.5-.4,11.669,11.669,0,0,1-.117,4.912.718.718,0,0,0-.017.083,4.3,4.3,0,0,1-4.2,3.147c-2.464,0-4.029-.832-4.6-3.28a10.436,10.436,0,0,1-.35-2.814C155.635,177.836,157.55,174.023,161.163,174.023Z" transform="translate(-128.266 -133.952)"/>
          <path id="Tracé_14077" data-name="Tracé 14077" d="M189.629,180.925c0-.033-.05-.133-.133-.133-.25,1.632.166,4.379.183,6.211,0,.05.017.266.017.316H187.83l-.1-.083c0-.017-.033-.416-.033-.583-.033-.783-.05-1.549.083-12.5l.05-.55c0-.216,2.564-.05,3.247,0,.067,0,.116.017.15.017a2.9,2.9,0,0,1,2.464,2.581c0,.1.017.533.017.633,0,1.648-.749,2.281-2.348,2.681.067.283.166.583.2.849l2.1,6.244v.35a7.05,7.05,0,0,1-1.349.466Zm-.05-2.681c1.133,0,1.948-.249,1.948-1.565,0-.866-.832-1.282-1.615-1.282h-.233c-.25.117-.166,1.1-.316,2.514v.167C189.362,178.244,189.379,178.244,189.579,178.244Z" transform="translate(-149.791 -133.594)"/>
          <path id="Tracé_14078" data-name="Tracé 14078" d="M212.01,174.936c2.647,0,3.214,3.23,3.1,6.843-.083,2.414-.35,6.727-3.6,6.727a3.789,3.789,0,0,1-3.347-3.164,18.3,18.3,0,0,1-.1-5.145,6.892,6.892,0,0,1,2.148-4.745A2.645,2.645,0,0,1,212.01,174.936Zm-1.049,11.389c.9.466,1.582-.333,1.815-1.082a27.1,27.1,0,0,0,.5-4.2v-.3c0-7.193-3.33-4.312-3.33,1.415v.6C209.946,184.377,209.962,185.809,210.961,186.325Z" transform="translate(-163.398 -134.565)"/>
          <path id="Tracé_14079" data-name="Tracé 14079" d="M232.459,184.936c.05-.017.666-.083.9-.1h.067c.05,0,.1-.016.117.05.067.483.3,1.565,1,1.565a1.514,1.514,0,0,0,1.432-1.282c0-3.164-4.3-3.613-4.3-6.527a3.066,3.066,0,0,1,3-3.1,1.719,1.719,0,0,1,.4.083,2.1,2.1,0,0,1,1.748,1.366,1.489,1.489,0,0,1,.166.6l-1.115,1.232a.336.336,0,0,1-.083.017c-.449,0-.666-1.532-1.648-1.532-.449,0-.649.316-.649.766,0,2.314,4.079,2.863,4.346,6.493a3.472,3.472,0,0,1-3.33,3.73,2.468,2.468,0,0,1-2.514-1.848l-.033-.083a2.738,2.738,0,0,1-.233-.949C231.727,185.086,232.176,184.97,232.459,184.936Z" transform="translate(-179.353 -134.975)"/>
          <path id="Tracé_14080" data-name="Tracé 14080" d="M270.794,180.925c0-.033-.05-.133-.133-.133-.25,1.632.166,4.379.183,6.211,0,.05.017.266.017.316H269l-.1-.083c0-.017-.033-.416-.033-.583-.034-.783-.05-1.549.083-12.5l.05-.55c0-.216,2.564-.05,3.247,0,.067,0,.117.017.15.017a2.9,2.9,0,0,1,2.464,2.581c0,.1.017.533.017.633,0,1.648-.749,2.281-2.348,2.681.067.283.166.583.2.849l2.1,6.244v.35a7.051,7.051,0,0,1-1.349.466Zm-.05-2.681c1.133,0,1.948-.249,1.948-1.565,0-.866-.832-1.282-1.615-1.282h-.233c-.25.117-.166,1.1-.316,2.514v.167C270.527,178.244,270.544,178.244,270.744,178.244Z" transform="translate(-204.319 -133.594)"/>
          <path id="Tracé_14081" data-name="Tracé 14081" d="M337.435,177.727c-.033-.116-.15-.1-.25-.1-.366,0-.716.1-1.1.1a.163.163,0,0,1-.166-.15v-2.031h5.428v2.264h-1.882l-.05.083v1.049c.15,3.031.366,6.094.366,9.141,0,.167-.033.3-.2.35h-1.632a.172.172,0,0,1-.2-.15C337.735,184.753,337.518,181.24,337.435,177.727Z" transform="translate(-249.386 -134.975)"/>
          <path id="Tracé_14082" data-name="Tracé 14082" d="M355.521,184.936c.05-.017.666-.083.9-.1h.067c.05,0,.1-.016.117.05.067.483.3,1.565,1,1.565a1.514,1.514,0,0,0,1.432-1.282c0-3.164-4.3-3.613-4.3-6.527a3.066,3.066,0,0,1,3-3.1,1.719,1.719,0,0,1,.4.083,2.1,2.1,0,0,1,1.748,1.366,1.49,1.49,0,0,1,.166.6l-1.116,1.232a.336.336,0,0,1-.083.017c-.449,0-.666-1.532-1.648-1.532-.449,0-.649.316-.649.766,0,2.314,4.079,2.863,4.346,6.493a3.472,3.472,0,0,1-3.33,3.73,2.468,2.468,0,0,1-2.514-1.848l-.034-.083a2.739,2.739,0,0,1-.233-.949C354.789,185.086,355.239,184.97,355.521,184.936Z" transform="translate(-262.029 -134.975)"/>
          <path id="Tracé_14083" data-name="Tracé 14083" d="M392.887,186.144a.876.876,0,0,1,.866.932c0,.583-.316,1.348-1.032,1.348a.831.831,0,0,1-.9-.9C391.821,186.86,392.137,186.144,392.887,186.144Zm-.533-10.573a2.033,2.033,0,0,0,.05-.283c.117-.333,1.382-.216,1.981-.25a.44.44,0,0,1,.133.05c0,.033.017.183.017.216,0,1.382-.433,2.748-1.066,10.224-.1.017-.533.05-.683.05-.25,0-.716,0-.716-.316C392.071,182.014,392.22,178.8,392.354,175.571Z" transform="translate(-286.942 -134.634)"/>
          <path id="Tracé_14084" data-name="Tracé 14084" d="M76.32,114.088c2.647,0,3.214,3.23,3.1,6.843-.083,2.414-.35,6.727-3.6,6.727a3.79,3.79,0,0,1-3.347-3.164,18.292,18.292,0,0,1-.1-5.145,6.89,6.89,0,0,1,2.148-4.745A2.645,2.645,0,0,1,76.32,114.088Zm-1.049,11.389c.9.466,1.582-.333,1.815-1.082a27.059,27.059,0,0,0,.5-4.2v-.3c0-7.193-3.33-4.312-3.33,1.415v.6C74.256,123.529,74.273,124.961,75.272,125.477Z" transform="translate(-72.239 -93.686)"/>
        </g>
        <path id="Tracé_14085" data-name="Tracé 14085" d="M295.9,176.124c.956,3.437.611,7.294-2.162,9.683-.763-2.19-1.613-4.35-2.245-6.593-.083-.311-.174-.634-.263-.955,1.213-.592,2.427-1.132,3.6-1.589,1.931-1.237-1.06-.319-3.835.766-.366-1.257-.774-2.535-1.219-3.691-.613-1.184-1.148,1.481-1.667,2.519-.361.982-.724,2.031-1.074,3.084a33.515,33.515,0,0,0-3.681,2.43,7.261,7.261,0,0,1-.049-.858c-.008-5.636,3.849-7.915,8.031-9.34.711-.266.914-.48-.068-.353-4.7.58-8.75,3.2-9.278,8.362l-.012.107a9.933,9.933,0,0,0,.133,3.087,11.967,11.967,0,0,0-3.143,3.8,15.78,15.78,0,0,0,3.448-2.695c1.575,4.509,6.625,6.553,11.241,3.693a15.4,15.4,0,0,0,.771,1.525c.994,1.476.142-.788-.015-1.253-.065-.214-.141-.423-.21-.636.071-.051.143-.1.214-.149,3.288-2.38,3.03-7.208,1.778-10.447C296.132,176.353,295.823,175.6,295.9,176.124Zm-6.545-1.008,0-.019a16.819,16.819,0,0,0,.637,2.739c-.6.247-1.151.49-1.6.707A16.737,16.737,0,0,0,289.355,175.116Zm3.2,11.537c-3.782,2.379-7.878.047-8.969-3.728.066-.047.132-.1.2-.146.858-.659,1.788-1.3,2.756-1.912-.212.667-.417,1.326-.6,1.956-.342,1.224-.439,1.91-.208,1.685a14.965,14.965,0,0,0,1.262-2.533c.247-.582.517-1.215.785-1.865.819-.483,1.659-.943,2.5-1.378.191.586.383,1.166.554,1.734.516,1.638,1.168,3.237,1.823,4.771.148.343.3.7.447,1.061C292.926,186.42,292.748,186.541,292.555,186.653Z" transform="translate(-190.207 -117.798)" fill="#ff0079"/>
        <g id="Groupe_2079" data-name="Groupe 2079" transform="translate(110.201 11.075)">
          <path id="Tracé_14086" data-name="Tracé 14086" d="M359.024,44.018c.077.13.226.24.241.373a1.271,1.271,0,0,0,.068.348c.109.235.437.338.423.61a2.427,2.427,0,0,0,.057.313l.01-.007a2.709,2.709,0,0,1,.521.705.069.069,0,0,1-.085-.016c-.039-.027-.1-.111-.138-.115s-.047.172.041.272c.047.081.09.114.1.2-.054.31-.391-.092-.493-.154s-.068.247-.152.305-.171-.02-.241.074a5.108,5.108,0,0,1-.672.5,4.945,4.945,0,0,0-.923.617c-.049.106,0,.268-.13.324-.229.06-.325.452-.386.581-.442.531.514.476.792.3a4.121,4.121,0,0,0,.985-.7c.069-.067.07-.089.164-.125a.821.821,0,0,0,.545-.2,1.218,1.218,0,0,0,.125-.171c.116-.223.381-.187.6-.273h0a2.291,2.291,0,0,1,.5-.461l.033.035c.411.351.39.574.823.738.1.052.076.189.162.253.06.017.222-.047.233.008-.024.082-.335.2-.068.161a.629.629,0,0,1,.127,0c.145.026.131.173.237.282.188.226.323.343.5.56.074.154.2.093.3.154.1.154.062.16.208.295.1.117.267.287.409.149-.015-.036-.08-.1-.079-.146s.017-.073-.011-.1-.149-.056-.174-.131c-.036-.053.036-.166.025-.255a.356.356,0,0,0-.116-.241.17.17,0,0,1-.046-.181c.068-.214-.286-.376-.325-.573-.151-.236-.352-.655-.5-.892-.1-.158-.218-.218-.263-.354a1.721,1.721,0,0,0-.358-.58.221.221,0,0,1-.019-.025c.022-.025.043-.051.062-.077a2.641,2.641,0,0,1,.46-.473c.092-.089.119-.234.2-.331.069-.109.185-.168.2-.3.012-.074.013-.094.062-.053s.095.079.092.049-.037-.265.071-.323a.894.894,0,0,0,.342-.3,2.467,2.467,0,0,1,.426-.411c.088-.163.03-.254.254-.393.082-.113.215-.195.268-.307.038-.163-.06-.283-.2-.159-.132.013-.105.129-.157.218-.069.05-.134,0-.218-.021-.051-.018-.15.04-.215.072-.031.011-.117.106-.179.13-.094.033-.172-.058-.284.055-.071.061-.171.164-.245.239-.277.225-.786.473-1.085.735a1.567,1.567,0,0,1-.458.331,1.414,1.414,0,0,0-.284.239c-.122.054-.255.2-.367.084a.15.15,0,0,1,.005-.148c.086-.148.222-.2.316-.357-.01-.058-.195-.015-.236-.071-.116-.063-.095-.1-.1-.2a18.6,18.6,0,0,1-1.007-1.716c-.077-.094-.256-.069-.321-.127-.1-.086-.084-.143-.177-.229-.163-.142-.4-.179-.515-.354-.452-.223-.34.678-.244.892C358.61,43.378,358.875,43.729,359.024,44.018Zm3.821,5.067c.025,0,.047-.006-.011.016ZM362.6,48.7c.112-.055,0,.141.051.085h0C362.777,48.826,362.426,48.781,362.6,48.7Zm1.075-4.189-.017-.01C363.656,44.476,363.65,44.456,363.676,44.512Zm-.3.205c.123.01-.206.178,0,0Z" transform="translate(-352.934 -42.247)" stroke="#000" stroke-width="0.328"/>
          <path id="Tracé_14087" data-name="Tracé 14087" d="M385.52,50.524a7.757,7.757,0,0,0,.666,1.1.827.827,0,0,0,.114.478,2.348,2.348,0,0,0,.292.268c.13.126.081.391.148.568l.007.005c.136.175.33.441.537.732,0,.006-.007.011-.011.017-.059.05-.079-.045-.121-.081-.256-.272.121.418.006.471-.134.126-.44-.275-.544-.268a.4.4,0,0,1-.174.343.735.735,0,0,0-.27.185c-.144.094-.2.161-.349.265-.272.232-.971.467-1.128.777a.64.64,0,0,1-.045.221c-.059.094-.114.063-.184.12a.447.447,0,0,0-.1.15,2.662,2.662,0,0,1-.238.462c-.184.3.284.341.484.306a4.134,4.134,0,0,0,1.53-.907,2.389,2.389,0,0,0,.383-.113c.152-.1.183-.195.3-.344.125-.169.391-.119.579-.208l0,0a6.767,6.767,0,0,1,.538-.477l.171.241c.143.166.26.4.438.457.115.048.113.044.172.071.133.037.134.2.208.264.037.029.352-.074.178.072-.234.158.013.059.156.119a.185.185,0,0,1,.1.11c.182.266.473.564.653.81.127.065.21-.028.258.1a.947.947,0,0,1,.016.1.159.159,0,0,0,.1.1c.148.034.118.194.223.252a.31.31,0,0,0,.254-.059c.022-.051-.076-.077-.076-.142.016-.132-.116-.113-.194-.171a.106.106,0,0,1-.007-.1c.081-.143.012-.268-.04-.4-.071-.091-.135-.163-.086-.228a.166.166,0,0,0-.006-.153c-.056-.112-.161-.133-.241-.243a.02.02,0,0,0-.008-.01c-.042-.073-.073-.151-.146-.308-.129-.2-.3-.564-.445-.785a3.28,3.28,0,0,1-.444-.71,1.182,1.182,0,0,1-.159-.234,3.359,3.359,0,0,0,.477-.461,3.174,3.174,0,0,1,.386-.532c.07-.053,0-.192.028-.24.013-.035.059,0,.107.073.071.1.065.086.082.091,0-.067-.1-.352.055-.4a.647.647,0,0,0,.321-.263c.116-.208.364-.345.46-.53a1.345,1.345,0,0,0,.012-.144c.03-.093.223-.085.252-.205.052-.171.161-.111.234-.205a.22.22,0,0,0-.009-.149l-.026-.058c-.053-.078-.09-.034-.15.012-.032.023-.091.014-.121.062-.041.072-.084.174-.2.162a.467.467,0,0,0-.31.072c-.052.029-.135.153-.221.137-.131-.117-.251,0-.311.109a.412.412,0,0,1-.1.116c-.019-.006-.025.01-.028.025a1.308,1.308,0,0,1-.2.112,6.033,6.033,0,0,0-1.06.777c-.173.137-.339.155-.507.318-.021.024-.043.047-.065.07a1.458,1.458,0,0,1-.3.127c-.284-.07.182-.449.219-.541-.025-.072-.2-.017-.29-.12-.108-.139-.025-.214-.186-.367-.255-.27-.605-1.2-.889-1.547-.09-.063-.175-.021-.28-.069-.048-.029-.045-.111-.095-.19a.343.343,0,0,0-.13-.126,3.455,3.455,0,0,1-.536-.316C385.224,49.472,385.361,50.318,385.52,50.524Zm4.252,5.833c.025,0,.047-.006-.011.016Zm-.193-.3c-.032.149-.117-.257,0,0Zm1.019-4.262-.017-.01C390.578,51.759,390.572,51.738,390.6,51.794Zm-.3.205c.123.01-.206.177,0,0Z" transform="translate(-371.027 -47.14)" stroke="#000" stroke-width="0.328"/>
          <path id="Tracé_14088" data-name="Tracé 14088" d="M401.815,90.663l.008.027A.174.174,0,0,0,401.815,90.663Z" transform="translate(-382.939 -74.774)" stroke="#000" stroke-width="0.328"/>
          <path id="Tracé_14089" data-name="Tracé 14089" d="M364.72,69.287c-.068.15-.059.244-.133.3a.508.508,0,0,0-.3.259c-.121.167-.174.539-.287.57a.933.933,0,0,0-.437.194c-.346.338-.726.673-1.066.984-.069.034-.1-.069-.176-.07a.294.294,0,0,0-.169.065,5.421,5.421,0,0,0-.607.572.25.25,0,0,0-.084.064l.033-.012c-.071.071-.143.14-.218.2a4.489,4.489,0,0,0-.918.424,2.439,2.439,0,0,1-.887.291c-1.755.325-3.82.8-5.455.046a.977.977,0,0,0-.48-.095,1.236,1.236,0,0,1-.346-.131c-.277-.095-.761-.08-1.141-.175a11.75,11.75,0,0,0-1.413-.458c-.294-.082.735-.012.4-.217-.162-.106-.675-.287-.781-.04-.063.392-.278.074-.457-.076-.268-.185-.327-.181-.242-.429.027-.139.081-.267-.013-.374a3.369,3.369,0,0,0-.38-.12.836.836,0,0,1-.47-.279,2.214,2.214,0,0,0-.157-.287c-.109-.132-.31-.278-.44-.409a2.3,2.3,0,0,1-.417-.5c-.232-.373-.588-.753-.832-1.121-.38-.972-.755-1.95-1.048-2.955a2.212,2.212,0,0,0-.193-.625c-.073-.121-.239-.253-.261-.342a.488.488,0,0,1,.027-.193c.146-.279-.036-.592-.108-.878-.1-.328-.1-.627-.191-.954a3.3,3.3,0,0,1-.089-.972,1.591,1.591,0,0,0-.021-.18c-.015-.082-.038-.125-.074-.117-1.382,1.856.043,5.618.7,6.939a.657.657,0,0,1,.026.181,1.316,1.316,0,0,0,.27.767,4.4,4.4,0,0,0,.7,1.041,2.413,2.413,0,0,1,.439.277,8.1,8.1,0,0,0,1.1,1.468l.007,0c3.266,2.719,9.1,3.8,11.187,2.156a.508.508,0,0,1,.169-.052c.2-.04-.154.374-.047.335a.631.631,0,0,0,.33-.281c.051-.1.083-.161.154-.2a10.432,10.432,0,0,0,1.453-.667,16.138,16.138,0,0,0,1.681-1.314c.123-.156.312-.219.382-.4a.787.787,0,0,0-.005-.12c0-.168.095-.2.234-.315a1.259,1.259,0,0,0,.636-.759c.074-.253.366-.4.512-.574S364.936,68.717,364.72,69.287Zm-3.381,3.894c-.461,0,.232-.194.138-.179h0C361.838,72.861,361.148,73.148,361.338,73.181Zm1.133-.829c.024-.045.031-.077.027,0Z" transform="translate(-344.299 -55.013)" stroke="#000" stroke-width="0.328"/>
        </g>
        <path id="Tracé_14090" data-name="Tracé 14090" d="M293,49.33V63.849a.476.476,0,0,0,.4.525h0a.476.476,0,0,0,.4-.525V49.33c0-.476-.445-.706-.694-.359h0A.622.622,0,0,0,293,49.33Z" transform="translate(-199.633 -35.577)"/>
        <path id="Tracé_14091" data-name="Tracé 14091" d="M297.038,49.33V63.849a.476.476,0,0,0,.4.525h0a.476.476,0,0,0,.4-.525V49.33c0-.476-.445-.706-.694-.359h0A.622.622,0,0,0,297.038,49.33Z" transform="translate(-202.346 -35.577)"/>
      </g>
    </g>
  </g>
</svg>
