<svg xmlns="http://www.w3.org/2000/svg" viewBox="0 25.51 413.68 480.62"><path fill="#7CFA72" d="M32.51 283.9L288.5 180.32l125.2 175.83-77.15 103.7-200.86-39.13z"/><path fill="#FFF" d="M134.27 167.06c-2.12 1.56-30.12 3.56-30.12 3.56l2.14 14.5-23.67-13.68s-66.78 3.4-77.2-1.2C.3 168 2.04 113 8.18 109.92c6.13-3.1 124.41-2.29 129.14.64s7.08 11.4 5.9 26.13c-1.19 14.73-1.84 25.14-8.95 30.38m-17.37 41.18c12.18-5.96 25.84-5.52 22.77-23.12 10.54.8 50.65 2.32 59.96-1.35l32.85-6.84 19.25-18.1h17.54c4.44 6.33 9.73 17.7 7.77 25.62l8.78 3.71c3.25 40.38 15.14 89.9 15.14 89.9 26.57 25.39 38.02 41.07 53.54 67.57 25.81 44.05 18.85 94.46-13.81 132.33-27.32 6.07-82.99 11.4-109.25-.98 8.73-37 .47-35.44-8.45-1.6-26.69-12.84-6.95 14.05-24.37 7.47-8.73-6.11-.19-57.3-.23-66l-3.72-83.1c.48-35.5-4.76-38.04-13.73-38.04-4.38 0-6.13 16.47-12.55 16.14-4.36-.22-17.92-19.37-23.34-20.11-15.26-12.87-24.17-65.2-28.15-83.5"/><path fill-rule="evenodd" clip-rule="evenodd" fill="#060605" d="M338.76 394.07c.43 3.2 4.73 9.19-.96 9.77-.68-2.98-2.64-7.93.96-9.77m17.6 5.87c1.17 1.1 2.12 8.7-1.94 7.8-.92-1-.7-10.29 1.94-7.8m-3.4 17.6c2.37-.07 1.65 10.77.4 12.62l-2.85.07c.21-4.28-1.22-9.45 2.44-12.69m-5.47-23.4c.41.27 2.28 7.03 2.1 8.24-.34 2.5-2.94 2.1-3.03 3.01-.2 2.11 3.17 7.6-.45 10.16-2.9-1.95-3.21-5.74-1.94-8.75.37-.88 2.07-1.58 2.28-2.6.14-.66-5.01-13.94 1.04-10.05m-8.24-43.07c-4.26.9-5.5-6.74-2.93-6.82 1.61-.04 6.04 4.99 2.93 6.82m-8.3-21.5c1.92-1.94 11.94 7.49 6.36 10.73a11.2 11.2 0 01-6.36-10.72m-33.26-21.5c3.02-1.16 9.5 7.03 5.35 7.82-3.03.59-6.3-4.91-5.35-7.81m0 10.76h1.45c1.68 1.3 2.84 2.6 2.45 4.88-2 .95-4.63-4.2-3.9-4.88m4.8 16.04l-.89-6.27c3.8.06 4.29 3.8 3.9 6.83zm2.53-16.03l2.44 5.85c-1.9-1.2-5.75-3.62-2.44-5.85m.98-19.54c1.68.74 5.88 3.72 4.4 5.83-1.74 2.49-9.44-1.96-4.4-5.83m7.08 10.02c3.95 4.06-1.64 5.73-3.63.21.94-1.73 2.58-1.3 3.63-.21m-2.67 19.28c3.22-.06 4.3 3.06 3.9 5.85-3.22.06-4.31-3.06-3.9-5.85m3.42 8.81c2.73 2.33 4.92 4.9 4.4 8.77-5.16 1.26-7.9-5.29-4.4-8.77m-2.44-20.54c4.44-.3 7.3 4.71 6.83 8.79-5.18 1.08-6.88-4.64-6.83-8.79m9.28 21.48c-1.37-.56-4.78-6.3-1.94-6.82 2.29-.42 4.98 5.39 1.94 6.82m-1.46-26.36c1.15-1.32 7.65 5.25 5.86 7.8-4.38.53-6.24-4.28-5.86-7.8m9.77 33.21c-5.1.62-5.1-5.14-4.88-8.78 3.32-.48 6.1 7.5 4.88 8.78m-6.84-19.53c4.18-.7 5.1 3.59 4.89 6.83-2.72.83-5.93-5.8-4.89-6.83m-85.49-28.97l-2.58-1.16.04-6.28c4.51-1.8 5.54 6.73 2.54 7.44m1.37 88.1c2.64-4.55 8.4 2.88 6.84 4.38-3.38.42-7-.2-6.84-4.37m2.94-94.74l2.27.4c2.72 6.93-5.45 6.3-2.27-.4m2.45 87.4c3.6-.93 5.1 4.06 4.38 6.83-2.64.81-8.44-5.78-4.38-6.83m2.46-6.36c2.68-3.42 6.38-.07 5.84 3.42-3.37.53-4.5-.59-5.84-3.42m25.95-172.68c-.88 2.91-8.59.05-7.54-3.35 2.43-1.8 8.48.23 7.54 3.35m-10-11.48c-2.78 1.11-12.75.83-14.91-1.28-3.01-7.47 5.62-18.63 13.81-16.83 6.54 1.44 6.65 15.91 1.1 18.11M148.2 252.26s-1.28-2.73-.1-3.66c1.17-.93 4.18.72 4.18.72 1.59 2.19-1.96 4.88-4.08 2.94m5.16 17.11c-2.85 1.41-4.99-3.51-2.9-4.83 3.31-2.08 6.6 3 2.9 4.83m11.76-12.5c-2.86-.62-3.39-4.17-1.82-5.14 5.16-3.2 7.44 6.38 1.82 5.15M361.3 456.16c-2.62 4.12-14.77 15.95-15.14 17.02-.58 1.64 1.48 3.48-.46 6.48-3.56 5.49-25.95 7.4-32.85 8.23-14.88 1.78-33.18 4.07-47.93 4.88-10.82.6-26.72 1.41-29.4-11.66-2.25-11 5.88-11.78 13.54-14.93 1.23-.5 3.07-1.81.21-1.75-4.51 1.66-11.55 2.94-14.06 7.46-.9 1.64-1.1 5.82-2.6 6.23l-5.34-1.94c-.77 11.65-6.78 16.57-18.43 13.03-10.67-3.25-5.42-15.5-4.34-22.59 1.75-11.45 4.45-24.52 5.15-35.9.86-13.98-1.31-29.34-.62-42.86.22-4.36 4.87-3.67 6.07 1.28 1.4 5.77 2.33 18.79 2.42 24.94.26 17.34-3.18 35.25-5.5 52.35 1.1 1.6 9.5 3.37 10.17.27l13.49-74.63 4.16 1.66c.62 16.4-2.45 32.74-5.6 48.78.34 8.05 20.2 16.88 27.07 18.72 6.83 1.83 11.78-1.58 18.77-.7.46-1.88-.69-1.88-1.64-2.75-9.16-8.32-16.22-15.02-21.03-26.87-20.14-49.66 24.46-90.7 73.55-75.43 6.55 2.03 17.9 7.25 17.6 15.14-7.83-1.99-14.2-6.74-22.3-8.5-51.5-11.18-84.78 35.5-54.4 78.78 2.22 3.16 13.66 16.13 16.56 16.68 2.82.54 6.26-.43 9.16.12 3.94 8.2-16.94 6.71-18.47 8.71 4.1 4.67 6.57 10.26 5.87 16.6 8.67-3.6 45.5-2.66 50.87-7.32 1.14-.99 1.23-4.28 2.48-6.32 4.06-6.7 13.18-11.74 18.22-20.88 31.55-57.15-16.44-124.2-57.36-162.8q-.75-.49-1.3-1.2l-.28-.27.08-.04-.17-.3c-1.04-2.1-2.5-9.04-2.98-14.28-2.1-23.26-4.56-46.5-9.48-69.28-1.01-4.68-1.9-11.34-8.17-9.8-1.15.28-3.34 7.57-8.5 1.52-.85-1.81 2.98-9.28 3.36-12.5 1.35-11.68-5.27-21.38-17.56-16.04-8.53 3.71-11.42 13.92-14.37 21.87l-11.03-1.12v2.9h9.69v4.87h-9.69v9.72h-4.85v4.86h-4.86v4.86H189.9v-4.86h-4.86v-4.86h-4.86v-4.86h-8.37l-49.04 11.7c-2.46 2.43.75 18.27 2.74 20.73 6.07 7.5 10.77-4.47 17.52-2.45 7.24 2.17-8.2 18.44-10.45 18.73-1.51.2-2.99-1.14-4.11-.4 3.83 10.5 7.56 30.49 14.7 38.83 7.18 8.4 27.43 8.05 35.8 1.82 2.05-1.52 5.27-6.66 6.63-7q.4-.09.81-.07c1.8.07 3.2 1.6 3.13 3.4.08 4.16-13.06 27.67-16.62 30.03-4.99 3.31-9.46 1.66-13.54-2.17-3.33-3.13-6.03-10.18-8.62-12.49-2.09-1.87-7.6-3-10.59-5.25-10-7.51-18.1-40.19-21.13-52.74-1.74-7.2-6.78-24.9-5.61-31.25.74-4.01 6.49-6.17 9.93-7.41 2.26-.82 6.94-2.07 13.08-3.56v-10.16h-4.86v-4.86h24.31v-.01h48.94c10.37-2.17 17.43-3.61 17.43-3.61-2.08-2.08-5.53-12.46-5.5-12.26-2.85-20.64 17.5-17.9 26.88-6.14 10.93-6.19 25.91-9.07 33.6 3.36 3.85 6.23 2.86 11.77 2.12 18.61 11.6-2.05 12.82 14.9 14.22 23.1a1091 1091 0 019.05 64.14c.27 2.46 1 10.32 3.19 12.8 6.5 7.67 14.85 14.31 21.7 21.87 35.14 38.72 65.36 102.39 33.76 152m-126.22-.59a2.46 2.46 0 00-2.92-1.87v3.9l2.92-.98q.12-.52 0-1.05m-67.15-147.57c2.02-.55 7.17-8.54 3.57-10.07-4.14-2.06-4.15 3.64-6.42 5.64-2.25-1.6-.64-3.95-.38-6-10.63.83-1.48 11.7 3.23 10.43m-16.88-115.98h-4.86v-4.86h-4.86v9c3.02-.71 6.29-1.46 9.72-2.24zm48.6 4.85h-4.87v-9.7h-4.85V192h-4.86v4.85h4.86v4.86h4.85v4.87h4.86zm-55.24-49.99c-1 6.49-1.02 6.28-1.54 9-.56 17.55-20 17.38-36 17.1l2.26 9.32c.4 1.19 2.17 5.73 1.23 6.56a3.1 3.1 0 01-3.41.48L78.4 173.47a4191 4191 0 01-47.93 1.05c-10.26-.04-24.96 4.02-30.47-7.5.43-21.16 1.27-24.41 1.82-45.13-1.6-11.7 6.22-14.98 16.75-14.02 29.14-.57 57.78-.31 86.8-.37 18.15.72 40.98-6.45 39.01 20.63-.06 2.57.6 18.59.02 18.74m-7.28-32.56a11 11 0 00-2.67-2.36l-124.99.77c-.74.25-2.08 1.62-2.1 2.17q.12 11.5-1.08 22.94c-.53 4.37-1.69 20.83-1.17 29.7.37 1.3 6.78 3.03 9.46 3.03 19.88-1.2 40.36-.89 60-1.9 7.04-.56 9.06 1.9 9.06 1.9l19.96 11.73-3.53-10.75s-.3-3.36 2.99-3.37 24.19-.27 32.49-4.32c2.05-.5 3.55-17.18 4.03-18.82 1.2-9.14 2-23.65-2.45-30.72m-8 36.1l-.02.35-.35.06c-.25.04-1.24.12-1.6.12-.6 0-2.04 0-2.04-1.16 0-6.49.28-13.03.54-19.35l.12-2.33.09-.5.02-.14c.28-.8 1.62-.85 3.63-.84l1.18-.01q.35.02.64.24l.13.13v.19l.02.2.02.28a38 38 0 01-.47 4.89 343 343 0 00-1.9 17.87m-1.74.88h.1a2.4 2.4 0 012.28 2.53c0 1.67-.97 3.45-2.75 3.45h-.32a2.3 2.3 0 01-2.13-2.46c0-1.7.88-3.52 2.82-3.52m-7.6-1.64c-.04.65-.1 2.2-.1 2.2l-.01.16-.34.33-.6.03q-1.36.12-2.67-.13l-.2-.05-8.96-17.4c.22 1.85.72 6.16 1.81 16.89v.65l-.16.13c-.3.24-.6.23-1.28.22-.56 0-1.5-.02-3.06.08l-.19.01-.32-.35c-.11-.22-.52-4.38-.52-4.42l-1.24-18.5c-.05-.38-.22-3.05-.24-3.54v-.26q0-.27.16-.5l.13-.22.26.02 4.42.31c.98 0 2.25 2.5 5.83 10.52.79 1.77 1.54 3.46 2.22 4.91.03-.86.05-1.98.07-3.13.2-10.78.48-12.4 1.36-12.4h.09q1.75 0 3.46.31l.2.04.09.16q.19.3.16.67v.13c-.27 2.02-.27 3.93-.37 18.82zm-27.21 6.6c-3.32 0-6.75-3.22-7.35-6.9a39 39 0 01-.2-10.77c.4-3.38 1.25-7.22 4.58-10.1a6 6 0 014-1.16 5.4 5.4 0 014.03 1.63c2.1 2.17 3.02 6.41 2.8 12.97-.14 4.29-.49 14.33-7.86 14.33m3.23-16.48q.11-3.37-.76-6.63c-.4-1.15-.9-1.78-1.45-1.78-1.53 0-3.84 4.52-3.84 11.34v1.24c0 3.1 0 6.03 1.88 7a1.7 1.7 0 001.51.11 3.4 3.4 0 001.65-2.1c.09-.28.43-1.7 1.01-8.6zm-19.42 12.98h-.07c-.7.02-1.39.1-2.33.21q-2.8.34-5.63.52-.4.1-.8.1l-.17.03c-.86 0-.94-1.2-.97-1.73l-.01-.13-1.59-22.8v-.99l7.91-.6c.4-.02 1.15-.06 1.33.46l.02.1q.04.62.15 1.22.15.82.17 1.65v.56l-.06.09c-.2.35-.84.44-3.27.61-.64.05-1.3.1-1.7.15 0 1.94.2 6.54.58 7.37l4.26-.61.2-.04h.32l.85 4.08-5.4.67v.07a49 49 0 00.36 5.29l2.12-.3a41 41 0 012.95-.38q.7 0 .8.9.31 1.37.39 2.77c.06.57-.27.7-.41.73m-16.02 2.74l-.1-.04-.4-.2v-.62l-.06-2.53c-.09-3.65-.23-9.38-.38-12.75-2.91 6.68-3.6 7.49-3.87 7.66l-.17.17-2.55-.11-.11-.16a23 23 0 01-1.84-3.68l-.53-1.22-.06 1.92c-.1 3.78-.22 7.68-.15 11.52q-.03.3-.14.56l-.03.06c-.3.4-3.85.4-3.89.4-.63 0-.92-.6-.92-1.17 0-.23.15-23.18 2.63-24.96l.07-.06.1-.01q.34-.04.69-.04c3.7 0 4.54 4.25 5.16 7.36q.15.83.32 1.54a71 71 0 012.41-4.34c1.13-1.94 2.53-4.34 5.27-4.34 1.76 0 1.96 2.96 2.02 4.07.36 6.23.55 12.87.55 19.8l-.04.47c-.47 1.04-3.76.75-3.98.7m-16.55-4.84v.2l-.48.34h-1.58a5 5 0 01-1.51-.18l-.24-.08-.03-.25-.03-.63c-.04-.84-.14-2.78-.42-6.96q-.71 0-1.48.04l-1.88.05c-.09 1.29-.05 2.9.19 8.3v.09l-.04.08c-.08.2-.23.46-.51.46h-3.42a.5.5 0 01-.35-.15.6.6 0 01-.13-.47v-.17c.17-2.33.34-4.93.95-17.27.33-6.3 2.11-8.98 5.95-8.98q.39-.01.78.04c1.87 0 4.19 1.16 4.39 6.66v.17c.03.74.12 2.62-.16 18.71m-4-17.44c0-1.96-.8-3.21-1.53-3.24-.62-.03-1.3.88-1.46 2.96a54 54 0 00-.17 6.42v.4q1.4.06 2.79.07l.37-6.1zm-9.75 13.61a8.6 8.6 0 01-8.35 6.26c-5.26 0-8.07-2.02-9.1-6.54q-.71-2.67-.68-5.43c0-8.53 5.54-13.62 10.9-13.63 1.93 0 4.48.55 5.9 2.1.4.27.65.71.69 1.2 0 .46-.18.63-1.62 1.85q-.14.09-.26.2l-.09.08-.11.03-.3.03a4 4 0 01-1.2-.26 11 11 0 00-4-.62c-3.57 0-5.5 6.95-5.5 9.8 0 2.03.43 6.76 4.43 6.76 2.44 0 4.79-.75 5.37-6.2q0-.42-.08-.83-.65.01-1.44.1-1.38.17-2.78.18h-.16l-.3-.3-.02-.15q-.08-.75-.27-1.47a10 10 0 01-.3-1.74v-.1l.04-.09a.8.8 0 01.47-.45c1.96-.76 5.86-.97 8.67-.77l.33.02.03.33.14 1.48a19 19 0 01-.36 7.94zm162.06 131.94l-4.6-.99c-3.05-6.84 8.26-4.77 4.6 1m12.13 57.65c-2.95.58-3.81-6.2-2.42-6.83 3.25-.65 5.31 6.25 2.42 6.83m1-18.56c3.2-.6 4.98 6.84 1.94 7.8-4.5 1.43-4.25-7.36-1.93-7.8m2.16 26.13c-2.16 0-.64-4.74 1-4.65s1.16 4.65-1 4.65m1.42-27.6c-2.3-.93-2.67-5.66 0-5.26 1.36.2 1.87 4.3 0 5.25m5.27 8.3c-2.5.55-3.13-5.45-1.82-6.74 3-1.88 3.92 6.28 1.82 6.74m-2.5 9.78c-2.3.65-3.74-5.86-1.94-5.86 2.5.75 3.77 5.16 1.93 5.86m-24.12-41.27c.83-.48 16.18-.65 19.08-.92 4-.37 15.33-2.43 20.85-2.4l.53-.02c.97 0 3.02.2 3.27 1.28v.64a7 7 0 01-.02 3.65l-.02 1.91-1.27.1-.04.03-32.92 3.06.98 20.26.26-.09s2.51-.17 3.03 1.11c.39.9.46 1.91.2 2.86-.19 1.16-.92 2-2.8 2.37 0 0 .44 10.4.38 13.13l.15 14.67c.94 15.49 3.14 31.1 3.7 46.53.7 19.06-1.32 38.22-4.7 56.94-.46 2.97 5.07 3 5.39 4.6-1.9 7.03-3.33 13.7-2.7 21.07-17.77-2.32-8.03-22.9-6.85-34.7 2.85-28.5-.68-56.6-1.98-84.96-.33-7.3-.51-14.6-.67-21.9l-1.76-41.35a2 2 0 00-.4-.35c-5.86 1.46-4.15-6.08-1.69-7.52"/><path fill-rule="evenodd" clip-rule="evenodd" fill="#75FAFC" d="M114.06 495.05c-2.11 1.45-6.67 3.58-6.56 3.66-3.55 1.48-18.26 6.2-19.12-2.1.35-5.03-11.64-49.97-9.65-50.72.39-.42-1.75-8.15-1.95-9.58-.23-1.91 1.32 1.06 1.37 1.36-2.99-10.86 9.29-17.6 18.79-11.64 9.3 4.95 13.18 39.4 14.7 48.69-.15-.1 2.66 12.56 3.25 16.8 0 .51-.43 2.77-.83 3.53m-25.4-90.12c-.11.07-.24-.13-.43-.33-.12-.11.52 4.27.36 4.19q-.6-.2-1.2.02c.13-.4.5-.82.45-1.28 0-.37-.36-.91-.65-.57-.13.23-.04.59-.2.8-.85 1.02.19-6.35.22-6.21-.1-.96-2.14-12.39-2.41-12.72a1.7 1.7 0 00-.95-.4c-.92-.3-2.43 2.16-3.74 1.64-4.3-.85-9.74 7.92-15.37 5.75l-.07-.04c1.5 1.06 15.78-11.47 20.36-10.9 5.5 1.57 1.98 7.28 2.78 10.01.11.44.29.17.62.3.54.48 1.58 8.85.23 9.74m-6.64-9.88c-3.85 13.72-29.99 48.59-38.22 47.73-.3-.08-.43-.6-.72-.53a2.3 2.3 0 00-1.44 1.13c.13.1.43.13.5.27-.02.27-12.64 7.22-15.4 6.09.03.04 0 .04-.19-.09-.17-.24-.22-.38-.62-.4q-1.65 1.07-3.3.44c.41-.28 1.08-.6 1.45-.9-.1.17-9.33 2.44-9.73 1.8-.04-.32.63-.46.9-.6-.41-.14-1.83-1.4-.73-1.44 1.03-.33 1.98 1.3 3.38.91q.43-.16.78-.45c-1.01-.23-2.54-1.04-1.8-1.43 2.09-.93 6.89-1.19 8.75-1.57 2.43-.35 2.56 1.24 4.83.05.7-.3.63-1.15-.09-1.1 4.34-.13 20.85-9.04 22.21-13.4.01-.2.44.01.69-.07 1.43-.28 6.52-7.49 6.14-6.13a6.2 6.2 0 003.15-3.5c.52-.24 1.05.4 1.37-.34 1.08-3.2 11-20.75 18.09-26.47m-54.6 70.37c5.15-2.82 17.26-7.5 21.22-1.35 1.85 2.44 6.44 27.31 5.13 28.45a29 29 0 00-.32 3.64c.6-.4 1.22 4.2.8 3.02-.26-.76-.9-2.41-.4-.19.4 1.3-4.6 5.77-5.94 6.17l-.04.01-.35.1q-.04.14-.34.1c-5.35 1.39-12.08.96-13.12-1.9-3.64-6.4-4.33-17.5-6.26-24.95-.32-2.84-2-7.8-1.4-10.97q1.05-.67 1.03-2.13m.23.8l.02.01q.19-.27.41-.5c.04-.19.07-.36-.12-.3-.36.14-.35.6-.48 1zm26.5-2.36c.13.03-1.9-9.85-1.42-13.87.08-.37.5-1.66.8-2.45 4.02-4.74 17.59-6.28 21.39-1.22 4.4 12.32 7.58 50.63 8.23 52.18-4.27 6.88-22.6 7.14-23.4-2.47 2.02-9.8-5.74-22.2-5.6-32.17"/><path fill="#ED1E79" d="M267.24 44.6c.08-.47 1.74-4.92 2.2-6.23.73-.87 1.35 1.22 1.64 1.45.15.04.07-.76.32-1 .83-.47 2.46-.64 3.43-1.07.26-.38-.01-.4.32-.83q1.2.81 2.02-.33.13.2.3.36c8.9.31 19.84-3.4 28.67 1.62.27.23-.02.54-.25.72-.3.33.05 1.33.75.8.65-.38 10.35 5.19 10.3 5.03.14.42-1.28-.27-1.14.31q1.2 2.7 3.54 1.91.34.82-.45 1.38c.1.22 1.36.23 1.39.4a1 1 0 01-.2.27c.76-.78 1.8 5.9 2.22 5 5.59-18.08-27.1-26.81-26.97-26.64.13.19-3.59-.1-4.94-1.09.23-.29.37-.5.25-.57-2.42-.8-12.3-.9-14 .55-.58.64.42 2.05-.39 2.07-20.32.43-27.28 12.43-34.42 19.96-1.08.99.69-1.97.1-2.45-.03-.03-4.32.7-4.49.98.2-.34.34-.6.1-.59-.27-.15-1.52.37-1.65.51q-.53.63-1.35.8c-.08-.08-.04-.23-.08-.35a3.4 3.4 0 01-2.63-.24c-1.04 3.54 4.4 5.69 8.92 9.2 2.95 2.88.26 10.39.26 10.39l-3.87-.62s-.01-1-.38-1.37c-.77.98-1.25 2.56-2.2 3.39-.28.16.6-2.3.12-2.67-.41-.47-3.63 1.63-3.95 1.8-.71.38.4-1.05-.1-.9q-.45.63-1.18.9c-.07-.07-.15-.19-.22-.24-.22.38-.5.35-.74.12-.16.01-2.26 1.14-3.1.62-.64 3.99 14.1 10.07 16.51 8.08.24-.19.19-.9.18-1.07-.04-.67 2.68 3.61 4.45 2.3-.66.36 4.26 8.15 4.21 8.04q-.99 1.34-.12 3.09c.23.25.48.13.73.2.87.43.52 7.81 4.5 6.62l-.03.06c.36 1 2.44 6.24 3.82 6.14.47-.06 3.62.18 3.85 1.49-.69-.58.58.54 1.56.73.33.75-.32 1.82.6 2.3 1.4.7 4.94 3.85 5.9 4.21 1.52.69 14.43 2.69 14.57 2.41q1.7 2.01 3.4 1.25c-.03-.43-.36-.9-.35-1.36 0-.2 1.4-.8 1.59-.95q2.14-.2 3.83 1.38c-.58-.46 2.31-.58 2.87-.55.1-.19 3.23-1.58 2.37-1.07q1.2-.75 2.54-.3c.04.2-.15.69.17.6.6 0 1.83-.1 1.83-.1-.17.38 1-3.87 1.67-3 .12.12.13.4.18.54.49-.7.36-2.26-.54-1.74-.8.67-3.07 1.7-2.54 1.2.17-2.17-6.1 2.41-6.55 2.92a5 5 0 00-.3-2.22c-1 .1-4.83-1.41-5.2-.95-.08.14-.08.4-.1.63-.29-.69-5.4-.2-5.44-.19a4 4 0 01-.86-1.86c.25-.06-6.69-1.93-9.1-3.8-1.82-1.52-22.97-19.24-16.45-23.54 2.86-.82 18.69 4.66 17.56 1.37.5 1.05.93.24 1.66.97 1.22 1.33 1.7-1.7 2.76-2.12q.35.96 1.17.59c.26.39 1.31.68 1.31.68.01 0 1.03-2.4 1.55-1.9q.25.3.39.66-.81 1.22-1.46 2.54 1.8-.84 1.91-3.02.9 1.39 2.8.53c.38.29.54 1.35.85 1.49q1.1-.74 2.18-1.52c.25-.2 5.15 1.43 5.23 1.62-.77-.61 1.34-2.55 1.3-2.73-.1-.43.82 2.9 1.14 2.22.48-2.44 3.73-.19 3.83.22q.47-1.2 1.16-2.29c.3-.28.25.51.35.27.24-.41.33-.9.25-1.36-.31-.4-1.64 1.23-2 1.4q-.49-.8.34-1.63-1.04.66-1.84-.2-.18 1.26-1.19 1.67c0-.42-.3-3.4-1.65-3.34-.56 0-.38 2.1-1.18.53-.2-.44-1.6-1.4-1.79-.4q-.03-.33-.4-.47c-.01-.37.25-.52.5-.77.6-.67-4.75.01-4.5.47-.37-.33-.1-1.3-.46-1.62-2.83-.1-6.87-.19-10.07-1.1-.21-.1-.24-.36-.34-.5a6 6 0 00-2.66.58c.07-.43.38-.75.1-1.07-1.24-1.2-5.63-.22-7.51-.14-.37.03-.25-1.35-.36-1.82q-.15.74-.7 1.29c-.07-.32.2-1.23.15-1.55q-1.01.4-2.1.08c.35 1.68-3.26 2.33-5.24 2.82.44-1.51.77-3.34.64-3.25-.5.16-4.33 1.85-2.98 2.86.03.03.29 0 .42-.04.3 0 .28.34.3.67.06.71-.85 2.19-1.25.82q-.2-1.1-1.33-1.06c0-.03-.08-4.55.04-4.04-.06-.79-.41.79-.54.65-.08-.29-.6-1.87-.72-1.84a24 24 0 001.97-.81c.1-.24-2 .26-2.16-.18q1.16-.78 2.46-1.3-2.1-1.38-.8-3.44c.35-.2.56-.14.85-.18q-1.04-.65-1.7-1.68 0-.44.3-.48c6.65 2.22 30.7 3.47 34.06 6.65.26.45.38 1.38 1.04 1.54.39.05.46-.77.38-.76-.22-.2.16-.8.54-1.03.92-.5.95-1.62 1.57-.02q-1.74.96-1.31 2.64c.86-1 1.72-1.49 1.78-2.84.36.6 3.01.35 3 .34.37.3.5 1.28.8 1.5.64-.07 5.9-.04 6.08.12q.46-.2.63-.67c.71-1.58 1.14.5 1.29 1.06-.36-.8.97-2.26 1.36-2.84-.59.31 1.1 2.23 1.26 2.47q.13-.08.1-.25 1.57.3 1.72-1.28c.25-.42 2.57 1.92 2.3 1.95.37-.22.9-1.84 1.32-2.3.36-.3.22.6.39.22.24-.4.34-.87.28-1.33-.25-.36-2.6 1.67-2.5 1.14q.32-.34.67-.65c-2.6-1.77-3.33 1.1-3.24.6.01-.62 1.03-1.52.15-1.8-.29-.16-4.29-1.8-3.98-1.88-.7-.15-.64.56-1.01.9q.21-.81-.46-1.11c.23-.42-3.86-1.03-4.24-.62q.2-1.13-.67-1.48c-2.24 1.52-7.64-1.63-10.44-1.7-3.43-1.26-6.92-1.63-11.1-1.91a2.4 2.4 0 00-.48-1.34c-.08.77-.39 1.6-.6.7q.04-.69.23-1.35a6 6 0 00-2.23-.27c.41 2.5-9.75.56-8.22 1.76.06.06.3.02.46 0q.75 1.11-.57 2.01c-1.13-.2.1-1.85-1.66-1.39-.27.03-.24.35-.27.57q-.03.06-.09-.02c-.23-.64-.04-4.68.27-5.08q-.3.03-.6 0c-.32.4-2.04 3.27-3.05 2.4-.07-.12-.37-8.22-1.14-7.55-.4.26-.33 1.04-.64 1.25a1.2 1.2 0 01-1.29-.27q-.8-1.57 1.3-2.47c.24 0 1.88-1.09 1.98-2.04"/></svg>