<?xml version="1.0" encoding="utf-8"?>
<!-- Generator: Adobe Illustrator 16.0.0, SVG Export Plug-In . SVG Version: 6.00 Build 0)  -->
<!DOCTYPE svg PUBLIC "-//W3C//DTD SVG 1.1//EN" "http://www.w3.org/Graphics/SVG/1.1/DTD/svg11.dtd">
<svg version="1.1" id="drawing" xmlns="http://www.w3.org/2000/svg" xmlns:xlink="http://www.w3.org/1999/xlink" x="0px" y="0px"
	 width="588.941px" height="451.32px" viewBox="0 0 588.941 451.32" enable-background="new 0 0 588.941 451.32"
	 xml:space="preserve">
<path id="poly" fill="#9CF682" d="M55.01,210.68L355.871,13.31l138.639,251.719L384.27,451.32L100.44,393.06L55,210.67L55.01,210.68
	z"/>
<path id="bg" fill-rule="evenodd" clip-rule="evenodd" fill="#FFFFFF" d="M451.037,301.696c-18.561-23.281-19.65,3.52-36.32-2.19
	c-11.121,0.34-5.77,21.84-26.43,19.97c-22.82,0.25,1.51,2.04-23.371,25.97c-3.898,5.37-21.02-8.59-24.6-10.3
	c-4.68-11-11.32-11.6-21.811-8.63c-5.398,3.73-13.43,27.311,0.41,25.75c4.711,2.23,7.99,21.9,4.611,25.55
	c-18.131,3.17-6.83,39.24-16.461,47.181c-19.238,15.55-170.809-18.49-190.359-27.53c-0.7-21.35-12.86-57.36-6.1-77.8
	c1.88-8.811,14.26,3.93,15.86-5.21l9.78-92.721c0.88-9.149-19.15-1.19-23.17-1.93c-17.06-8.07-17.71-11.45-18.5-29.15
	c-16.58-19.99,0.08-23.85-8.01-52.94c8.25-34.44,31.41,9.13,21.05-37.97c-2.22-4.83,20.74-14.619,22.54-17.22
	c4.41-2.86,19.07,8.03,23.64,6.71c15.09-7.57,37.16-0.24,53.19,0.16c4.06,0.5,18.85,14.18,23.14,13.03
	c28.71-1.98,30.21-28.4,47.58-15.971c9.449,3.521,4.59-13.6,5.141-17.619c1.42-3.91,22.189-26.851,25.459-15.95
	c-10.551,31.88-0.82,15.59,8.41,38.93c-2.211,13.52-16.631,28.271-8.121,40.59c2.641,5.52,22.531,1.52,23.32-2.64
	c6.26-32.66,23.57-1.29,30.5,13.22c111.6,41.82,71.111,8.07,69.531,111.9c1.67,0.99,12.709,2.311,12.83,5.55
	C443.015,263.846,469.085,309.605,451.037,301.696z M399.976,373.056l50.68,3.33l-13.891,50.22l-51.59,2.42l14.801-55.979V373.056z"
	/>
<path id="line" fill-rule="evenodd" clip-rule="evenodd" fill="#060605" d="M568.25,199.38c-14.639,0-20.93-11.69-20.93-23.5
	c0-10.27,6.291-23.63,20.68-23.63c14.381,0,20.93,12.33,20.93,23.5C588.929,185.9,582.89,199.38,568.25,199.38z M568.259,157.26
	c-5.779,0-7.189,9.12-7.189,18.37c0,9.89,2.18,18.75,7.32,18.75c5.65,0,6.811-10.15,6.811-18.75
	C575.201,166.38,573.66,157.26,568.259,157.26z M515.849,200.41l0.004-0.005l0.008,0.005H515.849z M510.849,196.94l53.811-81.3
	l4.881,3.6l-53.688,81.165L510.849,196.94z M512.781,163.42c-14.771,0-20.811-11.69-20.811-23.63c0-10.15,6.42-23.5,20.811-23.5
	c14.51,0,20.809,13.36,20.809,23.5S527.55,163.42,512.781,163.42z M513.031,121.3c-5.781,0-7.32,9.63-7.32,18.24
	s1.539,18.88,7.32,18.88c5.779,0,6.809-10.15,6.809-18.75C519.839,130.55,518.81,121.3,513.031,121.3z M453.81,306.77
	c-5.189-1.41-15.51-13.649-17.58-13.649c-4.77,2.53-14.539,11.819-19.859,10.93c-4.811-0.79-16.041-13.89-17.361-13.89
	c-3.52,2.64-8.809,10.77-13.148,11.04c-5.631,0.34-13.051-8.54-17.16-11.86c-7.93,1.561-25.02,12.11-30.34,2.08
	c-0.744-1.313-1.018-2.84-0.781-4.33c4.453-12.483,10.568-24.31,18.18-35.16c2.682-2.289,5.861-3.93,9.291-4.779l0.01,0.01
	c7.961-0.52,15.949-0.25,23.859,0.8c14.74,0.399,31.83-0.37,46.291,0.979c14.18,1.32,17.189,8.631,21.66,20.58
	c3.5,9.211,6.109,18.73,7.789,28.44C465.541,305.01,460.621,308.62,453.81,306.77z M438.759,259.48
	c-1.262-0.532-2.645-0.709-4-0.511c-0.709,0.63,5.82,14.8,1.51,15.05c-3.619,0.211-4.51-12.119-5.67-14.93l-47.1-2.1
	c-0.52,2.779-2.709,17.619-4.58,18.05c-5.91,1.44,1.371-17.28,0.512-18.09c-5.012-0.75-10.121-0.14-14.811,1.76
	c-5.561,3.58-9.201,17.38-12.34,23.351c10.779-0.221,10.479-13.471,14.219-20.961l3.881-0.14l-5.02,16.08
	c9.57-3.83,12.34,7.239,20.109,9.05c-0.17-2.09-0.27-16.88,3.52-16.08c3.971,4.25-1.439,10.26,1.01,15.08l7.381-6.699l1.109-17.99
	l3.029-0.41h0.012v16.59l15.08,13.58v-25.67l2.5-1.51l1.52,1.51v18.1c0,0.88,0.379,5.48,1.5,5.51c4.26-1.83,11.08-9.55,15.609-8.58
	c5.08,1.08,9.57,9,14.1,11.621C451.08,285.391,443.08,261.54,438.759,259.48z M190.99,154.11c-2.435,1.86-5.181,3.272-8.11,4.17
	C170.88,147.27,198.57,145.5,190.99,154.11z M200.101,104.36c11.85-2.07,23.18,13.43,23.979,23.88c0.76,9.83-22.91,9.69-28.5,7.31
	C188.02,132.33,186.63,106.72,200.101,104.36z M228.42,313.89l3.99-0.449C237.57,325.21,223.971,326.01,228.42,313.89z
	 M243.48,311.39c1.859,1.25,0.74,12.12-1.51,12.9C233.12,327.35,237.26,307.18,243.48,311.39z M437.06,244.68
	c-8.279,6.641-15.41,0.471-11.381-9.8c-3.029,0.44-3.699,2.91-7.318,1.83c-7.541-6.601-14.23-14.11-19.91-22.37
	c-1.668-2.722-1.473-6.192,0.49-8.71c5.609-6.66,17.77,5.689,23.449,8.01c3.271-1.231,6.322-2.98,9.039-5.18
	c2.111-7.06,3.84-14.23,5.191-21.47c0.5-3.13,1.76-10.82,0.189-13.03c-6.199-3.511-12.953-5.936-19.971-7.17
	c-31.049-8.65-63.1-14.5-94.77-20.41c3.09,18.646-0.309,37.788-9.629,54.23c-18.501,29.08-45.76,17.97-57.611-9.62
	c-1.47-3.43-4.03-14.34-5.08-15.82c-1.66-2.31-17.96-3-1.23-11.27c-1.42-9.171-1.18-18.523,0.71-27.61
	c-1.63-2.16-13.82-0.67-16.371-4.29c-1.07-1.52-2.37-9.84-3.52-13.03c-5.119-13.62-16.53-27.12-32.439-25.87
	c-14.2,1.11-18.78,15.22-17.62,27.68c0.75,8.29,5.78,15.78,6.11,23.89c-3.93,3.33-7.48,5.23-12.09,1.72
	c4.62,19.42-4.42,39.52-22.02,48.95l-16.12,120.38c14.85,9.5,31.08,16.66,48.12,21.2c16.82,5,60.85,15.12,76.42,10.04
	c8.48-2.77,27.17-17.7,27.19,0.53c6.123-0.032,12.215-0.869,18.121-2.49c5.449-2.02,1.67-8.41,3.889-13.01
	c-0.41-1.181-1.289-1.391-2.41-1.59c-5.52-0.95-14.17-0.45-20.109-1.011c-11.45-1.08-22.91-2.77-34.3-3.92
	c-4.97-2.08-4.93-11.45,0.56-12.739l71.449,6.109c5.391,6.08,6.641,13.86-4.029,12.561l-1,11.09
	c11.201-0.95,11.609,11.2,12.07,19.62c0.77,14.43-0.99,17.47-13.061,25.31l-1.129,35.85c-0.881,2.641-11.451,2.19-12.49,0.7
	l1.23-43.069c2.58-3.61,15.18-7.5,16.25-11c0.879-2.78-2.381-16.9-7.182-16.11l-29.869,5.74c-1.74,19.92-2.42,39.918-2.041,59.91
	c0.25,5.199,5.461,17.409-5.449,15.56c-5.48-0.93-6.44-15.78-6.63-20.58c-0.209-5.49,1.03-10.28,1.09-15.08
	c-0.84-15.34,0.16-30.72,2.979-45.82c-6.561,4-13.956,6.43-21.609,7.101c-37.105-1.61-73.573-10.207-107.49-25.34
	c-3.95-1.971-27.49-18.04-29.791-15.971l-3.88,15.5c0.56,2.36,11.15,3.801,12.69,11.381c1.07,14.01,1.12,28.079,0.14,42.1
	c-0.06,5.29,1.87,9.37-6.589,10.479c-11.25,1.461-6.531-13.47-6.411-19.529c0.19-9.69-0.24-19.38,0-29
	c-16.01-6.891-12.82-17.271-7.79-31.141c3.79-10.449,7.33-14.1,18.81-9.84l10.06-83.47c-17.12,4.76-39.83-7.49-42.16-25.72
	c-0.33-2.55,0.69-10.07,0.42-10.53c-2.073-1.589-4.062-3.285-5.96-5.08c-4.25-5.51-5.9-12.6-4.53-19.43c0.4-2.78,2.74-6,2.64-7.93
	c-0.099-1.93-2.07-5.83-2.47-8.48c-2.8-18.84,1.61-34.2,23.92-32.46c0.44-4.89-0.71-10.86,0-15.59v0.03
	c2.488-11.149,10.689-20.149,21.56-23.66c10.468-2.037,21.149,2.316,27.21,11.09c8.649-6.39,15.37-14.24,27.37-10.29
	c2.289,0.75,4.909,3.74,6.919,3.98c3.18,0.37,9.49-1.08,13.96-0.71c9.009,0.82,17.649,3.99,25.06,9.19c1.1,0.79,1.55,2.81,2.28,2.93
	c1.71,0.29,4.77-1.76,6.96-2c3.899-0.38,7.88,0.11,11.78-0.06C253.02,79.11,266.39,73,278.77,76.97
	c-1.95-14.58,14.101-35.54,29.44-32.95c14.93,2.52,3,21.67,3.891,25.2c0.34,1.33,4.699,4.8,6.1,7.05
	c5.35,11.147,5.199,24.151-0.41,35.17c-1.012,2.823-3.139,5.107-5.881,6.32l5.111,12.5l9.969-3.09
	c-0.4-13.09,9.27-29.18,23.24-18.56c10.27,7.82,10.67,22.91,14.041,34.23c19.059,5.29,38.879,8.48,57.979,13.44
	c12.291,3.19,32.121,7.3,29.59,23.79L437.06,244.68z M123.37,215.17c1.62-0.03,3.23-0.25,4.8-0.66c9.39-1.7,8.38-9.18,9.811-16.86
	c-3.44,0.13-6.891,0.05-10.32-0.25c-4.232-1.511-8.355-3.312-12.34-5.39c-2.16-0.19-9.44,3.37-12.61,3.19
	C102.9,206.42,112.15,215.36,123.37,215.17z M107.81,182.569l0.55-11.089c-5.971-0.539-11.703-2.609-16.64-6.01
	C88.102,176.086,98.323,182.605,107.81,182.569z M160.2,113.62c-4.27-2.72-5.02-5.51-11.9-2.7c-3.04,1.23-9.54,13.99-13.85,5.29
	c-2.93-5.91,6.68-15.52,12.58-16.12h0.01c-10.78-23.36-34.63-9.67-30.939,13.31c0.79,4.93,7.41,13.86,0.52,17.09
	c-5.51,2.59-18.439-7.72-23.22,0c-5.62,8.479-3.3,19.91,5.18,25.54c4.5,2.98,10.08,3.84,15.26,2.35c-3.34-4.78-3.2-19.09,4.5-19.17
	c9.75-0.1,2.7,9.42,5.67,14.55c3.8,6.56,13.67,2.09,14.1,9.16c0.45,8.39-11.08,5.4-16.14,3.52c-12.85,27.64,24.37,23.61,35.6,7.93
	c5.892-10.227,6.378-22.696,1.3-33.35c-5.98-12.52-15.48,8.29-18.56,9.14c-5.03,1.37-7.129-4.14-5.54-8.64
	c3.578-8.567,11.579-14.47,20.82-15.36c5.86,0.05,11.23,6.94,10.57-4.41C165.67,113.49,164.23,116.18,160.2,113.62z M175.213,88.04
	c-1.617-1.378-15.424,8.643-12.633,13.03l4.56,2.02c-1.61-3.44,9.06-14.12,8.05-15.05H175.213z M253.52,118.92
	c-0.339-1.41-3.88-3.83-5.089-6.04c-1.491-3.37-2.5-6.93-3-10.58c-1.561-1.07-9.561-1.93-8.71,1.14c1.51,5.52,8.5,11.3,8.079,18.61
	C248.52,122.98,254.99,124.98,253.52,118.92z M260.7,162.95l1.51,1.51h27.161c2.039,0,8.75,2.33,9.42,4.73
	c2.16,7.69-11.271,5-13.99,6.78c-0.949,0.63-1.42,3.97-2.51,5.54c-6.32,9.09-15.06,4.29-16.56-4.99c-5-0.11-1.521,7.45-0.48,10.04
	c5.36,13.16,19.94,27.31,33.21,14.1c11.82-11.72,13.311-40.25,9.23-55.55c-2.111-7.88-11.08-28.97-19.541-30.73
	c-15.52-3.2-26.169,15.28-27.419,28.46l-0.03-0.01C260.09,149.24,261.15,156.43,260.7,162.95z M306.521,79.94
	c-3.211-3.05-9.441-1.7-9.691-7.48c-0.26-4.62,7.57-10.93,7.121-16.58l0.01-0.02c-8.471,3.359-14.211,11.341-14.701,20.44
	c0,4.66,4.41,13.99,1.761,17.36c-7.149,5.34-11.26-4.24-17.38-5.96c-11.59-3.27-21.4,12.45-14.85,22.4c3.61,0.7,5.05-3.15,7.51-4.94
	c9.381-8.12,23.19-8.49,33-0.88c1.92,1.27,4.73,5.69,6.74,4.41c2.674-5.031,4.377-10.52,5.02-16.18
	C310.89,87.95,309.3,83.56,306.521,79.94z M341.181,118.2l-1.891,18.99l11.93,3.13C352.871,138.05,347.169,117.98,341.181,118.2z
	 M408.009,47.32h-5.379V27.64h-17.949v-4.8h17.949V4.89h5.379v17.95h17.861v4.8h-17.861V47.32z M232.28,7.93
	c-0.49,0-0.87,0-1.14-0.02c-0.27-0.01-0.54-0.03-0.79-0.06h-0.031c0,0.44-0.03,1.07-0.08,1.9c-0.15,5.62-0.23,9.58-0.23,11.88v3.17
	c0,4.36,0.221,7.11,0.66,8.26c0.44,1.15,1.25,1.72,2.44,1.72c1.47,0,2.571-0.75,3.31-2.24c0.74-1.5,1.17-3.86,1.301-7.08h1.969v0.39
	c0,4.23-0.68,7.34-2.03,9.34c-1.35,2-3.479,3-6.36,3c-2.88,0-5.13-1.04-6.34-3.11c-1.21-2.08-1.82-6.42-1.82-13.02
	c0-0.8,0.041-2.87,0.12-6.21c0.08-3.34,0.141-6.08,0.19-8.22c-0.95-0.05-2.27-0.1-3.95-0.14c-1.68-0.04-3.71-0.07-6.11-0.1
	c0,12.23-0.6,20.41-1.8,24.57c-1.2,4.16-3.32,6.23-6.359,6.23c-1.86,0-3.24-0.75-4.161-2.26c-0.919-1.51-1.37-3.78-1.37-6.83v-1.51
	h1.9c0.05,1.44,0.31,2.5,0.77,3.15c0.46,0.65,1.19,0.99,2.17,0.99c2.17,0,3.7-1.64,4.6-4.93s1.42-9.76,1.55-19.4h-1.74
	c-1.99,0-3.56,0.35-4.72,1.04c-1.161,0.69-1.88,1.74-2.17,3.13h-1.82c0.18-3.61,1.19-6.14,3.02-7.58c1.83-1.44,5.03-2.17,9.591-2.17
	c0.899,0,3.589,0.08,8.069,0.25c4.47,0.17,8.49,0.25,12.051,0.25c1.75,0,3.06-0.19,3.93-0.56c0.859-0.37,1.3-0.93,1.3-1.68V0h1.82
	v0.23c0,2.71-0.61,4.67-1.839,5.88C236.95,7.32,234.99,7.93,232.28,7.93z M89.95,268.75c-2.94-0.87-5.41-1.311-7.41-1.311
	c-1.689,0-2.939,0.381-3.75,1.121c-0.81,0.739-1.48,2.469-2.02,5.159l-0.52,2.62H86l-1.73,9.891h-9.61l-8.11,45.84
	c-0.619,3.72-1.449,6.479-2.46,8.3c-1.01,1.819-2.54,3.26-4.57,4.34s-4.83,1.62-8.39,1.62c-4.88,0-9.25-0.62-13.12-1.88l2.67-10.36
	c3.409,0.72,6.02,1.08,7.83,1.08c1.94,0,3.3-0.59,4.08-1.78c0.62-0.91,1.2-2.979,1.73-6.229l7.031-40.92H51.88l1.69-9.891h9.47
	l0.75-4.17c0.88-4.779,1.62-7.84,2.25-9.189c1-2.061,2.38-3.62,4.12-4.69c2.31-1.38,5.58-2.06,9.8-2.06
	c4.221,0,8.391,0.64,12.521,1.92L89.95,268.75z M29.26,120.81v-4.15c5.12-0.85,5.12-2.07,2.93-5.73l-6.1-10.24
	c-2.32,3.29-4.88,7.07-6.58,10c-1.95,3.41-1.83,5.12,3.66,5.97v4.15H0v-4.15c6.71-1.34,9.14-2.68,13.29-7.56
	c2.93-3.54,6.22-8.05,9.88-13.17L12.44,78.74c-3.66-5.73-4.88-7.07-11.459-7.93v-4.15h29.14v4.15c-4.02,0.85-4.88,1.95-3.17,4.76
	l5.85,9.27c2.56-3.54,4.881-7.07,6.22-9.27c1.581-2.8,0.98-4.02-3.9-4.76v-4.15h22.561v4.15c-6.83,0.98-8.661,1.34-13.17,7.07
	c-1.83,2.19-4.63,5.73-8.9,11.34l11.71,18.29c4.15,6.58,7.07,8.41,12.56,9.15v4.15H29.27H29.26z M125.67,401.06
	c6.34,8.061-9.76,12.99-12.34,7.82C109.55,401.2,120.06,397.65,125.67,401.06z M251.36,370.83c15.28-3.521,14.67,23.1,1.76,23.97
	C239.79,395.72,241.851,373,251.36,370.83z M252.19,390.78c7.22,0.689,9.08-17.141,1.2-16v-0.011
	C247.05,375.65,245.39,390.14,252.19,390.78z M252.37,405.03c15.18-3.471,13.22,23.97,0.79,23.97
	C241.81,429,243.02,407.16,252.37,405.03z M253.15,424.98c5.49,0,8.26-14.511,2.82-16c-0.846-0.275-1.756-0.275-2.601,0v-0.011
	C247.931,410.49,247.95,425,253.15,424.98z M322.06,293.16c-0.59-0.41-5.789,1.98-6.93-1.689c-2.711-8.611,16.189-10.101,7.939,1.67
	c8.16-1.891,8.611,6.56,13.59,11.069c11.051,10.01,25.4,9.42,39.271,9.09c5-0.109,12.699-3.899,13.529,4.58
	c0.6,6.05-14.471,27.42-19.641,31.561c-16.799,13.43-25.029-0.811-32.84-14.391c-3.369-5.84-17.209-31.45-17-36.36
	C320.22,296.71,320.931,294.811,322.06,293.16z M364.681,342.28c8.93-4.58,10.738-14.98-1.371-16.971l2,10.07
	c-6.039,2.101-5.9-9.13-10.709-9.95c-3.102,0.351-5.391,3.051-5.221,6.17C350.791,338.6,356.839,346.3,364.681,342.28z
	 M403.519,343.94c1.172-2.94,4.5-7.051,4.852-8.23c1.6-5.67-0.121-15.81,5.289-20.86c3.68-3.43,12.801-4.13,14.59,1.391
	c1.17,3.64-0.25,18.5,0.441,19.17c7.93-1.53,29.078,5.37,30.969,13.78c-1.01,12.009-3.111,23.901-6.279,35.529
	c-2.361,14.118-5.99,27.994-10.84,41.46c-2.551,4.7-7.93,5.86-9.531,0.11l8.811-37.58c-5.68-0.44-12.129,0.63-17.65,0
	c-7.42-1.63-14.66-4-21.619-7.05c-2.061,1.84-7.23,40.67-12.02,46.57c-2.451,3.02-8.68,3.97-9.07-1.86
	c1.221-10.11,3.32-20.09,6.27-29.83C391.968,378.715,397.24,361.152,403.519,343.94z M518.439,348.74l24.191-65.391h8.949v4.5h-0.02
	h-5.48l-27.84,75.28h-3.09l-14.949-41.39l-5.861,2.109l-1.17-3.75l13.27-4.59L518.439,348.74z"/>
</svg>
