<svg xmlns="http://www.w3.org/2000/svg" viewBox="0 0 140 140"><path fill="#FFF" d="M52.64 102l-3.8 9.3-14.32 2.29L16.5 92.95l-1.2-26.4 8.26-3.52-4.3-7.49 5.38-7.16-13.5-5.81-1.51-20.94 14.78-9.14 11 4.2 6.41-.82 15.4-5.26 41.3 5.32 9.4 32.73-1.5 36.05 25.78 17.05-.61 35.53-61.35-4.04z"/><path fill-rule="evenodd" clip-rule="evenodd" fill="#060605" d="M124.47 106.7l-.6.33c-.6.11-1.01-.32-1.47-.6a87 87 0 01-7.94-6.28c-3.83-3.14-7.46-6.55-11.24-9.75l-.35-.1c-.7.33-1.94 1.2-2.7 1.19-.82-.01-1.91-1.03-2.56-1.3v-.01c-.1-.79-1.78-3.05-2.23-4.01-.98-2-1.6-4.15-1.82-6.36 0-1.42.67-1.59 1.22-.26.43 1.04.63 2.43 1.07 3.56 1.02 2.57 2.53 4.85 3.42 7.46l2.34-1.4c-3.53-2.66-3.55-6.85-4.38-10.84l-3.64.02.1-1.1 2.83-.54c.75-.48-.16-5.97.19-7.18q-1.36-.04-2.65-.46c-.6-.08-.48.18-.47.67.06 1.58.79 4.64.46 5.95-.1.4-.28.73-.75.66-.72-.22-1.11-5.98-1.1-6.98.03-.87.73-6.66 1.02-6.84.27-.1.83.3.82.48l-.32 4.77c.69.85 2.07.43 3.06.62l.29-12.95-4.26 7.06c-4.75 2.48-1.15-2.76-.28-4.55 1.11-2.3 4.42-8.2 4.76-10.28.4-2.48-4.24-11.82-2.22-13.09l.7.18c.88 3.4 2.94 7.2 3.68 10.53.86 3.83-.74 3.98-.94 6.49-.03.4.4.71.42 1.11.38 7.78-1 16-.01 23.82.4 3.23 1.02 7.44 3.3 9.8 4.06 4.17 10.4 8.93 15 12.8 1.8 1.5 5.28 3.72 6.66 5.28.54.63 1 1.26.6 2.1M95.21 92.43c-.44.28-1.65 2.42-2.22 1.4a3.52 3.52 0 014.62-3.64c.25 2.17-1.28 1.52-2.4 2.24m-3.66-60.04c.38-.36.8-.55 1.19-.9.41-.01.84.07 1.26.07.95.19-1.67 2.73-2.45.83m-.52-.87c-.56-.37.12-1.14.06-1.24-.07-.13-1.23-.44-1.03-1.08.11-.35 2.15-1.2 2.6-.7.52.4-.2 1.02-.07 1.24.07.12.94.39 1.05.82q-.51.4-.9.92c-.52 0-1.32.33-1.71.04m-62.9-3.86c.04 1.5-2.32 1.28-1.7.32.06-.1.94.24.28-.44l-1.77-.3-.42-.82c1.02-.44 3.56-.1 3.6 1.24m-3.63 1.3c.46 2.12-3.05 2.26-2.69 0 .31-1.97 2.4-1.12 1.88-.61-.17.12-.59.16-.67.29q-.17.51-.13 1.05c.53.72 1.1-1.54 1.6-.74m14.84 3.02c-.72 3.23-4.93 2.87-2.78-.4q-1.1-1.06-2.38-1.87c-1.18-.42-2.83 2.4-3.88.76-.39-.94 2.6-3 3.4-3.11 1.46-.21 6 2.99 5.64 4.62m.46-1.36c-.41-2.07 2.6.6 2.68 1.65a5.5 5.5 0 01-1.68 2.75c-.4.26-.88.36-1.35.28-.15-1.32.76-2.04 1.58-2.9.14-.56-1.12-1.21-1.23-1.78m4.35 1.89c-1.14-4.56 6.61-1.15 3.71 1.37-.46-1.66-1.02-2.2-2.8-2.44l.1.85zm14.45-5.39c1.88 1-.24 3.36-1.87 2.83l.97-1.9-2.21 1.53c-1.26-.05.75-3.72 3.11-2.46m3.57-2.73c-.87-.13-.93.7-.94 1.35-2.2-.58-.46-3.06 1.37-2.4 1.84.67-.37 4.56-.43 1.05m1.23 5.94c-.5.26-1.08.34-1.64.24-.15-.56.37-.82.5-1.11.78-1.96-1.86.12-2 .16-.9.31-.14-1.6.92-1.98 2.23-.8 3.5 1.57 2.22 2.69m9.63 30.31c-.07 1.28-2.56 1.05-2.97.09-.99-2.34 2.44-4.1 3.07-1.5-1.13-.38-1.49-.39-2.29.56.5.86 1.28.85 2.2.85m4.86-5.19c-1.5 2.32-4.48.58-3.4-2.06.64-1.58 2.95-.47 2.4.17l-1.41.2c-.1.37-.09.77.06 1.12.61 1.47 2.7-.61 2.35.57m11.6-13.33c-.55.83-.78-.28-1.24-.22-.96.7-.88 1.96-.9 3.03l1.35.53c-3.43 2.97-3.3-5.05.12-4.62zm-4.53 3.27c1.39-.1.99 2.64.33 3.11-1.93 1.37-2.73-2.92-.33-3.1m-.64 2.46c.73-.17.64-1.03.67-1.65-.73.17-.64 1.03-.67 1.65m1.46-7.23c.48 0 .52 1.46-.09 1.7l-.87.22c-1.93-.3-.5-4.65 1.05-4.15 1.12.36.79 2.5-.43 1.07l-.41 1.95c.43.12.44-.79.75-.8m-7.9-1.94c-.05-2 4.89-1.53 5.43-.14.45 1.17-1.19 6.94-2.38 7.1a.6.6 0 01-.63-.5c-.32-1.33 1.75-5.33 1.37-5.94zm9.7-6.13c.1.64-.34 1.23-.98 1.33h-.23l1.08.64c.06 1.55-3.94.44-4.43-.08-.8-.85-.57-3.98-1.73-4.84.13 3.3-3.25 9.46-7.14 6.92-2.9-1.9-1.19-6.84-.52-9.47.1-.36.57-.51-.17-.5a16.5 16.5 0 00-5.27 9.24l-.85-.18c-1.43-1.2 2.41-7.54 3.46-8.76 5.95-6.95 13.51-1.48 14.22 6.1zm4.03 2.3c.74 1 .71 2.38-.07 3.34-3.28 1.33-2.12-4.78.07-3.34m-.84.73l-.4 1.67.85.05c.08-.07.1-1.71-.45-1.71m2.6 16.1c-3.4 2.55-2.77-4.3-.72-5.06a1 1 0 011.25 1.3l-1.09-.36c-.35.94-1.63 3-.55 3.8.43.31 1.3-.56 1.1.32m19.52 61.22c-.77-.28-.18-1.57.4-1.67.96-.16.9 2.12-.4 1.67m-.82-.33l-1 .2.1-1.68 1.12.08zM47.8 49.52c-2.19 1.67-4.48-3.09-2.97-3.4 1.75.07 5.47 1.49 2.97 3.4m-1.63-.8c1.24 0 .95-.93-.22-.86zm-9.26 1.95c1.75-.47 4.07 2.63 3.06 4.4-.47.82-3.53 1.53-3.8.41-.06-.22-.16-2.71-.13-3.06.04-.47.38-1.62.87-1.75m1.5 3.69c.44-.66-.34-1.69-.95-1.99l-.16 2.53zm52.43-26.97c-2.08.53-2.28-4.57-3.9-5.54a36 36 0 00-6.6-1.62 22 22 0 00-6.68-.08c-1.92.48-8.14 6.55-8.68 6.4-.96-.8.42-2.1 1.02-2.75 1.04-1.15 2.84-2 3.47-3.44l-4.9-.32q-2.4.65-4.68 1.61c-1.02.43-6.22 3.4-6.64 3.28-.45-.12-.32-.43-.15-.76.98-1.94 6.69-4.53 8.85-5.15-4.4-3.94-10.77 2.87-14.46 5.4 1.6.38 2.93-1.43 4.48-1.55 1.12.27-.04 1.42-.56 1.78-3.46 2.4-11.86 3.48-15.6 1.53-1.71-.89-4.8-4.5-5.87-4.91q-2.38-.54-4.8-.33a7 7 0 00-3.53 2.46c1.12-.09 2.1-.71 3.28-.64.41.03.51-.02.4.47-.3 1.3-5.48 2.51-6.73 3.5-2.34 1.83-.9 6.46-.11 8.89 3.44.18 7.2-.28 10.55.76 2.02.62 6.62 3.94 7.97 4.08 1.79.18 5.5-1.1 7.74-1.1 6.11-.05 8.48 6.34 12.79 6.73 1.72.15 7.3-1.3 9.26-1.8q4.95-1.3 9.72-3.1c.73-.3 4.48-2.82 4.69-1.3q-.54 1.17-1.23 2.22c-1.26 1.98-5.34 6.68-7.4 7.56-2.27.97-5.47 1-7.91 1.24l-2.87 6.47c-9.73 3.5-19.94 6.42-30.39 6.16 1.12 1.34 4.68 5 6.3 5.19 2.08.23 6.24-1.1 8.8-1.1 8.81-.06 17.72 2.32 26.94 2.06 2.65-.07 4.34 0 6.34-1.83 3.99-3.64 5.73-8.19 7.14-13.28.28-1 .02-3.44 1.5-2.23.69 1.2-.88 7.18-1.37 8.71-1.55 4.8-5.44 10.62-10.75 11.3-.71.08-2.36-.35-2.6.35q.2 2.19.73 4.33c.5 2.31 2.11 9.98 3.15 11.52q.31.53.82.87l15.01 9.07c.96.59 2.51 1.93 3.37 2.34 1.17.56-.35-1.3-.44-1.46-.67-1.1-1.91-3.35-1.44-4.6.32-.86 3.2-2.96 4.09-2.77.48.11 3.11 1.8 2.59 2.38-1.13.55-1.6-.46-2.43-.68-1.1-.3-1.91.96-2.67 1.66-.14.52 3.02 6.03 3.6 6.82a53 53 0 004.98 5.69c.96.74 5.98 2.26 5.54 3.58-.19.55-1.1.4-1.54.33-3.38-.57-8.77-3.57-12.55-4.63q-2.56-.65-5.17-.75c-1.84-.18-1.49-.77-2.39-1.35a94 94 0 00-8.5-5.27 3.3 3.3 0 00-1.89-.41c-1.15.05-7.05 2.2-8.41 2.78-.31.13-.52-.18-.44.56 1.74.18 3.66.64 5.41.3 1.1-.22 2.88-2.1 4.4-1.9 2.06 1.36 5.85 2.63 7.62 4.2.82.72.48 1.7-.63 1.63-2.44-.16-5.22-3.82-7.93-3.63-2.16.16-7.15 4.38-9.79 4.7.11.6.75.64 1.23.67 1.34.1 6.43-.06 7.49-.54 1.02-.47 1.7-1.77 3.08-1.63 1.15.11 5.09 2.87 4.66 4.1-.53 1.5-4.02-2.08-5.02-1.81l-8.25 6.46c2.69.33 6.5-1.28 8.96-1.1q1.96.5 3.7 1.52l-.47.65-3.47-.63c1.31 1.17 4.1 4.83 5.73 5.05 2.52.34 5.82-2.36 7.51-2.35.38-.02.74.16.96.47.84 1.17-1.1 1.75-1.8 2.22-.24.16-.5-.04-.4.62 4.6.46 9.27 1.16 13.9 1.21 1.49.01 6.93-.22 7.92-.93 1.02-.74 3.33-7.22 3.25-8.61-.25-4.74-8.5-11.25-11.1-15.15a2.6 2.6 0 01-.7-2.15q.58-.03 1.12.2c.56.24 7.49 7.83 8.29 8.87a39 39 0 014.24 7.13c.43 1.37-1.16 5.65-1.74 7.2-.86 2.3-1.21 4.81-4.09 5-6.98.48-14.1.65-21.06-.55-1.87-.32-3.35-.68-5.3-.97-2.81-.4-6.14-4.99-8.1-6.89-3.2.52-6.46 1.29-9.73 1.01-.21.16 1.88 3.95 2.13 4.35.84 1.3 3.49 3.95 3.82 4.86q.26.56.11 1.16c-.7 1.74-3.79-1.52-4.35-2.21-4.48-5.5-6.84-13.83-9.37-20.37l-10.7-10.71-.68.43c-1.53 2.78-3.13 9.1-5.31 11.15-.9.84-5.84 2.4-7.05 2.24-2.1-.29-8.68-7.04-10.43-8.88-1.6-1.7-5.77-6.04-6.79-7.8a4 4 0 01-.57-2.7c.28-3.35 1.44-9.1 2.94-12.07.93-1.85 1.36-2.23 3.54-2.3 2.92-.1 5.16 1.06 7.68 2.25a6.5 6.5 0 012.8 2.57c1.33 2.05.6 1.86 2.58 3.56.94.82 2.73 5.45 2.4 6.51-.16.49-2.85 2.81-1.42 3.23.45.13.59-.35.79-.6.81-1.04 4.15-5.83 4.36-6.8.27-1.31.1-3.1.28-4.5.43-3.4 1.06-6.8 1.52-10.2l-9.52 1.05a6 6 0 01-3.66-1.02c-.76-.48-7.92-6.63-8.2-7.1q-.78-1.49-1.27-3.07l.8-5.22c2.3-1.43 2.65 2.16 5.28.96.25-2.6 1.73-5.19 3.83-2.1.61.9 1.15 1.72.4 2.78-.33.47-1.33.39-1.48.94 1.77-.57 2.57 3 2.93 3.26s1.51.26 1.56-.43a6 6 0 01.1-1.97c.78-2.86 2.6-2.02 3.8-.02l2.34-5.35c-.97-.17-1.77 1.16-2.85.39a12 12 0 01-1.08-3.32c-.14-3.11 4.9.26 4.7 2l3.04-2.56 3.54-1.22c-2.04-.48-.14-2.75-1.58-3.77-.46-.2-.7.73-1.2 1.05q-.63.4-1.4.4c-2.46-1.4 1.33-4.39-2.14-4.3-.1.95-1.79 3.67-2.69 3.68-2.1.02-.38-4.43-3-3.37-.63 1.24-2.2 5.2-4.05 3.57-1.32-1.16.61-3.82-1.67-4.36-2.26 5.7-4.93 2.71-3.93-2.07l-1.1-.53C28 43.5 25.74 42.72 25.27 38l-1.24-.06-.62 3.08c-1.94 1.14-2.96-2.47-3.63-2.93-1.62-1.14-2.77 1.28-3.95-2.89-.67-2.33-1.2-7.08.38-9.04.62-.77 1.51-.87 2.1-1.38 3.4-2.95 4.45-5.63 9.61-5.49 4.57.13 6.9 4.26 10.62 6.35l5.87-.22q2.5-3.01 5.76-5.2c3.4-2.43 7.48-5.33 11.79-3.73 1 .37 1.7 1.35 2.46 1.54 1.26.32 3.56.08 5.25.43 3.15.63 1.53.19 4.24-.44 2.92-.68 13.15.6 15.26 2.67.78.76 3.3 6.28 1.67 6.7M76.73 43.12c-2.03-.24-1.78 2.21-3.26 2.5-.86.17-.78-.87-1.72-.81-1.5.1-2.17 2.04-3.1 2.24-.99.22-1.15-.41-1.65-.53-1.53-.39-1.15 1.29-2.2 2.02 4.69.6 9.3-1.5 11.93-5.42m-5.08 29.31c-3.96-.22-7.96-.09-11.92-.53-1.33-.15-9.53-1.85-9.9-1.51l-.54 3.73c.06.31.52.34.76.43 2.23.78 12.64 3.13 14.66 3q3.72-.89 7.25-2.31zm.6 4.24c-3.5 1.61-6.43 2.73-10.4 2.1-4.03-.64-8.66-2.26-12.64-3.34l-.76 7.28c5.03-.08 9.95 2.22 14.95 2.1 3.28-.07 6.45-1.76 9.69-2.22a.6.6 0 00.5-.6c.12-1.24-1.24-3.94-1.33-5.32m14.78 25.29q2.01 1.46 4.19 2.68c1.54.58 3.64.42 5.2.73 1.73.35 3.46.96 5.16 1.43l-12.3-8.07-2.57 2.73c-.15.55.1.35.32.5m-20.37 8.32c.39 1.54 1.56 3.5 2.06 5.07l6.11-4.95c-2.32-.03-4.58.07-6.9-.17-.38-.04-1.47-.75-1.27.05m-3.93-8.73c2.18 2.17 2.32 3.16 3.4 6.01l5.12-2.75c-1.2-.06-6.2-.77-4.83-2.8.22-.33 5.72-2.29 6.6-2.58 1.21-.4 6.07-2.1 6.89-1.83 1.13.36 4.13 3.04 4.97 2.97l3.19-2.69a21 21 0 00-4.27-2.62c-1.49-.38-4.51.87-6.08 1.38-4.1 1.34-7.84 3.06-12.11 3.99q-1.44.1-2.86.37c-.44.2-.27.3-.02.55m-1.47-1.45c2.34-.54 4.7-.88 7.02-1.56q6.26-1.88 12.29-4.39c.28-.12.68-.13.73-.52-2.04-1.08-4.62-2-5.65-4.2l-.35-.1c-4.77 1.32-11.2 4.97-16.17 4.82-1.7-.05-3.21-1.1-4.9-.76zm-8.87-8.54q3.61 1 7.34 1.45c4.52-.13 10.5-3.8 14.9-5.05.74-.7-.66-3.35-.57-4.4-3.6.75-7 2.57-10.75 2.66-5.12.12-9.9-1.97-14.93-2.4-.46 1.6-.1 3.31.96 4.59a31 31 0 003.05 3.15m-5.64-2.47c-.28-.29-.17-.44-.54-.04a84 84 0 00-3.5 5.66c-.2.82 2.35 3.49.99 4.76-.37.18-.81.15-1.15-.09-.32-.18-2.04-3.66-2.53-4.4-2-2.97-4.95-5.41-6.93-8.21-.35-.5-1.51-2-.37-2.26 1.73-.4 5.45 4.69 6.77 5.78.02-.7.93-1.39.92-2a33 33 0 00-1.53-3.95c-1.57-2.17-7.28-.26-7.93-1.39-.98-1.68 4.55-1.32 5.03-1.35.29-.02.6.1.44-.4q-.55-1.07-1.26-2.07c-1.85-2-4.43-1.55-6.83-1.15-1.01-.83.6-.87.51-1.65l-3.43.23c-1.59 4.29-2.9 8.84-2.68 13.47q5.5 6.45 11.6 12.32c1.02.95 3.48 3.47 4.77 3.38a58 58 0 004.65-1.37q.85-.79 1.27-1.86a86 86 0 004.29-9.01c.56-1.57-.7-1.6-1.4-2.5-.4-.51-.77-1.49-1.16-1.9M26.8 55.9l-.11 1.68 1.16-.49c.26-.33-.57-1.33-1.05-1.19m.34 3.41c-.16.9-.16 1.03.6 1.45l.24-1.4zm3.02-.93A4 4 0 0029 61.12l1.97.13zm.8-1.22q.5.63.9 1.33.51 1.38.5 2.86c.48.01.6.22.53-.33-.19-1.48-.22-2.34.86-3.53-.45-.1-.84.27-1.28.2-.28-.03-1.52-1.45-1.52-.52m3.18-1.34l-.72-2.02c-.7-.69-1.1 2.13-1 2.47zm.08 3.1l-.45 2.52 1.7-.18zm6.24-.7c-.75-.88-.7 2.28-.72 2.48l1.42-.19zM44 60.15l.43-2.23c-.48.09-1.02 2.08-.43 2.23m-1.23-9.39l-.42-.03.2 1.42c.36.14.95-.2.88-.64zm14.27-2.44c-1.21-.35-3.18-1.12-4.08-.13 1.97.15 3.11 1.63 5.03.75-.08-.57-.55-.51-.95-.62m6.34.27a9 9 0 00-.85-.99c-.6-.4-2.72.57-2.85 1.45.9-.16 3.62 1.18 3.7-.46m-3.31 5c-.82-.25-1.05 1.98-1.43 2.44 1.29.04 2.7-1.53 1.43-2.44m-2.28 2.68l-1.95-.42-.07 1.12zm-6.62 1.94l-.88-1.6-.27 1.96zm-4.3 1.28l-1.01-1.75-.42 1.94zm2.26-8.44a17 17 0 00-3.67 3.98c-.2.55.91.43 1.5 1.06.85.92.67 3.05 2.18 2.98.18-1.1-.82-4.15.32-4.64 1.28-.56 3 2.3 3.17 3.44l2.26-.4c-.97-3.14 1.42-2.32 2.73-3.06 1.07-.61 1.05-3.6 3.8-2.15l.39-1.37a9 9 0 00-4.84-.25c-1.25.28-3.64 1.4-4.05 2.64l-1.13-.23c.11-.15-.09-.88.12-1.08.1-.1.66-.02.97-.24.45-.33 1.02-1.24 1.64-1.6a8.6 8.6 0 00-5.4.92m-5.98-7.88l1.23-1.6-1.4-.1zm-6.27 1a2.1 2.1 0 001.24-1.9l-1.42.2zm-4-3.92l-.8-.35-.15 2.25c.47-.04 1.1-1.7.95-1.9m-5.86-.68c.65-.13.65-.83.65-1.37l-.84-.05zm-4.91-.32l.23-1.4c-1.35-.33-1.01.68-.23 1.4m29.28 13.8c.1-.08.36.04.4 0 1.57 2.12-1.82 1.23-.4 0m-29.15 15.3c.46 0 .62 0 .87.43.22.96-3.07 2.6-3.62 1.31-.44-1.03 2.08-1.73 2.75-1.74m2.97 3.1l.09.72c-.8.46-4.16 2.93-4.83 2.37-1.43-1.18 2.4-3.15 3.54-3.24.4-.11.83-.06 1.2.15"/><path opacity=".8" fill="#F2F2F2" d="M2.33 18.43L1.15 20.4l2.29-.06-1.15 2.05 2.32-.01-1.18 2h2.33l-1.18 1.98 2.3-.05-1.15 2.04h2.32l-1.18 2 6.8-3.92 18.21-10.5 6.8-3.9h-2.33l1.18-2-2.3.06 1.16-2.04-2.33.01 1.18-2h-2.33l1.19-1.98-2.3.05 1.15-2.05-2.32.01 1.17-2L25 4.02 6.8 14.5 0 18.42zm102.99 108.96l-2.02 1.13 2.02 1.1-2.02 1.2 2.02 1.14-2.02 1.15 2.02 1.16-2.02 1.13 2.02 1.1-2.02 1.2 2.02 1.14-2.02 1.15H140l-2.02-1.17 2.02-1.12-2.02-1.1 2.02-1.2-2.02-1.14 2.02-1.15-2.02-1.17 2.02-1.12-2.02-1.1 2.02-1.2-2.02-1.14 2.02-1.15h-36.7z"/></svg>