<?xml version="1.0" encoding="utf-8"?>
<!-- Generator: Adobe Illustrator 16.0.0, SVG Export Plug-In . SVG Version: 6.00 Build 0)  -->
<!DOCTYPE svg PUBLIC "-//W3C//DTD SVG 1.1//EN" "http://www.w3.org/Graphics/SVG/1.1/DTD/svg11.dtd">
<svg version="1.1" id="Calque_1" xmlns="http://www.w3.org/2000/svg" xmlns:xlink="http://www.w3.org/1999/xlink" x="0px" y="0px"
	 width="217.579px" height="115.688px" viewBox="0 150 217.579 115.688" enable-background="new 0 150 217.579 115.688"
	 xml:space="preserve">
<g id="bg-purple-line-small" transform="translate(-230.453 67.177)">
	<g enable-background="new    ">
		<path fill="#FFFFFF" d="M358.59,190.649c-0.7,0-1.35-0.128-1.946-0.385s-1.118-0.613-1.562-1.071
			c-0.443-0.457-0.785-0.989-1.028-1.596s-0.364-1.255-0.364-1.946c0-0.699,0.121-1.353,0.364-1.96
			c0.243-0.606,0.585-1.136,1.028-1.589c0.443-0.452,0.962-0.807,1.555-1.063s1.239-0.386,1.939-0.386
			c0.765,0,1.437,0.131,2.016,0.393c0.578,0.262,1.092,0.616,1.54,1.063l-0.91,0.91c-0.308-0.345-0.684-0.616-1.127-0.812
			c-0.443-0.196-0.95-0.294-1.519-0.294c-0.514,0-0.985,0.091-1.414,0.272c-0.43,0.183-0.803,0.441-1.121,0.777
			c-0.316,0.336-0.562,0.732-0.734,1.189c-0.173,0.458-0.259,0.957-0.259,1.498c0,0.542,0.086,1.041,0.259,1.498
			c0.173,0.458,0.418,0.854,0.734,1.19c0.318,0.336,0.691,0.595,1.121,0.777c0.429,0.182,0.9,0.272,1.414,0.272
			c0.605,0,1.134-0.1,1.582-0.301c0.447-0.201,0.826-0.474,1.133-0.819l0.91,0.896c-0.447,0.467-0.973,0.83-1.574,1.092
			C360.026,190.518,359.346,190.649,358.59,190.649z"/>
		<path fill="#FFFFFF" d="M366.192,190.649c-0.606,0-1.156-0.151-1.651-0.455c-0.495-0.303-0.884-0.716-1.169-1.238
			s-0.428-1.111-0.428-1.765c0-0.652,0.143-1.241,0.428-1.764s0.672-0.938,1.162-1.246c0.49-0.308,1.043-0.462,1.658-0.462
			c0.504,0,0.955,0.105,1.352,0.315s0.717,0.499,0.959,0.867c0.242,0.369,0.378,0.796,0.406,1.281v2.002
			c-0.028,0.477-0.161,0.901-0.399,1.274c-0.237,0.373-0.556,0.665-0.952,0.875S366.705,190.649,366.192,190.649z M366.403,189.459
			c0.625,0,1.129-0.212,1.512-0.637s0.574-0.969,0.574-1.632c0-0.457-0.087-0.855-0.26-1.196c-0.172-0.341-0.418-0.607-0.734-0.799
			c-0.317-0.19-0.686-0.286-1.105-0.286c-0.421,0-0.791,0.098-1.113,0.294c-0.322,0.195-0.574,0.464-0.756,0.805
			c-0.183,0.341-0.273,0.73-0.273,1.169c0,0.448,0.091,0.843,0.273,1.183c0.182,0.341,0.436,0.609,0.762,0.806
			C365.609,189.361,365.983,189.459,366.403,189.459z M368.405,190.509v-1.792l0.238-1.624l-0.238-1.61v-1.624h1.273v6.65H368.405z"
			/>
		<path fill="#FFFFFF" d="M372.156,182.529c-0.233,0-0.425-0.076-0.573-0.23c-0.15-0.154-0.225-0.348-0.225-0.581
			c0-0.224,0.074-0.413,0.225-0.567c0.148-0.153,0.34-0.23,0.573-0.23s0.425,0.077,0.574,0.23c0.149,0.154,0.224,0.344,0.224,0.567
			c0,0.233-0.074,0.427-0.224,0.581S372.389,182.529,372.156,182.529z M371.526,190.509v-6.65h1.26v6.65H371.526z"/>
		<path fill="#FFFFFF" d="M374.648,190.509v-9.996h1.261v9.996H374.648z"/>
		<path fill="#FFFFFF" d="M377.755,190.509v-9.996h1.261v9.996H377.755z"/>
		<path fill="#FFFFFF" d="M383.692,190.649c-0.607,0-1.158-0.151-1.652-0.455c-0.495-0.303-0.885-0.716-1.169-1.238
			c-0.285-0.522-0.427-1.111-0.427-1.765c0-0.652,0.142-1.241,0.427-1.764c0.284-0.522,0.672-0.938,1.161-1.246
			c0.49-0.308,1.044-0.462,1.66-0.462c0.504,0,0.953,0.105,1.351,0.315c0.396,0.21,0.716,0.499,0.959,0.867
			c0.243,0.369,0.378,0.796,0.405,1.281v2.002c-0.027,0.477-0.16,0.901-0.398,1.274s-0.555,0.665-0.951,0.875
			C384.66,190.544,384.204,190.649,383.692,190.649z M383.901,189.459c0.626,0,1.13-0.212,1.513-0.637
			c0.382-0.425,0.573-0.969,0.573-1.632c0-0.457-0.086-0.855-0.258-1.196c-0.174-0.341-0.418-0.607-0.735-0.799
			c-0.317-0.19-0.687-0.286-1.106-0.286s-0.791,0.098-1.113,0.294c-0.321,0.195-0.573,0.464-0.756,0.805
			c-0.182,0.341-0.272,0.73-0.272,1.169c0,0.448,0.091,0.843,0.272,1.183c0.183,0.341,0.437,0.609,0.764,0.806
			C383.108,189.361,383.481,189.459,383.901,189.459z M385.903,190.509v-1.792l0.238-1.624l-0.238-1.61v-1.624h1.274v6.65H385.903z"
			/>
		<path fill="#FFFFFF" d="M391.125,190.649c-0.373,0-0.727-0.049-1.057-0.146c-0.332-0.099-0.637-0.238-0.918-0.42
			c-0.279-0.183-0.522-0.399-0.728-0.651l0.812-0.812c0.243,0.299,0.523,0.521,0.84,0.665c0.318,0.145,0.673,0.217,1.064,0.217
			c0.393,0,0.695-0.067,0.91-0.203c0.215-0.135,0.322-0.324,0.322-0.567c0-0.242-0.086-0.432-0.26-0.566
			c-0.172-0.136-0.395-0.247-0.664-0.336c-0.271-0.089-0.559-0.178-0.861-0.267c-0.303-0.088-0.59-0.203-0.861-0.343
			c-0.271-0.14-0.492-0.331-0.664-0.574c-0.174-0.242-0.26-0.564-0.26-0.966s0.098-0.749,0.294-1.043s0.47-0.521,0.819-0.679
			c0.35-0.159,0.771-0.238,1.268-0.238c0.521,0,0.986,0.091,1.393,0.273c0.406,0.182,0.739,0.455,1,0.818l-0.812,0.813
			c-0.187-0.243-0.417-0.43-0.692-0.561c-0.275-0.13-0.586-0.195-0.932-0.195c-0.363,0-0.642,0.063-0.832,0.188
			c-0.191,0.126-0.287,0.301-0.287,0.525c0,0.224,0.084,0.396,0.252,0.518s0.389,0.225,0.664,0.309s0.563,0.17,0.861,0.259
			s0.583,0.208,0.854,0.356c0.271,0.149,0.492,0.351,0.666,0.603c0.172,0.252,0.258,0.583,0.258,0.994
			c0,0.625-0.221,1.12-0.664,1.483C392.467,190.467,391.871,190.649,391.125,190.649z"/>
		<path fill="#FFFFFF" d="M397.103,190.649c-0.374,0-0.726-0.049-1.058-0.146c-0.331-0.099-0.637-0.238-0.916-0.42
			c-0.28-0.183-0.523-0.399-0.729-0.651l0.813-0.812c0.242,0.299,0.521,0.521,0.84,0.665c0.316,0.145,0.672,0.217,1.063,0.217
			s0.695-0.067,0.91-0.203c0.215-0.135,0.322-0.324,0.322-0.567c0-0.242-0.087-0.432-0.259-0.566
			c-0.174-0.136-0.395-0.247-0.666-0.336c-0.27-0.089-0.557-0.178-0.86-0.267c-0.304-0.088-0.591-0.203-0.86-0.343
			c-0.271-0.14-0.493-0.331-0.666-0.574c-0.172-0.242-0.259-0.564-0.259-0.966s0.099-0.749,0.294-1.043
			c0.196-0.294,0.469-0.521,0.819-0.679c0.35-0.159,0.772-0.238,1.267-0.238c0.523,0,0.987,0.091,1.393,0.273
			c0.406,0.182,0.74,0.455,1.002,0.818l-0.813,0.813c-0.187-0.243-0.418-0.43-0.693-0.561c-0.275-0.13-0.586-0.195-0.931-0.195
			c-0.364,0-0.642,0.063-0.833,0.188s-0.287,0.301-0.287,0.525c0,0.224,0.084,0.396,0.252,0.518s0.391,0.225,0.666,0.309
			c0.274,0.084,0.562,0.17,0.86,0.259s0.583,0.208,0.854,0.356c0.27,0.149,0.492,0.351,0.664,0.603
			c0.173,0.252,0.26,0.583,0.26,0.994c0,0.625-0.223,1.12-0.665,1.483C398.444,190.467,397.85,190.649,397.103,190.649z"/>
		<path fill="#FFFFFF" d="M404.047,190.649c-0.663,0-1.26-0.151-1.793-0.455c-0.531-0.303-0.951-0.716-1.26-1.238
			c-0.308-0.522-0.461-1.115-0.461-1.778c0-0.653,0.15-1.241,0.454-1.764s0.714-0.936,1.231-1.239
			c0.519-0.304,1.1-0.455,1.744-0.455c0.615,0,1.159,0.14,1.631,0.42c0.471,0.28,0.84,0.668,1.105,1.162
			c0.266,0.495,0.399,1.055,0.399,1.68c0,0.094-0.005,0.194-0.015,0.302c-0.009,0.107-0.027,0.23-0.056,0.37h-5.614v-1.05h4.942
			l-0.462,0.406c0-0.448-0.08-0.828-0.238-1.141s-0.383-0.556-0.672-0.729s-0.639-0.259-1.05-0.259c-0.43,0-0.808,0.094-1.134,0.28
			c-0.327,0.187-0.579,0.447-0.756,0.783c-0.178,0.337-0.267,0.733-0.267,1.19c0,0.467,0.093,0.875,0.28,1.225
			c0.187,0.351,0.453,0.621,0.798,0.813s0.742,0.287,1.19,0.287c0.373,0,0.716-0.065,1.029-0.196
			c0.313-0.131,0.58-0.326,0.805-0.588l0.812,0.826c-0.317,0.373-0.707,0.658-1.169,0.854
			C405.062,190.551,404.569,190.649,404.047,190.649z"/>
	</g>
	<path id="Tracé_14171" fill="none" stroke="#6945D8" stroke-width="14" d="M237.453,82.823v35.353
		c0,15.279,12.387,27.667,27.667,27.667h182.912"/>
	<g id="station-complete" transform="translate(327.032 93.51)">
		<g id="Groupe_56" transform="translate(-648.086 -185.38)">
			<path id="Tracé_143" fill="#6945D8" stroke="#000000" stroke-width="6" d="M700.586,261.6c-13.102,0-23.721-10.62-23.721-23.72
				c0-13.101,10.619-23.721,23.721-23.721c13.1,0,23.719,10.62,23.719,23.721l0,0C724.291,250.974,713.679,261.585,700.586,261.6"/>
			<path id="Tracé_145" fill="none" stroke="#FFFFFF" stroke-width="5" stroke-linecap="round" stroke-linejoin="round" d="
				M692.634,236.925l6.354,8.582l10.229-13.371"/>
		</g>
		<rect id="Rectangle_184" x="0" y="0" fill="none" width="105" height="105"/>
	</g>
</g>
</svg>
