<svg xmlns="http://www.w3.org/2000/svg" width="265.52" height="312.086" xml:space="preserve">
    <path fill="none" stroke="#ED1E7A" stroke-width="14" d="M265.519 7H80.167C64.886 7 52.5 19.387 52.5 34.667v277.419"/>
    <path fill="#ED1E7A" stroke="#000" stroke-width="6" d="M52.499 210.572c-13.1 0-23.72-10.62-23.72-23.721 0-13.1 10.62-23.72 23.72-23.72 13.101 0 23.72 10.62 23.72 23.72-.015 13.095-10.626 23.706-23.72 23.721"/>
    <path fill="none" stroke="#FFF" stroke-width="5" stroke-linecap="round" stroke-linejoin="round" d="m44.548 185.896 6.355 8.582 10.229-13.371"/>
    <g fill="#FFF">
        <path d="M89.234 195.071c-1.1 0-2.12-.201-3.058-.604s-1.756-.965-2.453-1.684a7.617 7.617 0 0 1-1.617-2.508 8.163 8.163 0 0 1-.572-3.058c0-1.101.19-2.127.572-3.08a7.534 7.534 0 0 1 4.059-4.169c.931-.403 1.947-.605 3.047-.605 1.203 0 2.258.206 3.168.616a8.132 8.132 0 0 1 2.42 1.672l-1.43 1.431a5.094 5.094 0 0 0-1.771-1.276c-.697-.308-1.493-.462-2.387-.462-.807 0-1.547.143-2.222.429a5.16 5.16 0 0 0-1.76 1.221 5.534 5.534 0 0 0-1.155 1.87c-.272.719-.407 1.504-.407 2.354s.135 1.636.407 2.354c.271.719.656 1.342 1.155 1.87s1.085.936 1.76 1.221c.674.286 1.415.43 2.222.43.953 0 1.782-.157 2.486-.474a5.19 5.19 0 0 0 1.782-1.286l1.43 1.407a7.572 7.572 0 0 1-2.475 1.716c-.946.41-2.013.615-3.201.615zM101.18 195.071c-.954 0-1.819-.238-2.596-.715s-1.39-1.125-1.837-1.947c-.447-.821-.671-1.745-.671-2.771s.224-1.95.671-2.772a5.214 5.214 0 0 1 1.826-1.958c.77-.483 1.639-.726 2.607-.726.792 0 1.5.165 2.123.495.623.33 1.125.784 1.507 1.364.381.579.594 1.25.638 2.013v3.146a4.104 4.104 0 0 1-.627 2.002 3.914 3.914 0 0 1-1.496 1.375c-.624.329-1.338.494-2.145.494zm.33-1.87c.982 0 1.774-.333 2.376-1.001.601-.667.902-1.521.902-2.563 0-.719-.136-1.346-.407-1.881-.272-.535-.657-.953-1.155-1.254s-1.078-.451-1.738-.451c-.66 0-1.243.153-1.749.462a3.231 3.231 0 0 0-1.188 1.265c-.286.536-.429 1.148-.429 1.837 0 .704.143 1.324.429 1.859s.686.957 1.199 1.265c.513.309 1.1.462 1.76.462zm3.146 1.651v-2.816l.374-2.552-.374-2.53v-2.552h2.002v10.45h-2.002zM112.861 195.071a5.859 5.859 0 0 1-1.661-.23c-.521-.154-1.001-.374-1.441-.66s-.821-.627-1.144-1.023l1.276-1.275c.381.47.821.817 1.32 1.045a3.976 3.976 0 0 0 1.672.341c.616 0 1.093-.106 1.43-.319.337-.212.506-.509.506-.891 0-.381-.136-.679-.407-.891-.272-.213-.62-.389-1.045-.528s-.876-.278-1.353-.418-.928-.319-1.353-.539a2.888 2.888 0 0 1-1.045-.902c-.271-.381-.407-.887-.407-1.518s.154-1.177.462-1.639c.308-.463.737-.818 1.287-1.067.55-.249 1.213-.374 1.991-.374.821 0 1.551.143 2.189.429a3.833 3.833 0 0 1 1.573 1.287l-1.276 1.276a2.954 2.954 0 0 0-1.089-.88 3.362 3.362 0 0 0-1.463-.309c-.572 0-1.008.1-1.309.297a.936.936 0 0 0-.451.825c0 .353.132.624.396.814.264.19.612.352 1.045.483s.883.269 1.353.407c.469.14.917.326 1.342.562.425.234.773.55 1.045.945.271.396.407.917.407 1.563 0 .982-.349 1.76-1.045 2.332-.697.571-1.632.857-2.805.857zM118.933 194.852v-15.708h1.98v15.708h-1.98zm7.392 0v-6.094c0-.792-.25-1.444-.748-1.958-.499-.514-1.144-.771-1.936-.771-.528 0-.998.118-1.408.353s-.733.558-.968.968c-.235.411-.352.88-.352 1.408l-.814-.462c0-.792.176-1.496.528-2.112s.843-1.104 1.474-1.463c.63-.359 1.342-.539 2.134-.539s1.492.176 2.101.528c.608.352 1.089.843 1.441 1.474s.528 1.356.528 2.178v6.49h-1.98z"/>
    </g>
</svg>
