<?xml version="1.0" encoding="utf-8"?>
<!-- Generator: Adobe Illustrator 16.0.0, SVG Export Plug-In . SVG Version: 6.00 Build 0)  -->
<!DOCTYPE svg PUBLIC "-//W3C//DTD SVG 1.1//EN" "http://www.w3.org/Graphics/SVG/1.1/DTD/svg11.dtd">
<svg version="1.1" id="Calque_1" xmlns="http://www.w3.org/2000/svg" xmlns:xlink="http://www.w3.org/1999/xlink" x="0px" y="0px"
	 width="282.797px" height="452.027px" viewBox="130 0 282.797 452.027" enable-background="new 130 0 282.797 452.027"
	 xml:space="preserve">
<path fill="none" stroke="#FCD413" stroke-width="14" d="M386.578,0v376.141c0,15.278-12.385,27.665-27.664,27.667H130"/>
<g>
	<path fill="#FCD414" stroke="#FFFFFF" stroke-width="6" d="M386.077,167.094c-13.102,0-23.72-10.62-23.72-23.72
		c-0.001-13.1,10.618-23.72,23.72-23.72c13.1,0,23.72,10.62,23.72,23.72C409.782,156.468,399.171,167.079,386.077,167.094"/>
	<path fill="#FCD414" stroke="#FFFFFF" stroke-width="5" stroke-linecap="round" stroke-linejoin="round" d="M378.126,142.419
		l6.354,8.582l10.229-13.371"/>
</g>
<g>
	<path fill="#FCD414" stroke="#FFFFFF" stroke-width="6" d="M241.077,427.529c-13.101,0-23.72-10.621-23.72-23.722
		c0-13.1,10.619-23.721,23.72-23.721c13.1,0,23.72,10.621,23.72,23.721C264.782,416.902,254.171,427.513,241.077,427.529"/>
	<path fill="none" stroke="#FFFFFF" stroke-width="5" stroke-linecap="round" stroke-linejoin="round" d="M233.126,402.853
		l6.354,8.582l10.229-13.37"/>
</g>
<path d="M248.383,138.874v-15.268h2.067v15.268H248.383z M249.746,138.874v-1.892h4.246c1.129,0,2.119-0.246,2.97-0.737
	c0.851-0.491,1.515-1.17,1.991-2.035s0.715-1.862,0.715-2.992c0-1.114-0.242-2.104-0.727-2.97c-0.467-0.848-1.16-1.549-2.002-2.024
	c-0.851-0.483-1.834-0.726-2.947-0.726h-4.225v-1.892h4.269c1.114,0,2.146,0.19,3.091,0.571c0.921,0.365,1.759,0.912,2.465,1.606
	c0.695,0.689,1.238,1.496,1.627,2.42c0.389,0.924,0.584,1.936,0.584,3.036c0.01,1.037-0.189,2.065-0.584,3.024
	c-0.389,0.932-0.928,1.742-1.617,2.432c-0.688,0.69-1.506,1.225-2.453,1.605c-0.944,0.382-1.969,0.572-3.067,0.572h-4.335V138.874z
	 M269.084,139.094c-1.027,0-1.951-0.242-2.771-0.726c-0.813-0.475-1.487-1.154-1.959-1.969c-0.482-0.829-0.726-1.757-0.726-2.783
	c0-1.012,0.242-1.925,0.726-2.739c0.477-0.806,1.15-1.476,1.959-1.947c0.82-0.483,1.744-0.726,2.771-0.726
	c1.012,0,1.932,0.238,2.762,0.715c0.828,0.477,1.484,1.126,1.969,1.947c0.483,0.821,0.727,1.738,0.727,2.75
	c0,1.026-0.242,1.954-0.727,2.783C272.838,138.084,271.031,139.113,269.084,139.094z M269.084,137.18c0.66,0,1.246-0.153,1.76-0.462
	c0.514-0.308,0.916-0.729,1.211-1.265c0.293-0.536,0.439-1.147,0.439-1.837c0-0.675-0.15-1.276-0.451-1.804s-0.704-0.942-1.21-1.243
	c-0.506-0.301-1.089-0.451-1.749-0.451s-1.247,0.15-1.76,0.451c-0.51,0.296-0.928,0.726-1.211,1.243
	c-0.293,0.527-0.439,1.129-0.439,1.804c0,0.689,0.146,1.302,0.439,1.837c0.294,0.535,0.697,0.957,1.211,1.265
	C267.837,137.026,268.424,137.18,269.084,137.18L269.084,137.18z M276.762,138.874v-15.708h1.98v15.708H276.762z M281.646,138.874
	v-15.708h1.979v15.708H281.646z M290.973,139.094c-0.953,0-1.818-0.238-2.596-0.715s-1.391-1.125-1.837-1.947
	c-0.447-0.821-0.671-1.745-0.671-2.771c0-1.026,0.224-1.95,0.671-2.772c0.428-0.801,1.058-1.476,1.826-1.958
	c0.771-0.483,1.64-0.726,2.606-0.726c0.793,0,1.5,0.165,2.122,0.495c0.623,0.33,1.126,0.784,1.509,1.364
	c0.381,0.579,0.594,1.25,0.637,2.013v3.146c-0.031,0.71-0.248,1.4-0.627,2.002c-0.368,0.582-0.885,1.056-1.495,1.375
	C292.494,138.929,291.779,139.094,290.973,139.094L290.973,139.094z M291.303,137.224c0.982,0,1.775-0.333,2.377-1.001
	c0.602-0.667,0.901-1.521,0.901-2.563c0-0.719-0.136-1.346-0.407-1.881c-0.271-0.535-0.656-0.953-1.154-1.254
	c-0.498-0.301-1.078-0.451-1.737-0.451c-0.66,0-1.243,0.153-1.749,0.462c-0.504,0.306-0.914,0.743-1.188,1.265
	c-0.285,0.536-0.43,1.148-0.43,1.837c0,0.704,0.145,1.324,0.43,1.859c0.286,0.535,0.686,0.957,1.198,1.265
	C290.057,137.07,290.643,137.224,291.303,137.224L291.303,137.224z M294.449,138.874v-2.816l0.373-2.552l-0.373-2.53v-2.552h2.002
	v10.45H294.449z M308.33,139.094c-0.968,0-1.833-0.238-2.596-0.715c-0.764-0.477-1.367-1.125-1.814-1.947
	c-0.447-0.821-0.672-1.745-0.672-2.771c0-1.026,0.225-1.95,0.672-2.772c0.426-0.798,1.051-1.473,1.814-1.958
	c0.763-0.483,1.628-0.726,2.596-0.726c0.777,0,1.48,0.165,2.112,0.495c0.63,0.33,1.14,0.784,1.528,1.364
	c0.389,0.579,0.604,1.25,0.649,2.013v3.146c-0.033,0.712-0.254,1.402-0.64,2.002c-0.381,0.587-0.887,1.045-1.518,1.375
	S309.123,139.094,308.33,139.094L308.33,139.094z M308.66,137.224c0.66,0,1.235-0.153,1.728-0.462
	c0.493-0.31,0.892-0.747,1.155-1.265c0.277-0.535,0.418-1.147,0.418-1.837c0-0.719-0.144-1.342-0.43-1.87
	c-0.271-0.513-0.674-0.946-1.166-1.254c-0.491-0.309-1.066-0.462-1.728-0.462s-1.239,0.153-1.737,0.462
	c-0.499,0.308-0.906,0.745-1.178,1.265c-0.285,0.536-0.429,1.148-0.429,1.837c0,0.704,0.144,1.324,0.429,1.859
	c0.286,0.535,0.684,0.957,1.188,1.265C307.418,137.07,308,137.224,308.66,137.224z M313.83,138.874h-2.002v-2.816l0.375-2.552
	l-0.375-2.53v-7.81h2.002V138.874z M321.486,139.094c-1.027,0-1.951-0.242-2.771-0.726c-0.813-0.475-1.488-1.154-1.959-1.969
	c-0.482-0.829-0.726-1.757-0.726-2.783c0-1.012,0.241-1.925,0.726-2.739c0.477-0.806,1.15-1.476,1.959-1.947
	c0.82-0.483,1.744-0.726,2.771-0.726c1.012,0,1.932,0.238,2.761,0.715s1.485,1.126,1.97,1.947c0.483,0.821,0.727,1.738,0.727,2.75
	c0,1.026-0.242,1.954-0.727,2.783C325.24,138.084,323.434,139.113,321.486,139.094z M321.486,137.18c0.66,0,1.246-0.153,1.76-0.462
	c0.514-0.308,0.916-0.729,1.21-1.265c0.294-0.536,0.44-1.147,0.44-1.837c0-0.675-0.15-1.276-0.451-1.804
	c-0.302-0.528-0.704-0.942-1.21-1.243c-0.506-0.301-1.089-0.451-1.749-0.451s-1.247,0.15-1.761,0.451
	c-0.509,0.296-0.928,0.726-1.211,1.243c-0.293,0.527-0.438,1.129-0.438,1.804c0,0.689,0.146,1.302,0.438,1.837
	c0.294,0.535,0.697,0.957,1.211,1.265C320.239,137.026,320.826,137.18,321.486,137.18L321.486,137.18z M329.164,138.874v-15.708
	h1.979v15.708H329.164z M334.048,138.874v-15.708h1.979v15.708H334.048z M343.375,139.094c-0.953,0-1.818-0.238-2.596-0.715
	c-0.778-0.477-1.391-1.125-1.837-1.947c-0.447-0.821-0.671-1.745-0.671-2.771c0-1.026,0.224-1.95,0.671-2.772
	c0.428-0.801,1.057-1.476,1.825-1.958c0.771-0.483,1.641-0.726,2.606-0.726c0.793,0,1.5,0.165,2.123,0.495
	c0.623,0.33,1.126,0.784,1.508,1.364c0.381,0.579,0.594,1.25,0.638,2.013v3.146c-0.031,0.71-0.248,1.4-0.627,2.002
	c-0.368,0.582-0.885,1.056-1.496,1.375C344.896,138.929,344.182,139.094,343.375,139.094L343.375,139.094z M343.705,137.224
	c0.981,0,1.775-0.333,2.377-1.001c0.601-0.667,0.901-1.521,0.901-2.563c0-0.719-0.137-1.346-0.407-1.881
	c-0.271-0.535-0.656-0.953-1.154-1.254c-0.499-0.301-1.078-0.451-1.738-0.451c-0.659,0-1.242,0.153-1.749,0.462
	c-0.503,0.306-0.914,0.743-1.188,1.265c-0.285,0.536-0.429,1.148-0.429,1.837c0,0.704,0.144,1.324,0.429,1.859
	c0.287,0.535,0.686,0.957,1.199,1.265C342.459,137.07,343.045,137.224,343.705,137.224L343.705,137.224z M346.852,138.874v-2.816
	l0.374-2.552l-0.374-2.53v-2.552h2.002v10.45H346.852z M282.029,163.874v-15.708h1.979v7.81l-0.372,2.53l0.372,2.552v2.816H282.029
	L282.029,163.874z M287.529,164.094c-0.791,0-1.506-0.165-2.146-0.495c-0.622-0.316-1.149-0.79-1.528-1.375
	c-0.386-0.6-0.605-1.29-0.638-2.002v-3.146c0.044-0.763,0.261-1.434,0.648-2.013c0.389-0.58,0.901-1.034,1.54-1.364
	c0.638-0.33,1.345-0.495,2.123-0.495c0.953,0,1.814,0.242,2.585,0.726c0.767,0.48,1.393,1.156,1.813,1.958
	c0.44,0.822,0.66,1.746,0.66,2.772c0,1.026-0.22,1.95-0.66,2.771c-0.438,0.822-1.045,1.471-1.813,1.947
	S288.482,164.094,287.529,164.094z M287.2,162.224c0.659,0,1.239-0.153,1.737-0.462c0.498-0.308,0.895-0.729,1.188-1.265
	s0.439-1.155,0.439-1.859c0-0.688-0.146-1.305-0.439-1.848c-0.273-0.521-0.685-0.959-1.188-1.265
	c-0.498-0.301-1.07-0.451-1.715-0.451c-0.66,0-1.24,0.15-1.738,0.451c-0.501,0.303-0.905,0.742-1.166,1.265
	c-0.279,0.543-0.418,1.166-0.418,1.87c0,0.689,0.135,1.302,0.406,1.837c0.271,0.535,0.659,0.957,1.166,1.265
	C285.979,162.07,286.555,162.224,287.2,162.224z M295.846,151.334c-0.367,0-0.668-0.121-0.902-0.363
	c-0.234-0.245-0.361-0.574-0.352-0.913c0-0.352,0.117-0.648,0.352-0.891c0.236-0.243,0.535-0.363,0.902-0.363
	s0.668,0.121,0.902,0.363s0.352,0.539,0.352,0.891c0,0.367-0.117,0.672-0.352,0.913
	C296.514,151.213,296.213,151.334,295.846,151.334z M294.855,163.874v-10.45h1.979v10.45H294.855z M299.762,163.874v-15.708h1.98
	v15.708H299.762z M304.646,163.874v-15.708h1.979v15.708H304.646z M317.537,163.962l-4.532-10.538h2.2l3.365,8.25h-0.703l3.541-8.25
	h2.201l-4.886,10.538H317.537L317.537,163.962z M314.545,168.252l3.08-6.313l1.1,2.023l-1.979,4.29H314.545L314.545,168.252z
	 M325.236,153.468l1.364-2.618l0.703-0.176c-0.063,0.149-0.157,0.284-0.274,0.396c-0.11,0.103-0.256,0.158-0.406,0.153
	c-0.309,0-0.591-0.128-0.848-0.385c-0.255-0.252-0.395-0.599-0.386-0.957c0-0.41,0.145-0.763,0.431-1.056
	c0.285-0.293,0.634-0.44,1.045-0.44c0.381,0,0.719,0.147,1.012,0.44s0.439,0.646,0.439,1.056c0,0.162-0.032,0.356-0.1,0.583
	c-0.064,0.228-0.193,0.524-0.385,0.892l-1.452,2.728L325.236,153.468L325.236,153.468z M333.398,164.094
	c-0.953,0-1.818-0.238-2.597-0.715c-0.777-0.477-1.39-1.125-1.837-1.947c-0.447-0.821-0.671-1.745-0.671-2.771
	c0-1.026,0.224-1.95,0.671-2.772c0.428-0.801,1.058-1.476,1.826-1.958c0.771-0.483,1.64-0.726,2.605-0.726
	c0.794,0,1.5,0.165,2.123,0.495c0.623,0.33,1.126,0.784,1.509,1.364c0.381,0.579,0.594,1.25,0.638,2.013v3.146
	c-0.032,0.71-0.248,1.4-0.627,2.002c-0.369,0.582-0.885,1.056-1.496,1.375C334.92,163.929,334.205,164.094,333.398,164.094
	L333.398,164.094z M333.729,162.224c0.982,0,1.775-0.333,2.378-1.001c0.601-0.667,0.9-1.521,0.9-2.563
	c0-0.719-0.136-1.346-0.407-1.881c-0.271-0.535-0.655-0.953-1.153-1.254c-0.499-0.301-1.078-0.451-1.738-0.451
	s-1.243,0.153-1.749,0.462c-0.504,0.306-0.914,0.743-1.188,1.265c-0.285,0.536-0.43,1.148-0.43,1.837
	c0,0.704,0.145,1.324,0.43,1.859c0.286,0.535,0.686,0.957,1.198,1.265C332.482,162.07,333.068,162.224,333.729,162.224
	L333.729,162.224z M336.875,163.874v-2.816l0.374-2.552l-0.374-2.53v-2.552h2.002v10.45H336.875z M341.758,163.874v-15.708h1.98
	v15.708H341.758z M346.643,163.874v-15.708h1.979v15.708H346.643z M214.382,451.808V436.54h2.068v15.268H214.382z M215.79,438.431
	v-1.891h8.338v1.891H215.79z M215.79,445.097v-1.891h7.964v1.891H215.79z M226.482,451.808v-15.709h1.979v15.709H226.482
	L226.482,451.808z M236.141,452.027c-1.027,0-1.951-0.242-2.772-0.726c-0.813-0.475-1.487-1.153-1.957-1.969
	c-0.484-0.83-0.728-1.758-0.728-2.783c0-1.012,0.242-1.926,0.728-2.74c0.476-0.805,1.149-1.476,1.957-1.946
	c0.821-0.482,1.745-0.726,2.772-0.726c1.012,0,1.933,0.238,2.76,0.716c0.828,0.477,1.486,1.125,1.97,1.946
	c0.483,0.82,0.728,1.738,0.728,2.75c0,1.025-0.242,1.953-0.728,2.783c-0.474,0.817-1.151,1.496-1.97,1.969
	C238.072,451.785,237.15,452.027,236.141,452.027z M236.141,450.113c0.659,0,1.246-0.152,1.76-0.461
	c0.513-0.31,0.916-0.73,1.209-1.267s0.44-1.146,0.44-1.836c0-0.676-0.151-1.276-0.45-1.805c-0.302-0.527-0.705-0.941-1.211-1.242
	s-1.089-0.451-1.748-0.451c-0.66,0-1.248,0.15-1.762,0.451c-0.508,0.297-0.926,0.726-1.209,1.242
	c-0.294,0.527-0.439,1.129-0.439,1.805c0,0.689,0.146,1.301,0.439,1.836c0.281,0.523,0.699,0.961,1.209,1.267
	C234.893,449.96,235.479,450.113,236.141,450.113z M248.041,452.027c-0.865,0-1.639-0.193-2.32-0.582
	c-0.681-0.39-1.214-0.929-1.596-1.617c-0.381-0.689-0.57-1.488-0.57-2.398v-6.071h1.979v5.983c0,0.572,0.1,1.066,0.297,1.484
	c0.199,0.418,0.488,0.738,0.869,0.957c0.382,0.221,0.828,0.33,1.342,0.33c0.777,0,1.387-0.244,1.826-0.736
	c0.439-0.49,0.66-1.17,0.66-2.035v-5.983h1.979v6.071c0,0.91-0.19,1.709-0.571,2.398c-0.381,0.688-0.906,1.229-1.572,1.617
	C249.695,451.833,248.922,452.027,248.041,452.027L248.041,452.027z M254.334,450.73l6.203-8.296h2.332l-6.203,8.296H254.334
	L254.334,450.73z M254.334,451.808v-1.077l1.76-0.728h6.645v1.805H254.334z M254.707,443.162v-1.805h8.162v1.077l-1.826,0.728
	H254.707z M269.646,452.027c-1.043,0-1.979-0.238-2.815-0.715c-0.836-0.478-1.496-1.125-1.979-1.947
	c-0.484-0.82-0.728-1.752-0.728-2.793c0-1.027,0.237-1.951,0.715-2.771c0.478-0.821,1.123-1.471,1.937-1.946
	c0.814-0.477,1.729-0.716,2.74-0.716c0.967,0,1.821,0.22,2.563,0.66c0.74,0.439,1.32,1.049,1.738,1.826s0.627,1.656,0.627,2.639
	c0,0.146-0.008,0.306-0.021,0.474c-0.016,0.17-0.045,0.362-0.088,0.584h-8.822v-1.65h7.766l-0.727,0.64
	c0-0.705-0.123-1.304-0.373-1.794c-0.25-0.491-0.602-0.872-1.057-1.145s-1.004-0.406-1.648-0.406c-0.676,0-1.27,0.146-1.783,0.439
	c-0.512,0.293-0.909,0.703-1.188,1.231c-0.279,0.527-0.418,1.15-0.418,1.869c0,0.734,0.146,1.375,0.439,1.926
	c0.293,0.55,0.711,0.976,1.254,1.275s1.166,0.451,1.869,0.451c0.555,0.007,1.105-0.099,1.617-0.31
	c0.489-0.203,0.923-0.52,1.266-0.924l1.275,1.299c-0.498,0.586-1.127,1.046-1.836,1.343
	C271.233,451.876,270.443,452.032,269.646,452.027L269.646,452.027z"/>
</svg>
