<?xml version="1.0" encoding="utf-8"?>
<!-- Generator: Adobe Illustrator 16.0.0, SVG Export Plug-In . SVG Version: 6.00 Build 0)  -->
<!DOCTYPE svg PUBLIC "-//W3C//DTD SVG 1.1//EN" "http://www.w3.org/Graphics/SVG/1.1/DTD/svg11.dtd">
<svg version="1.1" id="Calque_1" xmlns="http://www.w3.org/2000/svg" xmlns:xlink="http://www.w3.org/1999/xlink" x="0px" y="0px"
	 width="140.989px" height="264.523px" viewBox="40 0 140.989 264.523" enable-background="new 40 0 140.989 264.523"
	 xml:space="preserve">
<g id="bg-neonblue-line-small" transform="translate(35.75 -618.339)">
	<path id="Tracé_1626" fill="none" stroke="#74FAFC" stroke-width="14" d="M4.25,625.339h41.083
		c15.28,0,27.667,12.387,27.667,27.667l0,0v182.912"/>
	<path id="Tracé_15055" fill="none" stroke="#74FAFC" stroke-width="14" d="M73,734.535v113.661
		c0,15.279-12.385,27.666-27.664,27.667H12.254"/>
	<g id="station-complete" transform="translate(20 683.239)">
		<g id="Groupe_56" transform="translate(-648.086 -185.38)">
			<path id="Tracé_143" fill="#74FAFC" stroke="#000000" stroke-width="6" d="M700.585,261.6c-13.1,0-23.72-10.62-23.72-23.721
				c0-13.1,10.62-23.72,23.72-23.72c13.101,0,23.72,10.62,23.72,23.72l0,0C724.29,250.974,713.679,261.585,700.585,261.6"/>
			<path id="Tracé_145" fill="none" stroke="#FFFFFF" stroke-width="5" stroke-linecap="round" stroke-linejoin="round" d="
				M692.634,236.925l6.355,8.582l10.23-13.37"/>
		</g>
		<rect id="Rectangle_184" y="0" fill="none" width="105" height="105"/>
	</g>
	<g enable-background="new    ">
		<path fill="#FFFFFF" d="M109.148,740.74v-9.716h0.924l4.115,6.762h-0.629l4.115-6.762h0.924v9.716h-1.315v-7.406l0.308,0.084
			l-3.248,5.334h-0.924l-3.248-5.334l0.294-0.084v7.406H109.148z"/>
		<path fill="#FFFFFF" d="M123.708,740.879c-0.653,0-1.241-0.153-1.764-0.462c-0.522-0.308-0.938-0.726-1.246-1.253
			s-0.462-1.117-0.462-1.771c0-0.645,0.154-1.226,0.462-1.743c0.308-0.519,0.724-0.931,1.246-1.239
			c0.522-0.308,1.11-0.462,1.764-0.462c0.644,0,1.229,0.151,1.757,0.455s0.945,0.717,1.254,1.239
			c0.307,0.522,0.461,1.105,0.461,1.75c0,0.653-0.154,1.243-0.461,1.771c-0.309,0.527-0.727,0.945-1.254,1.253
			C124.938,740.726,124.352,740.879,123.708,740.879z M123.708,739.661c0.42,0,0.794-0.098,1.12-0.294s0.583-0.464,0.77-0.805
			c0.188-0.341,0.28-0.73,0.28-1.169c0-0.43-0.096-0.813-0.286-1.148c-0.191-0.336-0.449-0.6-0.771-0.791
			c-0.322-0.191-0.693-0.287-1.113-0.287s-0.794,0.096-1.12,0.287s-0.583,0.455-0.77,0.791c-0.188,0.336-0.28,0.719-0.28,1.148
			c0,0.438,0.093,0.828,0.28,1.169c0.187,0.341,0.443,0.608,0.77,0.805S123.288,739.661,123.708,739.661z"/>
		<path fill="#FFFFFF" d="M131.281,740.879c-0.551,0-1.043-0.123-1.477-0.371c-0.434-0.247-0.771-0.59-1.015-1.028
			s-0.364-0.947-0.364-1.526v-3.864h1.26v3.809c0,0.364,0.063,0.679,0.189,0.944c0.126,0.267,0.311,0.47,0.553,0.609
			s0.527,0.21,0.854,0.21c0.495,0,0.883-0.156,1.162-0.469c0.281-0.313,0.42-0.744,0.42-1.295v-3.809h1.261v3.864
			c0,0.579-0.122,1.088-0.364,1.526s-0.576,0.781-1.001,1.028C132.334,740.756,131.842,740.879,131.281,740.879z"/>
		<path fill="#FFFFFF" d="M135.817,740.74v-9.996h1.261v9.996H135.817z"/>
		<path fill="#FFFFFF" d="M141.754,740.879c-0.607,0-1.158-0.151-1.652-0.455c-0.495-0.303-0.885-0.716-1.169-1.238
			c-0.285-0.522-0.427-1.111-0.427-1.765c0-0.652,0.142-1.241,0.427-1.764c0.284-0.522,0.672-0.938,1.161-1.246
			c0.49-0.308,1.044-0.462,1.66-0.462c0.504,0,0.953,0.105,1.351,0.315c0.396,0.21,0.716,0.499,0.959,0.867
			c0.243,0.369,0.378,0.796,0.405,1.281v2.002c-0.027,0.477-0.16,0.901-0.398,1.274s-0.555,0.665-0.951,0.875
			C142.722,740.775,142.267,740.879,141.754,740.879z M141.963,739.69c0.626,0,1.13-0.212,1.513-0.637
			c0.382-0.425,0.573-0.969,0.573-1.632c0-0.457-0.086-0.855-0.258-1.196c-0.174-0.341-0.418-0.607-0.735-0.799
			c-0.317-0.19-0.687-0.286-1.106-0.286s-0.791,0.098-1.113,0.294c-0.321,0.195-0.573,0.464-0.756,0.805
			c-0.182,0.341-0.272,0.73-0.272,1.169c0,0.448,0.091,0.843,0.272,1.183c0.183,0.341,0.437,0.609,0.764,0.806
			C141.17,739.591,141.543,739.69,141.963,739.69z M143.965,740.74v-1.792l0.238-1.624l-0.238-1.61v-1.624h1.274v6.65H143.965z"/>
	</g>
</g>
</svg>
