<?xml version="1.0" encoding="utf-8"?>
<!-- Generator: Adobe Illustrator 16.0.0, SVG Export Plug-In . SVG Version: 6.00 Build 0)  -->
<!DOCTYPE svg PUBLIC "-//W3C//DTD SVG 1.1//EN" "http://www.w3.org/Graphics/SVG/1.1/DTD/svg11.dtd">
<svg version="1.1" id="Calque_1" xmlns="http://www.w3.org/2000/svg" xmlns:xlink="http://www.w3.org/1999/xlink" x="0px" y="0px"
	 width="190.314px" height="199.046px" viewBox="56.705 0 190.314 199.046" enable-background="new 56.705 0 190.314 199.046"
	 xml:space="preserve">
<g id="bg-pink-line-small" transform="translate(-180 -4928.79)">
	<path id="Tracé_15800" fill="none" stroke="#ED1E7A" stroke-width="14" d="M427.019,4935.79h-95.352
		c-15.28,0-27.667,12.387-27.667,27.667v164.379"/>
	<g id="station-complete" transform="translate(251.5 4994.142)">
		<g id="Groupe_56" transform="translate(-648.086 -185.38)">
			<path id="Tracé_143" fill="#ED1E7A" stroke="#000000" stroke-width="6" d="M700.585,261.6c-13.1,0-23.72-10.619-23.72-23.72
				c0-13.101,10.62-23.72,23.72-23.72s23.72,10.62,23.72,23.72l0,0C724.29,250.975,713.679,261.585,700.585,261.6"/>
			<path id="Tracé_145" fill="none" stroke="#FFFFFF" stroke-width="5" stroke-linecap="round" stroke-linejoin="round" d="
				M692.634,236.925l6.355,8.582l10.23-13.371"/>
		</g>
		<rect id="Rectangle_184" fill="none" width="105" height="105"/>
	</g>
	<g enable-background="new    ">
		<path fill="#FFFFFF" d="M241.955,5051.792c-0.75,0-1.445-0.137-2.085-0.412c-0.64-0.275-1.198-0.658-1.673-1.148
			c-0.475-0.488-0.842-1.059-1.102-1.709c-0.26-0.65-0.39-1.346-0.39-2.086c0-0.75,0.13-1.449,0.39-2.1
			c0.26-0.65,0.627-1.217,1.102-1.703c0.475-0.484,1.03-0.863,1.665-1.139c0.635-0.275,1.328-0.412,2.078-0.412
			c0.82,0,1.54,0.139,2.16,0.42c0.62,0.279,1.17,0.658,1.65,1.139l-0.975,0.975c-0.33-0.369-0.732-0.658-1.208-0.869
			s-1.018-0.314-1.627-0.314c-0.55,0-1.055,0.098-1.515,0.291c-0.46,0.195-0.86,0.473-1.2,0.834
			c-0.34,0.359-0.603,0.785-0.788,1.275c-0.185,0.488-0.277,1.023-0.277,1.604s0.092,1.115,0.277,1.605s0.447,0.916,0.788,1.275
			c0.34,0.359,0.74,0.637,1.2,0.832s0.965,0.293,1.515,0.293c0.65,0,1.215-0.107,1.695-0.322c0.48-0.215,0.885-0.508,1.215-0.879
			l0.975,0.961c-0.48,0.5-1.042,0.891-1.688,1.17S242.765,5051.792,241.955,5051.792z"/>
		<path fill="#FFFFFF" d="M250.1,5051.792c-0.65,0-1.24-0.162-1.77-0.488c-0.53-0.324-0.948-0.766-1.252-1.326
			c-0.305-0.561-0.458-1.189-0.458-1.891c0-0.699,0.152-1.33,0.458-1.891c0.305-0.559,0.72-1.004,1.245-1.334
			c0.525-0.33,1.117-0.496,1.777-0.496c0.54,0,1.022,0.113,1.447,0.338c0.425,0.225,0.768,0.535,1.028,0.93
			c0.26,0.396,0.405,0.854,0.435,1.373v2.145c-0.03,0.51-0.173,0.967-0.428,1.365c-0.255,0.4-0.595,0.713-1.02,0.938
			C251.137,5051.678,250.65,5051.792,250.1,5051.792z M250.325,5050.516c0.67,0,1.21-0.227,1.62-0.682
			c0.41-0.455,0.615-1.037,0.615-1.748c0-0.49-0.093-0.918-0.277-1.283c-0.185-0.363-0.448-0.648-0.788-0.854
			c-0.34-0.205-0.735-0.309-1.185-0.309s-0.848,0.105-1.192,0.316c-0.345,0.209-0.615,0.496-0.81,0.861s-0.292,0.783-0.292,1.252
			c0,0.48,0.098,0.904,0.292,1.268c0.195,0.365,0.467,0.652,0.817,0.863C249.475,5050.411,249.875,5050.516,250.325,5050.516z
			 M252.47,5051.641v-1.92l0.255-1.74l-0.255-1.725v-1.74h1.365v7.125H252.47z"/>
		<path fill="#FFFFFF" d="M258.064,5051.792c-0.4,0-0.777-0.053-1.132-0.158c-0.355-0.104-0.683-0.254-0.982-0.449
			c-0.3-0.195-0.56-0.428-0.78-0.697l0.87-0.871c0.26,0.32,0.56,0.559,0.9,0.713c0.34,0.156,0.72,0.232,1.14,0.232
			s0.745-0.072,0.975-0.217c0.23-0.145,0.345-0.348,0.345-0.607s-0.092-0.463-0.277-0.607s-0.422-0.266-0.712-0.359
			c-0.29-0.096-0.598-0.191-0.922-0.285c-0.325-0.096-0.633-0.219-0.923-0.369c-0.29-0.148-0.527-0.354-0.712-0.613
			c-0.185-0.262-0.277-0.605-0.277-1.035s0.105-0.803,0.315-1.119c0.21-0.314,0.502-0.557,0.877-0.727s0.827-0.256,1.357-0.256
			c0.56,0,1.058,0.098,1.493,0.293s0.792,0.488,1.072,0.877l-0.87,0.871c-0.2-0.26-0.447-0.461-0.742-0.6
			c-0.295-0.141-0.628-0.211-0.998-0.211c-0.39,0-0.688,0.068-0.893,0.203s-0.308,0.322-0.308,0.563s0.09,0.426,0.27,0.555
			c0.18,0.131,0.417,0.24,0.713,0.33c0.294,0.09,0.602,0.182,0.922,0.277c0.32,0.096,0.625,0.223,0.915,0.383
			c0.29,0.16,0.527,0.375,0.712,0.645s0.277,0.625,0.277,1.064c0,0.672-0.237,1.201-0.712,1.592
			C259.502,5051.596,258.864,5051.792,258.064,5051.792z"/>
		<path fill="#FFFFFF" d="M262.205,5051.641v-10.709h1.35v10.709H262.205z M267.244,5051.641v-4.154c0-0.541-0.17-0.984-0.51-1.336
			c-0.34-0.35-0.78-0.523-1.32-0.523c-0.36,0-0.68,0.08-0.96,0.238c-0.28,0.16-0.5,0.381-0.66,0.66
			c-0.16,0.281-0.24,0.602-0.24,0.961l-0.555-0.314c0-0.541,0.12-1.021,0.36-1.441c0.24-0.42,0.575-0.752,1.005-0.996
			c0.43-0.246,0.915-0.369,1.455-0.369s1.018,0.121,1.433,0.361c0.415,0.24,0.742,0.574,0.982,1.004
			c0.24,0.432,0.36,0.926,0.36,1.486v4.424H267.244z"/>
	</g>
</g>
</svg>
