<svg xmlns="http://www.w3.org/2000/svg" width="322.797" height="452.027" viewBox="90 0 322.797 452.027" xml:space="preserve">
    <path fill="none" stroke="#FCD413" stroke-width="14" d="M386.578 0v376.141c0 15.278-12.385 27.665-27.664 27.667H90"/>
    <g fill="#FCD414" stroke="#FFF">
        <path stroke-width="6" d="M386.077 167.094c-13.101 0-23.72-10.62-23.72-23.72-.001-13.1 10.619-23.72 23.72-23.72 13.1 0 23.72 10.62 23.72 23.72-.015 13.094-10.626 23.705-23.72 23.72"/>
        <path stroke-width="5" stroke-linecap="round" stroke-linejoin="round" d="m378.126 142.419 6.354 8.582 10.23-13.371"/>
    </g>
    <g stroke="#FFF">
        <path fill="#FCD414" stroke-width="6" d="M241.077 427.529c-13.101 0-23.72-10.621-23.72-23.721s10.62-23.721 23.72-23.721 23.72 10.621 23.72 23.721c-.015 13.094-10.626 23.705-23.72 23.721"/>
        <path fill="none" stroke-width="5" stroke-linecap="round" stroke-linejoin="round" d="m233.126 402.853 6.354 8.582 10.23-13.371"/>
    </g>
    <path d="M248.383 138.874v-15.268h2.067v15.268h-2.067zm1.363 0v-1.892h4.246c1.129 0 2.119-.246 2.97-.737s1.515-1.17 1.991-2.035.715-1.862.715-2.992c0-1.114-.242-2.104-.727-2.97a5.194 5.194 0 0 0-2.002-2.024c-.85-.483-1.833-.726-2.947-.726h-4.225v-1.892h4.269c1.114 0 2.146.19 3.091.571a7.412 7.412 0 0 1 2.465 1.606c.695.689 1.238 1.496 1.627 2.42s.584 1.936.584 3.036a7.761 7.761 0 0 1-.584 3.024c-.389.932-.928 1.742-1.617 2.432s-1.506 1.225-2.453 1.605c-.945.382-1.969.572-3.068.572h-4.335zM269.084 139.094c-1.027 0-1.951-.242-2.771-.726a5.423 5.423 0 0 1-1.959-1.969c-.483-.829-.726-1.757-.726-2.783 0-1.012.242-1.925.726-2.739a5.48 5.48 0 0 1 1.959-1.947c.82-.483 1.744-.726 2.771-.726 1.012 0 1.932.238 2.761.715s1.485 1.126 1.97 1.947c.483.821.726 1.738.726 2.75 0 1.026-.242 1.954-.726 2.783a5.407 5.407 0 0 1-4.731 2.695zm0-1.914c.66 0 1.246-.153 1.76-.462.514-.308.916-.729 1.21-1.265s.44-1.147.44-1.837c0-.675-.15-1.276-.451-1.804-.301-.528-.704-.942-1.21-1.243s-1.089-.451-1.749-.451-1.247.15-1.76.451a3.236 3.236 0 0 0-1.211 1.243c-.293.527-.439 1.129-.439 1.804 0 .689.146 1.302.439 1.837.294.535.697.957 1.211 1.265.513.308 1.1.462 1.76.462zM276.762 138.874v-15.708h1.98v15.708h-1.98zM281.646 138.874v-15.708h1.979v15.708h-1.979zM290.973 139.094c-.953 0-1.818-.238-2.596-.715s-1.39-1.125-1.837-1.947c-.447-.821-.671-1.745-.671-2.771s.224-1.95.671-2.772a5.214 5.214 0 0 1 1.826-1.958c.771-.483 1.64-.726 2.606-.726.793 0 1.5.165 2.123.495s1.126.784 1.508 1.364c.381.579.594 1.25.638 2.013v3.146a4.104 4.104 0 0 1-.627 2.002 3.914 3.914 0 0 1-1.496 1.375c-.624.329-1.339.494-2.145.494zm.33-1.87c.982 0 1.775-.333 2.377-1.001.601-.667.901-1.521.901-2.563 0-.719-.136-1.346-.407-1.881s-.656-.953-1.154-1.254c-.499-.301-1.078-.451-1.738-.451s-1.243.153-1.749.462a3.239 3.239 0 0 0-1.188 1.265c-.285.536-.429 1.148-.429 1.837 0 .704.144 1.324.429 1.859.287.535.686.957 1.199 1.265.513.308 1.099.462 1.759.462zm3.146 1.65v-2.816l.374-2.552-.374-2.53v-2.552h2.002v10.45h-2.002zM308.33 139.094c-.968 0-1.833-.238-2.596-.715s-1.367-1.125-1.814-1.947c-.447-.821-.672-1.745-.672-2.771s.225-1.95.672-2.772a5.247 5.247 0 0 1 1.814-1.958c.763-.483 1.628-.726 2.596-.726.777 0 1.481.165 2.112.495.63.33 1.14.784 1.529 1.364.388.579.604 1.25.649 2.013v3.146a4.054 4.054 0 0 1-.639 2.002c-.381.587-.887 1.045-1.518 1.375s-1.34.494-2.133.494zm.33-1.87c.66 0 1.236-.153 1.728-.462a3.21 3.21 0 0 0 1.155-1.265c.277-.535.418-1.147.418-1.837 0-.719-.144-1.342-.43-1.87a3.299 3.299 0 0 0-1.166-1.254c-.491-.309-1.066-.462-1.727-.462s-1.24.153-1.738.462a3.263 3.263 0 0 0-1.177 1.265c-.286.536-.429 1.148-.429 1.837 0 .704.143 1.324.429 1.859s.683.957 1.188 1.265c.507.308 1.089.462 1.749.462zm5.17 1.65h-2.002v-2.816l.375-2.552-.375-2.53v-7.81h2.002v15.708zM321.486 139.094c-1.027 0-1.951-.242-2.771-.726a5.423 5.423 0 0 1-1.959-1.969c-.483-.829-.726-1.757-.726-2.783 0-1.012.242-1.925.726-2.739a5.48 5.48 0 0 1 1.959-1.947c.82-.483 1.744-.726 2.771-.726 1.012 0 1.932.238 2.761.715s1.485 1.126 1.97 1.947c.483.821.726 1.738.726 2.75 0 1.026-.242 1.954-.726 2.783a5.407 5.407 0 0 1-4.731 2.695zm0-1.914c.66 0 1.246-.153 1.76-.462.514-.308.916-.729 1.21-1.265s.44-1.147.44-1.837c0-.675-.15-1.276-.451-1.804-.301-.528-.704-.942-1.21-1.243s-1.089-.451-1.749-.451-1.247.15-1.76.451a3.236 3.236 0 0 0-1.211 1.243c-.293.527-.439 1.129-.439 1.804 0 .689.146 1.302.439 1.837.294.535.697.957 1.211 1.265.513.308 1.1.462 1.76.462zM329.164 138.874v-15.708h1.98v15.708h-1.98zM334.048 138.874v-15.708h1.979v15.708h-1.979zM343.375 139.094c-.953 0-1.818-.238-2.596-.715s-1.39-1.125-1.837-1.947c-.447-.821-.671-1.745-.671-2.771s.224-1.95.671-2.772a5.214 5.214 0 0 1 1.826-1.958c.771-.483 1.64-.726 2.606-.726.793 0 1.5.165 2.123.495s1.126.784 1.508 1.364c.381.579.594 1.25.638 2.013v3.146a4.104 4.104 0 0 1-.627 2.002 3.914 3.914 0 0 1-1.496 1.375c-.624.329-1.338.494-2.145.494zm.33-1.87c.982 0 1.775-.333 2.377-1.001.601-.667.901-1.521.901-2.563 0-.719-.136-1.346-.407-1.881s-.656-.953-1.154-1.254c-.499-.301-1.078-.451-1.738-.451s-1.243.153-1.749.462a3.239 3.239 0 0 0-1.188 1.265c-.285.536-.429 1.148-.429 1.837 0 .704.144 1.324.429 1.859.287.535.686.957 1.199 1.265.513.308 1.099.462 1.759.462zm3.147 1.65v-2.816l.374-2.552-.374-2.53v-2.552h2.002v10.45h-2.002zM282.03 163.874v-15.708h1.979v7.81l-.373 2.53.373 2.552v2.816h-1.979zm5.5.22c-.792 0-1.507-.165-2.146-.495a3.958 3.958 0 0 1-1.529-1.375 4.032 4.032 0 0 1-.637-2.002v-3.146c.043-.763.26-1.434.648-2.013.389-.58.902-1.034 1.54-1.364s1.345-.495 2.123-.495c.953 0 1.815.242 2.585.726a5.121 5.121 0 0 1 1.814 1.958c.44.822.66 1.746.66 2.772s-.22 1.95-.66 2.771c-.439.822-1.045 1.471-1.814 1.947s-1.631.716-2.584.716zm-.33-1.87c.66 0 1.239-.153 1.737-.462.499-.308.895-.729 1.188-1.265s.44-1.155.44-1.859c0-.688-.146-1.305-.44-1.848a3.251 3.251 0 0 0-1.188-1.265c-.498-.301-1.07-.451-1.715-.451-.66 0-1.24.15-1.738.451a3.089 3.089 0 0 0-1.166 1.265c-.279.543-.418 1.166-.418 1.87 0 .689.135 1.302.406 1.837s.66.957 1.166 1.265c.507.308 1.083.462 1.728.462zM295.846 151.334c-.367 0-.668-.121-.902-.363a1.26 1.26 0 0 1-.352-.913c0-.352.117-.648.352-.891s.535-.363.902-.363.668.121.902.363.352.539.352.891c0 .367-.117.672-.352.913-.234.242-.535.363-.902.363zm-.991 12.54v-10.45h1.98v10.45h-1.98zM299.762 163.874v-15.708h1.98v15.708h-1.98zM304.646 163.874v-15.708h1.979v15.708h-1.979zM317.537 163.962l-4.532-10.538h2.2l3.365 8.25h-.703l3.541-8.25h2.201l-4.885 10.538h-1.187zm-2.992 4.29 3.08-6.313 1.1 2.023-1.98 4.29h-2.2zM325.236 153.468l1.365-2.618.703-.176a1.194 1.194 0 0 1-.275.396.568.568 0 0 1-.406.153c-.309 0-.591-.128-.848-.385a1.3 1.3 0 0 1-.385-.957c0-.41.144-.763.43-1.056.285-.293.634-.44 1.045-.44.381 0 .719.147 1.012.44s.439.646.439 1.056c0 .162-.032.356-.099.583-.065.228-.194.524-.385.892l-1.452 2.728-1.144-.616zM333.398 164.094c-.953 0-1.818-.238-2.596-.715s-1.39-1.125-1.837-1.947c-.447-.821-.671-1.745-.671-2.771s.224-1.95.671-2.772a5.214 5.214 0 0 1 1.826-1.958c.771-.483 1.64-.726 2.606-.726.793 0 1.5.165 2.123.495s1.126.784 1.508 1.364c.381.579.594 1.25.638 2.013v3.146a4.104 4.104 0 0 1-.627 2.002 3.914 3.914 0 0 1-1.496 1.375c-.623.329-1.338.494-2.145.494zm.331-1.87c.982 0 1.775-.333 2.377-1.001.601-.667.901-1.521.901-2.563 0-.719-.136-1.346-.407-1.881s-.656-.953-1.154-1.254c-.499-.301-1.078-.451-1.738-.451s-1.243.153-1.749.462a3.239 3.239 0 0 0-1.188 1.265c-.285.536-.429 1.148-.429 1.837 0 .704.144 1.324.429 1.859.287.535.686.957 1.199 1.265.512.308 1.098.462 1.759.462zm3.146 1.65v-2.816l.374-2.552-.374-2.53v-2.552h2.002v10.45h-2.002zM341.758 163.874v-15.708h1.98v15.708h-1.98zM346.643 163.874v-15.708h1.979v15.708h-1.979zM214.382 451.808V436.54h2.068v15.268h-2.068zm1.408-13.377v-1.891h8.338v1.891h-8.338zm0 6.666v-1.891h7.964v1.891h-7.964zM226.482 451.808v-15.709h1.979v15.709h-1.979zM236.14 452.027c-1.026 0-1.95-.242-2.772-.725a5.418 5.418 0 0 1-1.957-1.969c-.484-.83-.727-1.758-.727-2.783 0-1.012.242-1.926.727-2.74a5.475 5.475 0 0 1 1.957-1.947c.822-.482 1.746-.725 2.772-.725 1.012 0 1.933.238 2.761.715s1.485 1.125 1.969 1.947c.484.82.727 1.738.727 2.75 0 1.025-.242 1.953-.727 2.783a5.404 5.404 0 0 1-1.969 1.969c-.829.483-1.75.725-2.761.725zm0-1.914c.66 0 1.247-.152 1.76-.461s.917-.73 1.21-1.266.44-1.146.44-1.836c0-.676-.151-1.277-.451-1.805-.301-.527-.704-.941-1.21-1.242s-1.089-.451-1.749-.451-1.247.15-1.761.451a3.235 3.235 0 0 0-1.209 1.242c-.294.527-.44 1.129-.44 1.805 0 .689.146 1.301.44 1.836a3.3 3.3 0 0 0 1.209 1.266c.514.308 1.1.461 1.761.461zM248.041 452.027c-.865 0-1.639-.193-2.32-.582s-1.214-.928-1.596-1.617c-.381-.689-.571-1.488-.571-2.398v-6.072h1.979v5.984c0 .572.1 1.066.297 1.484.199.418.488.738.869.957.382.221.829.33 1.342.33.777 0 1.387-.244 1.826-.736.44-.49.66-1.17.66-2.035v-5.984h1.98v6.072c0 .91-.191 1.709-.572 2.398s-.906 1.229-1.572 1.617c-.668.388-1.441.582-2.322.582zM254.334 450.73l6.203-8.295h2.332l-6.203 8.295h-2.332zm0 1.078v-1.078l1.76-.727h6.644v1.805h-8.404zm.373-8.646v-1.805h8.162v1.078l-1.826.727h-6.336zM269.646 452.027c-1.042 0-1.979-.238-2.815-.715s-1.496-1.125-1.98-1.947c-.484-.82-.727-1.752-.727-2.793 0-1.027.238-1.951.715-2.771.477-.822 1.123-1.471 1.937-1.947s1.728-.715 2.739-.715c.968 0 1.822.219 2.563.66.74.439 1.32 1.049 1.738 1.826s.627 1.656.627 2.639c0 .146-.008.305-.021.473-.016.17-.045.363-.088.584h-8.822v-1.65h7.766l-.727.639c0-.705-.124-1.303-.373-1.793-.25-.492-.602-.873-1.057-1.145s-1.004-.406-1.649-.406c-.675 0-1.269.146-1.782.439s-.91.703-1.188 1.232c-.279.527-.418 1.15-.418 1.869 0 .734.146 1.375.439 1.926.293.549.711.975 1.254 1.275s1.166.451 1.87.451a4.12 4.12 0 0 0 1.617-.309 3.351 3.351 0 0 0 1.265-.924l1.276 1.299a4.891 4.891 0 0 1-1.837 1.342 5.876 5.876 0 0 1-2.322.461z"/>
</svg>
