<?xml version="1.0" encoding="utf-8"?>
<!-- Generator: Adobe Illustrator 16.0.0, SVG Export Plug-In . SVG Version: 6.00 Build 0)  -->
<!DOCTYPE svg PUBLIC "-//W3C//DTD SVG 1.1//EN" "http://www.w3.org/Graphics/SVG/1.1/DTD/svg11.dtd">
<svg version="1.1" id="Calque_1" xmlns="http://www.w3.org/2000/svg" xmlns:xlink="http://www.w3.org/1999/xlink" x="0px" y="0px"
	 width="217.579px" height="185.907px" viewBox="0 80 217.579 185.907" enable-background="new 0 80 217.579 185.907"
	 xml:space="preserve">
<path fill="none" stroke="#6945D8" stroke-width="14" d="M7,80v105.353c0,15.279,12.387,27.667,27.667,27.667h182.912"/>
<path fill="#6945D8" stroke="#000000" stroke-width="6" d="M149.079,236.907c-13.102,0-23.721-10.62-23.721-23.721
	s10.619-23.721,23.721-23.721c13.101,0,23.719,10.62,23.719,23.721C172.784,226.281,162.172,236.892,149.079,236.907"/>
<path fill="none" stroke="#FFFFFF" stroke-width="5" stroke-linecap="round" stroke-linejoin="round" d="M141.127,212.232
	l6.354,8.582l10.229-13.371"/>
<g>
	<path fill="#FFFFFF" d="M114.313,265.907c-1.1,0-2.119-0.201-3.059-0.604c-0.922-0.392-1.756-0.965-2.453-1.684
		c-0.699-0.722-1.249-1.574-1.617-2.509c-0.385-0.973-0.579-2.011-0.572-3.058c0-1.101,0.19-2.127,0.572-3.08
		c0.74-1.877,2.202-3.379,4.06-4.169c0.93-0.403,1.945-0.604,3.047-0.604c1.201,0,2.258,0.205,3.168,0.615
		c0.9,0.406,1.721,0.973,2.42,1.672l-1.43,1.432c-0.492-0.549-1.096-0.983-1.771-1.276c-0.697-0.308-1.492-0.462-2.387-0.462
		c-0.763-0.009-1.52,0.138-2.224,0.429c-0.665,0.28-1.265,0.696-1.76,1.222c-0.506,0.54-0.898,1.176-1.155,1.87
		c-0.272,0.719-0.407,1.504-0.407,2.354s0.135,1.636,0.407,2.354c0.271,0.719,0.657,1.342,1.155,1.869
		c0.498,0.528,1.086,0.937,1.76,1.222c0.675,0.286,1.416,0.43,2.224,0.43c0.953,0,1.78-0.157,2.485-0.474
		c0.679-0.297,1.286-0.735,1.781-1.286l1.43,1.407c-0.701,0.731-1.543,1.315-2.475,1.716
		C116.568,265.702,115.5,265.907,114.313,265.907L114.313,265.907z M126.258,265.907c-0.953,0-1.818-0.238-2.596-0.716
		c-0.779-0.477-1.39-1.125-1.836-1.946c-0.447-0.821-0.673-1.745-0.673-2.771c0-1.025,0.226-1.95,0.673-2.771
		c0.428-0.801,1.057-1.476,1.825-1.958c0.771-0.483,1.64-0.727,2.606-0.727c0.791,0,1.498,0.165,2.123,0.495
		c0.623,0.33,1.125,0.784,1.507,1.364c0.381,0.579,0.594,1.25,0.639,2.013v3.146c-0.032,0.71-0.249,1.399-0.627,2.002
		c-0.369,0.582-0.886,1.056-1.496,1.375C127.782,265.742,127.066,265.907,126.258,265.907L126.258,265.907z M126.588,264.037
		c0.982,0,1.774-0.333,2.377-1.001c0.602-0.667,0.902-1.521,0.902-2.563c0-0.719-0.138-1.346-0.408-1.881
		c-0.271-0.535-0.656-0.953-1.154-1.254s-1.078-0.451-1.738-0.451s-1.242,0.153-1.748,0.462c-0.504,0.306-0.914,0.743-1.188,1.266
		c-0.286,0.535-0.43,1.147-0.43,1.837c0,0.704,0.144,1.323,0.43,1.858c0.285,0.535,0.686,0.957,1.197,1.266
		C125.342,263.884,125.929,264.037,126.588,264.037L126.588,264.037z M129.735,265.687v-2.815l0.375-2.553l-0.375-2.529v-2.553
		h2.002v10.45H129.735z M135.629,253.147c-0.365,0-0.666-0.121-0.9-0.362s-0.354-0.547-0.354-0.913c0-0.353,0.117-0.648,0.354-0.892
		c0.234-0.242,0.535-0.362,0.9-0.362c0.367,0,0.668,0.12,0.902,0.362s0.352,0.539,0.352,0.892c0,0.366-0.116,0.672-0.352,0.913
		C136.297,253.026,135.997,253.147,135.629,253.147z M134.641,265.687v-10.45h1.979v10.45H134.641z M139.547,265.687v-15.708h1.979
		v15.708H139.547z M144.43,265.687v-15.708h1.98v15.708H144.43z M153.758,265.907c-0.954,0-1.819-0.238-2.598-0.716
		c-0.777-0.477-1.39-1.125-1.836-1.946c-0.447-0.821-0.672-1.745-0.672-2.771c0-1.025,0.225-1.95,0.672-2.771
		c0.428-0.801,1.057-1.476,1.825-1.958c0.771-0.483,1.64-0.727,2.606-0.727c0.791,0,1.5,0.165,2.123,0.495s1.125,0.784,1.506,1.364
		c0.383,0.579,0.596,1.25,0.64,2.013v3.146c-0.032,0.71-0.248,1.4-0.627,2.002c-0.374,0.587-0.873,1.045-1.496,1.375
		S154.565,265.907,153.758,265.907L153.758,265.907z M154.088,264.037c0.981,0,1.772-0.333,2.375-1.001
		c0.602-0.667,0.902-1.521,0.902-2.563c0-0.719-0.137-1.346-0.406-1.881c-0.258-0.52-0.659-0.955-1.156-1.254
		c-0.498-0.301-1.078-0.451-1.737-0.451c-0.66,0-1.243,0.153-1.749,0.462c-0.504,0.306-0.914,0.743-1.188,1.266
		c-0.287,0.535-0.43,1.147-0.43,1.837c0,0.704,0.143,1.323,0.43,1.858c0.285,0.535,0.686,0.957,1.197,1.266
		C152.84,263.884,153.428,264.037,154.088,264.037L154.088,264.037z M157.234,265.687v-2.815l0.374-2.553l-0.374-2.529v-2.553h2.002
		v10.45H157.234z M165.44,265.907c-0.563,0.003-1.121-0.074-1.662-0.23c-0.52-0.154-1-0.374-1.439-0.66
		c-0.44-0.286-0.821-0.627-1.145-1.022l1.275-1.275c0.381,0.47,0.82,0.817,1.32,1.045c0.525,0.233,1.096,0.35,1.672,0.341
		c0.615,0,1.093-0.105,1.43-0.318c0.338-0.212,0.506-0.51,0.506-0.892c0-0.381-0.135-0.679-0.406-0.891
		c-0.271-0.213-0.619-0.389-1.045-0.528s-0.877-0.277-1.354-0.418c-0.478-0.14-0.928-0.318-1.354-0.539
		c-0.416-0.212-0.775-0.521-1.046-0.901c-0.271-0.382-0.405-0.888-0.405-1.519s0.153-1.177,0.461-1.639
		c0.309-0.463,0.737-0.818,1.287-1.067c0.551-0.249,1.215-0.374,1.991-0.374c0.82,0,1.552,0.144,2.188,0.43
		c0.637,0.285,1.162,0.715,1.572,1.286l-1.274,1.276c-0.288-0.376-0.661-0.678-1.091-0.88c-0.457-0.212-0.957-0.317-1.463-0.31
		c-0.571,0-1.008,0.101-1.309,0.298c-0.287,0.174-0.459,0.488-0.451,0.824c0,0.354,0.133,0.624,0.396,0.814s0.611,0.352,1.045,0.483
		c0.432,0.132,0.883,0.269,1.354,0.406c0.469,0.141,0.916,0.326,1.342,0.563c0.424,0.233,0.772,0.55,1.045,0.945
		c0.271,0.396,0.406,0.917,0.406,1.563c0,0.982-0.349,1.76-1.045,2.332C167.547,265.621,166.613,265.907,165.44,265.907
		L165.44,265.907z M174.833,265.907c-0.562,0.003-1.121-0.074-1.66-0.23c-0.51-0.149-0.996-0.371-1.441-0.66
		c-0.432-0.279-0.818-0.625-1.145-1.022l1.276-1.275c0.382,0.47,0.82,0.817,1.32,1.045c0.526,0.233,1.097,0.35,1.672,0.341
		c0.615,0,1.092-0.105,1.431-0.318c0.336-0.212,0.506-0.51,0.506-0.892c0-0.381-0.137-0.679-0.406-0.891
		c-0.272-0.213-0.621-0.389-1.047-0.528c-0.424-0.139-0.875-0.277-1.353-0.418c-0.478-0.14-0.928-0.318-1.354-0.539
		c-0.426-0.22-0.772-0.521-1.045-0.901c-0.271-0.382-0.405-0.888-0.405-1.519s0.153-1.177,0.461-1.639
		c0.318-0.472,0.765-0.842,1.287-1.067c0.551-0.249,1.214-0.374,1.991-0.374c0.82,0,1.552,0.144,2.188,0.43
		c0.631,0.279,1.175,0.724,1.574,1.286l-1.276,1.276c-0.287-0.376-0.661-0.678-1.089-0.88c-0.459-0.211-0.959-0.317-1.463-0.31
		c-0.572,0-1.009,0.101-1.311,0.298c-0.287,0.174-0.459,0.488-0.449,0.824c0,0.354,0.131,0.624,0.396,0.814
		c0.264,0.19,0.611,0.352,1.045,0.483c0.432,0.131,0.883,0.269,1.353,0.406c0.47,0.141,0.917,0.326,1.342,0.563
		c0.426,0.233,0.772,0.55,1.045,0.945c0.271,0.396,0.408,0.917,0.408,1.563c0,0.982-0.351,1.76-1.045,2.332
		C176.942,265.621,176.006,265.907,174.833,265.907z M185.745,265.907c-1.041,0-1.979-0.238-2.814-0.716
		c-0.836-0.477-1.496-1.125-1.979-1.946c-0.484-0.821-0.728-1.752-0.728-2.794c0-1.026,0.237-1.95,0.715-2.771
		s1.122-1.471,1.937-1.947c0.813-0.477,1.728-0.715,2.74-0.715c0.967,0,1.821,0.22,2.563,0.66c0.74,0.439,1.32,1.049,1.738,1.826
		s0.627,1.657,0.627,2.64c0,0.146-0.008,0.306-0.022,0.474c-0.019,0.195-0.048,0.39-0.088,0.583h-8.822v-1.649h7.767l-0.727,0.638
		c0-0.704-0.125-1.302-0.374-1.793c-0.249-0.49-0.603-0.872-1.056-1.144c-0.455-0.271-1.006-0.407-1.65-0.407
		c-0.674,0-1.27,0.146-1.781,0.439c-0.514,0.294-0.91,0.704-1.188,1.231c-0.277,0.528-0.418,1.151-0.418,1.87
		c0,0.733,0.146,1.375,0.439,1.925s0.711,0.977,1.254,1.276c0.543,0.301,1.166,0.45,1.869,0.45c0.588,0,1.127-0.103,1.617-0.309
		c0.489-0.203,0.924-0.521,1.266-0.924l1.275,1.298c-0.498,0.587-1.127,1.047-1.837,1.342
		C187.333,265.755,186.542,265.912,185.745,265.907z"/>
</g>
</svg>
