<svg xmlns="http://www.w3.org/2000/svg" width="217.579" height="271.688" xml:space="preserve">
    <path fill="none" stroke="#6945D8" stroke-width="14" d="M7 0v185.353c0 15.279 12.387 27.667 27.667 27.667h182.912"/>
    <path fill="#6945D8" stroke="#000" stroke-width="6" d="M149.079 236.907c-13.102 0-23.721-10.62-23.721-23.72 0-13.101 10.619-23.721 23.721-23.721 13.1 0 23.719 10.62 23.719 23.721-.014 13.094-10.626 23.705-23.719 23.72"/>
    <path fill="none" stroke="#FFF" stroke-width="5" stroke-linecap="round" stroke-linejoin="round" d="m141.127 212.232 6.354 8.582 10.229-13.371"/>
    <g fill="#FFF">
        <path d="M114.313 265.907c-1.1 0-2.119-.201-3.059-.604a7.494 7.494 0 0 1-2.452-1.684 7.617 7.617 0 0 1-1.617-2.508 8.163 8.163 0 0 1-.572-3.058c0-1.101.19-2.127.572-3.08a7.534 7.534 0 0 1 4.059-4.169c.931-.403 1.946-.605 3.047-.605 1.202 0 2.258.206 3.168.616a8.145 8.145 0 0 1 2.42 1.672l-1.43 1.431a5.094 5.094 0 0 0-1.771-1.276c-.697-.308-1.492-.462-2.387-.462a5.64 5.64 0 0 0-2.223.429 5.169 5.169 0 0 0-1.76 1.221 5.55 5.55 0 0 0-1.155 1.87c-.272.719-.407 1.504-.407 2.354s.135 1.636.407 2.354c.271.719.657 1.342 1.155 1.87s1.086.936 1.76 1.221c.675.286 1.416.43 2.223.43.953 0 1.781-.157 2.486-.474a5.196 5.196 0 0 0 1.781-1.286l1.43 1.407a7.561 7.561 0 0 1-2.475 1.716c-.945.41-2.013.615-3.2.615zM126.259 265.907c-.954 0-1.819-.238-2.597-.715s-1.389-1.125-1.836-1.947c-.447-.821-.672-1.745-.672-2.771s.225-1.95.672-2.772a5.214 5.214 0 0 1 1.826-1.958c.77-.483 1.639-.726 2.606-.726.792 0 1.499.165 2.123.495.623.33 1.126.784 1.507 1.364.381.579.594 1.25.639 2.013v3.146a4.125 4.125 0 0 1-.627 2.002 3.921 3.921 0 0 1-1.496 1.375c-.623.329-1.338.494-2.145.494zm.33-1.87c.982 0 1.774-.333 2.376-1.001.602-.667.902-1.521.902-2.563 0-.719-.137-1.346-.407-1.881-.272-.535-.657-.953-1.155-1.254s-1.078-.451-1.738-.451-1.242.153-1.748.462a3.231 3.231 0 0 0-1.188 1.265c-.286.536-.429 1.148-.429 1.837 0 .704.143 1.324.429 1.859s.686.957 1.198 1.265c.513.309 1.1.462 1.76.462zm3.146 1.65v-2.816l.375-2.552-.375-2.53v-2.552h2.002v10.45h-2.002zM135.63 253.147c-.366 0-.667-.121-.901-.363-.235-.241-.353-.546-.353-.913 0-.352.117-.648.353-.891.234-.242.535-.363.901-.363s.667.121.902.363c.234.242.352.539.352.891 0 .367-.117.672-.352.913-.235.242-.535.363-.902.363zm-.989 12.54v-10.45h1.979v10.45h-1.979zM139.547 265.687v-15.708h1.979v15.708h-1.979zM144.43 265.687v-15.708h1.98v15.708h-1.98zM153.758 265.907c-.954 0-1.819-.238-2.597-.715s-1.39-1.125-1.837-1.947c-.447-.821-.671-1.745-.671-2.771s.224-1.95.671-2.772a5.222 5.222 0 0 1 1.826-1.958c.77-.483 1.639-.726 2.607-.726.791 0 1.499.165 2.123.495.623.33 1.125.784 1.506 1.364.382.579.595 1.25.639 2.013v3.146a4.104 4.104 0 0 1-.627 2.002c-.374.587-.873 1.045-1.496 1.375s-1.337.494-2.144.494zm.33-1.87c.982 0 1.773-.333 2.375-1.001.602-.667.902-1.521.902-2.563 0-.719-.136-1.346-.406-1.881a3.04 3.04 0 0 0-1.156-1.254c-.498-.301-1.078-.451-1.737-.451-.66 0-1.243.153-1.749.462a3.231 3.231 0 0 0-1.188 1.265c-.287.536-.43 1.148-.43 1.837 0 .704.143 1.324.43 1.859.285.535.686.957 1.198 1.265.513.309 1.101.462 1.761.462zm3.146 1.65v-2.816l.374-2.552-.374-2.53v-2.552h2.002v10.45h-2.002zM165.44 265.907a5.866 5.866 0 0 1-1.662-.23c-.52-.154-1-.374-1.44-.66s-.821-.627-1.144-1.023l1.275-1.275c.381.47.821.817 1.32 1.045a3.976 3.976 0 0 0 1.672.341c.616 0 1.093-.106 1.43-.319.338-.212.506-.509.506-.891 0-.381-.135-.679-.406-.891-.271-.213-.62-.389-1.045-.528-.426-.14-.877-.278-1.354-.418s-.928-.319-1.353-.539a2.9 2.9 0 0 1-1.046-.902c-.271-.381-.406-.887-.406-1.518s.154-1.177.462-1.639c.308-.463.737-.818 1.287-1.067s1.214-.374 1.991-.374c.82 0 1.551.143 2.188.429s1.163.715 1.573 1.287l-1.275 1.276a2.957 2.957 0 0 0-1.09-.88 3.362 3.362 0 0 0-1.463-.309c-.572 0-1.008.1-1.309.297a.936.936 0 0 0-.451.825c0 .353.132.624.396.814.264.19.611.352 1.045.483.432.132.883.269 1.353.407.47.14.917.326 1.342.562.425.234.773.55 1.045.945.271.396.407.917.407 1.563 0 .982-.349 1.76-1.045 2.332-.696.571-1.63.857-2.803.857zM174.833 265.907a5.859 5.859 0 0 1-1.661-.23 5.475 5.475 0 0 1-1.441-.66 4.978 4.978 0 0 1-1.144-1.023l1.276-1.275c.381.47.82.817 1.32 1.045a3.973 3.973 0 0 0 1.672.341c.615 0 1.092-.106 1.43-.319.337-.212.506-.509.506-.891 0-.381-.136-.679-.406-.891-.272-.213-.621-.389-1.046-.528s-.876-.278-1.353-.418-.928-.319-1.354-.539-.773-.521-1.045-.902c-.271-.381-.406-.887-.406-1.518s.153-1.177.461-1.639a2.983 2.983 0 0 1 1.287-1.067c.551-.249 1.214-.374 1.991-.374.821 0 1.552.143 2.188.429a3.836 3.836 0 0 1 1.574 1.287l-1.276 1.276a2.954 2.954 0 0 0-1.089-.88 3.368 3.368 0 0 0-1.463-.309c-.572 0-1.009.1-1.31.297a.935.935 0 0 0-.45.825c0 .353.131.624.396.814.264.19.612.352 1.045.483s.884.269 1.353.407c.47.14.917.326 1.342.562.426.234.773.55 1.045.945.271.396.408.917.408 1.563 0 .982-.35 1.76-1.045 2.332-.696.571-1.632.857-2.805.857zM185.745 265.907c-1.041 0-1.979-.238-2.815-.715s-1.496-1.125-1.979-1.947c-.484-.821-.727-1.752-.727-2.794 0-1.026.238-1.95.715-2.771s1.122-1.471 1.936-1.947c.814-.477 1.728-.715 2.74-.715.967 0 1.822.22 2.563.66.74.439 1.32 1.049 1.738 1.826s.627 1.657.627 2.64c0 .146-.008.305-.022.473a5.479 5.479 0 0 1-.088.583h-8.822v-1.649h7.767l-.727.638c0-.704-.125-1.302-.374-1.793s-.602-.872-1.056-1.144c-.455-.271-1.005-.407-1.65-.407-.674 0-1.269.146-1.781.439-.514.294-.91.704-1.188 1.232s-.418 1.151-.418 1.87c0 .733.146 1.375.44 1.925.293.55.711.976 1.254 1.276.542.301 1.166.45 1.869.45.587 0 1.126-.102 1.617-.308a3.354 3.354 0 0 0 1.266-.924l1.275 1.298a4.862 4.862 0 0 1-1.837 1.342 5.878 5.878 0 0 1-2.323.462z"/>
    </g>
</svg>
