<svg xmlns="http://www.w3.org/2000/svg" width="245" height="515" viewBox="99.716 -0.05 245 515" xml:space="preserve">
    <path fill="none" stroke="#74FAFC" stroke-width="14" d="M100 7h127.2c15.28 0 27.668 12.387 27.668 27.667v182.912"/>
    <path fill="none" stroke="#74FAFC" stroke-width="14" d="M254.864 217.431v262.802c0 15.278-12.385 27.665-27.664 27.667H100"/>
    <g fill="#FFF">
        <path d="M284.668 225.431v-15.268h1.451l6.469 10.626h-.99l6.468-10.626h1.452v15.268h-2.068v-11.638l.484.132-5.104 8.382h-1.452l-5.104-8.382.462-.132v11.638h-2.068zM307.547 225.65c-1.026 0-1.95-.242-2.771-.726a5.413 5.413 0 0 1-1.958-1.969c-.483-.829-.726-1.757-.726-2.783 0-1.012.242-1.925.726-2.739a5.47 5.47 0 0 1 1.958-1.947c.821-.483 1.745-.726 2.771-.726 1.012 0 1.933.238 2.762.715.828.477 1.484 1.126 1.969 1.947s.727 1.738.727 2.75c0 1.026-.242 1.954-.727 2.783a5.412 5.412 0 0 1-1.969 1.969c-.829.484-1.75.726-2.762.726zm0-1.914c.66 0 1.247-.153 1.76-.462a3.288 3.288 0 0 0 1.211-1.265c.293-.535.439-1.147.439-1.837 0-.675-.15-1.276-.451-1.804-.301-.528-.703-.942-1.209-1.243s-1.09-.451-1.75-.451-1.246.15-1.76.451-.916.715-1.21 1.243c-.294.527-.44 1.129-.44 1.804 0 .689.146 1.302.44 1.837s.696.957 1.21 1.265c.514.309 1.1.462 1.76.462zM319.45 225.65c-.865 0-1.639-.194-2.321-.583a4.106 4.106 0 0 1-1.595-1.617c-.382-.688-.572-1.488-.572-2.397v-6.072h1.98v5.984c0 .572.099 1.066.297 1.484.197.418.487.737.869.957.381.221.828.33 1.342.33.777 0 1.386-.245 1.826-.736.439-.491.66-1.17.66-2.035v-5.984h1.979v6.072c0 .909-.19 1.709-.572 2.397a4.16 4.16 0 0 1-1.573 1.617c-.667.389-1.44.583-2.32.583zM326.577 225.431v-15.708h1.98v15.708h-1.98zM335.905 225.65c-.953 0-1.818-.238-2.596-.715s-1.391-1.125-1.838-1.947c-.447-.821-.67-1.745-.67-2.771s.223-1.95.67-2.772a5.222 5.222 0 0 1 1.826-1.958c.771-.483 1.64-.726 2.607-.726.792 0 1.5.165 2.123.495s1.125.784 1.507 1.364c.382.579.595 1.25.638 2.013v3.146a4.084 4.084 0 0 1-.627 2.002c-.373.587-.873 1.045-1.496 1.375s-1.338.494-2.144.494zm.33-1.87c.982 0 1.774-.333 2.376-1.001.601-.667.901-1.521.901-2.563 0-.719-.135-1.346-.406-1.881s-.656-.953-1.155-1.254-1.078-.451-1.737-.451c-.66 0-1.244.153-1.75.462a3.239 3.239 0 0 0-1.188 1.265c-.286.536-.43 1.148-.43 1.837 0 .704.144 1.324.43 1.859s.686.957 1.199 1.265c.513.309 1.1.462 1.76.462zm3.146 1.651v-2.816l.373-2.552-.373-2.53v-2.552h2.002v10.45h-2.002z"/>
    </g>
    <path fill="#74FAFC" stroke="#000" stroke-width="6" d="M254.364 242.12c-13.102 0-23.721-10.62-23.721-23.72s10.619-23.72 23.721-23.72c13.1 0 23.719 10.62 23.719 23.72-.014 13.094-10.625 23.705-23.719 23.72"/>
    <path fill="none" stroke="#FFF" stroke-width="5" stroke-linecap="round" stroke-linejoin="round" d="m246.413 217.445 6.354 8.582 10.229-13.371"/>
</svg>
