<?xml version="1.0" encoding="utf-8"?>
<!-- Generator: Adobe Illustrator 16.0.0, SVG Export Plug-In . SVG Version: 6.00 Build 0)  -->
<!DOCTYPE svg PUBLIC "-//W3C//DTD SVG 1.1//EN" "http://www.w3.org/Graphics/SVG/1.1/DTD/svg11.dtd">
<svg version="1.1" id="Calque_1" xmlns="http://www.w3.org/2000/svg" xmlns:xlink="http://www.w3.org/1999/xlink" x="0px" y="0px"
	 width="414.842px" height="110.605px" viewBox="0 0 414.842 110.605" enable-background="new 0 0 414.842 110.605"
	 xml:space="preserve">
<g id="bg-yellow-line-small" transform="translate(18.926 -3222.957)">
	<g id="Groupe_3489" transform="translate(-145 -239.86)">
		<path id="Tracé_19901" fill="none" stroke="#FCD413" stroke-width="14" d="M533.916,3462.817v30.438
			c0,15.28-12.727,27.667-28.428,27.667H126.074"/>
		<g id="station-complete" transform="translate(312.49 3468.423)">
			<g id="Groupe_56" transform="translate(29.571 28.779)">
				<path id="Tracé_143" fill="#FCD414" stroke="#FFFFFF" stroke-width="6" d="M24.373,48.741C10.912,48.741,0,37.829,0,24.368
					S10.912-0.005,24.373-0.005s24.373,10.912,24.373,24.373C48.731,37.822,37.827,48.727,24.373,48.741"/>
				<path id="Tracé_145" fill="none" stroke="#FFFFFF" stroke-width="5" stroke-linecap="round" stroke-linejoin="round" d="
					M16.203,23.392l6.529,8.818l10.512-13.739"/>
			</g>
			<rect id="Rectangle_184" x="0" y="0" fill="none" width="107.888" height="105"/>
		</g>
		<g enable-background="new    ">
			<path d="M307.5,3560.923v-9.716h1.316v9.716H307.5z M308.368,3560.923v-1.204h2.702c0.719,0,1.349-0.156,1.89-0.469
				s0.964-0.744,1.267-1.295s0.455-1.186,0.455-1.904c0-0.709-0.154-1.339-0.462-1.89c-0.308-0.551-0.733-0.98-1.274-1.288
				c-0.542-0.309-1.167-0.462-1.876-0.462h-2.688v-1.204h2.716c0.709,0,1.365,0.121,1.967,0.364
				c0.602,0.242,1.125,0.583,1.568,1.021s0.789,0.952,1.036,1.54s0.371,1.232,0.371,1.932c0,0.691-0.124,1.333-0.371,1.926
				s-0.59,1.108-1.029,1.547c-0.439,0.438-0.959,0.779-1.561,1.021c-0.602,0.243-1.253,0.364-1.953,0.364H308.368z"/>
			<path d="M320.674,3561.063c-0.653,0-1.241-0.153-1.764-0.462c-0.523-0.308-0.938-0.726-1.246-1.253
				c-0.308-0.527-0.462-1.117-0.462-1.771c0-0.645,0.154-1.226,0.462-1.743c0.308-0.519,0.723-0.931,1.246-1.239
				c0.522-0.308,1.11-0.462,1.764-0.462c0.644,0,1.229,0.151,1.757,0.455c0.527,0.304,0.945,0.717,1.253,1.239
				c0.308,0.522,0.462,1.105,0.462,1.75c0,0.653-0.154,1.243-0.462,1.771c-0.308,0.527-0.726,0.945-1.253,1.253
				C321.903,3560.909,321.318,3561.063,320.674,3561.063z M320.674,3559.845c0.42,0,0.793-0.098,1.12-0.294s0.583-0.464,0.77-0.805
				c0.187-0.341,0.28-0.73,0.28-1.169c0-0.43-0.096-0.813-0.287-1.148c-0.191-0.336-0.448-0.6-0.77-0.791
				c-0.322-0.191-0.693-0.287-1.113-0.287s-0.793,0.096-1.12,0.287s-0.583,0.455-0.77,0.791c-0.187,0.336-0.28,0.719-0.28,1.148
				c0,0.438,0.093,0.828,0.28,1.169c0.187,0.341,0.443,0.608,0.77,0.805S320.254,3559.845,320.674,3559.845z"/>
			<path d="M325.559,3560.923v-9.996h1.26v9.996H325.559z"/>
			<path d="M328.667,3560.923v-9.996h1.26v9.996H328.667z"/>
			<path d="M334.603,3561.063c-0.606,0-1.157-0.151-1.651-0.455c-0.496-0.303-0.885-0.716-1.17-1.238s-0.427-1.111-0.427-1.765
				c0-0.652,0.142-1.241,0.427-1.764s0.672-0.938,1.162-1.246c0.49-0.308,1.043-0.462,1.659-0.462c0.504,0,0.954,0.105,1.351,0.315
				s0.717,0.499,0.959,0.867c0.243,0.369,0.379,0.796,0.406,1.281v2.002c-0.027,0.477-0.16,0.901-0.398,1.274
				s-0.556,0.665-0.952,0.875C335.571,3560.958,335.116,3561.063,334.603,3561.063z M334.813,3559.873
				c0.625,0,1.129-0.212,1.512-0.637s0.574-0.969,0.574-1.632c0-0.457-0.086-0.855-0.259-1.196s-0.418-0.607-0.735-0.799
				c-0.316-0.19-0.686-0.286-1.105-0.286s-0.791,0.098-1.113,0.294c-0.322,0.195-0.574,0.464-0.756,0.805s-0.273,0.73-0.273,1.169
				c0,0.448,0.092,0.843,0.273,1.183c0.182,0.341,0.436,0.609,0.763,0.806C334.02,3559.774,334.393,3559.873,334.813,3559.873z
				 M336.815,3560.923v-1.792l0.238-1.624l-0.238-1.61v-1.624h1.273v6.65H336.815z"/>
			<path d="M345.649,3561.063c-0.616,0-1.167-0.151-1.652-0.455c-0.485-0.303-0.87-0.716-1.154-1.238
				c-0.285-0.522-0.428-1.111-0.428-1.765c0-0.652,0.143-1.241,0.428-1.764c0.284-0.522,0.669-0.938,1.154-1.246
				c0.485-0.308,1.036-0.462,1.652-0.462c0.494,0,0.942,0.105,1.344,0.315s0.726,0.499,0.973,0.867
				c0.248,0.369,0.385,0.796,0.413,1.281v2.002c-0.028,0.477-0.163,0.901-0.405,1.274c-0.243,0.373-0.565,0.665-0.967,0.875
				C346.606,3560.958,346.153,3561.063,345.649,3561.063z M345.859,3559.873c0.42,0,0.786-0.099,1.099-0.294
				c0.313-0.196,0.558-0.465,0.735-0.806c0.177-0.34,0.266-0.729,0.266-1.169c0-0.457-0.091-0.854-0.272-1.189
				c-0.183-0.336-0.43-0.603-0.742-0.798c-0.313-0.196-0.68-0.294-1.1-0.294s-0.789,0.098-1.105,0.294
				c-0.317,0.195-0.566,0.464-0.749,0.805s-0.272,0.73-0.272,1.169c0,0.448,0.09,0.843,0.272,1.183
				c0.183,0.341,0.435,0.609,0.756,0.806C345.068,3559.774,345.438,3559.873,345.859,3559.873z M349.149,3560.923h-1.274v-1.792
				l0.238-1.624l-0.238-1.61v-4.97h1.274V3560.923z"/>
			<path d="M354.02,3561.063c-0.652,0-1.24-0.153-1.764-0.462c-0.522-0.308-0.938-0.726-1.246-1.253
				c-0.308-0.527-0.461-1.117-0.461-1.771c0-0.645,0.153-1.226,0.461-1.743c0.309-0.519,0.724-0.931,1.246-1.239
				c0.523-0.308,1.111-0.462,1.764-0.462c0.645,0,1.23,0.151,1.758,0.455s0.945,0.717,1.253,1.239s0.462,1.105,0.462,1.75
				c0,0.653-0.154,1.243-0.462,1.771s-0.726,0.945-1.253,1.253C355.251,3560.909,354.665,3561.063,354.02,3561.063z
				 M354.02,3559.845c0.42,0,0.794-0.098,1.121-0.294c0.326-0.196,0.582-0.464,0.77-0.805c0.187-0.341,0.279-0.73,0.279-1.169
				c0-0.43-0.096-0.813-0.286-1.148c-0.191-0.336-0.448-0.6-0.771-0.791s-0.693-0.287-1.113-0.287s-0.793,0.096-1.119,0.287
				c-0.327,0.191-0.584,0.455-0.771,0.791s-0.28,0.719-0.28,1.148c0,0.438,0.094,0.828,0.28,1.169s0.443,0.608,0.771,0.805
				C353.227,3559.747,353.6,3559.845,354.02,3559.845z"/>
			<path d="M358.907,3560.923v-9.996h1.26v9.996H358.907z"/>
			<path d="M362.014,3560.923v-9.996h1.26v9.996H362.014z"/>
			<path d="M367.95,3561.063c-0.607,0-1.157-0.151-1.652-0.455c-0.494-0.303-0.884-0.716-1.168-1.238
				c-0.285-0.522-0.428-1.111-0.428-1.765c0-0.652,0.143-1.241,0.428-1.764c0.284-0.522,0.672-0.938,1.161-1.246
				c0.49-0.308,1.044-0.462,1.659-0.462c0.504,0,0.954,0.105,1.352,0.315c0.396,0.21,0.716,0.499,0.959,0.867
				c0.242,0.369,0.377,0.796,0.405,1.281v2.002c-0.028,0.477-0.161,0.901-0.399,1.274c-0.237,0.373-0.555,0.665-0.951,0.875
				S368.464,3561.063,367.95,3561.063z M368.16,3559.873c0.626,0,1.13-0.212,1.513-0.637c0.382-0.425,0.573-0.969,0.573-1.632
				c0-0.457-0.087-0.855-0.259-1.196c-0.173-0.341-0.418-0.607-0.734-0.799c-0.318-0.19-0.687-0.286-1.106-0.286
				c-0.421,0-0.791,0.098-1.113,0.294c-0.321,0.195-0.573,0.464-0.756,0.805s-0.272,0.73-0.272,1.169
				c0,0.448,0.09,0.843,0.272,1.183c0.183,0.341,0.437,0.609,0.763,0.806C367.366,3559.774,367.74,3559.873,368.16,3559.873z
				 M370.162,3560.923v-1.792l0.238-1.624l-0.238-1.61v-1.624h1.274v6.65H370.162z"/>
			<path d="M376.182,3560.923v-9.996h1.26v4.97l-0.238,1.61l0.238,1.624v1.792H376.182z M379.682,3561.063
				c-0.504,0-0.959-0.104-1.365-0.314s-0.73-0.502-0.973-0.875c-0.243-0.373-0.379-0.798-0.406-1.274v-2.002
				c0.027-0.485,0.166-0.912,0.412-1.281c0.248-0.368,0.574-0.657,0.98-0.867s0.856-0.315,1.352-0.315
				c0.606,0,1.154,0.154,1.645,0.462c0.49,0.309,0.875,0.724,1.155,1.246s0.42,1.111,0.42,1.764c0,0.653-0.14,1.242-0.42,1.765
				s-0.665,0.936-1.155,1.238C380.837,3560.911,380.289,3561.063,379.682,3561.063z M379.471,3559.873
				c0.42,0,0.789-0.099,1.106-0.294c0.317-0.196,0.569-0.465,0.757-0.806c0.186-0.34,0.279-0.734,0.279-1.183
				c0-0.438-0.094-0.83-0.279-1.176c-0.188-0.346-0.439-0.614-0.757-0.806c-0.317-0.19-0.681-0.286-1.092-0.286
				c-0.42,0-0.789,0.096-1.106,0.286c-0.316,0.191-0.564,0.46-0.742,0.806c-0.177,0.346-0.266,0.742-0.266,1.189
				c0,0.439,0.086,0.829,0.26,1.169c0.172,0.341,0.42,0.609,0.742,0.806C378.695,3559.774,379.061,3559.873,379.471,3559.873z"/>
			<path d="M384.973,3552.942c-0.233,0-0.425-0.076-0.574-0.23c-0.148-0.154-0.224-0.348-0.224-0.581
				c0-0.224,0.075-0.413,0.224-0.567c0.149-0.153,0.341-0.23,0.574-0.23s0.425,0.077,0.574,0.23
				c0.148,0.154,0.225,0.344,0.225,0.567c0,0.233-0.076,0.427-0.225,0.581C385.398,3552.866,385.207,3552.942,384.973,3552.942z
				 M384.344,3560.923v-6.65h1.261v6.65H384.344z"/>
			<path d="M387.466,3560.923v-9.996h1.26v9.996H387.466z"/>
			<path d="M390.573,3560.923v-9.996h1.261v9.996H390.573z"/>
			<path d="M398.777,3560.979l-2.884-6.706h1.4l2.142,5.25h-0.448l2.254-5.25h1.4l-3.108,6.706H398.777z M396.874,3563.709
				l1.959-4.019l0.7,1.288l-1.26,2.73H396.874z"/>
			<path d="M403.677,3554.301l0.869-1.666l0.447-0.112c-0.047,0.104-0.105,0.188-0.175,0.252c-0.07,0.065-0.157,0.099-0.259,0.099
				c-0.196,0-0.376-0.082-0.539-0.245c-0.164-0.163-0.245-0.366-0.245-0.609c0-0.261,0.091-0.485,0.272-0.672
				c0.183-0.187,0.404-0.28,0.666-0.28c0.242,0,0.457,0.094,0.644,0.28s0.28,0.411,0.28,0.672c0,0.104-0.021,0.227-0.063,0.371
				s-0.124,0.334-0.245,0.567l-0.924,1.735L403.677,3554.301z"/>
			<path d="M408.872,3561.063c-0.607,0-1.158-0.151-1.652-0.455c-0.496-0.303-0.885-0.716-1.17-1.238s-0.427-1.111-0.427-1.765
				c0-0.652,0.142-1.241,0.427-1.764s0.672-0.938,1.162-1.246c0.49-0.308,1.043-0.462,1.66-0.462c0.504,0,0.953,0.105,1.35,0.315
				c0.398,0.21,0.717,0.499,0.959,0.867c0.244,0.369,0.379,0.796,0.406,1.281v2.002c-0.027,0.477-0.16,0.901-0.398,1.274
				s-0.555,0.665-0.951,0.875C409.839,3560.958,409.386,3561.063,408.872,3561.063z M409.081,3559.873
				c0.625,0,1.129-0.212,1.512-0.637s0.574-0.969,0.574-1.632c0-0.457-0.086-0.855-0.258-1.196
				c-0.174-0.341-0.418-0.607-0.736-0.799c-0.316-0.19-0.686-0.286-1.105-0.286s-0.791,0.098-1.113,0.294
				c-0.322,0.195-0.574,0.464-0.756,0.805s-0.273,0.73-0.273,1.169c0,0.448,0.092,0.843,0.273,1.183
				c0.182,0.341,0.438,0.609,0.764,0.806C408.288,3559.774,408.661,3559.873,409.081,3559.873z M411.083,3560.923v-1.792
				l0.238-1.624l-0.238-1.61v-1.624h1.275v6.65H411.083z"/>
			<path d="M414.19,3560.923v-9.996h1.26v9.996H414.19z"/>
			<path d="M417.298,3560.923v-9.996h1.26v9.996H417.298z"/>
		</g>
	</g>
</g>
</svg>
