<svg xmlns="http://www.w3.org/2000/svg" xmlns:xlink="http://www.w3.org/1999/xlink"><symbol viewBox="0 0 47.226 47.226" id="svg-social--facebook" xmlns="http://www.w3.org/2000/svg"><g data-name="Groupe 163" transform="translate(.633 .633)"><circle data-name="Ellipse 1" cx="17.18" cy="17.18" r="17.18" transform="translate(4.603 4.055)" fill="none" stroke="#000" stroke-linecap="round" stroke-width=".946"/><circle data-name="Ellipse 2" cx="17.18" cy="17.18" r="17.18" transform="translate(2.007 6.903)" fill="none" stroke="#000" stroke-linecap="round" stroke-width=".946"/><circle data-name="Ellipse 3" cx="14.038" cy="14.038" r="14.038" transform="rotate(-33.878 31.573 5.68)"/><circle data-name="Ellipse 4" cx="17.18" cy="17.18" r="17.18" transform="rotate(-63.942 24.727 15.434)" fill="none" stroke="#000" stroke-linecap="round" stroke-width=".946"/><path data-name="Tracé 273" d="M19.322 31.721h3.753v-9.407h2.621l.279-3.15h-2.9v-1.793c0-.743.149-1.036.867-1.036h2.033v-3.269h-2.6c-2.8 0-4.056 1.231-4.056 3.588v2.511h-1.951v3.189h1.954Z" fill="#fff"/></g></symbol><symbol viewBox="0 0 51.857 49.293" id="svg-social--instagram" xmlns="http://www.w3.org/2000/svg"><g data-name="Groupe 166" transform="translate(.625 .66)"><circle data-name="Ellipse 9" cx="17.18" cy="17.18" r="17.18" transform="rotate(-8.907 51.978 -38.882)" fill="none" stroke="#000" stroke-linecap="round" stroke-width=".946"/><circle data-name="Ellipse 10" cx="17.18" cy="17.18" r="17.18" transform="rotate(-24.086 34.295 7.317)" fill="none" stroke="#000" stroke-linecap="round" stroke-width=".946"/><circle data-name="Ellipse 11" cx="14.038" cy="14.038" r="14.038" transform="rotate(-20.45 44.303 -13.777)"/><circle data-name="Ellipse 12" cx="17.18" cy="17.18" r="17.18" transform="rotate(-54.161 28.539 11.384)" fill="none" stroke="#000" stroke-linecap="round" stroke-width=".946"/><path data-name="Tracé 276" d="M25.674 15.947c2.259 0 2.527.009 3.419.049a4.676 4.676 0 0 1 1.571.292 2.8 2.8 0 0 1 1.606 1.605 4.689 4.689 0 0 1 .291 1.571c.041.892.049 1.16.049 3.419s-.009 2.527-.049 3.419a4.683 4.683 0 0 1-.291 1.571 2.8 2.8 0 0 1-1.608 1.609 4.692 4.692 0 0 1-1.571.291c-.892.041-1.159.049-3.419.049s-2.527-.009-3.419-.049a4.685 4.685 0 0 1-1.571-.291 2.8 2.8 0 0 1-1.608-1.608 4.679 4.679 0 0 1-.292-1.571c-.041-.892-.049-1.16-.049-3.419s.009-2.527.049-3.419a4.686 4.686 0 0 1 .292-1.571 2.8 2.8 0 0 1 1.606-1.605 4.67 4.67 0 0 1 1.571-.292c.892-.041 1.16-.049 3.419-.049m0-1.524c-2.3 0-2.586.01-3.489.051a6.215 6.215 0 0 0-2.054.393 4.323 4.323 0 0 0-2.474 2.475 6.19 6.19 0 0 0-.393 2.054c-.041.9-.051 1.191-.051 3.489s.01 2.586.051 3.489a6.19 6.19 0 0 0 .393 2.054 4.323 4.323 0 0 0 2.474 2.475 6.215 6.215 0 0 0 2.054.393c.9.041 1.191.051 3.489.051s2.586-.009 3.489-.051a6.212 6.212 0 0 0 2.054-.393 4.326 4.326 0 0 0 2.475-2.475 6.214 6.214 0 0 0 .393-2.054c.041-.9.051-1.191.051-3.489s-.009-2.586-.051-3.489a6.214 6.214 0 0 0-.393-2.054 4.326 4.326 0 0 0-2.475-2.475 6.212 6.212 0 0 0-2.054-.393c-.9-.041-1.191-.051-3.489-.051" fill="#fff"/><path data-name="Tracé 277" d="M25.672 18.539a4.345 4.345 0 1 0 4.345 4.345 4.345 4.345 0 0 0-4.345-4.345m0 7.165a2.82 2.82 0 1 1 2.82-2.82 2.82 2.82 0 0 1-2.82 2.82" fill="#fff"/><path data-name="Tracé 278" d="M31.204 18.367a1.015 1.015 0 1 1-1.016-1.015 1.015 1.015 0 0 1 1.016 1.015" fill="#fff"/></g></symbol><symbol viewBox="0 0 50.451 49.929" id="svg-social--linkedin" xmlns="http://www.w3.org/2000/svg"><g data-name="Groupe 165" transform="translate(.598 .669)"><circle data-name="Ellipse 5" cx="17.18" cy="17.18" r="17.18" transform="rotate(-18.38 38.39 1.696)" fill="none" stroke="#000" stroke-linecap="round" stroke-width=".946"/><circle data-name="Ellipse 6" cx="17.18" cy="17.18" r="17.18" transform="rotate(-18.38 48.73 7.865)" fill="none" stroke="#000" stroke-linecap="round" stroke-width=".946"/><circle data-name="Ellipse 7" cx="14.038" cy="14.038" transform="rotate(-77.421 25.094 13.246)" r="14.038"/><circle data-name="Ellipse 8" cx="17.18" cy="17.18" r="17.18" transform="rotate(-45 29.624 11.433)" fill="none" stroke="#000" stroke-linecap="round" stroke-width=".946"/><g data-name="Groupe 164" fill="#fff"><path data-name="Rectangle 57" d="M16.031 21.63h3.194v10.317h-3.194z"/><path data-name="Tracé 274" d="M17.612 20.279a1.9 1.9 0 1 0-1.888-1.9 1.9 1.9 0 0 0 1.888 1.9Z"/></g><path data-name="Tracé 275" d="M24.331 26.531c0-1.45.668-2.315 1.946-2.315 1.175 0 1.739.829 1.739 2.315v5.416h3.178v-6.532c0-2.764-1.567-4.1-3.754-4.1a3.6 3.6 0 0 0-3.109 1.7v-1.39h-3.064v10.322h3.064Z" fill="#fff"/></g></symbol><symbol viewBox="0 0 49.93 51.105" id="svg-social--reddit" xmlns="http://www.w3.org/2000/svg"><g data-name="Groupe 167" transform="translate(.669 .6)"><circle data-name="Ellipse 13" cx="17.18" cy="17.18" r="17.18" transform="rotate(-71.265 23.512 15.138)" fill="none" stroke="#000" stroke-linecap="round" stroke-width=".946"/><circle data-name="Ellipse 14" cx="17.18" cy="17.18" r="17.18" transform="rotate(-45 30.83 12.77)" fill="none" stroke="#000" stroke-linecap="round" stroke-width=".946"/><circle data-name="Ellipse 15" cx="14.038" cy="14.038" r="14.038" transform="rotate(-36.14 32.175 2.546)"/><circle data-name="Ellipse 16" cx="17.18" cy="17.18" r="17.18" transform="rotate(-71.265 24.568 13.66)" fill="none" stroke="#000" stroke-linecap="round" stroke-width=".946"/><path data-name="Tracé 279" d="M34.708 20.564a2.434 2.434 0 0 0-4.1-1.772 10.539 10.539 0 0 0-5.623-2.083l1.243-3.736 3.14 1.572c-.005.058-.015.112-.015.175a1.462 1.462 0 1 0 .448-1.051l-3.169-1.582a.94.94 0 0 0-1.314.535l-1.349 4.051a10.757 10.757 0 0 0-6.576 2.123 2.435 2.435 0 1 0-2.566 4.036 5.046 5.046 0 0 0-.078.9c0 3.9 4.143 7.059 9.249 7.059s9.249-3.159 9.249-7.059a5.046 5.046 0 0 0-.078-.9 2.434 2.434 0 0 0 1.539-2.268ZM19.13 22.512a1.46 1.46 0 1 1 1.461 1.46 1.459 1.459 0 0 1-1.461-1.46Zm8.68 4.161a4.526 4.526 0 0 1-3.812 1.68 4.528 4.528 0 0 1-3.812-1.68.48.48 0 0 1 .131-.672.491.491 0 0 1 .677.131 3.586 3.586 0 0 0 3 1.246 3.6 3.6 0 0 0 3-1.246.49.49 0 0 1 .677-.127.484.484 0 0 1 .139.668Zm-.4-2.7a1.46 1.46 0 1 1 1.46-1.46 1.458 1.458 0 0 1-1.464 1.46Z" fill="#fff"/></g></symbol><symbol viewBox="0 0 53.449 50.509" id="svg-social--tiktok" xmlns="http://www.w3.org/2000/svg"><g data-name="Groupe 168" transform="translate(.664 .617)"><circle data-name="Ellipse 17" cx="17.18" cy="17.18" transform="rotate(-22.461 35.295 -4.715)" fill="none" stroke="#000" stroke-linecap="round" stroke-width=".946" r="17.18"/><circle data-name="Ellipse 18" cx="17.18" cy="17.18" r="17.18" transform="rotate(-51.714 28.823 13.969)" fill="none" stroke="#000" stroke-linecap="round" stroke-width=".946"/><circle data-name="Ellipse 19" cx="14.038" cy="14.038" transform="rotate(-79.374 26.138 11.167)" r="14.038"/><circle data-name="Ellipse 20" cx="17.18" cy="17.18" r="17.18" transform="rotate(-51.714 29.896 9.569)" fill="none" stroke="#000" stroke-linecap="round" stroke-width=".946"/><path data-name="Tracé 280" d="M29.113 27.062v-7.877s.888 1.48 4.1 1.571a.307.307 0 0 0 .313-.307v-2.226a.31.31 0 0 0-.3-.306 3.922 3.922 0 0 1-3.789-3.8.313.313 0 0 0-.315-.286h-2.543a.306.306 0 0 0-.306.306v12.52a2.58 2.58 0 0 1-2.4 2.608 2.521 2.521 0 0 1-.485-5.013 2.591 2.591 0 0 1 .645-.009.308.308 0 0 0 .348-.3v-2.239a.3.3 0 0 0-.279-.306 5.465 5.465 0 0 0-.976.024 5.357 5.357 0 1 0 5.982 5.321" fill="#fff"/></g></symbol><symbol viewBox="0 0 49.491 49.491" id="svg-social--x-twitter" xmlns="http://www.w3.org/2000/svg"><g data-name="Groupe 169" transform="translate(.662 .662)"><circle data-name="Ellipse 21" cx="17.18" cy="17.18" r="17.18" transform="rotate(-52.599 27.614 13.648)" fill="none" stroke="#000" stroke-linecap="round" stroke-width=".946"/><circle data-name="Ellipse 22" cx="17.18" cy="17.18" r="17.18" transform="translate(3.346 5.421)" fill="none" stroke="#000" stroke-linecap="round" stroke-width=".946"/><circle data-name="Ellipse 23" cx="14.038" cy="14.038" transform="rotate(-28.748 38.657 1.806)" r="14.038"/><circle data-name="Ellipse 24" cx="17.18" cy="17.18" transform="rotate(-81.66 25.018 18.22)" fill="none" stroke="#000" stroke-linecap="round" stroke-width=".946" r="17.18"/><path data-name="Tracé 281" d="m24.682 23.209 5.118-5.474h-1.944l-4.017 4.3-3.076-4.3h-5.315l5.38 7.516-5.38 5.755h1.943l4.28-4.578 3.277 4.578h5.315Zm-6.495-4.066h1.853l7.486 10.456h-1.854Z" fill="#fff"/></g></symbol><symbol viewBox="0 0 47.883 47.883" id="svg-social--youtube" xmlns="http://www.w3.org/2000/svg"><g data-name="Groupe 170" transform="translate(.641 .641)"><circle data-name="Ellipse 25" cx="17.18" cy="17.18" r="17.18" transform="rotate(-28.538 32.272 8.208)" fill="none" stroke="#000" stroke-linecap="round" stroke-width=".946"/><circle data-name="Ellipse 26" cx="17.18" cy="17.18" r="17.18" transform="rotate(-3.673 96.602 -132.193)" fill="none" stroke="#000" stroke-linecap="round" stroke-width=".946"/><circle data-name="Ellipse 27" cx="14.038" cy="14.038" r="14.038" transform="rotate(-78.34 24.075 12.114)"/><circle data-name="Ellipse 28" cx="17.18" cy="17.18" r="17.18" transform="rotate(-3.673 82.797 -72.132)" fill="none" stroke="#000" stroke-linecap="round" stroke-width=".946"/><path data-name="Tracé 282" d="M32.391 18.041a2.218 2.218 0 0 0-1.561-1.572 52.428 52.428 0 0 0-6.9-.372 52.428 52.428 0 0 0-6.9.372 2.22 2.22 0 0 0-1.562 1.572 24.978 24.978 0 0 0 0 8.558 2.221 2.221 0 0 0 1.562 1.572 52.494 52.494 0 0 0 6.9.371 52.494 52.494 0 0 0 6.9-.371 2.22 2.22 0 0 0 1.561-1.571 24.978 24.978 0 0 0 0-8.558Zm-10.27 6.909v-5.256l4.617 2.627Z" fill="#fff"/></g></symbol></svg>