<svg xmlns="http://www.w3.org/2000/svg" xmlns:xlink="http://www.w3.org/1999/xlink"><symbol viewBox="0 0 84 84" id="svg-icon--sand-games" xmlns="http://www.w3.org/2000/svg"><defs><clipPath id="ja"><path style="fill:none" d="M0 0h84v84H0z"/></clipPath><clipPath id="jb"><path style="fill:none" d="M0 0h84v84H0z"/></clipPath></defs><g data-name="Calque 1"><g style="clip-path:url(#ja)" data-name="ico-sand-games"><g style="clip-path:url(#jb)"><path d="M50.92 65.45c.61-1.17.77-2.5.92-3.78v-.04c.35-2.9.55-5.87.75-8.75.19-2.86.4-5.81.74-8.69.98-.98 2.11-2.34 2.3-4.29.16-1.64-.09-6.41-1.07-7.79-1.08-1.52-3.26-2.46-6.5-2.8-.26-3.31-.65-6.79-1.64-9.99-1.29-4.17-3.36-6.8-6.14-7.83-2.39-.89-4.79-.78-7.11.32-1.97.93-3.84 2.57-5.39 4.73-2.61 3.63-3.69 8.03-4.64 12.61-1.5.12-2.74.26-3.89.43-.23.03-.51.07-.82.11-2.39.31-6.39.82-7.79 2.71-.42.58-.57 1.24-.45 1.97.03.19.12.36.2.53.06.13.14.29.14.36 0 .21-.11.59-.22.96-.12.43-.24.87-.27 1.23-.25 2.99.81 5.96 3.09 8.61.03.77.05 1.57.07 2.37.13 4.55.27 9.72 1.71 14 1.66 4.95 4.8 8 9.59 9.31 3.16.87 7.57 1.36 11.99 1.36.41 0 .82 0 1.23-.01 5.45-.11 10.04-.99 12.94-2.45 1.65-.83 2.65-2.25 2.45-3.45-.09-.52-.49-1.41-2.18-1.75m-7.59-36.69c-.09-.76-.16-1.53-.23-2.28-.41-4.26-.82-8.65-3.8-12.06l-2.03-1.56c3.19.17 5.46 2.05 6.92 5.72 1.32 3.31 1.71 7.52 1.96 10.43l-2.82-.24Zm-14.64-.01c.85-4.54 1.83-9.65 4.56-13.32.08-.11.15-.21.23-.31.62-.86.9-1.25 1.95-.89 4.61 1.61 5.23 8.05 5.68 12.75.06.62.12 1.21.18 1.76H28.71Zm22.58 16.28c-.17 2.56-.38 5.29-.65 8.32-.04.5-.09 1.13-.14 1.86-.22 3.07-.55 7.71-1.35 9.34-1.78 3.59-10.93 4.29-13.69 4.41-3.45.16-7.11.2-10.4-.54-4.03-.91-6.51-2.86-7.34-5.8-.66-3.39-1.05-6.91-1.41-10.31-.24-2.22-.49-4.5-.81-6.75 11.83 2.66 24.19 2.48 35.81-.54M12.55 33.27c.88-.73 4.36-1.25 5.84-1.48l.39-.06c1.3-.2 2.66-.37 4.15-.53l-.34 2.94c-.43.13-1.96.34-2.73.45-.41.06-.74.1-.88.13-.39.07-.99.23-1.63.4-.99.26-2.23.58-2.68.57-.69-.01-2.13-.81-2.41-1.61-.11-.31-.02-.57.28-.82m10.03 3.68v.02l-2.18-.13-.37-.08 2.53-.39c.03.14.02.44.01.58m-9.84.08c2.56 1.28 5.45 1.6 8.25 1.9.52.06 1.06.11 1.58.18.16.51.16 1.08.17 1.63 0 1.09 0 2.22 1.23 2.98 1.37.85 3.48.85 4.49-.6l.05-.08-.24-3.49H36.97c1.21-.12 2.44-.2 3.75-.29 4.02-.26 8.18-.53 11.73-2.01.28-.12.57-.3.85-.48.16-.1.32-.2.45-.27.75 4.06-.52 5.97-4.67 7.04-7.95 2.05-18.62 2.42-28.54.98-.27-.04-.55-.08-.85-.11-2.01-.26-4.75-.61-5.86-2.19-.42-.6-1.11-2.79-1.11-3.55v-1.64Zm17.01-19.59c-.31.7-.63 1.42-.9 2.15-2.17 5.88-3.03 12.66-2.69 21.23a.65.65 0 0 0-.13-.28c-.2-.27-.59-.4-.87-.3-.25.09-.39.32-.38.63 0 .31.2.55.51.64.08.02.16.04.24.04.21 0 .4-.08.51-.23.07-.1.11-.22.12-.33.01.34.03.68.05 1.03-.49.07-.95 0-1.23-.2a.819.819 0 0 1-.35-.62c-.6-4.63.1-11.47 1.69-16.64.93-3.01 2.07-5.37 3.45-7.16 0 .01-.01.03-.02.04m-1.51 18.45c1.35-.07 2.72-.08 4.05-.09.83 0 1.69 0 2.53-.03.19 0 .36-.04.52-.08.15-.03.28-.06.41-.07h.32c4.05-.09 8.23-.17 12.26.48h-.01c-6.17.97-12.95 1.31-20.16 1.02l.1-1.24Zm25.02-1.97c-.1.4-.56.79-1.2 1.03-3.48-1.09-7.08-1.33-10.66-1.33-1.37 0-2.74.03-4.09.07-1.76.04-3.57.09-5.34.06h-.01l-3.51.25.47-3.07c.2-.01.38-.05.56-.08.17-.03.33-.06.48-.07 2.79-.18 5.76-.06 8.63.06l2.28.09c.34.01.75.02 1.2.03 3.19.07 9.14.19 10.83 1.97.33.35.46.68.38 1"/><path d="M72.63 26.68c-1.55-.83-8.2-1.27-9.36-1.31-2.92-.11-5.07.07-6.05 3.47-.57 1.96-.5 3.53.21 4.67.6.96 1.64 1.58 3.1 1.84.26.05.62.06.96.07.39.01.79.03.99.09 0 .05-.03.16-.04.22-.03.11-.06.24-.06.37-.05 2.5-.11 4.75-.26 7.01-.23 3.4-.64 6.85-1.05 10.2-.4-.02-.83-.05-1.27-.08-1.33-.09-2.83-.2-4-.05-.88.12-1.35 1.54-1.66 2.48-.04.12-.08.23-.11.33-1.81 5.18-1.58 9.29.68 12.56 1.86 2.7 5.13 4.22 8.45 4.22 1.5 0 3.02-.31 4.42-.96.67-.31 1.8-.95 1.85-1.79.02-.37-.17-.72-.56-1.02 1.46-1.73 2.15-3.79 2.46-5.25.35-1.61.56-3.66.64-6.43v-.09c.02-.54.02-1.1-.17-1.4-.46-.72-4.37-1.75-5.89-2.12l1.58-17.77c.2.02.42.05.64.07 1.7.21 4.03.49 4.98-.99.71-1.1.87-4.67.87-4.7v-.08c.06-1.35.12-2.76-1.35-3.55m-8.24 8.83.94.08c-.11 5.38-.62 11.15-1.57 17.63l-.7-.05c.07-1.05.22-2.11.36-3.15.11-.8.22-1.63.3-2.44.37-3.85.59-7.91.67-12.07m-2.97-8.22c2.04-.15 6.75.32 9.02.8q1.44.3 1.38 1.92c-.03.7-.33 3.44-.51 3.75-.12.18-.56.22-.79.24-.92.07-2.47-.08-3.72-.19-.35-.03-.68-.06-.96-.09h-.05c-4.72-.38-6.14-.74-6.5-.97-.28-.18-.44-.72-.44-1.47 0-1.46.58-3.27 1.18-3.67.24-.16.71-.27 1.4-.32Zm8.38 31.73c-.12 3.73-.91 6.44-2.46 8.53-1.43 1.92-3.49 2.96-5.67 2.86-2.23-.1-4.24-1.37-5.52-3.47-2.32-3.82-1.06-8.06.35-11.76h.34c4.4-.06 8.94-.11 12.93 1.79.03.2.07.78.02 2.03"/><path d="M61.65 31.58c1.03.9 3.62 1.41 5.73 1.41.94 0 1.78-.1 2.35-.31.23-.09.7-.35.9-.57.59-.65.61-1.25.51-1.64-.2-.85-1.08-1.46-1.83-1.74-1.47-.56-5.64-.82-7.03-.31-.66.24-1.13.78-1.25 1.45-.12.64.11 1.26.62 1.71m1.67-1.34s.06 0 .1-.01c1.08-.13 4.29.09 5.31.47-1.87.21-3.72.06-5.41-.46"/></g></g></g></symbol><symbol xml:space="preserve" viewBox="0 0 32 32" id="svg-icon--student" xmlns="http://www.w3.org/2000/svg"><path d="M24.785 8.654c-1.229-.442-7.678-2.048-11.446-1.807a4.95 4.95 0 0 0-2.117 1.3c-.105.093-.21.184-.321.279-.856.8-1.968 1.762-3.146 2.785-3.074 2.67-4.949 4.334-5.061 4.948-.128 1.435 1.176 1.86 2.224 2.2.222.072.433.141.625.216a18.612 18.612 0 0 0 .2 3.147c.074.475.115.953.121 1.434a1.55 1.55 0 0 0-.181 1.513 1.125 1.125 0 0 1-.129.3l-.019.045a5.599 5.599 0 0 0-.024 2.166c.16.922.961 1.049 1.7 1.049.149 0 .3-.004.434-.01.11 0 .216-.008.326-.009 1.108-.069 1.563-.3 1.51-1.581a2.847 2.847 0 0 0-.808-2.205 1.49 1.49 0 0 0-.362-1.324 43.948 43.948 0 0 0-.106-1.23c-.073-.794-.189-2.073-.21-2.572l.862.224 1.087 3.992c.6 1.457 2.795 1.547 4.245 1.605l.434.02a14.242 14.242 0 0 0 8.477-2.968 3.002 3.002 0 0 0 1.123-2.174 36.626 36.626 0 0 0-1.039-4.334 33.964 33.964 0 0 0 3.592-3.979c.064-.093.127-.18.187-.262.306-.424.528-.73.478-1.086-.103-.708-1.368-1.223-2.656-1.682zM10.026 19.796c1.146.224 2.072.425 2.889.601 4.3.939 4.37.916 7.748-2.582.377-.391.8-.825 1.271-1.309.125.471.268.936.406 1.389.169.551.344 1.119.48 1.685.223 1.2-.344 1.606-1.129 2.176-.1.069-.192.14-.282.208a13.235 13.235 0 0 1-6.948 2.24c-3.59-.053-3.711-.624-4.162-2.75-.1-.5-.222-1.048-.4-1.689l.127.031zm6.4.2a.161.161 0 0 1-.049-.007l-.04-.007a44.283 44.283 0 0 1-7.171-1.387l-.683-.171c.45-.362 1.222-.886 2.09-1.474a23.604 23.604 0 0 0 4.6-3.594c.111-.16.202-.334.27-.517.081-.248.069-.314.032-.423a1.014 1.014 0 0 0-.673-.654c-.745-.191-1.74.606-2.538 1.247a7.562 7.562 0 0 1-.8.59c-.825.6-1.64 1.221-2.456 1.838-.925.7-1.881 1.423-2.836 2.115l-.086-.027a11.55 11.55 0 0 1-1.047-.362c-.292-.122-.78-.326-.881-.601a.372.372 0 0 1 .029-.299l.7-.7c2.54-2.524 7.825-7.776 9.538-7.776 2.063.105 4.115.368 6.138.785 2.982.6 4.9 1.334 5.258 2.023a.476.476 0 0 1-.053.532c-.863 1.115-8.248 8.869-9.344 8.869h.002zm-9.751-.918.081.855.266 2.801a.846.846 0 0 0-.334.026 25.378 25.378 0 0 0-.076-1.133c-.078-.982-.241-3.027.028-3.245 1.882-1.631 4.034-3.165 6.116-4.649l.47-.335c.113-.069.243-.163.381-.264.304-.272.67-.464 1.067-.559.16 0 .1.07.1.07l-7.193 5.308-.108.078c-.347.252-.819.591-.8 1.047h.002zm.008 4.826a.534.534 0 0 1 .325-.117.373.373 0 0 1 .258.1l.01.01a.292.292 0 0 1 .113.17.457.457 0 0 1-.344.488.382.382 0 0 1-.482-.191.354.354 0 0 1 .118-.459h.002zm-.253 1.562c.198.1.415.157.636.169.292.004.58-.076.827-.234.221.422.292.905.2 1.371l-.015.25c0 .033-.042.199-.823.254-.053 0-.11 0-.169.009-.316.019-.567.021-.675-.134a4.194 4.194 0 0 1 .017-1.685h.002zM25.346 7.132a.737.737 0 0 0 .512.114c.414-.059.963-.818 1.189-1.155.324-.366.494-.843.475-1.332a.624.624 0 0 0-.307-.41.656.656 0 0 0-.518-.061c-.379.114-.592.53-.764.866a3.31 3.31 0 0 1-.1.189c-.036.053-.118.148-.213.26-.393.459-.612.734-.578 1.033a.682.682 0 0 0 .304.496zM29.287 7.002l-.016-.052a.757.757 0 0 0-.912-.4l-.082.046a5.641 5.641 0 0 1-.563.25c-.718.294-1.024.437-1.159.675a.664.664 0 0 0 .045.742.776.776 0 0 0 .618.295.85.85 0 0 0 .212-.027 10.637 10.637 0 0 0 1.551-.709.71.71 0 0 0 .306-.82zM23.531 6.661a.723.723 0 0 0 .209.004.84.84 0 0 0 .643-.569c.135-.49.231-.989.291-1.493a.984.984 0 0 0-.15-.569.62.62 0 0 0-.6-.27.871.871 0 0 0-.64.549 11.587 11.587 0 0 0-.317 1.609.709.709 0 0 0 .564.739z"/></symbol><symbol viewBox="0 0 64 64" id="svg-smiley--playful" xmlns="http://www.w3.org/2000/svg"><g data-name="Illustration 43"><g data-name="Groupe 1403"><g data-name="Groupe 1402"><path data-name="Tracé 9483" d="M49.327 14.755a23.363 23.363 0 0 0-17.862-7.444 23.77 23.77 0 0 0-17.643 8.645 24.049 24.049 0 0 0-5.029 18.778 24.246 24.246 0 0 0 10.293 16.688l.37.23-.182-.014a72.486 72.486 0 0 0-8.881-.306c-.449.022-1.2.058-1.633.122a1.33 1.33 0 0 0-.992.64 1.539 1.539 0 0 0-.033 1.346c.444 1.088 2.382 1.475 3.663 1.732.176.035.335.066.469.1a64.119 64.119 0 0 0 13.573 1.425c6.592 0 13.115-1.019 17.539-3.453 7.158-3.935 11.943-10.419 13.123-17.785s-1.218-14.723-6.775-20.704Zm.46 28.632a21.407 21.407 0 0 1-19.846 9 21.465 21.465 0 0 1-17.716-12.79 21.811 21.811 0 0 1 1.392-20.013A20.857 20.857 0 0 1 30.085 9.266 21.986 21.986 0 0 1 51.06 20.387a21.063 21.063 0 0 1-1.273 23.001Z"/><path data-name="Tracé 9484" d="M47.817 12.472a.951.951 0 0 0 .588.2.992.992 0 0 0 .642-.239 15.177 15.177 0 0 0 1.166-1.753c.926-1.64.977-2.121.894-2.4l-.083-.138c-.133-.148-.536-.6-1.022-.512s-.69.591-.876 1.039a4.191 4.191 0 0 1-.18.4 21.7 21.7 0 0 1-1.372 2.184.965.965 0 0 0 .243 1.219Z"/><path data-name="Tracé 9485" d="M50.338 13.501a1.07 1.07 0 0 0 .027 1.249.793.793 0 0 0 .606.274 1.743 1.743 0 0 0 .516-.1 12.218 12.218 0 0 0 3.251-2.387 1.013 1.013 0 0 0-.05-1.2l-.067-.059a1.051 1.051 0 0 0-.868-.2 3.423 3.423 0 0 0-1.066.777c-.2.174-.385.338-.5.421s-.35.223-.612.381a5.188 5.188 0 0 0-1.237.844Z"/><path data-name="Tracé 9486" d="M45.845 11.463a.91.91 0 0 0 .228.029.99.99 0 0 0 .864-.559 9.281 9.281 0 0 0 .632-2.965.758.758 0 0 0-.379-.461 1.169 1.169 0 0 0-.86-.066.979.979 0 0 0-.58.622 18.92 18.92 0 0 0-.619 2.465.953.953 0 0 0 .714.935Z"/><path data-name="Tracé 9487" d="m46.926 22.702-12.43-.081-.215-2.09-.109-.1c-.472-.425-.88-.544-1.216-.357-.633.354-.528 1.719-.328 2.8l.039.213c.13.746.242 1.39 1.406 1.466 1.051.068 2.149.038 3.208.008.785-.021 1.592-.043 2.375-.025a3.744 3.744 0 0 0 1.888 4.129 4.447 4.447 0 0 0 2.209.597 4 4 0 0 0 3.063-1.4c1.17-1.333 1.513-3.776.22-5.05Z"/><path data-name="Tracé 9488" d="M14.382 25.095h5.671a3.87 3.87 0 0 0 2.336 4.336 4.544 4.544 0 0 0 1.851.4 3.935 3.935 0 0 0 3.467-1.99 3.625 3.625 0 0 0 .48-2.867c-.03-.207-.063-.429-.09-.676a.806.806 0 0 1 .028-.135.994.994 0 0 0 .043-.393c0-.027-.492-2.8-.9-3.113a1.09 1.09 0 0 0-1.18-.018c-.553.354-.322 1.231-.1 2.079.045.17.1.376.135.548H14.382a.655.655 0 0 0-.569.315.977.977 0 0 0-.131.51c0 .493.261 1.004.7 1.004Z"/><path data-name="Tracé 9489" d="m27.961 42.585-.057-.016h-.06a10.969 10.969 0 0 1-11.1-7.034l-.033-.09a5.12 5.12 0 0 1-.359-1.212c.072-.037.17-.08.256-.118.493-.215 1.409-.616 1.176-1.5a.84.84 0 0 0-.474-.6c-.461-.2-.981.1-1.485.376a2.679 2.679 0 0 1-.572.272 3.011 3.011 0 0 1-.8-.032c-.625-.078-1.566-.191-1.763.825l-.009.052v.054c.074.832 1.177 1 1.851 1.048A12.612 12.612 0 0 0 25.6 44.369c.01 0 .453.032.981.032a3.349 3.349 0 0 0 1.7-.273 1.053 1.053 0 0 0 .214-.976.776.776 0 0 0-.534-.567Z"/></g><path data-name="Rectangle 386" fill="none" d="M0 0h64v64H0z"/></g></g></symbol><symbol viewBox="0 0 47.226 47.226" id="svg-social--facebook" xmlns="http://www.w3.org/2000/svg"><g data-name="Groupe 163" transform="translate(.633 .633)"><circle data-name="Ellipse 1" cx="17.18" cy="17.18" r="17.18" transform="translate(4.603 4.055)" fill="none" stroke="#000" stroke-linecap="round" stroke-width=".946"/><circle data-name="Ellipse 2" cx="17.18" cy="17.18" r="17.18" transform="translate(2.007 6.903)" fill="none" stroke="#000" stroke-linecap="round" stroke-width=".946"/><circle data-name="Ellipse 3" cx="14.038" cy="14.038" r="14.038" transform="rotate(-33.878 31.573 5.68)"/><circle data-name="Ellipse 4" cx="17.18" cy="17.18" r="17.18" transform="rotate(-63.942 24.727 15.434)" fill="none" stroke="#000" stroke-linecap="round" stroke-width=".946"/><path data-name="Tracé 273" d="M19.322 31.721h3.753v-9.407h2.621l.279-3.15h-2.9v-1.793c0-.743.149-1.036.867-1.036h2.033v-3.269h-2.6c-2.8 0-4.056 1.231-4.056 3.588v2.511h-1.951v3.189h1.954Z" fill="#fff"/></g></symbol><symbol viewBox="0 0 51.857 49.293" id="svg-social--instagram" xmlns="http://www.w3.org/2000/svg"><g data-name="Groupe 166" transform="translate(.625 .66)"><circle data-name="Ellipse 9" cx="17.18" cy="17.18" r="17.18" transform="rotate(-8.907 51.978 -38.882)" fill="none" stroke="#000" stroke-linecap="round" stroke-width=".946"/><circle data-name="Ellipse 10" cx="17.18" cy="17.18" r="17.18" transform="rotate(-24.086 34.295 7.317)" fill="none" stroke="#000" stroke-linecap="round" stroke-width=".946"/><circle data-name="Ellipse 11" cx="14.038" cy="14.038" r="14.038" transform="rotate(-20.45 44.303 -13.777)"/><circle data-name="Ellipse 12" cx="17.18" cy="17.18" r="17.18" transform="rotate(-54.161 28.539 11.384)" fill="none" stroke="#000" stroke-linecap="round" stroke-width=".946"/><path data-name="Tracé 276" d="M25.674 15.947c2.259 0 2.527.009 3.419.049a4.676 4.676 0 0 1 1.571.292 2.8 2.8 0 0 1 1.606 1.605 4.689 4.689 0 0 1 .291 1.571c.041.892.049 1.16.049 3.419s-.009 2.527-.049 3.419a4.683 4.683 0 0 1-.291 1.571 2.8 2.8 0 0 1-1.608 1.609 4.692 4.692 0 0 1-1.571.291c-.892.041-1.159.049-3.419.049s-2.527-.009-3.419-.049a4.685 4.685 0 0 1-1.571-.291 2.8 2.8 0 0 1-1.608-1.608 4.679 4.679 0 0 1-.292-1.571c-.041-.892-.049-1.16-.049-3.419s.009-2.527.049-3.419a4.686 4.686 0 0 1 .292-1.571 2.8 2.8 0 0 1 1.606-1.605 4.67 4.67 0 0 1 1.571-.292c.892-.041 1.16-.049 3.419-.049m0-1.524c-2.3 0-2.586.01-3.489.051a6.215 6.215 0 0 0-2.054.393 4.323 4.323 0 0 0-2.474 2.475 6.19 6.19 0 0 0-.393 2.054c-.041.9-.051 1.191-.051 3.489s.01 2.586.051 3.489a6.19 6.19 0 0 0 .393 2.054 4.323 4.323 0 0 0 2.474 2.475 6.215 6.215 0 0 0 2.054.393c.9.041 1.191.051 3.489.051s2.586-.009 3.489-.051a6.212 6.212 0 0 0 2.054-.393 4.326 4.326 0 0 0 2.475-2.475 6.214 6.214 0 0 0 .393-2.054c.041-.9.051-1.191.051-3.489s-.009-2.586-.051-3.489a6.214 6.214 0 0 0-.393-2.054 4.326 4.326 0 0 0-2.475-2.475 6.212 6.212 0 0 0-2.054-.393c-.9-.041-1.191-.051-3.489-.051" fill="#fff"/><path data-name="Tracé 277" d="M25.672 18.539a4.345 4.345 0 1 0 4.345 4.345 4.345 4.345 0 0 0-4.345-4.345m0 7.165a2.82 2.82 0 1 1 2.82-2.82 2.82 2.82 0 0 1-2.82 2.82" fill="#fff"/><path data-name="Tracé 278" d="M31.204 18.367a1.015 1.015 0 1 1-1.016-1.015 1.015 1.015 0 0 1 1.016 1.015" fill="#fff"/></g></symbol><symbol viewBox="0 0 50.451 49.929" id="svg-social--linkedin" xmlns="http://www.w3.org/2000/svg"><g data-name="Groupe 165" transform="translate(.598 .669)"><circle data-name="Ellipse 5" cx="17.18" cy="17.18" r="17.18" transform="rotate(-18.38 38.39 1.696)" fill="none" stroke="#000" stroke-linecap="round" stroke-width=".946"/><circle data-name="Ellipse 6" cx="17.18" cy="17.18" r="17.18" transform="rotate(-18.38 48.73 7.865)" fill="none" stroke="#000" stroke-linecap="round" stroke-width=".946"/><circle data-name="Ellipse 7" cx="14.038" cy="14.038" transform="rotate(-77.421 25.094 13.246)" r="14.038"/><circle data-name="Ellipse 8" cx="17.18" cy="17.18" r="17.18" transform="rotate(-45 29.624 11.433)" fill="none" stroke="#000" stroke-linecap="round" stroke-width=".946"/><g data-name="Groupe 164" fill="#fff"><path data-name="Rectangle 57" d="M16.031 21.63h3.194v10.317h-3.194z"/><path data-name="Tracé 274" d="M17.612 20.279a1.9 1.9 0 1 0-1.888-1.9 1.9 1.9 0 0 0 1.888 1.9Z"/></g><path data-name="Tracé 275" d="M24.331 26.531c0-1.45.668-2.315 1.946-2.315 1.175 0 1.739.829 1.739 2.315v5.416h3.178v-6.532c0-2.764-1.567-4.1-3.754-4.1a3.6 3.6 0 0 0-3.109 1.7v-1.39h-3.064v10.322h3.064Z" fill="#fff"/></g></symbol><symbol viewBox="0 0 49.93 51.105" id="svg-social--reddit" xmlns="http://www.w3.org/2000/svg"><g data-name="Groupe 167" transform="translate(.669 .6)"><circle data-name="Ellipse 13" cx="17.18" cy="17.18" r="17.18" transform="rotate(-71.265 23.512 15.138)" fill="none" stroke="#000" stroke-linecap="round" stroke-width=".946"/><circle data-name="Ellipse 14" cx="17.18" cy="17.18" r="17.18" transform="rotate(-45 30.83 12.77)" fill="none" stroke="#000" stroke-linecap="round" stroke-width=".946"/><circle data-name="Ellipse 15" cx="14.038" cy="14.038" r="14.038" transform="rotate(-36.14 32.175 2.546)"/><circle data-name="Ellipse 16" cx="17.18" cy="17.18" r="17.18" transform="rotate(-71.265 24.568 13.66)" fill="none" stroke="#000" stroke-linecap="round" stroke-width=".946"/><path data-name="Tracé 279" d="M34.708 20.564a2.434 2.434 0 0 0-4.1-1.772 10.539 10.539 0 0 0-5.623-2.083l1.243-3.736 3.14 1.572c-.005.058-.015.112-.015.175a1.462 1.462 0 1 0 .448-1.051l-3.169-1.582a.94.94 0 0 0-1.314.535l-1.349 4.051a10.757 10.757 0 0 0-6.576 2.123 2.435 2.435 0 1 0-2.566 4.036 5.046 5.046 0 0 0-.078.9c0 3.9 4.143 7.059 9.249 7.059s9.249-3.159 9.249-7.059a5.046 5.046 0 0 0-.078-.9 2.434 2.434 0 0 0 1.539-2.268ZM19.13 22.512a1.46 1.46 0 1 1 1.461 1.46 1.459 1.459 0 0 1-1.461-1.46Zm8.68 4.161a4.526 4.526 0 0 1-3.812 1.68 4.528 4.528 0 0 1-3.812-1.68.48.48 0 0 1 .131-.672.491.491 0 0 1 .677.131 3.586 3.586 0 0 0 3 1.246 3.6 3.6 0 0 0 3-1.246.49.49 0 0 1 .677-.127.484.484 0 0 1 .139.668Zm-.4-2.7a1.46 1.46 0 1 1 1.46-1.46 1.458 1.458 0 0 1-1.464 1.46Z" fill="#fff"/></g></symbol><symbol viewBox="0 0 53.449 50.509" id="svg-social--tiktok" xmlns="http://www.w3.org/2000/svg"><g data-name="Groupe 168" transform="translate(.664 .617)"><circle data-name="Ellipse 17" cx="17.18" cy="17.18" transform="rotate(-22.461 35.295 -4.715)" fill="none" stroke="#000" stroke-linecap="round" stroke-width=".946" r="17.18"/><circle data-name="Ellipse 18" cx="17.18" cy="17.18" r="17.18" transform="rotate(-51.714 28.823 13.969)" fill="none" stroke="#000" stroke-linecap="round" stroke-width=".946"/><circle data-name="Ellipse 19" cx="14.038" cy="14.038" transform="rotate(-79.374 26.138 11.167)" r="14.038"/><circle data-name="Ellipse 20" cx="17.18" cy="17.18" r="17.18" transform="rotate(-51.714 29.896 9.569)" fill="none" stroke="#000" stroke-linecap="round" stroke-width=".946"/><path data-name="Tracé 280" d="M29.113 27.062v-7.877s.888 1.48 4.1 1.571a.307.307 0 0 0 .313-.307v-2.226a.31.31 0 0 0-.3-.306 3.922 3.922 0 0 1-3.789-3.8.313.313 0 0 0-.315-.286h-2.543a.306.306 0 0 0-.306.306v12.52a2.58 2.58 0 0 1-2.4 2.608 2.521 2.521 0 0 1-.485-5.013 2.591 2.591 0 0 1 .645-.009.308.308 0 0 0 .348-.3v-2.239a.3.3 0 0 0-.279-.306 5.465 5.465 0 0 0-.976.024 5.357 5.357 0 1 0 5.982 5.321" fill="#fff"/></g></symbol><symbol viewBox="0 0 49.491 49.491" id="svg-social--x-twitter" xmlns="http://www.w3.org/2000/svg"><g data-name="Groupe 169" transform="translate(.662 .662)"><circle data-name="Ellipse 21" cx="17.18" cy="17.18" r="17.18" transform="rotate(-52.599 27.614 13.648)" fill="none" stroke="#000" stroke-linecap="round" stroke-width=".946"/><circle data-name="Ellipse 22" cx="17.18" cy="17.18" r="17.18" transform="translate(3.346 5.421)" fill="none" stroke="#000" stroke-linecap="round" stroke-width=".946"/><circle data-name="Ellipse 23" cx="14.038" cy="14.038" transform="rotate(-28.748 38.657 1.806)" r="14.038"/><circle data-name="Ellipse 24" cx="17.18" cy="17.18" transform="rotate(-81.66 25.018 18.22)" fill="none" stroke="#000" stroke-linecap="round" stroke-width=".946" r="17.18"/><path data-name="Tracé 281" d="m24.682 23.209 5.118-5.474h-1.944l-4.017 4.3-3.076-4.3h-5.315l5.38 7.516-5.38 5.755h1.943l4.28-4.578 3.277 4.578h5.315Zm-6.495-4.066h1.853l7.486 10.456h-1.854Z" fill="#fff"/></g></symbol><symbol viewBox="0 0 47.883 47.883" id="svg-social--youtube" xmlns="http://www.w3.org/2000/svg"><g data-name="Groupe 170" transform="translate(.641 .641)"><circle data-name="Ellipse 25" cx="17.18" cy="17.18" r="17.18" transform="rotate(-28.538 32.272 8.208)" fill="none" stroke="#000" stroke-linecap="round" stroke-width=".946"/><circle data-name="Ellipse 26" cx="17.18" cy="17.18" r="17.18" transform="rotate(-3.673 96.602 -132.193)" fill="none" stroke="#000" stroke-linecap="round" stroke-width=".946"/><circle data-name="Ellipse 27" cx="14.038" cy="14.038" r="14.038" transform="rotate(-78.34 24.075 12.114)"/><circle data-name="Ellipse 28" cx="17.18" cy="17.18" r="17.18" transform="rotate(-3.673 82.797 -72.132)" fill="none" stroke="#000" stroke-linecap="round" stroke-width=".946"/><path data-name="Tracé 282" d="M32.391 18.041a2.218 2.218 0 0 0-1.561-1.572 52.428 52.428 0 0 0-6.9-.372 52.428 52.428 0 0 0-6.9.372 2.22 2.22 0 0 0-1.562 1.572 24.978 24.978 0 0 0 0 8.558 2.221 2.221 0 0 0 1.562 1.572 52.494 52.494 0 0 0 6.9.371 52.494 52.494 0 0 0 6.9-.371 2.22 2.22 0 0 0 1.561-1.571 24.978 24.978 0 0 0 0-8.558Zm-10.27 6.909v-5.256l4.617 2.627Z" fill="#fff"/></g></symbol></svg>