<svg xmlns="http://www.w3.org/2000/svg" width="445.875" height="112.489"><g fill="#ED1E79"><path d="M279.783 75.964a.37.37 0 00-.158-.038c.007.115.037.174.074.203.191.545.473.797.854.72a.972.972 0 00-.77-.885zM11.075 23.324l-.923 1.846c2.901.059 3.208-.557.923-1.846zM9.229 25.17h-.923c-1.202 3.428-.894 3.428.923 0zm4.614 2.768v.923c.937-.294.937-.601 0-.923zm-1.845-1.845h-.923c.293.937.601.937.923 0zm2.769.922a.98.98 0 00-.923-.923.98.98 0 00.923.923zM222.93 85.727l.005-.001a.98.98 0 00-.928-.922.98.98 0 00.923.923zM.923 40.862a.98.98 0 00.923.923.98.98 0 00-.923-.923zm4.614 6.456h-.923c.323.937.63.937.923 0zm2.769-18.457l-.923 1.846c1.758-.615 2.066-1.23.923-1.846zm436.647 14.678h-.923c.292.82.601.82.923 0zm.001 11.077c-.352-1.407-.044-2.33.923-2.769-1.827-3.745-2.555-6.886-3.717-9.167-.286.865-.586.848-.899-.064h.865c-1.649-3.193-4.192-4.669-11.938-3.691.14 1.716-.476 3.255-1.846 4.615h-1.846c1.281 1.935 1.281 3.78 0 5.537.71.184 1.018.799.923 1.846l-.923.308c1.038 1.855 2.19 24.229 1.846 24.916-1.096 1.707-1.647 6.902-1.846 8.923 6.703 2.387 8.105 3.484 15.689 3.69.67-2.085.981-4.27.923-6.459h.923c-2.814-4.941 2.846-7.829.923-12.92h-.923a8.606 8.606 0 00.923-4.613h.923c-.982-1.668-.829-6.059-1.846-7.999l1.846-1.23a.98.98 0 00-.923-.923zm-17.536 30.451l.308-.923c.615.439.512.747-.308.923zm6.46-42.451h2.77c-.968 1.406-1.891 1.406-2.77 0zm11.075 18.457c-.322.82-.631.82-.923 0h.923z"/><path d="M442.184 42.616h-.058l.034.064c.008-.022.016-.039.024-.064zm3.693 53.525c-4.813-2.947-5.522-7.749-12.921-3.691-5.258-4.661-4.294.438-8.306 1.846 1.44 2.193 1.748 4.654.923 7.383-.673.203-.98.818-.923 1.846h.923c1.273 5.352 5.195 7.83 11.073 7.385 1.192-2.824 4.026-3.718 7.385-2.771-.462-2.929 1.537-6.147 1.846-8.306a1.162 1.162 0 01-.923-.615l.923-.924-.923-1.229c.479-.068.855-.445.923-.924zM.923 42.704v.923c.937-.294.937-.601 0-.923zM12.92 27.938h-.923c.323.937.63.937.923 0zm243.236 30.104v.922c.938-.323.938-.631 0-.922zm-124.452 24.3h.001l-.001-.001zm127.218-27.989h-.923c.323.938.63.938.923 0zM84.507 60.59c-1.051 1.611-.744 1.918.923.923a.98.98 0 00-.923-.923zm248.781 50.494l-.923-.043c.264.938.572.952.923.043z"/><path d="M167.699 69.422c-1.442-.154-2.029-1.24-1.846-2.769h-.923c-.085-3.415-1.78-6.582-4.615-8.305-1.882-8.335-7.082-18.716-12.922-25.84v-.923c-2.38-1.302-4.841-1.302-7.383 0v-.001c-.542 1.086-7.952 5.834-9.606 8.2-2.608-.666-3.668-2.095-3.18-4.288-1.704 2.138-4.165 2.445-7.383.923v-1.846c-1.098.916-10.323-.54-11.073-.923a9.43 9.43 0 00-.923 4.614h-.923v-3.691c.946-.261-10.419-1.493-13.844-1.463v-.383h-1.846c.198-.665-6.278 3.685-3.687 3.688a8.421 8.421 0 001.846 2.461 1.583 1.583 0 01-.923.308l.923 1.541c-2.214 1.625-2.35 4.068-.923 6.768h-.923c2.271 2.597.497 6.951-1.85 8.306a3.906 3.906 0 010 3.691c.668-.252 1.284.056 1.846.924h-.923c.466 4.8.186 9.241 0 13.84l1.846.924c-.17.735-.786 1.043-1.846.923a3.077 3.077 0 010 3.384l.923.309c-.032 2.072-.126 5.572-.923 7.691a9.685 9.685 0 00.915 4.303h-.923c-4.467 20.881 18.655 6.76 26.764 11.074v-.923c.673.204.98.82.923 1.847.857-.352 5.874.846 6.769.922.895-1.894 2.637-2.201 5.229-.922v-1.844l1.846.923a4.193 4.193 0 011.846-2.769.98.98 0 00-.923-.924c1.865-3.726-.295-5.188 0-9.228.658.219 1.273-.089 1.846-.923a6.435 6.435 0 00-2.769.923c.336-1.317.036-2.293-.875-2.941 1.015-.294.71-.849-.961-1.673v1.185a6.501 6.501 0 00-.933-.257c-1.473.865-9.183 1.064-9.844 1.847a1.583 1.583 0 01-.308-.923 26.454 26.454 0 00-9.229.923c-.257-1.519 2.013-7.936 1.846-10.151 7.165.097 11.445-2.03 18.458-2.77v-2.77c4.627-9.217-1.887-11.289-12.914-9.229v-.925c-2.83-1.827-4.983-1.212-6.46 1.847v-.001c-.323.967-.63.967-.923 0h.922c.55-2.048.243-3.893-.922-5.536.668.252 1.283-.056 1.846-.923-.666.259-1.281-.049-1.846-.923 1.787-1.377 3.325-1.685 4.614-.923l-.923-1.846c3.281.534 12.274-.68 14.766 0v.923c5.746-4.056 2.848-1.771 6.461-8.306l-1.846-.923c1.472-.418 2.076-1.078 1.813-1.979 1.372 1.055 1.653 3.173.825 6.373h.923c-.447 2.758-4.041 22.819-.001 24.917-.018 1.219-3.996 5.744-.925 7.382v-.923c.819.294.82.602.001.924h.001c.513 3.187.205 6.263-.923 9.229.71.184 1.018.799.923 1.846 3.443-.218 5.904 1.937 7.383 6.461 1.542-5.985 10.726-5.406 6.461-18.457 3.954-2.431 4.035-6.021 1.846-9.844l-.923-.308c.467-2.825-.976-5.614-.923-7.998a1.59 1.59 0 01.923-.308 5.975 5.975 0 01-.923-2.77c1.457 1.165 3.472 2.244 5.537 2.77.407 10.781 7.794 29.514 17.535 32.303-.533-3.892-1.343-23.251-.924-25.845zM86.617 56.723l.308-.923c.615.439.512.747-.308.923zm.927 25.839a.936.936 0 01.923.923.937.937 0 01-.923-.923zm3.687-48.911h.308c.469.849.366.849-.308 0zm25.836 69.211c.82.293.82.602 0 .924v-.924zm-11.063-13.84c1.436.967 1.436 1.891 0 2.77v-2.77zm.923 3.691h.923c.41 2.374-.206 2.989-1.846 1.847l.923-1.847zm-.923 2.769c2.139.821 2.446 1.743.923 2.769h-.008c.381 1.377.076 2.3-.915 2.769v-5.538zm1.223-56.293c.586.938.483.938-.308 0h.308zm-3.076-3.692h1.846c-.644 1.2-1.26 1.2-1.846 0zm2.769 40.607c-.323.82-.63.82-.923 0h.923v-.923c.82.293.82.601 0 .923zm.923-1.846h-1.846v-6.461c2.051 1.492 2.358 3.338.923 5.537h-.001c.615.059.923.367.924.924zm-.616-9.229c.967 2.901.557 3.208-1.23.923l1.23-.923zm-1.231-9.226v-6.46c1.254 2.105 1.254 4.258 0 6.46zm0-7.385c1.508-2.087-.577-6.496 0-8.306h.923c1.465 7.647 1.157 10.415-.923 8.306zm4.614 3.694a.937.937 0 01.922.918.936.936 0 01-.922-.918zm.923.923h.308c.586.937.483.937-.308 0zm7.383-16.615c.488.048.875.435.923.923a.937.937 0 01-.923-.923zm11.883 6.989a.973.973 0 00-.807-.529 7.505 7.505 0 00.431-1.625c.365.649.497 1.405.376 2.154z"/><path d="M129.992 42.88c.355.02.229-.592 0 0zm54.315-1.143c1.026.586.576-1.037 0 0z"/><path d="M185.23 62.654a1.717 1.717 0 00-.923-.614c.427-1.512.736-3.055.923-4.615a1.305 1.305 0 01-.923-.614 2.821 2.821 0 01.923-2.461c-.299-.39-3.24-1.472 0-2.461-.071-1.243-3.332-5.865 0-6.46.41-1.875.103-3.105-.923-3.691 2.001-3.601-1.805-6.185-.923-8.306h-4.614v-.923h-.923v-.923a10.646 10.646 0 01-4.614-1.845c-.281 2.951-10.014 9.829-4.615 14.151a1.386 1.386 0 01-.923.615 16.663 16.663 0 01.923 6.461c.668-.252 1.283.056 1.846.923-1.348-.322-2.271-.015-2.769.923-.615-.155 1.846 2.807 1.846 2.769a6.2 6.2 0 01-.923 2.769c.513.044.821.454.923 1.229-1.413 1.533-1.413 3.276 0 5.229.513.044.821.454.923 1.229 1.655 12.72-5.319 27.212 7.383 34.762.433-2.438 3.018-3.81 5.537-3.692v-7.998c4.731-3.278.923-21.148.923-26.149l.923-.308zm-16.611-19.069v-.923c.82.293.82.601 0 .923zm5.537-11.076v-.923c.82.293.82.601 0 .923zm10.151 22.148a.937.937 0 01-.923-.923.937.937 0 01.923.923zm-.923 10.151h.923c-.323.907-.63.907-.923 0zm73.917 2.461v.923c.937-.322.937-.631 0-.923zm101.606-23.555a1.023 1.023 0 00-.88-.965.934.934 0 00.88.965zm-46.671 13.01c.06-.011.107-.024.16-.037-.026-.067-.045-.131-.071-.197l-.089.234z"/><path d="M360.71 44.683c-1.715.228-2.901-.739-3.56-2.9l-.309-.923c-1.173-.056-2.301.208-3.384.791v-.002c2.485-6.081-23.966 13.526-13.399 12.437a9.203 9.203 0 00.748 4.659l-.967.57c1.318 1.606 1.274 2.939-.133 3.999-.234.968.044 1.597.835 1.89a.959.959 0 01-.923.879l.835 1.539c.328 6.042-3.872 15.132-.792 21.223a1.448 1.448 0 01-.923.265l.879 1.274-1.89 1.187c1.023.204 1.623.63 1.8 1.274l-1.847-.045c.375.525-3.824 6.243-3.955 6.285-6.113-7.859 2.952-26.528-1.449-34.847.269-.19.594-.283.923-.264-.64-1.512-.543-4.073-.323-6.721.155.149.359.25.59.261a.961.961 0 00-.543-.83c.31-3.493.759-7.02-.031-8.398h.924c-5.019-14.114-27.863-8.273-21.491 8.204l.264-.689c.542.435.473.729-.192.887.211.529.451 1.069.724 1.619l-.923.264c-.122 2.758-.474 13.582-1.539 15.646.684-.223 1.283.114 1.8 1.012l-1.847-.088.88 1.89-.968.571a1.1 1.1 0 00.879 1.273c-.211 3.655-3.141 7.167 1.494 9.273-1.049 1.334-1.416 2.856-1.099 4.568l.923.045c-.111 7.121 3.402 13.055 9.618 15.156l-.088 1.846a7.922 7.922 0 003.735-.791l-.045.923c2.154.064 4.308.138 6.461.22a4.84 4.84 0 00-.836-2.461 1.74 1.74 0 01.924-.309l.22-5.536.923.044-.264 7.382c1.873.61 3.521 1.83 6.375 2.11l.044-.924c3.818.569 3.566.438 7.383.265 2.154-3.194 5.146-5.057 9.492-7.032-1.203-1.823-.815-5.613 2.022-5.445-2.238-3.524-.743-18.572-.088-22.192l.924.044c.821-2.316.278-4.191-1.627-5.625 2.17-1.129 2.858-2.945 2.066-5.449a3.25 3.25 0 01-1.846-.658l1.89-.572a1.754 1.754 0 00-.923-.658c.83-1.763 1.212-3.594 1.145-5.493l-.924-.353c-.226-3.399 1.652-8.572 1.408-12.57zm-47.593 13.002l.352-.923c.586.469.469.776-.352.923zm-.263 7.382l.922.044c-.348.937-.657.923-.922-.044zm.13-3.692l.439-2.769c.969 1.173.822 2.096-.439 2.769zm6.241-18.23l.043-.923c.791.349.776.656-.043.923zm4.004 65.693l.043-.924c.791.35.776.657-.043.924zm9.091-45.836v.004c-.586-.088-.879-.396-.879-.928a.959.959 0 01.879.924zm-1.623 18.415a.368.368 0 01.154.041.99.99 0 01.77.926l-.003.002c-.545-.077-.835-.351-.896-.798a.52.52 0 01-.025-.171zm2.067 19.466l.045-1.846c2.987 2.403 2.972 3.019-.045 1.846zm25.881-25.795c-.35.938-.656.924-.924-.043l.924.043zm.263-6.459c-.381.938-.688.922-.924-.045l.924.045zm-.528-11.07h.923c-.323.82-.63.82-.923 0z"/><path d="M330.852 81.458c-.052-.013-.1-.037-.154-.041 0 .063.018.113.025.171.08.208.312-.027.129-.13zM80.815 63.362c.376.775.58 1.023.639 1.008.719.813 1.429.484 2.13-1.008v-.004a2.3 2.3 0 01-2.769.004zm226.496 6.107c1.408-1.746 1.716-3.797.924-6.152l-.924-.309c.473-2.238-.922-4.958-.922-6.459h.922a6.21 6.21 0 01.924-2.769c-1.963-.491-2.162-4.268-5.539-4.615 5.955-14.675-10.229-6.418-16.61-11.075-.488 1.378-2.31.115-2.762 1.844-2.146-1.491-4.196-1.183-6.152.923l-.614-.923c-2.456 1.488-9.105 2.417-11.174 5.782a19.592 19.592 0 00-.188-2.926c.063-.112.126-.251.189-.437h-.271a20.3 20.3 0 00-.649-2.769l-1.846-.308c.19-.342.534-.571.923-.615-1.985.175-3.523-.44-4.614-1.846.487.64-1.62 3.111-2.461 2.769a3.063 3.063 0 01.615-2.77h.923c-.221-.657-.836-.965-1.846-.923V25.126c-.276-7.205-.583-7.308-.923-.308-1.725-1.079-.803-7.438-.924-9.229h-.922c-.108 1.303-.724 2.021-1.847 2.154v4.922a1.583 1.583 0 01-.923.308v7.382h-1.846c.162-6.526-.031-13.029-1.231-19.38h-.614a98.849 98.849 0 01-.93 17.536l-.923.308.923 1.23-.923.615.924 1.538a7.135 7.135 0 01-3.691-1.846c-1.363-1.619.276 5.752 1.285 7.381h-4.054l.923-1.846a7.016 7.016 0 01-2.77.923l.924-1.846a7.021 7.021 0 01-2.77.923v-.923c-3.456 2.566-7.147 3.797-11.074 3.691.243.649.858.957 1.847.923-.748 2.512-1.674 17.296-2.769 19.072l.922.308c-1.527 4.363 1.777 12.898 1.847 17.535h-.923c-.121 1.129-.568 2.332-.862 3.52l.25-.75c.61.437.513.743-.293.919-.486 2.072-.429 4.082 2.751 5.542a23.906 23.906 0 01-1.846 3.691 1.973 1.973 0 01-1.23-1.847 3.604 3.604 0 00-.615 2.769h-.615a3.607 3.607 0 01-1.23-2.769l-1.846.923a13.452 13.452 0 00-.923-6.459c-2.536.436-4.381-.795-5.537-3.691-1.09 1.617-2.628 1.617-4.614 0v1.845c-2.363 1.315-4.824 1.932-7.383 1.847.929 3.61 2.776 5.797 1.846 10.148l.923.309c.797 2.268 1.259 3.522 2.769 6.152h.923c.657 4.359 12.968 5.249 12.921 4.615 4.398.865 3.354 0 7.385 0a3.03 3.03 0 00.614 1.846c10.572 3.272 8.958-5.631 15.074-7.383v14.766c5.073-.279 3.926-23.438 3.692-24.916 1.904-.029 2.52 1.201 1.846 3.691a2.076 2.076 0 00.923-2.77h.923v11.074c2.07-.776 1.506-14.805 2.77-17.533a2.082 2.082 0 001.846.307l-.924-.307a7.497 7.497 0 00.924-3.691h2.663c-.682 1.421-.673 2.905.026 4.451a7.668 7.668 0 01-.848-3.529h-.923v2.768l1.72.861c-1.617 3.208.377 6.56.525 9.646l-.924.308c6.535 8.252 10.317 9.858 19.381 14.46-.439-3.809-.132-5.962.923-6.46 1.767 1.73 1.767 3.884 0 6.459a3.33 3.33 0 003.075-.923c.325.209.549.543.615.923 1.793-.102 5.013-.744 7.383-.923v-.926c4.133.351 11.798-5.464 13.844-4.613-.345-.896 9.107-30.594 3.692-31.378zM225.7 47.892h.923c-.322.937-.631.937-.923 0zm-23.072 35.066l.308-.922c.615.438.512.746-.308.922zM248.773 44.2c.82.322.82.63 0 .923V44.2zm0 1.846c.82.323.82.63 0 .923v-.923zm-.003 22.146c.82.322.82.631 0 .924v-.924zm-.002 8.307c-.323.938-.631.938-.924 0h.924zm-2.765-23.992l.923-1.846c1.585 1.084 1.277 1.699-.923 1.846zm.003 3.688v-.923c.82.323.82.63 0 .923zm1.842-9.226c-.293 2.08-.601 2.08-.923 0h.923zm-2.764-12.922c.82.293.82.601 0 .923v-.923zm-.001 4.615a.936.936 0 01.923.923.937.937 0 01-.923-.923zm.914 39.682a.938.938 0 01.922.92.937.937 0 01-.922-.92zm.002-3.691h.923c-.322.937-.631.937-.923 0zm.926-21.223a.937.937 0 01.922.918.937.937 0 01-.922-.918zm.923 29.528c.081 1.232.493 1.848 1.234 1.847-1.113 1.17-1.523.555-1.234-1.847zm0-.922l.924-1.847c1.583 1.084 1.276 1.699-.924 1.847zm1.85-46.143v-.923c.82.322.82.63 0 .923zm1.845 8.307c-.293.937-.602.937-.923 0h.923zm-.93 27.683c.82.323.82.631 0 .924v-.924zm.923 2.77c-.294.938-.601.938-.923 0h.923zm-.002 3.691c-.294.938-.601.938-.923 0h.923zm-.918 6.46h.923c-.293 2.079-.601 2.079-.923 0zm0-3.692h.923c-.293.937-.601.937-.923 0zm.001-30.451v-2.769c1.436.967 1.436 1.89 0 2.769zm11.076-11.076c1.406.938 1.406 1.861 0 2.769v-2.769zm-1.845.923c-.322.938-.63.938-.923 0h.923zm-2.769.923c.819.293.819.601 0 .923v-.923zm-.925 5.538c.82.293.82.601 0 .923v-.923zm-.918-14.768c-.293 2.08-.602 2.08-.924 0h.924zm-.006 33.221c.819.294.819.602 0 .924v-.924zm-.003 10.155c-.293.937-.601.937-.922 0h.922zm-2.76-54.45h.924v8.92a1.589 1.589 0 01-.924.308v-9.228zm-.006 65.523v-.923c.82.293.82.602 0 .923zm.924-6.461h.924c-.35 2.08-.657 2.08-.924 0zm.917-1.845h.923c-.264 2.08-.572 2.08-.923 0zm.925 0v-.922c.819.293.819.601 0 .922zm0-5.537h.924c-.324.82-.631.82-.924 0zm.003-1.846v-2.77c1.407.997 1.407 1.921 0 2.77zm3.291 6.135a4.187 4.187 0 00-2.363-.598.937.937 0 01.923-.924c-.352-1.379-.044-2.303.923-2.769v.614c.125 1.084.622 1.291 1.473.661-1.193 1.045-1.511 2.05-.956 3.016zm.807 8.059v-.923c.82.294.82.601 0 .923zm5.132-38.186l-.923 1.846a8.53 8.53 0 00.729-.076c-1.036.715-1.587 1.668-1.67 2.852a4.056 4.056 0 01-3.674-.006c-.293 1.755.935 2.064 3.681.927-.66.598-1.012 1.341-1.202 2.156-.098-.106-.305-.211-.634-.313v.923c.264-.091.445-.181.561-.269-.278 1.576-.034 3.38-.203 4.939-.117-.021-.222-.041-.357-.061v.923c.088-.015.151-.028.232-.043a9.527 9.527 0 01-.423 1.47 7.654 7.654 0 01-.729-3.271h-.923a6.62 6.62 0 01-.923 3.691c.83 0 1.658-.061 2.484-.181a9.383 9.383 0 01-1.164 2.069c.558.432.841.819.868 1.165a2.384 2.384 0 01-2.192-.286c1.158.688 1.753 1.632 1.784 2.829a1.305 1.305 0 01-.86-.06c.23.365.491.592.779.689a2.702 2.702 0 01-.065.234h-.717c.212 1.307.923.721.923 1.846.136.049.237.08.356.121.245.651.121 1.218-.385 1.698a6.618 6.618 0 01-2.731-.897 7.507 7.507 0 00.923-3.691h-1.846a7.497 7.497 0 00.923-3.691h-1.846c.003.055 1.063-14.058.923-13.841 1.585.075 3.123-.233 4.614-.923-.938-.631-1.314-1.417-1.166-2.349-.141.18-.36.349-.683.505.06-.433-.248-.741-.922-.923l1.229-.923c.304.271.479.526.529.765.193-.523.518-1.082 1.012-1.688-1.437.867-2.975 1.175-4.614.923v-3.691c.736.17 1.044.786.923 1.846h3.691c-.227-.665.081-1.28.924-1.846v3.691h3.519c-.187.371-.338.76-.406 1.19a4.447 4.447 0 00-.349-.269zM277.784 99l1.229-.924c.968 2.901.558 3.21-1.229.924zm0-4.615c1.553.527 1.86 1.45.923 2.769 0-.558-.113-1.097-.315-1.622-.153.573-.731.765-.608-1.147zm1.846 0a2.537 2.537 0 01-1.846-2.77 2.635 2.635 0 011.846 2.77zM287.008 87v3.691c-2.276-.369-4.122.554-5.537 2.77-.119-2.544-2.022-4.048-4.615-4.615 2.109-4.57 2.467-12.432 3.385-17.535-1.852 2.237-.001-4.2-1.538-4.614 2.785-7.671-1.499-18.901 1.231-26.761h1.543a3.873 3.873 0 01-.924 2.461c.696.504.696 1.222 0 2.153.393.035.74.267.924.615 1.499 8.392-.143 3.531 4.613 7.69-.067 2.193-2.616 3.999-2.77 5.537a7.75 7.75 0 002.77.923l-.923 1.846a3.019 3.019 0 011.847 1.846c-.67-.247-1.285.062-1.847.924h2.765c-.212.67-.827.978-1.847.923v.923h1.847a1.973 1.973 0 01-1.847 1.23c.558.703.88 1.564.923 2.461h.924c.23.983-.486 17.218-.924 17.532zm-2.768-28.607l.308-.924c.614.44.513.748-.308.924zm5.537-18.457h.923c-.323.938-.63.938-.923 0zm15.694 45.219v-.923c.82.294.82.601 0 .923zm.918-22.149a.937.937 0 01.922.923.936.936 0 01-.922-.923z"/><path d="M224.777 80.189l.015-.004c.013-.056.029-.112.043-.169l-.058.173zm-20.61.923c.714.067.836.053.732.021 1.255-.05 1.53-.668.806-1.866a2.403 2.403 0 01-2.153.923c.068.379.29.713.615.922zm55.595-34.301c-.072.198-.125.39-.154.576.14-.181.198-.372.154-.576zm18.022 47.574c.263.373.457.756.607 1.146.103-.382.016-.935-.607-1.146zm-20.707-39.113v.923c1.991-.293 1.991-.601 0-.923zm149.82-11.469c-.128-2.245-3.847-5.063-3.692-8.306-1.703 2.138-4.164 2.445-7.383.923v-1.846c-1.099.916-10.322-.54-11.073-.923a9.43 9.43 0 00-.923 4.614h-.924v-3.691c.946-.261-10.418-1.493-13.844-1.463v-.383h-1.846c.197-.662-6.288 3.69-3.693 3.691a8.442 8.442 0 001.847 2.461 1.586 1.586 0 01-.923.308l.923 1.538c-2.216 1.624-2.35 4.07-.923 6.768h-.924c2.271 2.596.499 6.951-1.846 8.306a3.906 3.906 0 010 3.691c.668-.252 1.283.056 1.846.924h-.922c.466 4.8.183 9.242 0 13.842l1.846.923c-.173.734-.788 1.042-1.846.923a3.077 3.077 0 010 3.384l.922.308c-.027 2.067-.127 5.571-.922 7.688a9.695 9.695 0 00.922 4.307h-.922c-4.476 20.88 18.659 6.761 26.764 11.074v-.923c.674.203.98.818.923 1.847.856-.352 5.873.846 6.769.922.895-1.894 2.638-2.201 5.229-.922v-1.844l1.846.923a4.193 4.193 0 011.846-2.769.98.98 0 00-.923-.924c1.865-3.726-.295-5.188 0-9.228.658.219 1.273-.089 1.847-.923a6.439 6.439 0 00-2.77.923c.337-1.317.035-2.294-.878-2.943 1.007-.295.7-.849-.968-1.671v1.181a6.366 6.366 0 00-.923-.253c-1.47.863-9.185 1.066-9.844 1.847a1.591 1.591 0 01-.309-.923 26.456 26.456 0 00-9.229.923c-.257-1.518 2.013-7.937 1.846-10.151 7.165.097 11.443-2.03 18.456-2.77v-2.77c4.627-9.219-1.89-11.29-12.918-9.229v-.927c-2.83-1.827-4.983-1.212-6.46 1.847.551-2.049.242-3.895-.924-5.537.668.252 1.284-.056 1.847-.923-.667.258-1.282-.05-1.847-.923 1.787-1.377 3.325-1.685 4.615-.923l-.924-1.846c3.281.533 12.274-.68 14.767 0v.923c5.74-4.057 2.849-1.773 6.461-8.306l-1.847-.923a3.358 3.358 0 011.848-1.846zm-44.299 12.923l.309-.923c.614.439.511.747-.309.923zm.923 25.836a.937.937 0 01.924.923.938.938 0 01-.924-.923zm3.692-48.911h.309c.468.849.365.849-.309 0zm25.84 69.211c.82.293.82.602 0 .924v-.924zm-11.071-13.84c1.436.967 1.436 1.891 0 2.77v-2.77zm.923 3.691h.923c.41 2.374-.205 2.989-1.846 1.847l.923-1.847zm-.923 2.769c2.139.821 2.445 1.743.923 2.769h-.003c.381 1.377.074 2.3-.92 2.769v-5.538zm1.227-56.293c.586.938.483.938-.309 0h.309zm-3.076-3.692h1.846c-.645 1.2-1.26 1.2-1.846 0zm2.767 40.61c-.322.819-.63.819-.922 0h.922v-.923c.821.293.821.602 0 .923zm-.921-1.847v-2.716c.311 1.062.925 1.968 1.846 2.716h-1.846zm1.229-9.228c.968 2.9.558 3.209-1.229.924l1.229-.924zm-.308-.923c-.322.967-.63.967-.922 0h.922zm-.921-8.306v-6.46c1.253 2.105 1.253 4.258 0 6.46zm0-7.385c1.507-2.087-.577-6.496 0-8.306h.922c1.464 7.647 1.158 10.415-.922 8.306zm4.613 3.694a.938.938 0 01.923.919.938.938 0 01-.923-.919zm.924.923h.308c.585.937.483.937-.308 0zm7.382-16.615c.488.048.875.435.922.922a.936.936 0 01-.922-.922zM80.815 104.887c.938-.293.938-.602 0-.924v.924zm177.976-47.442c-.274.589.576.642 0 0z"/><path d="M258.541 57.118h-.542c.254.81.518.916.792.327.576.643.931.238 1.057-1.25h-1.846c.197.388.373.68.539.923zM79.89 81.816c.017-1.185.367-14.748.923-16.612h-1.846c.704-1.523.704-2.754 0-3.69a3.286 3.286 0 003.694-1.849 7.04 7.04 0 01-2.769.924c.624-2.613 1.328-11.344 0-13.536a4.407 4.407 0 00.923-4c-2.393.24-3.931-1.298-4.614-4.614.102 1.792-13.01 2.23-14.765 2.774l.923 1.846h-1.846c.678 2.894 1.238 6.069 1.846 8.306a7.687 7.687 0 00-2.769.923c.652 1.42.258 25.284.923 24.917.165.581-.226 17.104 0 16.61-.618-.16 1.846 2.811 1.846 2.769h-.923c-1.202 4.217.782 7.673.923 11.07a37.475 37.475 0 019.228-.923v-.923c.518.203.613 3.624 3.69 3.693a7.026 7.026 0 01-.923-2.77c3.106 2.167 5.812 2.113 7.382-.923-.996.204-1.611-.103-1.846-.923.674-1.93 1.289-3.879 1.846-5.846a2.171 2.171 0 00-1.846-.615c.206-.672.821-.979 1.846-.922-.161-.217-1.845-10.569-1.846-10.767a5.9 5.9 0 011.846-3.384c-.031-1.257-.646-1.77-1.846-1.535zM60.513 52.285h.308c1.787.41 1.684.717-.308.923v-.923zm.923 19.38h.923c-.294.937-.601.937-.923 0zm0-4.616h.923c-.294.938-.601.938-.923 0zm0-2.763v-.924c.82.322.82.631 0 .924zm-.923-6.464c0-.973.308-1.896.923-2.769 1.553 1.084 1.245 2.007-.923 2.769zm15.688 18.456c-.323.938-.63.938-.923 0h.923zm-.923 4.615v-.924c.82.323.82.631 0 .924zm.923 24.916h.923c-.293.938-.601.938-.923 0zm-.923-26.762c.207-.672.822-.979 1.846-.924v-.922c2.49 1.407 1.875 2.022-1.846 1.846zm2.769-3.692h.923c-.293.937-.601.937-.923 0zM31.659 59.407a.98.98 0 00-.283-.091c-.419 1.333.802.415.283.091zm-1.204-17.622a2.795 2.795 0 00-.085.475c.004.615.797-.187.085-.475zM8.614 35.321c-.16 1.576 1.377 0 0 0z"/><path d="M58.875 74.938c-.003-1.286-.556-1.983-1.658-2.092v-2.461h-.923c-.068-3.715-2.746-6.391-6.46-6.455v-2.77h1.846v-1.846h1.845v-1.85h.923c.201-1.717 3.313-6.8 2.769-8.305a1.308 1.308 0 01-.923-.615c.272-.189.592-.296.923-.308 1.537-8.32-1.837-13.622-10.152-14.762v-.922c-3.693.866-10.577-1.312-14.765-.922.293 1.875-.322 3.105-1.846 3.691-.87-2.025-.562-3.563.923-4.613-3.403-1.24-6.787-1.24-10.15 0a2.813 2.813 0 00-1.846-2.769c-.323 1.133-.938 2.057-1.846 2.769 1.113-2.373.806-3.911-.923-4.614.996 3.661.483 4.891-1.538 3.691-3.304-.282-6.483.333-9.536 1.845a5.31 5.31 0 000-4.614H3.692a2.4 2.4 0 010 2.769l1.846-.924a1.5 1.5 0 01-.923 1.846c.263 1.933-.66 1.933-2.769 0-.138 1.715.477 3.253 1.844 4.614 1.172.645.864.953-.923.923.06-1.67-.862-2.286-2.767-1.846.643 1.959 5.022 7.207 4.615 10.15-1.407-.937-2.022-.629-1.846.923 3.721-1.29 5.259.556 4.614 5.537a6.421 6.421 0 002.769-.923c.41 2.345-.205 2.96-1.846 1.847 2.814 6.123 1.1-.864.923 9.84l1.846.615c-2.946 4.929.073 9.88-.923 14.462h1.845a17.145 17.145 0 00-.923 8.306h.923c-.021 1.383.178 6.563 0 8.307h.923a.937.937 0 01-.923.924c1.752 2.741 1.597 5.334 5.537 6.459-.255-.667.053-1.282.923-1.846v7.383h1.845c-.354-3.057 2.639-7.54 3.692-10.152 1.611-.117 1.919.498.923 1.846 1.298-1.81 3.144-1.81 5.537 0-.352-1.379-.044-2.303.923-2.769v1.848c3.023.317 8.927-1.428 11.997 0v-.923c1.172-.051 5.593-2.206 6.46-1.846 1.831 3.749 4.114 5.044 2.769 10.15 2.051 1.113 3.281.703 3.691-1.23C55.998 97.225 54.533 80.4 59.063 75a1.379 1.379 0 01-.188-.062zM54.448 38.09c-.323.938-.63.938-.923 0h.923zm-50.757 0v-.923c.82.323.82.63 0 .923zm8.614-7.383c.38.792.278.792-.308 0h.308zm-.307 2.768c-.323.937-.63.937-.923 0h.923zm-4.615 1.846v-.923c.82.293.82.601 0 .923-.293.82-.601.82-.923 0h.923zm-1.537-1.846c.614.439.512.747-.308.923l.308-.923zm2.768 1.846c1.377 0 1.787.616 1.23 1.846l-2.46 2.148c-1.23.938-1.846.528-1.846-1.23a3.075 3.075 0 003.076-2.764zm-3.691-2.769c.586.439.483.747-.308.923l.308-.923zm-.308 9.233h.923c-.293.937-.601.937-.923 0zm.923-.927H9.23c-.255.667.053 1.283.923 1.846-1.828.341-3.366-.274-4.615-1.846zm.922 2.769a11.343 11.343 0 014.615.922 2.63 2.63 0 01-1.846 2.769 11.805 11.805 0 01-2.769-3.691zm1.845 5.537h.923c-.323.967-.63.967-.923 0zm.923-.923h1.846c-.264 2.285-.879 2.285-1.846 0zm1.845 4.614v-2.768l.308-.001c1.025 1.143.923 2.066-.308 2.769zm.923-2.768v-.923c.82.294.82.601 0 .923zm3.693 47.988v-.923c.82.294.82.6 0 .923zm14.765-60.908a2.476 2.476 0 001.23-1.846c1.289 1.7.879 2.623-1.23 2.769v-.923zm.923 1.846h.923c.41 2.373-.205 2.988-1.846 1.846l.923-1.846zm-.922 2.772a3.345 3.345 0 011.846 1.846l-.001-.004c1.729 2.636 3.882 3.868 6.461 3.697 1.025 5.889-.821 9.272-5.537 10.151-1.456.246-2.379-.574-2.769-2.461a2.234 2.234 0 011.846.615c-.905-1.282-2.228-10.612-1.931-13.369 0-.111.022-.261.085-.475zm.921 17.531a.7.7 0 01.283.091c.839.37.751 1.87-.283 4.523h-.923c.142-1.566.451-3.113.923-4.614zm-.923-1.847h.923c-.293.821-.601.821-.923 0zm8.309 20.303c.117 2.974-4.292 6.013-6.461 6.46.255.667-.053 1.283-.923 1.847a.978.978 0 00.923.922c-.711 1.96.489 4.068 0 5.537-1.703-.218-2.934.705-3.692 2.769.11-.978.425-1.921.923-2.769h-.923c1.416-3.493 2.58-8.2 3.69-11.381-.218-3.14-2.167-13.635-1.846-16.304.673.204.98.82.923 1.847l.001-.002c1.611.586 1.92 1.816.925 3.691.659-.217.966-.832.923-1.846 3.722-.911 8.322 7.763 5.537 9.229zm20.098-2.84c-.572-.239-.1-.042 0 0zM257.999 64.5c1.992-.323 1.992-.631 0-.924v.924zm-.926-4.615v.923c.937-.323.937-.63 0-.923zm141.384-39.267h.002a2.197 2.197 0 01-.652-1.892c-.733.969-.516 1.6.65 1.892zm-20.664 5l-.454.157c.364.59.516.538.454-.157z"/><path d="M407.588 10.189c-1.032-.767-2.501-6.921-3.428-8.457l-.692.944-.434-1.26c-.82.618-1.5.617-2.036-.004-.201.457-.655.613-1.364.47.352 1.021.265 1.755-.259 2.204a7.113 7.113 0 00-1.105-1.734c-.537.705-12.818 3.976-12.063 4.859-.77.583-8.617 4.377-9.114 4.549l-.218-.63c-5.902.409-6.376 3.564-2.605 8.65l-.454.157c-.44.991-.455 1.936-.042 2.835a3.046 3.046 0 011.147-1.101c-.565 2.253.035 3.846 1.736 5.043l.455-.157c-.336-.646-.328-1.118.021-1.417 1.101.132 2.204.223 3.312.271.121-.456.074-.94-.131-1.365.514.122.881.576.889 1.104-.24.513 5.451-3.309 4.873-3.087a2.991 2.991 0 012.102.686c.613-.234.721-.741.322-1.521 1.207-.152 7.308-2.226 8.403-2.188l-.434-1.26c.916.222 1.522.013 1.819-.626a2.69 2.69 0 001.777 2.208 6.52 6.52 0 01-1.105-1.734c.873.107 5.078-2.135 6.581-1.561a1 1 0 01.087-.735 1.843 1.843 0 002.188-.048c-.623-1.348-.227-2.659 1.188-3.936-.745.323-1.217-.063-1.416-1.159zm-33.329 9.595l.454-.157c.035.615-.117.667-.454.157zm1.54 2.996l.217.63c-.532-.041-.604-.251-.217-.63zm12.064-4.86l.455-.157c.034.616-.118.668-.455.157zm1.292-11.021l.218.631c-.531-.042-.603-.252-.218-.631zm-.206 11.249c-.053-.15-.108-.321-.176-.539.513.122.879.575.888 1.102l.455-.157c-.097 1.787-.49 1.635-1.167-.406zm1.188-1.011l.217.631c-.538-.061-.61-.272-.217-.631zm1.105 1.735l.218.631c-.531-.042-.604-.252-.218-.631zm.188-12.756l.217.63c-.532-.04-.604-.251-.217-.63zm1.363-.47l.455-.157c.035.615-.117.668-.455.157zm2.967-1.725c.474-.237 1.001-.184 1.581.161-.166 1.243-.694 1.189-1.581-.161zm2.273-.783l.455-.157.072.21c.218 1.29.043 1.273-.527-.053z"/><path d="M388.773 17.609c.062.202.118.365.176.539.562 1.62.293-.428-.176-.539zm11.265 3.17c-1.042-.447-1.121-.185-.237.787h.002c.254-.153.332-.416.235-.787z"/></g></svg>