<svg xmlns="http://www.w3.org/2000/svg" viewBox="0 0 148.09 113.17"><path fill="#7DFA72" d="M9.43 31.95L142.4.9l5.7 112.28L0 86.79z"/><path fill-rule="evenodd" clip-rule="evenodd" fill="#FFF" d="M120.26 70.52c-5.5 4.58-8.3 4.15-8.3 4.15s-.9 8.95-6.27 7.4-5.42-5.4-5.42-5.4l-5.44.01-1.7 3.08-1.42 24.3L35.97 93.7s6.32-67.49 8.3-72.59c1.97-5.1 7.09-3.6 7.09-3.6s-3.08-6.7-.67-9.64c2.4-2.94 5.21-6.69 11.64-3.88 6.42 2.81 9.62 10.09 9.62 10.09l5.02-.35s3.88-7.3 10.27-2.2c6.4 5.1 5.88 7.83 5.88 7.83l3.61-3.51s1.56-6.45 5.47-4.32 4.01 10.57 4.01 10.57l24.48 5.7s.67 8.7-2 16.06c-2.68 7.36-2.93 22.09-8.43 26.66m13.77 20.98l-3.15 14.03-16.9.95 5.88-19.23z"/><path fill-rule="evenodd" clip-rule="evenodd" fill="#060605" d="M136.18 82.91c-.3 4.1-2.69 13.22-3.88 17.46-.37 1.29-1.1 4.65-1.89 5.47-.68.7-1.95.95-2.3-.08-.55-1.69 3.03-10.97 2.28-11.75-3.98.52-8.03-.15-11.63-1.94-.84 2.58-2.19 12.8-3.88 14.13q-.61.45-1.38.59c-.64.2-.82-.66-.86-1.07-.36-3.65 5-21.16 6.6-25.38.35-.94 1.22-1.56 1.38-2.1.67-2.27-.4-6.22 3.17-6.94 3.7-.74 3.19 4.64 2.72 6.83l1.9-.04c1.1-3.28.74-9.21 5.75-6.63 3.53 1.82.39 5.43.52 7.66.06 1.02 1.68 1.33 1.5 3.8m-22.68-32.3l2.16-.37-.06 1.88c-1.09 1-2.91-.39-2.1-1.51m-.55 10.3c-1.9-.93-.21-3.55 1.49-2.48 1.08.68-.03 3.2-1.5 2.48m-5.1-9.06c.8.5.53 2.32-.94 2.64-2.89.63-1.72-4.29.93-2.65m11.88 20.85c-1.54 1.16-4.37 1.74-5.44 2.7-1.34 1.19-2.72 4.81-4.43 6.42-2.1 1.97-4.4 2.82-6.96 1.12-1.83-1.22-8.58-13.3-8.54-15.44a1.67 1.67 0 012.03-1.7c.7.16 2.35 2.8 3.4 3.59 4.3 3.2 14.7 3.39 18.4-.93 3.66-4.29 5.58-14.56 7.55-19.95-.58-.39-1.34.3-2.12.2-1.15-.15-9.09-8.51-5.37-9.63 3.47-1.03 5.89 5.11 9 1.26 1.03-1.26 2.68-9.4 1.4-10.65l-33.92-8.1c.54 5.6.31 11.48-2.79 16.38C86.85 46 78.86 43.8 75.06 36c-.62-1.3-1.46-4.95-1.86-5.5-.55-.77-3.57-.54-2.16-2.56l1.6-.78.59-8.68-4.7-.71c-1.51-4.09-3-9.33-7.38-11.24-6.32-2.75-9.73 2.24-9.03 8.24.2 1.66 2.17 5.5 1.72 6.43-2.65 3.1-3.77-.64-4.36-.78-3.22-.8-3.68 2.63-4.2 5.03-4.71 21.8-5 44.39-7.98 66.39-.18 1.28-.4 4.9-2.29 3.93-1.1-.7-.62-1.94-.85-3.02-.73-3.45-.12-4.82.08-8.23a520 520 0 016.65-56.49c.72-4.2 1.34-12.92 7.31-11.86-.38-3.52-.9-6.37 1.09-9.57C53.24.2 60.94 1.7 66.56 4.87c4.82-6.05 15.27-7.45 13.82 3.15 6.3-1.2 11.31 3.07 12.8 8.91l3.09-.78c-.09-7.31 6.35-9.37 9.38-2.2a30 30 0 011.53 6.8c6.68 1.86 14.76 2.66 21.19 4.98 1.77.64 4.72 1.74 5.1 3.8.6 3.28-1.99 12.37-2.88 16.07-1.56 6.45-5.73 23.24-10.86 27.1m-12.6 2.72c.13 1.05.96 2.25-.2 3.08-1.17-1.03-1.17-3.96-3.3-2.9-1.84.8.8 4.9 1.84 5.18 2.42.66 7.13-4.94 1.66-5.36M85.05 12.06c-2.31-.72-6.13.15-4.68 3.13l8.53 1.73c.7-.77-2.82-4.54-3.85-4.86m5.62 9.12c-.63-.98-11.89-2.24-13.78-2.3L76.5 27h6c1.8.94 5.97-.59 5.07 2.74l-4.03.81c-.77 3.75-4.74 4.27-5.5.32-.75-.03-.78-.18-.78.59-.02 3.05 3.8 8.4 7.13 8.2 6.3-.38 7.86-13.88 6.28-18.48m9.48-6.39c-.65 3.69-1.03 5.02 3.49 4.85.56-.53-2.69-9.43-3.5-4.85m-44.2 7.96c.55 1.74-3.42 3.22-3.87 1.72-.48-1.6 2.63-2.64 3.88-1.72m1.83-13.48c4.21-.93 8.65 4.8 7.1 8.64-1.1 1.09-6.23 1.23-7.66.66-2.85-1.13-2.8-8.56.56-9.3m10.16 62.3c1.63 3.44-2.56 3.76-1.16.2zm3.52-.42l.02 3.23-1.33.6c-1.54-.37-1.01-4.76 1.3-3.83m23.94-5.9l-2.36.5c-1.88-2.95 3.93-4.02 2.36-.5M73.66 71.6c1.76-.6 9.52.86 11.95 1.1 1.5.13 9.38.21 9.8.46 1.3.76 2.2 4.79-1.05 3.82l-1.19 27.86H89.3l.42-14.5c-2.1-.28-1.78-2.33-.6-3.7l.96.77.78-10.45-17.2-1.6c-.87-.29-1.3-3.33 0-3.77m9.02 14.28c.67.66.35 3.75-.94 3.46-1.08-.23-.6-4.42.94-3.46m1.18 8.1l-1.16-.94.97-1.75zm.6-11.6c1.36-.2 1.17 2.23-.01 2.7-.97-.5-.7-2.6 0-2.7M85.8 97.1c.1.55.13 2.56-.96 2.32-1.05-.23-.5-3.06.96-2.32m-1.12-7.4c-.17-1.74-.4-4 1.9-3.83l.2 3.5a1.6 1.6 0 01-2.1.33m2.68-6.54c1.46-.23 1.69.67 1.55 1.94h-1.55zm.38 12L86.56 95c-2.06-1.5 2.84-6.44 1.18.17"/></svg>