<svg xmlns="http://www.w3.org/2000/svg" viewBox="0 0 180 145.65"><path fill="#7CFA72" d="M0 43.31l49.63-31.36 94.17 14.13 36.2 84.3L77.84 133.7 0 98.94z"/><path fill="#FFF" d="M23.39 127.8S30.04 95 43.72 93.36h2.05s-3.2-34.4 11.73-68.4c0 0 .1-9.09.6-11.2S62.62.38 70.76 1.66c8.13 1.27 7.47 18.8 7.47 18.8l9.87.64s7.8-12.66 14.2-10.23-.13 18.16-.13 18.16l12.92 17.27 13.04 15.86-20.08 43.1 21.68 4.83 8.25-32.84-1.67-11.82 1.52-7.84 6.56 3.12 2.97.04.41 2.57 6.52-.46 4 6.83-4.49 17.1-4.32 29.05s-.24 17.51-19.7 15.01-25.03-1.7-25.03-1.7l.96 14.6z"/><path fill-rule="evenodd" clip-rule="evenodd" fill="#060605" d="M127.92 117.91a.56.56 0 010-1.11c2.48-.75 2.47 1.87 0 1.11m-.3-3.53c1.95-.65 4.54 1.6 2.06 2.06-2.21.42-3.48-1.6-2.06-2.06m-41.24-42.8q.24 0 .48.06c2.04.7 1.86 4.04-.6 3.87-2.58-.03-2.19-3.92.12-3.93m.13 0h-.18zm3.57 10.39a1.75 1.75 0 11-1.94-1.92q.35-.07.7 0a1.6 1.6 0 011.24 1.92m-1.9-1.93l-.04.01h-.01zm-4.24 6.67c.28 1.4-5.78 1.93-3.86.21.47-.41 3.67-1.12 3.86-.21m-4.77-10.1l-.15.03c1.76-.8 2.57 1.3 1.75 2.63-2.04 2.45-4.38-1.75-1.6-2.67m79.38-5.68c-3.66 16.16-5.44 32.67-8.78 48.9a25 25 0 01-2.54 6.65c-4.63 7.87-11.71 5.6-19.27 5.14-7-.37-14.61-.5-21.31-1.21-.3 3.38.24 6.83.3 10.23q.23 1.95-.12 3.89a1.3 1.3 0 01-2.16.75 4 4 0 01-.72-2.5c-.65-7.29.35-14.64-.52-21.9.03-1.96 1.85-2.7 2.93-.98.06.08.62 7.38.67 7.74 9.38.2 18.95 1.12 28.33 1.85 7.5.65 10.09-4.44 11.58-10.9a320 320 0 005.7-35.5l-13.73-3-7.97 34c-2.07.57-2.87-.06-3.11-2.13-6.33-1.47-12.73-2.82-19-4.6-1.8 5.78-9 3.41-13.48 3.7-1.84.02-3.53 1.22-5.41.82l-.3-.06-.15-.02c-1.31-.21-2.07-1.41-3.05-2.09-8.09-2.5-17-5-22.25-12.24-4.73-6-8.78-12.58-13.56-18.48-1.03-1.91 2.34-3.46 3.39-1.88 0 0 11.2 14.48 15.03 19.52.22-10.26.53-23.17 6.4-31.8q.3-.1.64-.1c1.05 0 1.9.86 1.89 1.91-.56 2.86-1.96 5.43-2.85 8.18-2.14 8.1-3.5 16.98-2.2 25.28a47 47 0 0011.71 5.01v-7.8a24 24 0 01-3.73-6.79c-.23-.79.17-1.63.93-1.95l1.08-.43a1.2 1.2 0 011.55.69c1.61 4.19 4.4 8.09 8.44 10.12l7.12-22.83L94.51 68c-16.47 3.64-26.15-17.52-13.38-27.92 8.04-6.48 20.31-2.26 24.13 6.94a11.3 11.3 0 016.46.6l1.27-1.43a36 36 0 00-2.26-3.06c-1.62-.57-3.43-.47-3.62-2.66-.83.03-1.9.26-2.55-.47-1.27-1.57.36-2.54 1.89-2.52q-.96-1.36-2-2.68c-1.74.1-3.8-.89-2.4-2.81A36.8 36.8 0 0078.5 20.82c-.36 1.49-1.87 4.51-2.8 4.35s-.81-2.81-.71-3.83c.56-2.8.7-5.68.4-8.52C75.34 2.97 67.6-1.42 61.94 8A20 20 0 0060 13.33c-.28 1.15-.52 2.35-.8 3.5-.17.7-.18 2.12-1.21 2-1.53-2.85.74-8.57 2.05-11.35C62.1 3.24 66.38-1.09 71.48.23c7.3 1.94 6.96 11.25 7.16 17.32 3.07.07 6 1.07 8.97 1.77 3.84-4.88 7.15-12.91 14.82-10.03 8.22 3.76 2.08 13.82 1.55 20.28a564 564 0 0111.69 14.82 16 16 0 015.01-1.34c8.62-1.32 17.14 5.76 17.15 14.5l4.42 1.96a13 13 0 00-2.42 5.45c-.87.7-2.44-2.01-3.03-1.67l-.48 2.12c1.35 1.02 3.32 1.07 4.6 2.22a3.3 3.3 0 003.07 1.63q.55 0 1.1.06c.64.8 1.06 1.98 2.17 2.4.93.6 2.12.63 3.1.1.47-.12.98-.1 1.44.08a4.2 4.2 0 004.53-2.43c-1.07-1.29-.48-.45-2.07.5-1.95 1.27-3.8.43-2.93-1.82l.15-.43q.31-.96 1.05-1.8l.02-.02-.01.02c1.56-1.74 4.26-2.65 5.74-.56.95 1.57.44 3.78.27 5.56M93.08 105.1c.5 1.31-.62 2.54-1.44.99a4.4 4.4 0 00-3.38-2.77q-.26.4-.28.87a5.7 5.7 0 001.98 4.5l.24.14.23.1-.13-.06.15.06c2.96 1.27 8.59-4.15 2.63-3.83m9.57-90.88a4.5 4.5 0 00-6.33-.54c-2.36 1.83-3.8 4.62-6.03 6.6 3.54 1.88 7.46 3.88 11 5.85q.8-5.69 1.76-11.35a4 4 0 00-.4-.56m-6.3 86.17l.1.2c1.43.06 4.29 0 5.67.14 3.05.95-3.03 5.75-3.74 7.1.93.8 5.26 0 6.64-.35 5.44-10.77 10.82-23.14 16.27-33.85a16 16 0 01-7.83-3.15c-2.56 1.98-7.12 5.46-9.57 7.33l-1.82 5.55c-1.76 5.3-3.92 11.73-5.72 17.03M99.9 44.8c-6.94-9.03-21.6-2.5-20.54 8.53 2.27-1.57 5.72-3.22 7.77-4.62.98-.32 1.65.45 1.3 1.42-2.5 2.57-5.98 4.02-8.75 6.27l.11.4c1.18-.54 5.14-3.05 5.4-2.41.53 1.31-4.62 4.68-4.62 4.68 2.65 4.58 8.5 7.38 13.58 5.3.54-1.32 1.8-1.34 3-1.64q.52-.21 1-.56 1.03-.78 1.84-1.8l-.18.2q.22-.27.42-.55l-.22.33q.51-.64.92-1.35l-.4.59c2.84-4.35 2.52-10.64-.62-14.78m9.15 6.5a4.6 4.6 0 00-3.06.3c-.25 1.03.07 2.25-.17 3.33-.71 4.4-3.34 7.34-6.47 10.3l5.05 4.04c2.04-.7 4.27-1.43 6.12-2.04a15.9 15.9 0 01-1.47-15.92m6.45-2.8c-7.67 6.83-3.34 21.56 7.47 21.33 4.04-8.13 4.7-6.1-1.15-13.52-2.04-2.65-4.22-5.19-6.32-7.8m2.57-1.8c.12.7.86 1.2 1.3 1.73 1.33 1.41 2.96 2.98 4.33 4.36q2.9-2.32 5.9-4.56a13.6 13.6 0 00-11.53-1.53m12.2 3.62a65 65 0 00-5.38 4.37c.12.17.55.37.38.5 1.8-1.36 4.3-3.25 6.3-4.57.31-.17.77-.32.7-.75-.54-.9-1.43.1-2 .45m2.5 1.58c-2.3 1.08-6.77 3.99-6.9 3.98 4.28 4.17 5.72 7.35 2.17 12.7 5.83-2.97 8.22-11.1 4.74-16.68m.49 17.78c-1.33.75-2.42 1.87-3.87 2.49-1.38.62-2.94.82-4.16 1.7-3.97 10.25-10.58 20.06-14.71 30.3 4.98 1.76 10.26 2.55 15.39 3.82q1.55.4 3.15.45.5-2.15 1.08-4.29c2.5-9.84 6.1-19.77 5.97-30.02-.16-1.81-1.78-3.09-2.85-4.45m22.82.35l.05-.08zm.12-.22l.04-.09zm-45.15 15.8c1.62.17 1.9 2.4 1.01 3.47a1.4 1.4 0 01-.4.34 2 2 0 01-2.71-.83c-.77-1.37.63-3.07 2.1-2.97m.75 3.73v-.01l.04-.02zm-1.84-7.66a9 9 0 01-.64-2.42c.2-.14.44-.34.65-.47 3.9-2.1 3.71 4.69-.01 2.89m-19.5 27.25l-.02-.01zm59.32-38.68c-4.07 1.34-4.98-3.82-3.46-6.6a5 5 0 018.44-1.23l.55.62c-2.94 1.23-5.45 3.88-5.53 7.2m-4.83-2.12a3.15 3.15 0 01-3.52-1.48 5.7 5.7 0 012.45-7.32c1.37-.66 3.89-.6 4.11 1.33l.03.27c-1.66 2.03-3.45 4.43-3.07 7.2M59.64 18.6c.07-2.96 1.63-10.62 5.66-11.71 5.92-1.14 5.93 6.31 5.77 10.42-.15 2.13-.35 4.65-1.72 6.4-2.28 2.5-5.68-.31-7.68-1.88-.88-.81-1.99-1.95-2.02-3.23m5.7-11.73l-.04.02-.17.02zM76.01 31.5c-2.02-.35-4.1-.32-6.11.08-1.4.24-2.52-1.03-1.42-2.2 2.17-1.5 5.12-1.1 7.65-1.3 1.5.05 4.45-.06 4.29 2.14-.47 2.05-2.88 1.76-4.4 1.28m-6.63 6.12c-1.14.03-2.45.07-3.48.07l-.2-.33c-2.36-3.9 13.34-4.76 13.16-.13-.88 1.45-2.78.24-4.03.07a.4.4 0 00-.25.03c.5 4.1-5.54 4.64-5.2.3m-9.4-13.99c-.21.7-.76.6-1.56.25a1.4 1.4 0 01-1.02-1.4v-.37c1.45-.66 2.78.83 2.57 1.52m-8.21 50.84c.3.03.5.3.48.59-.11 1.1-2.39 1.81-2.73 1.15s.9-1.43.9-1.43c-2.04.28-1.24-1.26-.1-1.52a.47.47 0 01.56.57l-.16.64zm7.54-47.73c-8.87 22.62-13.53 41.3-11.56 65.8a24 24 0 016.64 4.27c1.63 1.56 3.87 3.03 4.5 5.3q-.04.62-.5 1.02c-.6.5-1.48.41-1.97-.18-16.15-20.73-26.16 5.5-30.2 20.11-.6 2.25-.66 4.6-1.46 6.83-.77 2.47-3.6 2.77-3.6-.34 2.11-12.35 8.53-36.37 23.13-38.2a131.4 131.4 0 0110.7-63.37l.88-2c.83-2.66 4.1-1.57 3.44.76m-16.74 86.34c.45-.87.8-3.8 2.25-2.77 1.49 1.66-2.32 12.34-2.6 15.21-.7 3-.34 6.43-1.98 9.16-1.4 1.57-3.19.36-3.39-1.48.15-5.86 2.9-11.45 4.66-16.98.28-.77.8-2.35 1.06-3.14m38.95 11.82q.47 1.94.35 3.94c-3.89 1.94-3.38-5.51-.35-3.94m2.17-2.55c-2.59 1.28-2.72-3.52-1.06-4.36 2.15-.54 2.67 3.42 1.06 4.36m-.33 9.49c2.03.56 1.23 4.81-.93 3.63-1.17-1.02-1.31-4.23.93-3.63m4.8.6c-.23.85-.87 2.46-1.94 1.86a1 1 0 01-.24-.2c-.5-1.47-1.4-3.26-.8-4.81 2.22-2.21 3.78 1.14 2.98 3.14m-2.08 1.8l.14.06.06.05zm.54-7.63c-1.06-1.2-2.14-5.05-.3-5.95.78-.23 1.6.19 1.87.95a8 8 0 01-.23 4.92c-.27.43-.94.2-1.34.08m.25 10.6c2.76-.08 2.54 2.96 1.27 4.58q-.65.16-1.31.21-.16-.13-.28-.28a3.2 3.2 0 01.32-4.5m5.1-1.35a1.25 1.25 0 01-2.4.13 4.8 4.8 0 01.87-3.53c1.69-.41 1.98 2.26 1.53 3.4m-.2-13.35c-.69.15-1.36-.3-1.5-.98-.26-1.08-.01-3.12.76-3.86 1.85.09 2.43 2.97 1.53 4.32q-.3.42-.8.52m-.85 7.18c-.92-1.05-1.68-4.33.38-4.54 3.29-.26 2.82 6.3-.38 4.54"/></svg>