<svg xmlns="http://www.w3.org/2000/svg" viewBox="0 0 500 500"><path fill="#5464FE" d="M428.5 472.5H139.2L54.5 212.6l289-159.1 109 320"/><path fill="#FFF" d="M99.6 126.2l57.4-16.7s2.2-18 3.3-19.9c1.2-1.8 8.8-4.2 8.8-4.2l7.7 16.5 6.8 1.9 16.7-23.2 10.4-2 17.8 12.6L250 71.1h19.6l8.6 15.2v13.3l9.8 4.2 16.9 104.4 59.7 71.2s19.6 34 18.3 68.6-12.6 54.5-27.2 67.3-6.5 11.7-6.5 11.7l-71.7 10.5-48.9-11.1 5.2-30.2H227l-9.2 27.9-15-5-4.9 15.2-7.2-1.9-5.6-12.2 5.3-61.4-4.1-92.7-2.8-42.5-52.6-4.3-16.2-24.6z"/><path fill-rule="evenodd" clip-rule="evenodd" fill="#060605" d="M345 343c-.8-3.3-3-8.8 1-10.9.5 3.6 5.3 10.3-1 11m20.7-4.3c1.3 1.2 2.3 9.7-2.2 8.7-1-1.1-.8-11.5 2.2-8.7m-3.8 19.6c2.6 0 1.8 12 .4 14l-3.2.2c.3-4.8-1.3-10.6 2.8-14.2m-6.2-26c.5.2 2.6 7.7 2.4 9-.4 2.9-3.3 2.4-3.4 3.5-.2 2.3 3.6 8.4-.5 11.3-3.2-2.2-3.6-6.4-2.1-9.8.4-1 2.3-1.7 2.5-2.9.1-.7-5.6-15.5 1.1-11.2m-9.1-48.1c-4.8 1-6.2-7.5-3.3-7.6 1.8 0 6.7 5.5 3.3 7.6m-9.3-24c2.2-2.2 13.3 8.4 7.1 12a12 12 0 01-7-12m-37-24c3.3-1.3 10.5 7.9 5.9 8.8-3.4.6-7-5.5-6-8.8m0 12h1.5c1.9 1.5 3.2 3 2.8 5.5-2.3 1-5.2-4.7-4.4-5.5m8 0l2.8 6.6c-2.1-1.4-6.4-4-2.7-6.6m1.2-21.8c1.9.9 6.5 4.2 4.9 6.6-2 2.7-10.5-2.2-5-6.6m7.9 11.2c4.4 4.5-1.8 6.4-4 .2 1-1.9 2.8-1.4 4-.2m-3 21.5c3.6 0 4.8 3.4 4.4 6.6-3.6 0-4.9-3.5-4.4-6.6m3.8 9.8c3 2.6 5.5 5.5 5 9.8-5.8 1.4-8.9-5.9-5-9.8m-2.7-22.9c5-.3 8.1 5.3 7.6 9.8-5.8 1.2-7.7-5.1-7.6-9.8m10.4 24c-1.6-.6-5.4-7-2.2-7.6 2.5-.5 5.5 6 2.2 7.6m-1.7-29.4c1.3-1.5 8.6 5.9 6.6 8.7-5 .6-7-4.8-6.6-8.7m11 37c-5.8.7-5.8-5.7-5.5-9.8 3.7-.5 6.8 8.4 5.4 9.8m-7.7-21.7c4.7-.8 5.7 4 5.4 7.6-3 .9-6.6-6.5-5.4-7.6m-18.6 10.8l-3.3-.6-1-7c4.2 0 4.8 4.2 4.3 7.6m-75.2 55.1c3-5 9.4 3.2 7.6 4.9-3.8.5-7.8-.2-7.6-4.9m3.3-105.1l3.2-.1c2 8.5-6.4 6.8-3.2 0m2.7 97c4-1.1 5.7 4.4 4.9 7.5-3 1-9.4-6.4-5-7.6m2.7-7.2c3-3.8 7.1 0 6.5 3.8-3.7.6-5-.6-6.5-3.8m29-194.5l-.6 3.3c-11.6-1-8.4-11 .6-3.3M245 89c9.6-17.5 25.2-6.6 17.8 10.7-10.3 2.5-26 4.4-17.8-10.7m-14.8 133.7l-1-6.5 2.7-1.7c2.8 2 1.4 5.7 1.7 8.6zM176 198c1.4-1.7 7.8 6.3 6.5 7.6-4.4.3-7.2-3.6-6.5-7.6m16.9 43.6c2.8-.6 2.5 3.6 1.6 4.3-2 1.6-5-3.6-1.6-4.3m3.2 26.1c-3.2.7-2.9-5.6-2.7-7.6 3.6-.7 6 7 2.7 7.6m6-28.3l1.1 3.8c-4.5 5-6-4.2-1-3.8m5.5 7.6c0 3 3 7-1.6 7.7-2.5-.5-2.8-8.5 1.6-7.7m-5.5 12c2.8.9 2.2 4.2 2.2 6.6-2.8-.9-2.2-4.2-2.2-6.6m-1 17.4h-1.7c-4.7-1.8 1.9-10.5 1.6 0m-3.9-29.4c3.6-.6 5.6 7.7 2.2 8.7-5 1.6-4.7-8.2-2.2-8.7m174 154.3c-2.9 4.6-16.4 17.8-16.8 19-.7 1.8 1.6 3.8-.6 7.2-4 6-28.9 8.2-36.6 9.2-16.6 2-37 4.5-53.4 5.4-12.1.7-29.8 1.6-32.8-13-2.5-12.3 6.5-13.1 15-16.7 1.5-.5 3.5-2 .3-2-5 2-12.9 3.4-15.7 8.4-1 1.8-1.2 6.5-2.9 7l-6-2.2c-.8 13-7.5 18.5-20.5 14.5-11.9-3.6-6-17.3-4.8-25.2 2-12.8 5-27.3 5.7-40 1-15.6-1.4-32.8-.7-47.8.3-4.9 5.5-4.1 6.8 1.4a170 170 0 012.7 27.8c.3 19.4-3.5 39.3-6.1 58.4 1.2 1.8 10.6 3.8 11.3.3l15-83.2 4.7 1.8a237 237 0 01-6.2 54.4c.3 9 22.5 18.9 30.1 21 7.6 2 13.2-1.8 21-.9.5-2-.8-2-1.9-3a79 79 0 01-23.4-30c-22.5-55.4 27.3-101.2 82-84.1 7.3 2.3 20 8 19.6 16.9-8.7-2.2-15.8-7.5-24.8-9.5-57.5-12.5-94.6 39.6-60.7 87.9 2.5 3.5 15.3 18 18.5 18.6s7-.5 10.2 0c4.4 9.2-18.9 7.6-20.6 9.8a24 24 0 016.6 18.5c9.6-4 50.7-3 56.7-8.2 1.3-1 1.4-4.7 2.7-7 4.6-7.5 14.7-13.1 20.4-23.3 35.6-64.6-19.8-140.4-65.8-183.2L285.5 112c-4.4-14.8-9.4-3.6-13.1-3.2-8.1.8-3-7.8-2.2-11 2-7.8 3.4-19.5-5.7-23.7-14.6-6.5-25.4 11.9-28 23.7l-10.4 2.3c1.3 4.7 0 15.2 1.2 18.8.7 2 4.7 2.3 4.2 4.5-7.5 3.2-5.6 5.8-8.2 11.5-20.1 43.4-52.3 4.4-44.2-27.3-8.9 1.3-74.4 14.4-75.3 18.2 0 5.8 1.4 26.6 10.2 25.3 3.1-.5 13.6-11.9 15.9-3.4 1 3.4-10 16.9-13 18.3-3.2 1.4-5.8-2.2-5.4 1 1 8.5 10.7 34 15.5 41.2 7.2 11.2 16.6 8.7 28.4 10.4l18.8-14.7s6 4.3-3.8 16q13.4-.2 26.7-1.1c8.1-.6 28.7-2.7 29-1.5v7l-38.3 3.2 1.2 23 3.2-1.2c.7 4.3 2 7.6-3.3 8.2 2.2 8.3.8 17.5 1.2 26.1.8 18.9 3.7 37.9 4.4 56.7a301 301 0 01-5.3 63.5c-.5 3.3 5.7 3.3 6 5.1a66 66 0 00-3 23.5c-19.8-2.6-9-25.5-7.6-38.7 3.2-31.8-.8-63.1-2.2-94.7-1-23.2-.8-46.5-2.3-69.7-.4-1.4-1.4-1.5-2.6-1.8a100 100 0 00-16.4 0c-4.3.6-7.9 5.1-13 4.4-4.2-.5-3.8-5.1-5.2-6.3-2-1.7-14.3-3.3-19.4-7.4-7-5.8-15.2-30.3-18-39.7a345 345 0 01-11.4-47.6c-1.2-12.4 8.3-13.6 18.2-16.4 12.7-3.6 26.6-5.4 39.4-9.2 1.2-8.8 4-25.3 15.9-23.8 10.3 1.3 3.1 16.4 14.7 15.2 3.6-12 14.2-22.4 27.4-18.5-3.4-22.5 21.1-22.2 29.5-6.6 21-14 46.5-5 40.8 23 10.9 1.3 12.1 8 14.2 17.4 6.7 29.9 8.2 63.1 13.4 93.4 7.5 9.5 17.7 17.4 25.9 26.5 39.2 43.2 72.9 114.2 37.7 169.5m-144-2.8v4.4l3.3-1.1c.3-2-1.3-3.6-3.3-3.3m-61-309.5c-3.6.5-7.5 13.3-6.6 14.2 2.1.1 8-.7 8.6-2.9zm25 7.6l19.6-3.3c-1.2-14-16.8-6.3-19.6 3.3m26.2 4.4l-29.6 5c-6.5 19 9 61.6 27.3 28.4-2.4-1-5-8-5.5-8.2-1.3-.8-18 1.5-15.7-3.4 1-1 3.2-3 4.4-3.3 5.4-1.1 14.3.9 20.2 0z"/></svg>