<svg xmlns="http://www.w3.org/2000/svg" viewBox="0 0 140 140"><path fill="#FFF" d="M31.47 122.28l14.9-24.85-2.97-49.99 2.98-9.06L36.4 18.5 41.94 1h13.74v13.95l9.2 10.41h8.92l7.02-16.2L77.32 1h14.32l6.13 13.95-4.97 28.7 8.2 57.29 11.1 13.44 2.08 18.85h-82.7z"/><path fill-rule="evenodd" clip-rule="evenodd" fill="#060605" d="M90.94 88.89c1 .26 1 3.25.41 3.25-1-.26-1-3.25-.41-3.25m1.79 3.48c.9.82 1.23 2.1.82 3.25-.93.9-2.14-2.79-.82-3.25m-1.56 1.98a4.4 4.4 0 011.14 4.06c-1.56.3-1.9-4.03-1.14-4.05m14.81 22.74c-.23.84-1.4.44-1.98.21-1.65-.64-6.78-4.69-8.4-6.02-5.33-4.4-10.13-9.72-14.77-14.84-.44-.09-1.95 2.2-2.47 2.71q-1.5 1.4-3.18 2.6l23.37 27.81c.14 1.04-2 1.37-2.55.48L70.13 99.11l-.65.31c-3.85 5.97-6.9 12.45-11.15 18.14-.77 1.03-4.54 5.93-5.39 6.07-1.02.16-1.19-.68-.84-1.54 3.84-5.3 7.94-10.5 11.44-16.03a53 53 0 002.8-4.79q.08-.3.02-.63a8.1 8.1 0 01-6.23-4.66l-.56.2a249 249 0 01-16.4 21.28c-1.07.84-2.42.39-1.63-1.1 1.3-2.4 7.63-7.77 8.03-9.97a871 871 0 002.11-34.3c.14-3.47-.15-7.21.1-10.68.04-.74.4-6.1 1.95-5.15.78 1.58.18 3.24.2 4.77.24 11.48.13 23.13-.67 34.56-.16 2.25-.72 4.49-.8 6.75 3.06-3.14 5.18-7.33 7.89-10.76 3.64-4.61 7.18-4.26 10.57.37 2.13-2.03 3.5-3.76 6.37-1.66 2.43 1.77 4.4 4.43 6.45 6.43q6.81 6.62 13.86 12.96l.04-2.04c-2.35-15.4-5.53-30.8-7.22-46.28q-.39-2.7-.46-5.4.12-.61.59-1.05c1.1-.3 1.76 4.16 1.95 5.03 3.6 16.83 5.08 34.6 7.84 51.62.46 1.73 6.25 3.33 5.64 5.53M86.16 11.52c1.92-1.51 2.94 1.64 3.28 3.06C91 21 88.68 30.87 86.03 36.86q-.59 1.22-1.3 2.36c-.23.15-.86.22-1.07-.07-2.48-6-1.37-13.08-.13-19.28.33-1.64 1.48-7.43 2.63-8.35m2.7 26.63l1.82 11.36c-.48 2.03-5.18-.38-5.44-.12.27 3.43-5.08 4.57-5.6 1.09-.14-.98.64-2.37.57-2.62-.04-.14-2.09-1.27-1.14-2 .6-.48 7.6 1.81 8.77 2.28l.57-.38c-.3-2.71-1.43-5.8-1.7-8.43-.27-2.8 2.37-6 3.32-8.78 2.3-6.78 2.24-16.19-.65-22.78-.8-1.86-2.77-4.88-5.04-4.61-1.01 2.12 1.81 4.55 1.3 6.57-.17.66-.91.81-1.26 1.28-4.12 5.6-4.95 14.63-4.55 21.36l-.85-.12c-1.32-4.75-.53-10.54.88-15.21.83-2.77 2.17-6.24 4.45-8.04-1.46-1.9-3.28-7.5.6-7.56 4.27-.06 7.1 7.19 7.93 10.58 2.02 8.9.6 18.24-3.98 26.13m-6.14 10.26c-.28-.35-1.17-.03-1.34.47.68 1.27 1.85.15 1.34-.47M79.4 60.06a2.3 2.3 0 012.09.73c.74.65 1 .7-.07 1.14l.3 1.32c-.2.25-1.3-.68-1.43-.89-.4-.62-.02-1.02-.16-1.25-.16-.26-1-.09-.73-1.05m7.91 30.62l-.4-3 .8-.03c.12.92 1.09 2.83-.4 3.03m-1.06.87c-.66.66-1.18-1.95-1.2-2.3-.1-.99.1-1.99.57-2.88.74 1.62.96 3.43.63 5.18m-1.47 3.9c-.22.24-1.12-.52-1.13-.64l-.21-4.92.53-.3c.87.33 1.03 4.8.8 5.86m-11.64-9.08c.37 2.14-1.57 2.69-.83.2zm13.78-23.9l.78-.01c.84 3.52-1.36 7.76-3.49 10.55-1.01 1.33-6.62 7.27-7.81 7.8-.65.29-4.6.97-5 .44-.96-2.3 3.51-1.65 4.44-2.27.24-.15.35-.72.64-.98a58 58 0 006.94-7.3 15.7 15.7 0 003.5-8.22M73.65 69.9l-.4.02-.32-.94.4-.43.72.92zm-1.71-39.37q-1.37-.56-2.66-1.26c.21.36.93.82.87 1.19-.28.4-.39.45-.88.4a47 47 0 01-3.53-1.31c-.4-.3-.33-.5-.32-.94 1.32-.12 2.65.1 3.86.66-.23-.31-.34-.7-.32-1.08 1.07-.16 2.15.2 2.92.96l.28-.57a2.48 2.48 0 012.69 2.64l-2.4-1.54c-.37.24.28.87-.51.85M57.34 79.1c-1.08-2.4-1.8-12.08-1.62-14.88.02-.3.05-.87.39-.96.47-.12.82.61.92 1l2.4 14.28a4.2 4.2 0 002.05 1.49c1.4.47 5.29-.06 4.35 1.86-2.86.65-7.14.2-8.49-2.8m-.32-48.36c.85 1 2.45 1.7 2.56 3.2.06.98-.46 1.17-1.36.94a72 72 0 01-7.04-3.78c-5.25-3.69-7.04-12.91-5.45-18.82.25-.92.58-1.79 1.64-1.52l.18 4.24c.08 1.77 7.87 13.85 9.47 15.74m9.63 13.7c.2.13.76 2.28-.3 2.2-1.13-.5-.82-2.87.3-2.2m1.9-.36l-.17 2.2-.8.03c-.43-1.09-.53-2.54.98-2.23m1.3 1.32c.83.13.44 2.1-.6 1.94-.07-.49-.24-2.07.6-1.94m.04 36.4l-1.05.09c-.68-3.05 2.08-2.97 1.05-.09m.86 6.3l-.4.02c-1.93-1.53.53-2.21.4-.01m1.08-.31l-.82.03-.08-1.92.82-.03zm-.41-18.62l.92.3c.57.7.47 1.63-.5 1.85-.9-.43-1.72-1.75-.42-2.15m-3.18 12.56c-.47 1.81-2.94-1.53-.02-1.46zm-5.67-8.04c-1.72-1.22 1.64-1.84 1.71-2.2.42-2.85-1.98-3.68-3.67-5.41a20 20 0 01-2.7-3.37c-.32-1.18.81-4.27 1.22-5.6.33-1.1 2.73-8.16 3.23-8.34l1.08.18c.18.36.22.78.11 1.17-.3 1.89-2.15 5.58-2.83 7.65-.18.54-1.19 3.4-.98 3.66 1.77.57 3.18 2.27 4.7 3.36.96.12 5.72-5.71 6.44-2.15-.13.96-2.7 3.56-3.5 4.38-1.54 1.55-2.93 1.4-1.74 4.32.82-.35 4.19-1.7 4.6-.58.16.37.08.79-.2 1.08-.69.74-6.72 2.4-7.47 1.85m-1.65-44.34c-3.29-3.01-8.9-9.24-11.23-12.96a7 7 0 01-1.43-4.95c.03-.85 1.51-6.12-.93-4.53-2.12 1.38-2.96 7.46-3 9.86-.12 8.79 3 12.87 9.85 17.65.98.69 2.6.93 3.11 2.36l-6.36 11.63q1.05-.21 2.04-.62c1-.38 4.62-2.47 5.26-2.04 1.65 1.09-1.66 1.97-1.79 2.2-.46.8.8 2.84-.92 4.8-2.14 2.43-4.53-.08-4.24-2.7-3.87.68-2.53-1.71-1.6-3.96 1.34-3.19 3.44-6.02 4.85-9.18-5.2-2.96-9.8-6.77-11.38-12.81-1.24-4.78-1.2-13.1 1.87-17.2 1.12-1.5 3.32-2.95 4.85-1.01s-.35 4.42.05 6.82c.25 1.53 3.31 5.6 4.42 6.92 2.88 3.4 7.24 6.98 9.88 10.43.45.58.9 1.03.8 1.85H65c-.55.6-3.51-2.03-4.09-2.56m-7.44 20.87l1.09-.05c.11-1.83-1.37-1.75-1.1.05m13.13 56.15c.4 1.36.84 3.25-.2 4.38-2.06-.08-.38-4.77.2-4.38m1.78 5.95c.79.43 1.15 3.48.43 3.54-.14-.23-.54-.17-.65-.3-.29-.34-.87-3.45.22-3.23m.1-10.14c1.6-.58 1.2 4.43.47 4.64-1.04.3-1.07-4.42-.47-4.64m1.62 5.41c1.12-.29 1.47 3.8.71 4.08-1.51.54-1.84-3.78-.71-4.08m.57-5.5c1.23-.32 1.42 3.54.71 3.8-1.46.53-1.27-3.66-.7-3.8m1.73 11.71l.4 2.58c-1.68.9-1.78-3.34-.4-2.58m.55-6.88l-.4-2.58c1.38-.78 2.27 2.9.4 2.58m1.14 4.6c-.92.24-1.27-3.14-.84-3.8.93-.73 1.78 3.56.84 3.8"/><path opacity=".8" fill="#F2F2F2" d="M28.02 25.58l-1.2 2 2.31-.06-1.15 2.07 2.33-.02-1.18 2.02h2.35l-1.2 2 2.32-.06-1.16 2.07 2.34-.02-1.19 2.02 6.85-3.94L57.8 23.09l6.84-3.95H62.3l1.19-2-2.31.06 1.15-2.06-2.33.01 1.18-2.01h-2.35l1.2-2-2.32.05 1.16-2.07-2.34.02 1.18-2.02-6.84 3.94-18.35 10.57-6.85 3.95zm55.83 102.16l-1.31 1.93 2.31.07-1.27 2 2.33.12-1.3 1.94 2.35.14-1.31 1.93 2.31.07-1.27 2 2.33.12-1.3 1.94 7.07-3.55 18.92-9.5 7.07-3.54-2.34-.14 1.3-1.93-2.3-.07 1.26-2-2.33-.12 1.3-1.94-2.34-.14 1.3-1.93-2.3-.07 1.27-2-2.34-.12 1.3-1.94-7.06 3.54-18.93 9.5-7.06 3.55z"/></svg>