<svg xmlns="http://www.w3.org/2000/svg" viewBox="0 0 140 140"><path fill="#FFF" d="M.4 129.71l16.9-48.59-1.67-31.38 22.6-31.38 38.5-9.26 20.5 7.59 20.5 32.63-7.94 23 20.65-16.39 9.17 24.77-8.91 24.27-4.15 18.45-114.5 12.11z"/><path fill-rule="evenodd" clip-rule="evenodd" fill="#060605" d="M130.86 90.04c-2.74 4.4-5.71 7.76-7.89 12.64-.45 1-1.41 4.5-1.8 5-.22.36-.63.55-1.04.49-.28-7.47 5.26-13.25 9-19.14.75-1.2 3.45-5.36 3.6-6.43.11-.75-.64-.37-1.06-.23-5.32 1.76-9.18 10.24-12.26 14.66l-1.51.68c-1.09-.81 1.8-5.47 2.35-6.4 3.34-5.63 8.06-10.24 11.4-15.84-4.07.73-7.57 3.55-10.42 6.38-1.39 1.38-2.44 3.58-4.2 3.93-1.02-.75 1.96-5.86 2.61-6.75 1.57-2.11 4.16-4.03 5.9-6.12a29 29 0 003.36-4.96c.15-1.23-2.48.57-2.74.73a38 38 0 00-10.06 9.95c-3.94 5.97-6.1 13.15-8.76 19.74l.1.6a9 9 0 012.77 4.52c.25 1.28-.34 1.95-.22 2.87.08.53 2.66 6.23.79 6.07-.79-.06-1.65-4.3-2.15-5.31a18 18 0 00-1.75-2.5c-.15-1.26 1.31.07 1.89-.13.27-.4-1.8-4.46-2.33-4.69-.14-.06-.68.72-1.37.2-.67-.52-1.1-2-1.6-2.7-.55-.77-3.07-3.44-3.08-4.05-.02-1.15 1.96.57 2.19.76 1.27 1.08 2.05 2.54 3.24 3.64-.07-2.83-2.76-5.9-3.42-8.29q-.16-.83.01-1.66c1.62-1.5 3.6 5.52 4.7 5.94 1.9-8.85 7.82-20.54 15.57-25.58 8.67-5.65 10.96-.71 5.3 6.22v.01c7.46-3.02 6.93 2.42 2.88 6.39 7.39-1.33 1.78 6.5 0 9.36m-35.94-5.79c1.17-5.65 4.79-13.37 1.11-18.75-1.28-1.89-9.6-4.82-12.28-6.52-2.59-1.65-4.7-3.96-7.2-5.72 2.08 5.68 7.46 9 12.83 11.18.82.34 4.92 1.44 5.1 1.71.48.72-.46 2.1-.94 2.77-4.03 5.74-16.83 14.65-23.83 11.02-5.66-2.93-2.92-9.64-6.11-13.4-.62-.73-1.96-1.47-2.39-2.37-2.06-4.39 3.1-11.47 6.62-13.89 1.26-.86 3.33-2.17 3.18.4-.16 2.83-2.39 8.24-2.94 11.62-.64 3.93-1.29 9.35.7 12.94 4.45 8.06 19.08-2.45 23.06-7.02-7.44-2.35-16.03-7.68-18.21-15.67-.4-1.42-1-4.06-1.23-5.49-.13-.89-.08-3.09 1.26-2.42.83.4.17 2.64 1.1 2.21l8.73-6.25c1.84-3.78 1.62-8.31 2.85-12.22 1.23-3.9 3.16-3.73 6.05-1.34 7.65 6.3 16.52 20.55 17.14 30.5.42 6.69-3.85 17.81-7.51 23.4-1.26 1.9-5.12 5.97-7.1 3.31m-25.94-32.7c-.28-.19-1.38 1.12-1.66 1.4-3.24 3.3-7.62 9.54-2.05 12.81a35 35 0 013.71-14.2m32.19-9.88c-2.32-3.8-6.65-10.19-9.98-13-1.94-1.64-2.52-1.64-3.18.95-1.15 4.46-.02 10.35-3.9 13.65-1.09.92-8.52 5.44-8.47 6.15 2.88 2.88 5.7 5.94 9.16 8.13 3.04 1.94 11.2 4.61 12.95 6.73 1.34 1.62 2.03 5.96 1.96 8.09-.1 3.16-1.42 6.2-1.7 9.34.54.49 4.35-6.84 4.64-7.46 5.59-11.65 5.3-21.4-1.48-32.58m-12.8-17.02l-.57-1.67c1.37-.26 2.86-.72 3.6.84-.52 1.43-1.86.97-3.04.83M72.5 41.33c-.67-1.12 1.13-.88 1.74-1.05l-.03.98c-.49.3-1.3.74-1.7.07m-.26 2.43l-.15-1.21c.8-.37 1.48-.59 2.2.1-.39.77-1.2 1.2-2.05 1.1m15.73-21.2c-.32.48-1.06.4-1.54.25-2.76-.83-6.89-3.93-9.83-3.54-9.7 3-19.9 4.7-29.34 8.46a21 21 0 00-4.7 2.32c-2.6 2.29-5.82 8.39-8.16 11.35-.38.46-2.27 2.6-2.8 2.2-.36-1.52.73-3 1.43-4.31 1.43-2.66 6.57-10.84 8.83-12.23a34 34 0 014.91-2.17c9.6-3.71 19.86-5.51 29.7-8.45 1.98-.2 8.64 2.4 10.4 3.5.84.54 1.81 1.6 1.1 2.63M31.63 48.05l.99.35c.1 1.38-1.8 5.06-3.46 4.32-.97-.43.64-2.9 1.08-3.35l-.07-.45-1-.35c.4-3.74 5.83-5.81 2.46-.53m-.22 4.8c.74 1.37-2 5.78-3.35 5.12-1.6-.77 2.47-5.76 3.35-5.12m-1.8 5.4c.54-.16.65-.15 1.07.26.11 1.35-1.92 2.8-2.11 3.64-.07.3.25.81.13 1.48a52 52 0 01-2.65 6.07c-.62.46-1.23.12-1.6-.45-.46-1.3 2.23-5.29 3.08-6.45l-1.09-1.06c.73-1.05 1.91-3.1 3.16-3.48m-1.58 28.59c.84-1.2 1.84-1.51 1.87.26.05 2.51-3.47 8.68-4.78 11.09-1.03 1.87-4.26 6.28-4.67 7.86-.22.82.03 1.5-.12 2.11-.66 2.6-2.13 5-3.16 7.45.72-.16 1.82.17 1.72 1.1-.03.28-2.08 3.82-2.46 4.83-1.36 3.71-2.26 8.07-3.54 11.86-.33.38-.55.07-.75-.28-.6-1.07 1.34-7.7 1.79-9.3.37-1.33 1.85-4.56 1.96-5.47.07-.67-.55-.82-.73-1.35-.74-2.27 3.33-6.58 3.32-8.55 0-.53-1.04-.84-.66-2.13 2.2-3.77 4.85-7.65 6.78-11.54 1.1-2.2 2.2-6.2 3.43-7.94m-2-12.25c-2.06-1.14.32-3.85 1.84-4.38l.54.66c-.9.94-.62 4.68-2.37 3.72M28.69 77l-1.18.23.5-1.97c1.12-.03.93.99.68 1.74m.42 7.61c-.54.92-2.33 3.74-3.48 3.23-.57-.3-.3-.55-.22-1 .17-.94 2.64-4.46 3.39-5.21.38-.38.54-.68 1.18-.64.44 1.35-.2 2.48-.87 3.62m14-5.95c-1.46.66-2.23-2.31-1.34-2.64.84-.32 2.33 2.2 1.34 2.64M41.46 60.5l.69 2.56c-2.86 2.72-2.02-3.56-.69-2.56m-1.25-6.15l1.86-.28c.43.27-.93 2.56-2.47 1.67-.95-.54-.77-2.46-.65-3.42 1.37-.42 1.07 1.88 1.26 2.03M39.1 82.6c.15 1.67-5.84-.57-6.47-.93-.76-.44-2.9-2.71-1.6-3.37 1.24-.62 1.73.83 2.54 1.34 1.77 1.12 4.14 1.22 5.53 2.96m-.02-16.82a2.4 2.4 0 01-2.1 1.39c-1.72-.2-1.72-5.48.59-5.12l.2 3.46zm9.5 16.49l.33 2.16.38-1.46.93-.32.05 2.51c-.94.4-.95-.16-1.52-.7-.13.85-.47.75-1.3.83-.33-.23-.03-3.17 1.13-3.02m-1.85-.67c1.27.73.12 2.14-.5 2.92-1.27-.73-.12-2.13.5-2.92m2.82-15.82c-1.63 2.27-2.48.43-2.43-1.66 1.47-1.14 1.1 1.25 2.43 1.66M69.92 30.6c-.6 1.13-3-1.73-2.57-2.28 1.58.36 1.53-1.04 1.9-1.22 1.58-.77 3.88 2.9.46 2.13zM43.35 90.38c5.02-1.44 10.03 1.1 13.78 4.22l-.01-2.36c-2 .4-4.68-6.5-3.46-6.94 1.4-.53 1.7 4.07 2.92 4.62.53-.08.41-4 .4-4.66-.23-7.7-2.4-15.34-3.18-23l-3.66-15.6c.18-.5 1.09.1 1.31.27 3.85 11.1 7.16 27.59 7.22 39.3.02 3.25-.8 5.95.16 9.24.47 1.6 4.03 2.88 4.86 4.64-.31 2.55-3.87-.53-4.16-.15 2.73 5.78 4.34 12.48 3.2 18.86-.6.19-.87-.12-1.05-.64-.58-1.65.07-4.43-.63-6.26-.77-2.27-1.03-4.64-1.8-6.92-.54-1.64-3.34-7.48-4.54-8.43-.3-.24-.37-.37-.8-.2 1.34 2.85-6.95 4.36-7.33 3.96-.33-.35-.07-.93.34-1.26 1.76-1.44 6.42-.99 5.77-4.29-.13-.7-1.5-1.38-2.22-1.36-1.36 2.73-3.26 4.44-6.47 4.46.52 2.01-1.61 4.27-3.4 4.83-2.26.7-3.98-2.06-2.78-2.63 1.05-.5 1.38 1.36 2.39 1.22 1.83-.8 2.93-2.18 2.07-4.22-.14-.33-2-.44-.69-1.67.75-.36 1.5.24 2.23.25a5 5 0 004.73-3.24c-6.16-1.35-10.88 3.98-14.75 8.01a84 84 0 00-9.63 12.2c-.64.98-2.98 6.47-4.4 5.43-.33-1.47.87-2.92 1.59-4.2 3.63-6.53 14.82-21.4 21.99-23.48m5.3-48.12c.19-1.15 1.2-1.13 1.46-1.55.2-.32.27-2.33.5-3.07 2.19-7 10.8-11.1 16.8-5.84 9.87 8.7-3.16 26.9-14.57 16.8-.58-.52-.63-1.15-1.39-1.67q-.28-1.14-.7-2.22c-.46-.7-2.45-.22-2.1-2.45m12.26 7.38c11.65-1.79 9.28-21.6-2.6-17.64-9.15 3.04-7.12 19.13 2.6 17.64m2.71-12.21l-1.77.62c4.58 5.97-7.04 8.76-4.87 1.38l-2.13.63c-.74-1.36 0-1.72 1.17-2.3 1.5-.75 7.83-3.44 7.6-.33M34.4 110.39c1.22.03 2.53-1.45 2.7.59-2.14 1.41-4.29 1.38-5.83-.85.74-1.35 2.03.23 3.13.26m13.78-5.72c.76-.58 1.4-2.82 2.42-.98-.85 3.15-5.98 4.47-7.16.94 1.97.04 2.77 1.53 4.74.04m.8 1.96c1.07-.17 2.2.32 3.11.1 1.43-.35 2-2.12 3.46-1.72 1.04 1.1-1.91 3.04-2.87 3.27a4.9 4.9 0 01-4.4-1.06c-.24-.66.24-.52.7-.6m4.4 5.44c.71-.47 2.1-2.5 2.76-.9.13.44.07.91-.18 1.3-.7 1.13-3.43 2.08-4.52.93-.33-.83 1.43-1 1.94-1.33m7.13-20.35c-.9-.89-1.85-3.71.08-3.67l1.05 2.7 8.68-1.33-.04.99-3.76 1.18.58 1.47c.35.17 3.47-1.21 4.03-1.52.94-.53 2.13-1.82 2.85-2.04 1.6-.48-.64 2.54-1.2 2.97a18 18 0 01-5 2.12c-2.21.3-1.87-1.91-2.72-2.31-.91-.43-3.06.92-4.55-.56m13.83 4.95c3.12 1.22 4.11-5.2 5.61-6.5 1.15 3.43-1.67 9.3-5.68 8.66-1.27-.2-5.1-3.9-3.58-4.88 1.46-.4 3.06 2.49 3.65 2.72M88.8 77.23c1.1.65 4.56 5.16 3.78 6.26-.9 1.28-5.01-4.78-5.22-5.46-.35-1.15.5-1.35 1.44-.8m-1.12 10.5c-.4.99-4.34 1.78-4.6.07l3.05-.79c-4.05-7.32 2.5-1.58 1.55.73m13.5.16l-.13-1.2c2.28-1.43 2.5.87.14 1.2m-1.47-1.36l.1-1.45c.17-.42 1.36-.55 1.53-.38.62.65-.72 2.1-1.63 1.83m-19.9 12.21l5.9-.9c.99-.14 3.1-1.58 2.9-2.81l-.78-5.11c1.81-.8 1.99 3.4 2.48 3.75 1.67-1.31 3.38.48 5.14.48.1-2.48-2.35-4.21-2.12-6.65 2.71 1.42 6.1 7.15 2.12 8.73 2 4.4 2.67 9.26 4.48 13.74 1.3 3.26 3.7 6.6 4.5 9.98.76 3.21-1.16 1.22-2.06-.21a62 62 0 01-8.21-21.43q-.15-1.21.16-2.41l-3.96-1.93c-.03 2.37.27 3.81-2.1 4.93-1.76.82-6.66 2.1-8.35 1.03-.4-.27-.54-1.12-.1-1.19m38.99-12.56c.52.09.62.54.68.97.28 1.8-3.24 9.68-3.91 12.28-.28 1.07-.77 5.58-1.25 5.97q-.57.34-1.22.34c-.8-6.16 2.65-11.77 4.65-17.36-.76-.02-1.93 1.25-2.42 1.8-.7.78-2.9 4.43-3.13 4.58-.13.08-.74.25-.79-.03-.37-2.32 5.49-8.86 7.39-8.55"/><path opacity=".8" fill="#F2F2F2" d="M97.16 124.95l-1.5 2.21 2.64.08-1.46 2.29 2.68.14-1.49 2.23 2.69.16-1.5 2.2 2.65.09-1.46 2.29 2.67.13-1.48 2.23 8.1-4.06 21.69-10.9 8.1-4.05-2.69-.16 1.5-2.21-2.65-.09 1.47-2.28-2.68-.14 1.49-2.23-2.7-.16 1.5-2.2-2.64-.1 1.46-2.28-2.68-.14 1.48-2.22-8.1 4.06-21.69 10.9-8.1 4.06zm-82.6-102.8l-1.37 2.3 2.65-.07-1.33 2.36h2.68l-1.36 2.3h2.7l-1.38 2.3 2.65-.07-1.33 2.36 2.68-.01-1.35 2.31 7.84-4.52L48.68 19.3l7.85-4.52h-2.7l1.37-2.3-2.65.07 1.33-2.36-2.68.01 1.36-2.3h-2.7l1.37-2.3-2.64.06L49.9 3.3l-2.68.01L48.6 1l-7.85 4.52-21.03 12.11-7.85 4.52z"/></svg>