<?xml version="1.0" encoding="UTF-8"?>
<svg id="b" data-name="Calque 2" xmlns="http://www.w3.org/2000/svg" width="1436.12" height="1835.35" xmlns:xlink="http://www.w3.org/1999/xlink" viewBox="0 0 1436.12 1835.35">
  <defs>
    <clipPath id="d">
      <polygon points="445.18 683.04 712.7 759.47 749.21 507.21 645.29 158.78 339.66 158.78 166.74 474.63 166.74 767.1 445.18 683.04" style="fill: none;"/>
    </clipPath>
    <clipPath id="e">
      <polygon points="782.91 504.74 744.72 768.62 1014.36 845.66 1278.08 764.51 1278.08 474.63 1105.15 158.78 723.46 158.78 721.35 158.78 679.73 158.78 782.91 504.74" style="fill: none;"/>
    </clipPath>
    <clipPath id="f">
      <polygon points="649.99 1192.74 650.34 1190.29 707.93 792.43 445.44 717.43 166.74 801.57 166.74 1275.96 701.19 1523.81 649.99 1192.74" style="fill: none;"/>
    </clipPath>
    <clipPath id="g">
      <polygon points="1014.7 880.08 739.95 801.58 683.36 1192.58 735.18 1527.73 1278.08 1275.96 1278.08 799.04 1014.7 880.08" style="fill: none;"/>
    </clipPath>
  </defs>
  <g id="c" data-name="Calque 1">
    <polygon points="1436.12 432.95 1436.12 1492.28 723.48 1835.35 0 1483.26 0 434.76 216.13 0 1210.96 0 1436.12 432.95" style="fill: #fff;"/>
    <path d="M723.11,1797.76L27.26,1459.12V460.32L236.49,39.42h954.45l217.92,419.04v1009.18l-685.76,330.12ZM60.26,1438.48l662.93,322.62,652.68-314.2V466.52l-204.96-394.1H256.94L60.26,468.07v970.41Z" style="fill: #010101;"/>
    <polygon points="782.91 504.74 744.72 768.62 1014.36 845.66 1278.08 764.51 1278.08 474.63 1105.15 158.78 723.46 158.78 721.35 158.78 679.73 158.78 782.91 504.74" style="fill: #7cfa72;"/>
    <polygon points="445.18 683.04 712.7 759.47 749.21 507.21 645.29 158.78 339.66 158.78 166.74 474.63 166.74 767.1 445.18 683.04" style="fill: #ef9755;"/>
    <polygon points="1014.7 880.08 739.95 801.58 683.36 1192.58 735.18 1527.73 1278.08 1275.96 1278.08 799.04 1014.7 880.08" style="fill: #75fafc;"/>
    <polygon points="649.99 1192.74 650.34 1190.29 707.93 792.43 445.44 717.43 166.74 801.57 166.74 1275.96 701.19 1523.81 649.99 1192.74" style="fill: #ed1e79;"/>
    <g style="clip-path: url(#d);">
      <path d="M361.45,721.69c.85-4.24,14.4-223.62,5.93-222.78s-57.6,9.32-72,4.24-22.9-25.56-22.9-25.56c0,0-31.32-43.05-31.32-70.16s15.25-12.71,15.25-12.71l27.11-15.25-.85-19.48s85.55-56.75,146.54-54.21,150.78,33.04,153.32,33.04,84.71-11.86,76.24,43.2-65.22,57.88-65.22,57.88l-10.16-2.82s58.45-21.18,60.99-47.44,1.69-24.56-9.32-32.19c-16.3-11.29-19.95,9.76-44.05,10.16s-31.34-.85-31.34-.85c0,0,0,44.33,36.42,69.74,2.82,25.69,38.96,208.09,44.89,225.88s45.74,94.87,43.2,95.72-254.12-60.14-254.12-60.14l-68.61,23.72Z" style="fill: #fff;"/>
      <g>
        <path d="M604.56,441.67c.42,33.66,7.85,66.73,14.79,99.5,10.94,51.64,25.04,118.13,43.82,166.77,14.93,38.68,41.54,75.39,56.48,113.16,1.49,3.76,5.06,12.93,2.24,16.23-5.45,6.38-14.3-9.37-16.85-13.32-21.19-32.84-41.8-84.22-56.21-121.22-5.35-13.73-10.39-27.63-14.18-41.89-3.71,4.05-8.58,6.76-12.68,10.22-2.36,2-11.08,13.54-13.65,8.56-1.85-7.84-3.09-21.59,3.97-27.01,2.92-2.24,15.69-6.76,16.31-9.91l-13.46-62.77c-3.24,4.01-7.48,10.8-13.27,11.41-2.47.26-11.87-1.63-14.41-2.73-8.41-3.64-6.35-9.81-3.06-16.52,4.97-10.13,14.93-19.72,26.85-14.59-8.8-38.91-16.28-78.36-18.46-118.31l.88-1.14c19.3-3.65,39.34-18.16,51.68-33.14,16.14-19.6,17.23-48.95-9.06-60.1-19.54-8.29-33.82-2.84-52.92-.91-11.82,1.2-29.38-9.83-41.07-14.29-33.17-12.67-85.38-21.33-120.66-17.77-2.44.25-18.12,2.47-18.83,3.1-1.81,1.6-.46,5.51-7.99,9.08-8.13,3.86-12.52,3.15-20.48,9.74-4.22,3.5-18.52,20.91-22.7,19.87l-2.18-1.83c-2.42-4.89,6.66-11.67,8.79-15.6l12.2-11.68c-13.66.3-16.79,12.88-24.4,20.92-1.97,2.08-3.48,4.66-6.79,2.98-5.89-2.99,2.78-12.28,1.94-13.19l-34.11,15.61c.99,3.76,10.83,1.04,11.7,1.94.09,6.07-4.31,4.24,1.93,8.28-12.78,13.26-30.97,20.86-47.75,27.8-.23,1.74,2.19.95,3.28.85,12.63-1.2,31.52-4.21,43.58-1.42,4.87,1.13,6.91,4.54,5.34,9.39-2.77,8.54-35.6,21.71-43.82,27.34-3.66,2.82-.07,14.34,2.31,17.96,11.38,5.74,27.89,25.53,39.74,27.53,15.36,2.59,40.79-15.16,53.88-22.76,6.49-.32,5.93,3.97,1.97,7.9-12.49,12.39-46.44,33.38-63.4,20.48l-30.2-20.97c1.06,5.27-4.93,14.24-4.83,17.92s5.16,19.89,8.35,21.94c4.53,2.92,17.59,2.21,23.33,2.11,34.35-.65,72.37-6.32,106.26-3.99,1.2.08,5.03.3,5.36,1.67-.06,3.98,1.22,7.83-3.67,8.88l-47.07,2.16c2.56,24.76,2.88,49.58,1.92,74.42,9.19,4.28,14.87,13.14,21.95,20.18,2.52,2.51,7.86,4.56,7.18,9.02-.95,6.24-7.77,4.62-9.45,5.72-.3.2-1.5,5.18-2.43,6.84-1.09,1.94-6.9,9.11-8.74,9.86-4.26,1.75-7.24-5.4-10.42-7.1.88,7.3-.81,14.93-1.02,21.9-.79,25.64,1.32,46.95-3.36,72.68-4.34,23.87-11.43,50.97-18.32,74.29-1.36,4.6-8.74,29.82-12.08,30.89l-8.08-1.91c4.2-21.36,11.44-41.9,16.23-63.12,16.84-74.45,18.62-165.23,13.91-241.44-.25-4.04.26-8.19.05-12.23-4.96.28-10.17-.38-15.11.01-12.45,1.01-25.29,3.78-37.99,3.93-14.09.16-23.77.08-29.95-14-1.73-3.94-3.91-16.81-5.17-18.23-1.18-1.34-3.67-.75-5.32-1.5-11.85-5.39-26.05-49.6-27.24-62.46-.46-5.03-1.14-17.39,1.81-21.06,3.73-4.64,34.32-12.93,35.92-15.53.9-5.66-1.73-18.71,3.54-22.3,3.44-2.35,8.14-1.09,11.24-2.41,1.17-.5,5.55-4.85,7.51-6.14,77.96-51.48,170.44-56.92,256.68-22.09,4.11,1.66,16.61,8.67,19.25,9.03,3.65.5,14.94-3.35,20.23-3.74,78.49-5.83,89.51,67.88,26.87,103.89-5.66,3.25-12.25,6.2-18.41,8.4ZM313.9,359.65h-18.04c-2.88,0-2.68,8.61-2.43,10.72,5-2.85,10.55-4.54,15.6-7.3,1.43-.78,4.33-1.93,4.86-3.43ZM273.92,467.86c3.35-13.42.18-27.1-3.12-40.25-8.4-5.97-16.42-12.43-23.18-20.19,1.45,11.32,5.88,22.49,10.54,32.83,1.09,2.41,4.44,10.9,5.55,12.07.69.73,10.77-.39,2.44,5.29,1.09,1.02,5.39,12.41,7.78,10.25Z"/>
        <path d="M566.27,913.27c-.94.38-2.14.98-3.13.86-3.25-.39-14.56-16.66-17.68-20.24-18.72-21.47-39.92-42.6-60.43-62.41-28.5-27.52-61.46-53.55-84.76-85.85-2.69-3.73-13.22-17.57-2.13-16.49,4.71.46,8.32,8.55,11.33,12.16,42.82,51.28,109.52,92.65,145.64,146.84,2.64,3.97,13.58,21.29,11.17,25.13Z"/>
        <path d="M371.42,364.52c19.21-3.98,38.29-8.64,57.34-13.33,7.01-1.73,26.08-8.61,31.66-6.93,1.13.34,2.04,1.28,2.49,2.37-.39,4.36-5.12,5.4-8.41,6.91l-63.55,16.88c.32,5.65-1.04,11.12-2.5,16.53-.31,1.14-1.09,1.38,1.01.99,5.36-.99,30.24-15.66,37.21-19.34,3.98-2.11,23.36-15.19,26.65-11.87-.04,1.68.29,3.55-.21,5.17-2.68,8.76-44.49,29.15-54.15,32.61-13.29,4.77-23.38,8.14-29.96-7.57-1.49-3.55-2.3-11.37-3.33-13-1.11-1.76-4.64-.26-4.93-5.11s8.17-21.93,11.25-26.64c1.19-1.82,3.54-5.95,5.77-5.97l2.32,1.66c1.75,5.62-10.08,25.12-8.65,26.65Z"/>
        <path d="M623.67,349.16c6.63-1.04,15.41.63,20.28,5.58,23.74,24.13-11.95,63.07-34.61,73.68-2.37,1.11-7.76,2.13-5.42-1.52.93-1.45,17.81-12.01,21.5-15.55,10.96-10.54,23.06-36.13,11.16-49.23-8.65-9.52-20.55,1.44-29.94,5.1-14.49,5.65-50.29,9.31-60.17-5.66-8.57-12.97,16.99-2.03,21.53-1.06,12.55,2.67,21.22,3.04,33.49-1.36,7.06-2.53,14.94-8.84,22.19-9.98Z"/>
        <path d="M542.81,576.29c-3.36-1.97-16.59,10-19.05-.93-2.26-10.06,4.32-19,12.48-24.07,10.45-6.5,10.12.12,16.9-.55,2.94-.29,6.4-3.76,9.84-3.77,5.51,0,14.1,7.55,11.68,13.48-1.09,2.65-12.6,16.91-15.17,18.96-4.42,3.52-8,5.19-13.07,1.55-1.72-1.23-3.32-4.5-3.6-4.67Z"/>
        <path d="M581.04,618.98c17.87-6.68,9.58,28.19,2.69,31.44-4.18,1.97-8.57.58-9.54-4.15-8.48,4.69-8.64-.21-12.63-5.39-.88-1.14-2.74-1.36-3.74-3.09-7.09-12.29,18.4-48.85,23.22-18.82Z"/>
        <path d="M403.64,685.23c.19.19,2.59-.02,3.8.55,3.33,1.59,23.9,37.29,3.9,33.19-9.81-2.01-19.59-12.77-25.29-20.54-6.35-8.64-2.42-28.98,9.98-26.62,9.16,1.75,6.66,12.46,7.61,13.42Z"/>
        <path d="M563.23,526.61c-1.75-1.44-5.34-.05-6.38-4.86-1.79-8.2,7.86-10.56,8.87-18.51,5.53-1.36,14.18-8.28,19.26-6.68,1.2.38,2.22,1.92,3.33,2.06,1.47.19,3.63-.89,5.85-.54,7.81,1.24,6.23,27.82-6.75,27.36-2.23-.08-5.69-2.14-6.76-1.88-1.6.39-4.74,8.24-9.83,8.74-7.15.7-5.4-3.9-7.58-5.69Z"/>
        <path d="M527.16,661.09c5.64-1.12,7.12,3.58,7.79,8.35,1.06,7.53-1.45,14.07-2.55,21.31-.82,5.43,1.99,14.11-6.45,14.12-5.23,0-6.05-2.88-9.33-4.43-2.09-.99-4.1-.51-6.73-2.05-8.82-5.18-7.8-18.99-1.55-25.84,1.47-1.61,16.96-11.1,18.81-11.47Z"/>
        <path d="M454.99,710.79c5.71-1.66,7.5,4.37,10.95,5.27,3.12.82,6.83-2.63,10.8,1.84,2.6,2.93,1.85,7.26,3.45,10.2,1.96,3.6,12.86,7.44,7.32,15.25-4.46,6.29-11.24-1.18-14.21-1.18-1.78,0-4.09,2.82-7.78,2.64-1.7-.08-8-2.34-9.36-3.41-6.51-5.09-10.91-27.78-1.17-30.62Z"/>
        <path d="M591.5,691.36c11.07-2.98,10.78,9.08,7.56,16.33-1.19,2.69-12.56,17.42-14.57,18.57-5.4,3.1-13.23-.54-15.66-5.89-1.32-2.91-4.82-16.85-3.68-19.24,2.66-5.6,7.12-1.65,10.63-1.28,7.75.82,10.59-7.11,15.72-8.49Z"/>
        <path d="M512.54,603.66c7.55-1.27,5.78,1.76,8.97,3.06.91.37,2.49-.46,3.94-.02,11.16,3.37-.92,24.01-8.74,25.55-3.33.66-4.77-1.39-7.32-1.43-4.03-.07-10.27,3.74-15.19,1.38-3.66-2.54,2.02-26.22,8.56-27.65,3.16-.69,5.48.75,7.43.48.78-.11,1.6-1.24,2.35-1.37Z"/>
        <path d="M519.61,492.24c12.45-3.96,5.27,7.29,5.85,7.79,6.01-1.16,13.26,5.23,9.79,11.27-3.75,6.52-7.97,1.22-10.11,1.6-1.52.27-2.76,2.81-6.02,2.8-3.08-.01-4.34-2.35-5.82-2.54-1.66-.21-4.2.86-6.79.49-14.56-2.11-1.35-31.29,9.48-28.07,2.34.69,3.69,4.38,3.62,6.67Z"/>
        <path d="M410.13,623.09c6.39-1.45,21.8,3.89,19.58,11.73-.41,1.47-2.29,2.67-2.56,4.34s.93,3.76.91,5.67c-.12,9.3-17.95,14.03-23.09,7.37-2.14-2.77-.98-4.85-1.83-7.92-.42-1.5-1.97-2.93-2.3-4.59-.85-4.31,4.78-15.58,9.29-16.61Z"/>
        <path d="M465,665.77c.22-4.73,5.38-7.99,9.37-4.96,3.49,2.66,3.74,18.39,3.06,22.74-2.76,17.76-30.53,5.82-26.81-12.19,1.49-7.2,8.39-9.14,14.38-5.58Z"/>
        <path d="M554.4,761.98c-5.02,4.59-8.45.53-10.9.64-.92.04-4.66,3.58-7.27,4.15-9.71,2.13-15.5-8.33-10.22-17.09,11.4-18.89,17.96-4.92,30.13,3.85,1.35,2.58.3,6.57-1.74,8.44Z"/>
        <path d="M484.29,437.81c4.73-.6,9.07,3.44,10.29,7.8,2.2,7.81-6.64,22.39-15.35,21.26-6.26-.81-14.65-14.76-11.18-20.83,1.34-2.35,13.46-7.87,16.24-8.22Z"/>
        <path d="M446.24,459.3c15.67-2.66,10.76,24.01.26,26.66-2.81.71-12.23.66-14.12-1.55-1.73-6.19-8.94-9.38-2.95-15.57,1.97-2.04,14.11-9.08,16.82-9.54Z"/>
        <path d="M458.86,492.42c9.88-3.03,9.57,5.22,11.77,10.28,1.54,3.56,10.53,13.15,1.95,17.08-6.61,3.03-9.24-1.52-13.14-2.02-2.95-.38-4.26,2.08-8.06-.7-2.54-1.86-3.27-4.22-2.52-7.29.2-.81,6.9-14.09,7.52-14.96.72-1,1.15-1.99,2.48-2.4Z"/>
        <path d="M448.19,556.73c7.97-1.55,5.84,10.25,7.5,12.59,1.27,1.8,7.49-.18,8.35,4.32,1.94,10.15-15.46,20.72-20.92,12.15-3.9-6.13-3.43-27.41,5.07-29.06Z"/>
        <path d="M564.18,447.59c5.32-1.21,4.98,1.47,7.13,2.21,2.79.96,6.01-.13,7.83,2.89,1.07,1.77.6,3.37,1.17,4.68,1.28,2.99,5.81,7.24.3,10.55-5.08,3.04-8.89-.91-10.8-.77-2.3.16-6.5,10.74-13.17,2.19-4.79-6.14.25-20.1,7.54-21.76Z"/>
        <path d="M496.91,387.17c15.11-3.1,14.9,11.56,3.52,19.11-2.45,1.62-13.91,6.66-16.24,5.91-3.63-1.16-4.18-10.01-2.84-13.3,1.49-3.65,11.7-10.93,15.57-11.72Z"/>
        <path d="M483.25,530.42c4.58-1.33,5.03,4.99,5.09,8.28.2,10.79-6.48,26.96-19.68,20.58-8.92-4.32.03-16.69,4.62-21.25,1.3-1.29,8.87-7.28,9.98-7.6Z"/>
        <path d="M529.49,414.09c-.93-6.7.28-16.16,6.19-20.33,3.86-2.72,21.55-8.26,21.5.5-.05,7.95-18.88,24.73-27.7,19.83Z"/>
        <path d="M406.23,564.59c18.94-4.34,12.9,25.57,8.41,26.99-7.88,2.49-24.05-23.41-8.41-26.99Z"/>
        <path d="M530.08,431.02c2.79-.55,6.27-.36,7.9,2.4,1.57,8.76-11.86,27.78-21.31,23.23s6.16-24.21,13.4-25.63Z"/>
        <path d="M423.81,432.91c2.69-.48,11.39,4.42,12.44,6.69,2.34,5.1-5.78,14.23-10.5,15.82-4.13,1.39-14.7-1.81-14.34-7.48.16-2.54,9.42-14.49,12.41-15.03Z"/>
        <path d="M485.15,603.05c-13.64,13.64-23.99-12.16-9.67-17.95,13.45-5.44,16.8,10.82,9.67,17.95Z"/>
        <path d="M404.28,521.7c6.29-1.45,10.81,1.59,11,8.19.02.62-3.22,10.8-3.68,11.79-4.26,8.95-14.84,1.14-15.77-5.15-.71-4.83,3.23-13.62,8.45-14.83Z"/>
        <path d="M481.33,361.81c6.79-1.36,11.57,5.83,7.09,11.01-1.05,1.21-10.95,7.73-12.4,8.06-5.67,1.3-14.21-1.44-10.1-8.15.73-1.19,13.76-10.6,15.41-10.93Z"/>
        <path d="M503.3,366.2c-3.58-3.55-2.76-10.27,1.17-13.4,8.92-7.11,28.07-2.92,13.65,9.75-3.74,3.28-10.46,7.97-14.81,3.65Z"/>
        <path d="M449.15,383.21c7.36-1.55,9.98,9.61,7.59,14.47-1.71,3.47-23.78,8.63-18.28-4.64.87-2.1,8.46-9.35,10.69-9.82Z"/>
        <path d="M416.03,400.77c12.86-2.25,12.85,14.89,1.92,18.58-11.76,3.97-14.16-16.44-1.92-18.58Z"/>
        <path d="M468.7,323.77c.52.9.43,3.09.19,4.14-1.56,6.85-17.45,6.66-22.38,2.94-5.91-4.46,5.65-13.45,12.91-11.94,1.1.23,9.01,4.4,9.27,4.85Z"/>
        <path d="M493.05,330.63c2.03,2.02,2.97,13.3-.81,15.79s-14.64-1.55-16.04-4.32c-4.51-8.9,13.04-15.28,16.84-11.48Z"/>
        <path d="M422.84,313.08c5.17-1.38,11.22,1.76,11.93,7.16,1.63,12.39-22.5,10.28-21.3,2.09.37-2.51,6.91-8.6,9.38-9.25Z"/>
        <path d="M454.54,414.49c7.35-7.76,17.88,6.63,13.28,14.75-6.54,11.55-18.98-8.75-13.28-14.75Z"/>
        <path d="M577.89,375.52c4.08-.54,22.39-.72,24.67,2.08.73.9,1.17,1.68.83,2.87-1.56,5.36-24.54-.02-29.64,1.56-7.61-3.64-.66-5.88,4.15-6.52Z"/>
        <path d="M657.91,790.42c-1.82,1.04-4.9,1.48-6.45-.09s-3.74-21.01-.59-22.07c8.79-2.96,6.8,17.24,7.05,22.16Z"/>
        <path d="M641,767.51c1.35,0,3.78,1.89,4.19,3.26-1.04,4.54,4.45,19.25-2.3,19.84-4.73.33-5.01-6.69-5.3-10.29-.26-3.29-1.36-12.83,3.41-12.8Z"/>
        <path d="M396.29,788.62c1.61-.49,2.43.34,3.29,1.56,1.05,1.48,6.81,20.38,6.89,22.45.14,3.51-2.63,4.67-4.73,1.71-.95-1.34-6.82-20.58-6.92-22.42-.06-1.23.22-2.92,1.46-3.3Z"/>
        <path d="M413.33,810.06c-1.32.01-2.69.24-3.91-.48s-6.85-18.98-5.83-20c1.31-.02,2.69-.25,3.91.47,1.7,1,7.15,18.71,5.83,20Z"/>
        <path d="M574.2,385c6.94-.69,16.13-3.24,21.43,2.43,0,3.29-14.32,2.78-16.98,2.37s-5.12-1.68-4.45-4.81Z"/>
        <path d="M598.43,395.85l.03,3.66c-3.63,1.18-8.05.63-11.81-.16-4.88-1.02-7.75-.72-6.61-6.56,6.28-.43,12.54.82,18.38,3.06Z"/>
        <path d="M354.6,418.87c-3.69,3.73-10.23-1.78-6.68-6.18,3.77-4.67,11.17,1.65,6.68,6.18Z"/>
        <path d="M351.19,429.11c4.94-4.99,11.76,6.51,4.08,7.58-4.94.69-7.01-4.62-4.08-7.58Z"/>
        <path d="M356.47,446.55c4.83-1.62,8.3,3.8,5.21,7.2-4.83,5.31-11.31-5.15-5.21-7.2Z"/>
        <path d="M341.92,432.03c4.84,4.9-5.41,10.42-6.32,3.01-.44-3.58,4.13-5.22,6.32-3.01Z"/>
        <path d="M338.89,450.43c5.5-1.83,6.83,4.52,4.32,6.28-5.1,3.59-8.46-4.9-4.32-6.28Z"/>
        <path d="M332.55,414.38c2.26-3.53,10.28,1.71,5.3,5.8-3.81,3.14-6.91-3.29-5.3-5.8Z"/>
        <polygon points="322.67 456.16 323.6 450.76 327.61 451.71 327.57 455.7 322.67 456.16"/>
        <path d="M325.51,433.82c3.38,2.44-2.71,9.12-5.33,3.82-1.38-2.8,3.77-4.95,5.33-3.82Z"/>
        <path d="M322.31,416.26c3.32-.56,4.53,6.05.72,6.69-3.32.56-4.53-6.05-.72-6.69Z"/>
        <path d="M312.92,451.29c1.2,1.21-.75,6.34-3.88,4.87l-.56-3.92c.65-1.12,4.13-1.25,4.44-.94Z"/>
        <path d="M307.57,421.08c4.48-1.26,4.48,6.11,0,4.86-1.96-.55-1.96-4.31,0-4.86Z"/>
        <path d="M307.17,440.46c-2.44-3.94,3.92-6.22,4.71-2.2.46,2.36-3.72,3.79-4.71,2.2Z"/>
        <path d="M263.7,440.57c4.18-1.17,3.86,4.22.95,4.86-2.57.56-3.41-4.17-.95-4.86Z"/>
        <path d="M260.77,425.95c3.79-1.02,4.41,4.29,1.93,4.86-2.07.47-4.98-4.04-1.93-4.86Z"/>
      </g>
    </g>
    <g style="clip-path: url(#e);">
      <path d="M934.62,838.06s-4.79-30.81.29-45.21,15.25-40.66,3.39-67.76-30.49-80.47-30.49-80.47l15.25-74.54s5.08-18.64-64.38-93.18-10.3-151.26,53.72-158.64,69.1-9.92,90.28-7.38,108.25-2.46,136.29,24.61,17.03,85.51,17.03,85.51c0,0,4.74,63.92-44.64,134.45,0,0-11.26,1.08-33.29-7.4s-30.55-13.92-30.55-13.92c0,0-32.13,30.87-38.91,60.51,0,0,60.99-11.01,70.31,9.32s-.85,28.8-.85,28.8c0,0-22.87,32.19-12.71,42.35s75.39,104.19,80.47,129.6-43.2,25.41-45.74,26.26-110.12,24.56-110.12,24.56l-55.35-17.47Z" style="fill: #fff;"/>
      <path d="M831.94,795.86c1.51-.75,40.28-67.76,65.88-68.89s33.13,15.06,31.62,20.71-26.35,68.89-27.86,68.52-69.65-20.33-69.65-20.33Z" style="fill: #fff;"/>
      <g>
        <path d="M1069.78,547.94c13.37,9.02,27.2,18.34,41.03,16.31,8.31-1.21,12.3-8.47,15.81-14.88.54-.98,1.08-1.96,1.62-2.9,23.06-39.98,35.14-90.12,36.91-153.31.9-32.07,1.61-57.4-33.16-71.77-22.99-9.5-44.86-10.78-68.01-12.14-5.78-.34-11.75-.69-17.79-1.17-7.57-.61-15.26-1.39-22.7-2.15-19.93-2.03-40.53-4.13-61.04-3.08-.6-.08-.73-.31-.71-1.97,0-.67.02-1.36-.15-2.02-.52-2.12-1.4-5.66-5-5.88-3.05-.19-7.4,2.93-12.03,6.22-3.28,2.34-6.67,4.75-8.87,5.33-3.03.8-6.66,1.22-10.51,1.66-3.33.38-6.78.78-9.87,1.45-37.71,8.26-65.01,29.04-83.45,63.53-26.56,49.67,11.3,93.88,41.72,129.41l1.74,2.03c3.41,3.98,7.12,8.01,10.71,11.9,13.81,14.98,28.08,30.45,32.28,50.3-11.71-1.63-24.85,2.34-37.18,11.26l-1.25.9c-8.44,6.08-12.29,8.86-13.6,20.66-.95,8.58-.8,17.56-.66,26.24.14,8.84.29,17.98-.73,26.63-.77,6.56-9.13,16.04-14.12,21.7l-.92,1.05c-7.64,8.71-16.64,17.72-26.18,27.27-33.62,33.66-71.74,71.81-70.51,117.02l3.37,28.02h11.83l-2.58-20.71c3.26.62,7.05,1.8,11.03,3.04,6.44,2,13.08,4.08,18.2,3.95,5.53-.13,11.4-4.13,16.58-7.66.76-.51,1.49-1.02,2.2-1.49l-7.41,22.86h11.53l.25-.63c1.6-4.01,3.06-8.14,4.48-12.14,1.48-4.18,3.01-8.51,4.7-12.68,10.11-24.94,24.81-49.15,40.33-66.43,21.02-23.4,35.53-24.7,39.44-24.55,5,.2,9.23,2.52,12.59,6.9,8.6,11.23,5.82,19.03.17,31.86-3.99,9.07-8.86,18.19-13.56,27.01-3.53,6.61-7.17,13.45-10.43,20.22-3.04,6.32-5.94,12.84-8.75,19.14-1.47,3.3-2.94,6.6-4.43,9.88l-.61,1.33,1.46.08c2.54.14,5.09.21,7.67.21,12.88,0,26.31-1.76,40.8-5.34.9-.22,1.55-.57,2.14-.94l2.75,6.08h11.56l-1.53-4.14c-5.14-13.85-10.45-28.18-9.36-43.53.51-7.13,2.78-14.31,4.98-21.25,1.92-6.08,3.91-12.36,4.74-18.66,2.28-17.29-3.77-33.14-9.61-48.47-2.27-5.95-4.61-12.09-6.43-18.23l-.05-.13c-.15-.33-.09-.62.08-1.31.79-3.2,5.92-12.05,10.45-19.27,10.74-17.11,33.53-48.25,65.48-64.54,16.82-8.58,48.67-13.46,64.75-.34,1.82,1.49,6.89,7.07,7.17,8.2.43,1.85-5.58,12.9-8.82,18.84-2.01,3.68-3.74,6.87-4.44,8.51-14.92,35.2-1.74,67.39,11.01,98.51,5.8,14.16,11.8,28.79,15.2,43.69,4.75,20.78,5.58,42.23,6.3,61.16l.04.97,9.71-.11.3-.05c2.47-.82,1.81-3.96,1.37-6.04-.14-.66-.27-1.29-.29-1.69-.9-28-3.33-52.15-12.26-78.96-2.96-8.87-6.68-17.64-10.29-26.12-5.77-13.57-11.71-27.56-14.62-42.29,29.08,39.24,57.94,82.96,74.65,136.39.71,2.26,1.33,4.64,1.94,6.93,1,3.79,2.03,7.71,3.47,11.3l.25.63h11.4l-.27-1.22c-9.18-41.2-27.75-81.68-58.46-127.4-7.91-11.77-19.82-29.2-31.96-44.65-.49-.62-1.24-1.08-1.84-1.46-.22-.14-.51-.32-.65-.43-1.08-4.6,3.53-19.32,5.77-24.69.85-2.04,2.59-5.3,4.59-9.06,4.46-8.36,9.51-17.85,9.19-21.83-.85-10.7-15-22.3-24.37-25.6-18.13-6.37-36.3-2.47-51.9,1.68-.12.03-.26.08-.41.13-.03,0-.06.02-.1.03,5.94-21.11,19.51-38.48,34.16-55.82,6.94,2.53,14.24,7.45,21.95,12.65ZM919.72,838.13c-7.22,1.41-14.67,2.86-22.18,2.86l8.4-20.19,22-.62,4.73,15.71c-4.37.56-8.72,1.41-12.95,2.24ZM928.85,781.83l-.25,1.72-2.5-1.32,1-2.83,1.75,2.44ZM876.35,662.35c11.2,2.59,22.76,5.28,34.59,4.88l1.27,3.58-39.87-4.53,2.94-4.17,1.07.25ZM876.2,656.72l.66-14.05,17.42-7.69,13.26,26.89c-7.22.1-14.41-1.52-21.37-3.08-3.26-.73-6.62-1.49-9.97-2.06ZM1016.77,508.29c-.63,1.05-.66,2.37-.69,3.42,0,.28-.02.66-.04.93-5.18-1.23-13.87-4.1-25.17-8.32l-.83-.31c-5.45-2.03-7.71-2.86-10.86-8-1.28-2.09-2.53-5.35-3.74-8.5-1.38-3.6-2.69-7.01-4.05-8.72-1.52-1.93-3.82-2.77-6-2.2-1.93.5-3.32,2.04-3.63,4.02-.76,4.75,8.2,22.82,11.37,26.29,4.38,4.81,12.65,8.18,15.08,9.1,7.75,2.93,15.93,5.14,23.84,7.27,8.72,2.35,17.73,4.79,26.15,8.19-20.54,22.94-31.87,42.9-36.6,64.49-34.85,17.44-58.36,50.14-75.03,77.2l-10.4-21.78c5.95-13.38,10.11-25.79,12.7-37.9,11.61-54.25-10.32-78.65-38.09-109.55-7.39-8.22-15.04-16.73-22.67-26.45l-2.1-2.66c-14.41-18.29-29.29-37.18-32.14-60.37.28.19.56.38.85.58,7.53,5.14,16.05,10.96,25.82,9.45,2.58-.4,6.64-3.31,7.42-5.85,2.18-7.11-1.66-12.03-5.38-16.8-1.11-1.42-2.26-2.9-3.21-4.39-.43-.68-1.49-2.71-2.52-4.67-3.06-5.86-3.46-6.47-3.95-6.74-3.61-1.96-10.45.2-11.22.46-1.1.36-2.11.96-3.09,1.54-1.09.64-2.13,1.26-3.18,1.47l3.18-8.53c6.71,1.3,16.92-1.28,19.68-6.43,1.18-2.2,1.54-5.76-3.44-10.22l-4.5-2.9c10.42-17.15,27.57-30.1,51.05-38.59-2.44,2.34-3.61,6.84-3.27,10.8.34,4.05,2.12,6.51,4.76,6.58h.14s.13-.03.13-.03c4.86-1.21,9.85-2.25,15.15-3.34,11.91-2.47,24.22-5.02,34.86-9.7,7.11-3.12,9.65-6.52,9.94-13.64,1.68.11,3.33-.16,4.92-.43,1.25-.21,2.44-.4,3.57-.4,1.04,0,2.03.19,2.99.37.92.17,1.88.35,2.87.37,11.86.14,24.56.46,37.25,1.83.11,3.06,2.49,6.05,4.87,8.63,5.78,6.25,10.32,5.64,17.19,4.73.71-.09,1.44-.19,2.21-.29.54-.07,1.1-.13,1.67-.2,6.61-.77,14.79-1.71,17.46-8.87,13.75-.04,27.87,1.22,43.15,3.89.34,1.05.72,2.45,1.15,4.03,1.38,5.05,3.09,11.34,5.37,13.43,3.36,3.1,6.41,2.8,8.38,2.02,4.27-1.71,7.55-7.52,8.34-12.44l9.03,3.77c-1.17.89-2.29,1.46-3.46,2.06-1.86.94-3.78,1.92-5.82,4.19-2.9,3.21-9.24,11.42-5.52,18.26,1.7,3.12,13.88,11.26,17.61,11.77,6.38.86,10.88-2.91,15.25-6.56.67-.56,1.35-1.13,2.03-1.67,1.13,9.25,1.48,19.37,1.12,32.47-1.02,36.82-5.45,67.79-13.55,94.69-7.92,26.31-17.88,47.75-30.43,65.54-2.7,1.18-8.22.05-15.24-3.12-2.47-1.11-9.84-5.31-10.53-6.32-.41-.65-.59-1.51-.77-2.42-.33-1.62-.7-3.46-2.54-4.68-2.49-1.66-4.38-.55-5.64.17-.54.32-1.05.62-1.26.57-1.05-.42-11.42-7.06-12.15-7.67-.99-.83-1.29-2.27-1.61-3.79-.41-1.93-.87-4.11-2.97-5.07-3.29-1.51-4.81.52-5.72,1.73-.62.83-.88,1.17-1.25,1.12l-22.71-8.62c-.72-2.07-3.79-10.24-7.69-10.71-1.01-.12-2.48.2-3.82,2.44ZM847.68,390.56c.54-.09,1-.17,1.43-.09.92.2,2.81,4.31,3.62,6.07.54,1.18,1.01,2.19,1.4,2.84.73,1.22,1.8,2.62,2.94,4.1,3.48,4.55,7.81,10.2,4.87,13.86-4.52,5.63-18.99-3.04-23.7-6.52-.74-.54-4.54-3.8-5.25-4.55-.31-1.44.2-7.93.73-9.5,1.22-.62,2.45-1.34,3.64-2.04,3.07-1.8,6.25-3.67,9.62-4.07.23-.03.47-.07.7-.11ZM852.58,373c-1.58,1.91-7.21,2.58-11.01,2.52l5.7-9.04c2.36.5,5.2,2.14,5.9,3.9.34.87.15,1.73-.59,2.63ZM1051.6,319.75c-2.36,2.19-18.93,3.87-23.04,3.4-3.1-.36-5.8-4.05-7.7-7.02l31.63,2.39c-.2.48-.56.93-.9,1.24ZM1113.15,337.43c-2.08-.4-4.04-7.03-5.08-10.59-.2-.69-.39-1.34-.58-1.92l12.21,3.19c-2.21,6.6-4.42,9.74-6.55,9.33ZM1151.53,356.03c-1.3,2.25-10.67,8.91-13.07,8.91-.02,0-.04,0-.05,0-2.21-.1-10.27-4.64-13.98-8.75-1.49-1.65-1.61-2.51-1.6-2.8.1-1.91,4.68-9.49,6.3-10.84.87-.72,2.35-1.42,3.92-2.16,2.16-1.02,4.59-2.16,6.21-3.75,4.03,1.5,9.86,6.94,12.12,12.55.77,1.91,1.42,4.66.15,6.86ZM861.6,743.22c-2.85-2.23-2.56-4.28-2.13-7.28.15-1.08.31-2.19.34-3.43.06-3.14.22-6.4.36-9.56.28-5.98.57-12.17.29-18.02-.08-1.75-.47-4.16-.89-6.71-.53-3.25-1.12-6.94-.92-8.72.23-1.71,9.35-9.4,11.71-10.24.88-.31,3.25-.86,4.04-.9,1.59-.08,4.58.23,6.75.46l1.32.13c6.18.6,12.63,1.73,18.87,2.83,5.38.95,10.95,1.92,16.35,2.56.62,1.36,2.29,6.06,2.72,7.42.97,3.09,5.85,20.19,6.04,22.22-.49,1.1-4.53,5.87-5.91,7.03-17.01-8.61-36.83-1.14-58.94,22.21ZM851.88,711.72c-.17-8.39-.44-22.32.49-24.46l1.98-1.89c-1.84,3.37-1.1,7.5-.44,11.16.29,1.62.57,3.16.63,4.56.26,6.4-.04,12.92-.33,19.23-.15,3.33-.31,6.76-.38,10.13-.02.76-.04,1.5-.07,2.22-.19,5.55-.36,10.37,3.79,14.95l-.26.42c-1.71-.81-6.46-5.73-7.04-7.16-.49-1.2.42-7.63.97-11.47.36-2.55.67-4.75.74-6.03.11-2.08.02-6.52-.08-11.66ZM897.69,675.3c5.85.09,11.89.18,17.58,1.53l.21,1.82c-3.95-.6-7.95-1.34-11.83-2.05-2.42-.45-4.86-.9-7.33-1.32.46,0,.91.01,1.36.02ZM861.79,678.28l6.23-5.94c2.12,0,4.26.23,6.38.53-2.88.13-5.73.73-8.48,2.27-.65.37-2.29,1.62-4.13,3.13ZM932.5,766.32c1.09-2.74,2.14-5.4,2.88-8.23-.68,5.25-2.01,10.43-4,15.53-.06.15-.11.27-.16.37-.2-.38-.49-1.06-.79-2.2.67-1.92,1.38-3.73,2.08-5.48ZM928.87,728.65c.23-.28.5-.63.84-1.08.41-.54,1.15-1.52,1.69-2.05,2.25,6.18,3.66,12.32,4.23,18.39-1.34-6.05-4.22-11.42-6.75-15.26ZM924.71,724.08c.27-.51,1.39-1.56,2.39-2.48.36-.33.72-.66,1.06-1-.21.45-.48.95-.83,1.48-1.19,1.81-2.31,2.57-2.58,2.54-.03,0-.08-.03-.11-.1-.05-.11-.03-.28.06-.45ZM882.13,618.82c-1.94.59-4.27,1.31-4.7,2.92v-16.64l.53-1.74,7.25,14.17c-.34.44-2.31,1.04-3.09,1.28ZM878.53,624.41c1.36.75,3.35-.01,5.47-.81,1.44-.54,3.61-1.37,4.22-.93.11.08.2.27.24.53l-11.03,4.18v-4.5c.2.88.7,1.32,1.1,1.54ZM877.47,636.43l.05-2.87,13.81-4.68.3,1.31-14.16,6.24ZM829.11,768.63c-1.17,5.6,2.01,8.74,5.39,11.17l-2.32,3.62-8.61-9.98,5.54-4.81ZM840.2,762.27l.35-.39c.3-.34.61-.7.94-1.08,1.98-2.3,4.45-5.16,6.64-5.16.02,0,.04,0,.05,0,.74.02,1.44.37,2.14,1.08l-12.25,18.02c-1.95-.65-3.1-1.55-3.43-2.66-.79-2.69,2.88-6.81,5.56-9.81ZM853.38,752.15l-.15.15c-2.06-1.53-3.8-2.16-5.43-2.16-.93,0-1.83.21-2.73.58l2.51-3.38,5.79,4.82ZM776.38,820.7c-3.85-1.06-7.65-2.39-11.34-3.69l-.05-4.73c1.82.42,6.21,2.03,9.85,3.37,6.92,2.54,14.08,5.17,16.93,5.17,4.88,0,10.36-2.46,15.66-4.83,3.64-1.63,7.38-3.31,10.78-4.1-.38.58-.91,1.26-1.29,1.63-2.76,2.76-19.95,10.94-23.28,11.08-2.09.1-12.21-2.51-17.25-3.89ZM805.29,810.92c-6.02,2.62-11.71,5.1-18.04,3.47-3.14-.81-6.28-2.12-9.6-3.52-3.85-1.62-7.82-3.29-11.85-4.12-.61-1.11.09-6.47,2.39-13.85.91-2.94,6.54-15.97,8.24-17.81,2.09.31,4.2.58,6.43.87,8.89,1.15,18.09,2.34,25.82,5.8,5.34,2.39,8.09,6.49,11,10.84,1.33,1.98,2.69,4.02,4.35,5.98-.56.99-.96,2.14-1.35,3.27-.46,1.33-.94,2.71-1.61,3.51-.85,1.01-3.67,1.62-5.94,2.1-1.28.27-2.49.53-3.44.86-2.18.76-4.32,1.69-6.39,2.59ZM819.98,783.77c-8.33-9.48-20.8-11.17-32.87-12.81-1.85-.25-3.68-.5-5.47-.78-.16-.02-.37-.04-.61-.07-.31-.03-.99-.09-1.43-.2l1.33-1.37c4.46.76,8.95,1.79,13.3,2.78,7.39,1.69,15.02,3.43,22.79,3.96l10.41,15.59-.58,1.09c-.4-.41-.87-.71-1.28-.97-.38-.24-.74-.47-.95-.72-.73-.85-1.4-1.89-2.11-2.98-.78-1.2-1.58-2.45-2.53-3.52ZM838.55,705.35c-.18,1.15-.37,2.35-.41,3.51-.12,3.5-.01,6.59.1,9.57.31,8.44.56,15.1-5.26,23.82-2.24,3.35-13.35,17.61-15.29,18.71-2.17,1.24-7.1.35-11.06-.37-1.6-.29-3.1-.56-4.32-.68-2.17-.21-4.38-.32-6.52-.43-2.8-.14-5.67-.29-8.48-.65,14.47-20.21,32.47-38.09,49.89-55.39l1.76-1.75c-.03,1.22-.23,2.45-.42,3.66ZM844.09,710.87c-.16-4.62-.32-9.39-.01-13.95l1.22-1.36-.77,41.22c-1.31,8.69-15.83,25.79-22.94,30.07-6.61,3.99-15.47,1.53-24.04-.84-1.31-.36-2.61-.72-3.88-1.06l22.86,2.18h.07s.07,0,.07,0c1.71-.07,3.11-.85,4.28-1.58,3.18-1.96,15.28-17.97,17.36-21.18,6.57-10.12,6.17-22.01,5.78-33.52ZM926.46,794.43c-.31,1.49-.62,3.03-.71,4.64-.2,3.8.17,7.61.55,11.06-1.87-.14-3.98-.14-6.04-.14-2.87,0-5.84,0-8.03-.38-.27-.05-.44-.09-.58-.17l11.73-23.17c4.46,1.35,3.93,3.96,3.07,8.16ZM910.02,813.53l17.05,1.94v.04s-18.68.58-18.68.58c.4-.98,1.17-2.31,1.63-2.56ZM909.99,813.53s0,0,0,0h0s0,0,0,0Z"/>
        <path d="M993.19,692.53c12.56-8.9,31.24-20.37,48.87-24.5.7-.16,1.78-.26,2.92-.36,3.6-.33,8.09-.73,8.36-3.8.11-1.19-.21-2.15-.92-2.85-1.62-1.59-4.79-1.24-6.89-1.02l-.63.07h0c-25.17,2.41-49.82,21.22-71.57,37.82-4.81,3.67-9.36,7.14-13.72,10.28l-.09.08c-1.37,1.26-1.99,3.06-1.58,4.58.36,1.33,1.45,2.3,3.06,2.67.17.03.33.04.48.04.87,0,1.56-.37,2.13-.67.15-.08.3-.16.45-.23,4.96-2.35,11.9-8.12,18.61-13.7,3.9-3.24,7.58-6.3,10.53-8.39Z"/>
        <path d="M1066.31,791.92c-5.63.22-11.38.78-16.94,1.33-5.59.55-11.37,1.12-16.97,1.33h-25.59c-4.36.17-9.6-.61-14.68-1.37-5.13-.77-10.44-1.55-14.75-1.33h-.33c-.92.05-1.96.09-2.89.86-1.48,1.15-2.05,2.32-1.71,3.5.45,1.53,2.56,3.7,15.59,4.85l.42.04c8.94.85,17.44,1.19,25.79,1.19,16.2,0,31.85-1.3,49.04-2.72l5.12-.42c.74-.06,1.97-.01,3.27.03,3.3.12,5.55.16,6.65-.5.84-.5,1.42-1.53,1.56-2.75.13-1.19-.19-2.25-.89-2.93-.79-.76-2.92-1.49-12.69-1.12Z"/>
        <path d="M974.16,745.58c6.74-.06,15.31-1.98,23.59-3.84,5.91-1.32,12.02-2.69,17.17-3.3,10.34-1.22,19.13-.83,28.43-.42,3.17.14,6.45.28,9.9.37,3.43.09,6.92.01,10.29-.06,1.14-.02,2.28-.05,3.41-.06l.3-.05c1.25-.41,1.99-1.69,1.88-3.25-.11-1.61-1.15-3.41-3.24-3.8-1.56-.29-3.46-.19-5.29-.09-1.36.07-2.76.15-3.94.05l-.68-.06c-12.14-.98-23.61-1.91-35.9-1.05-8.78.61-17.59,2.4-26.11,4.12-7.1,1.44-14.44,2.92-21.68,3.71l-.19.02-2.63,1.39-.14.34c-.83,2.09-.39,3.41.12,4.16.82,1.2,2.41,1.83,4.61,1.83.04,0,.07,0,.11,0Z"/>
        <path d="M954.73,432.14c19.93-6.79,32.43-28.82,28.45-50.16-.13-.7-.62-2.19-1.17-3.91-.4-1.23-.98-3-1.16-3.77.12-.07.29-.13.49-.21,1.83-.71,2.66-1.86,1.47-5.62-1.03-3.25-9.94-17.96-12.52-20.25-.89-.79-2.36-1.55-3.84-1.33-.96.15-1.75.68-2.28,1.56-1.52,2.51.59,6.98,3.28,12.13.4.77.86,1.65,1.18,2.32l-39.45-3.18h-.08s-.09,0-.09,0c-5.51.5-11.34.08-16.99-.33-5.66-.41-11.51-.83-17.07-.33-4.08.37-6.43,3.37-6.35,6.06.06,1.75,1.19,3.78,4.1,4.33-6.11,16.94-1.88,35.78,11.19,49.46,9.79,10.25,22.64,15.74,35.71,15.74,5.06,0,10.16-.82,15.12-2.51ZM936.75,379.2c.54-.89,1.24-1.34,2.1-1.34.08,0,.16,0,.24.01,1.29.12,2.64,1.21,3.14,2.54.29.76.41,1.9-.65,3.02-1.32,1.4-3.1,1.14-4.19.31-1.07-.81-1.87-2.49-.63-4.53ZM908.83,396.95c2.4,6.82,6.83,11.75,12.8,14.26,9.22,3.87,17.86,2.29,24.34-4.46,8.48-8.84,11.2-24.34,6.49-35.95,4.29.25,18.34,2.5,19.81,3.26,1.69,1.08,3.93,11.84,3.91,15.11-.11,15.83-10.11,29.72-25.48,35.4-14.1,5.2-28.74,1.66-38.19-9.25-11.32-13.06-13.34-29.49-5.46-44.06l3-.23c-3.6,7.78-4.1,17.74-1.22,25.92Z"/>
        <path d="M953.94,570.98c-.54-1.42-1.01-2.68-1.36-3.64-7.53-20.93-16.08-38.04-25.39-50.84l-.52-.72c-2.03-2.8-5.42-7.49-7.32-9.1-1.98-1.69-4.32-2.15-6.11-1.2-1.65.87-2.48,2.78-2.22,5.1l.03.27.16.22c12.31,16.39,22.61,35.72,31.46,59.1.71,1.88,1.48,4.55,2.3,7.38,1.44,5.01,2.93,10.18,4.58,12.82,1.15,1.84,2.86,2.86,4.63,2.86.52,0,1.04-.09,1.55-.27,2.35-.83,3.65-3.28,3.3-6.25-.38-3.25-3.11-10.46-5.1-15.73Z"/>
        <path d="M1048.73,387.5c2.02.71,4.08,1.07,6.18,1.07,5.99,0,12.35-2.9,19.29-8.77,7.72-6.53,9.49-16.02,4.85-26.01-2.08-4.48-14.45-17.15-18.59-19.53-4.99-2.88-9.6-3.83-14.97-3.1-6.87.94-24.47,7.9-23.45,18.06,1.17,11.54,15.95,34.48,26.69,38.29ZM1028.45,345.92c2.01-3.86,14.62-9.04,19.26-9.53,9.12-.97,19.17,10.32,23.07,15.22,4.46,5.6,5.83,10.87,4.61,17.63-.95,5.23-14.61,13.76-19.6,14.01-9.12.43-20.76-15.13-24.68-23.98-2.84-6.42-3.78-11.16-2.65-13.34Z"/>
        <path d="M1013.47,320.25c-2.21-1.57-11.46-1.17-13.18-.96-2.9.34-12.49,3.05-15.1,4.26-2.6,1.21-4.17,2.97-4.68,5.23-.84,3.73,1.23,8.51,6.32,14.62,4.14,4.97,8.27,7.37,13.28,7.37,3.11,0,6.55-.92,10.55-2.72,9.61-4.33,11.84-9.48,8.25-19.02-.61-1.61-3.73-7.54-5.45-8.77ZM1015.13,337.03c-.83,4.02-11.81,8.76-15.78,8.21-5.4-.75-12.85-9.75-13.25-15.75.53-.19,1.05-.39,1.58-.59,7.55-2.8,15.35-5.7,23.33-3.71,1.42.75,4.56,9.72,4.12,11.83Z"/>
        <path d="M948.39,525.59c-1.93.61-3.35,2.72-3.53,5.25l-.02.22,12.56,32.55.11.3.27.18c1.41.93,2.82,1.41,4.08,1.41.81,0,1.57-.2,2.23-.6.94-.57,2.46-2.05,2.11-5.63-.4-4.06-10.37-28.69-12.85-31.75-1.44-1.77-3.25-2.48-4.97-1.94Z"/>
        <path d="M1114.17,412.83c-4.33.49-5.88,2.7-6.42,4.47-1.24,4.05,1.69,9.31,5.07,12.19.33.29,7.75,6.55,12.78,6.55.37,0,.72-.03,1.05-.1,1.24-.26,2.2-1.02,2.76-2.18,1.32-2.72-2.98-12.17-3.78-13.56-2.17-3.75-6.48-7.93-11.46-7.36Z"/>
        <path d="M1066.25,330.85c.34.29.7.6.86.82,1.08,1.52,2.09,3.28,3.16,5.14,3.14,5.46,6.88,11.94,13.32,11.94,1.89,0,4.02-.56,6.44-1.87,2.17-1.18,10.36-8.65,10.89-11.25,1.11-5.37-5.11-8.89-8.55-10.01-4.48-1.45-9.31-1.33-13.98-1.21-1.6.04-3.25.09-4.83.06-.53,0-1.23-.15-1.97-.3-1.99-.4-4.46-.89-6.08.72-.94.93-1.38,1.85-1.34,2.79.05,1.43,1.18,2.4,2.08,3.17ZM1072.04,329.8c1.85.03,3.76-.05,5.61-.13,2.79-.12,5.67-.24,8.24.03,2.03.21,7.46,1.56,8.91,3.64.28.4.36.78.26,1.19-.65,2.57-8.95,8.9-11.68,8.91h0c-2.87,0-6.54-5.95-9.21-10.29-.77-1.24-1.47-2.38-2.12-3.35Z"/>
        <path d="M985.19,407.54c-2.42.59-3.83,4.38-5.42,9.27-.42,1.29-.81,2.5-1.12,3.12-2.13,4.3-5.52,8.77-9.08,11.97-1.39,1.25-4.04,2.91-6.6,4.51-3.04,1.9-5.67,3.55-6.62,4.72-1.4,1.73-1.75,3.45-.97,4.72.62,1.01,1.85,1.55,3.43,1.55.53,0,1.09-.06,1.69-.18,2.6-.54,10.66-6.52,12.34-7.93,6.1-5.12,10.78-11.52,13.55-18.51,2.73-6.91,3.27-10.67,1.73-12.2-1.17-1.17-2.24-1.21-2.94-1.04Z"/>
        <path d="M870.36,367.11c-5.13.19-11.7,4.21-12.91,9.7l-.05.24.07.24c.48,1.74.81,3.73,1.13,5.65.81,4.9,1.65,9.96,5.19,11.9.97.54,2.09.8,3.35.8,1.69,0,3.66-.48,5.94-1.44,7.01-2.96,9.28-11.35,7.87-17.74-1.32-5.96-5.36-9.55-10.59-9.37ZM873.48,387.49c-.91.84-5.42,2.87-6.33,2.83-2.43-.25-3.05-6.25-3.43-9.84-.14-1.34-.26-2.52-.44-3.42,1.68-2.28,3.83-3.75,5.95-4.06,2.59-.38,4.47.61,5.59,2.95,1.69,3.53,1.02,9.36-1.34,11.55Z"/>
        <path d="M1087.31,361.72c.16,2.18,3.57,7.92,5.1,9.33,1.33,1.24,4.67,2.9,6.66,3.08.23.02.48.03.75.03,3.83,0,10.93-2.15,14.23-5.62,1.41-1.48,2.01-3.06,1.78-4.69-.36-2.55-7.63-11.79-9.66-13.11-3.06-1.98-7.89-1.58-12.31,1.04-4.3,2.55-6.81,6.36-6.54,9.93ZM1100.68,354.66c1.44-.18,2.06.13,3.31,1.24.77.7,5.51,7.29,6.18,8.58-.07.3-.39.61-.58.78-2.29,1.98-8.97,3.27-10.98,2.95-2.5-.4-5.65-5.28-5.41-7.64.23-2.36,5.05-5.6,7.48-5.92Z"/>
        <path d="M961.46,463.85c-2.62,1.05-6.75,3.75-7.38,6.92-.21,1.04-.12,2.59,1.44,4.12.71.69,1.68.97,2.78.97,3.52,0,8.3-2.83,9.55-4.08h0c1.77-1.77,2.09-4.28.79-6.25-1.1-1.66-3.63-3.09-7.18-1.68Z"/>
      </g>
    </g>
    <g style="clip-path: url(#f);">
      <path d="M181.87,1295.15c3.39-6.78,74.02-76.26,86.98-85.14s-3.13-20.74-3.13-20.74c0,0-13.55-31.34-5.93-50.82s31.88-50.84,31.88-50.84c0,0-5.62-22.85-.54-30.48l5.08-7.62s-11.01-48.28,14.4-69.46,56.38-57.03,56.99-53.5,21.67-3.61,21.67-3.61c0,0-1.58,8.83,3.5,8.83s71.15-19.48,83.01-43.2-9.32,32.19-9.32,32.19c0,0,37.27-5.08,22.87-.85s-5.93,22.87,15.25,16.94,68.61-16.09,41.51-5.93-13.89,27.63,2.37,18.48,54.38-27.79,67.08-65.06,15.47-49.9,15.47-49.9c0,0,18.41,19.41,11.64,43.97s-16.22,57.24-42.84,71.4-17.18,16.39-17.18,16.39l29.62-12.26s11.77,25.28-29.73,43.91l23.86,8.22s-17.93,24.82-21.32,24.82-34.24-5.58-34.24-5.58l27.47,30.15-21.57-.53,30.04,53.05-8.47,54.21-7.62,27.11,2.54,19.48-15.25,26.26-11.86,21.18,31.34,77.93s19.48,78.78-4.24,136.38l-391.34-175.34Z" style="fill: #fff;"/>
      <g>
        <path d="M644.53,845.41c-.81-3.44-3.21-11.62-7.94-13.26-1.97-.68-4.05-.18-6.17,1.5-3.23,2.57-7.08,13.68-11.4,26.86-1.26,3.85-2.36,7.18-3.12,9.11-16.41,41.2-39.01,64.6-69.01,71.4,10.99-11.13,16.95-22.76,19.18-37.3.2-1.28.17-2.63.14-4.06-.06-2.56-.11-5.2,1.26-7.2.15-.21.5-.39.87-.58.52-.26,1.1-.56,1.51-1.13l.65-.9c2.91-4.03,5.21-7.21,4.24-13.25-.7-4.33-4.2-5.57-6.08-6.24-.2-.07-.44-.16-.64-.24,1.97-5.27,3.5-20.12-.52-26.45-1.27-2-3.06-3.06-5.15-3.06h-.31l-5.58,3.9c-.11-1.07-.23-2.33-.35-3.72-1.35-14.63-3.2-30.53-8.16-34.04-1.16-.82-2.88-1.18-4.25-1.48-.56-.12-1.3-.27-1.58-.4-.29-.62-.71-2.83-.99-4.32-.31-1.64-.6-3.19-.91-4.16-1.34-4.08-6.27-17.44-13.72-17.79-3.77-.19-7.23,3.13-10.25,9.84-.04-.05-.1-.11-.14-.16-.11-.13-.24-.28-.39-.43-1.28-1.27-2.7-3.26-4.07-5.19-1.26-1.77-2.56-3.6-3.84-5.01-17.25-18.91-37.12-28.83-60.75-30.32-6.91-.43-18.18,1.43-20.44,6.8-.76,1.81-.49,3.78.79,5.88-.68-.45-1.38-.93-2.09-1.41-4.02-2.75-8.17-5.6-12.28-4.81-4.44.86-27.04,15.41-31,18.7-6.27,5.21-8.34,8.69-4.99,16.78,3.77,9.09,12.93,13.42,25.8,12.17,1.83-.18,4.04-.88,6.18-1.56,2.3-.73,4.67-1.5,6.11-1.41,3.07.17,9.64,2.7,15.44,4.94,3.31,1.28,6.44,2.48,8.64,3.14,2.76.82,5.76,1.53,8.93,2.28,10.44,2.46,22.28,5.25,28.34,13.31,10.27,13.64,9.43,28.75,6.92,39.02-3.2,13.1-10.96,25.83-21.29,34.92-12.82,11.29-41.89,23.14-63.6,30.11,2.4-2.77,5.04-7.12,4.26-10.23-.3-1.19-1.23-2.74-3.95-3.34-7.22-1.59-30.7,12.46-31.69,13.06-22.55,13.56-39.79,30.1-51.31,49.21-.45-3.97-1.54-6.11-3.38-6.66-2.4-.71-5.41,1.62-9.22,7.12-11.16,16.13-16.51,40.09-13.97,62.54.15,1.3.7,3.11,1.24,4.86.44,1.43.99,3.21.96,3.78-.03.4-.76,1.83-1.25,2.78-.64,1.25-1.3,2.55-1.58,3.52-2.91,9.96-3.54,18.38-2.05,27.23-12.48,13.47-22.69,30.32-30.36,50.09-.24.63-.57,1.42-.93,2.32-2.97,7.27-8.5,20.8-4.36,25.9,1.26,1.55,3.23,2.2,5.87,1.93.09,2.74-.16,5.4-.42,8.21-.23,2.49-.48,5.06-.45,7.67.04,3.57.67,14.58,1.87,18.23,1.44,4.34,3.59,4.59,6.99,4.56l2.91,10.55c-16.93,9.89-30.08,22.86-44,36.57-2.43,2.39-4.86,4.79-7.32,7.18-2.9,2.81-5.89,5.56-8.78,8.22-5.56,5.11-11.3,10.39-16.58,16.29-3.2,3.57-7.48,9.23-12.01,15.23-8.54,11.3-18.22,24.11-24.27,27.9-1.56.98-3.36,1.86-5.27,2.79-4.91,2.4-9.99,4.88-11.05,9.33-.63,2.64.25,5.59,2.68,9-1.25,1.46-2.92,2.78-4.68,4.18-4.35,3.45-9.27,7.36-7.25,13.93l.06.19.12.15c1.38,1.68,3.22,1.76,4.7,1.82.51.02.99.04,1.44.12.11.02.21.03.31.04-3.65,12.35-7.07,25.16-10.45,39.16-1.04,4.3-2.3,9.11-3.64,14.2-3.4,12.96-7.25,27.64-8.57,38.51-.62,5.11.44,8.92,2.77,9.95,1.99.88,4.38-.27,7.09-3.43l.17-.19.05-.25c3.39-15.79,6.77-31.25,10.86-46.76.81-3.08,2.41-8.21,4.27-14.15,5.24-16.8,12.43-39.82,11.3-46.52-.14-.81-.63-1.51-1.06-2.12-.1-.14-.23-.32-.33-.48,2.3-1.83,6.47-5.77,6.57-10.16.05-2.05-.78-3.91-2.47-5.54,1.11-1,4.5-2.96,6.63-4.18,1.97-1.13,3.66-2.11,4.46-2.74,1.77-1.39,3.62-3.33,5.25-5.05l.47-.49c9.75-10.2,19.24-21.17,28.41-31.78,18.66-21.58,37.96-43.91,60.8-61.3,5.2-3.96,11.77-8.34,13.64-8.86.51.93,1.01,1.87,1.51,2.81,4.71,8.78,9.16,17.07,14.14,16.5,3.3-.38,6.06-4.51,8.61-12.97,6.13,11.59,11.01,18.55,15.98,18.04,4.38-.46,8.01-6.72,11.75-20.29,3.29-11.91,4.89-21.75,5.01-30.72,1.11,1.08,2.41,2.58,3.75,4.14,4.02,4.66,8.57,9.95,13.01,10.11,1.59.06,3.05-.54,4.31-1.8,3.47-3.46,2.54-8.46,1.72-12.87-.27-1.43-.52-2.8-.64-4.09,5.96,5.44,13.63,10.56,22.34,7.87,3.51-1.08,6.28-3.59,8.96-6.02,1.4-1.26,2.71-2.46,4.11-3.44l.15-.11,5.29-7.95c1.24,13.96,3.6,24.74,7.37,33.76,1.83,4.37,4.33,10.36,8.85,11.9,1.91.65,3.99.44,6.21-.62,5.13,9.26,13.81,18.34,22.35,23.32,5.19,3.02,11.7,6.22,16,4.08,1.8-.89,2.99-2.61,3.55-5.12,8.31,4.38,17.95,9.21,27.56,12.64.49.18,1.05.38,1.65.6,6.73,2.47,17.98,6.6,23.25,2.8,1.58-1.14,2.47-2.87,2.67-5.16,10.85,3.41,20.75,5.92,30.73,3.77,3.17,10.43,6.87,21.12,11.02,31.77,2.51,6.43,4.96,12.16,7.33,17.7,6.36,14.84,11.85,27.66,15.08,46.55,6.56,38.43,5.12,71.29-4.69,106.54-.57,2.05-1.5,4.38-2.5,6.85-1.56,3.88-3.16,7.89-3.47,11.16-.13,1.45.05,2.62.23,3.74.21,1.32.41,2.56.07,4.26-.73,3.68-2.55,6.62-4.47,9.74-2.34,3.79-4.76,7.71-5.63,13.41-.04.24-.27.62-.48.96-.32.51-.68,1.09-.75,1.76-.17,1.65.46,3.07,1.75,3.87.72.45,1.57.68,2.46.68,1.04,0,2.12-.3,3.11-.91,1.92-1.17,9.21-12.92,10.02-14.41,2.16-3.98,5.77-11.46,5.81-16.91,0-1.12-.2-2.08-.4-3.01-.29-1.36-.57-2.65-.21-4.52.56-2.94,2.27-6.95,3.93-10.83,1.26-2.96,2.57-6.03,3.36-8.61,10.88-35.58,10.8-87.91-.18-124.43-4.72-15.7-11.15-30.99-17.38-45.79-4.56-10.85-9.28-22.06-13.28-33.33.55-.61,1.21-1.08,1.91-1.57,1.18-.84,2.52-1.79,3.37-3.54,1.17-2.4,2.17-6.26,3.34-10.74,2.2-8.42,4.93-18.91,9.55-21.32.76-.4,1.71-.6,2.72-.82,1.63-.36,3.49-.76,4.97-2.12,4.82-4.42,2.08-11.37-.58-18.09-1.94-4.9-3.94-9.97-2.73-13.57l.04-.19c.1-.78.56-1.06,1.76-1.62.72-.34,1.54-.72,2.24-1.4,3.8-3.72,5.39-14.43,5.49-20.1,3.43.14,5.6-1.68,6.27-5.32l.02-.12v-.12c-.91-14.48-2.3-26.4-4.36-37.33,2.49,1.03,5.24,1.8,8.06-.64l.19-.22c1.8-2.82.43-6.42-.67-9.3-.17-.45-.34-.89-.49-1.3-5.26-14.9-13.99-30.47-21.69-44.21l-.85-1.52c1.09.17,2.39.64,3.66,1.1,3.53,1.27,7.91,2.85,9.98-1.4,3.17-6.51-5.53-15.83-11.89-22.64-1.44-1.55-2.71-2.9-3.59-3.98,10.71,3.95,20.13-2.31,27.28-8.41,6.24-5.32,13.56-12.77,12.94-18.01-.21-1.75-1.23-3.11-3.05-4.04-2.63-1.34-6.72-1.72-11.06-2.12-3.55-.33-7.2-.66-10-1.54,14.05-6.49,23.22-14.26,28.77-24.35,2.32-4.22,8.1-17.4,4.34-22.47-1.35-1.82-3.65-2.4-6.84-1.73-2.02.43-5.53,2.33-9.23,4.35-3.05,1.66-6.21,3.38-8.45,4.21l-.21.08c-2.15.8-5.02,1.86-7.68,2.65,3.95-1.89,7.83-4.41,10.43-6.59l.46-.38c1.85-1.53,4.8-3.95,3.9-6.81,17.37-4.66,31.23-19.98,39.13-43.32,6.69-19.76,8.3-43.99,4.12-61.74ZM574.25,946.56c-4.17.39-8.49.79-12,1.64-1.55.37-5.23,1.5-6.03,3.94-.26.79-.32,2.04.89,3.48,1.41,1.79,4.96,1.73,8.48,1.52l.72-.04c4.17-.21,8.42-1.01,12.52-1.79,2.83-.53,5.72-1.08,8.58-1.43-3.44,2.1-7.11,3.66-10.65,5.05-2.34.92-6.55,2.04-11.02,3.23-7.72,2.06-15.7,4.19-17.96,6.2-.87.77-1.64,1.83-2.22,3.05l-.09.19v.21c-.08,2.36,1.69,4.56,4.02,5.02,3.99.78,15.7.27,19.91-.07,10.12-.82,22.13-4.4,30-7.48,2.75-1.08,5.42-2.4,8.01-3.68.95-.47,1.91-.94,2.88-1.41-2.1,8.39-8.83,17.26-17.97,23.54-9.16,6.3-19.04,8.98-27.1,7.34-.67-.14-1.86-.67-3.12-1.24-3.13-1.4-7.03-3.15-9.46-1.96-.95.46-1.57,1.3-1.86,2.48l-.02.12c-.2,1.81.37,3.34,1.61,4.33,1.32,1.05,7.22,3.32,12.83,5.4l.69.26c9.13,3.41,21.01,7.34,32.76,7.91-.04.04-.08.08-.14.12-.19.18-.43.4-.65.68-3.28,4.28-13.71,13.47-18.56,14.46-2.27.46-4.1-.04-6.22-.63-.47-.13-.94-.26-1.43-.38-1.64-.42-4.35-1.56-6.97-2.67-3.9-1.65-7.59-3.21-9.48-3.23-2.09-.04-5.05,2.05-5.37,4.41-.64,4.68,5.86,11.25,11.6,17.04,2.04,2.06,3.99,4.03,5.24,5.57-.22-.08-.44-.17-.62-.24-1.01-.39-2.06-.8-2.97-.74-2.17.14-4.62,1.54-6.09,3.49-1.15,1.52-1.6,3.24-1.25,4.84l.07.2c2.77,6.13,6.12,12.12,9.36,17.92,4.77,8.53,9.69,17.35,12.8,26.66-1.66.43-2.92,1.29-3.75,2.56-2.43,3.72-.62,9.98.98,15.5.53,1.81,1.02,3.52,1.28,4.89.68,3.62,1.19,7.35,1.69,10.95.25,1.81.49,3.61.76,5.42-1.7.13-2.95.65-3.8,1.58-1.58,1.73-1.28,4.32-1,6.82.1.88.19,1.71.21,2.48v.69c.22,13.22-.8,17.05-1.69,17.94-.17.17-.51.26-.9.36-.6.15-1.35.35-1.93.99-.2.22-4.05,5.73-4.27,6.26-3.49,8.24,0,22.76,2.9,30.93-3.7.56-6.8,2.5-8.82,5.57l-.12.26c-1.24,4.13-2.78,8.25-4.27,12.23-1.07,2.85-2.17,5.8-3.16,8.74-.38,1.14-.77,2.76-1.17,4.46-.86,3.62-2.04,8.57-3.55,9.8-5.42,4.44-17.02,2.9-21.76,2.03-3.05-.56-7.87-2.34-12.52-4.06-6-2.22-11.67-4.31-14.64-4.31-.06,0-.12,0-.18,0-2.36.07-4.43,1.58-5.41,3.94-.66,1.6-.7,3.33-.18,4.85-7.75-2.18-15.15-5.83-22.34-9.38-4.09-2.02-8.33-4.11-12.57-5.9-.5-.21-1.02-.44-1.57-.68-4.24-1.86-9.52-4.17-13.45-2.43-1.43.63-2.54,1.75-3.31,3.33-5.73-4.6-12.01-10.14-16.34-17.61-.62-1.08-1.21-2.48-1.84-3.96-1.67-3.95-3.4-8.04-6.66-8.71-1.74-.36-3.58.34-5.62,2.12-1.35-2.13-3.57-11.46-4.64-17.66-1.2-6.97-2.49-14.9-2.59-20.93-.03-1.78.21-3.68.45-5.52.29-2.29.57-4.46.36-6.44-.71-6.56-.6-8.13-.24-13.34.06-.9.13-1.91.21-3.07.14-2.21.08-4.46.03-6.64-.05-1.85-.1-3.77-.02-5.62l.02-.43-.3-.31c-.39-.4-.91-.59-1.49-.55-2.43.17-5.85,4.62-5.89,4.67-2.65,3.61-3.34,9.38-4,14.95-.32,2.66-.62,5.17-1.11,7.33-2.24,9.78-8.78,26.84-16.83,30.97-1.96,1.01-3.9,1.14-5.94.39-5.48-1.99-10.52-10.03-13.41-16.89-3.51-8.33-3.42-12.5-1.11-20.85.53.23.99.67,1.6,1.28.6.6,1.28,1.28,2.2,1.76,7.2,3.73,16.41,1.26,21.44-5.74.79-1.09,1.35-2.3,1.89-3.47.55-1.18,1.07-2.3,1.72-3.04,2.43-2.76,6.37-5.47,10.54-8.35,5.29-3.64,10.76-7.41,14.42-12.03,2.11-2.66,7.18-11.06,4.89-14.64-.97-1.52-2.92-1.93-5.8-1.23l-.43.11-.21.39c-.79,1.47-1.3,3.06-1.8,4.59-.48,1.5-.94,2.92-1.63,4.22-4.61,8.61-25.17,20.2-35.11,21.26-2.98.32-5.71-.03-8.13-.33-6-.76-11.18-1.42-14.92,8.8-4.9,13.37-4.45,29.03-3.95,42.96-16.55-24.29-26.07-48.56-28.3-72.18-.98-10.38-.28-33.7,5.8-43.17,7.83-12.19,29.37-17.63,41.92-10.6,1.22.68,5.63,5.51,8.85,9.04,2.15,2.36,4.19,4.59,5.32,5.67,1.1,1.05,2.39,1.93,3.64,2.78,1.14.78,2.21,1.51,3.12,2.34,10.77,9.82,13.14,21.38,13.47,36.85v.25s.12.21.12.21c.41.74,1.07,1.14,1.83,1.09,2.51-.15,5.29-5.38,5.52-5.97,3.89-9.69-1.1-24.16-7.77-32.84-3.97-5.17-8.9-9.08-13.67-12.85-3.14-2.48-6.38-5.05-9.22-7.9-1.51-1.52-2.85-3.34-4.14-5.11-1.93-2.64-3.93-5.36-6.63-7.28l-.26-.18h-15.14c.39-.85.57-1.9.53-3.09-.1-3.07-1.77-7.25-3.84-8.26-2.82-1.36-4.29-.66-5.04.17-2.03,2.26-.34,7.73,1.18,10.15.29.47.61.81.93,1.07-.02,0-.03,0-.05,0-.91.06-1.76.12-2.5.02-2.12-.29-4.57-3.26-6.73-5.87-2.45-2.97-4.77-5.77-7.26-5.9-1.02-.05-1.96.33-2.8,1.15-2.93,2.86.85,7.32,3.61,10.57.72.84,1.64,1.93,2.06,2.61-2.39.69-4.55,2.16-6.03,3.25-.61.45-1.33,1.2-2.1,1.98-.9.92-2.99,3.08-3.66,2.99-21.53-14.88-12.41-43.58-3.23-64.38,2.78,1.98,4.79,2.67,8.19-.38l.15-.18c2.24-3.24,4.32-6.66,6.33-9.96,3.32-5.46,6.76-11.1,10.98-16.04,12.53-14.67,29.97-27.57,53.25-39.39-.22.28-.49.58-.79.91-.84.92-1.79,1.97-2.24,3.37-.8,2.5-.57,4.46.7,5.82,3.47,3.72,13.77,1.2,19.31-.15.69-.17,1.29-.32,1.76-.42,23.02-5.13,46.71-16.71,63.38-30.97,20.85-17.85,30.64-39.12,28.3-61.52-3.52-33.74-36.01-42.67-62.11-49.84l-2.62-.72c2.46-.65,4.91-1.33,7.31-2,21.51-5.99,41.82-11.65,57.16,9.83,7.3,10.22,13.78,23.9,11.83,54.56-.12,1.83-.83,5.3-1.52,8.65-1.12,5.46-1.79,8.88-1.53,10.33.44,2.55,2.04,4.29,4.17,4.54,2.47.3,4.87-1.39,6.13-4.3,5.92-13.65,4.15-49.62-1.52-63.7-7.35-18.27-16.89-28.81-30.03-33.18-11.28-3.75-24.88-3.07-45.47,2.28-5.83,1.51-11.63,3.76-17.24,5.93-6.04,2.34-11.75,4.55-17.49,5.93-9.32,2.24-15.34,1.09-18.39-3.51-2.18-3.27-2.06-3.38.91-6.06,4.4-3.97,11.08-7.39,17.53-10.69,4.2-2.15,8.18-4.19,11.53-6.35,1.49.04,5.23,2.73,7.51,4.36,1.39,1,2.6,1.86,3.49,2.36,4.28,2.38,14.66,7.67,18.63,5.28,1.18-.71,1.86-1.66,2.02-2.83.43-3.11-3.06-6.81-6.13-10.07-1.33-1.41-3.16-3.35-3.26-4-.02-.1,0-.15.05-.21.46-.62,2.53-.93,3.42-1.06.12-.02.24-.04.35-.05,1.16.75,2.41,2.84,3.62,4.87,1.82,3.04,3.7,6.18,6.25,6.81,1.05.26,2.12.07,3.17-.57.93-.57,1.52-1.4,1.71-2.39.49-2.6-1.86-5.85-3.43-7.93,11.52,1.27,21.12,4.38,28.54,9.25,20.68,13.58,34.21,35.24,38.1,60.99,3.66,24.28-1.67,50.43-14.62,71.76-.86,1.41-2.83,3.89-4.91,6.51-5.01,6.31-8.29,10.59-8.27,12.67.03,2.49,1.27,3.43,2.02,3.77,1.87.86,4.34-.14,5.96-1.51,12.34-10.43,19.57-27.88,23.45-40.69,4.77-15.72,7.1-33.3,6.22-47.02-.34-5.36-2.24-12.31-4.08-19.02-2.1-7.65-4.27-15.57-3.71-20.04.28-2.23,1.66-6,3.11-6.6.23-.1.57-.15,1.12.28,2.67,2.09,3.84,7.98,4.88,13.17.76,3.83,1.49,7.45,2.78,9.5,1.62,2.57,4.04,2.68,5.81,2.75.81.03,1.58.07,1.92.27,1.55,1.72,4.79,23.45,5.1,28.55.09,1.54,0,4.5-.08,7.63-.22,7.79-.31,13.44.58,15.26.5,1.03,1.44,1.76,2.65,2.06,1.48.37,3.22.04,4.44-.85,1.47-1.07,2.39-3.7,3.46-6.75.7-2.01,1.47-4.2,2.37-5.74.01.4.02.8.04,1.19.05,1.47.1,2.98-.03,4.41-.25,2.75-1.73,12.23-2.49,14.65-.3.97-1.6,2.05-2.84,3.1-2.47,2.06-5.54,4.63-3.65,8.47.56,1.14,1.34,1.8,2.3,1.96,2.11.35,4.29-1.83,6.81-4.34,1.74-1.74,3.83-3.83,5.34-4.19-.38,1.97-2.46,3.84-4.32,5.52-1.38,1.24-2.57,2.31-3.04,3.4-.41.96-.43,1.9-.46,2.73-.01.56-.03,1.08-.16,1.51-.69,2.16-9.7,8.72-16.93,13.99-7.32,5.33-14.24,10.37-16.32,13.17l-.26.35.87,4.77.25.23c.82.74,1.84,1.07,3.1.99,3.2-.2,9.47-5.37,18.68-13.23,3.58-3.06,7.01-5.99,9.45-7.75-3.28,13.5-12.46,30.23-28.69,36.18-8.14,2.99-20.6,4.22-33.33,3.31-2.56-.18-6.34-.89-10.34-1.65-9.37-1.76-19.99-3.76-24.85-1.3-1.59.8-3.29,2.45-3.26,4.18.01.78.37,1.87,2.01,2.64,1.04.49,4.11.7,9.05,1,2.61.16,5.08.31,6.38.51,4.89.75,9.24,1.5,13.45,2.23,21.7,3.75,34.8,6.01,61.1-2.1,42.16-13,60.15-39.25,75.51-77.4,1.56-3.87,2.95-8.34,4.3-12.67,1.75-5.6,3.56-11.39,5.73-15.93.07-.15.14-.31.21-.47.1-.22.18-.41.27-.58,7.58,30.67-1.38,67.82-14.78,83.73-11.25,13.36-20.09,15.48-36.02,18.36-2.99.54-6.43.86-9.75,1.17ZM296.01,1061.08c-.31,1.89-.63,3.85-.56,6.05.04,1.12.45,2.95.93,5.08.53,2.35,1.61,7.13,1.17,8.24l-1.21.17c-2.4-6.87-2.65-13.43-.79-20.57l.93-2.35c-.1,1.14-.28,2.23-.47,3.38ZM267.4,1172.17c-.08-2.85-.15-5.79,0-8.65.06-1.25.36-2.93.68-4.7.89-5.03,1.9-10.74-.68-13.76-.88-1.03-2.1-1.65-3.65-1.85,4.5-17.46,13.79-35.31,28.37-54.51l4.69.92c-6.13,24.38,1.79,45.83,10.44,65.73.89,2.05,3.12,6.28,5.49,10.75,3.3,6.24,7.81,14.78,8.04,16.46.32,2.3.03,8.11-.84,16.38-1.31,12.5-4.96,24.71-8.42,35.08-.21-.08-.41-.31-.75-.76-.15-.19-.3-.38-.46-.57-1.35-1.53-3.02-4.9-4.63-8.15-3.05-6.15-5.06-9.94-7.27-10.68-.92-.31-1.81-.47-2.64-.47-1.08,0-2.08.26-3,.77-3.23,1.81-4.67,6.44-5.58,10.19-2.11-3.54-6.51-14.22-7.38-16.73-.46-1.33-1.21-4.29-2.07-7.7-3.31-13.1-5.1-19.09-6.92-19.96-1.13-.53-2.3-.53-3.35-.5.07-2.44,0-4.91-.06-7.3Z"/>
        <g>
          <path d="M285.15,1278.62c.93-.28,2.01-.32,2.96-.16,2.24.38,12.35,13.88,14.19,16.67,29.79,45.32,17.02,98.99-11.21,141.13-9.41,14.05-32,44.21-44.84,53.93-2.47,1.87-7.4,5.03-9.49.8s5.64-7.91,8.35-10.64c20.65-20.86,53.21-72.06,58.99-100.61,5.24-25.89-.26-61.11-13.34-84.14-1.79-3.15-12.48-14.91-5.61-16.99Z"/>
          <path d="M286.98,1279.36c-.53,0-1.06.07-1.53.21h0c-1.06.32-1.34.83-1.46,1.19-.86,2.57,3.39,8.37,5.67,11.49.89,1.22,1.59,2.18,1.98,2.86,13.08,23.02,18.73,58.7,13.45,84.83-6.08,30.07-39.62,81.28-59.25,101.12-.77.77-1.87,1.58-3.03,2.44-3.58,2.63-6.23,4.82-5.13,7.06.41.83.94,1.31,1.64,1.47,1,.24,2.91-.03,6.35-2.63,13.12-9.93,36.13-41.02,44.61-53.69,15-22.39,24.41-46.23,27.2-68.94,3.22-26.13-2.17-50.05-16-71.08-2.64-4.01-11.74-15.69-13.54-16.24-.31-.05-.63-.08-.95-.08Z"/>
        </g>
        <g>
          <path d="M551.46,1331.59c.83.87,1.53,6.44,1.76,8.12,2.66,20.02.48,40.46,2.39,60.43,10.02-6.15,8.93,9.12,8.71,15.44-.63,18.58-4.97,38.58-11.08,56.08-1.8,5.17-12.38,31.39-15.53,33.49s-5.37-.44-4.87-4.07c.58-4.18,7.58-16.07,9.69-21.16,9.34-22.56,14.68-46.52,14.64-71.08-5.5,2.11-7.73-.82-8.62-5.99-2.53-14.65-.38-33.68-.82-48.95-.11-3.86-2.92-20.82-.28-22.55,1.13-.67,3.09-.7,4.01.25Z"/>
          <path d="M535.57,1506.89c-.64,0-1.25-.17-1.8-.51-1.51-.95-2.25-3.04-1.91-5.45.39-2.83,3.3-8.48,6.1-13.94,1.49-2.91,2.9-5.65,3.65-7.46,9.51-22.97,14.41-46.29,14.56-69.32-1.95.51-3.61.39-4.95-.37-1.85-1.05-3.04-3.29-3.65-6.83-1.65-9.58-1.33-20.95-1.02-31.94.17-6.07.33-11.79.18-17.16-.03-.92-.23-2.73-.46-4.82-1.24-11.25-1.48-17.22.63-18.6,1.53-.91,3.99-.95,5.28.4h0c.73.77,1.29,3.14,1.99,8.45l.03.23c1.45,10.92,1.47,22.11,1.49,32.93.02,8.57.03,17.41.77,26.02,2.15-1.01,3.97-1.09,5.43-.24,3.69,2.16,3.73,9.25,3.46,16.32l-.04,1c-.59,17.5-4.55,37.52-11.13,56.37-1.28,3.68-12.26,31.55-15.92,33.99-.91.61-1.84.92-2.7.92ZM558.17,1407.38v1.45c.04,23.75-4.91,47.79-14.71,71.47-.78,1.89-2.21,4.67-3.72,7.61-2.47,4.82-5.55,10.81-5.9,13.31-.22,1.57.18,2.97.99,3.47.76.47,1.68.06,2.33-.37,2.71-1.81,12.96-26.75,15.14-32.99,6.52-18.67,10.44-38.48,11.02-55.78l.04-1.01c.16-4.15.49-12.79-2.48-14.52-1.08-.63-2.68-.3-4.75.97l-1.37.84-.15-1.6c-.88-9.19-.89-18.61-.91-27.72-.02-10.76-.04-21.88-1.48-32.67l-.03-.24c-.75-5.64-1.24-7.02-1.47-7.34-.52-.53-1.93-.56-2.76-.07-1.42,1.04-.17,12.4.3,16.68.24,2.22.44,3.98.47,4.98.16,5.42,0,11.18-.18,17.27-.31,10.89-.63,22.16.99,31.54.5,2.92,1.38,4.69,2.67,5.43,1.11.63,2.61.56,4.61-.2l1.35-.52Z"/>
        </g>
        <g>
          <path d="M342.22,1350.25c3.43-2.54,7.34-4.51,11.08-1.21,12.29,15.59,22.13,33.76,36.59,47.55,1.46,1.39,10.33,9.42,11.57,8.17l-8.75-39.11c0-2.43,1.87-4.12,4.25-3.44,1.62.66,2.13,2.14,2.72,3.66,2.75,6.97,6.5,23.87,7.87,31.63,3.34,18.86-6.61,18.12-18.35,8.08-15.57-13.31-28.04-33.42-39.22-50.45-2.38-1.4-5.4,3.95-10.73,1.63-4.18-1.81-6.31-12.37-7.08-16.62-1.26-6.97-2.45-17.23-2.67-24.26-.12-3.78,2.24-8.24,5.61-4.76,2.2,2.27,2.61,33.6,7.1,39.13Z"/>
          <path d="M349.11,1353.89c.46,0,.92.11,1.37.38l.2.12.13.19c.98,1.49,1.97,3.01,2.97,4.54,10.3,15.77,21.96,33.65,36.07,45.7,6.45,5.52,12,7.84,14.83,6.23,2.49-1.43,3.17-6.18,1.89-13.38-1.33-7.54-5.09-24.5-7.82-31.44l-.09-.22c-.57-1.47-.98-2.4-2.03-2.85-.75-.2-1.43-.09-1.96.31-.59.44-.93,1.2-.96,2.08l8.85,39.54-.39.39c-1.88,1.88-8.93-4.31-12.97-8.16-9.38-8.95-16.92-19.85-24.2-30.38-3.98-5.75-8.09-11.69-12.42-17.2-2.62-2.26-5.46-1.87-9.76,1.32l-.77.57-.6-.74c-2.82-3.47-4.03-15.32-5.09-25.77-.56-5.52-1.26-12.39-1.96-13.3-.77-.8-1.45-1.09-2-.86-1.09.46-1.95,2.71-1.88,4.91.21,6.59,1.32,16.73,2.65,24.11,2.22,12.33,5.02,15.24,6.49,15.88,2.66,1.15,4.57.13,6.42-.87,1-.54,2.03-1.09,3.05-1.09Z"/>
        </g>
        <g>
          <path d="M423.85,1386.57c1.43-1.46,3.67-.72,4.89.64,2.75,3.04,6,10.18,8.82,14.09,3.12,4.34,10.87,15.09,16.49,15.13,3.82.03,6.84-3.55,11.51-2.05,3.15,1.01,7.47,8.59,11.07,11.06,12.72,8.72,29.71-5.46,38.28-14.55,2.82-2.99,10.5-14.23,13.04-15.42s4.9.38,4.74,3.1c-.31,5.14-20.43,24.89-25.37,28.44-10.87,7.8-23.96,12.4-35.74,3.49-3.65-2.76-5.33-6.56-8.94-9.22-12.12,6.14-20.11-1.82-27.01-10.92-2.21-2.91-12.56-18.74-12.69-21.2-.04-.74.38-2.03.9-2.56Z"/>
          <path d="M462.74,1420.09l.5.37c1.92,1.42,3.32,3.13,4.67,4.78,1.32,1.62,2.57,3.15,4.28,4.45,9.59,7.25,21.22,6.07,34.56-3.5,5.47-3.93,24.68-23.27,24.95-27.69.05-.9-.27-1.65-.89-2.07-.66-.45-1.55-.47-2.43-.06-1.4.65-5.3,5.75-8.15,9.48-1.89,2.47-3.52,4.6-4.58,5.73-21.62,22.92-34.88,17.91-39.57,14.69-1.75-1.2-3.58-3.43-5.35-5.59-1.88-2.29-4.01-4.88-5.46-5.34-2.43-.78-4.36.02-6.4.86-1.49.61-3.03,1.25-4.76,1.25h-.05c-6.14-.04-13.96-10.91-17.3-15.55-1.25-1.74-2.59-4.11-3.89-6.4-1.66-2.93-3.37-5.96-4.86-7.6-.6-.66-1.46-1.09-2.21-1.11-.48-.02-.89.15-1.23.5h0c-.3.31-.65,1.31-.62,1.81.12,1.96,9.74,17.03,12.49,20.65,7.79,10.27,15.15,16.01,25.76,10.63l.55-.28Z"/>
        </g>
        <g>
          <path d="M437.87,1358.31c3.3-15.96,10.39,1.97,15.43,6.3,7,6.01,13.91,6.56,22.66,4.53,4.91-1.14,14.33-6.67,17.68-6.89,4.04-.26,5.05,4.76.88,7.27-11.9,7.16-30.57,11.34-42.68,2.86-2.02-1.42-7.91-8.23-8.95-8.43-.81-.15-3.21,1.53-5.41,1.54-12.35.07-27.16-32.04-28.03-42.44-.37-4.45,4.12-6.04,6.13-2.1,1.71,3.36,2.99,9.95,4.77,14.19,3.4,8.08,9.08,19.71,17.52,23.17Z"/>
          <path d="M442.78,1362.95c.1,0,.2,0,.3.03.76.14,1.75,1.07,5.01,4.43,1.62,1.67,3.46,3.56,4.33,4.17,8.19,5.73,24.69,7.27,41.59-2.9,1.95-1.17,2.45-2.86,2.09-4.01-.31-.98-1.17-1.5-2.39-1.41-1.56.1-5.01,1.68-8.34,3.21-3.31,1.52-6.73,3.09-9.18,3.66-10.07,2.34-16.89.97-23.54-4.74-1.47-1.26-3-3.46-4.63-5.79-2.08-2.98-4.93-7.09-6.53-6.74-.46.09-1.65.84-2.65,5.68l-.24,1.18-1.12-.46c-8.74-3.59-14.49-15.25-18.06-23.71-.85-2.03-1.59-4.55-2.29-6.98-.81-2.79-1.58-5.42-2.45-7.14-.66-1.29-1.67-1.91-2.65-1.63-.91.26-1.75,1.35-1.6,3.2.88,10.42,15.7,41.53,26.99,41.53h.04c1.07,0,2.3-.52,3.28-.94.83-.35,1.46-.61,2.02-.61Z"/>
        </g>
        <g>
          <path d="M508.18,1308.49c-2.1-1.48-6.44,21.67-13.46,17.02-.91-.64-.77-1.26-.62-2.22.32-2.09,4.85-12.76,6.05-15.34s3.75-9.04,7.49-8.06c2.25.58,7.14,12.13,11.53,6.54,5.16-6.57,3.46-25.75,7.92-31.44,3.02-3.86,3.31,4.09,3.12,6.15-.6,6.56-5.01,28.1-9.9,31.97-5.03,3.99-10.04.44-12.14-4.62Z"/>
          <path d="M506.9,1300.79c-2.4,0-4.48,4.57-5.51,6.84l-.34.74c-1.34,2.87-5.69,13.21-5.97,15.06l-.02.12c-.13.87-.12.88.23,1.13.64.42,1.23.54,1.85.34,2.75-.86,5.3-7.28,6.99-11.52,1.61-4.04,2.31-5.7,3.44-6.04.4-.12.82-.05,1.17.19l.24.17.11.27c1.18,2.85,3.28,4.98,5.49,5.55,1.71.44,3.42,0,5.1-1.34,4.32-3.42,8.85-23.9,9.52-31.28.18-1.99-.17-5.35-.73-6.05-.11.07-.31.24-.61.61-1.98,2.52-2.7,8.46-3.41,14.21-.82,6.69-1.67,13.61-4.51,17.24-.99,1.26-2.13,1.91-3.37,1.91h-.02c-2.69-.02-5.03-3.08-6.92-5.54-.78-1.01-1.84-2.4-2.26-2.55-.16-.04-.32-.06-.48-.06Z"/>
        </g>
        <g>
          <path d="M237.02,1377.4c1.72,1.71-1.93,9.15-2.85,11.42-2.14,5.3-9.15,23.55-16.17,21.46-2.42-.72-2.73-6.05-4.5-4.61-2.3,5.77-11.18,13.83-17.56,13.26-3.58-.32-12-5.04-6.43-6.86,3.65-1.19,5.85,3.51,12.09-.52s12.19-21.71,18.6-7.47c1.63-.85,6.98-12.23,8.19-14.72,1.3-2.68,4.73-15.84,8.63-11.96Z"/>
          <path d="M196.57,1419.97c-.24,0-.48,0-.72-.03-2.9-.26-8.86-3.09-9.18-5.91-.08-.74.13-2.11,2.53-2.89,1.73-.57,3.16-.06,4.54.42,2.01.71,3.9,1.37,7.31-.83,1.74-1.12,3.58-3.55,5.35-5.9,2.93-3.88,5.69-7.54,8.98-7.17,1.87.21,3.54,1.75,5.08,4.68.95-1.38,2.85-4.72,6.64-12.6l.39-.81c.24-.49.58-1.44.98-2.54,1.9-5.25,3.83-10.02,6.52-10.62.67-.15,1.69-.11,2.74.94h0c1.81,1.8.04,6.36-2.1,11.27-.22.5-.4.92-.53,1.24l-.29.73c-4.42,10.98-10.35,23.33-17.09,21.32-1.58-.47-2.39-2.14-3.03-3.48-.16-.32-.36-.75-.54-1.05-2.66,5.67-10.98,13.25-17.57,13.25ZM190.76,1412.88c-.31,0-.62.04-.94.15-.72.24-1.19.54-1.16.77.15,1.32,4.76,3.92,7.37,4.15,6.03.56,14.45-7.38,16.55-12.64l.1-.24.2-.16c.62-.5,1.19-.51,1.55-.43,1,.22,1.49,1.25,2.06,2.43.47.99,1.06,2.21,1.8,2.43,3.89,1.15,8.82-5.62,14.66-20.15l.29-.73c.13-.33.33-.77.55-1.29,2.9-6.66,2.97-8.6,2.52-9.05h0c-.5-.49-.78-.43-.89-.4-1.85.41-4.03,6.45-5.08,9.35-.43,1.2-.78,2.15-1.06,2.74l-.39.8c-5.36,11.15-7.17,13.81-8.24,14.37l-.94.49-.44-.97c-1.38-3.07-2.77-4.7-4.13-4.85-2.15-.27-4.7,3.13-7.16,6.39-1.88,2.48-3.82,5.05-5.86,6.37-4.24,2.74-6.91,1.79-9.06,1.04-.85-.3-1.58-.56-2.32-.56Z"/>
        </g>
        <g>
          <path d="M269.22,1344.84c.99-.29,2.18.31,2.8,1.11,2.5,3.25-1.34,26.33-2.82,31.28-.86,2.9-1.91,6.65-5.22,3.6-.68-.68-.69-1.41-.69-2.31.02-4.22,3.06-13.26,3.81-18.39.59-4.03.42-8.64.85-12.58.1-.94.18-2.39,1.26-2.72Z"/>
          <path d="M266.15,1382.97c-.89,0-1.83-.46-2.85-1.4-1.02-1.01-1.01-2.14-1.01-3.05.01-2.57,1.06-6.73,2.08-10.75.74-2.92,1.44-5.68,1.74-7.78.32-2.18.41-4.58.5-6.91.07-1.89.15-3.84.35-5.64l.02-.19c.1-1.01.3-2.88,1.94-3.37h0c1.47-.44,3.07.4,3.88,1.46,2.92,3.81-1.38,27.91-2.65,32.18l-.04.14c-.65,2.2-1.4,4.7-3.28,5.22-.22.06-.45.09-.68.09ZM269.5,1345.8h0c-.36.11-.47,1.12-.53,1.67l-.02.2c-.19,1.72-.26,3.56-.33,5.5-.09,2.38-.19,4.84-.52,7.12-.32,2.21-1.03,5.01-1.78,7.99-.99,3.9-2.01,7.94-2.02,10.26,0,.89.03,1.23.39,1.6.66.61,1.27.92,1.61.83.82-.23,1.47-2.41,1.9-3.86l.04-.14c1.74-5.85,4.97-27.79,2.98-30.39-.42-.55-1.23-.91-1.72-.76Z"/>
        </g>
        <g>
          <path d="M260.18,1360.71l3.53.67c1.65,2.35-1.84,22.35-3.98,24.55-1.22,1.26-3.71,1.23-4.28-.53l4.72-24.69Z"/>
          <path d="M257.58,1387.81c-.28,0-.57-.03-.84-.09-1.09-.25-1.91-.99-2.24-2.01l-.08-.24,4.96-25.92,4.91.93.23.33c2.05,2.92-1.81,23.48-4.08,25.82-.73.75-1.81,1.18-2.87,1.18ZM256.49,1385.29c.14.24.37.4.7.48.62.15,1.39-.08,1.82-.53,1.81-1.87,4.85-19.81,4-22.97l-2.04-.39-4.48,23.41Z"/>
        </g>
        <g>
          <path d="M478.96,1043.82c9.07,19.5-14.51,55.17-34.76,34.35-6.3-6.48-11.79-26.04-5.56-33.2,5.87-6.75,39.98-7.66,49.36-9.81l3.49,2.07c2.09,6.32-8.78,6.14-12.53,6.59ZM463.7,1044.75c-3.99,1.23-3.97,8.77,1.51,9.32,8.42.84,7.29-12.02-1.51-9.32ZM447.35,1048.55c-5.04-.55-4.26,6.24-3.97,9.91,1.11,14.15,13.4,26.53,24.52,12.23-12.78,1.71-21.1-10.35-20.55-22.13Z"/>
          <path d="M457.33,1085.47c-4.82,0-9.59-2.22-13.85-6.6-6.75-6.94-12.16-27.02-5.6-34.55,4.34-5,21.96-6.85,36.11-8.34,5.9-.62,10.99-1.16,13.78-1.79l.39-.09,4.16,2.47.12.35c.52,1.58.4,2.96-.37,4.12-1.93,2.9-7.49,3.33-11.16,3.62-.17.01-.34.03-.5.04,4.94,12.79-2.53,30.28-12.73,37.31-3.37,2.32-6.87,3.47-10.35,3.47ZM487.83,1036.22c-2.97.63-7.92,1.15-13.62,1.75-13.08,1.38-30.99,3.26-34.81,7.66-2.58,2.97-3.2,8.8-1.69,16,1.35,6.43,4.25,12.8,7.22,15.85,6.68,6.87,14.36,7.89,21.63,2.88,12.07-8.32,16.1-26.24,11.5-36.11l-.58-1.25,1.37-.17c.52-.06,1.18-.11,1.92-.17,3.09-.24,8.26-.64,9.65-2.73.36-.55.44-1.22.24-2.04l-2.81-1.67ZM457.43,1078.03c-.97,0-1.94-.14-2.9-.43-6.32-1.89-11.43-9.91-12.15-19.07l-.04-.48c-.25-3.1-.6-7.35,1.53-9.42.9-.87,2.11-1.24,3.59-1.08l.94.1-.04.94c-.3,6.51,2.24,13.07,6.63,17.1,3.55,3.26,7.97,4.63,12.78,3.99l2.42-.32-1.5,1.93c-3.44,4.42-7.35,6.74-11.26,6.74ZM446.33,1049.55c-.43.07-.78.24-1.06.51-1.45,1.41-1.12,5.43-.93,7.83l.04.49c.65,8.23,5.26,15.67,10.73,17.31,3.52,1.06,7.11-.27,10.49-3.84-4.5,0-8.56-1.56-11.96-4.68-4.58-4.2-7.33-10.88-7.31-17.62ZM465.97,1055.11c-.28,0-.57-.01-.87-.04-2.87-.29-4.91-2.35-5.2-5.25-.28-2.78,1.19-5.31,3.5-6.02h0c2.95-.91,5.56-.31,7.17,1.64,1.53,1.86,1.81,4.63.68,6.75-1.01,1.88-2.9,2.92-5.28,2.92ZM464,1045.71c-1.58.49-2.25,2.33-2.09,3.91.07.74.54,3.17,3.41,3.46,1.97.2,3.45-.45,4.18-1.83.75-1.4.56-3.31-.46-4.54-1.08-1.31-2.87-1.67-5.04-1h0Z"/>
        </g>
        <g>
          <path d="M490.63,1006.81c.67-.09,1.31-.26,1.99-.02l1.76,1.46.43,2.74c-.02,1.04-.61,1.37-1.32,1.91-3.07,2.4-15.25,6.38-19.65,8-8.87,3.27-20.19,7.34-29.3,9.41-5.98,1.36-12.41,3.89-16.5-2.35-1.88-2.88-4.94-14.45-.67-15.65,7.14-2,.96,13.04,10.08,12.54,7.07-.39,25.58-7.6,33.23-10.27,4.95-1.73,15.81-7.25,19.95-7.78Z"/>
          <path d="M435.46,1032.99c-3.09,0-6.01-1.03-8.26-4.47-1.71-2.61-3.99-10.83-2.51-14.77.59-1.58,1.63-2.17,2.4-2.39,1.31-.37,2.41-.27,3.26.29,1.58,1.03,1.89,3.3,2.22,5.7.58,4.19,1.19,6.71,4.81,6.52,5.65-.31,19.03-5.18,27.89-8.4,1.96-.71,3.69-1.34,5.07-1.82,1.79-.63,4.42-1.78,7.19-3,5.02-2.2,10.2-4.48,12.96-4.83l.34-.05c.59-.09,1.32-.21,2.11.08l.16.06,2.18,1.82.51,3.2v.09c-.02,1.41-.84,2.03-1.49,2.52l-.21.16c-2.62,2.05-11.12,5.04-16.74,7.02-1.26.44-2.36.83-3.18,1.13-9.5,3.5-20.39,7.4-29.43,9.45-.68.15-1.37.33-2.06.5-2.35.58-4.84,1.2-7.23,1.2ZM428.55,1013.14c-.26,0-.57.05-.91.15-.3.08-.75.3-1.07,1.16-1.19,3.16.84,10.74,2.31,12.97,3.22,4.93,8.13,3.71,13.34,2.43.7-.17,1.4-.35,2.1-.5,9.67-2.19,22.36-6.86,29.18-9.37.83-.31,1.94-.69,3.21-1.14,5.16-1.82,13.81-4.86,16.17-6.71l.23-.18c.56-.42.68-.54.7-.88l-.36-2.28-1.31-1.09c-.26-.05-.55-.01-.98.05-.13.02-.26.04-.4.06h0c-2.47.32-7.75,2.63-12.41,4.68-2.81,1.24-5.47,2.4-7.34,3.05-1.37.48-3.1,1.11-5.04,1.81-8.97,3.26-22.52,8.18-28.46,8.51-5.74.32-6.41-4.63-6.9-8.25-.25-1.85-.52-3.76-1.33-4.3-.18-.12-.42-.18-.71-.18Z"/>
        </g>
        <g>
          <path d="M523.19,1156.79c.87,2.79,2.06,5.32,2.37,8.3.18,1.77.59,13.87-2.75,13.03l-3.99-7.08-2.36-.04c.04,5.75,1.22,12.88-3.15,17.38-.73-.62-1.32-1.39-1.61-2.32-.53-1.69.22-16.55.78-18.26,1.22-3.72,5.58-3.73,8.34-1.53-.74-3.26-2.43-8.85,2.37-9.48Z"/>
          <path d="M513.39,1189.75l-.71-.61c-.95-.81-1.59-1.74-1.92-2.78-.62-1.95.18-17.02.78-18.87.57-1.74,1.8-2.97,3.46-3.47,1.34-.4,2.9-.29,4.35.26-.48-2.27-.78-4.88.44-6.66.7-1.02,1.8-1.63,3.27-1.82l.83-.11.25.8c.24.78.51,1.53.78,2.29.69,1.94,1.4,3.96,1.63,6.21.01.11.85,11.17-1.97,13.61-.57.5-1.29.67-2.01.48l-.42-.11-3.92-6.96h-.75c.02.61.04,1.24.07,1.88.2,5.2.43,11.1-3.51,15.16l-.65.67ZM516.73,1165.78c-.4,0-.79.05-1.15.16-1.05.31-1.76,1.04-2.13,2.17-.56,1.72-1.2,16.24-.78,17.65.13.4.33.78.62,1.14,2.64-3.42,2.46-8.24,2.28-12.91-.04-1.02-.08-2.02-.08-2.98v-1.03s3.95.07,3.95.07l3.93,6.98c1.35-1.42,1.52-8.94,1.22-11.83-.21-2.02-.85-3.83-1.53-5.75-.17-.49-.35-.98-.52-1.48-.48.17-.84.43-1.09.79-1.01,1.46-.31,4.41.2,6.57l.8,3.5-2.23-1.78c-1.03-.82-2.3-1.27-3.47-1.27Z"/>
        </g>
        <g>
          <path d="M544.54,1133.88c-1.94,2.29-5.48-9.64-5.74-10.46-1.57-4.97-4.19-14.24-3.78-19.21.62-7.57,4.01-2.13,5.59,1.6.93,2.2,3.93,11.61,3.93,13.45v14.62Z"/>
          <path d="M543.99,1135.17c-.11,0-.22-.01-.33-.03-.74-.15-2.46-.5-5.76-11.22l-.06-.19c-1.61-5.09-4.25-14.41-3.83-19.59.17-2.04.58-4.43,2.29-4.7,2.2-.34,4.21,3.61,5.21,6,.85,2.01,4.01,11.7,4.01,13.84v14.98l-.24.28c-.36.42-.82.65-1.31.65ZM536.65,1101.43c-.13.18-.48.84-.64,2.86-.41,5.03,2.48,14.84,3.74,18.83l.06.2c1.68,5.46,2.97,8.15,3.72,9.25v-13.31c0-1.59-2.93-10.88-3.86-13.06-1.19-2.82-2.47-4.51-3.03-4.77Z"/>
        </g>
        <g>
          <path d="M431.26,1072.34c4.61-1.22,5.62,4.85,8.21,8.18,2.24,2.88,8.42,6.61,7.91,10.24-1.22,8.58-12.87-5.57-14.57-8.31-1.18-1.9-5.11-8.91-1.54-10.11Z"/>
          <path d="M445.2,1094.49c-4.75,0-12.47-10.27-13.24-11.51-.96-1.54-3.99-6.79-2.93-9.73.32-.9.98-1.54,1.91-1.85l.06-.02c4.05-1.07,5.82,2.34,7.37,5.35.58,1.13,1.19,2.29,1.88,3.19.65.83,1.7,1.79,2.82,2.8,2.68,2.43,5.72,5.18,5.29,8.19-.36,2.54-1.59,3.32-2.56,3.52-.2.04-.4.06-.61.06ZM431.55,1073.3c-.34.12-.53.31-.64.62-.56,1.56,1.03,5.24,2.75,8,1.73,2.78,9.08,11.12,11.74,10.55.62-.13.88-1.08.99-1.85.28-1.97-2.34-4.34-4.65-6.43-1.18-1.07-2.3-2.08-3.06-3.05-.81-1.04-1.45-2.29-2.08-3.49-1.6-3.08-2.7-4.94-5.05-4.35Z"/>
        </g>
        <g>
          <path d="M450.65,1212.76c.51.41,2.26-.06,3.06.47l.64,9.39c-6.33,7.56-10.77-15.52-10.15-18.82.45-2.38,3.32-2.81,4.39-1.23.72,1.08,1.11,9.4,2.07,10.18Z"/>
          <path d="M451.82,1225.15c-.54,0-1.01-.14-1.42-.33-5.01-2.36-7.72-18.43-7.2-21.2.28-1.5,1.35-2.61,2.79-2.91,1.34-.28,2.68.24,3.4,1.31.42.62.62,1.92,1.02,4.96.21,1.59.55,4.19.87,4.96.18.02.46.02.66.02.75,0,1.63,0,2.31.45l.41.27.7,10.29-.26.31c-1.19,1.43-2.33,1.88-3.28,1.88ZM446.72,1202.64c-.11,0-.22.01-.32.03-.31.06-1.05.32-1.23,1.32-.47,2.51,2.34,17.25,6.09,19.02.27.13.94.44,2.05-.73l-.56-8.31c-.26-.02-.59-.03-.8-.02-.74,0-1.42,0-1.93-.41-.76-.62-1.05-2.31-1.58-6.3-.2-1.56-.48-3.69-.71-4.12-.24-.35-.65-.47-1.01-.47Z"/>
        </g>
        <g>
          <path d="M535.04,1168.64c-1.52-.27-1.31-1.65-1.61-2.72-1.45-5.15-4.12-17.28-4.52-22.36-.11-1.45.62-2.72.62-4.15,6.46,6.68,8.03,20.47,5.51,29.23Z"/>
          <path d="M535.76,1169.79l-.89-.16c-1.87-.34-2.12-1.87-2.26-2.78-.04-.22-.07-.45-.13-.66-1.51-5.36-4.15-17.46-4.55-22.55-.07-.94.14-1.8.33-2.55.15-.58.28-1.14.28-1.67v-2.47s1.72,1.78,1.72,1.78c5.35,5.54,9.07,18.66,5.75,30.2l-.25.87ZM530.16,1141.7c-.15.62-.29,1.21-.24,1.78.38,4.82,2.99,16.86,4.48,22.17.07.25.12.51.16.77,1.57-7.77.24-18.43-4.4-24.71Z"/>
        </g>
        <g>
          <path d="M456.47,1207.37c1.36-.41,2.38.57,3.09,1.62.86,1.27,5.36,14.88,5.06,15.97-1.1,4.02-3.72,1.43-5.06-.97-1.27-2.27-6.4-15.62-3.09-16.62Z"/>
          <path d="M462.87,1228.05c-2.02,0-3.7-2.71-4.18-3.58-.85-1.52-5.55-12.78-4-16.63.37-.93,1.01-1.29,1.48-1.44h0c1.07-.32,2.68-.24,4.21,2.02.7,1.04,5.66,15.13,5.2,16.8-.47,1.73-1.29,2.67-2.44,2.81-.09.01-.18.02-.27.02ZM457.09,1208.27c-.14,0-.25.03-.33.06h0s-.12.04-.21.27c-1.07,2.65,2.69,12.76,3.89,14.91.97,1.74,2.05,2.58,2.46,2.55.13-.02.45-.31.73-1.28-.05-1.76-4.17-14.12-4.91-15.22-.73-1.08-1.28-1.28-1.64-1.28ZM463.63,1224.81h0s0,0,0,0Z"/>
        </g>
        <g>
          <path d="M415.65,1093.69v4.52c-3.42,1.97-6.77-.39-10.42.14-4.31-7.1,5.83-7.16,10.42-4.67Z"/>
          <path d="M412.54,1100.01c-1.08,0-2.14-.19-3.18-.38-1.37-.25-2.67-.48-3.99-.29l-.66.1-.34-.57c-1.91-3.15-1.17-5.01-.21-6.02,2.47-2.59,8.84-1.74,11.97-.05l.52.28v5.69s-.51.29-.51.29c-1.22.71-2.42.94-3.6.94ZM406.39,1097.27c1.15,0,2.25.2,3.33.39,1.8.32,3.38.61,4.92-.07v-3.29c-2.9-1.33-7.55-1.62-9.03-.07-.61.64-.56,1.67.17,3.06.21-.01.41-.02.62-.02Z"/>
        </g>
        <g>
          <path d="M354.54,1061.2c2.34-.68,7.53,6.27,7.56,8.29.13,8.87-12.76-6.77-7.56-8.29Z"/>
          <path d="M360.66,1073.19c-3.08,0-7.6-5.88-8.26-9.24-.37-1.88.33-3.26,1.86-3.71h0c.88-.26,1.93.06,3.12.94,2.37,1.75,5.69,6.25,5.72,8.29.04,3.02-1.36,3.62-2.2,3.71-.08,0-.16.01-.24.01ZM354.89,1062.15s-.05,0-.07,0h0c-.24.07-.69.2-.45,1.4.65,3.32,4.96,7.8,6.32,7.63.22-.02.43-.61.41-1.69-.01-.98-2.49-4.92-4.91-6.71-.69-.51-1.12-.63-1.3-.63Z"/>
        </g>
        <g>
          <path d="M322.27,1066.05l2.27,1.47c1.04,2.01-4.6,10.2-7.12,9.46-3.62-1.06,2.06-10.73,4.86-10.94Z"/>
          <path d="M317.75,1078.04c-.21,0-.42-.03-.62-.09-.65-.19-2.12-.9-1.86-3.39.37-3.49,4.21-9.3,6.92-9.51l.34-.03,2.77,1.8.12.24c1.02,1.98-1.57,5.97-3.08,7.81-1.23,1.5-2.97,3.16-4.59,3.16ZM322.07,1067.12c-1.44.6-4.52,4.82-4.81,7.65-.12,1.1.27,1.21.43,1.26.19.05,1.06-.16,2.57-1.8,2.18-2.38,3.43-5.17,3.41-6.07l-1.6-1.04Z"/>
        </g>
        <g>
          <path d="M469.38,1215.37c1.19.72,3.15,7.52-.95,7.63s-3.91-10.56.95-7.63Z"/>
          <path d="M468.37,1224c-1.47,0-2.68-.99-3.33-2.72-.82-2.17-.66-5.38,1.02-6.78.6-.5,1.89-1.16,3.84.01h0c1.3.78,2.47,4.48,1.83,6.89-.42,1.61-1.62,2.55-3.27,2.59-.03,0-.06,0-.08,0ZM467.83,1215.86c-.28,0-.42.12-.49.18-.82.68-1.03,2.93-.43,4.54.2.53.66,1.42,1.47,1.42,0,0,.02,0,.03,0,.71-.02,1.11-.29,1.33-.91.59-1.65-.42-4.44-.89-4.88-.45-.27-.78-.35-1.01-.35Z"/>
        </g>
        <g>
          <path d="M291.63,1180.58c.49,2.67-.09,19.24-5.37,15.63-1.27-.87.21-12.61.86-14.38.71-1.92,2.96-2.12,4.51-1.25Z"/>
          <path d="M287.67,1197.72c-.56,0-1.23-.17-1.97-.68-2.22-1.51.15-14.63.49-15.55.38-1.02,1.13-1.78,2.13-2.15,1.19-.44,2.61-.3,3.81.37l.41.23.08.46c.38,2.05.29,14.44-3.44,16.87-.33.21-.84.45-1.51.45ZM286.94,1195.47c.69.43.99.23,1.15.13,2.25-1.46,2.95-11.11,2.63-14.33-.58-.21-1.21-.23-1.71-.05-.45.17-.77.49-.95.97-.69,1.88-1.75,11.7-1.12,13.28Z"/>
        </g>
        <g>
          <path d="M279.97,1183.53c-.8-2.16,0-8,3.41-6.98,2.66.8,1.51,10.55-3.41,6.98Z"/>
          <path d="M281.97,1185.32c-.72,0-1.58-.25-2.59-.98l-.24-.18-.11-.28c-.64-1.73-.46-5.56,1.26-7.41.89-.95,2.09-1.27,3.37-.88,1.1.33,1.85,1.49,2.05,3.18.27,2.24-.41,5.06-2.22,6.13-.39.23-.9.42-1.53.42ZM280.82,1182.9c.68.43,1.24.52,1.66.27.87-.51,1.46-2.46,1.25-4.16-.12-.99-.46-1.45-.64-1.5-.56-.17-.96-.07-1.34.33-1.02,1.09-1.27,3.71-.93,5.06Z"/>
        </g>
      </g>
    </g>
    <g style="clip-path: url(#g);">
      <path d="M1144.98,1337.5c-34.73-49.13-43.61-161-43.61-161,0,0,18.2-21.12,28.36-37.21,10.16-16.09-33.88-126.21-33.88-126.21,0,0-24.56-74.54-32.19-82.16-7.62-7.62-185.51,19.48-188.05,20.33-2.54.85-60.14,16.94-66.92,30.49-6.78,13.55,20.71,154.16,19.86,183.81-.85,29.65,39.15,43.67,39.15,43.67,12.05,107.29,6.21,115.58-25.98,193.51s-18.33,113.45-18.33,113.45c0,0,356.3-129.55,321.57-178.68ZM911.57,1043.76c-19.58,9.79-26.92,16.56-26.92,16.56,0,0-16.38-21.27-15.62-21.46.75-.19,20.89-25.98,46.12-26.92,25.22-.94,39.34.38,39.34.38l.19,27.48s-23.53-5.84-43.11,3.95ZM1051.24,1001.22c-1.13,1.69-7.91-3.39-23.15-3.95s-40.09,17.51-40.09,17.51l-8.47-19.76s35.58-33.32,57.04-29.36c21.46,3.95,22.59,12.99,22.59,12.99,0,0-6.78,20.89-7.91,22.59Z" style="fill: #fff;"/>
      <path d="M820.27,1034.54c-.56-2.26-26.54-33.88-26.54-33.88,0,0-20.89,11.86-15.25,42.35s18.64,71.72,48.56,88.66-6.78-97.13-6.78-97.13Z" style="fill: #fff;"/>
      <path d="M1087.94,1014.21c4.52-9.6,1.13-28.8,11.29-36.14s22.59-3.39,24.28,0,12.99,24.28,8.47,51.95-22.02,70.59-22.02,70.59l-22.02-86.4Z" style="fill: #fff;"/>
      <g>
        <path d="M1255.3,1432.15c-4.59-6.04-13.28-11.78-20.95-16.84-3.38-2.23-6.57-4.34-9.25-6.34-22.67-17.01-43.08-36.7-66.16-63.86-9.78-11.5-14-18.27-19.65-31.5-19.76-46.24-32.16-92.24-36.87-136.72,2.12-1.96,4.89-4.22,7.8-6.6,11.31-9.25,25.39-20.75,25.72-32.59.3-10.6-3.24-22.78-6.66-34.55-1.75-6.02-3.4-11.72-4.47-16.97l.84-2.92c8.45-29.26,16.42-56.89,10.76-87.31-2.33-12.52-10.49-23.35-19.84-26.35-4.92-1.58-12.51-1.78-20.77,6.16-.31.3-.67.81-1.27,1.7-.46.68-1.32,1.94-1.92,2.57-1.2-3.81-2.33-7.72-3.52-11.83-2.82-9.75-5.73-19.82-9.72-28.67-2.11-4.69-4.75-9.86-9.22-11.84-3.92-1.74-11.69-2.36-23.75-1.9-1.77.07-4.02.38-6.39.72-3.51.5-7.5,1.06-9.81.72-2.09-.31-7.09-2.75-11.93-5.11-4.02-1.96-8.17-3.98-10.84-4.87-59.88-19.84-123.39-8.78-165.73,28.85-3,2.67-6.1,6.31-9.09,9.84-3.04,3.58-5.92,6.97-8.46,9.08-1.12.93-3.37,1.77-5.53,2.58-1.56.58-3.03,1.13-4.18,1.74-14.12,7.47-13.54,16.44-12.28,29.9-3.14-1.89-6.42-2.34-9.78-1.34-8.22,2.45-14.47,13.12-16.67,19.7-6.18,18.53-4.01,39.78,6.45,63.15,10.04,22.42,25.27,41.46,36.36,53.54,1.18,5.2,2.13,10.6,3.14,16.32,4.74,26.86,10.11,57.28,42.06,64.17,1.61,12.74,2.21,25.77,2.8,38.38.1,2.11.2,4.23.3,6.34.17,3.49.37,6.99.57,10.52.71,12.55,1.44,25.54.89,38.12-.9,20.39-12.11,51.59-20.3,74.37-1.37,3.81-2.66,7.41-3.83,10.73-3.07,8.76-6.62,17.84-10.04,26.62-6.98,17.9-14.2,36.4-18.48,54.55-5.81,24.64-4.78,48.44-3.69,73.63.16,3.7.32,7.42.46,11.15l.04.96h107.94v-.99c.16-19.15-.07-37.85-.68-55.57l-.19-5.6c-.47-14.14-.96-28.76-2-42.42-.38-4.97-1.2-10.82-4.18-11.92-1.34-.49-2.81.05-4.36,1.61-2.14,2.15-1.49,5.89-.97,8.89.19,1.1.37,2.14.39,2.94.07,3.03.14,6.05.2,9.08.14,6.66.29,13.55.52,20.29.11,3.22.18,6.44.25,9.66.09,4.21.19,8.54.37,12.83-22.99-8.79-50.17-6.94-85.26,5.78.92-37.99,13.21-75.79,26.39-111.01,2.97-7.94,6.08-15.37,9.09-22.55,8.65-20.68,16.83-40.21,18.91-65.79,1.93-23.79,2.2-50.55.75-75.35-.38-6.55-1.23-13.78-2.67-22.64l42.64,8.3c3.35.67,6.11-.29,7.03-2.45.69-1.62.29-4.13-2.88-6.33l-.22-.12c-10.28-3.79-22.02-6.37-33.36-8.87-12.73-2.8-25.88-5.7-36.94-10.29-10.65-4.42-12.69-11.29-15.77-21.68l-.5-1.67c-11-36.76-16.43-87.59-20.8-128.43l-.92-8.61c-.24-2.25-.51-4.57-.78-6.95-1.48-13.03-3.17-27.79-2.2-40.06.66-8.38,3.84-10.75,10.95-14.17,23.62-11.34,54.32-17.46,83.97-22.38,34.64-5.75,80.41-12.66,127.23-15.15,1.06-.06,2.85-.23,5.11-.44,5.89-.56,21.35-2.02,23.58-.46l1.47,2.97c5.17,10.42,10.53,21.19,14.87,32.21,10.4,26.39,20.74,57.69,30.74,93.03.72,2.55,1.48,5.18,2.25,7.88,5.76,20.04,12.3,42.75,12.99,61.84.25,6.88-6.76,13.27-11.88,17.93l-.35.32c-4.33,3.95-9.52,7.81-14.53,11.54-1.17.87-2.33,1.73-3.45,2.58-1.8,1.35-4.85,3.42-8.38,5.81-9.89,6.69-22.2,15.02-24.49,19.2-1.47,2.68-1.65,5.28-.5,7.14,1.01,1.63,2.98,2.49,5.52,2.38,2.93-.11,8.66-4.67,16.43-11.08,3.18-2.62,6.19-5.11,7.88-6.15l.87-.15c.58,6.33,1.79,12.62,3.02,18.5,9.5,45.47,21.32,102.06,48.76,142.24,10.37,15.18,23.67,30.13,35.49,42.87-1.06.43-2.11.84-3.17,1.25-3.85,1.5-7.84,3.06-11.57,5.2-16.17,9.28-28.47,25.78-33.31,44.48l-14.99-27.91-.16-.13c-3.96-3.12-6.18-2.8-7.35-1.98-1.83,1.29-2.06,4.48-.62,8.77,4.32,12.9,12.38,25.95,20.17,38.57,3.93,6.36,7.65,12.38,10.85,18.29-3.11,26.4-4,47.98-2.83,67.89.13,2.24.42,4.55.69,6.78.38,3.06.76,6.22.77,9.24v1h114.84l.24-.65c4.83-12.79,10.3-27.29,12.14-42.22,2.16-17.58,2.32-68.72-10.13-85.14ZM1111.66,993.69h0c1.6,0,3.2,5.08,3.65,11.58.72,10.35-.92,20.81-2.51,30.93-.15.96-.3,1.92-.45,2.88l-9.45-30.41c.13-3.66,5.35-14.94,8.75-14.98ZM1121.67,1037.74c1.29-6.47,2.51-12.58,2.81-18.1.32-6.05-.06-24.65-4.16-31.03-1.92-2.99-6.05-5.42-9.39-5.54-.12,0-.24,0-.35,0-6.44,0-9.92,6.1-12.73,11.02-.11.19-.22.38-.33.57-.01-.03-.02-.05-.03-.08-.77-1.93-1.12-2.81.04-4.93,2.83-5.17,7.92-8.74,13.26-9.32,4.51-.49,8.74,1.21,11.89,4.81,7.25,8.28,7.61,32.41,6.13,45.67-1.35,12.07-4.53,24.11-7.6,35.74-.33,1.24-.65,2.47-.98,3.7-.17-.57-.3-1.15-.39-1.52-.09-.36-.17-.69-.24-.96-2.3-8.2-.08-19.3,2.07-30.04ZM803.05,1017.92c-.58-.57-1.25-1.21-2.22-1.51-2.91-.91-5.64-.64-8.13.8-4.32,2.5-6.91,8.08-7.89,12.48-5.84,26.2,14.05,61.69,26.42,80.52.67,1.02,1.39,1.89,2.08,2.74,1.43,1.75,2.71,3.31,3.18,5.67-1.81-1.72-3.29-3.87-4.73-5.96-.43-.63-.87-1.25-1.3-1.87-20.82-29.07-30.07-56.81-27.5-82.46.65-6.46,4.52-18.83,10.92-19.58.21-.03.42-.04.64-.04,2.22,0,4.73,1.29,6.7,3.48,1.81,2.01,2.8,4.41,2.72,6.49-.27-.17-.54-.43-.88-.76ZM794.41,1050.14c-.58-5.1-.97-15.04.06-20.2.21-1.04,1.08-2.56,1.86-3.3h.02c2.74,0,7.51,11.24,9.55,19.01,2.43,9.21,3.34,19.04,4.22,28.55.59,6.34,1.19,12.86,2.24,19.21-9.8-13.17-16.29-28.73-17.96-43.27Z"/>
        <path d="M1054.7,1029.94l.54,20.22c-4.67,19.37-29.39,24.41-46.37,20.96,12.9,16.04,32.36,25.24,41.67,44.26,1.56,3.2,3.2,7.43,4.18,10.86.84,2.94,4.99,16.42-1.65,14.59-3.53-.98-4.43-11.42-5.7-15.12-8.86-25.81-42.99-34.42-49.03-59.82-2.77-11.65.8-32.65,10.16-40.98,9.5-8.46,27.66-11.16,39.76-8.58-.65-3.02-.95-11.29-3.37-12.91-10.1-6.79-36.86.38-45.33,8.25-9.72,9.02-15.1,33.45-29.76,35.4-8.94,1.19-21.21-5.32-30.09-6.3-19.88-2.21-43.59,7.91-54.39,24.95-1.45,15.37-1.4,30.82-1.72,46.26-.04,1.69-.75,3.26-.78,4.95-.18,10.09-.93,30.4,2.13,39.46,2.24,6.61,14.99,13.61,21.36,15.87,4.99,1.77,21.23,4.19,23.77,6.31,1.65,1.38,1.41,3.47-.28,4.68-2.01,1.44-12.32-.56-15.29-1.28-18.25-4.4-36.71-13.55-38.14-34.19-1.89-27.22,1.82-56.5,2.2-83.78-1.85-5.17-15.6-17.95-15.7-22.22-.09-3.81,11.03-13.21,14.3-15.71,19.49-14.91,48.18-21.9,72.54-18.96,4.75.57,6.47,2.41,7.28,7.04l-.09,23.67c7.29,4.12,14.83,1.87,19.74-4.66,1.03-1.37,7.38-13.22,7.72-14.5,1.86-7-14.12-17.54-8.04-27.36,3.42-5.52,25.46-17.94,32.07-20.92,7.49-3.38,22.15-8.77,30.14-7.69,4.29.58,23.19,11.59,24.45,15.65,3.13,10.13-8.48,20.88-7.55,31.9.78,9.29,14.57,38.18,19.2,48.11,5.78,12.38,27.87,49.11,28.8,59.28,1.59,17.35-19,32.57-32.32,40.79-3.77,2.33-13.64,9.58-10.99-.24,10.03-8.47,37.96-24.91,36.85-39.79-.16-2.19-1.42-5-2.27-7.07-5.78-14.13-16.48-30.15-23.43-44.6-5.82-12.1-10.63-24.73-16.58-36.77ZM1048.94,996.27l5.44-15.74c-4.31-2.55-13.13-10.52-17.92-10.62-2.82-.06-13.47,2.94-16.69,3.97-10.05,3.23-23.38,9.84-31.89,16.09-1.68,1.24-5.85,3.86-5.94,5.94l6.17,13.26c16.56-13.64,40.04-20.03,60.83-12.9ZM950.16,1014.18c-18.92-.37-34.87-1.16-52.04,7.76-3.77,1.96-26.22,16.29-25.72,19.49,1.03,2.58,8.43,13.48,10.8,13.34.91-.05,7.71-6.29,9.45-7.51,15.94-11.13,38.09-17.35,57.18-11.71,1.87-.33-.32-18.59.34-21.37ZM1043.25,1025.64v13.96c0,.87-.78,5.66-1.03,6.85-2.86,13.49-14.33,17.26-26.77,13.79-2.89-.81-5.02-2.67-7.51-3.95-.59-.3-1.51-1.23-1.94-.21l.85,5.96c17.45,9.55,43.65,1.01,42.12-21.71-.13-1.89-1.72-12.43-2.28-13.47-.86-1.59-1.76-1.27-3.44-1.22ZM1018.73,1038.36c3.04-3.04-.59-10.27-5.96-7.03-5.54,3.34,1.69,11.31,5.96,7.03Z"/>
        <g>
          <path d="M1038.24,1173.88c-12.63.35-25.59-4.11-38.22-2.78-10.22,1.07-20.27,10.35-29.33,15.07-3.08,1.61-9.4,5.43-12.65,3.82-4.38-4.88,1.69-5.13,4.78-6.68,10.43-5.23,18.23-14.37,27.92-19.34,18.77-9.63,40.56,6.6,53.9-2.68,2.18-1.52,7.17-7.59,7.91-9.99.69-2.24-4.08.34-4.34-2.86-.15-1.92,1.7-3.4,3.42-3.77,1.38-.3,9.14-.92,10.26-.56,2.29.74,2.69,2.6,1.79,4.74-1.36.81-2.44.83-3.6,2.13-4.26,4.79-8.59,15.29-11.97,20.97-20.96,35.16-86.32,47.43-111.31,10.62-10.24-15.08-13.72-36.7-9.81-54.39,3.71-16.77,16.05-29.38,21.71-45.24-20.2,17.3-43.56,7.22-53.8-14.98-11.93,2.39-4.43-7.73.09-11.88,9.79-8.99,27.96-15.17,41.17-13.95,6.39.59,21.02,5.98,21.87,13.22.47,3.95.29,11.69.01,15.8-1.61,23.6-21.4,38.7-25.49,61.16-5.17,28.42,10.47,63.56,42.26,65.95,23.1,1.73,49.05-5.31,63.4-24.37ZM904.32,1060.01c-7.92,1.56-3.21,6.87-.16,11.26,7.07,10.17,14.01,15.18,26.94,13.73,15.16-1.7,27.71-19.73,14.39-31.42-1.9,1.62-.8,4.42-1.15,6.7-1.05,6.68-3.55,16.01-10.01,19.35-13.24,6.83-29.12-6.01-30.01-19.62ZM909.52,1055.9c-3.13,3.31,1.31,10.09,5.95,7.03,5.68-3.75-1.18-12.07-5.95-7.03Z"/>
          <path d="M983.73,1205.92c-20.56,0-37.87-8.23-47.75-22.79-10.16-14.96-14.06-36.62-9.96-55.17,2.12-9.6,7.07-17.93,11.86-25.99,3.04-5.13,6.18-10.4,8.55-15.97-8.1,5.85-16.93,7.92-25.73,6-10.96-2.4-20.53-10.74-26.37-22.93-3.54.59-5.68.08-6.51-1.58-1.76-3.46,4.1-9.95,6.5-12.16,10.04-9.21,28.45-15.45,41.94-14.21,6.38.59,21.83,6.1,22.77,14.1.48,4.06.29,11.94.02,15.99-.88,12.9-7.14,23.39-13.2,33.53-5.14,8.61-10.45,17.5-12.31,27.74-3.06,16.79,1.23,35.23,11.18,48.1,7.73,10,18.17,15.77,30.18,16.67,19.79,1.48,45.98-3.67,61.26-22.36-5.14-.06-10.34-.8-15.4-1.53-6.82-.98-13.88-1.99-20.65-1.28-6.72.71-13.44,5.14-19.95,9.42-3.13,2.06-6.09,4.01-9.02,5.54-.33.17-.71.38-1.11.59-3.62,1.95-9.09,4.9-12.45,3.23l-.17-.09-.13-.14c-1.46-1.63-2.02-3.02-1.7-4.23.47-1.78,2.56-2.48,4.58-3.16.78-.26,1.59-.53,2.21-.84,5.27-2.64,9.94-6.36,14.45-9.96,4.26-3.4,8.67-6.92,13.47-9.38,9.94-5.1,20.79-3.15,30.38-1.43,8.87,1.59,17.25,3.1,23.4-1.18,1.95-1.36,6.52-6.88,7.44-9.22-.17,0-.35-.01-.5-.02-1.16-.03-3.58-.08-3.79-2.72-.2-2.42,1.99-4.36,4.21-4.83,1.29-.28,9.34-1,10.78-.53,1.57.51,2.27,1.43,2.59,2.12.5,1.1.44,2.47-.18,3.96l-.13.3-.28.17c-.53.32-1.03.53-1.46.71-.75.32-1.29.55-1.9,1.23-2.69,3.03-5.52,8.62-8.01,13.55-1.37,2.71-2.66,5.27-3.85,7.26-11.46,19.22-36.76,32.66-62.96,33.42-.77.02-1.53.03-2.29.03ZM950.92,1079.72l-1.26,3.54c-2.51,7.02-6.34,13.48-10.05,19.72-4.71,7.92-9.57,16.12-11.63,25.4-4,18.04-.21,39.09,9.66,53.62,9.86,14.52,27.47,22.48,48.33,21.88,25.54-.75,50.17-13.79,61.29-32.45,1.16-1.94,2.43-4.47,3.78-7.14,2.55-5.04,5.43-10.76,8.3-13.98.91-1.02,1.77-1.38,2.62-1.74.31-.13.61-.26.92-.42.22-.63.38-1.42.09-2.04-.22-.47-.68-.82-1.39-1.05-.96-.25-8.35.29-9.74.59-1.35.29-2.74,1.41-2.64,2.72.05.67.28.85,1.84.88.87.02,1.77.04,2.28.75.31.43.37.97.17,1.61-.8,2.61-5.91,8.86-8.3,10.52-6.83,4.75-15.61,3.18-24.9,1.51-9.72-1.75-19.78-3.55-29.11,1.24-4.62,2.37-8.76,5.67-13.13,9.16-4.59,3.66-9.34,7.45-14.8,10.18-.75.37-1.62.67-2.46.95-1.38.46-3.09,1.04-3.28,1.78-.12.46.29,1.27,1.12,2.23,2.51,1.01,7.65-1.77,10.45-3.27.41-.22.79-.43,1.14-.61,2.84-1.48,5.76-3.41,8.85-5.44,6.7-4.42,13.63-8.99,20.84-9.74,7.03-.74,14.2.29,21.15,1.28,5.66.81,11.5,1.65,17.15,1.49l2.08-.06-1.25,1.66c-15.55,20.65-43.39,26.34-64.28,24.76-12.59-.95-23.52-6.98-31.61-17.44-10.29-13.31-14.72-32.35-11.56-49.68,1.93-10.59,7.33-19.65,12.56-28.4,5.93-9.94,12.07-20.22,12.92-32.64.27-3.97.46-11.68,0-15.61-.77-6.54-14.94-11.78-20.97-12.34-12.98-1.21-30.73,4.81-40.4,13.69-3.56,3.26-6.91,8.14-6.07,9.78.41.8,2.32.94,5.11.38l.77-.16.33.72c5.53,12,14.76,20.21,25.31,22.52,9.25,2.02,18.56-.7,26.93-7.88l2.86-2.45ZM926.91,1086.25c-11.17,0-17.44-5.58-23.58-14.4-.28-.4-.56-.8-.86-1.21-2.11-2.94-4.28-5.99-3.27-8.55.61-1.53,2.21-2.53,4.91-3.06l1.12-.22.07,1.14c.46,6.98,5.25,14.21,11.93,17.98,5.6,3.17,11.5,3.45,16.62.81,5.91-3.05,8.42-11.8,9.48-18.61.1-.65.06-1.37.03-2.14-.09-1.76-.19-3.75,1.47-5.16l.66-.56.65.57c5.35,4.7,7.2,10.81,5.19,17.2-2.58,8.23-11.05,14.94-20.13,15.96-1.51.17-2.94.25-4.3.25ZM903.43,1061.26c-1.05.31-2.05.8-2.36,1.57-.61,1.55,1.33,4.26,3.04,6.65.3.42.59.83.87,1.23,6.62,9.53,13,14.76,26.01,13.3,8.33-.93,16.08-7.06,18.44-14.57,1.66-5.27.3-10.35-3.82-14.38-.31.68-.29,1.6-.23,2.83.04.84.08,1.7-.05,2.55-1.65,10.57-5.2,17.33-10.54,20.08-5.74,2.96-12.32,2.66-18.52-.85-6.98-3.95-11.92-11.08-12.83-18.42ZM913.05,1064.7c-1.49,0-2.93-.69-4.05-2.03-1.65-1.97-2.29-5.26-.2-7.46h0c1.59-1.68,3.64-2.28,5.61-1.64,2.14.69,3.85,2.73,4.16,4.97.28,2.06-.65,3.96-2.55,5.22-.96.63-1.98.94-2.97.94ZM912.84,1055.32c-.76,0-1.67.29-2.59,1.26h0c-1.29,1.36-.82,3.49.28,4.8.46.54,2.12,2.2,4.39.71,1.6-1.06,1.79-2.37,1.67-3.28-.2-1.48-1.37-2.89-2.79-3.34-.28-.09-.61-.15-.96-.15Z"/>
        </g>
        <g>
          <path d="M1004.37,1104.56c10.64-3.24,12.78,22.33-.14,21.38-2.48-.18-3.14-1.73-4.49-2.07-1.96-.48-18.13,4.64-21.11,5.79s-2.73,3.69-7.73,2.34c-9.61-2.59-7.68-23,1.03-21.85,4.96.65,9.77,11.34,12.09,11.31l12.67-3.81c1.43-3.46,3.58-11.85,7.67-13.09Z"/>
          <path d="M973.36,1133.39c-.74,0-1.63-.13-2.72-.42-5.89-1.59-8.07-9.23-6.78-15.7,1.09-5.44,4.31-8.62,8.2-8.1,3.29.43,6.16,4.24,8.69,7.6,1.09,1.44,2.56,3.4,3.21,3.67l11.99-3.6c.22-.56.45-1.21.71-1.92,1.53-4.28,3.62-10.15,7.42-11.31h0c2.74-.83,5.28-.05,7.16,2.19,3.27,3.92,3.9,11.38,1.38,16.31-1.74,3.39-4.74,5.12-8.45,4.83-1.81-.13-2.85-.91-3.61-1.47-.4-.3-.72-.54-1.05-.62-1.7-.28-16.79,4.31-20.5,5.75-.83.32-1.36.77-1.92,1.24-1.05.88-2.02,1.55-3.72,1.55ZM971.24,1111.11c-3.01,0-4.76,3.31-5.41,6.55-1.11,5.57.58,12.09,5.34,13.38,2.85.77,3.56.17,4.63-.73.6-.5,1.34-1.13,2.48-1.57,1.54-.6,19.2-6.44,21.71-5.83.72.18,1.25.57,1.76.96.68.51,1.33.99,2.56,1.08,3.67.28,5.57-1.89,6.52-3.75,2.12-4.14,1.58-10.86-1.13-14.11-1.37-1.64-3.06-2.17-5.04-1.56h0c-2.83.86-4.81,6.4-6.12,10.07-.34.94-.64,1.79-.92,2.45l-.18.44-13.4,3.99h-.02c-1.47,0-2.82-1.79-4.86-4.5-2.18-2.89-4.89-6.5-7.35-6.82-.19-.03-.38-.04-.57-.04Z"/>
        </g>
        <g>
          <path d="M1058.29,945.44l3.07-.62c5.94,1.36-4.19,15.4-5.95,5.63-.45-.37-2.84,4.04-5.06,1.13-3.19-4.17,7.19-17.15,7.94-6.14Z"/>
          <path d="M1057.99,954.88c-.92,0-2.33-.42-3.15-2.7-.75.71-1.77,1.48-2.99,1.38-.86-.06-1.63-.52-2.29-1.38-1.73-2.25-.44-5.9,1.19-8.34,1.42-2.13,3.69-4.21,5.81-3.64,1.4.37,2.27,1.73,2.61,4.04l2.21-.44.21.05c1.81.41,2.79,1.85,2.6,3.83-.28,3.04-3.27,7.08-6.07,7.21-.04,0-.09,0-.13,0ZM1055.38,949.41c.22,0,.44.07.67.26l.29.23.07.37c.18.99.59,2.67,1.64,2.61,1.59-.07,3.96-3.14,4.17-5.39.1-1.12-.35-1.49-.87-1.65l-3.96.8-.08-1.14c-.13-1.94-.6-3.2-1.25-3.37-.71-.19-2.23.73-3.63,2.82-1.58,2.37-2.12,4.9-1.27,6.01.29.38.57.59.83.6.6.05,1.43-.78,1.92-1.27.38-.38.9-.89,1.47-.89Z"/>
        </g>
        <g>
          <path d="M1013.18,1284.16c-.7,1.01,3.34,11.73-3.08,9.93-3.19-.89-4.77-16.1,1.87-12.09.64.39.09,1.72,1.19,1.44l-.25-4.82c6.65-6.29,9.03,11.65.26,5.54Z"/>
          <path d="M1009.99,1282.33c-.2,0-.38.04-.54.15-.99.67-1.37,3.39-.9,6.33.46,2.82,1.41,4.2,1.82,4.31.88.25,1.51.22,1.84-.08,1.01-.9.46-4.34.16-6.18-.2-1.22-.33-2.02-.25-2.6,0,0,0,0,0,0-.54-.35-.66-.93-.73-1.29-.01-.05-.03-.13-.04-.18-.42-.24-.91-.46-1.35-.46ZM1014.18,1283.62c1.01.64,2.45,1.28,3.17.39.95-1.18.56-4.16-.7-5.32-.28-.25-1.08-1-2.71.35l.24,4.57Z"/>
        </g>
        <g>
          <path d="M847.75,1082.22c5.31,8.99-13.97,7.55-2.86-.72l-4.92-.81c-2.13-10.09,19.84-2.36,7.78,1.53Z"/>
          <path d="M846.28,1081.71l-.8.6c-2.88,2.15-3.4,3.64-2.96,4.27.59.85,2.83,1.12,4.23.23,1.53-.98.92-2.76.14-4.08l-.6-1.02ZM840.84,1079.82l6.53,1.08-.93.69,1-.32c1.95-.63,3.1-1.44,2.92-2.06-.38-1.32-4.54-3.05-7.46-2.33-1.54.38-2.22,1.35-2.06,2.94Z"/>
        </g>
        <g>
          <path d="M834.24,988.5c.57-.36,2.27-.19,2.98.04,1.41.46,11.4,15.19,3.84,14.74-2.76-.26-9.7-12.97-6.82-14.78Z"/>
          <path d="M841.38,1004.29c-.12,0-.25,0-.38-.01-2.8-.26-7.13-7.73-8.18-12.09-.55-2.29-.25-3.81.88-4.53,1.04-.65,3.2-.27,3.82-.06,1.67.55,8.06,9.93,7.25,14.18-.15.77-.78,2.51-3.4,2.51ZM834.76,989.36c-.18.14-.34.83-.03,2.22,1.04,4.65,5.25,10.57,6.42,10.71,1.38.09,1.54-.46,1.62-.69.93-2.85-4.62-11.2-5.93-12.12-.64-.19-1.77-.23-2.08-.12Z"/>
        </g>
        <g>
          <path d="M1000.79,1280.69c3.62-1.03,5.82,7.75,6.34,10.6.64,3.47-1.19,6.95-4.41,4.39-1.42-1.13-4.38-11.94-3.52-13.67.38-.58.92-1.14,1.59-1.33Z"/>
          <path d="M1000.08,1282.49c-.49,1.53,2.06,11.29,3.27,12.41.54.43,1.32.88,1.89.54.72-.43,1.26-2.04.9-3.97-.59-3.22-2.17-8.44-4.11-9.65-.34-.21-.64-.27-.97-.17h0c-.32.09-.66.39-.97.84Z"/>
        </g>
        <g>
          <path d="M1109.63,1135.28c.97-.24,1.33.1,2.05.59,1.55,1.05,5.58,9.7,4.82,11.3-3.61,7.64-12.38-10.53-6.87-11.9Z"/>
          <path d="M1110.19,1136.2c-.09,0-.19.02-.32.05h0c-.69.17-1.03.9-1.01,2.18.05,3.57,3.06,9.13,5.19,9.59.24.05.86.18,1.55-1.27.34-1.31-3.12-9.13-4.48-10.05l-.21-.14c-.38-.26-.52-.36-.72-.36Z"/>
        </g>
        <g>
          <path d="M841.1,984.92c3.47-.99,7.19,7.5,6.33,9.2-3.14,6.14-11.66-7.68-6.33-9.2Z"/>
          <path d="M845.32,996.68c-.24,0-.48-.03-.73-.08-3.08-.7-6.11-5.62-6.2-8.92-.05-1.9.84-3.26,2.44-3.71,1.06-.3,2.73-.18,4.63,2.14,2,2.43,3.71,6.82,2.86,8.48-.7,1.37-1.77,2.11-3,2.11ZM841.67,985.84c-.1,0-.2.01-.3.04h0c-.28.08-1.03.29-.99,1.73.07,2.64,2.67,6.59,4.64,7.03.27.06.91.2,1.51-.98.25-.7-.93-4.51-2.96-6.68-.51-.54-1.22-1.14-1.9-1.14Z"/>
        </g>
        <g>
          <path d="M1083.54,1046.22c-2.85-2.84,3.73-10.42,7.02-8.1,3.05,2.15-3.5,11.61-7.02,8.1Z"/>
          <path d="M1089.12,1038.69c-1.16,0-2.66,1.05-3.72,2.31-1.29,1.53-2.1,3.58-1.16,4.51h0c.49.49,1.05.6,1.76.37,1.82-.6,4-3.4,4.31-5.54.07-.48.07-1.11-.33-1.39-.25-.18-.54-.26-.86-.26Z"/>
        </g>
        <g>
          <path d="M1103.92,1143.9c3.7-1.04,8.07,7.07,4.5,8.87-4.15,2.1-9.04-7.59-4.5-8.87Z"/>
          <path d="M1104.19,1144.86c-.59.17-.93.54-1.05,1.18-.3,1.62.89,4.2,2.5,5.42.84.63,1.63.77,2.32.42,1.36-.68.56-2.95.38-3.39-.79-2.04-2.7-4.04-4.16-3.62h0Z"/>
        </g>
        <g>
          <path d="M871.27,1183.29c3.65,2.31-4.08,9.81-7.13,6.03-2.63-3.26,4.61-7.63,7.13-6.03Z"/>
          <path d="M869.93,1183.95c-1.28,0-3.35.87-4.58,2.24-.85.96-1,1.8-.43,2.5.19.24.77.95,2.22.56,1.83-.5,3.84-2.48,4.07-4.02.08-.51-.06-.84-.47-1.1-.2-.12-.48-.18-.81-.18Z"/>
        </g>
        <g>
          <path d="M1063.8,950.54l2.78.56c2.54,2.03-.05,7.15-3.62,6.55s-1.61-6.04.84-7.1Z"/>
          <path d="M1063.57,958.7c-.25,0-.51-.02-.77-.07-1.53-.26-2.51-1.29-2.7-2.84-.28-2.31,1.33-5.31,3.31-6.17l.29-.12,3.33.67.19.15c1.44,1.15,1.8,3.17.92,5.15-.75,1.68-2.42,3.23-4.56,3.23ZM1063.95,951.59c-1.09.68-2.04,2.63-1.87,3.96.08.67.39,1,1.05,1.11,1.47.25,2.65-.83,3.18-2.01.37-.83.5-1.92-.18-2.62l-2.17-.43Z"/>
        </g>
        <g>
          <path d="M1090.32,1047.28c6.42-1.4,6.05,5.38.54,5.62-4.71.21-4.29-4.8-.54-5.62Z"/>
          <path d="M1091.94,1048.09c-.43,0-.9.05-1.41.17h0c-1.47.32-2.23,1.46-2.11,2.37.11.85.98,1.33,2.39,1.27,1.75-.08,2.75-.93,3.09-1.7.24-.54.2-1.09-.1-1.46-.34-.42-1-.65-1.86-.65Z"/>
        </g>
        <g>
          <path d="M859.71,1177.57c5.7-1.72,5.68,6.06.51,6.34-4.39.23-3.44-5.45-.51-6.34Z"/>
          <path d="M859.96,1184.92c-2.34,0-3.43-1.46-3.68-2.88-.35-2.01.85-4.73,3.14-5.42,2.64-.8,4.06.21,4.67.88,1.01,1.11,1.24,2.84.6,4.41-.73,1.77-2.38,2.9-4.42,3-.11,0-.21,0-.31,0Z"/>
        </g>
        <g>
          <path d="M831.37,1002.11c6.77-1.54,7.24,8.96.25,5.65-1.37-1.79-1.23-3.71-.25-5.65Z"/>
          <path d="M834.08,1009.4c-.78,0-1.73-.2-2.88-.74l-.22-.1-.15-.19c-1.49-1.95-1.61-4.21-.34-6.7l.21-.42.46-.1c2.53-.58,4.71.25,5.85,2.21.98,1.69.86,3.73-.28,4.98-.37.4-1.21,1.08-2.64,1.08ZM832.28,1006.95c1.36.59,2.43.6,2.97.02s.55-1.71.02-2.62c-.62-1.07-1.78-1.55-3.21-1.35-.66,1.52-.58,2.79.22,3.95Z"/>
        </g>
      </g>
    </g>
    <path d="M641.83,138.92h-315.11l-182.96,325.27v311.72l301.42-92.87,267.52,76.43,44.33-259.71-115.2-360.85ZM675.71,725.08c-1.69,6.78-237.18-57.6-237.18-57.6l-269.81,60.82,10.61-257.34,160.33-312.18,288.61,15.71,106.73,320.19s-57.6,223.62-59.29,230.4Z"/>
    <path d="M1100.93,138.92h-432l111.81,362.54-45.74,260.89,284.61,91.48,272.75-93.18v-298.16l-191.43-323.58ZM1265.26,733.55l-247.34,108.42-252.42-99.95,32.19-238.87-88.09-330.35,371.01-11.86,188.05,320.19-3.39,252.42Z"/>
    <path d="M707.93,792.43l-262.49-75-301.68,85.58v463.8l557.43,257-51.2-331.07,57.94-400.31ZM665.54,1480.66s-486.21-215.15-486.21-223.62-13.55-433.69-13.55-433.69l276.14-88.09,228.71,84.71-42.35,364.23,37.27,296.47Z"/>
    <path d="M1014.7,880.08s-261.07-77.07-266.15-73.68-65.2,386.18-65.2,386.18l51.83,335.15,557.18-255.45v-486.21l-277.66,94.01ZM1260.18,1241.79l-508.23,249.03-40.66-304.94,62.68-332.05,242.26,44.05,255.81-77.93-11.86,421.83Z"/>
    <g>
      <path d="M145.81,1423.45c-2.3-1.21-5.12-3.14-4.62-5.1,14.41-28.96,28.24-58.2,41.48-87.72h.02c.68-1.42,4.32-.56,6.96.28,1.7.54,3.28-1.23,2.44-2.81-.01-.02-.02-.04-.04-.07-.8-1.46-1.94-2.66-3.42-3.59-5.91-3.6-12-6.88-18.26-9.84-.01,0-.02-.01-.04-.02-6.24-2.95-12.65-5.58-19.23-7.89-1.66-.56-3.31-.68-4.95-.36-.02,0-.03,0-.05,0-1.66.33-1.96,2.63-.45,3.42,2.35,1.24,5.26,3.24,4.56,5.25-14.39,28.92-28.19,58.11-41.41,87.58l-.04-.02c-.68,1.43-4.32.57-6.96-.27-1.7-.54-3.28,1.23-2.44,2.81.01.02.02.04.04.07.8,1.46,1.94,2.66,3.42,3.59,11.82,7.19,24.33,13.11,37.53,17.74,1.66.56,3.31.68,4.95.36.02,0,.03,0,.05,0,1.66-.33,1.96-2.63.45-3.42Z"/>
      <path d="M307.42,1381.83s-.02-.04-.04-.07c-.8-1.46-1.94-2.66-3.42-3.59-11.82-7.19-24.33-13.11-37.53-17.74-1.66-.56-3.31-.68-4.95-.36-.02,0-.03,0-.05,0-1.66.33-1.96,2.63-.45,3.42,2.44,1.29,5.47,3.38,4.49,5.46l.11.05c-6.38,14.32-12.9,28.57-19.6,42.73-4.14-27.86-7.1-48.86-8.9-63.01-.08-1.53-.85-2.58-2.29-3.15-7.11-3.16-14.29-6.17-21.53-9.05-.78-.33-1.56-.64-2.33-.92-.28-.11-.56-.22-.84-.33-.1-.04-.21-.06-.32-.09-4.97-1.75-9.22-2.64-9.22-2.64-3.41-1.06-4.73,3.5-1.2,4.88,3.97,1.55,2.67,3.5,2.67,3.5h0c-15.38,28.31-29.11,57.4-41.17,87.28-.7,1.4-4.32.55-6.95-.28-1.7-.54-3.28,1.23-2.44,2.81.01.02.02.04.04.07.8,1.46,1.94,2.66,3.42,3.59,11.82,7.19,24.33,13.11,37.53,17.74,1.66.56,3.31.68,4.95.36.02,0,.03,0,.05,0,1.66-.33,1.96-2.63.45-3.42-2.44-1.29-5.47-3.38-4.49-5.46l-.05-.03c6.09-13.51,12.3-26.96,18.64-40.36,3.54,25.97,6.11,45.87,7.71,59.7.17,1.57.99,2.64,2.43,3.21,8.8,3.93,17.74,7.7,26.81,11.3.51.13,1.08.19,1.71.21.62.01,1.21-.08,1.77-.28.55-.2,1.05-.47,1.51-.83.45-.36.82-.82,1.08-1.38,16.18-29.46,30.54-59.79,43.12-90.95.9-1.16,4.32-.35,6.84.45,1.7.54,3.28-1.23,2.44-2.81Z"/>
      <path d="M457.35,1549.14c1.83-3.83,2.9-6.87,2.9-6.87,1.5-3.24-2.83-5.15-4.68-1.84-1.17,2.1-2.24,2.52-2.95,2.49-9.16-3.84-18.26-7.89-27.3-12.17,1.9-4.03,5.32-11.24,7.18-15.18,7.12,3.36,14.27,6.65,21.45,9.87,1.18.82.93,2.94.55,4.47-.26,1.04,1.6,2.42,2.94,2.15.02,0,.04,0,.06-.01,1.24-.27,2.18-.81,2.83-1.64,4.95-6.61,8.63-13.91,11.03-21.9.28-1.01.15-2.09-.37-3.24,0-.01-.01-.02-.02-.03-.54-1.17-2.69-1.78-3.21-.92-.84,1.4-2.34,3.05-4.39,2.01l-.02.04c-7.15-3.55-14.33-7.05-21.55-10.46,1.46-3.09,5.21-11.01,8.18-17.28,8.78,4.15,17.42,8.48,25.95,12.97h0s0,0,.01,0c.22.11.43.23.65.34.53.47,1.05,1.54.08,4-1.4,3.53,2.83,5.67,4.38,2.46,0,0,3.11-5.13,5.45-11.18,1.92-4.43,3.84-8.87,5.79-13.35.39-1.07.39-2.22,0-3.44-.4-1.22-1.09-2.12-2.08-2.7-17.35-10.39-35.51-19.05-54.48-26.02-5.97-2.4-11.79-3.61-11.79-3.61-3.41-1.06-4.73,3.5-1.2,4.88,3.97,1.55,2.67,3.5,2.67,3.5l.04.05c-14.63,28.04-28.14,56.62-40.53,85.73h-.16s-.69,2.23-4.4.15c-3.31-1.86-6,2.05-3.02,4.02,0,0,4.69,3.79,10.4,6.92,17.41,10.23,35.61,18.76,54.64,25.57,1.07.39,2.21.36,3.4-.11,1.19-.47,2.08-1.19,2.66-2.18,2.93-5.72,5.86-11.44,8.8-17.16.05-.1.07-.21.12-.32Z"/>
      <path d="M650.44,1569.69c2.43-5.45,4.76-10.91,6.97-16.38.53-1.12.59-2.27.17-3.44-.42-1.17-1.17-2.07-2.25-2.7-20.66-12.06-42.21-22.25-64.64-30.56-1.17-.44-2.34-.45-3.51-.03-1.17.42-2.03,1.19-2.56,2.32-3.43,6.29-6.75,12.69-9.94,19.2-.18.3-.29.61-.38.92-1.69,3.61-2.68,6.4-2.68,6.4-1.5,3.24,2.83,5.15,4.68,1.84,2.07-3.72,3.83-2.18,3.83-2.18l.06-.03c4.46,1.95,8.91,3.91,13.35,5.92-11.14,22.85-21.93,45.91-32.4,69.18h-.01c-.68,1.42-4.32.57-6.96-.27-1.7-.54-3.28,1.23-2.44,2.81.01.02.02.04.04.07.8,1.46,1.94,2.66,3.42,3.59,11.82,7.19,24.33,13.11,37.53,17.74,1.66.56,3.31.68,4.95.36.02,0,.03,0,.05,0,1.66-.33,1.96-2.63.45-3.42-2.18-1.15-4.82-2.94-4.66-4.79,11.45-23.07,22.57-46.24,33.35-69.52,4.4,2.17,8.82,4.4,13.25,6.66l.02.14s2.31.38.74,4.34c-1.4,3.53,2.83,5.67,4.38,2.46,0,0,2.92-4.82,5.22-10.61Z"/>
      <path d="M556.5,1559.68c-3.25-9.3-10-17.38-20.24-24.26-4.51-3.09-7.46-5.77-8.83-8.03-1.38-2.26-1.56-4.47-.54-6.62.78-1.66,2.19-2.73,4.2-3.21,2.02-.48,4-.26,5.96.67,6.55,3.1,13.53,8.99,20.96,17.69v.1s.07.03.17.09c.22.26.45.54.67.81.27.68.24,1.82-.94,3.69-2.12,3.34,1.79,6.36,4.01,3.37,0,0,3.4-3.77,6.68-8.7,2.96-4.13,5.77-8.18,8.41-12.14.75-.84,1.15-1.81,1.2-2.92.05-1.11-.25-2.12-.9-3.02-7.69-11.28-18.78-20.28-33.27-27.02-11.27-5.21-22.54-5.76-33.8-1.65-10.06,3.84-17.29,10.16-21.68,18.95-4.3,8.6-5.11,17.17-2.4,25.74,2.7,8.56,8.98,16.31,18.84,23.24,8.39,5.76,11.61,10.68,9.67,14.78-2.03,4.3-7.12,4.46-15.28.48-2.25-1.06-4.31-2.76-6.2-5.08-1.89-2.33-3.96-5.39-6.22-9.21-1.38-2.34-2.56-4.26-3.52-5.77v-.04s-.02-.02-.05-.04c-.2-.31-.39-.61-.58-.89-.19-.71,0-1.86,1.59-3.56,2.71-2.88-.56-6.58-3.3-4.07,0,0-6.7,5.05-11.7,11.15-.04.04-.06.08-.09.12-2.87,2.98-5.62,5.85-8.24,8.58-1.37,1.62-1.52,3.46-.46,5.52,8.69,15.22,19.31,25.85,31.85,31.9,13.37,6.32,26.22,7.68,38.56,4.08,11.03-3.38,18.89-9.76,23.56-19.14,4.25-8.5,4.89-17.04,1.9-25.62Z"/>
      <path d="M416.45,1433.76s-6.26-5.06-13.1-8.31c-.06-.03-.12-.05-.18-.07-5.91-3.24-11.83-6.38-17.76-9.44-1.88-.89-3.51-.57-4.92.94-8.43,8.85-20.83,21.5-37.2,37.95,2.28-22.99,4.23-40.58,5.86-52.76.28-2.04-.52-3.51-2.39-4.4-6.09-2.63-12.21-5.18-18.36-7.66-.21-.15-.45-.29-.75-.43-6.84-3.24-14.73-4.88-14.73-4.88-3.41-1.06-4.73,3.5-1.2,4.88,3.97,1.55,2.67,3.5,2.67,3.5l.19.24c-1.26,9.72-2.38,19.84-3.35,30.38-1.05,11.43-2.21,25.77-3.5,43.05-1.29,17.27-2.15,28.9-2.57,34.89-.19,2.09.61,3.55,2.39,4.4,6.23,3.06,12.55,6.05,18.97,8.97.75.35,1.6.44,2.54.26s1.74-.58,2.37-1.2c4.22-4.08,12.62-12.14,25.19-24.19,12.57-12.05,22.93-22.08,31.08-30.09,7.84-7.71,15.23-15.29,22.2-22.72.65-.26,1.73-.26,3.51.74,3.31,1.86,6-2.05,3.02-4.02Z"/>
    </g>
    <g>
      <path d="M1027.91,1422.46c20.05-9.47,37.54-10.72,52.49-3.73,11.63,5.58,20.95,15.83,27.96,30.73,7.16,14.73,9.26,28.37,6.3,40.92-3.94,16.01-15.9,28.85-35.86,38.51-19.87,9.38-37.31,10.61-52.35,3.67-11.77-5.63-21.11-15.8-28.04-30.53-7.16-14.72-9.23-28.43-6.23-41.13,4.04-16.06,15.94-28.87,35.72-38.44ZM1065.19,1500.42c3.09-1.48,5.51-3.24,7.29-5.29,1.77-2.06,2.91-4.12,3.41-6.2.5-2.07.58-4.44.23-7.09-.35-2.65-.91-5.08-1.68-7.29-.77-2.21-1.82-4.7-3.14-7.46s-2.6-5.13-3.84-7.12c-1.24-1.99-2.78-3.95-4.62-5.89-1.84-1.93-3.73-3.35-5.66-4.27-1.93-.91-4.25-1.33-6.97-1.24-2.71.09-5.61.87-8.7,2.35s-5.51,3.24-7.29,5.29c-1.77,2.05-2.93,4.13-3.48,6.23-.55,2.1-.62,4.46-.23,7.09.4,2.63.98,5.05,1.75,7.26.77,2.21,1.82,4.7,3.14,7.46s2.6,5.13,3.84,7.12c1.24,1.99,2.77,3.99,4.59,5.99,1.82,2,3.71,3.43,5.66,4.27,1.96.85,4.29,1.22,7,1.13,2.71-.09,5.61-.87,8.7-2.35Z"/>
      <path d="M876.51,1555.81c-9.26-3.35-19.79-3.22-31.59.39-5.24,1.55-9.18,2.15-11.8,1.78-2.63-.36-4.45-1.61-5.48-3.75-.79-1.66-.74-3.42.17-5.29.9-1.87,2.33-3.27,4.28-4.2,6.53-3.12,15.52-4.82,26.95-5.09l.08.07s.07-.04.18-.08c.35,0,.7,0,1.05-.01.7.22,1.57.96,2.27,3.06,1.25,3.75,6.06,2.63,5.14-.98,0,0-.78-5.01-2.53-10.67-1.33-4.9-2.7-9.63-4.1-14.19-.17-1.11-.68-2.04-1.51-2.78-.83-.74-1.8-1.14-2.91-1.21-13.6-1.16-27.58,1.76-41.95,8.75-11.16,5.46-18.69,13.85-22.61,25.17-3.37,10.23-3.03,19.82,1.01,28.78,3.95,8.76,10.1,14.8,18.44,18.11,8.34,3.31,18.32,3.33,29.92.06,9.76-2.87,15.61-2.26,17.57,1.83,2.05,4.29-1.04,8.34-9.27,12.15-2.24,1.07-4.86,1.61-7.85,1.6-2.99,0-6.68-.33-11.07-.99-2.69-.4-4.92-.7-6.7-.91l-.02-.03s-.03,0-.07.02c-.37-.04-.72-.08-1.05-.11-.67-.3-1.45-1.17-1.75-3.48-.52-3.92-5.45-3.72-5.24,0,0,0-.31,8.38,1.26,16.12.01.05.03.1.04.15.5,4.1.99,8.05,1.45,11.81.4,2.08,1.73,3.36,3.99,3.84,17.29,2.87,32.24,1.34,44.85-4.57,13.34-6.38,22.51-15.49,27.5-27.33,4.34-10.69,4.35-20.81.03-30.35-3.9-8.66-10.13-14.55-18.67-17.64Z"/>
      <path d="M1003.58,1536.6c-4.6-1.19-9.56-2.5-14.84-3.93-.27-.16-.59-.31-.98-.44-7.19-2.37-15.22-3.02-15.22-3.02-3.51-.63-4.26,4.06-.58,4.99,3.04.77,3.27,2.11,3.19,2.76-2.39,4.79-6.12,8.4-11.19,10.82-3.46,1.65-6.67,2.62-9.65,2.89-2.97.27-5.49-.01-7.56-.86-2.07-.85-4.07-2.21-6.01-4.1-1.94-1.89-3.53-3.83-4.76-5.82-1.24-1.99-2.53-4.39-3.87-7.19-1.34-2.8-2.4-5.31-3.17-7.53-.77-2.21-1.28-4.67-1.54-7.36-.25-2.69-.04-5.12.65-7.29.69-2.16,2.07-4.32,4.15-6.46,2.08-2.14,4.84-4.04,8.3-5.69,4.23-2.02,8.44-2.94,12.63-2.79h0s2.34.02,1.42,4.18c-.82,3.71,3.7,5.15,4.72,1.72,0,0,2.03-5,3.38-10.93,1.67-6.09,3.34-12.18,5-18.27.34-1.2.18-2.33-.5-3.38-.68-1.05-1.64-1.68-2.89-1.89-13.85-3.26-27.29-1.82-40.33,4.3-18.09,8.54-28.89,20.77-32.42,36.69-2.73,12.79-.56,26.46,6.51,40.99,6.79,14.44,16.2,24.64,28.24,30.6,14.7,7.21,30.87,6.54,48.49-2,15.38-7.47,25.88-19.27,31.49-35.39.44-1.24.38-2.39-.18-3.44-.56-1.05-1.39-1.77-2.5-2.16Z"/>
      <path d="M1302.96,1391.35c-1.82-3.84-3.49-6.58-3.49-6.58-1.56-3.21-5.79-1.06-4.38,2.47.89,2.23.55,3.33.08,3.86-8.76,4.68-17.65,9.18-26.67,13.49-1.92-4.02-5.36-11.22-7.24-15.15,7.1-3.4,14.16-6.87,21.2-10.41,1.38-.39,2.87,1.13,3.82,2.39.65.86,2.89.29,3.52-.92,0-.02.02-.03.03-.05.57-1.13.74-2.2.51-3.22-2-8.01-5.34-15.47-10.03-22.38-.61-.85-1.53-1.44-2.75-1.76-.01,0-.02,0-.04,0-1.25-.32-3.08.96-2.74,1.91.55,1.53.89,3.74-1.21,4.68l.02.04c-7.27,3.31-14.52,6.67-21.72,10.11-1.48-3.09-5.25-10.99-8.25-17.25,8.76-4.19,17.58-8.16,26.44-11.94h0s0,0,0,0c.22-.1.45-.19.67-.29.7-.12,1.86.16,3.15,2.47,1.85,3.31,6.18,1.38,4.67-1.85,0,0-2.01-5.65-5.23-11.28-2.22-4.28-4.45-8.58-6.7-12.92-.59-.98-1.48-1.71-2.67-2.17-1.2-.46-2.33-.49-3.41-.1-19.01,6.89-37.19,15.52-54.57,25.83-5.63,3.12-10.24,6.86-10.24,6.86-2.97,1.98-.27,5.88,3.03,4.01,3.71-2.1,4.4.14,4.4.14h.06c12.52,29.05,26.15,57.57,40.9,85.55l-.1.12s1.3,1.94-2.66,3.51c-3.53,1.39-2.2,5.94,1.21,4.88,0,0,5.9-1.25,11.93-3.7,18.92-7.05,37.03-15.78,54.32-26.24.98-.59,1.67-1.49,2.06-2.71.39-1.22.39-2.37,0-3.44-2.58-5.88-5.17-11.77-7.75-17.66-.05-.1-.12-.19-.17-.29Z"/>
      <path d="M1178.22,1365.59c-10.45-4.31-20.04-4.43-28.78-.37-12.07,5.57-23.9,11.64-35.5,18.19-.2.07-.4.15-.62.26-6.84,3.26-13.08,8.34-13.08,8.34-2.97,1.98-.27,5.88,3.03,4.01,3.71-2.1,4.4.14,4.4.14h.39c12.78,30.13,26.92,59.61,42.43,88.43l-.05.03c.68,1.42-2.28,3.71-4.6,5.23-1.5.98-1.11,3.32.64,3.67.02,0,.05,0,.07.01,1.64.31,3.29.18,4.94-.38,13.04-4.63,25.52-10.6,37.45-17.91,1.48-.94,2.62-2.14,3.4-3.61,0-.01.02-.03.02-.04.79-1.5-.8-3.17-2.36-2.51-2.27.97-5.34,1.89-6.67.58-4.67-9.55-9.3-19.12-13.89-28.71,3.74-1.79,7.48-3.58,11.22-5.36,10.24-5.01,17.36-11.86,21.36-20.55,4.1-9.2,3.69-18.82-1.23-28.87-4.75-9.44-12.27-16.3-22.58-20.56ZM1168.45,1406.96c-.51,2.66-1.89,4.52-4.13,5.59-2.34,1.12-4.63,2.21-6.87,3.29-3.04-6.36-6.1-12.76-9.19-19.21,2.24-1.07,4.53-2.17,6.87-3.29,2.06-.98,4.34-.84,6.84.43,2.5,1.27,4.32,3.08,5.43,5.41,1.21,2.52,1.55,5.11,1.04,7.77Z"/>
    </g>
    <g>
      <path d="M711.76,1644.21c-2.49-1.09-4.43-2.43-5.83-4.04-1.4-1.6-2.49-3.7-3.27-6.29-.78-2.59-1.3-5.05-1.56-7.38-.26-2.33-.39-5.02-.4-8.08,0,0,0-.01,0-.02h-41.03s0,.09,0,.14c-.09,16.27,3.97,29.48,12.16,39.62,10.57,12.72,26.83,19.13,48.77,19.22v-31.55c-3.41,0-6.35-.54-8.83-1.62Z" style="fill: #ed1e79;"/>
      <path d="M740.49,1618.4c0,3.05-.13,5.74-.38,8.06-.26,2.33-.8,4.77-1.62,7.31-.83,2.54-1.91,4.64-3.26,6.3-1.35,1.66-3.26,3.03-5.75,4.12-2.49,1.09-5.44,1.64-8.86,1.64,0,0-.02,0-.03,0v31.55s.04,0,.06,0c22.17-.13,38.49-6.57,48.94-19.32,8.07-10.06,12.05-23.27,11.93-39.65,0,0,0-.01,0-.02h-41.03Z" style="fill: #75fafc;"/>
      <path d="M729.43,1592.59c2.49,1.09,4.41,2.46,5.76,4.11,1.35,1.66,2.44,3.75,3.27,6.29.83,2.54,1.38,4.97,1.64,7.3.26,2.33.39,5.03.4,8.08,0,0,0,.01,0,.02h41.03c.08-16.47-3.92-29.72-12.01-39.76-10.47-12.72-26.78-19.13-48.92-19.22v31.55c3.41,0,6.35.54,8.83,1.62Z" style="fill: #7cfa72;"/>
      <path d="M701.08,1610.34c.26-2.33.77-4.77,1.55-7.31.78-2.54,1.86-4.64,3.26-6.3,1.4-1.66,3.34-3.03,5.82-4.13,2.49-1.09,5.44-1.64,8.86-1.64,0,0,.02,0,.03,0v-31.55s-.04,0-.06,0c-21.97.13-38.23,6.57-48.79,19.32-8.15,10.14-12.18,23.36-12.08,39.67h41.03c0-3.05.12-5.74.38-8.06Z" style="fill: #ef9755;"/>
    </g>
    <g>
      <path d="M882.39,573.92h-326.4c-3.24-2.68,55.65,170.06,58.84,179.42l-58.97,179.8h326.4c3.24,2.68-55.65-170.06-58.84-179.42l58.97-179.8Z" style="fill: #fff;"/>
      <path d="M882.13,938.18l-1.28-1.03h-330.51l60.28-183.77c-3.02-8.85-17.19-50.45-30.91-91.48-8.4-25.11-15-45.12-19.62-59.5-2.73-8.5-4.8-15.12-6.14-19.67-2.39-8.07-3.03-10.24-.32-12.12l2.49-1.72,1.28,1.03h330.51l-60.28,183.77c3.03,8.9,17.32,50.85,30.91,91.48,8.4,25.11,15,45.13,19.62,59.5,2.73,8.5,4.8,15.12,6.14,19.66,2.39,8.08,3.03,10.25.32,12.12l-2.49,1.72ZM561.38,929.14h316.01c-5.56-19.57-32.67-100.57-57.76-174.13l-.43-1.27,57.67-175.82h-316.01c6.24,22.06,39.53,120.69,57.76,174.13l.43,1.27-57.67,175.82Z"/>
    </g>
    <path d="M773.52,863.82c-5.64-.24-12.97-1.4-13.8-5.71,1.34-70.24,1.28-140.48-.19-210.71h.05c0-3.43,7.94-5.14,13.9-5.95,3.85-.52,5.29-5.47,2.18-7.79-.04-.03-.09-.06-.13-.1-2.92-2.13-6.27-3.42-10.05-3.87-14.95-1.56-29.94-2.33-44.98-2.32-.03,0-.06,0-.09,0-14.99.02-30.02.82-45.08,2.4-3.78.46-7.13,1.75-10.04,3.89-.03.02-.06.04-.09.06-2.96,2.2-1.4,6.97,2.29,7.13,5.78.25,13.32,1.47,13.84,6.05-1.34,70.13-1.27,140.25.2,210.38h-.1c0,3.43-7.94,5.14-13.9,5.95-3.85.52-5.29,5.47-2.18,7.79.04.03.09.06.13.1,2.92,2.13,6.27,3.42,10.05,3.87,29.88,3.12,59.94,3.09,90.15-.09,3.78-.46,7.13-1.75,10.04-3.89.03-.02.06-.04.09-.06,2.96-2.2,1.4-6.97-2.29-7.13Z"/>
    <path d="M784.17,602.58c26.57,0,43.94,0,55.24.02l-48.59,146.26v.04s-.02.04-.02.04c-1.04,3.18-1.02,6.53.06,9.7,2.23,6.55,34.07,101.25,48.11,143.09-39.12.03-125.2.08-187.23.08-24.76,0-41.18,0-52.01-.02l47.71-143.57v-.03s.02-.03.02-.03c1.05-3.19,1.03-6.55-.05-9.71-.52-1.51-2.54-7.3-5.62-16.06-22.37-63.82-37.39-107.22-44.88-129.73,38.45-.03,124.06-.08,187.28-.08M784.17,587.58c-83.96,0-207.45.09-207.47.09-1.74.35,53.61,157.15,56.5,165.62.02.07.02.13,0,.2l-54.24,163.22c-.02.07,31.18.09,72.78.09,83.21,0,208.06-.09,208.06-.09.04,0-51.86-154.46-54.75-162.92-.02-.07-.02-.13,0-.2l55.12-165.92c.02-.07-32.75-.09-76.01-.09h0Z" style="fill: #010101;"/>
  </g>
</svg>