<svg width="317" height="320" viewBox="0 0 317 320" fill="none" xmlns="http://www.w3.org/2000/svg">
<g clip-path="url(#clip0_38_4956)">
<path d="M282.042 75.4864V260.185L157.92 320L31.9132 258.612V75.802L69.5566 0H242.826L282.042 75.4864Z" fill="#ED1E79"/>
<path opacity="0.41" d="M192.975 7.6803H122.75L157.96 147.589L192.975 7.6803Z" fill="white"/>
<path opacity="0.41" d="M273.823 79.7511L237.53 10.6338L157.499 147.845L273.823 79.7511Z" fill="white"/>
<path opacity="0.41" d="M40.1323 80.6368L75.8336 11.2249L157.748 147.648L40.1323 80.6368Z" fill="white"/>
<path opacity="0.41" d="M64.0319 268.149L128.032 297.086L157.93 146.787L64.0319 268.149Z" fill="white"/>
<path opacity="0.41" d="M248.743 267.558L184.742 296.495L157.796 146.787L248.743 267.558Z" fill="white"/>
<path opacity="0.41" d="M38.2634 146.9H157.748L38.6571 202.43L38.2634 146.9Z" fill="white"/>
<path opacity="0.41" d="M277.476 146.9H157.991L277.082 202.43L277.476 146.9Z" fill="white"/>
<path d="M157.856 313.446L36.6593 254.403V80.2585L73.1027 6.87305H239.339L277.294 79.9342V255.888L157.856 313.446ZM42.4069 250.804L157.869 307.054L271.547 252.272V81.3395L235.849 12.6267H76.6644L42.4087 81.6098V250.804H42.4069Z" fill="#010101"/>
<mask id="mask0_38_4956" style="mask-type:luminance" maskUnits="userSpaceOnUse" x="42" y="12" width="230" height="296">
<path d="M42.4069 250.804L157.869 307.054L271.547 252.272V81.3395L235.851 12.6267H76.6644L42.4069 81.6097V250.804Z" fill="white"/>
</mask>
<g mask="url(#mask0_38_4956)">
<path d="M49.8684 233.294C51.0597 230.909 98.9251 181.854 103.483 178.73C108.041 175.606 102.384 171.432 102.384 171.432C102.384 171.432 97.6206 160.404 100.299 153.548C102.98 146.692 111.507 135.658 111.507 135.658C111.507 135.658 109.53 127.616 111.317 124.933L113.104 122.25C113.104 122.25 109.234 105.259 118.166 97.8089C127.099 90.3571 137.984 77.7408 138.199 78.9822C138.413 80.2236 145.817 77.7112 145.817 77.7112C145.817 77.7112 145.261 80.8182 147.048 80.8182C148.835 80.8182 172.059 73.9626 176.229 65.6163C180.397 57.27 172.953 76.9423 172.953 76.9423C172.953 76.9423 186.054 75.1534 180.992 76.6442C175.931 78.1349 178.907 84.6923 186.352 82.6053C193.796 80.5183 210.471 76.9423 200.942 80.5183C191.413 84.0943 196.06 90.242 201.776 87.0199C207.492 83.7979 220.891 77.2405 225.357 64.1256C229.823 51.0107 230.795 46.5664 230.795 46.5664C230.795 46.5664 237.267 53.3958 234.886 62.0386C232.503 70.683 229.183 82.1799 219.827 87.1612C210.471 92.1425 213.787 92.9288 213.787 92.9288L224.197 88.6135C224.197 88.6135 228.335 97.5091 213.745 104.067L222.131 106.959C222.131 106.959 215.83 115.691 214.638 115.691C213.447 115.691 202.602 113.726 202.602 113.726L212.256 124.335L204.672 124.15L215.232 142.817L212.254 161.893L209.574 171.432L210.467 178.287L205.108 187.528L200.94 194.98L211.956 222.402C211.956 222.402 216.948 265.602 208.61 285.872L159.63 311.274L79.9632 272.876L49.8666 233.296L49.8684 233.294Z" fill="white"/>
<path d="M235.537 50.4301C235.252 49.2201 234.41 46.3415 232.745 45.7626C232.052 45.522 231.322 45.6981 230.577 46.2909C229.439 47.1941 228.09 51.1048 226.569 55.7426C226.125 57.0974 225.742 58.269 225.47 58.9472C219.702 73.4448 211.758 81.6777 201.212 84.0716C205.075 80.1556 207.168 76.0635 207.954 70.9463C208.024 70.4947 208.013 70.0187 208.001 69.5166C207.982 68.6169 207.961 67.6876 208.442 66.9832C208.492 66.9082 208.616 66.8455 208.746 66.7792C208.927 66.6868 209.133 66.5804 209.278 66.3799L209.506 66.0644C210.53 64.6469 211.338 63.5293 210.997 61.4021C210.753 59.88 209.521 59.4424 208.86 59.207C208.788 59.1826 208.705 59.1512 208.635 59.1251C209.326 57.2682 209.866 52.0428 208.452 49.8163C208.004 49.112 207.377 48.7388 206.641 48.7388H206.529L204.566 50.111C204.528 49.7344 204.488 49.2898 204.443 48.8033C203.969 43.6547 203.319 38.0597 201.572 36.8235C201.163 36.5341 200.56 36.4068 200.076 36.3039C199.881 36.2621 199.62 36.208 199.521 36.1645C199.418 35.9465 199.271 35.1689 199.174 34.6458C199.066 34.0687 198.963 33.523 198.853 33.183C198.383 31.7463 196.648 27.0475 194.032 26.9237C192.705 26.8575 191.491 28.0256 190.431 30.3864C190.415 30.3689 190.396 30.3463 190.38 30.3288C190.34 30.2818 190.296 30.2312 190.241 30.1771C189.79 29.7308 189.293 29.0299 188.811 28.3517C188.368 27.7292 187.912 27.0841 187.461 26.5907C181.396 19.9356 174.412 16.445 166.108 15.9202C163.68 15.7686 159.716 16.4224 158.923 18.3141C158.657 18.9505 158.751 19.6427 159.202 20.3854C158.962 20.2285 158.716 20.0594 158.467 19.8885C157.054 18.9191 155.593 17.9183 154.153 18.1973C152.59 18.4989 144.65 23.618 143.255 24.7774C141.053 26.6099 140.322 27.8356 141.503 30.6828C142.828 33.8822 146.049 35.4043 150.57 34.9649C151.214 34.9021 151.991 34.6545 152.744 34.4139C153.55 34.1559 154.386 33.8874 154.891 33.917C155.969 33.9763 158.279 34.8673 160.317 35.6536C161.482 36.1034 162.583 36.5289 163.354 36.759C164.324 37.0484 165.378 37.2977 166.493 37.561C170.164 38.4276 174.325 39.4092 176.455 42.2424C180.064 47.0424 179.771 52.3584 178.888 55.9745C177.765 60.5844 175.036 65.0636 171.406 68.263C166.898 72.2365 156.682 76.4035 149.048 78.8584C149.891 77.8838 150.821 76.353 150.547 75.2598C150.443 74.8396 150.115 74.2956 149.161 74.0864C146.622 73.5267 138.371 78.4714 138.021 78.6823C130.095 83.4527 124.033 89.2761 119.986 95.9991C119.829 94.6026 119.442 93.8494 118.798 93.6558C117.955 93.4065 116.898 94.2242 115.558 96.1613C111.634 101.837 109.753 110.27 110.649 118.168C110.701 118.625 110.896 119.263 111.086 119.879C111.241 120.383 111.434 121.01 111.424 121.209C111.411 121.348 111.155 121.854 110.985 122.189C110.76 122.63 110.528 123.087 110.429 123.428C109.407 126.935 109.184 129.897 109.71 133.009C105.322 137.748 101.733 143.676 99.0401 150.635C98.9547 150.856 98.8415 151.133 98.7109 151.451C97.6659 154.008 95.7221 158.772 97.1782 160.566C97.6206 161.112 98.3138 161.338 99.2421 161.244C99.2752 162.206 99.1864 163.146 99.0941 164.133C99.0122 165.008 98.9269 165.915 98.9356 166.834C98.9478 168.091 99.1707 171.967 99.5939 173.248C100.101 174.777 100.855 174.863 102.05 174.852L103.074 178.564C97.1242 182.046 92.5 186.607 87.6075 191.433C86.7541 192.274 85.8989 193.119 85.0351 193.958C84.0162 194.948 82.9642 195.914 81.9488 196.851C79.9963 198.648 77.9759 200.507 76.1193 202.583C74.9959 203.84 73.4911 205.832 71.8991 207.941C68.8965 211.916 65.4932 216.423 63.3683 217.759C62.8214 218.103 62.1874 218.413 61.5169 218.741C59.7908 219.585 58.0056 220.46 57.6346 222.024C57.4134 222.953 57.7217 223.992 58.5786 225.192C58.1397 225.704 57.551 226.172 56.9327 226.663C55.4052 227.877 53.6722 229.252 54.3846 231.566L54.4055 231.632L54.449 231.686C54.935 232.279 55.5812 232.305 56.1019 232.328C56.2813 232.335 56.452 232.342 56.607 232.37C56.6453 232.377 56.6819 232.38 56.7167 232.384C55.4331 236.73 54.2313 241.238 53.0435 246.163C52.6777 247.676 52.2353 249.369 51.7651 251.162C50.5703 255.721 49.217 260.889 48.7537 264.711C48.536 266.508 48.9087 267.849 49.7273 268.21C50.4275 268.519 51.267 268.114 52.2197 267.005L52.2789 266.937L52.298 266.85C53.4894 261.292 54.6772 255.852 56.1159 250.396C56.4015 249.314 56.9641 247.509 57.6155 245.418C59.4582 239.506 61.9836 231.407 61.5865 229.048C61.5378 228.762 61.3671 228.518 61.2156 228.304C61.1807 228.255 61.1354 228.191 61.1006 228.137C61.9088 227.491 63.377 226.107 63.4118 224.561C63.4275 223.839 63.1367 223.183 62.5445 222.611C62.9346 222.257 64.1259 221.57 64.8749 221.14C65.5663 220.742 66.162 220.397 66.4441 220.177C67.0659 219.687 67.7173 219.004 68.2903 218.401L68.4558 218.228C71.8835 214.64 75.2188 210.778 78.4427 207.043C85.002 199.448 91.7841 191.594 99.8134 185.474C101.642 184.081 103.948 182.54 104.61 182.355C104.788 182.683 104.965 183.014 105.141 183.343C106.796 186.431 108.36 189.348 110.112 189.149C111.272 189.017 112.242 187.561 113.141 184.586C115.295 188.666 117.011 191.116 118.756 190.936C120.298 190.776 121.572 188.574 122.887 183.797C124.042 179.605 124.608 176.144 124.648 172.987C125.038 173.367 125.495 173.895 125.967 174.443C127.378 176.083 128.978 177.942 130.539 178.001C131.098 178.024 131.61 177.809 132.054 177.367C133.275 176.15 132.947 174.39 132.658 172.837C132.564 172.335 132.476 171.85 132.434 171.397C134.529 173.311 137.223 175.114 140.289 174.165C141.524 173.784 142.497 172.901 143.438 172.049C143.929 171.604 144.39 171.184 144.883 170.837L144.937 170.799L146.798 168C147.233 172.912 148.062 176.707 149.387 179.881C150.03 181.42 150.911 183.528 152.496 184.067C153.167 184.295 153.9 184.222 154.679 183.849C156.481 187.109 159.533 190.304 162.536 192.056C164.359 193.119 166.648 194.244 168.161 193.491C168.793 193.175 169.213 192.57 169.41 191.688C172.329 193.231 175.72 194.927 179.097 196.134C179.272 196.197 179.467 196.268 179.679 196.347C182.043 197.217 186 198.671 187.853 197.334C188.408 196.933 188.722 196.322 188.79 195.517C192.606 196.716 196.084 197.602 199.592 196.844C200.705 200.515 202.008 204.275 203.467 208.025C204.349 210.288 205.211 212.305 206.045 214.255C208.28 219.476 210.211 223.987 211.345 230.635C213.653 244.158 213.144 255.721 209.694 268.126C209.493 268.846 209.164 269.668 208.816 270.538C208.269 271.903 207.705 273.313 207.597 274.466C207.55 274.977 207.614 275.386 207.677 275.782C207.75 276.246 207.82 276.684 207.701 277.282C207.444 278.577 206.804 279.613 206.129 280.708C205.305 282.043 204.455 283.422 204.148 285.426C204.136 285.511 204.052 285.645 203.979 285.762C203.866 285.942 203.739 286.148 203.715 286.379C203.654 286.962 203.878 287.459 204.328 287.743C204.58 287.902 204.88 287.982 205.193 287.982C205.557 287.982 205.94 287.875 206.285 287.663C206.959 287.249 209.523 283.116 209.807 282.591C210.565 281.192 211.838 278.56 211.848 276.642C211.85 276.246 211.777 275.909 211.707 275.582C211.604 275.102 211.505 274.651 211.632 273.992C211.831 272.958 212.432 271.545 213.013 270.18C213.458 269.138 213.917 268.06 214.194 267.15C218.017 254.63 217.991 236.216 214.132 223.363C212.474 217.839 210.211 212.457 208.022 207.251C206.418 203.434 204.76 199.489 203.354 195.524C203.547 195.311 203.781 195.145 204.025 194.971C204.439 194.675 204.909 194.34 205.209 193.724C205.618 192.879 205.972 191.521 206.383 189.946C207.154 186.982 208.116 183.293 209.739 182.444C210.006 182.304 210.34 182.231 210.694 182.154C211.268 182.029 211.92 181.887 212.44 181.408C214.137 179.853 213.17 177.407 212.237 175.042C211.556 173.318 210.852 171.533 211.275 170.269L211.291 170.202C211.326 169.929 211.489 169.827 211.911 169.63C212.165 169.512 212.453 169.378 212.696 169.139C214.034 167.828 214.591 164.06 214.626 162.065C215.833 162.114 216.594 161.474 216.83 160.194L216.838 160.153L216.835 160.109C216.518 155.014 216.03 150.819 215.304 146.973C216.178 147.334 217.145 147.608 218.138 146.748L218.204 146.672C218.838 145.678 218.355 144.414 217.969 143.397C217.908 143.237 217.848 143.083 217.798 142.939C215.95 137.696 212.881 132.216 210.173 127.381L209.873 126.844C210.255 126.903 210.713 127.069 211.16 127.229C212.4 127.676 213.942 128.232 214.668 126.738C215.781 124.448 212.723 121.165 210.49 118.77C209.983 118.226 209.539 117.748 209.227 117.37C212.991 118.759 216.302 116.557 218.817 114.409C221.011 112.537 223.582 109.916 223.364 108.071C223.293 107.456 222.931 106.978 222.292 106.652C221.368 106.18 219.928 106.047 218.406 105.908C217.157 105.793 215.875 105.674 214.891 105.364C219.829 103.081 223.054 100.344 225.005 96.7942C225.82 95.3104 227.851 90.6709 226.531 88.8873C226.057 88.2456 225.247 88.0416 224.127 88.277C223.415 88.427 222.185 89.0982 220.881 89.8079C219.808 90.3937 218.697 90.9987 217.909 91.2916L217.835 91.3195C217.079 91.6002 216.07 91.9751 215.135 92.254C216.523 91.588 217.887 90.7005 218.803 89.9351L218.965 89.8009C219.616 89.2639 220.651 88.4095 220.337 87.4053C226.444 85.7663 231.315 80.3736 234.092 72.1633C236.441 65.21 237.011 56.6824 235.541 50.4388L235.537 50.4301ZM210.835 86.0279C209.368 86.1639 207.851 86.3051 206.616 86.6032C206.073 86.734 204.779 87.1315 204.495 87.9893C204.403 88.2666 204.383 88.7059 204.808 89.2133C205.305 89.8427 206.554 89.8235 207.788 89.7486L208.041 89.7346C209.507 89.6614 211 89.3789 212.444 89.1052C213.437 88.9169 214.454 88.7251 215.461 88.6013C214.254 89.3406 212.959 89.8898 211.716 90.378C210.896 90.7005 209.413 91.0963 207.844 91.5148C205.131 92.2401 202.326 92.9898 201.532 93.6959C201.226 93.9679 200.956 94.3393 200.75 94.7717L200.719 94.838V94.9112C200.689 95.7411 201.311 96.517 202.133 96.6774C203.535 96.9511 207.651 96.7733 209.131 96.653C212.688 96.3635 216.911 95.103 219.677 94.0202C220.644 93.6419 221.584 93.1764 222.494 92.7265C222.826 92.5626 223.166 92.3935 223.507 92.2314C222.767 95.1832 220.404 98.3041 217.19 100.517C213.97 102.734 210.498 103.678 207.663 103.101C207.428 103.053 207.008 102.865 206.566 102.665C205.465 102.171 204.094 101.556 203.241 101.974C202.908 102.138 202.689 102.431 202.588 102.846L202.581 102.89C202.509 103.524 202.71 104.066 203.147 104.413C203.61 104.783 205.686 105.58 207.656 106.312L207.9 106.403C211.108 107.601 215.286 108.987 219.416 109.186C219.402 109.198 219.386 109.213 219.369 109.229C219.301 109.292 219.216 109.369 219.139 109.47C217.986 110.974 214.318 114.21 212.616 114.559C211.819 114.723 211.174 114.545 210.429 114.339C210.265 114.294 210.098 114.249 209.925 114.203C209.349 114.057 208.396 113.654 207.477 113.265C206.106 112.685 204.81 112.136 204.146 112.13C203.413 112.118 202.372 112.852 202.258 113.682C202.034 115.328 204.319 117.64 206.338 119.68C207.055 120.405 207.741 121.099 208.179 121.64C208.102 121.612 208.025 121.582 207.959 121.556C207.604 121.418 207.235 121.275 206.916 121.296C206.153 121.345 205.293 121.838 204.775 122.524C204.371 123.061 204.214 123.666 204.335 124.227L204.357 124.298C205.333 126.455 206.51 128.565 207.649 130.605C209.326 133.607 211.056 136.709 212.148 139.985C211.563 140.137 211.12 140.44 210.828 140.886C209.972 142.198 210.61 144.4 211.174 146.342C211.359 146.98 211.533 147.582 211.624 148.065C211.864 149.337 212.043 150.65 212.216 151.918C212.303 152.554 212.39 153.189 212.484 153.824C211.885 153.869 211.446 154.052 211.15 154.38C210.594 154.988 210.699 155.9 210.798 156.781C210.833 157.091 210.866 157.382 210.869 157.652L210.873 157.896C210.946 162.546 210.587 163.898 210.274 164.21C210.213 164.271 210.094 164.3 209.957 164.337C209.746 164.391 209.483 164.459 209.278 164.688C209.208 164.764 207.855 166.703 207.774 166.89C206.547 169.789 207.773 174.899 208.793 177.773C207.492 177.97 206.402 178.655 205.693 179.732L205.65 179.825C205.214 181.277 204.672 182.728 204.15 184.13C203.776 185.134 203.387 186.173 203.041 187.207C202.906 187.61 202.771 188.176 202.628 188.778C202.325 190.051 201.91 191.793 201.381 192.227C199.477 193.789 195.398 193.247 193.733 192.942C192.662 192.745 190.967 192.119 189.33 191.512C187.221 190.731 185.228 189.993 184.183 189.993C184.162 189.993 184.141 189.993 184.12 189.993C183.291 190.018 182.562 190.549 182.22 191.381C181.989 191.944 181.973 192.554 182.158 193.09C179.433 192.324 176.831 191.038 174.306 189.791C172.867 189.08 171.378 188.346 169.887 187.714C169.713 187.641 169.528 187.561 169.335 187.476C167.844 186.822 165.991 186.007 164.608 186.621C164.107 186.844 163.716 187.238 163.445 187.795C161.43 186.175 159.221 184.226 157.702 181.6C157.483 181.221 157.276 180.728 157.056 180.207C156.469 178.815 155.863 177.377 154.717 177.143C154.106 177.018 153.458 177.264 152.742 177.891C152.268 177.14 151.488 173.859 151.112 171.676C150.69 169.224 150.236 166.431 150.201 164.309C150.19 163.681 150.276 163.014 150.358 162.369C150.46 161.561 150.558 160.798 150.483 160.104C150.234 157.795 150.272 157.243 150.398 155.408C150.42 155.091 150.445 154.735 150.469 154.327C150.518 153.548 150.499 152.756 150.478 151.991C150.46 151.339 150.443 150.664 150.471 150.014L150.478 149.862L150.371 149.754C150.236 149.613 150.053 149.547 149.847 149.562C148.992 149.622 147.79 151.187 147.778 151.205C146.846 152.474 146.604 154.504 146.371 156.467C146.259 157.401 146.155 158.285 145.981 159.047C145.193 162.489 142.893 168.492 140.066 169.946C139.378 170.3 138.695 170.347 137.978 170.084C136.049 169.383 134.28 166.553 133.264 164.14C132.031 161.207 132.061 159.739 132.874 156.803C133.061 156.883 133.224 157.04 133.437 157.253C133.648 157.464 133.888 157.705 134.21 157.872C136.741 159.183 139.98 158.315 141.747 155.853C142.024 155.468 142.22 155.042 142.412 154.631C142.605 154.214 142.788 153.82 143.018 153.559C143.871 152.587 145.256 151.632 146.721 150.621C148.581 149.337 150.502 148.012 151.789 146.389C152.529 145.455 154.313 142.498 153.508 141.239C153.167 140.705 152.481 140.559 151.469 140.805L151.317 140.841L151.242 140.979C150.964 141.495 150.784 142.055 150.61 142.595C150.439 143.123 150.279 143.624 150.035 144.079C148.416 147.107 141.186 151.186 137.692 151.56C136.645 151.672 135.684 151.55 134.834 151.444C132.725 151.177 130.904 150.945 129.591 154.538C127.87 159.244 128.027 164.754 128.201 169.657C122.382 161.108 119.038 152.568 118.255 144.258C117.91 140.606 118.155 132.399 120.292 129.067C123.044 124.778 130.619 122.862 135.027 125.338C135.457 125.578 137.006 127.278 138.136 128.52C138.894 129.351 139.608 130.136 140.008 130.516C140.395 130.884 140.848 131.194 141.287 131.494C141.686 131.766 142.064 132.024 142.386 132.317C146.172 135.771 147.005 139.839 147.12 145.282V145.367L147.163 145.442C147.306 145.702 147.538 145.845 147.808 145.824C148.691 145.77 149.666 143.932 149.75 143.725C151.115 140.313 149.361 135.225 147.019 132.169C145.624 130.349 143.889 128.975 142.213 127.646C141.111 126.773 139.972 125.869 138.974 124.867C138.443 124.333 137.972 123.692 137.518 123.069C136.838 122.142 136.135 121.183 135.189 120.51L135.097 120.445H129.774C129.912 120.145 129.976 119.777 129.962 119.356C129.926 118.275 129.34 116.803 128.612 116.449C127.623 115.97 127.102 116.217 126.841 116.508C126.127 117.305 126.723 119.228 127.256 120.081C127.358 120.245 127.472 120.365 127.583 120.456C127.578 120.456 127.573 120.456 127.567 120.456C127.249 120.477 126.947 120.498 126.686 120.461C125.941 120.356 125.08 119.314 124.321 118.395C123.459 117.35 122.645 116.365 121.768 116.317C121.41 116.299 121.078 116.433 120.782 116.723C119.752 117.729 121.081 119.298 122.051 120.444C122.304 120.74 122.626 121.122 122.776 121.361C121.936 121.605 121.177 122.119 120.656 122.506C120.444 122.665 120.188 122.926 119.916 123.204C119.599 123.528 118.864 124.288 118.627 124.255C111.058 119.019 114.266 108.919 117.492 101.601C118.467 102.299 119.176 102.541 120.369 101.469L120.423 101.408C121.21 100.266 121.942 99.0643 122.647 97.9031C123.814 95.9835 125.023 93.9976 126.505 92.2593C130.911 87.0967 137.039 82.5565 145.221 78.3981C145.143 78.4958 145.049 78.6004 144.943 78.719C144.647 79.045 144.312 79.4129 144.154 79.9063C143.871 80.7868 143.955 81.4755 144.401 81.955C145.622 83.2661 149.243 82.3786 151.187 81.9009C151.43 81.8416 151.641 81.7893 151.807 81.7527C159.899 79.9481 168.227 75.8735 174.086 70.8539C181.417 64.5736 184.857 57.0869 184.035 49.2079C182.797 37.3361 171.378 34.1943 162.203 31.6696L161.28 31.4151C162.144 31.1867 163.008 30.946 163.849 30.7107C171.409 28.601 178.55 26.6099 183.941 34.1698C186.505 37.7668 188.785 42.5824 188.1 53.3697C188.06 54.013 187.809 55.2335 187.565 56.4139C187.17 58.3353 186.937 59.5366 187.026 60.0474C187.181 60.9453 187.743 61.5573 188.492 61.6462C189.361 61.7526 190.204 61.1563 190.647 60.1346C192.728 55.3294 192.104 42.6731 190.114 37.7197C187.529 31.2913 184.174 27.581 179.557 26.045C175.593 24.7251 170.812 24.9657 163.572 26.847C161.522 27.3788 159.482 28.1703 157.511 28.934C155.386 29.757 153.381 30.5346 151.362 31.0193C148.085 31.8056 145.97 31.4029 144.897 29.7866C144.133 28.6341 144.173 28.5975 145.216 27.656C146.763 26.2577 149.109 25.0564 151.378 23.8952C152.857 23.1385 154.254 22.4219 155.431 21.6617C155.954 21.6739 157.27 22.6207 158.072 23.196C158.561 23.5482 158.984 23.8516 159.298 24.0259C160.803 24.8646 164.451 26.7232 165.846 25.8828C166.261 25.6335 166.5 25.2987 166.555 24.8873C166.705 23.7923 165.481 22.4916 164.399 21.3444C163.931 20.8475 163.29 20.1658 163.255 19.9374C163.25 19.9007 163.255 19.885 163.271 19.8641C163.432 19.6444 164.162 19.5381 164.472 19.4928C164.516 19.4858 164.558 19.4805 164.596 19.4736C165.004 19.7386 165.442 20.4744 165.869 21.1875C166.508 22.2563 167.17 23.3617 168.067 23.5831C168.438 23.6738 168.813 23.6075 169.18 23.3826C169.508 23.1821 169.715 22.8909 169.781 22.5405C169.953 21.6234 169.126 20.4796 168.574 19.7491C172.625 20.1971 175.997 21.2903 178.608 23.006C185.88 27.7833 190.634 35.406 192 44.4689C193.287 53.0122 191.415 62.2146 186.86 69.7206C186.559 70.2175 185.866 71.0892 185.134 72.0133C183.373 74.2328 182.218 75.741 182.227 76.4698C182.236 77.345 182.675 77.6746 182.936 77.7949C183.593 78.0965 184.462 77.7443 185.031 77.2614C189.37 73.5912 191.909 67.4505 193.275 62.9434C194.952 57.4112 195.769 51.2269 195.461 46.3973C195.34 44.509 194.672 42.0663 194.025 39.7021C193.289 37.0083 192.526 34.2239 192.721 32.6495C192.818 31.8649 193.304 30.5381 193.815 30.3271C193.897 30.294 194.015 30.273 194.208 30.4247C195.145 31.1605 195.558 33.2318 195.922 35.059C196.19 36.4068 196.445 37.6813 196.898 38.4032C197.467 39.308 198.319 39.3447 198.941 39.3726C199.226 39.3848 199.496 39.397 199.615 39.4685C200.158 40.0735 201.299 47.7189 201.409 49.5147C201.442 50.0552 201.412 51.0978 201.381 52.1998C201.302 54.9389 201.271 56.9282 201.584 57.5699C201.762 57.9325 202.091 58.1906 202.515 58.2952C203.034 58.4242 203.647 58.3074 204.075 57.997C204.592 57.6204 204.916 56.6929 205.291 55.6206C205.538 54.9127 205.808 54.1421 206.125 53.6016C206.129 53.7428 206.134 53.8823 206.139 54.02C206.156 54.5361 206.176 55.0696 206.13 55.57C206.041 56.5377 205.521 59.8748 205.256 60.7239C205.15 61.0674 204.695 61.4457 204.256 61.8136C203.389 62.5389 202.307 63.4438 202.974 64.7951C203.173 65.1961 203.445 65.428 203.784 65.4855C204.528 65.6093 205.294 64.8439 206.179 63.9582C206.79 63.3462 207.527 62.6087 208.058 62.4831C207.922 63.1771 207.193 63.8344 206.538 64.4237C206.054 64.8613 205.634 65.2379 205.47 65.6215C205.326 65.9615 205.317 66.291 205.31 66.5822C205.305 66.7792 205.299 66.964 205.252 67.114C205.01 67.8742 201.844 70.1809 199.301 72.036C196.727 73.9138 194.295 75.6852 193.564 76.672L193.473 76.7941L193.778 78.4731L193.867 78.5533C194.156 78.8148 194.515 78.9282 194.957 78.9003C196.082 78.8305 198.287 77.012 201.523 74.245C202.783 73.1693 203.988 72.1388 204.843 71.5199C203.692 76.2693 200.461 82.1572 194.759 84.2529C191.899 85.3043 187.518 85.7384 183.044 85.4194C182.145 85.3549 180.816 85.1055 179.409 84.8405C176.116 84.2198 172.383 83.5189 170.673 84.3837C170.114 84.6662 169.518 85.2468 169.527 85.8553C169.53 86.1307 169.657 86.5143 170.234 86.7846C170.6 86.9554 171.679 87.0321 173.416 87.1367C174.334 87.1925 175.201 87.2448 175.659 87.3146C177.377 87.5796 178.907 87.8446 180.386 88.0992C188.015 89.4173 192.618 90.2123 201.863 87.3599C216.685 82.7866 223.007 73.5476 228.407 60.1241C228.955 58.7624 229.445 57.188 229.92 55.6659C230.535 53.6957 231.171 51.6575 231.934 50.0622C231.958 50.0099 231.984 49.9541 232.008 49.8965C232.042 49.8198 232.073 49.7518 232.103 49.6926C234.769 60.485 231.618 73.5581 226.907 79.1566C222.952 83.8554 219.846 84.6051 214.247 85.6181C213.195 85.8082 211.986 85.9215 210.817 86.0296L210.835 86.0279ZM113.029 126.324C112.92 126.991 112.806 127.677 112.833 128.453C112.845 128.846 112.991 129.491 113.158 130.239C113.345 131.065 113.723 132.748 113.569 133.138L113.144 133.199C112.3 130.783 112.213 128.474 112.867 125.962L113.193 125.135C113.158 125.536 113.096 125.922 113.029 126.324ZM102.969 165.416C102.943 164.414 102.915 163.376 102.968 162.374C102.99 161.934 103.095 161.343 103.204 160.719C103.518 158.948 103.873 156.941 102.964 155.876C102.654 155.511 102.224 155.295 101.682 155.225C103.265 149.081 106.531 142.799 111.653 136.045L113.303 136.369C111.147 144.949 113.93 152.497 116.974 159.499C117.288 160.221 118.073 161.708 118.904 163.284C120.062 165.479 121.649 168.487 121.733 169.076C121.846 169.885 121.741 171.93 121.438 174.838C120.979 179.237 119.693 183.533 118.477 187.183C118.403 187.153 118.335 187.075 118.213 186.916C118.162 186.85 118.108 186.782 118.051 186.715C117.575 186.177 116.99 184.993 116.422 183.847C115.351 181.684 114.646 180.351 113.865 180.088C113.541 179.978 113.23 179.924 112.937 179.924C112.557 179.924 112.204 180.015 111.882 180.196C110.746 180.834 110.239 182.463 109.92 183.781C109.18 182.534 107.632 178.779 107.327 177.895C107.165 177.426 106.904 176.387 106.599 175.184C105.436 170.574 104.809 168.464 104.166 168.161C103.769 167.972 103.358 167.974 102.99 167.983C103.013 167.125 102.99 166.257 102.968 165.413L102.969 165.416Z" fill="black"/>
<path d="M109.212 202.873C109.537 202.773 109.917 202.759 110.251 202.817C111.039 202.953 114.593 207.701 115.238 208.682C125.711 224.629 121.222 243.515 111.298 258.345C107.989 263.29 100.05 273.903 95.5375 277.322C94.6684 277.979 92.9354 279.093 92.2022 277.604C91.4689 276.115 94.186 274.822 95.1352 273.861C102.393 266.519 113.839 248.506 115.87 238.457C117.711 229.345 115.78 216.952 111.181 208.85C110.551 207.739 106.794 203.602 109.21 202.871L109.212 202.873Z" fill="black"/>
<path d="M109.853 203.134C109.666 203.134 109.478 203.16 109.313 203.209C108.94 203.323 108.842 203.502 108.799 203.628C108.498 204.531 109.99 206.573 110.791 207.671C111.105 208.1 111.352 208.438 111.488 208.677C116.084 216.777 118.073 229.333 116.215 238.528C114.076 249.111 102.288 267.127 95.386 274.11C95.116 274.382 94.7294 274.666 94.3201 274.968C93.0608 275.894 92.129 276.663 92.5174 277.451C92.6602 277.742 92.8483 277.911 93.0922 277.969C93.444 278.052 94.1163 277.958 95.325 277.043C99.9353 273.549 108.024 262.606 111.006 258.152C116.279 250.273 119.585 241.883 120.567 233.892C121.698 224.697 119.806 216.281 114.944 208.877C114.017 207.467 110.817 203.357 110.182 203.164C110.074 203.146 109.962 203.136 109.849 203.136L109.853 203.134Z" fill="black"/>
<path d="M202.823 221.513C203.114 221.82 203.363 223.778 203.441 224.371C204.378 231.414 203.612 238.606 204.282 245.635C207.806 243.471 207.421 248.845 207.346 251.068C207.125 257.604 205.599 264.644 203.452 270.801C202.818 272.619 199.101 281.844 197.993 282.585C196.903 283.316 196.105 282.43 196.283 281.152C196.488 279.682 198.946 275.5 199.688 273.706C202.971 265.769 204.847 257.334 204.833 248.693C202.898 249.434 202.116 248.403 201.802 246.583C200.914 241.428 201.668 234.732 201.513 229.357C201.475 227.997 200.485 222.029 201.415 221.422C201.811 221.187 202.502 221.175 202.823 221.511V221.513Z" fill="black"/>
<path d="M197.237 283.201C197.011 283.201 196.797 283.142 196.605 283.021C196.072 282.687 195.816 281.953 195.934 281.105C196.074 280.11 197.093 278.122 198.078 276.199C198.603 275.175 199.099 274.21 199.362 273.573C202.704 265.49 204.425 257.285 204.479 249.179C203.793 249.359 203.209 249.315 202.739 249.049C202.09 248.679 201.67 247.893 201.454 246.646C200.874 243.276 200.987 239.276 201.097 235.407C201.158 233.273 201.215 231.256 201.159 229.369C201.151 229.045 201.079 228.409 200.999 227.673C200.564 223.713 200.478 221.614 201.22 221.129C201.759 220.81 202.624 220.796 203.075 221.271C203.333 221.543 203.53 222.374 203.775 224.242L203.786 224.323C204.296 228.166 204.305 232.103 204.31 235.911C204.315 238.926 204.321 242.036 204.578 245.068C205.333 244.712 205.974 244.683 206.486 244.984C207.781 245.743 207.797 248.238 207.703 250.728L207.691 251.078C207.482 257.234 206.092 264.28 203.777 270.916C203.326 272.21 199.468 282.019 198.183 282.878C197.864 283.093 197.537 283.201 197.232 283.201H197.237ZM205.181 248.182V248.693C205.195 257.05 203.455 265.509 200.01 273.842C199.735 274.506 199.233 275.484 198.702 276.52C197.833 278.214 196.751 280.324 196.628 281.203C196.551 281.756 196.69 282.247 196.976 282.425C197.242 282.592 197.568 282.446 197.794 282.294C198.747 281.656 202.351 272.879 203.115 270.686C205.407 264.116 206.783 257.144 206.991 251.057L207.003 250.703C207.059 249.244 207.174 246.205 206.132 245.595C205.752 245.373 205.191 245.488 204.46 245.936L203.979 246.231L203.925 245.67C203.617 242.437 203.612 239.121 203.605 235.914C203.598 232.129 203.591 228.215 203.086 224.418L203.075 224.336C202.812 222.35 202.64 221.865 202.558 221.754C202.375 221.569 201.879 221.555 201.588 221.727C201.088 222.093 201.529 226.091 201.694 227.598C201.78 228.379 201.847 228.998 201.858 229.35C201.914 231.258 201.856 233.284 201.795 235.428C201.687 239.262 201.574 243.225 202.144 246.527C202.321 247.554 202.628 248.179 203.082 248.438C203.471 248.66 204 248.637 204.7 248.369L205.176 248.186L205.181 248.182Z" fill="black"/>
<path d="M129.271 228.081C130.478 227.186 131.852 226.494 133.167 227.654C137.486 233.139 140.945 239.532 146.028 244.386C146.54 244.876 149.657 247.699 150.095 247.263L147.019 233.5C147.019 232.645 147.675 232.049 148.513 232.29C149.081 232.523 149.26 233.045 149.469 233.576C150.434 236.031 151.754 241.975 152.237 244.707C153.409 251.345 149.912 251.083 145.786 247.551C140.311 242.866 135.929 235.792 131.998 229.8C131.162 229.306 130.1 231.188 128.226 230.375C126.756 229.737 126.007 226.023 125.739 224.527C125.298 222.074 124.878 218.465 124.802 215.991C124.76 214.662 125.591 213.092 126.775 214.314C127.548 215.112 127.691 226.138 129.273 228.082L129.271 228.081Z" fill="black"/>
<path d="M131.695 229.362C131.855 229.362 132.017 229.401 132.178 229.495L132.249 229.537L132.294 229.605C132.639 230.129 132.986 230.663 133.338 231.202C136.957 236.751 141.059 243.042 146.015 247.282C148.285 249.223 150.232 250.041 151.227 249.472C152.103 248.97 152.34 247.3 151.892 244.766C151.423 242.113 150.103 236.146 149.144 233.704L149.112 233.625C148.91 233.109 148.767 232.781 148.398 232.623C148.133 232.553 147.895 232.59 147.708 232.731C147.503 232.886 147.381 233.151 147.372 233.463L150.483 247.376L150.345 247.512C149.685 248.173 147.207 245.997 145.787 244.641C142.489 241.49 139.841 237.656 137.279 233.95C135.882 231.927 134.437 229.835 132.913 227.896C131.991 227.101 130.995 227.239 129.482 228.361L129.212 228.562L128.999 228.3C128.006 227.08 127.583 222.909 127.209 219.231C127.012 217.287 126.764 214.868 126.517 214.549C126.245 214.268 126.007 214.167 125.813 214.248C125.43 214.41 125.127 215.201 125.152 215.974C125.223 218.293 125.615 221.862 126.083 224.458C126.864 228.797 127.848 229.821 128.365 230.046C129.299 230.45 129.971 230.089 130.621 229.741C130.972 229.551 131.333 229.357 131.693 229.357L131.695 229.362Z" fill="black"/>
<path d="M157.967 240.859C158.47 240.343 159.256 240.608 159.688 241.084C160.654 242.153 161.797 244.665 162.788 246.043C163.887 247.57 166.608 251.354 168.586 251.367C169.931 251.376 170.99 250.119 172.632 250.646C173.74 251 175.257 253.667 176.523 254.535C180.996 257.602 186.966 252.612 189.979 249.415C190.972 248.362 193.668 244.406 194.564 243.987C195.426 243.584 196.288 244.121 196.229 245.079C196.119 246.887 189.046 253.838 187.311 255.085C183.492 257.831 178.888 259.447 174.747 256.312C173.463 255.341 172.874 254.005 171.603 253.067C167.341 255.229 164.533 252.426 162.109 249.225C161.332 248.199 157.694 242.632 157.648 241.764C157.634 241.503 157.782 241.049 157.967 240.863V240.859Z" fill="black"/>
<path d="M171.638 252.654L171.812 252.783C172.488 253.282 172.979 253.883 173.452 254.467C173.918 255.038 174.355 255.575 174.959 256.031C178.331 258.584 182.417 258.169 187.106 254.799C189.029 253.416 195.783 246.611 195.877 245.056C195.896 244.74 195.783 244.475 195.563 244.327C195.33 244.168 195.02 244.16 194.71 244.304C194.219 244.535 192.846 246.329 191.843 247.64C191.18 248.508 190.605 249.26 190.232 249.655C182.633 257.721 177.972 255.958 176.321 254.825C175.708 254.405 175.062 253.618 174.438 252.858C173.778 252.053 173.029 251.141 172.521 250.979C171.667 250.707 170.99 250.986 170.272 251.28C169.748 251.496 169.208 251.718 168.598 251.718H168.581C166.423 251.704 163.675 247.88 162.501 246.247C162.06 245.635 161.59 244.801 161.133 243.994C160.55 242.962 159.947 241.895 159.425 241.318C159.216 241.086 158.911 240.932 158.648 240.929C158.477 240.92 158.335 240.983 158.216 241.103C158.11 241.213 157.988 241.565 157.998 241.741C158.04 242.434 161.423 247.734 162.387 249.008C165.125 252.623 167.712 254.642 171.443 252.75L171.636 252.652L171.638 252.654Z" fill="black"/>
<path d="M162.894 230.917C164.053 225.303 166.547 231.611 168.318 233.135C170.779 235.252 173.207 235.445 176.284 234.729C178.011 234.328 181.321 232.382 182.501 232.305C183.92 232.213 184.275 233.983 182.809 234.865C178.627 237.382 172.064 238.854 167.806 235.873C167.095 235.374 165.024 232.975 164.66 232.907C164.375 232.853 163.532 233.444 162.757 233.449C158.416 233.475 153.21 222.174 152.902 218.514C152.772 216.95 154.351 216.389 155.057 217.775C155.659 218.959 156.107 221.274 156.736 222.766C157.932 225.608 159.928 229.7 162.893 230.919L162.894 230.917Z" fill="black"/>
<path d="M164.62 232.549C164.657 232.549 164.692 232.553 164.727 232.56C164.993 232.61 165.34 232.938 166.486 234.117C167.057 234.704 167.703 235.37 168.008 235.583C170.885 237.599 176.689 238.139 182.628 234.563C183.312 234.152 183.49 233.559 183.363 233.153C183.255 232.809 182.953 232.624 182.523 232.656C181.975 232.692 180.762 233.247 179.592 233.784C178.429 234.317 177.225 234.87 176.363 235.071C172.822 235.893 170.425 235.411 168.088 233.402C167.571 232.957 167.033 232.183 166.461 231.364C165.73 230.314 164.727 228.869 164.167 228.991C164.006 229.024 163.589 229.285 163.237 230.989L163.152 231.404L162.76 231.243C159.686 229.981 157.666 225.879 156.412 222.902C156.112 222.189 155.854 221.304 155.605 220.446C155.321 219.464 155.051 218.538 154.745 217.933C154.515 217.48 154.158 217.26 153.815 217.358C153.496 217.449 153.198 217.832 153.254 218.483C153.562 222.149 158.773 233.095 162.743 233.095H162.755C163.131 233.093 163.563 232.912 163.908 232.766C164.199 232.644 164.422 232.549 164.619 232.549H164.62Z" fill="black"/>
<path d="M187.609 213.384C186.871 212.865 185.347 221.009 182.879 219.374C182.56 219.147 182.609 218.931 182.659 218.594C182.771 217.857 184.364 214.105 184.787 213.198C185.212 212.286 186.104 210.018 187.421 210.359C188.212 210.565 189.929 214.628 191.472 212.661C193.285 210.351 192.688 203.598 194.255 201.598C195.318 200.242 195.419 203.038 195.353 203.762C195.142 206.07 193.59 213.649 191.873 215.011C190.103 216.415 188.342 215.166 187.607 213.386L187.609 213.384Z" fill="black"/>
<path d="M187.161 210.677C186.317 210.677 185.587 212.286 185.226 213.085L185.108 213.346C184.638 214.354 183.108 217.994 183.009 218.646L183.002 218.688C182.955 218.995 182.96 218.999 183.084 219.086C183.309 219.234 183.518 219.276 183.735 219.206C184.7 218.905 185.599 216.645 186.193 215.151C186.759 213.728 187.005 213.146 187.404 213.027C187.545 212.985 187.691 213.01 187.813 213.095L187.896 213.154L187.935 213.248C188.349 214.253 189.089 215.001 189.865 215.203C190.465 215.36 191.068 215.201 191.658 214.732C193.177 213.527 194.769 206.323 195.006 203.727C195.07 203.028 194.945 201.846 194.748 201.596C194.71 201.621 194.639 201.678 194.536 201.813C193.841 202.7 193.585 204.791 193.337 206.811C193.05 209.167 192.752 211.603 191.753 212.877C191.404 213.322 191.004 213.548 190.566 213.548H190.558C189.614 213.543 188.788 212.464 188.126 211.597C187.855 211.242 187.48 210.753 187.332 210.699C187.275 210.685 187.219 210.679 187.163 210.679L187.161 210.677Z" fill="black"/>
<path d="M92.2927 237.634C92.8971 238.237 91.6135 240.854 91.2912 241.652C90.5371 243.516 88.0761 249.941 85.6063 249.205C84.7546 248.951 84.6484 247.075 84.0266 247.584C83.2185 249.613 80.0973 252.45 77.8523 252.251C76.5948 252.14 73.6339 250.478 75.5933 249.838C76.8752 249.42 77.6485 251.073 79.8413 249.655C82.0428 248.233 84.1276 242.015 86.3796 247.026C86.9509 246.726 88.8319 242.723 89.2587 241.844C89.715 240.901 90.922 236.27 92.2927 237.635V237.634Z" fill="black"/>
<path d="M78.0735 252.612C77.9881 252.612 77.9045 252.609 77.8209 252.602C76.8003 252.511 74.7085 251.514 74.5953 250.522C74.5657 250.26 74.6406 249.779 75.4836 249.504C76.0914 249.305 76.5948 249.481 77.079 249.652C77.7843 249.899 78.4497 250.135 79.6497 249.359C80.2628 248.963 80.9072 248.109 81.529 247.284C82.5584 245.921 83.5302 244.632 84.685 244.763C85.3433 244.838 85.9303 245.377 86.4702 246.411C86.8029 245.926 87.4717 244.749 88.8023 241.975L88.9382 241.691C89.0218 241.518 89.142 241.183 89.2831 240.796C89.9501 238.946 90.6277 237.269 91.5751 237.058C91.8103 237.006 92.1673 237.02 92.5383 237.388C93.174 238.021 92.5522 239.625 91.7998 241.353C91.7232 241.527 91.6587 241.675 91.6135 241.788L91.5107 242.043C89.9588 245.907 87.8705 250.252 85.5036 249.545C84.9462 249.38 84.6641 248.792 84.4376 248.321C84.3837 248.208 84.3105 248.056 84.2478 247.952C83.3142 249.946 80.3899 252.616 78.0717 252.616L78.0735 252.612ZM76.0322 250.119C75.9242 250.119 75.8162 250.135 75.703 250.171C75.4487 250.255 75.285 250.363 75.2937 250.442C75.346 250.905 76.9675 251.821 77.8836 251.901C80.0033 252.096 82.9642 249.303 83.7009 247.455L83.734 247.369L83.8054 247.312C84.0231 247.134 84.2217 247.131 84.3506 247.159C84.7024 247.237 84.8748 247.596 85.0751 248.013C85.2423 248.36 85.4496 248.79 85.7073 248.869C87.0746 249.275 88.8093 246.89 90.861 241.778L90.9638 241.522C91.0108 241.405 91.0788 241.25 91.1571 241.068C92.1778 238.723 92.2021 238.042 92.0436 237.885C91.8695 237.712 91.7685 237.735 91.7301 237.743C91.0805 237.89 90.3141 240.013 89.9466 241.035C89.7934 241.459 89.6732 241.794 89.5739 241.998L89.4381 242.28C87.5553 246.205 86.9196 247.141 86.5416 247.338L86.2107 247.512L86.0574 247.171C85.5732 246.091 85.0838 245.516 84.6066 245.462C83.8507 245.366 82.9555 246.562 82.0898 247.709C81.4297 248.583 80.747 249.488 80.0311 249.952C78.5402 250.914 77.5997 250.583 76.8456 250.318C76.5443 250.211 76.29 250.123 76.0305 250.123L76.0322 250.119Z" fill="black"/>
<path d="M103.61 226.177C103.957 226.074 104.378 226.287 104.594 226.569C105.472 227.715 104.122 235.834 103.605 237.578C103.302 238.596 102.935 239.918 101.771 238.844C101.531 238.605 101.529 238.347 101.531 238.031C101.538 236.546 102.607 233.365 102.872 231.559C103.079 230.142 103.018 228.517 103.17 227.132C103.206 226.801 103.232 226.29 103.61 226.177Z" fill="black"/>
<path d="M102.534 239.595C102.22 239.595 101.891 239.431 101.532 239.102C101.175 238.746 101.177 238.348 101.179 238.028C101.184 237.123 101.553 235.66 101.91 234.246C102.17 233.217 102.415 232.248 102.523 231.507C102.635 230.741 102.668 229.894 102.699 229.076C102.726 228.41 102.752 227.723 102.821 227.092L102.828 227.026C102.865 226.672 102.935 226.011 103.511 225.839C104.028 225.683 104.589 225.982 104.875 226.353C105.901 227.692 104.389 236.174 103.943 237.675L103.929 237.724C103.699 238.498 103.438 239.377 102.774 239.56C102.696 239.581 102.616 239.593 102.536 239.593L102.534 239.595ZM103.711 226.513C103.584 226.552 103.546 226.907 103.527 227.099L103.52 227.171C103.454 227.777 103.427 228.423 103.401 229.104C103.37 229.941 103.335 230.808 103.218 231.61C103.105 232.386 102.856 233.374 102.591 234.42C102.245 235.794 101.886 237.213 101.881 238.033C101.881 238.347 101.889 238.467 102.018 238.594C102.252 238.811 102.463 238.919 102.586 238.885C102.874 238.805 103.103 238.036 103.253 237.527L103.267 237.478C103.879 235.419 105.016 227.699 104.316 226.784C104.166 226.588 103.884 226.465 103.711 226.515V226.513Z" fill="black"/>
<path d="M100.432 231.761L101.674 231.997C102.254 232.823 101.026 239.86 100.275 240.638C99.8465 241.081 98.9704 241.07 98.7718 240.449L100.433 231.763L100.432 231.761Z" fill="black"/>
<path d="M99.519 241.295C99.4198 241.295 99.3187 241.285 99.2229 241.262C98.8398 241.173 98.5524 240.915 98.4374 240.556L98.4096 240.47L100.153 231.35L101.879 231.676L101.961 231.793C102.682 232.82 101.325 240.055 100.527 240.88C100.273 241.143 99.8918 241.295 99.519 241.295ZM99.1359 240.409C99.1846 240.495 99.2665 240.55 99.3814 240.577C99.5992 240.629 99.8691 240.549 100.022 240.392C100.658 239.735 101.729 233.423 101.43 232.309L100.712 232.173L99.1376 240.411L99.1359 240.409Z" fill="black"/>
<path d="M177.338 120.25C180.527 127.111 172.237 139.664 165.12 132.338C162.905 130.057 160.975 123.176 163.164 120.655C165.226 118.28 177.218 117.957 180.517 117.201L181.743 117.929C182.478 120.152 178.658 120.09 177.338 120.248V120.25ZM171.976 120.58C170.572 121.01 170.579 123.666 172.505 123.859C175.464 124.156 175.067 119.631 171.976 120.58ZM166.228 121.915C164.457 121.722 164.728 124.108 164.831 125.4C165.223 130.38 169.542 134.735 173.451 129.702C168.957 130.303 166.035 126.059 166.228 121.913V121.915Z" fill="black"/>
<path d="M169.737 134.906C168.041 134.906 166.367 134.125 164.869 132.584C162.499 130.143 160.597 123.078 162.9 120.424C164.427 118.667 170.619 118.015 175.595 117.49C177.667 117.272 179.458 117.084 180.438 116.859L180.576 116.827L182.037 117.696L182.079 117.821C182.264 118.377 182.22 118.864 181.95 119.27C181.271 120.292 179.319 120.443 178.026 120.543C177.967 120.548 177.908 120.552 177.85 120.557C179.587 125.059 176.962 131.212 173.374 133.686C172.19 134.503 170.958 134.908 169.737 134.908V134.906ZM180.456 117.575C179.414 117.797 177.671 117.98 175.666 118.191C171.07 118.676 164.774 119.338 163.429 120.886C162.522 121.932 162.304 123.983 162.833 126.514C163.307 128.776 164.326 131.018 165.371 132.092C167.717 134.509 170.417 134.868 172.974 133.103C177.216 130.176 178.631 123.87 177.018 120.396L176.814 119.957L177.295 119.9C177.478 119.877 177.709 119.859 177.969 119.84C179.054 119.757 180.872 119.615 181.362 118.88C181.49 118.686 181.517 118.451 181.445 118.163L180.456 117.575ZM169.771 132.289C169.429 132.289 169.09 132.239 168.75 132.137C166.529 131.471 164.732 128.65 164.479 125.428L164.465 125.259C164.376 124.168 164.255 122.672 165.002 121.943C165.317 121.636 165.742 121.507 166.264 121.565L166.594 121.599L166.578 121.931C166.472 124.223 167.365 126.528 168.91 127.948C170.159 129.093 171.713 129.578 173.402 129.353L174.254 129.24L173.726 129.918C172.519 131.473 171.143 132.289 169.769 132.289H169.771ZM165.867 122.267C165.716 122.292 165.592 122.351 165.495 122.447C164.984 122.944 165.099 124.356 165.167 125.202L165.181 125.372C165.409 128.268 167.031 130.886 168.952 131.463C170.19 131.834 171.453 131.367 172.637 130.111C171.054 130.111 169.626 129.56 168.435 128.465C166.824 126.987 165.859 124.638 165.866 122.267H165.867ZM172.773 124.223C172.674 124.223 172.573 124.218 172.468 124.208C171.46 124.107 170.744 123.381 170.641 122.36C170.544 121.382 171.061 120.491 171.871 120.241C172.909 119.922 173.827 120.133 174.391 120.818C174.929 121.472 175.027 122.449 174.63 123.195C174.276 123.857 173.609 124.223 172.773 124.223ZM172.078 120.916C171.523 121.087 171.288 121.737 171.342 122.292C171.368 122.551 171.53 123.408 172.538 123.509C173.23 123.58 173.75 123.35 174.008 122.865C174.271 122.374 174.203 121.701 173.848 121.268C173.468 120.806 172.839 120.682 172.077 120.916H172.078Z" fill="black"/>
<path d="M181.44 107.227C181.677 107.198 181.901 107.135 182.138 107.221L182.757 107.737L182.91 108.703C182.905 109.067 182.694 109.184 182.447 109.376C181.367 110.219 177.086 111.621 175.539 112.191C172.42 113.34 168.442 114.775 165.239 115.502C163.136 115.98 160.876 116.871 159.441 114.674C158.779 113.661 157.706 109.59 159.205 109.168C161.715 108.462 159.543 113.759 162.75 113.581C165.235 113.443 171.744 110.908 174.43 109.967C176.171 109.356 179.986 107.416 181.442 107.229L181.44 107.227Z" fill="black"/>
<path d="M162.048 116.439C160.963 116.439 159.935 116.078 159.143 114.864C158.544 113.947 157.742 111.055 158.261 109.667C158.47 109.111 158.836 108.903 159.106 108.826C159.568 108.696 159.953 108.73 160.252 108.927C160.806 109.292 160.916 110.089 161.032 110.933C161.234 112.408 161.452 113.293 162.724 113.229C164.709 113.119 169.414 111.407 172.528 110.275C173.216 110.026 173.823 109.803 174.309 109.634C174.94 109.412 175.861 109.008 176.838 108.579C178.601 107.805 180.425 107.003 181.393 106.879L181.515 106.861C181.722 106.828 181.98 106.79 182.257 106.891L182.314 106.912L183.081 107.552L183.258 108.678V108.71C183.25 109.206 182.964 109.423 182.734 109.597L182.659 109.655C181.736 110.376 178.751 111.428 176.774 112.125C176.332 112.28 175.947 112.416 175.656 112.523C172.315 113.754 168.487 115.126 165.31 115.846C165.07 115.9 164.828 115.961 164.586 116.02C163.758 116.224 162.884 116.44 162.044 116.442L162.048 116.439ZM159.62 109.454C159.528 109.454 159.42 109.471 159.299 109.506C159.193 109.536 159.036 109.611 158.923 109.916C158.507 111.028 159.219 113.694 159.735 114.481C160.869 116.215 162.595 115.788 164.424 115.335C164.671 115.274 164.916 115.213 165.162 115.157C168.56 114.386 173.022 112.742 175.419 111.858C175.71 111.75 176.1 111.614 176.546 111.457C178.361 110.817 181.4 109.747 182.231 109.097L182.313 109.034C182.508 108.886 182.549 108.844 182.556 108.723L182.429 107.921L181.969 107.538C181.879 107.52 181.774 107.534 181.625 107.557C181.578 107.564 181.532 107.571 181.485 107.578C180.616 107.69 178.761 108.506 177.124 109.224C176.135 109.658 175.201 110.069 174.545 110.3C174.062 110.469 173.456 110.688 172.771 110.938C169.619 112.085 164.857 113.818 162.767 113.933C160.75 114.046 160.515 112.303 160.339 111.032C160.25 110.382 160.156 109.709 159.871 109.52C159.806 109.478 159.723 109.458 159.62 109.458V109.454Z" fill="black"/>
<path d="M192.886 160.004C193.193 160.984 193.613 161.877 193.721 162.927C193.785 163.547 193.928 167.807 192.754 167.51L191.352 165.019L190.525 165.005C190.54 167.027 190.953 169.536 189.419 171.119C189.163 170.9 188.954 170.63 188.851 170.305C188.665 169.712 188.928 164.484 189.124 163.88C189.551 162.569 191.087 162.567 192.054 163.34C191.793 162.191 191.2 160.226 192.886 160.004Z" fill="black"/>
<path d="M189.441 171.601L189.191 171.386C188.858 171.102 188.63 170.772 188.516 170.41C188.301 169.723 188.579 164.421 188.792 163.77C188.992 163.158 189.424 162.724 190.009 162.55C190.481 162.407 191.028 162.447 191.537 162.642C191.369 161.844 191.261 160.925 191.693 160.297C191.941 159.94 192.327 159.724 192.843 159.656L193.135 159.617L193.224 159.9C193.31 160.173 193.404 160.439 193.498 160.704C193.74 161.387 193.991 162.095 194.073 162.89C194.076 162.928 194.372 166.822 193.379 167.681C193.179 167.856 192.926 167.915 192.672 167.852L192.526 167.815L191.15 165.368L190.887 165.362C190.892 165.58 190.901 165.803 190.91 166.03C190.979 167.861 191.059 169.936 189.675 171.365L189.445 171.602L189.441 171.601ZM190.615 163.167C190.474 163.167 190.338 163.186 190.209 163.225C189.842 163.335 189.589 163.593 189.459 163.99C189.262 164.597 189.037 169.704 189.187 170.201C189.231 170.34 189.304 170.474 189.405 170.602C190.333 169.397 190.269 167.702 190.204 166.058C190.19 165.699 190.176 165.347 190.175 165.008V164.647L191.561 164.672L192.942 167.127C193.418 166.626 193.477 163.98 193.372 162.965C193.299 162.254 193.073 161.617 192.834 160.942C192.773 160.77 192.712 160.597 192.653 160.421C192.484 160.48 192.359 160.573 192.272 160.7C191.918 161.213 192.162 162.252 192.339 163.01L192.622 164.243L191.838 163.617C191.476 163.328 191.03 163.169 190.617 163.169L190.615 163.167Z" fill="black"/>
<path d="M200.39 151.941C199.707 152.748 198.463 148.548 198.373 148.26C197.819 146.509 196.901 143.247 197.044 141.5C197.262 138.836 198.455 140.751 199.008 142.065C199.334 142.838 200.391 146.152 200.391 146.797V151.941H200.39Z" fill="black"/>
<path d="M200.198 152.396C200.16 152.396 200.121 152.392 200.083 152.383C199.824 152.331 199.217 152.206 198.057 148.434L198.037 148.368C197.471 146.577 196.542 143.3 196.692 141.472C196.751 140.752 196.896 139.914 197.497 139.818C198.27 139.696 198.975 141.087 199.329 141.929C199.627 142.635 200.74 146.047 200.74 146.799V152.071L200.656 152.171C200.531 152.319 200.369 152.397 200.196 152.397L200.198 152.396ZM197.619 140.524C197.572 140.588 197.45 140.818 197.392 141.53C197.248 143.3 198.263 146.752 198.707 148.155L198.73 148.227C199.32 150.146 199.773 151.093 200.038 151.482V146.799C200.038 146.239 199.007 142.972 198.683 142.203C198.265 141.211 197.814 140.614 197.619 140.524Z" fill="black"/>
<path d="M160.573 130.287C162.194 129.86 162.546 131.994 163.459 133.168C164.248 134.183 166.418 135.495 166.238 136.772C165.81 139.79 161.715 134.812 161.116 133.846C160.702 133.178 159.319 130.711 160.573 130.289V130.287Z" fill="black"/>
<path d="M165.47 138.081C163.8 138.081 161.086 134.467 160.816 134.031C160.48 133.489 159.414 131.642 159.787 130.605C159.9 130.289 160.134 130.064 160.459 129.954L160.482 129.947C161.907 129.571 162.527 130.772 163.074 131.831C163.279 132.228 163.49 132.638 163.736 132.952C163.964 133.245 164.335 133.581 164.727 133.937C165.669 134.791 166.735 135.759 166.585 136.821C166.458 137.715 166.026 137.989 165.685 138.06C165.615 138.074 165.543 138.081 165.47 138.081ZM160.674 130.624C160.555 130.666 160.487 130.732 160.449 130.844C160.252 131.391 160.811 132.687 161.414 133.659C162.02 134.639 164.605 137.572 165.54 137.371C165.759 137.326 165.85 136.993 165.888 136.721C165.986 136.029 165.066 135.196 164.255 134.458C163.838 134.081 163.446 133.726 163.18 133.384C162.896 133.018 162.67 132.578 162.448 132.155C161.888 131.069 161.499 130.415 160.672 130.626L160.674 130.624Z" fill="black"/>
<path d="M167.386 179.699C167.566 179.844 168.179 179.678 168.461 179.867L168.684 183.172C166.46 185.833 164.899 177.712 165.117 176.549C165.273 175.712 166.282 175.558 166.658 176.118C166.912 176.496 167.047 179.427 167.386 179.701V179.699Z" fill="black"/>
<path d="M167.799 184.058C167.611 184.058 167.442 184.008 167.301 183.941C165.542 183.11 164.587 177.455 164.77 176.483C164.869 175.956 165.246 175.564 165.752 175.459C166.224 175.361 166.695 175.541 166.949 175.919C167.095 176.137 167.167 176.594 167.306 177.663C167.379 178.224 167.499 179.138 167.611 179.408C167.674 179.413 167.771 179.413 167.841 179.413C168.105 179.413 168.414 179.413 168.652 179.572L168.795 179.668L169.041 183.288L168.95 183.396C168.53 183.898 168.132 184.056 167.797 184.056L167.799 184.058ZM166.007 176.139C165.968 176.139 165.93 176.143 165.895 176.15C165.787 176.172 165.528 176.261 165.462 176.613C165.296 177.497 166.284 182.683 167.602 183.305C167.696 183.349 167.933 183.46 168.323 183.049L168.125 180.127C168.032 180.118 167.917 180.118 167.844 180.118C167.583 180.12 167.344 180.118 167.165 179.971C166.897 179.753 166.796 179.161 166.611 177.755C166.54 177.206 166.44 176.456 166.362 176.305C166.278 176.181 166.136 176.137 166.007 176.137V176.139Z" fill="black"/>
<path d="M197.053 164.173C196.52 164.077 196.593 163.593 196.486 163.214C195.976 161.404 195.039 157.135 194.898 155.347C194.858 154.838 195.114 154.388 195.114 153.888C197.385 156.24 197.936 161.092 197.053 164.173Z" fill="black"/>
<path d="M197.303 164.576L196.99 164.52C196.333 164.402 196.246 163.863 196.194 163.54C196.182 163.462 196.169 163.383 196.149 163.31C195.617 161.424 194.689 157.168 194.548 155.375C194.522 155.044 194.597 154.742 194.663 154.477C194.713 154.272 194.762 154.076 194.762 153.888V153.018L195.367 153.644C197.248 155.592 198.556 160.208 197.389 164.273L197.302 164.578L197.303 164.576ZM195.335 154.692C195.281 154.91 195.234 155.117 195.25 155.32C195.384 157.016 196.3 161.253 196.826 163.118C196.85 163.206 196.868 163.296 196.882 163.389C197.434 160.655 196.965 156.901 195.335 154.692Z" fill="black"/>
<path d="M169.433 177.801C169.912 177.656 170.269 178.001 170.518 178.371C170.819 178.817 172.402 183.607 172.298 183.99C171.911 185.406 170.991 184.494 170.521 183.65C170.075 182.852 168.269 178.155 169.434 177.801H169.433Z" fill="black"/>
<path d="M171.683 185.08C170.972 185.08 170.382 184.125 170.213 183.821C169.913 183.284 168.262 179.323 168.809 177.968C168.94 177.642 169.166 177.513 169.332 177.462C169.71 177.349 170.272 177.377 170.81 178.172C171.058 178.538 172.799 183.495 172.637 184.083C172.472 184.691 172.183 185.024 171.779 185.073C171.747 185.076 171.714 185.078 171.683 185.078V185.08ZM169.65 178.116C169.6 178.116 169.562 178.128 169.535 178.135C169.525 178.139 169.495 178.148 169.461 178.23C169.084 179.162 170.405 182.719 170.828 183.476C171.169 184.088 171.549 184.384 171.693 184.372C171.74 184.367 171.852 184.264 171.951 183.921C171.934 183.302 170.485 178.953 170.227 178.564C169.971 178.186 169.776 178.115 169.65 178.115V178.116Z" fill="black"/>
<path d="M155.083 137.799L155.079 139.389C153.881 140.081 152.704 139.251 151.42 139.439C149.906 136.939 153.47 136.92 155.083 137.797V137.799Z" fill="black"/>
<path d="M153.989 140.023C153.611 140.023 153.238 139.955 152.873 139.891C152.39 139.804 151.934 139.722 151.47 139.79L151.241 139.825L151.12 139.624C150.448 138.515 150.708 137.86 151.046 137.508C151.915 136.596 154.153 136.894 155.252 137.492L155.436 137.591L155.431 139.595L155.255 139.696C154.825 139.945 154.404 140.025 153.989 140.025V140.023ZM151.828 139.059C152.233 139.059 152.62 139.129 152.996 139.197C153.628 139.31 154.182 139.411 154.727 139.173V138.015C153.707 137.548 152.071 137.443 151.552 137.99C151.336 138.217 151.357 138.578 151.612 139.066C151.685 139.061 151.756 139.059 151.828 139.059Z" fill="black"/>
<path d="M133.604 126.365C134.426 126.124 136.253 128.57 136.262 129.28C136.305 132.399 131.775 126.9 133.604 126.365Z" fill="black"/>
<path d="M135.755 130.584C134.674 130.584 133.085 128.514 132.853 127.332C132.725 126.673 132.968 126.185 133.505 126.028C133.813 125.937 134.184 126.049 134.602 126.358C135.435 126.973 136.603 128.558 136.614 129.276C136.629 130.338 136.135 130.549 135.839 130.58C135.811 130.584 135.783 130.586 135.755 130.586V130.584ZM133.726 126.699C133.716 126.699 133.709 126.699 133.702 126.703C133.616 126.727 133.46 126.774 133.541 127.196C133.771 128.363 135.283 129.941 135.764 129.88C135.84 129.871 135.914 129.665 135.908 129.285C135.903 128.94 135.034 127.552 134.182 126.923C133.942 126.745 133.789 126.699 133.724 126.699H133.726Z" fill="black"/>
<path d="M122.257 128.073L123.055 128.591C123.42 129.299 121.437 132.181 120.55 131.921C119.277 131.548 121.276 128.146 122.257 128.073Z" fill="black"/>
<path d="M120.67 132.291C120.597 132.291 120.524 132.28 120.451 132.259C120.224 132.193 119.705 131.944 119.798 131.067C119.927 129.838 121.278 127.794 122.229 127.721L122.348 127.712L123.323 128.345L123.366 128.427C123.725 129.125 122.816 130.53 122.283 131.175C121.849 131.701 121.24 132.287 120.67 132.287V132.291ZM122.191 128.45C121.684 128.661 120.604 130.146 120.5 131.142C120.46 131.529 120.594 131.567 120.651 131.585C120.717 131.604 121.024 131.529 121.553 130.952C122.32 130.115 122.759 129.132 122.753 128.816L122.193 128.452L122.191 128.45Z" fill="black"/>
<path d="M173.97 180.618C174.39 180.871 175.077 183.267 173.635 183.303C172.219 183.34 172.263 179.59 173.97 180.618Z" fill="black"/>
<path d="M173.614 183.655C173.097 183.655 172.672 183.308 172.442 182.7C172.155 181.935 172.211 180.805 172.801 180.313C173.012 180.137 173.466 179.905 174.149 180.318C174.607 180.594 175.017 181.894 174.792 182.744C174.642 183.308 174.224 183.641 173.642 183.657C173.632 183.657 173.623 183.657 173.613 183.657L173.614 183.655ZM173.426 180.791C173.327 180.791 173.277 180.833 173.252 180.854C172.963 181.094 172.888 181.886 173.101 182.451C173.172 182.637 173.331 182.951 173.616 182.951C173.62 182.951 173.623 182.951 173.627 182.951C173.876 182.944 174.015 182.848 174.093 182.63C174.301 182.051 173.945 181.066 173.78 180.915C173.621 180.82 173.506 180.791 173.425 180.791H173.426Z" fill="black"/>
<path d="M111.488 168.375C111.66 169.317 111.457 175.144 109.6 173.876C109.154 173.571 109.673 169.439 109.903 168.816C110.152 168.14 110.943 168.07 111.488 168.375Z" fill="black"/>
<path d="M110.095 174.406C109.898 174.406 109.663 174.345 109.401 174.167C108.621 173.635 109.454 169.02 109.572 168.694C109.705 168.335 109.969 168.067 110.321 167.938C110.737 167.784 111.239 167.831 111.659 168.068L111.803 168.148L111.833 168.311C111.965 169.032 111.936 173.391 110.624 174.246C110.509 174.321 110.328 174.404 110.095 174.404V174.406ZM109.839 173.613C110.081 173.763 110.187 173.693 110.241 173.658C111.03 173.144 111.279 169.747 111.166 168.614C110.962 168.541 110.739 168.532 110.565 168.598C110.406 168.658 110.293 168.771 110.232 168.938C109.988 169.599 109.617 173.055 109.839 173.613Z" fill="black"/>
<path d="M107.39 169.414C107.108 168.654 107.39 166.598 108.59 166.958C109.525 167.238 109.119 170.67 107.39 169.414Z" fill="black"/>
<path d="M108.092 170.042C107.839 170.042 107.534 169.953 107.183 169.698L107.097 169.636L107.061 169.536C106.836 168.928 106.897 167.578 107.505 166.93C107.818 166.595 108.24 166.485 108.691 166.619C109.077 166.734 109.34 167.142 109.412 167.737C109.508 168.523 109.269 169.517 108.63 169.894C108.492 169.976 108.311 170.042 108.092 170.042ZM107.689 169.193C107.928 169.345 108.125 169.376 108.273 169.289C108.579 169.107 108.785 168.424 108.712 167.824C108.67 167.475 108.552 167.315 108.487 167.296C108.29 167.237 108.149 167.271 108.015 167.413C107.656 167.796 107.569 168.719 107.688 169.193H107.689Z" fill="black"/>
</g>
<path d="M151.535 228.424L0 237.308L2.23809 203.61L153.179 194.755L151.535 228.424Z" fill="black"/>
<path d="M312.28 270.958L24.8872 285.134L29.3999 223.989L317 211.881L312.28 270.958Z" fill="black"/>
<path d="M18.0423 226.51L9.87544 226.984L11.4012 213.944L14.6251 213.758L13.439 223.971L18.3819 223.684L18.0423 226.51Z" fill="white"/>
<path d="M25.8503 226.057L25.7946 223.235L22.8041 223.41L22.09 226.276L18.6693 226.475L22.5237 213.299L28.4333 212.956L29.2536 225.859L25.8503 226.057ZM24.5493 216.328L23.398 220.964L25.7441 220.828L25.6779 216.263L24.5493 216.329V216.328Z" fill="white"/>
<path d="M40.1462 212.274L42.4209 218.348L46.1812 211.923L49.5653 211.726L48.0396 224.766L44.7983 224.955L45.6657 217.6L43.1593 222.099L40.8133 222.235L39.3433 217.966L38.4759 225.321L35.252 225.507L36.7778 212.467L40.1445 212.272L40.1462 212.274Z" fill="white"/>
<path d="M56.9588 224.248L56.9031 221.427L53.9126 221.602L53.1985 224.468L49.7778 224.667L53.6322 211.491L59.5418 211.147L60.3621 224.051L56.9588 224.248ZM55.6578 214.519L54.5065 219.156L56.8526 219.02L56.7864 214.455L55.6578 214.521V214.519Z" fill="white"/>
<path d="M66.8116 210.724L65.3033 223.764L62.062 223.952L63.5878 210.912L66.8116 210.724Z" fill="white"/>
<path d="M71.037 219.743C71.084 220.568 71.7023 220.946 72.8902 220.876C74.078 220.807 74.651 220.402 74.6075 219.661C74.5849 219.267 74.3619 218.955 73.9422 218.728C73.5207 218.502 73.0173 218.32 72.4286 218.186C71.8399 218.052 71.2495 217.892 70.6573 217.705C70.0651 217.518 69.5531 217.199 69.1194 216.751C68.6857 216.303 68.4488 215.726 68.4088 215.02C68.2346 212.019 70.0756 210.408 73.9317 210.183C75.3408 210.101 76.4206 210.305 77.1748 210.795C77.9272 211.285 78.3313 212.002 78.387 212.947C78.4079 213.294 78.3818 213.629 78.3104 213.949C78.2389 214.272 78.1588 214.5 78.0717 214.638L77.9411 214.861L74.7712 215.046C75.0185 214.757 75.1283 214.401 75.1056 213.984C75.0603 213.207 74.5309 212.849 73.5155 212.907C72.2388 212.982 71.6222 213.425 71.6692 214.237C71.6919 214.643 71.9148 214.954 72.3346 215.17C72.7543 215.386 73.2577 215.545 73.8446 215.649C74.4316 215.754 75.0238 215.89 75.6212 216.059C76.2168 216.228 76.7324 216.537 77.1661 216.985C77.5997 217.433 77.8384 218.035 77.8819 218.788C77.969 220.306 77.5806 221.459 76.7167 222.247C75.8511 223.035 74.4769 223.483 72.5889 223.593C70.7009 223.703 69.3928 223.443 68.6631 222.814C68.1197 222.341 67.8236 221.663 67.7731 220.779C67.7539 220.444 67.7678 220.078 67.8166 219.679L67.8532 219.389L71.0771 219.203L71.0544 219.421C71.037 219.541 71.0318 219.649 71.037 219.745V219.743Z" fill="white"/>
<path d="M85.6447 209.503C88.5219 209.336 90.0285 210.429 90.1661 212.785C90.1887 213.179 90.1713 213.606 90.1139 214.064L89.6958 217.688C89.506 219.365 88.9556 220.632 88.0482 221.488C87.139 222.345 85.8188 222.824 84.0876 222.923C82.3563 223.024 81.1267 222.693 80.4004 221.933C79.9023 221.41 79.6253 220.665 79.5696 219.696C79.5452 219.265 79.5644 218.791 79.6306 218.272L80.0503 214.649C80.4248 211.413 82.2901 209.697 85.6464 209.503H85.6447ZM84.4098 220.116C85.0072 220.081 85.4757 219.898 85.8153 219.567C86.155 219.236 86.3727 218.646 86.4685 217.803L86.8778 214.324C86.9004 214.084 86.9056 213.867 86.8934 213.676C86.8377 212.708 86.3204 212.251 85.3399 212.309C84.112 212.405 83.417 213.146 83.2585 214.533L82.8492 218.012C82.8196 218.313 82.8126 218.626 82.8318 218.948C82.8806 219.785 83.4066 220.174 84.4098 220.116Z" fill="white"/>
<path d="M102.792 208.633L101.283 221.673L98.0421 221.862L95.3755 214.929L94.5674 222.064L91.3261 222.252L92.8518 209.212L96.1819 209.019L98.7858 215.487L99.5678 208.822L102.792 208.633Z" fill="white"/>
<path d="M114.647 207.945C116.212 207.854 117.351 208.183 118.065 208.933C118.589 209.503 118.876 210.236 118.929 211.132C118.948 211.454 118.937 211.796 118.899 212.159L118.432 216.197C118.272 217.562 117.749 218.678 116.865 219.544C115.98 220.411 114.799 220.887 113.319 220.974L108.107 221.277L109.633 208.238L114.647 207.946V207.945ZM113.681 210.806L112.517 210.874L111.669 218.263L113.371 218.163C113.932 218.13 114.362 217.952 114.661 217.63C114.959 217.307 115.149 216.795 115.227 216.096L115.576 213.125C115.609 212.86 115.619 212.619 115.605 212.403C115.539 211.268 114.898 210.734 113.681 210.806Z" fill="white"/>
<path d="M129.077 220.057L120.087 220.58L121.613 207.54L130.603 207.017L130.264 209.843L124.497 210.178L124.225 212.623L128.989 212.345L128.649 215.172L123.885 215.449L123.649 217.567L129.415 217.232L129.076 220.059L129.077 220.057Z" fill="white"/>
<path d="M134.344 216.064C134.391 216.889 135.01 217.267 136.198 217.198C137.385 217.128 137.958 216.723 137.915 215.982C137.892 215.588 137.669 215.278 137.25 215.05C136.828 214.823 136.325 214.642 135.736 214.507C135.147 214.373 134.557 214.213 133.965 214.026C133.372 213.839 132.86 213.52 132.427 213.072C131.993 212.624 131.756 212.047 131.716 211.341C131.542 208.34 133.383 206.729 137.239 206.504C138.648 206.422 139.728 206.626 140.482 207.116C141.235 207.606 141.639 208.323 141.694 209.268C141.715 209.615 141.689 209.95 141.618 210.27C141.546 210.593 141.466 210.821 141.379 210.959L141.248 211.182L138.079 211.367C138.326 211.078 138.437 210.722 138.413 210.304C138.368 209.526 137.838 209.169 136.823 209.226C135.544 209.301 134.93 209.744 134.977 210.556C134.999 210.963 135.222 211.273 135.642 211.489C136.062 211.705 136.565 211.864 137.152 211.969C137.739 212.072 138.331 212.209 138.928 212.378C139.524 212.548 140.04 212.856 140.473 213.304C140.907 213.752 141.146 214.354 141.189 215.107C141.278 216.626 140.888 217.778 140.024 218.564C139.158 219.353 137.784 219.801 135.898 219.91C134.012 220.02 132.702 219.761 131.97 219.131C131.427 218.659 131.131 217.98 131.08 217.096C131.061 216.762 131.075 216.396 131.124 215.996L131.161 215.705L134.384 215.519L134.362 215.736C134.344 215.857 134.339 215.967 134.344 216.061V216.064Z" fill="white"/>
<path d="M64.7895 260.23C64.8731 262.029 66.2108 262.869 68.8024 262.749C71.3941 262.629 72.6533 261.761 72.5784 260.143C72.5384 259.281 72.0629 258.598 71.152 258.092C70.241 257.585 69.1455 257.179 67.8636 256.873C66.5835 256.567 65.2998 256.202 64.0145 255.778C62.7274 255.355 61.6179 254.649 60.6843 253.658C59.7508 252.67 59.2474 251.406 59.176 249.866C58.873 243.321 62.9276 239.851 71.3435 239.461C74.4176 239.318 76.7707 239.79 78.4009 240.878C80.0312 241.966 80.8933 243.541 80.9891 245.6C81.0239 246.356 80.9595 247.085 80.7958 247.784C80.632 248.485 80.4526 248.984 80.2576 249.28L79.9667 249.765L73.0487 250.086C73.5938 249.46 73.8464 248.689 73.8028 247.777C73.7245 246.083 72.5767 245.286 70.363 245.389C67.5745 245.518 66.2229 246.47 66.3048 248.243C66.3466 249.13 66.8204 249.814 67.7313 250.293C68.6404 250.775 69.7342 251.135 71.0126 251.376C72.2893 251.617 73.5782 251.93 74.874 252.314C76.1715 252.699 77.2862 253.385 78.2198 254.373C79.1533 255.363 79.6584 256.678 79.7351 258.322C79.8883 261.635 79.0123 264.139 77.1068 265.835C75.2014 267.532 72.19 268.475 68.0726 268.667C63.9553 268.858 61.1076 268.259 59.5296 266.867C58.3592 265.825 57.7287 264.337 57.6381 262.407C57.605 261.677 57.6451 260.878 57.7618 260.01L57.8506 259.379L64.8853 259.051L64.8296 259.524C64.7895 259.787 64.7739 260.024 64.7843 260.231L64.7895 260.23Z" fill="white"/>
<path d="M109.865 244.06L100.251 244.507L97.4046 266.751L90.3316 267.078L93.1775 244.834L83.525 245.282L84.3366 239.128L110.678 237.904L109.866 244.059L109.865 244.06Z" fill="white"/>
<path d="M125.214 237.231C128.184 237.093 130.324 237.647 131.636 238.892C132.62 239.841 133.148 241.07 133.217 242.582C133.242 243.105 133.214 243.654 133.137 244.233L132.732 247.31C132.498 249.021 132.019 250.415 131.3 251.493C130.579 252.572 129.76 253.355 128.844 253.841L132.93 265.099L125.035 265.466L121.264 255.095L118.841 255.207L117.727 265.806L110.224 266.154L113.881 237.756L125.214 237.229V237.231ZM123.035 243.448L120.104 243.584L119.404 250.438L122.14 250.311C123.521 250.246 124.495 249.868 125.065 249.176C125.632 248.484 125.892 247.589 125.841 246.494C125.744 244.381 124.809 243.366 123.037 243.448H123.035Z" fill="white"/>
<path d="M149.772 264.32L149.722 258.167L143.196 258.47L141.565 264.702L134.101 265.049L142.839 236.415L155.736 235.815L157.197 263.977L149.772 264.322V264.32ZM147.182 243.072L144.556 253.153L149.675 252.916L149.643 242.958L147.181 243.073L147.182 243.072Z" fill="white"/>
<path d="M185.486 240.549L175.872 240.995L173.026 263.239L165.953 263.567L168.799 241.321L159.146 241.769L159.958 235.614L186.299 234.391L185.488 240.543L185.486 240.549Z" fill="white"/>
<path d="M205.463 261.733L185.845 262.643L189.502 234.244L209.121 233.334L208.309 239.487L195.725 240.071L195.07 245.394L205.467 244.911L204.655 251.064L194.259 251.547L193.689 256.16L206.273 255.576L205.461 261.731L205.463 261.733ZM202.828 230.217L197.044 230.485L192.233 221.338L199.268 221.011L202.828 230.217Z" fill="white"/>
<path d="M219.792 261.616C216.093 261.787 213.499 261.046 212.012 259.389C210.991 258.235 210.434 256.614 210.338 254.527C210.293 253.562 210.349 252.501 210.504 251.343L211.509 243.455C212.409 236.41 216.52 232.715 223.842 232.375C226.863 232.234 229.187 232.774 230.81 233.993C232.433 235.212 233.297 236.943 233.4 239.185C233.442 240.099 233.362 241.03 233.158 241.98C232.954 242.93 232.745 243.645 232.533 244.126L232.174 244.848L225.256 245.169C225.89 244.198 226.179 243.101 226.122 241.876C226.014 239.529 224.981 238.399 223.027 238.49C220.395 238.612 218.89 240.21 218.51 243.286L217.53 250.86C217.432 251.57 217.399 252.263 217.43 252.942C217.514 254.741 218.617 255.592 220.741 255.493C222.865 255.395 224.176 254.262 224.678 252.094L221.473 252.243L222.053 247.863L232.409 247.382L231.941 250.775L231.798 251.918C230.984 258.047 226.984 261.278 219.792 261.611V261.616Z" fill="white"/>
<path d="M254.94 259.435L235.321 260.347L238.979 231.948L258.597 231.038L257.786 237.191L245.202 237.775L244.549 243.098L254.945 242.615L254.133 248.768L243.737 249.251L243.168 253.864L255.751 253.28L254.94 259.433V259.435Z" fill="white"/>
<path d="M266.526 250.86C266.609 252.659 267.947 253.5 270.54 253.379C273.132 253.259 274.391 252.391 274.316 250.773C274.276 249.911 273.801 249.228 272.89 248.722C271.979 248.217 270.883 247.811 269.601 247.504C268.321 247.197 267.038 246.832 265.752 246.409C264.465 245.985 263.356 245.279 262.422 244.289C261.488 243.3 260.985 242.036 260.914 240.496C260.611 233.951 264.665 230.482 273.081 230.091C276.155 229.948 278.508 230.42 280.139 231.508C281.769 232.596 282.631 234.171 282.727 236.23C282.762 236.987 282.697 237.715 282.533 238.415C282.37 239.115 282.19 239.614 281.995 239.911L281.704 240.395L274.786 240.716C275.332 240.09 275.584 239.319 275.541 238.408C275.462 236.713 274.314 235.916 272.101 236.019C269.312 236.148 267.961 237.1 268.043 238.873C268.084 239.761 268.56 240.444 269.469 240.924C270.378 241.405 271.472 241.766 272.75 242.006C274.027 242.249 275.316 242.561 276.612 242.944C277.909 243.33 279.024 244.015 279.957 245.003C280.891 245.994 281.396 247.308 281.473 248.953C281.626 252.265 280.75 254.769 278.845 256.465C276.939 258.162 273.928 259.105 269.81 259.297C265.693 259.489 262.845 258.889 261.267 257.498C260.097 256.455 259.466 254.968 259.376 253.038C259.343 252.307 259.383 251.509 259.499 250.64L259.588 250.009L266.623 249.681L266.567 250.154C266.527 250.417 266.512 250.654 266.522 250.862L266.526 250.86Z" fill="white"/>
</g>
<defs>
<clipPath id="clip0_38_4956">
<rect width="317" height="320" fill="white"/>
</clipPath>
</defs>
</svg>
