<svg xmlns="http://www.w3.org/2000/svg" viewBox="0 0 559 180"><path data-name="Tracé 6657" d="M77.8 11.2s0 9 3.1 11.7 7.4 5.3 3.8 11.5l7.6 1s3-8.5-2.7-12.5-5.4-10.6-4.9-11.7-6.9 0-6.9 0" fill="#ef9755"/><path data-name="Tracé 6658" d="M265.3 49.5s5-7.5 4-11.4-3.1-8.6 3.3-11.7l-5.8-5s-7.1 5.4-4.7 11.8-1.5 11.8-2.4 12.5 5.6 3.8 5.6 3.8" fill="#75fafc"/><path data-name="Tracé 6659" d="M522.9 176s5-7.4 4-11.4-3.2-8.6 3.2-11.7l-5.7-5s-7.2 5.4-4.8 11.8-1.4 11.8-2.4 12.5 5.7 3.8 5.7 3.8" fill="#7cfa72"/><path data-name="Tracé 6660" d="M486 29.8s-.6-9-3.9-11.5-7.8-4.8-4.6-11.2l-7.6-.4s-2.3 8.6 3.5 12.2 6.1 10.2 5.8 11.4 6.8-.5 6.8-.5" fill="#fcd414"/><path data-name="Tracé 6661" d="M264.7 158.4s6.8 6 10.8 5.4 9-2 11.2 4.6l5.7-5s-4.5-7.8-11.2-6.2-11.5-2.9-12-3.9-4.5 5.1-4.5 5.1" fill="#ed1e79"/><path data-name="Tracé 6662" d="M11 130.7s6.8 6 11 5.4 8.8-2 11 4.6l5.8-5s-4.5-7.8-11.2-6.2-11.5-2.9-12-3.9-4.6 5.1-4.6 5.1" fill="#ed81aa"/><path data-name="Tracé 6663" d="M5.4 27.9s6.8 5.9 10.8 5.3 9-2 11.2 4.7l5.7-5.1S28.6 25 22 26.6s-11.5-2.8-12-3.9S5.3 28 5.3 28" fill="#4451ff"/><path data-name="Tracé 7253" d="M535.5 42s8.7-2.3 10.5-6 3.3-8.6 10.1-6.7l-1-7.6s-9-.6-11.4 5.9-8.8 8-10 7.8 1.8 6.6 1.8 6.6" fill="#4451ff"/><path data-name="Rectangle 314" fill="#c5b5f8" d="M44.5 78h8.2v11.7h-8.2z"/><path data-name="Rectangle 316" fill="#ed1e79" d="M335.2 1.4l7.2 2.9-4.5 11.2-7.2-2.9z"/><path data-name="Rectangle 317" fill="#6945d8" d="M269.1 112l7.3 3-4.6 11.2-7.2-3z"/><path data-name="Rectangle 318" fill="#ef9755" d="M504.7 74l5.5 5.5-8.5 8.5-5.5-5.5z"/><path data-name="Rectangle 319" fill="#ed81aa" d="M283.6 68.3l7.8.5-.6 7.8-7.8-.5z"/><path data-name="Rectangle 320" fill="#4451ff" d="M191.4 4.5l6.2-4.8 4.8 6.2-6.2 4.8z"/><path data-name="Rectangle 321" fill="#75fafc" d="M526 116.4l6.2-4.8 4.8 6.2-6.2 4.8z"/><path data-name="Rectangle 322" fill="#7cfa72" d="M-.4 97.4l6.1-4.8 4.8 6.2-6.1 4.8z"/><path data-name="Rectangle 323" fill="#fcd414" d="M46.8 173.5l6.2-4.8 4.8 6.2-6.2 4.8z"/></svg>