<svg xmlns="http://www.w3.org/2000/svg" viewBox="25.5 125.5 350 350"><path d="M359 265.5c-9.2 0-16.6-7-16.6-15.5v-61L183.7 338.1c-3.3 3-7.5 4.5-11.8 4.5a17 17 0 01-11.7-4.5 15 15 0 010-22L319 166.8h-65c-9.1 0-16.5-7-16.5-15.5s7.4-15.6 16.5-15.6h105c9 0 16.5 7 16.5 15.6V250c0 8.6-7.4 15.5-16.6 15.5m-152.1-47.1h-119a21.3 21.3 0 00-21.3 21.2v163c0 11.7 9.5 21.2 21.3 21.2h163.6c11.8 0 21.3-9.5 21.3-21.2v-98s26.4-28.8 31.9-28.8 12.5 3.5 12.5 12.3v136a41.4 41.4 0 01-41.7 41.1H67.2c-23 0-41.7-18.5-41.7-41.2V218.1A41.4 41.4 0 0167.2 177h152.2c6.9 0 12.5 5.5 12.5 12.3s-25 29-25 29"/></svg>