<svg xmlns="http://www.w3.org/2000/svg" viewBox="0 0 588.9 451.3"><path fill="#9CF682" d="M55 210.7L356 13.3 494.5 265 384.3 451.3l-283.9-58.2z"/><path fill-rule="evenodd" clip-rule="evenodd" fill="#FFF" d="M451 301.7c-18.5-23.3-19.6 3.5-36.3-2.2-11.1.3-5.8 21.8-26.4 20-22.8.2 1.5 2-23.4 26-3.9 5.3-21-8.6-24.6-10.4-4.7-11-11.3-11.6-21.8-8.6-5.4 3.7-13.4 27.3.4 25.8 4.7 2.2 8 21.9 4.6 25.5-18.1 3.2-6.8 39.3-16.4 47.2-19.3 15.5-170.8-18.5-190.4-27.5-.7-21.4-12.9-57.4-6-77.8 1.8-8.8 14.2 3.9 15.8-5.2l9.7-92.8c1-9.1-19.1-1.2-23.1-1.9-17-8-17.7-11.4-18.5-29.1-16.6-20 0-23.9-8-53 8.2-34.4 31.4 9.1 21-38-2.2-4.8 20.8-14.6 22.6-17.2 4.4-2.8 19 8 23.6 6.7 15-7.5 37.2-.2 53.2.2 4 .5 18.8 14.2 23.1 13 28.7-2 30.2-28.4 47.6-16 9.5 3.6 4.6-13.5 5.1-17.6 1.5-3.9 22.2-26.8 25.5-16-10.5 32-.8 15.7 8.4 39-2.2 13.5-16.6 28.3-8.1 40.6 2.6 5.5 22.5 1.5 23.3-2.6 6.3-32.7 23.6-1.3 30.5 13.2 111.6 41.8 71.1 8 69.5 111.9 1.7 1 12.8 2.3 12.9 5.5-1.8 3.4 24.3 49.2 6.2 41.3m-51 71.4l50.7 3.3-14 50.2-51.5 2.4z"/><path fill-rule="evenodd" clip-rule="evenodd" fill="#060605" d="M568.3 199.4c-14.7 0-21-11.7-21-23.5 0-10.3 6.3-23.7 20.7-23.7s21 12.4 21 23.6c0 10.1-6.1 23.6-20.7 23.6m0-42.1c-5.8 0-7.2 9-7.2 18.3 0 10 2.2 18.8 7.3 18.8 5.6 0 6.8-10.2 6.8-18.8 0-9.2-1.5-18.3-7-18.3m-57.5 39.6l53.9-81.3 4.8 3.6-53.6 81.2zm2-33.5c-14.8 0-20.8-11.7-20.8-23.6 0-10.2 6.4-23.5 20.8-23.5s20.8 13.3 20.8 23.5-6 23.6-20.8 23.6m.2-42.1c-5.8 0-7.3 9.6-7.3 18.2s1.5 19 7.3 19 6.8-10.2 6.8-18.8c0-9.1-1-18.4-6.8-18.4m-59.2 185.5c-5.2-1.4-15.5-13.7-17.6-13.7-4.7 2.6-14.5 11.8-19.8 11-4.8-.8-16-14-17.4-14-3.5 2.7-8.8 10.8-13.1 11.1-5.7.3-13-8.5-17.2-11.9-8 1.6-25 12.2-30.3 2.1q-1.2-2-.8-4.3a148 148 0 0118.2-35.2q4-3.5 9.3-4.7 12-.9 23.8.8c14.8.4 31.9-.4 46.3 1 14.2 1.3 17.2 8.6 21.7 20.5a154 154 0 017.8 28.5c.8 7-4 10.6-10.9 8.8m-15-47.3a8 8 0 00-4-.5c-.7.6 5.8 14.8 1.5 15-3.7.2-4.5-12.1-5.7-15l-47.1-2c-.5 2.8-2.7 17.6-4.6 18-5.9 1.5 1.4-17.2.5-18q-7.6-1.2-14.8 1.7c-5.5 3.6-9.2 17.4-12.3 23.4 10.8-.3 10.5-13.5 14.2-21l3.9-.1-5 16c9.5-3.8 12.3 7.3 20 9-.1-2-.2-16.8 3.6-16 4 4.3-1.5 10.3 1 15l7.4-6.6 1-18 3.1-.4v16.6l15.1 13.6v-25.7l2.5-1.5 1.5 1.5v18c0 1 .4 5.6 1.5 5.6 4.3-1.8 11.1-9.6 15.6-8.6 5.1 1.1 9.6 9 14.1 11.6-.7-5.7-8.7-29.6-13-31.6M191 154a26 26 0 01-8.1 4.2c-12-11 15.7-12.8 8-4.2m9.1-49.7c11.9-2.1 23.2 13.4 24 23.8.7 9.9-23 9.7-28.5 7.4-7.6-3.3-9-28.9 4.5-31.2m28.3 209.5l4-.5c5.2 11.8-8.4 12.6-4 .5m15-2.5c2 1.2.8 12.1-1.4 12.9-8.9 3-4.7-17.1 1.5-13m193.7-66.7c-8.3 6.6-15.5.5-11.4-9.8-3 .4-3.7 2.9-7.3 1.8a120 120 0 01-20-22.4 8 8 0 01.5-8.7c5.6-6.6 17.8 5.7 23.5 8q5-1.9 9-5.1 3.2-10.7 5.2-21.5c.5-3.1 1.8-10.8.2-13q-9.4-5.4-20-7.2c-31-8.7-63-14.5-94.7-20.4 3 18.6-.3 37.8-9.7 54.2-18.5 29-45.7 18-57.6-9.6-1.4-3.4-4-14.4-5-15.8-1.7-2.3-18-3-1.3-11.3a77 77 0 01.7-27.6c-1.6-2.2-13.8-.7-16.3-4.3-1.1-1.5-2.4-9.8-3.6-13-5-13.7-16.5-27.2-32.4-25.9-14.2 1.1-18.8 15.2-17.6 27.7.7 8.3 5.8 15.8 6 23.9-3.8 3.3-7.4 5.2-12 1.7a44 44 0 01-22 49l-16.1 120.3a171 171 0 0048 21.2c16.9 5 61 15.1 76.5 10 8.5-2.7 27.2-17.6 27.2.6q9.2 0 18.1-2.5c5.5-2 1.7-8.4 3.9-13-.4-1.2-1.3-1.4-2.4-1.6-5.5-1-14.2-.4-20.1-1-11.5-1-23-2.8-34.3-4-5-2-5-11.4.5-12.7l71.5 6.1c5.4 6.1 6.6 13.9-4 12.6l-1 11c11.2-.9 11.6 11.3 12 19.7.8 14.4-1 17.5-13 25.3l-1.2 35.9c-.8 2.6-11.4 2.2-12.5.7l1.3-43.1c2.6-3.6 15.2-7.5 16.2-11 1-2.8-2.4-16.9-7.2-16.1l-29.8 5.7q-2.6 30-2 60c.2 5.1 5.4 17.3-5.5 15.5-5.5-1-6.5-15.8-6.6-20.6-.3-5.5 1-10.3 1-15q-1.2-23.2 3-45.9c-6.5 4-14 6.5-21.6 7.1a295 295 0 01-107.5-25.3c-4-2-27.5-18-29.8-16l-3.8 15.5c.5 2.4 11.1 3.8 12.6 11.4q1.7 21 .2 42c0 5.4 1.9 9.5-6.6 10.6-11.3 1.4-6.5-13.5-6.4-19.6.2-9.6-.3-19.3 0-29-16-6.8-12.8-17.2-7.8-31.1 3.8-10.4 7.3-14.1 18.8-9.8l10-83.5c-17 4.8-39.8-7.5-42-25.7-.4-2.6.6-10.1.3-10.6q-3-2.3-6-5a24 24 0 01-4.5-19.5c.4-2.7 2.8-6 2.7-7.9s-2-5.8-2.5-8.5c-2.8-18.8 1.6-34.2 24-32.4.4-5-.8-10.9 0-15.6a32 32 0 0121.5-23.7 27 27 0 0127.2 11.1c8.6-6.4 15.4-14.2 27.4-10.3 2.3.8 4.9 3.8 6.9 4 3.2.4 9.5-1 14-.7 9 .8 17.6 4 25 9.2 1.1.8 1.6 2.8 2.3 3 1.7.2 4.8-1.8 7-2 3.8-.4 7.8 0 11.7-.1A25 25 0 01278.8 77c-2-14.6 14-35.6 29.4-33 15 2.5 3 21.7 3.9 25.2.3 1.3 4.7 4.8 6.1 7a40 40 0 01-.4 35.2 11 11 0 01-5.9 6.4l5.1 12.5 10-3.1c-.4-13.1 9.3-29.2 23.2-18.6 10.3 7.8 10.7 23 14 34.2 19.1 5.3 39 8.5 58 13.5 12.3 3.2 32.2 7.3 29.6 23.8zM123.4 215q2.4 0 4.8-.7c9.4-1.7 8.4-9.2 9.8-16.9q-5.3.3-10.3-.2a98 98 0 01-12.4-5.4c-2.1-.2-9.4 3.4-12.6 3.2a20.3 20.3 0 0020.7 20m-15.6-32.6l.6-11.1q-9.1-.9-16.7-6c-3.6 10.6 6.6 17.1 16.1 17m52.4-69c-4.3-2.7-5-5.5-11.9-2.7-3 1.2-9.5 14-13.9 5.3-2.9-5.9 6.7-15.5 12.6-16.1-10.7-23.4-34.6-9.7-30.9 13.3.8 5 7.4 13.9.5 17-5.5 2.7-18.4-7.6-23.2 0a18.4 18.4 0 0020.4 28c-3.3-4.8-3.2-19.1 4.5-19.2 9.8 0 2.7 9.4 5.7 14.6 3.8 6.5 13.7 2 14.1 9.1.5 8.4-11 5.4-16.1 3.5-12.9 27.7 24.3 23.6 35.6 8a36 36 0 001.3-33.4c-6-12.5-15.5 8.3-18.6 9.2-5 1.3-7.1-4.2-5.5-8.7a25 25 0 0120.8-15.3c5.9 0 11.2 6.9 10.6-4.4-.5-8.3-2-5.6-6-8.2m15-25.6c-1.6-1.3-15.4 8.7-12.6 13l4.5 2c-1.6-3.3 9.1-14 8-15zm78.3 31c-.3-1.5-3.9-4-5-6.1q-2.4-5.2-3-10.6c-1.6-1-9.6-2-8.8 1.1 1.5 5.6 8.5 11.3 8.1 18.6 3.7 1 10.2 3 8.7-3m7.2 44l1.5 1.5h27.2c2 0 8.7 2.3 9.4 4.7 2.2 7.7-11.3 5-14 6.8-1 .6-1.4 4-2.5 5.5-6.3 9.1-15 4.3-16.6-5-5 0-1.5 7.5-.4 10 5.3 13.2 19.9 27.4 33.2 14.2 11.8-11.8 13.3-40.3 9.2-55.6-2.1-7.9-11-29-19.6-30.7-15.5-3.2-26.1 15.3-27.4 28.4-.6 6.4.4 13.6 0 20.1m45.8-83c-3.2-3.1-9.4-1.8-9.7-7.5-.2-4.7 7.6-11 7.2-16.6a23 23 0 00-14.7 20.4c0 4.7 4.4 14 1.7 17.4-7.1 5.3-11.2-4.3-17.4-6-11.5-3.3-21.4 12.5-14.8 22.4 3.6.7 5-3.1 7.5-5a26 26 0 0133-.8c2 1.3 4.7 5.7 6.7 4.4q4-7.6 5-16.2a22 22 0 00-4.5-12.6m34.7 38.2l-2 19 12 3.1c1.7-2.2-4-22.3-10-22.1M408 47.3h-5.4V27.6h-18v-4.8h18v-18h5.4v18h18v4.8h-18zM232.3 8h-1.9l-.2 1.9-.2 11.8v3.2q0 6.5.7 8.3.6 1.7 2.4 1.7 2.2 0 3.3-2.3 1.2-2.2 1.3-7h2v.4a17 17 0 01-2 9.3q-2 3-6.4 3T225 35a30 30 0 01-1.9-13l.2-6.3.1-8.2-10-.2a107 107 0 01-1.8 24.6q-1.8 6.2-6.4 6.2-2.7 0-4.1-2.3-1.5-2.2-1.4-6.8v-1.5h1.9a6 6 0 00.8 3.1q.7 1 2.1 1 3.3 0 4.6-4.9c1.3-4.9 1.5-9.8 1.6-19.4h-1.8q-3 0-4.7 1a5 5 0 00-2.1 3.2h-1.9q.3-5.5 3-7.6 2.8-2.2 9.6-2.2l8.1.3 12 .2q2.7 0 4-.5t1.3-1.7h1.8v.2q0 4-1.8 6-1.8 1.7-6 1.7M90 268.7a27 27 0 00-7.5-1.3q-2.4 0-3.7 1.2-1.2 1-2 5.1l-.5 2.6H86l-1.7 10h-9.6L66.5 332q-.9 5.5-2.4 8.3-1.5 2.7-4.6 4.3a15 15 0 01-8.4 1.6q-7.2 0-13-1.8l2.6-10.4q5.1 1 7.8 1 3 0 4-1.7 1-1.5 1.8-6.2l7-41H52l1.7-9.8H63l.8-4.2Q65 265 66 263q1.5-3 4.2-4.7 3.4-2 9.8-2 6.3 0 12.5 1.9zM29.3 120.9v-4.1c5-.9 5-2.1 2.9-5.8L26 100.7a149 149 0 00-6.6 10c-2 3.4-1.8 5.1 3.7 6v4.1H0v-4.1c6.7-1.4 9.1-2.7 13.3-7.6q4.4-5.3 9.9-13.2L12.4 78.7C8.8 73 7.6 71.7 1 70.8v-4.1h29v4.1c-4 .9-4.9 2-3.1 4.8l5.8 9.2c2.6-3.5 4.9-7 6.2-9.2 1.6-2.8 1-4-3.9-4.8v-4.1h22.6v4.1c-6.8 1-8.7 1.4-13.2 7l-8.9 11.4 11.7 18.3c4.2 6.6 7 8.4 12.6 9.2v4.1zm96.4 280.3c6.3 8-9.8 13-12.4 7.8-3.7-7.7 6.8-11.2 12.4-7.8m125.7-30.3c15.2-3.5 14.6 23.1 1.7 24-13.3 1-11.2-21.8-1.7-24m.8 20c7.2.7 9-17.2 1.2-16-6.3.8-8 15.3-1.2 16m.2 14.2c15.2-3.4 13.2 24 .8 24-11.4 0-10.2-21.8-.8-24m.8 20c5.4 0 8.2-14.5 2.8-16q-1.4-.5-2.6 0c-5.5 1.5-5.5 16-.2 16M322 293.2c-.6-.4-5.8 2-7-1.7-2.7-8.6 16.2-10.1 8 1.6 8.1-1.9 8.6 6.6 13.6 11.1 11 10 25.4 9.4 39.2 9.1 5-.1 12.7-3.9 13.6 4.6.6 6-14.5 27.4-19.7 31.5-16.8 13.5-25-.8-32.8-14.4-3.4-5.8-17.2-31.4-17-36.3q.4-3 2-5.5m42.6 49c9-4.5 10.7-14.9-1.4-16.9l2 10c-6 2.2-5.9-9-10.7-9.9-3.1.4-5.4 3-5.2 6.2 1.4 7 7.4 14.7 15.3 10.7m38.8 1.7c1.2-2.9 4.5-7 4.9-8.2 1.6-5.7-.1-15.8 5.3-20.9 3.6-3.4 12.8-4 14.5 1.4 1.2 3.7-.2 18.5.5 19.2 8-1.5 29 5.4 31 13.8q-1.6 18-6.3 35.5-3.6 21.2-10.9 41.5c-2.5 4.7-7.9 5.8-9.5 0l8.8-37.5c-5.7-.4-12.1.6-17.6 0q-11.2-2.5-21.6-7c-2.1 1.8-7.3 40.6-12 46.5-2.5 3-8.7 4-9.1-1.8q1.8-15.2 6.2-29.9 6.4-26.7 15.8-52.6m115 4.8l24.1-65.4h9v4.5H546l-27.9 75.3h-3l-15-41.4-5.9 2.1-1.1-3.7 13.2-4.6z"/></svg>