<svg xmlns="http://www.w3.org/2000/svg" width="810.222" height="692.018" viewBox="212.019 59.482 810.222 692.018"><path fill="#7CFA72" d="M268.411 366.034L712.4 186.392l217.157 304.979-133.794 179.856-348.416-67.854-178.936-237.339z"/><path fill="#FFF" d="M444.888 163.384c-3.667 2.709-52.223 6.169-52.223 6.169l3.708 25.176-41.054-23.76s-115.832 5.919-133.921-2.084c-8.882-3.877-5.837-99.243 4.791-104.62 10.628-5.377 215.786-3.958 223.996 1.126 8.21 5.086 12.297 19.798 10.253 45.351-2.084 25.507-3.211 43.599-15.549 52.684m-30.134 71.398c21.129-10.337 44.848-9.586 39.512-40.096 18.26 1.416 87.864 4.042 103.995-2.335l56.978-11.837 33.39-31.428h30.427c7.71 11.003 16.88 30.718 13.461 44.431l15.256 6.462c5.626 70.023 26.259 155.886 26.259 155.886 46.057 44.058 65.94 71.277 92.826 117.253 44.767 76.401 32.718 163.802-23.927 229.494-47.392 10.547-143.967 19.799-189.482-1.665 15.13-64.19.835-61.479-14.674-2.792-46.265-22.261-12.085 24.382-42.263 12.92-15.171-10.588-.334-99.367-.416-114.461l-6.459-144.134c.83-61.561-8.255-65.978-23.76-65.978-7.628 0-10.672 28.595-21.801 28.009-7.587-.415-31.094-33.598-40.513-34.888-26.426-22.343-41.889-113.08-48.768-144.842"/><path fill="#060605" d="M799.598 557.145c.708 5.544 8.169 15.924-1.669 16.921-1.209-5.166-4.583-13.751 1.669-16.921m30.507 10.171c2.043 1.914 3.671 15.086-3.334 13.547-1.665-1.75-1.25-17.841 3.334-13.547m-5.918 30.553c4.169-.126 2.919 18.672.708 21.883l-4.957.122c.415-7.416-2.084-16.42 4.249-22.005m-9.5-40.598c.749.415 3.956 12.17 3.667 14.295-.582 4.335-5.129 3.627-5.255 5.21-.374 3.672 5.503 13.172-.83 17.633-5.003-3.378-5.544-10.005-3.338-15.174.668-1.539 3.586-2.752 3.961-4.543.252-1.123-8.666-24.173 1.795-17.421m-14.255-74.652c-7.42 1.543-9.59-11.67-5.088-11.837 2.792-.081 10.461 8.671 5.088 11.837m-14.426-37.306c3.338-3.333 20.719 13.006 11.047 18.631a19.594 19.594 0 01-11.047-18.586m-57.686-37.309c5.251-1.998 16.465 12.216 9.297 13.547-5.251 1.042-10.921-8.499-9.297-13.547m0 18.676h2.503c2.919 2.251 4.958 4.502 4.294 8.462-3.504 1.665-8.047-7.294-6.797-8.462m8.336 27.841l-1.539-10.877c6.582.082 7.417 6.586 6.749 11.837l-5.21-.96zm4.38-27.801l4.249 10.128c-3.333-2.084-10.005-6.253-4.249-10.128m1.706-33.886c2.918 1.249 10.212 6.419 7.627 10.091-3 4.33-16.379-3.42-7.627-10.091m12.296 17.34c6.839 7.087-2.874 9.96-6.292.419 1.623-3.044 4.461-2.296 6.252-.419m-4.584 33.47c5.585-.126 7.416 5.292 6.749 10.128-5.585.126-7.502-5.292-6.749-10.128m5.919 15.256c4.709 4.042 8.544 8.5 7.628 15.216-8.963 2.206-13.718-9.175-7.628-15.216m-4.254-35.599c7.714-.537 12.671 8.174 11.837 15.216-8.959 1.876-11.918-8.044-11.837-15.216m16.091 37.268c-2.377-1.001-8.255-10.965-3.338-11.841 3.96-.749 8.629 9.338 3.338 11.841m-2.504-45.726c1.958-2.292 13.258 9.085 10.132 13.506-7.588.915-10.84-7.421-10.132-13.506m16.925 57.563c-8.837 1.083-8.837-8.881-8.462-15.215 5.751-.835 10.587 13.001 8.462 15.256m-11.841-33.89c7.213-1.245 8.841 6.252 8.463 11.837-4.71 1.42-10.295-10.043-8.463-11.837m-148.298-50.266l-4.461-1.998.04-10.881c7.836-3.126 9.586 11.67 4.421 12.924m2.373 152.759c4.588-7.876 14.589 5.003 11.882 7.628-5.837.709-12.171-.378-11.882-7.587m5.088-164.348l3.957.708c4.714 12.004-9.46 10.921-3.957-.708m4.25 151.595c6.252-1.587 8.878 7.083 7.628 11.878-4.584 1.376-14.67-10.046-7.628-11.878m4.294-11.006c4.628-5.959 11.043-.122 10.127 5.918-5.832.92-7.795-1.042-10.127-5.918m45.016-299.519c-1.543 5.043-14.923.081-13.087-5.837 4.168-3.084 14.71.417 13.087 5.837m-17.341-19.924c-4.835 1.917-22.131 1.459-25.884-2.208-5.21-12.922 9.753-32.303 23.967-29.177 11.336 2.499 11.503 27.591 1.917 31.385M469.066 311.226s-2.21-4.75-.171-6.378c2.003-1.579 7.253 1.254 7.253 1.254 2.751 3.834-3.415 8.458-7.086 5.124m8.922 29.677c-4.921 2.418-8.629-6.085-5.002-8.377 5.751-3.627 11.462 5.21 5.002 8.336m20.422-21.674c-4.958-1.042-5.874-7.209-3.167-8.877 8.963-5.585 12.924 11.047 3.167 8.918m340.247 345.665c-4.547 7.123-25.595 27.63-26.263 29.51-1.001 2.833 2.585 6.041-.789 11.251-6.172 9.505-45.02 12.798-56.979 14.255-25.803 3.085-57.523 7.087-83.114 8.462-18.756 1.042-46.35 2.459-51.019-20.218-3.875-19.09 10.213-20.421 23.511-25.88 2.125-.879 5.337-3.166.375-3.044-7.836 2.873-20.047 5.088-24.386 12.919-1.584 2.838-1.914 10.087-4.543 10.84l-9.252-3.419c-1.336 20.218-11.756 28.762-31.97 22.636-18.508-5.63-9.378-26.89-7.501-39.183 3-19.88 7.709-42.516 8.918-62.269 1.502-24.26-2.292-50.897-1.083-74.363.415-7.542 8.462-6.338 10.547 2.251 2.417 10.005 4.042 32.596 4.168 43.224.456 30.093-5.503 61.146-9.546 90.824 1.918 2.751 16.506 5.837 17.67.455l23.385-129.415 7.209 2.833c1.087 28.469-4.25 56.812-9.708 84.612.582 13.966 35.01 29.303 46.973 32.511 11.837 3.167 20.426-2.752 32.511-1.25.834-3.252-1.164-3.252-2.833-4.75-15.838-14.467-28.135-26.051-36.472-46.599-34.928-86.158 42.431-157.346 127.543-130.88 11.422 3.541 31.099 12.585 30.553 26.258-13.587-3.419-24.59-11.67-38.677-14.715-89.325-19.383-147.053 61.562-94.328 136.633 3.834 5.499 23.678 27.968 28.721 28.928 4.876.957 10.835-.753 15.838.204 6.879 14.255-29.344 11.674-32.01 15.134 7.087 8.084 11.418 17.796 10.213 28.762 15.003-6.252 78.901-4.588 88.194-12.676 2.002-1.709 2.169-7.416 4.334-10.957 7.002-11.634 22.844-20.385 31.596-36.227 54.727-99.115-28.51-215.407-99.494-282.387a8.447 8.447 0 01-2.251-2.084l-.496-.419.122-.081-.293-.546c-1.791-3.623-4.331-15.671-5.166-24.756-3.627-40.347-7.921-80.652-16.424-120.168-1.75-8.126-3.334-19.672-14.169-17.004-2.003.499-5.837 13.129-14.756 2.626-1.461-3.127 5.17-16.089 5.833-21.676 2.337-20.256-9.17-37.096-30.426-27.801-14.837 6.419-19.84 24.134-24.969 37.931l-19.131-1.96v5.043h16.84v8.463h-16.84v16.839h-8.377v8.46h-8.462v8.422h-50.6v-8.422h-8.422v-8.46h-8.418v-8.42h-14.548l-85.027 20.3c-4.294 4.208 1.25 31.676 4.75 35.97 10.501 13.005 18.671-7.75 30.386-4.249 12.545 3.749-14.214 31.969-18.13 32.506-2.629.293-5.21-1.998-7.131-.749 6.671 18.216 13.09 52.937 25.509 67.357 12.423 14.589 47.559 13.962 62.106 3.167 3.542-2.625 9.13-11.544 11.462-12.13.473-.109.945-.15 1.417-.122a5.642 5.642 0 015.418 5.878c.126 7.209-22.632 48.015-28.803 52.102-8.666 5.751-16.42 2.874-23.506-3.753-5.751-5.418-10.42-17.674-14.963-21.671-3.627-3.257-13.172-5.21-18.341-9.134-17.336-13.001-31.383-69.687-36.679-91.446-3-12.505-11.755-43.18-9.712-54.186 1.25-6.961 11.255-10.712 17.214-12.879 3.92-1.417 12.048-3.584 22.676-6.169v-17.631h-8.417v-8.42h127.042l30.26-6.252c-3.627-3.627-9.586-21.675-9.586-21.258-4.918-35.847 30.386-31.094 46.684-10.671 18.924-10.754 44.934-15.755 58.268 5.835 6.672 10.797 4.963 20.426 3.672 32.263 20.133-3.544 22.217 25.843 24.675 40.055a1897.009 1897.009 0 0115.671 111.292c.456 4.208 1.751 17.877 5.545 22.171 11.25 13.298 25.757 24.802 37.635 37.933 60.939 67.145 113.374 177.56 58.566 263.634m-218.952-1.042c-.501-2.256-2.752-3.753-5.044-3.212v6.753l5.044-1.669a4.225 4.225 0 000-1.832M503.242 407.927c3.504-.96 12.422-14.841 6.211-17.507-7.209-3.545-7.209 6.338-11.169 9.798-3.875-2.752-1.083-6.839-.627-10.421-18.464 1.458-2.585 20.336 5.585 18.13m-29.299-201.195h-8.422v-8.42h-8.417v15.63l16.88-3.917-.041-3.293zm84.319 8.376h-8.463v-16.756h-8.417v8.337h-8.418v8.419h8.418v8.42h8.417v8.463h8.463v-16.883zm-95.826-86.695c-1.705 11.255-1.75 10.878-2.666 15.63-.961 30.427-34.68 30.136-62.44 29.635l3.92 16.172c.708 2.084 3.753 9.922 2.125 11.381a5.418 5.418 0 01-5.919.833l-49.476-27.511a9180.245 9180.245 0 01-83.11 1.793c-17.8-.083-43.309 6.961-52.851-13.005.749-36.679 2.207-42.347 3.167-78.276-2.792-20.299 10.754-26.01 29.051-24.343 50.518-.958 100.202-.542 150.553-.625 31.469 1.252 71.065-11.212 67.646 35.763-.122 4.459 1.042 32.263 0 32.511m-12.545-56.478a20.94 20.94 0 00-4.624-4.085l-216.828 1.333c-1.25.417-3.582 2.794-3.626 3.753a344.942 344.942 0 01-1.877 39.805c-.916 7.585-2.914 36.137-2.039 51.518.664 2.25 11.796 5.252 16.42 5.252 34.473-2.084 70.023-1.542 104.077-3.335 12.215-.959 15.716 3.335 15.716 3.335l34.595 20.341-6.085-18.633s-.542-5.835 5.169-5.835c5.711-.041 41.974-.501 56.351-7.502 3.586-.875 6.171-29.802 7.006-32.678 2.083-15.84 3.458-41.015-4.255-53.269m95.411 285.268l-7.962-1.751c-5.296-11.837 14.295-8.255 7.917 1.751m21.093 99.994c-5.129.997-6.627-10.755-4.209-11.842 5.625-1.168 9.167 10.84 4.168 11.842m1.75-32.181c5.545-1.042 8.671 11.837 3.375 13.506-7.795 2.499-7.376-12.757-3.334-13.506m3.749 45.308c-3.749 0-1.123-8.21 1.71-8.088 2.837.126 2.002 8.088-1.75 8.088m2.503-47.892c-4.001-1.584-4.628-9.794 0-9.086 2.332.334 3.207 7.462 0 9.086m9.126 14.381c-4.335.96-5.418-9.46-3.167-11.67 5.209-3.253 6.793 10.879 3.167 11.67m-4.335 16.964c-4.001 1.124-6.501-10.127-3.334-10.127 4.294 1.246 6.501 8.914 3.334 10.127m-41.849-71.566c1.417-.834 28.054-1.127 33.097-1.587 6.92-.668 26.593-4.25 36.138-4.168l.916-.041c1.668 0 5.25.334 5.711 2.21v1.128a12.564 12.564 0 01-.041 6.334l-.045 3.333-2.206.126-.086.082-57.104 5.295 1.71 35.137.419-.167s4.376-.293 5.291 1.917c.696 1.641.806 3.31.334 5.003-.289 2.002-1.583 3.46-4.836 4.086 0 0 .753 18.049.668 22.754l.252 25.428c1.665 26.886 5.418 53.979 6.419 80.737 1.205 33.052-2.295 66.274-8.173 98.781-.79 5.129 8.796 5.169 9.378 7.962-3.334 12.17-5.792 23.763-4.709 36.557-30.842-4.042-13.921-39.724-11.878-60.189 4.962-49.432-1.168-98.199-3.419-147.383a1437.753 1437.753 0 01-1.164-37.928l-3.045-71.778-.708-.582c-10.172 2.499-7.213-10.547-2.919-13.047"/><path fill="#75FAFC" d="M409.878 732.291c-3.712 2.5-11.588 6.212-11.421 6.334-6.167 2.585-31.677 10.754-33.138-3.627.586-8.751-20.214-86.696-16.754-87.945.667-.753-3.045-14.174-3.378-16.673-.416-3.293 2.295 1.877 2.377 2.373-5.21-18.838 16.09-30.508 32.596-20.173 16.131 8.589 22.839 68.358 25.465 84.445-.249-.163 4.628 21.801 5.67 29.136a25.054 25.054 0 01-1.461 6.13m-44.055-156.304c-.167.122-.419-.253-.753-.587-.208-.207.92 7.421.627 7.254a2.919 2.919 0 00-2.084.041c.252-.668.875-1.417.793-2.207 0-.626-.627-1.587-1.127-1.001-.248.415-.082 1.042-.334 1.376-1.498 1.791.293-11.007.375-10.754a380.256 380.256 0 00-4.168-22.095 4.22 4.22 0 00-1.665-.667c-1.584-.497-4.209 3.753-6.505 2.837-7.461-1.462-16.88 13.754-26.674 10.001l-.085-.081c2.584 1.831 27.345-19.88 35.307-18.924 9.545 2.752 3.415 12.631 4.832 17.385.171.749.5.289 1.042.497.96.834 2.751 15.378.419 16.925m-11.503-17.133c-6.672 23.759-52.021 84.278-66.275 82.78-.542-.171-.749-1.042-1.25-.92a4.168 4.168 0 00-2.499 1.962c.207.163.749.208.83.415 0 .501-21.923 12.545-26.673 10.587.053.11-.057.069-.334-.126-.293-.415-.419-.667-1.086-.708-1.942 1.254-3.847 1.502-5.707.749.708-.456 1.832-1.042 2.499-1.539-.167.293-16.172 4.209-16.88 3.126-.085-.586 1.083-.834 1.543-1.042-.708-.252-3.167-2.417-1.25-2.503 1.791-.582 3.415 2.251 5.833 1.583a2.982 2.982 0 001.376-.83c-1.75-.374-4.417-1.75-3.126-2.458 3.626-1.588 11.963-2.084 15.17-2.711 4.254-.627 4.461 2.165 8.381.081 1.25-.497 1.124-2.003-.126-1.917 7.502-.208 36.138-15.671 38.515-23.214 0-.374.749 0 1.209-.126 2.499-.501 11.251-13.005 10.628-10.628a10.873 10.873 0 005.458-6.09c.92-.415 1.836.709 2.377-.582 1.877-5.543 19.09-35.969 31.387-45.889m-94.702 122.044c8.922-4.877 29.93-13.006 36.805-2.337 3.211 4.209 11.173 47.352 8.877 49.35a53.44 53.44 0 00-.541 6.293c1.042-.708 2.084 7.295 1.376 5.255-.416-1.335-1.543-4.168-.668-.333.668 2.251-8.002 10.001-10.335 10.709h-.041l-.626.171c-.058.163-.249.22-.582.163-9.297 2.417-20.967 1.669-22.758-3.289-6.297-11.088-7.506-30.345-10.84-43.269-.582-4.917-3.5-13.547-2.458-19.046 1.249-.752 1.848-1.973 1.791-3.667m.419 1.375l.749-.834c.041-.334.126-.627-.208-.541-.627.248-.627 1.042-.834 1.75l.293-.375zm45.971-4.085c.211.04-3.333-17.088-2.5-24.049.167-.667.875-2.918 1.417-4.253 6.96-8.21 30.512-10.881 37.098-2.084 7.628 21.341 13.127 87.778 14.255 90.448-7.376 11.959-39.182 12.424-40.558-4.249 3.505-17.007-10.001-38.515-9.712-55.813"/><path fill="#ED1E79" d="M925.598 176.055c.167-.834 3.045-8.503 3.834-10.796 1.254-1.5 2.337 2.084 2.837 2.501.289.083.127-1.293.582-1.71 1.417-.832 4.25-1.125 5.919-1.874.46-.625 0-.668.586-1.419 1.388.946 2.557.751 3.501-.582.138.222.305.43.496.625 15.423.541 34.432-5.878 49.729 2.792.501.418 0 .959-.419 1.252-.542.582.085 2.332 1.294 1.417 1.124-.668 17.922 9.003 17.882 8.71.248.709-2.251-.458-2.003.542 1.392 3.113 3.447 4.225 6.171 3.335.415.916.139 1.708-.835 2.376.208.374 2.378.417 2.459.667l-.375.501c1.336-1.376 3.127 10.21 3.875 8.668 9.672-31.386-47.013-46.515-46.806-46.224.249.333-6.211-.167-8.544-1.875.444-.5.582-.834.416-1.001-4.169-1.376-21.342-1.543-24.26.958-1.042 1.126.708 3.544-.709 3.584-35.217.752-47.307 21.549-59.685 34.597-1.876 1.751 1.209-3.376.167-4.211-.045-.04-7.506 1.209-7.795 1.667.375-.582.623-.999.208-.999-.501-.25-2.671.625-2.919.875a4.171 4.171 0 01-2.291 1.417c-.167-.167-.086-.415-.167-.625a5.85 5.85 0 01-4.588-.417c-1.75 6.128 7.673 9.879 15.509 15.964 5.124 5.003.415 18.008.415 18.008l-6.668-1.083s0-1.71-.667-2.377c-1.335 1.709-2.166 4.461-3.834 5.878-.46.293 1.042-3.961.207-4.584-.708-.838-6.252 2.793-6.834 3.082-1.254.667.708-1.796-.167-1.543a4.309 4.309 0 01-2.084 1.543 1.303 1.303 0 00-.334-.42c-.443.615-.875.685-1.294.212-.289 0-3.916 2.003-5.418 1.083-1.083 6.92 24.508 17.507 28.676 14.002.42-.33.334-1.538.293-1.832-.04-1.164 4.669 6.253 7.755 4.002-1.169.627 7.375 14.128 7.294 13.925-1.168 1.526-1.237 3.317-.212 5.373.419.415.835.211 1.254.333 1.498.749.916 13.547 7.791 11.504v.085c.586 1.75 4.168 10.84 6.586 10.669.834-.122 6.252.293 6.671 2.589-1.168-1.042.997.911 2.707 1.245.586 1.295-.541 3.167 1.042 4.006 2.418 1.204 8.589 6.667 10.258 7.294 2.621 1.205 25.009 4.665 25.257 4.168 1.945 2.332 3.903 3.053 5.878 2.165 0-.748-.586-1.542-.586-2.336 0-.375 2.417-1.417 2.751-1.665 2.504-.224 4.726.57 6.672 2.373-1.042-.789 3.997-.997 4.957-.911.167-.334 5.585-2.752 4.087-1.881 1.389-.83 2.861-.997 4.417-.497.085.334-.249 1.164.293 1.042 1.042 0 3.167-.211 3.167-.211-.294.667 1.75-6.668 2.918-5.17.208.212.208.668.293.92.831-1.249.623-3.916-.92-3.004-1.416 1.172-5.332 2.923-4.416 2.084.289-3.749-10.587 4.168-11.381 5.048a8.27 8.27 0 00-.501-3.835c-1.75.163-8.377-2.458-9.004-1.669-.139.277-.207.651-.207 1.124-.501-1.246-9.334-.375-9.419-.334a7.915 7.915 0 01-1.502-3.248c.419-.082-11.585-3.338-15.753-6.586-3.167-2.626-39.85-33.345-28.554-40.847 5.002-1.421 32.429 8.088 30.426 2.373.92 1.836 1.669.419 2.919 1.669 2.084 2.336 2.918-2.915 4.795-3.627.419 1.111 1.083 1.445 1.998 1.001.46.708 2.296 1.209 2.296 1.209s1.791-4.168 2.666-3.338c.277.366.514.753.709 1.173a34.557 34.557 0 00-2.544 4.416c2.084-1.001 3.199-2.752 3.337-5.255 1.002 1.612 2.609 1.921 4.836.92.664.501.916 2.337 1.457 2.585l3.794-2.626c.415-.333 8.918 2.5 9.085 2.793-1.335-1.042 2.337-4.421 2.251-4.714-.167-.749 1.417 5.007 1.958 3.834.835-4.249 6.505-.329 6.667.42a24.886 24.886 0 012.003-4.002c.501-.5.415.876.627.456.415-.72.554-1.498.415-2.328-.541-.712-2.833 2.084-3.46 2.414-.61-.916-.415-1.86.586-2.833-1.196.749-2.267.639-3.211-.334-.195 1.445-.892 2.418-2.084 2.919 0-.749-.501-5.919-2.833-5.838-.961 0-.668 3.627-2.084.92-.293-.753-2.752-2.417-3.086-.708 0-.366-.224-.643-.667-.838 0-.582.419-.831.834-1.291 1.083-1.168-8.21 0-7.795.835-.623-.586-.167-2.296-.794-2.833-4.876-.171-11.918-.334-17.462-1.922-.334-.162-.415-.622-.586-.83a9.344 9.344 0 00-4.583 1.001c.085-.753.627-1.335.167-1.88-2.166-2.084-9.794-.415-13.046-.244-.627.04-.415-2.337-.627-3.171a4.284 4.284 0 01-1.205 2.251c-.126-.542.33-2.125.248-2.671a5.415 5.415 0 01-3.626.131c.626 2.914-5.671 4.038-9.086 4.876.749-2.629 1.331-5.796 1.124-5.629-.875.289-7.502 3.211-5.17 4.962 0 .04.501 0 .708-.086.546 0 .501.582.546 1.168.081 1.25-1.502 3.794-2.21 1.417-.195-1.25-.961-1.864-2.292-1.832 0-.045-.126-7.921.081-7.005-.122-1.376-.708 1.376-.956 1.127a16.885 16.885 0 00-1.25-3.166 65.824 65.824 0 003.415-1.421c.167-.415-3.46.419-3.748-.33a27.169 27.169 0 014.29-2.255c-2.442-1.583-2.915-3.569-1.417-5.959.627-.334 1.002-.25 1.502-.291a8.35 8.35 0 01-2.918-2.919c0-.526.167-.806.5-.834 11.503 3.836 53.226 6.006 59.063 11.546.415.753.667 2.377 1.791 2.666.708.086.834-1.331.667-1.331-.415-.334.293-1.376.957-1.795 1.587-.83 1.669-2.792 2.711 0-2.027 1.115-2.793 2.642-2.292 4.587 1.502-1.75 3-2.625 3.086-4.962.622 1.043 5.25.627 5.21.587.663.541.875 2.246 1.416 2.625 1.083-.126 10.213-.085 10.547.208a2.097 2.097 0 001.083-1.164c1.249-2.752 1.957.83 2.21 1.831-.627-1.376 1.665-3.915 2.373-4.917-1.042.537 1.917 3.875 2.169 4.25.139-.082.208-.22.208-.415 1.808.333 2.792-.407 2.959-2.211.42-.753 4.462 3.334 4.002 3.375.626-.416 1.542-3.208 2.291-3.997.627-.505.379 1.042.668.415a3.887 3.887 0 00.5-2.337c-.415-.627-4.542 2.919-4.335 1.962l1.128-1.127c-4.502-3.041-5.756 1.917-5.589 1.042 0-1.042 1.755-2.626.253-3.126-.501-.249-7.462-3.084-6.92-3.251-1.209-.25-1.083 1-1.751 1.586.277-.944.013-1.586-.793-1.919.419-.751-6.668-1.794-7.335-1.085.224-1.333-.167-2.194-1.169-2.583-3.875 2.625-13.253-2.835-18.129-2.919a66.623 66.623 0 00-19.258-3.333 4.144 4.144 0 00-.834-2.335c-.126 1.333-.664 2.793-.997 1.25 0-.832.138-1.624.415-2.375a9.741 9.741 0 00-3.92-.458c.712 4.335-16.88.959-14.255 3.043.126.124.542 0 .835 0 .834 1.277.5 2.444-1.002 3.5-1.958-.374.167-3.209-2.914-2.418-.419.043-.419.585-.419.959-.054.083-.11.083-.167 0a29.127 29.127 0 01.419-8.837h-1.001c-.542.71-3.546 5.67-5.296 4.168-.122-.207-.623-14.255-1.958-13.086-.708.415-.582 1.791-1.123 2.167a2.081 2.081 0 01-2.251-.46c-.92-1.834-.167-3.265 2.251-4.292.415 0 3.248-1.877 3.455-3.543"/><path d="M337.979 94.484a10.432 10.432 0 00-6.839 2c-5.666 4.876-7.168 11.462-7.835 17.216a66.65 66.65 0 00.374 18.38c1.001 6.295 6.879 11.796 12.504 11.796 12.63 0 13.212-17.13 13.465-24.467.374-11.169-1.209-18.423-4.795-22.133a9.161 9.161 0 00-6.874-2.792m3.748 22.259c-.997 11.753-1.583 14.171-1.709 14.672-.443 1.583-1.388 2.777-2.833 3.584a2.915 2.915 0 01-2.585-.21c-3.207-1.667-3.207-6.667-3.207-11.92v-2.125c0-11.672 3.96-19.384 6.586-19.384.944.029 1.762 1.042 2.458 3.043a37.912 37.912 0 011.291 11.338v1.002zm-32.718-22.259a10.014 10.014 0 00-6.834 2c-5.67 4.876-7.127 11.462-7.836 17.216a66.689 66.689 0 00.375 18.38c.997 6.295 6.875 11.796 12.504 11.796 12.627 0 13.213-17.13 13.461-24.467.375-11.169-1.249-18.423-4.791-22.133a9.177 9.177 0 00-6.879-2.792m3.753 22.259c-1.001 11.753-1.587 14.171-1.709 14.672-.448 1.583-1.393 2.777-2.837 3.584a2.912 2.912 0 01-2.584-.21c-3.208-1.667-3.208-6.667-3.208-11.92v-2.125c0-11.672 3.961-19.384 6.586-19.384.944.029 1.763 1.042 2.459 3.043a37.914 37.914 0 011.294 11.338v1.002zm70.105-25.259l-.334-.083a33.34 33.34 0 00-5.918-.543h-.126c-1.498 0-1.998 2.794-2.332 21.174 0 1.96-.082 3.877-.126 5.377a384.585 384.585 0 01-3.749-8.377c-6.126-13.756-8.336-17.965-10.005-17.965l-7.502-.541h-.46l-.249.333c-.155.25-.244.538-.252.833v.458c0 .834.334 5.42.419 6.044l2.084 31.595c0 .083.708 7.168.916 7.544l.542.625h.333c2.67-.21 4.253-.167 5.21-.167 1.168 0 1.669 0 2.169-.374l.289-.21v-1.126c-1.872-18.339-2.707-25.674-3.081-28.843l15.297 29.719.333.083c1.498.279 3.029.348 4.583.21h1.001l.582-.625v-.25l.208-3.751v-7.378c.167-25.426.167-28.678.627-32.095V92.9c.057-.444-.029-.834-.253-1.166l-.206-.25zm19.799 3.083l-.041-.334v-.332l-.249-.21a2.118 2.118 0 00-1.086-.417h-1.999c-3.419 0-5.711.083-6.211 1.459v.209l-.167.875-.208 4.001c-.415 10.795-.916 21.966-.916 33.011 0 2.001 2.459 2.001 3.501 2.001.582 0 2.292-.124 2.707-.21l.586-.081.041-.627c1.417-16.463 2.584-25.257 3.252-30.51.443-2.778.72-5.559.834-8.336l-.044-.499zm-7.002 40.849c-3.333 0-4.835 3.126-4.835 6.002a3.92 3.92 0 004.168 4.168c3.085 0 4.709-3.002 4.709-5.835a4.165 4.165 0 00-3.875-4.335h-.167zm-126.586-5.711l3.753-.417h.334c.248-.055.398.014.456.21.293 2.041 1.249 6.583 4.208 6.583 2.751 0 6.044-2.666 6.044-5.417 0-13.296-18.089-15.173-18.089-27.427-.069-7.072 5.561-12.887 12.631-13.046a8.789 8.789 0 011.665.334c4.001 1.125 5.544 1.833 7.379 5.751.387.833.627 1.667.708 2.501l-4.709 5.21-.334.083c-1.917 0-2.833-6.461-6.96-6.461-1.877 0-2.752 1.335-2.752 3.252 0 9.712 17.214 12.044 18.341 27.343.542 7.752-5.544 15.671-14.047 15.671-5.751 0-8.71-2.875-10.587-7.752l-.126-.374a10.881 10.881 0 01-1.001-3.961c.001-1.458 1.877-1.916 3.086-2.083"/></svg>