<svg xmlns="http://www.w3.org/2000/svg" viewBox="317 0 365.9 200"><path fill="#FFF" d="M681.4 77.1q-1.2 7-6.9 11.6l3.3 15-56.3 35.7-15.4-2s-.8 4.4-5 11c6.4 9 28.6 29.2 28.6 29.2s6.2-22 10.4-31.3q6.2.3 12-2.4l-11 42.7c-3.2 6.2-4.4 9.5-12 7.6-21-5.1-35-26.1-39.5-32.2-11.8 10.9-31.8 23.1-65.6 31.8-26.6 7-65-3.6-65-3.6s-18.6 6.5-59 3.4c-40.5-3-63.8-.8-63.8-.8l-17.2-6-2-5.4s-1.1-3.7 6-5.4 35-.8 40.7-3.2 19.9-16.4 22.5-53.6 44.9-58.4 67-52.8 33.1 8.5 40.4 10.7c0 0 15.2-11.3 21.7-11.6s38.6 17 38.6 17L607.6 29l3.3-6.2a46 46 0 0118-20.3c14.6-8.3 16.2 7.5 16.2 7.5l-5.8 17.3 13.2 8.4s20.6-14.9 25.3-8.4c4.8 6.5-10 26.1-10 26.1s15 7.8 13.6 23.8"/><path fill="#060605" d="M420.2 80.8c2-.6 3.6.8 2.3 2l-4.2 2.8c-1.6.6-2.8 0-2.2-1.7q1.8-2 4.1-3.1m-1.4 17c.2 1.2-.5 5.5-2.1 5.2-2.4-.4-.8-7.1 2-5.2m.9-9c1.4-.4 2.5.3 1.8 1.8-.5 1-5 5.6-6.5 4.6-1.6-1.1 4-6.2 4.7-6.4m-7.5 11.6c-.8 1-1.3 4.6-3.1 4-1.7-.8 0-4.8 1-5.1s2.1 0 2 1.1m2.3-8c-1.7 2.5-5.5 4-3.7-.1 1.5-3.5 6-3.4 3.7 0m11-8.8q1.4-1.5 3.4-2.4 1.1-.2 1.5.7c.9 2.8-7.2 6-5 1.7m5.3 4.3c-1.8.8-3.9 6.7-5.7 6.2-2.5-.8 2-7.7 4.3-8 1.4-.3 2 .6 1.4 1.8m69 88.9v1.8a5 5 0 01-6.2-1.2c-.4-2.3 5-1.1 6.1-.6m-2.3 6c-1.4 1-6.5 1-5.7-1.5.4-1.2 7.2-1.6 5.7 1.6m-6.8 2.4l4.9.6c2 3.1-7.8 3.4-5-.6m-3.1-2.1c-.6 1.8-8.4.4-5-2.6 1.9.5 5-.1 5 2.6m3.2-8.3l.5 1.5c-.5 2.4-9.6.2-6.6-1.8 1.3-.9 4.5.5 6.1.3m76.6-23.5c-1.6-1.2 2.7-6.1 4.3-5 2 1.4-2.9 6-4.3 5m2.1 5.8c-2.6-.8 2.4-5.9 3.5-6.2 1.3-.4 2.5.3 1.8 1.9-.4.7-4.3 4.5-5.3 4.3m5-16.5c.4-1.2 2.6-4.2 3.7-4.5 6-1.7-3.8 9.7-3.7 4.5m5.5 7.9c-2.4-.7 2.7-8.2 5-6.7.9.8-3.1 7-5 6.7m-1.9 11c-2.7-.8 2.7-6.3 3.4-7.2l1.9.4c1 1.3-3.8 7.2-5.3 6.7M571 136c1.4 2-5.1 7.6-6.4 6.2v-2c.3-.7 5.5-5.6 6.4-4.2m-13 23c-1.7-1.3 3-7 5.1-5.8 1 1-3.5 7-5.2 5.7m7.1-1.9c1.2 1.7-4 6.2-4.7 3.6-.5-1.5 3.7-5 4.7-3.6m7.3-75l-.6-.5v-.2a.6.6 0 01.6-.7h.6a.6.6 0 01.4 1.1q-.4.4-1 .4m1.5 1.5q-.1.6-.7.6l-1 .1a1 1 0 01-1-1v-.1q.3-.6.9-.6h1a1 1 0 01.8 1m70.6 32.6c-.8.5-2 .2-2.9.2-.4-5.2 5.8-2 2.9-.2m-4 5.1c1.8 1.8-1.4 3.7-3.1 3.2-2.6-2.4 1.8-4.6 3.1-3.2m-34.2-11.8l-5.3-.2c-.5-1.5 2.8-1.1 3.6-1 .7 0 1.8.2 1.7 1.2M605 96.9c3.3-1 3.2 2.8.3 2.9-2.3 0-2-2.4-.3-2.9m11.5 8.8c.1 1.9-3.2 2-3.7 1.1-1.4-2.1 2.7-3.5 3.7-1m.4-11.2c2.8-.3 2.8 4.2-.5 3.7-2.7-.4-1.8-3.5.5-3.7m14.5-3.8c5.6-5.7 7.6 7.8 9.6 9.7 1.5 1.4 15.2-.7 12 4.1-1.4 2-15.2 2.7-18 4.2l-20.8 18.9c-.2 1 .4.6 1 .8 2 .8 5.5.5 5.2 3.2-4.3 1.4-12-2.7-14.8-6-1.5-2-6.1-14.3-3.1-15 2.6 1 2.2 4.6 3 7 1 3.2 2.5 7.2 5.6 8.6l21.5-20c.9-2-2.1-10.8-2.1-13.6 0-1 .2-1.2.9-1.9m44.9-1.8c.6 4.9 5 13.1 1.6 17.4l-27.4 18.4q3 7 4.2 14.5c1.3 8.2-2.3 18.2-4.4 26.3-1.7 6.6-6 25.5-9.8 29.9a16 16 0 01-8.4 4.5c-7.6.4-24.6-11.3-30.3-16.4-5.3-4.8-9.4-10.8-14.2-16a132 132 0 01-56 27.9 154 154 0 01-59 1.1c-12-1.5-16.1-.8-27.8 0q-18 1.4-35.8.6c-16.4-.8-36-4.8-52.1-3.6-4.2.3-9.5 4-14.8 4.5-4 .4-18 .8-13.6-6.2-1.5.8-11.6-2.2-9.6-4.3 4.6.5 8.8 2.2 13.4 1l-11.5-2.2c-2-.5-3.8-1.9-3.8-4.2.3-1.5 8.6 1 10.3 1.1q2.3 0 4.5-.5l-7.2-1c-5.9-1.7-7.2-3.8-1.2-6.7a50 50 0 0123.5-3.7c9.6.6 13.8 3.8 22-4.3 16.2-16.2 11.3-47.6 22.4-68.4 18-33.9 60.4-40.7 93.9-27 1.3.6 7.9 4 8.4 4 .9 0 4.4-4.6 5.7-5.6a40 40 0 0116.2-6.2c4.5 0 22.8 11 28.6 13.4 2.4 1 9.8 4.3 12 3.7a33 33 0 004.4-4.2c14-14.7 27-30.4 41-45 1.2-1.2 3.8-4.2 5.3-4.3 3.4-.2 1.8 3.6.2 5-16 16.1-30.3 33.7-46 50-3.6 3.7-3.5 4.5-8.6 2.8-12-4.1-23-10.7-34.1-16.6-4.4-.9-12.8 2.1-16.3 5-1 .8-5.6 6.2-4.9 6.9q5 0 8.6 3.6c.7.7 1.5 2.7 2.2 3 .8.5.6-.3.7-.6q1.3-3 2.3-5.9c.6-2.1-.5-5.4 3.2-5.9l1.2.7c1.8 1.8-3 11.6-2.4 12.2a65 65 0 0019.3 2c3-.2 7.8-2 10.5 0 4.2 3-8.9 4.6-10.4 4.7q-7.6.4-15.1-1.2c-1-.2-5.6-1.7-6-1.6-2.2.4.8 7.2 0 8.5q-.9 1.5-2.5.7c-1.6-.8-1.7-2.7-3-3.5 0 1.4-2.6 6.7-3.6 7-5.7 2-1.2-7.7-1.6-10.3-.7-.2-.7.8-.8 1.3-.6 1.8-1.8 12.2-5.7 7.7-2.1-2.5 2.2-8 2.2-11-2.7 2-1.5 9.5-6.2 7.4-4.2-1.8 2.5-9 1.9-9.7-.8-1-1 .6-1.2.9-.8 1.4-1.6 4.2-3.6 3.6-2.3-.6-1.3-2.8-.6-4.4 1-2.2 5.8-8.3 4.7-10.2-.7-1-14-6.3-16-7a72 72 0 00-67.6 12.3c-12.6 10.6-16.3 23-19.6 38.7-3.9 17.7-3.3 39.4-20.3 50.4.4.7 1 .5 1.6.7 23.2 5.7 35.9 5.9 58.3-2.4a80 80 0 0040.3-28.5c1.4-2.1 3.3-6.8 4.7-8.3 1-1 3-1.1 3.4.3.8 2.3-3.1 8.2-4.5 10.2a79 79 0 01-34.6 27.3q-.2.3.3 1c.8.7 3 1.5 4.2 2.4 8.4 6.3 13 9.6 23.3 13a131 131 0 00114.6-21C590.2 160 597.8 149 606 138c0-.5-6.6-3.4-7.7-4.1-5-3-15-12-18-17-2.3-4-7.9-23.5-8.9-28.8q-.3-1.5-.2-2.8h2.5l.8.7 7.2 25.3 2 2.1c4.4-14.6 17-26.3 29.5-34.6 5-3.5 15.8-10.9 21.8-8.9 1.3.5 8.5 4.7 7.4 6.3-3.6 1.3-7.5-4.7-11-4.1q-4 1.5-7.8 3.7a102 102 0 00-25.4 20.5 71 71 0 00-11.9 20.1c-.2.8-.4.8.1 1.6q3.2 3.6 6.8 6.7c5.2 4.6 18.8 12.6 25.6 13 2.7.3 8-3.4 10.6-5 15.2-9 29.5-19.4 44.6-28.6.3-2-4.6-5.7-5.4-7.6-.1-1 .1-.6.7-.9 2.1-1 3.4 2.2 5 3l-1.9-8.5c-12.8-.2-22-13.5-21-25.7.2-2.1 2.4-6.4 2.4-7-.3-2.5-5.6-5.4-8-4.7-.5 12.3-10.2 17-20.8 11-9.8-5.6-17.7-21.8-11.8-32.3 1-2 2.8-2.9 3.9-4.7 0-1.6-3.4-2.2-2-6.3 1.2-3.7 8.7-12.6 12.8-13 12.1-1.3 4.3 14.4.2 18.8A31 31 0 01645.8 50c4 .6 8.2 2.2 9.5 6.3q3.1-2.4 7.2-2.9-1.5-3-3.2-5.7A81 81 0 00642.1 32q-3-2-6.3-3.6c3.2-5.8 11.6-20.7 2.5-24.6-7.3-3-15.9 4-20.3 9.3-1.6 1.8-2.6 4-4.2 5.8-.5.5-.5 1.3-1.5 1.1-1.6-1.9 7.5-11.8 9.3-13.4 5.6-4.7 16.3-9.9 22.5-3.6 3.7 3.7 2.5 10.4 1 14.7-.8 2.6-3.8 7.2-4.1 9.3-.2 1.7 2.6 2.1 4 3 1.4.7 6.4 4.3 7.2 4.3 6.5-3.2 13.7-9.8 21.4-9 4.8.5 9.2 4 9 9.3-.4 5.6-11.8 14.6-15 19.6 12.6 5 22.4 26.2 8.6 35M432 175.6c-8 2.9-15.9 6.2-24.4 7.1-21.3 2.3-36.7-5-56.4-6.2q-5-.3-10 0-.9 0-1.2.7v8.2c0 .3 1 1.8 1 2.5l8.8 1c9.4.8 19.1.4 28.6 1 22 1.4 52.6 7 73.5.4.6-.1 1.2-.1 1.3-.9-8-3-14.6-8.6-21.2-13.8M633.3 136l-12.3 6.6-10.8-2.8c-2.6 3.5-5.2 5.2-3.9 10a56 56 0 0019.7 21.5c.9.3.5-.1.7-.5 3.9-7 5.8-16.6 9.8-23.7zm6.8 11c-4.3 9.4-7.2 19.8-11.5 29-.6 1.3-2.7 6.4-4.1 6.4-2.8 0 .6-5.5 0-6.7a70 70 0 01-19.6-19.7c-.4-.7-2.7-6-3.1-5.6q-3 4.8-6.7 9.2c-1 1.3-4.6 3.9-4.3 5.2.3.9 5.4 6.8 6.4 8 7.3 8.1 21.1 19.6 31.8 22.2 7.6 1.9 8.8-1.4 12-7.6l11-42.8a24 24 0 01-12 2.5M622.8 30c-17.3 3-1.4 39.1 14.6 31.3 12.7-6.1.6-34-14.6-31.3m39.6 26.2c-7.9 1.3-8.2 11.5-6.3 17.6 2.5 7.8 13.4 18 20.5 9.5 7.5-9-2-29-14.2-27m14.2-18.8c1.5-2.4 2-4.6-.7-6.4-7-4.8-14 2.8-20.5 5-.8 1.1 3.4 4.4 4.2 5.5 1.8 2.1 3.8 5.9 5.4 7.5.3.4.4 1 1 .8.9-.2 9.6-11 10.6-12.4m-2.2 37.2c-.3.5-2.2 0-2.9.2-2.4.6-4 2.5-6.8.3-3-2.4-.6-5.2-1-5.7-2.3-1-7-4.6-2.1-5 2 1.6 12.1 6.3 12.8 8.2q.3 1 0 2M632 50.2q-1.8-1.5-3.7-2.5c-2.7-1.4-6-1.6-8-2.6-2.2-1.1-.2-2.3 1.9-2.3 4.6.1 9.5 3.6 13.1 6.2.8-1-2.7-7 .7-6.1 2.2.6 3 8.5 1.6 9.9-2.4 2.4-4.2-1.3-5.6-2.6m-7.4 134.6c-1 .1-2.4-1.2-2.2-2 .4-1 1.6-.4 2.5.2a1 1 0 01-.3 1.8m-2 0q.9.3 1.2 1c.2.7-1 .7-1.6 0l-.2-.1q-.6-.9.6-.9M610.6 28c-1.4.3-3.6-2.5-1.2-3.1 2.6-.8 3.3 2.8 1.2 3.1"/></svg>