<svg xmlns="http://www.w3.org/2000/svg" viewBox="0 0 500 500"><path fill-rule="evenodd" clip-rule="evenodd" fill="#060605" d="M132.4 250.1l-.2-7.3 8.4 1.4c3.2 4.4-3.9 9.8-8.2 5.9m10.4 34.4c-5.7 2.8-10-7-5.8-9.7 6.6-4.2 13.3 6 5.8 9.7m23.6-25.1c-5.7-1.3-6.8-8.4-3.7-10.4 10.4-6.4 15 12.9 3.7 10.4m284.2 149.4c-.9 4.2 1 9-3.3 11.8-7.4 3.8-8.2-10.4-9-15.4-11.5-86-12.7-174.2-31.1-259.3-2-9.4-3.8-22.8-16.4-19.7-2.3.6-6.7 15.2-17 3-1.8-3.6 6-18.6 6.7-25 2.7-23.5-10.6-43-35.3-32.2-17.1 7.4-23 27.9-28.8 43.9l-18.4 2.7 2.3 34 6.3 3c5.5 7.9-6.3 7-8.5 10-1.6 2.2-4.8 16.5-7.3 21.5-14.8 30.5-46 39.1-65.9 7.7-12.1-19.1-13-42-10.9-64L81.4 162.5c-5 4.9 1.5 36.6 5.5 41.6 12.2 15 21.6-9 35.2-5 14.5 4.4-16.5 37-21 37.7-3 .4-6-2.3-8.2-.8 7.7 21 15.1 61.2 29.5 78s55 16.1 71.9 3.6c4-3 10.5-13.4 13.3-14 4.4-1.2 7.8 2.5 7.9 6.6.1 8.3-26.2 55.6-33.4 60.3-10 6.7-19 3.3-27.2-4.4-6.7-6.2-12.1-20.4-17.3-25-4.2-3.8-15.3-6-21.2-10.6-20.1-15-36.4-80.6-42.5-105.9-3.5-14.4-13.6-50-11.2-62.7 1.4-8 13-12.4 19.9-14.9 25.1-9 56.7-12.2 82.8-19.4 1.5-9 2.4-18 6-26.6 11.8-28 37-20 36.6 8.6l12.1 3c5.8-22.8 25.4-39.5 50-34.8-5.7-41.4 35.1-36 54-12.3 22-12.4 52-18.2 67.4 6.7 7.7 12.6 5.7 23.7 4.3 37.4 23.3-4.1 25.7 30 28.5 46.4a2019 2019 0 0126 220.7c.8 13.3 3.2 18.6.3 32M172 362c4-1.1 14.4-17.2 7.2-20.3-8.3-4-8.3 7.4-12.9 11.4-4.5-3.2-1.3-8-.8-12-21.3 1.6-3 23.4 6.5 20.9m20.8-257.8c-3.1-18-15.8 16.9-13.6 19 17.6.6 16.1-4.6 13.6-19m59-10.7c-4 1.3-17.8 16-15 19L270 106c5.6-11.7-9.3-15-18.3-12.3m31.9 26.6c-7.4.3-51.4 5.2-53.8 9-6.2 18-.1 70.8 24.5 72.2 13 .8 27.9-20 27.8-32 0-3-.1-2.4-3-2.3-3 15.4-18.5 13.4-21.5-1.3l-15.8-3.1c-3.5-13 12.8-7 19.8-10.7h23.5zM82.4 351.5l7.4.2c-1.8-8.5-3.3-29.5 10.7-26.7s9.7 18.3 12.3 27.1c.7 2.1 4 4.6 5.5 8.2 6.2 16.5 27.1 85 25.7 99.2-.1 1.6-.8 5-3.4 4.2q-3-.6-5.3-2.3c-6.7-5.2-12-45.1-15.2-55.2a79 79 0 01-45.4 7.6c-3 3 11 39.3 8.9 45.9-1.4 4-6.4 3-9 .3-3.1-3.2-6-16.4-7.4-21.4-4.7-16.6-14-52.2-15.1-68.2-.8-9.6 5.6-10.8 5.8-14.8.5-8.7-11.7-22.9 2-30 19.6-10 18.2 13.1 22.5 26m138.2-48.1l-9.2-2c-6.2-13.7 16.5-9.6 9.2 2m-9.3 29c1.7-1 32.5-1.3 38.3-1.9 9.5-.9 39.8-6.5 46.7-4.2 5.1 1.6 3.5 13.5 0 14.6l-67.1 6.3 3 40.8 3.8-3c4.6 5.4 5.8 13.4-2.4 14.5l1.6 56.6h-15.1l-4.6-108.8c-12.7 3.8-9.3-12-4.2-15m31.5 39v7.5h-6c-.6-5 .3-8.4 6-7.5m3.1 46.2l-4.6.7c-6.5-25.9 12.7-6.6 4.6-.7m6.7 17.3c-4.2 1-4.1-6.9-3.7-9 5.7-3 8 8.1 3.7 9m.6-38q-4.6 2.6-8.1-1.3l.7-13.6c9-.7 8.1 8.2 7.4 15m1-28.5c2.7.4 3.7 8.6 0 10.5-4.7-1.8-5.4-11.3 0-10.5M261 410l-4.6 3.7.8-10.5zm0-28c6-3.7 8 12.7 3.7 13.6-5 1.1-6.2-11-3.6-13.5m49-42.6l-5.2-2.3v-12.6c9.2-3.7 11.2 13.5 5.2 14.9m13.2-12.5c5.5 13.9-11 12.7-4.6-.8zm35.1-244.2c13.2 2.9 13.4 32 2.2 36.4-5.6 2.2-25.6 1.6-29.9-2.6-6-15 11.3-37.4 27.7-33.8m22.3 59.4c-1.7 5.8-17.2 0-15.1-6.7 4.8-3.6 17 .4 15.1 6.7"/></svg>