<svg xmlns="http://www.w3.org/2000/svg" viewBox="0 0 76.8 91"><path fill-rule="evenodd" clip-rule="evenodd" fill="#EF9755" d="M71.01 31a2.3 2.3 0 01-1.4 1.49l-.05.02a520 520 0 01-14.69 3.11c-2.78.57-5.65 1.15-8.48 1.75q-2.67.31-3.83-1.07c-.94-1.13-1.04-3.08-.3-5.5a129 129 0 016.01-15.58l.23-.5c.66-1.47 1.58-3.48 3.01-3.97 1.1-.23 2.25.14 3.02.97L70.27 28.8c.57.58.84 1.38.74 2.19m-1.88-1.78l-.17-.2c-2.6-3-5.4-5.95-8.09-8.8a306 306 0 01-7.08-7.64c-.45-.4-1.04-.84-1.53-.75l-.13.04c-.3.13-.77 1.16-.93 1.5l-.05.1c-1.4 3.02-2.78 6.42-4.07 9.64a95 95 0 00-3.45 9.7q-.6 2.16.1 2.98c.6.5 1.4.7 2.14.5q2.15-.3 4.25-.83 1.1-.27 2.2-.5l4.72-.92c3.65-.7 7.43-1.42 11-2.32l.45-.1q.67-.06 1.2-.52c.55-.55.1-1.15-.56-1.88m-13.07 2.1q-.21.05-.43.03a1.3 1.3 0 01-1.19-1.25c-.02-.54.28-1.05.77-1.28.5-.22 1.08-.13 1.5.23.37.35.5.88.35 1.36-.13.47-.52.83-1 .92m-.6-3.49q-.2.04-.4 0c-.44-.06-.8-.4-.9-.83l-1.82-9.32c-.03-.64.44-1.2 1.09-1.28a1.2 1.2 0 011.44.84q.06.24.06.48l.01.24c.36 1.96.65 3.95.93 5.88l.12.84.1.5c.24.7.27 1.46.07 2.17q-.24.39-.7.48M60.3 13.9l-.04.02q-.4.18-.86.3a.8.8 0 01-.64-.09.5.5 0 01-.2-.5c.02-.39.52-.53.93-.64l.28-.08q.16-.07.31-.17.18-.11.38-.2c.21-.1.46-.08.65.05.16.14.23.35.19.55-.02.1-.04.34-1 .76m-1.53-1.49q-.31.52-.86.74-.16.03-.33-.04a.5.5 0 01-.3-.34c-.07-.33.23-.64.46-.9l.15-.15q.39-.55.75-1.12l.1-.22c.16-.34.25-.5.37-.57a.6.6 0 01.61-.01.6.6 0 01.25.58q-.45 1.05-1.14 1.95zm-1.63-2.03q-.02.68-.23 1.3a.6.6 0 01-.42.35h-.2c-.3-.1-.5-.4-.45-.7q.1-1.19.35-2.35.05-.31.33-.5c.2-.08.43-.06.6.07l.09.05.12.6-.03.06q-.15.54-.16 1.12M52.88 91H5.6L0 57.9l13.05-24.05 46.92 24.04z"/><path fill="#FFF" d="M53.73 33.44l-9.18-2.67q-.17-1.61-.54-3.19c-.19-.29-1.4-.68-1.4-.68l-1.22 2.65-1.1.3-2.67-3.71-1.67-.3-2.86 2.01-3.43-3.23h-3.14l-1.38 2.43v2.14l-1.57.66-2.7 16.72-9.56 11.4s-3.13 5.45-2.93 10.98c.2 5.52 2.02 8.73 4.35 10.78 2.34 2.05 1.05 1.87 1.05 1.87l11.48 1.68 7.82-1.78-.83-4.83h1.07l1.47 4.47 2.4-.8.79 2.43 1.16-.3.89-1.96-.84-9.82.66-14.84.44-6.8 8.42-.7 2.59-3.95z"/><path fill-rule="evenodd" clip-rule="evenodd" fill="#060605" d="M41.32 45.04q.03.15.02.3a1 1 0 01-1.06.92c-.21-.2.81-1.49 1.04-1.22m-30.38 22.5c.47-.44.5 1.22.34 1.4-.72.16-.55-1.2-.34-1.4m.6 3.15c.66.58.4 1.5.44 2.27l-.51-.01c-.22-.34-.35-2.27.07-2.26m2.71-2.45c-1.01-.1-.25-1.17-.17-1.74.64.33.3 1.21.17 1.74m-2.1-.26q.08-.76.37-1.47c1.08-.7.16 1.68.19 1.8.03.18.34.3.4.46.28.54.13 1.2-.34 1.57-.65-.46-.05-1.44-.08-1.82-.02-.16-.48-.1-.55-.54m1.84-9.16c-.55-.33.24-1.22.53-1.21.45 0 .23 1.37-.53 1.21m1.49-3.84a2 2 0 01-1.14 1.92c-1-.58.8-2.27 1.14-1.92m5.93-1.91c.13.12-.34 1.03-.7.86a.85.85 0 01.44-.87zm0-1.93c.17.52-.41 1.5-.95 1.4-.75-.14.41-1.6.95-1.4m-.7 3.67l-.15 1.12-.54.1c-.07-.55.02-1.21.7-1.22m-.6-1.74c.59.4-.1.83-.44 1.04zm-.18-3.5c.9.7-.48 1.5-.79 1.05-.26-.38.49-.91.79-1.04m-.62 1.84c-.35.98-1.35.68-.64-.04.18-.2.47-.27.64.04m-.34 1.3c0 .75-.3 1.77-1.22 1.57-.09-.72.43-1.62 1.22-1.56m.18 2.1c.07.5-.13 1.06-.7 1.05-.08-.5.12-1.06.7-1.05m-1.4 3.14a1.7 1.7 0 01.78-1.57.9.9 0 01-.78 1.57m-.44-1.4c-.54-.26-.06-1.3.35-1.22.5.1-.1 1.12-.35 1.22m.26-4.7c.07.62-.26 1.48-1.05 1.39-.32-.46.84-1.64 1.05-1.4m-1.75 5.93c-.21-.23.28-1.66.88-1.57.04.65.03 1.68-.87 1.57m1.23-3.5c.18.2-.4 1.37-.88 1.23-.04-.59.13-1.35.88-1.23m15.72-6.34l-.17 1.03-.53.08c.03-.47-.18-1.06.26-1.4zm-1.93 17.69c-.28-.27.75-1.6 1.23-.78.02.74-.63.85-1.23.78m.69-17.61c.51 1.07-.82 1.35-.51-.02zm-.43 15.51c.73.2-.3 1.37-.78 1.22-.12-.5.14-1.38.78-1.22m-1.48-.52c-.1-.63.57-1.22 1.04-.61-.24.5-.44.7-1.04.6m-3.5-31.23l-.1-.53c1.44-1.24 1.96.36.1.53m4.12-4.2c1.32 2.4-1.2 2.1-2.85 1.71-1.2-2.78 1.31-4.52 2.85-1.71m7.33 30.02h-.26c-.04-1.68 1-.3.26 0m0-3.32c-.54-.17-.22-1.5.34-1.39.42.08.47 1.65-.34 1.4m-.61-2l.18-.6c.78-.08.53 1.4-.18.6m-.44 1.83c-.73-.11-.27-.75-.26-1.22.7-.13.66 1.14.26 1.22m.61.7c0 .38.1.91-.35 1.04 0-.38-.1-.9.35-1.04m1.23-2.1c-.15-.11-.2-.8.25-.7.55.12.06.95-.25.7m-.26 3.5c-.52-.1-.15-1.34.43-1.23.03.32.08 1.33-.43 1.23M52.6 41.9c-.44 1.5-1.75 5.44-2.9 6.37-.8.65-2.76.91-3.09 1.18-.23.19-.17.92-.83 1-.82.12-1.4-.6-2.08-.7a16 16 0 00-2.63 0c-.2.04-.36.07-.41.3-.25 3.7-.2 7.43-.37 11.14-.23 5.07-.86 10.08-.35 15.17.2 2.11 1.95 5.79-1.23 6.2q.1-1.92-.48-3.76c.06-.28 1.05-.3.96-.82a48 48 0 01-.83-10.17c.1-3.01.57-6.06.7-9.07a20 20 0 01.18-4.19c-.85-.1-.64-.62-.52-1.3l.52.17.17-3.66-6.12-.53v-1.1c.04-.2.4-.23.58-.23 1.28.01 2.76.36 4.05.46q2.14.14 4.28.18c.28-.24-1.77-1.6-1-2.4l.4-.15 3 2.35c1.9-.28 3.4.12 4.56-1.67a27 27 0 002.48-6.6c.06-.5-.36.07-.87-.16-.48-.23-2.23-2.38-2.08-2.93.38-1.36 2.04.47 2.55.54 1.4.21 1.65-3.11 1.63-4.04-.15-.6-10.63-2.71-12.06-2.91 1.3 5.07-3.85 11.3-7.07 4.36-.42-.9-.11-1.33-1.31-1.83-.09-.37.56-.4.67-.73.2-.58 0-2.26.2-3.02L31.62 29c-.43-1.9-2.16-4.85-4.5-3.8-1.46.67-1.21 2.55-.91 3.8.12.5.96 1.87-.34 1.75-.61-.06-1.41-1.85-2.11.51l-2.34 15.63c-7.36 6.85-16.23 19-10.52 29.33.9 1.63 2.53 2.53 3.25 3.73.22.36.24.95.44 1.13.96.83 7.54.66 9.09 1.3a3.8 3.8 0 011.05-2.96c-.28-.35-4-.09-3.3-1.55.51-.1 1.11.07 1.63-.03s2.56-2.4 2.96-2.97c5.42-7.73-.52-16.07-9.72-14.07-1.44.32-2.58 1.16-3.98 1.52-.05-1.4 1.98-2.34 3.15-2.7 8.76-2.73 16.72 4.6 13.12 13.47a12.6 12.6 0 01-3.75 4.8c-.17.15-.38.15-.3.49 1.26-.16 2.13.45 3.36.12 1.23-.32 4.77-1.9 4.83-3.34-.67-2.85-1-5.78-1-8.7l.75-.3 2.4 13.32c.12.55 1.62.23 1.82-.05a64 64 0 01-.98-9.35q.04-2.25.43-4.45c.21-.89 1.05-1.01 1.09-.23.12 2.41-.27 5.15-.12 7.65.13 2.03.61 4.36.92 6.41.2 1.27 1.13 3.45-.77 4.03-2.08.64-3.15-.25-3.3-2.33l-.94.35c-.27-.07-.3-.82-.47-1.1-.45-.82-1.7-1.04-2.5-1.34-.52-.01-.2.22.03.31 1.37.57 2.82.7 2.42 2.67-.48 2.33-3.32 2.19-5.25 2.08-2.64-.14-5.9-.55-8.56-.87-1.23-.15-5.23-.49-5.87-1.47-.34-.53.02-.86-.08-1.16-.07-.19-2.23-2.3-2.7-3.04-5.64-8.85-.25-20.22 6.03-27.14 1.31-1.45 2.95-2.72 4.14-4.22.84-4.86 1.07-10.18 2.14-14.97.34-1.5.54-2.57 2.29-2.78-.92-4.48 3.17-5.91 6.53-3.68 1.33-2.5 5.26-2.56 4.72 1.05 2.1-.62 3.8 1.05 4.38 2.97 1.86.19.7-2.23 2.36-2.44 1.9-.24 2.34 2.4 2.55 3.8 2.03.62 4.26.9 6.29 1.48 1.6.45 3.11.64 2.91 2.63a55 55 0 01-1.81 7.61m-20 35.78l.52.18v-.7h-.18a.44.44 0 00-.34.52m3.14-49.39l3.14.53c-.43-1.54-2.95-2.76-3.13-.53m3.69 2.03l-4.73-.8-.18 2.96c.93.14 2.36-.18 3.23 0q.4.21.7.53c.37.78-2.3.42-2.51.55-.07.04-.5 1.15-.88 1.3 2.93 5.33 5.41-1.49 4.37-4.54m3.47-2.72l-.34 1.8c.1.36 1.05.5 1.39.47.15-.14-.47-2.2-1.05-2.27"/></svg>