<svg xmlns="http://www.w3.org/2000/svg" viewBox="0 0 140 140"><path fill-rule="evenodd" clip-rule="evenodd" fill="#060605" d="M91 92.9c1 .2 1 3.2.3 3.2-1-.2-1-3.2-.4-3.2m1.8 3.5a3 3 0 01.9 3.2c-1 1-2.2-2.8-.9-3.2m-1.5 2a4 4 0 011.1 4c-1.5.3-1.9-4-1.1-4M106 121c-.2.8-1.4.4-2 .2-1.6-.6-6.8-4.7-8.4-6-5.3-4.4-10.1-9.7-14.8-14.8-.4-.1-2 2.2-2.4 2.7q-1.5 1.4-3.2 2.6l23.3 27.8c.2 1-2 1.3-2.5.4L70.1 103l-.6.3c-3.9 6-7 12.5-11.2 18.2a29 29 0 01-5.4 6c-1 .2-1.2-.6-.8-1.5 3.8-5.3 8-10.5 11.4-16l2.8-4.8v-.7a8 8 0 01-6.2-4.6l-.5.2a249 249 0 01-16.4 21.3c-1.1.8-2.5.4-1.7-1.1 1.3-2.4 7.7-7.8 8-10A871 871 0 0051.7 76c.1-3.5-.2-7.2 0-10.7.1-.7.5-6 2-5.1.8 1.5.2 3.2.2 4.7q.5 17.4-.6 34.6c-.2 2.3-.8 4.5-.8 6.8 3-3.2 5.1-7.4 7.8-10.8q5.5-6.8 10.6.4c2.1-2 3.5-3.8 6.4-1.7 2.4 1.8 4.4 4.4 6.4 6.4q6.8 6.6 13.9 13v-2c-2.3-15.5-5.5-30.9-7.2-46.3Q90 62.7 90 60q0-.7.6-1c1-.4 1.7 4 1.9 5 3.6 16.8 5 34.6 7.8 51.6.5 1.7 6.3 3.3 5.7 5.5M86.2 15.5c1.9-1.5 2.9 1.7 3.2 3C91 25 88.7 35 86 41l-1.3 2.3c-.2.2-.8.2-1 0-2.5-6-1.4-13.1-.2-19.3.4-1.7 1.5-7.5 2.7-8.4m2.7 26.7l1.8 11.3c-.5 2-5.2-.4-5.5-.1.3 3.4-5 4.6-5.6 1-.1-.9.7-2.3.6-2.5s-2-1.3-1.1-2c.6-.5 7.6 1.8 8.7 2.2l.6-.3c-.3-2.7-1.4-5.8-1.7-8.5s2.4-6 3.3-8.7a34 34 0 00-.6-22.8c-.8-1.9-2.8-5-5-4.6-1 2 1.7 4.5 1.2 6.5-.1.7-.9.8-1.2 1.3-4.1 5.6-5 14.6-4.6 21.4l-.8-.1c-1.3-4.8-.6-10.6.9-15.3.8-2.7 2.1-6.2 4.4-8-1.5-1.9-3.3-7.5.6-7.6 4.3 0 7.1 7.2 8 10.6 2 9 .5 18.3-4 26.2m-6.2 10.2c-.3-.3-1.2 0-1.3.5.7 1.3 1.8.1 1.3-.5m-3.3 11.7a2 2 0 012 .7q1.3.7 0 1.1l.3 1.4c-.2.2-1.3-.7-1.4-1-.4-.6 0-1-.2-1.2-.1-.2-1 0-.7-1m8 30.6l-.5-3h.8c.1.9 1.1 2.8-.4 3m-1 .9c-.7.6-1.2-2-1.3-2.3a5 5 0 01.6-3q1.2 2.6.6 5.3m-1.4 3.9c-.2.2-1.1-.6-1.2-.7l-.2-5 .6-.2c.8.3 1 4.8.8 5.9M73 90.4c.4 2.1-1.5 2.7-.8.2zm13.8-24h.8c.8 3.6-1.4 7.8-3.5 10.6-1 1.3-6.6 7.3-7.8 7.8-.7.3-4.6 1-5 .5-1-2.3 3.5-1.7 4.4-2.3l.7-1a58 58 0 007-7.3 16 16 0 003.4-8.2m-13.2 7.4h-.4l-.4-1 .4-.4.8 1zm-1.8-39.4l-2.6-1.2c.2.3 1 .8.9 1.2q-.3.5-1 .4l-3.5-1.3q-.5-.4-.3-1 2-.2 3.9.7-.4-.5-.3-1.1 1.6-.2 2.9 1l.3-.6a2.5 2.5 0 012.7 2.6l-2.4-1.5c-.4.2.2.9-.6.8M57.3 83.1c-1-2.4-1.8-12-1.6-14.9 0-.3 0-.9.4-1s.8.7 1 1l2.3 14.3a4 4 0 002 1.5c1.5.5 5.4 0 4.4 1.9-2.8.6-7.1.2-8.5-2.8M57 34.7c.9 1 2.5 1.7 2.6 3.2q0 1.4-1.4 1a72 72 0 01-7-3.8c-5.3-3.7-7-13-5.5-18.8.3-1 .6-1.8 1.7-1.5l.1 4.2A98 98 0 0057 34.7m9.6 13.7c.2.2.8 2.3-.3 2.2-1-.5-.8-2.8.3-2.2m2-.3l-.2 2.2h-.8c-.4-1-.5-2.5 1-2.2m1.3 1.3c.8.1.4 2-.6 2-.1-.6-.3-2.1.6-2m0 36.4h-1c-.7-3 2-2.9 1 0m.9 6.3h-.4c-2-1.5.5-2.2.4 0m1-.3H71V90h.8zm-.4-18.6l1 .3c.5.7.4 1.6-.5 1.8-1-.4-1.8-1.7-.5-2.1m-3.1 12.5c-.5 1.8-3-1.5 0-1.4zm-5.7-8c-1.7-1.2 1.6-1.9 1.7-2.2.4-2.9-2-3.7-3.7-5.4a20 20 0 01-2.7-3.4c-.3-1.2.8-4.3 1.2-5.6.4-1 2.8-8.2 3.3-8.3l1 .1q.3.6.2 1.2c-.3 2-2.2 5.6-2.9 7.7-.2.5-1.2 3.4-1 3.6 1.8.6 3.2 2.3 4.7 3.4 1 .1 5.8-5.7 6.5-2.2-.1 1-2.7 3.6-3.5 4.4-1.6 1.6-3 1.4-1.8 4.3.9-.3 4.2-1.7 4.6-.5q.3.5-.2 1c-.6.8-6.7 2.4-7.4 1.9m-1.7-44.4a77 77 0 01-11.2-13 7 7 0 01-1.4-4.9c0-.8 1.5-6-1-4.5-2 1.4-3 7.5-3 9.9 0 8.8 3 12.8 9.9 17.6 1 .7 2.6 1 3.1 2.4l-6.4 11.6 2-.6c1-.4 4.7-2.5 5.3-2 1.7 1-1.6 2-1.8 2.1-.4.8.8 2.9-.9 4.8-2.1 2.5-4.5 0-4.2-2.7-3.9.7-2.5-1.7-1.6-4 1.3-3.1 3.4-6 4.8-9-5.2-3-9.8-6.9-11.3-12.9C41.9 23.3 42 15 45 10.9c1.1-1.5 3.3-3 4.9-1s-.4 4.4 0 6.8a27 27 0 004.4 7c3 3.3 7.3 7 10 10.4q.7.7.7 1.8c-.5.6-3.5-2-4-2.6m-7.5 21l1-.1c.2-1.9-1.3-1.8-1 0m13 56.2c.5 1.3 1 3.2-.1 4.3-2 0-.4-4.7.2-4.3m1.8 6c.8.3 1.1 3.4.4 3.5q-.3-.3-.6-.3c-.3-.4-1-3.5.2-3.3m0-10.1c1.7-.6 1.3 4.4.5 4.6-1 .3-1-4.4-.4-4.6m1.6 5.4c1.1-.3 1.5 3.8.7 4-1.5.6-1.8-3.7-.7-4m.6-5.5c1.2-.3 1.4 3.5.7 3.8-1.5.5-1.3-3.7-.7-3.8m1.7 11.7l.4 2.6c-1.7.9-1.8-3.4-.4-2.6m.5-6.9l-.4-2.6c1.4-.7 2.3 3 .4 2.6m1.2 4.6c-1 .3-1.3-3.1-.9-3.8 1-.7 1.8 3.6.9 3.8"/></svg>