<svg xmlns="http://www.w3.org/2000/svg" width="424.94" height="440.1"><style>.B{fill:#7cfa72}.C{fill:#ccea74}.D{fill:#ecfce6}.E{fill:#338927}.F{fill:#2d6307}</style><path d="M174.84 0l169.83 91.89-12.49 144.06 92.77 82.8-57.48 121.35-352.09-56.92L0 202.12 174.84 0z" fill="#d3efde"/><path d="M127.18 113.2l63.75-17.32 98.81 93.91v73.11l24.47 50.62-89.57 36.23-55.58-36.23-18.44-24.84 18.44-25.78 17.77-25.11-36.22-43.17-23.43-39.53V113.2z" fill="#c8fefe"/><path d="M300.46 375.11c-.1-.25-.18-.51-.25-.77a5.64 5.64 0 011.1-4.91c1.3-1.32 3.46-.79 5.06-.43-.12-.78.34-1.52 1.09-1.76.83-.28 1.5.42 2.08.89.06-1.03.43-2.02 1.06-2.84 1.14-1.33 3.08.28 4.06 1.07.03-1.01.25-2.01.66-2.93a2.41 2.41 0 011.61-1.36c1.85-.37 1.89 1.82 1.91 3.1a5.88 5.88 0 00.52-.6c1.44-1.57 3.66-2.77 5.69-1.45.61.41 1.07 1 1.32 1.68.05.13.06.3.11.42.04.09.12 0 .17-.04.52-.41.99-.95 1.54-1.37 1.57-1.19 5.39-3.14 6.66-.66a3.91 3.91 0 01.12 2.57c.59-.28 1.17-.59 1.72-.93a6.93 6.93 0 014.74-.44c.64.28 1.16.77 1.49 1.39.09.15.16.4.25.52.02.04.07.07.12.07.81.07 1.56.41 2.14.99 1.16 1.28.42 3.53-.37 4.84a12.82 12.82 0 01-.87 1.18h.82a2.34 2.34 0 011.14.65c.94 1.04.94 2.63-.02 3.66.6-.12 1.22.02 1.72.37 1.04.82.83 2.41.34 3.48-.5.99-1.24 1.85-2.15 2.49-.03.02-.06 0-.04.08.55-.09 1.1-.13 1.65-.13 2.72.16 4.44 2.47 2.65 4.89-.49.69-1.21 1.19-2.03 1.39-.01.06.02.07.06.09.15.11.41.21.58.33 1.57 1.11 1.36 3.36.53 4.87a5.26 5.26 0 01-5 2.76 5.69 5.69 0 011.13 1.85c.42 1.07-.11 2.28-1.18 2.7-.55.21-1.16.19-1.69-.08l.33.49c.56.98 1.07 2.34.07 3.23-1.13 1.01-2.51.38-3.51-.45l.19.76a3.64 3.64 0 01-1.4 3.69c-1.88 1.28-4.04.08-5.14-1.6l-.47-.78v.69c.05.91-.06 1.82-.32 2.69-.69 2.01-2.83 2.82-4.18.88-.47-.7-.77-1.5-.88-2.33 0-.04 0-.09-.05-.12-.43 1-1.22 1.94-2.37 1.23a3.496 3.496 0 01-1.33-2.01c-.01-.05.03-.06-.07-.05-.25 1.67-.93 3.24-1.95 4.58a2.826 2.826 0 01-4.92-.7 8.197 8.197 0 01-.28-4.85l-.69 1.1c-.74 1.03-2.54 3.23-3.77 1.53-1.17-1.6.48-3.59 1.37-4.9.12-.16.22-.33.31-.51-.13.05-.26.12-.38.21-1.75 1.12-4.04 2.69-6.23 2.01a3.22 3.22 0 01-1.97-2.43 5.92 5.92 0 01.78-3.52l-1.05.8c-1.29.89-2.89 1.75-4.3.54-1.32-1.14-.49-3.03.27-4.24.18-.28.53-.67.66-.94.02-.03.02-.07.02-.1-.85-.08-1.97-.32-2.36-1.16-.29-.84-.18-1.77.3-2.52l.56-.86c-1.07.39-2.59 1.13-3.69.5-.35-.24-.62-.58-.75-.99-.06-.21-.03-.44-.14-.62a7.964 7.964 0 013.11-3.32c.08-.05.39-.18.4-.24-.52-.49-.76-1.2-.66-1.9.13-.3.32-.57.56-.8-.33-.34-.6-.73-.8-1.16-.43-.92-.29-2.01.36-2.79.41-.62.89-1.19 1.44-1.69 0-.07-.78-.83-.89-.97a3.023 3.023 0 01-.75-3.28c.23-.69.94-1.08 1.64-.92.18.07.35.15.51.24l.03.03h.03l.23.13-.07-.18c-.02-.03-.07-.02-.07-.02m17.2-3.35v-.62c-.05-.29-.13-.58-.25-.85a1.912 1.912 0 00-2.57-.8c-.11.06-.21.12-.3.2-.3.25-.57.54-.79.86-.09-.82-.36-1.6-.77-2.31-.84-1.1-1.65-.36-1.74.77-.03.7 0 1.4.07 2.1l.23 1.85-1.1-1.52a5.646 5.646 0 00-2.6-1.81c-.18-.05-.75-.2-.89-.11a.2.2 0 00-.08.12c.04.79.22 1.57.53 2.31l.27.58-.7-.42c-.93-.47-2.1-.88-3.01-.13-.65.6-.83 1.54-.47 2.34a11.58 11.58 0 002.63 4.18c.01.04.02.05-.02.08a3.79 3.79 0 00-.4.3c-1.03 1.11.25 2.76.95 3.69-.48-.25-.98-.47-1.5-.64-2.02-.56-3.2.3-3.08 2.41a4.65 4.65 0 002.34 3.76c.01.08 0 .05-.05.07-.53.2-1.27.25-1.52.88-.39.95.55 1.79 1.33 2.15.13.06.72.24.75.27s0 .05-.02.07c-.1.1-.31.2-.43.3-2.17 1.8-3.03 5.1.61 5.7a7.75 7.75 0 002.45-.06c-.51.66-1.03 1.53-.22 2.2 1.1.91 2.68-.05 3.65-.72l1.64-1.25c-.25.73-.58 1.44-.76 2.2-.32 1.33-.36 3.01 1.23 3.46 2.12.6 3.91-1.83 4.83-3.4a11.01 11.01 0 001.05-2.32c.04 0 .05.06.06.09.2 1.31.49 3.61 2.33 3.45 1.71-.15 2.07-3.11 2.15-4.42v-.52c.05-.07.06.02.07.05.41.8.98 1.67 2.02 1.66.26-.04.51-.12.75-.24.52 1.63 2.12 4.3 4.15 2.93 1.34-.9 1.32-2.71.89-4.1 1.79.37 3.79-1.14 4.34-2.79a4.49 4.49 0 00-.71-3.64l-.33-.44s.05-.05.08-.05a10.03 10.03 0 003.51-1c1.62-.96 2.12-3.02.04-3.8-.21-.08-.45-.11-.65-.18-.18-.07.23-.12.29-.15a4.2 4.2 0 002.95-2.63c.46-1.62-.05-3.18-1.84-3.47-.04 0-.06.02-.05-.05.83-.98 1.5-2.09 1.95-3.29.78-2.27-.08-4.1-2.7-3.66a10.06 10.06 0 00-3.84 1.7c-.07.05-.14.18-.21.09-.36-.8-1.27-1.19-2.1-.89-.32.07-.6.26-.93.32l.37-.61c.5-.87.99-2.14.28-3.03-.95-1.18-2.09-.43-2.91.43l-.62.77c-.08-1.27-.48-2.89-1.8-3.4-1.59-.61-3.17.76-3.62 2.21a4.23 4.23 0 00-.1 2.09 3.984 3.984 0 00-5.17.68m28.36 12.29v.03s.02-.02 0-.03" class="B"/><g class="C"><use href="#B"/><path d="M300.33 375.18l-.03-.03.03.03"/></g><use href="#C" class="D"/><use href="#D" class="E"/><path d="M345.93 384.06s.02.02 0 .03v-.03z" class="F"/><use href="#E" class="B"/><g class="C"><use href="#B" x="-204.59" y="-152.31"/><path d="M95.74 222.86l-.03-.03.03.03"/></g><use href="#C" x="-204.59" y="-152.31" class="D"/><use href="#D" x="-204.59" y="-152.32" class="E"/><path d="M141.35 231.74s.02.02 0 .03v-.03z" class="F"/><use href="#F" class="B"/><g class="C"><use href="#G"/><path d="M84.24 184.68l-.02-.02.02.02"/></g><use href="#H" class="D"/><use href="#I" class="E"/><path d="M110.84 189.86s.01.01 0 .02v-.02z" class="F"/><use href="#F" x="176.02" y="177.47" class="B"/><g class="C"><use href="#G" x="176.02" y="177.47"/><path d="M260.26 362.15l-.02-.02.02.02"/></g><use href="#H" x="176.02" y="177.47" class="D"/><use href="#I" x="176.02" y="177.47" class="E"/><use href="#E" x="159.36" y="-134" class="B"/><g class="C"><use href="#B" x="-45.23" y="-286.31"/><path d="M255.1 88.86l-.03-.03.03.03"/></g><use href="#C" x="-45.23" y="-286.31" class="D"/><use href="#D" x="-45.23" y="-286.32" class="E"/><path d="M300.7 97.74s.02.02 0 .03v-.03z" class="F"/><use href="#F" x="179.93" y="-48.27" class="B"/><g class="C"><use href="#G" x="179.93" y="-48.27"/><path d="M264.18 136.41l-.02-.02.02.02"/></g><use href="#H" x="179.94" y="-48.27" class="D"/><use href="#I" x="179.93" y="-48.27" class="E"/><path d="M290.77 141.59s.01.01 0 .02v-.02z" class="F"/><path d="M294.4 128.25l-.19-.57a4.21 4.21 0 01.82-3.67c.97-.99 2.59-.59 3.78-.32-.09-.58.26-1.14.82-1.32.62-.21 1.12.31 1.56.67.04-.77.32-1.51.79-2.12.85-1 2.3.21 3.03.8.02-.76.19-1.5.49-2.2a1.83 1.83 0 011.2-1.02c1.39-.28 1.41 1.36 1.43 2.31.14-.14.27-.29.39-.45 1.08-1.17 2.74-2.06 4.26-1.08.45.3.8.75.99 1.26.03.1.04.22.08.32.03.07.09 0 .13-.03.39-.31.74-.71 1.15-1.02 1.17-.89 4.03-2.34 4.98-.49a2.88 2.88 0 01.09 1.92c.44-.21.87-.44 1.29-.7 1.11-.52 2.36-.64 3.55-.32a2.29 2.29 0 011.11 1.04c.06.11.12.3.18.39.02.03.05.05.09.05.6.05 1.17.31 1.6.74.87.96.32 2.64-.27 3.62-.2.31-.42.6-.65.89h.61a1.69 1.69 0 01.85.48 2.03 2.03 0 01-.01 2.74c.45-.09.91.01 1.28.27.65.71.76 1.77.26 2.6-.37.74-.93 1.38-1.61 1.86-.02.02-.05 0-.03.06.41-.06.82-.1 1.24-.1 2.04.12 3.32 1.85 1.98 3.65-.36.52-.9.89-1.52 1.04 0 .05.01.05.04.07.11.08.31.16.43.24 1.17.83 1.02 2.51.4 3.64a3.935 3.935 0 01-3.74 2.06c.37.4.66.87.85 1.39.31.8-.08 1.7-.88 2.02a1.54 1.54 0 01-1.26-.06l.24.37c.42.74.8 1.75.06 2.42-.84.75-1.88.29-2.62-.34l.14.57c.23 1.05-.19 2.13-1.05 2.76-1.4.96-3.01.06-3.83-1.2l-.35-.58v.51c.04.68-.05 1.36-.24 2.01-.52 1.5-2.11 2.11-3.13.66-.35-.52-.58-1.12-.65-1.74 0-.03 0-.06-.04-.09-.32.74-.91 1.45-1.77.92-.5-.37-.85-.9-.99-1.51 0-.04.02-.04-.05-.04a7.417 7.417 0 01-1.46 3.42 2.1 2.1 0 01-2.95.44 2.08 2.08 0 01-.72-.96 6.053 6.053 0 01-.21-3.62l-.51.82c-.55.77-1.9 2.42-2.82 1.15-.87-1.2.36-2.69 1.03-3.66a2.14 2.14 0 00.23-.38c-.1.04-.2.09-.28.15-1.31.83-3.02 2.01-4.66 1.5-.77-.31-1.33-1-1.48-1.82-.09-.92.12-1.84.58-2.63l-.78.6c-.96.67-2.16 1.31-3.22.4-.98-.85-.36-2.27.2-3.17.13-.21.4-.5.5-.7.01-.02.02-.05.01-.07-.64-.06-1.47-.24-1.77-.87a2.18 2.18 0 01.22-1.89l.42-.64c-.8.29-1.94.85-2.76.37-.26-.18-.46-.44-.56-.74-.05-.16-.02-.33-.1-.46a6.03 6.03 0 012.32-2.48c.06-.04.29-.14.3-.18-.39-.36-.57-.89-.5-1.42.1-.22.24-.43.42-.6-.25-.25-.45-.55-.6-.87-.32-.69-.22-1.5.27-2.09.3-.47.67-.89 1.08-1.26 0-.05-.58-.62-.67-.73a2.25 2.25 0 01-.56-2.45 1.05 1.05 0 011.23-.69 2.64 2.64 0 01.38.18l.02.02h.02l.17.1-.05-.13c-.01-.02-.05-.02-.05-.02m12.84-2.49v-.46c-.03-.22-.1-.43-.19-.64a1.43 1.43 0 00-2.15-.45c-.23.19-.42.4-.59.64-.07-.61-.26-1.2-.58-1.74-.63-.82-1.24-.27-1.3.57a11.77 11.77 0 00.05 1.57l.17 1.39-.82-1.14a4.13 4.13 0 00-1.94-1.35c-.14-.04-.56-.15-.67-.08-.03.02-.05.05-.06.09.03.59.17 1.18.4 1.73.08.14.14.28.2.43l-.52-.32c-.66-.48-1.55-.52-2.25-.1a1.53 1.53 0 00-.35 1.75 8.568 8.568 0 001.97 3.13c0 .03.01.04-.01.06a2.32 2.32 0 00-.3.22c-.77.83.18 2.07.71 2.76-.36-.19-.73-.35-1.12-.48-1.51-.42-2.39.23-2.3 1.8.07 1.17.73 2.23 1.75 2.81 0 .06 0 .04-.03.05-.4.15-.95.19-1.14.66-.29.71.41 1.34.99 1.61.09.04.54.18.56.2s0 .03-.02.05c-.08.07-.23.15-.32.22-1.63 1.34-2.26 3.81.45 4.26a5.91 5.91 0 001.83-.04c-.38.49-.77 1.14-.16 1.65.82.68 2-.04 2.73-.54l1.23-.93-.57 1.64c-.24.99-.27 2.25.92 2.58 1.58.45 2.92-1.37 3.61-2.55.33-.54.59-1.12.78-1.73.03 0 .04.05.04.07.15.98.37 2.7 1.74 2.58 1.28-.11 1.55-2.32 1.61-3.31v-.39c.04-.05.04.02.05.03.3.6.73 1.25 1.51 1.24.19-.03.38-.09.56-.18.39 1.22 1.58 3.22 3.1 2.19a2.66 2.66 0 00.67-3.07 3.15 3.15 0 003.25-2.08 3.37 3.37 0 00-.53-2.72l-.24-.33s.04-.04.06-.04c.91-.09 1.8-.34 2.63-.75 1.21-.72 1.58-2.26.03-2.84-.16-.06-.34-.08-.49-.14s.17-.09.22-.11c1.02-.25 1.84-.98 2.2-1.97.34-1.21-.03-2.38-1.37-2.6-.03 0-.04.02-.04-.04a8.39 8.39 0 001.46-2.46c.58-1.7-.06-3.06-2.01-2.74-1.04.22-2.01.65-2.87 1.27-.05.04-.11.14-.15.07-.27-.6-.95-.89-1.57-.67-.24.06-.45.19-.69.24l.28-.46c.37-.65.74-1.6.21-2.26-.71-.88-1.56-.32-2.17.32l-.46.57c-.06-.95-.36-2.16-1.34-2.54-1.2-.29-2.41.44-2.7 1.64v.01c-.16.51-.18 1.04-.08 1.56a2.973 2.973 0 00-3.87.5m21.16 9.27v.02s.02-.02 0-.02" class="B"/><path d="M294.4 128.25s.04 0 .05.02.06.12.05.13l-.18-.1s.06-.01.07-.05m-.09.05l-.02-.02.02.02" class="C"/><path d="M307.24 125.76a2.973 2.973 0 013.87-.5c-.11-.52-.08-1.06.07-1.56.28-1.2 1.49-1.94 2.69-1.66h.01c.98.38 1.28 1.59 1.34 2.54l.46-.57c.61-.64 1.47-1.2 2.17-.32.53.66.16 1.62-.21 2.26l-.28.46c.24-.05.45-.19.69-.24.62-.22 1.3.07 1.57.67.05.07.1-.03.15-.07.86-.62 1.84-1.05 2.87-1.27 1.96-.32 2.6 1.04 2.01 2.74a8.39 8.39 0 01-1.46 2.46c0 .05 0 .03.04.04 1.34.22 1.72 1.38 1.37 2.6a3.14 3.14 0 01-2.2 1.97c-.05.02-.36.06-.22.11s.33.08.49.13c1.55.58 1.18 2.12-.03 2.84a7.28 7.28 0 01-2.63.74c-.03 0-.05.02-.06.04l.24.33a3.37 3.37 0 01.53 2.72 3.12 3.12 0 01-3.25 2.08 2.66 2.66 0 01-.67 3.07c-1.52 1.02-2.71-.97-3.1-2.19-.18.09-.37.15-.56.18-.77.01-1.2-.64-1.51-1.24 0-.02-.01-.09-.05-.04-.01.01 0 .32 0 .39-.06.99-.34 3.19-1.61 3.31-1.37.12-1.59-1.6-1.74-2.58 0-.02-.01-.07-.04-.07-.19.61-.45 1.19-.78 1.73-.69 1.18-2.03 2.99-3.61 2.54-1.19-.34-1.16-1.59-.92-2.58.13-.57.38-1.1.57-1.64l-1.23.93c-.73.5-1.91 1.22-2.73.54-.61-.51-.22-1.15.16-1.65-.6.11-1.22.13-1.83.04-2.72-.45-2.08-2.92-.46-4.26.09-.08.24-.15.32-.22.02-.02.03-.04.02-.05s-.46-.16-.56-.2c-.58-.27-1.28-.89-.99-1.61.19-.47.74-.51 1.14-.66.03-.01.04 0 .03-.05a3.476 3.476 0 01-1.75-2.81c-.09-1.58.79-2.22 2.3-1.8.38.13.76.29 1.12.48-.53-.69-1.48-1.93-.71-2.76.09-.08.19-.16.3-.22.02-.02.02-.03.01-.06a8.84 8.84 0 01-1.97-3.13 1.5 1.5 0 01.35-1.75c.7-.42 1.59-.38 2.25.1l.52.31c-.06-.15-.12-.29-.2-.43-.23-.55-.37-1.13-.4-1.73 0-.04.03-.07.06-.09.11-.07.53.04.67.08.76.26 1.44.73 1.94 1.35.3.36.55.75.82 1.13l-.17-1.39a11.77 11.77 0 01-.05-1.57c.06-.84.67-1.4 1.3-.57.31.53.51 1.12.57 1.74a3.65 3.65 0 01.59-.65 1.415 1.415 0 012.14.45 2.78 2.78 0 01.19.64v.45z" class="D"/><path d="M326.41 121.69c1.23-.57 2.67-.45 3.78.32 1.12 1 1.58 2.54 1.2 3.99-.05.15-.09.31-.11.47.5-.1 1.02-.02 1.47.21 1.02.74 1.54 1.97 1.38 3.22-.06.56-.18 1.1-.35 1.64.85-.2 2.04-.43 2.7.31.59.67.13 1.43-.37 1.97-.1.1-.26.21-.34.31-.02.02-.05.03-.04.07.79.12 1.82.32 1.75 1.34-.06.88-.79 1.4-1.37 1.92-.02.02-.1.08-.08.11 1.18.74 2.53 1.93 2.64 3.41.15 1.94-1.09 3.57-2.34 4.89-.4.42-.83.82-1.27 1.2.07.18.18.34.24.52.15.49.15 1.01.02 1.51-.26.68-.67 1.28-1.21 1.76.26.2.49.43.68.69a1.482 1.482 0 01-.9 2.23c-.45.06-.91 0-1.32-.19.17.75.02 1.53-.39 2.16-.74 1.05-2.95 1.81-4.05.97-.06-.04-.2-.23-.26-.21s-.08.37-.1.45a2.872 2.872 0 01-4.49 1.95c-.24-.2-.48-.41-.7-.64-.02-.02-.06-.04-.09-.03.29.84.17 1.76-.31 2.5-.83.96-2.56-.07-3.31-.71-.04-.04-.37-.38-.4-.36-.02.84-.32 1.65-.85 2.31-.96.91-1.37-.27-1.51-1.09-.05-.26-.06-.53-.09-.8-.05-.05-.32.31-.36.35-.96.99-2.44 1.26-3.68.66-.47-.26-.87-.63-1.16-1.08-.03 0-.35.35-.41.41a4.03 4.03 0 01-3.47.85 3.269 3.269 0 01-1.92-2.43c-.02-.12-.05-.62-.12-.65-.21.25-.44.48-.69.68-1.42 1.07-2.75.05-3.12-1.45a3.462 3.462 0 01-2.12-3.08c-.69.28-1.46.24-2.11-.1a1.957 1.957 0 01-.91-2.61c.08-.2.2-.37.28-.56-1.49.06-2.85-.84-3.37-2.24-.27-.84-.34-1.74-.21-2.62.04-.4.13-.79.2-1.19a2.39 2.39 0 01-2.51-2c-.18-.74-.08-1.53.29-2.2.08.13.05.3.1.46.1.3.3.56.56.74.82.47 1.96-.08 2.76-.37l-.42.64c-.36.56-.44 1.26-.22 1.89.3.63 1.13.81 1.77.87 0 .03 0 .05-.01.07-.1.2-.36.49-.5.7-.57.9-1.19 2.32-.2 3.17 1.05.91 2.25.27 3.21-.4l.78-.6c-.47.79-.67 1.71-.59 2.63.14.82.7 1.51 1.48 1.82 1.63.51 3.35-.67 4.66-1.5.09-.06.18-.12.28-.15-.06.14-.14.26-.23.38-.67.97-1.9 2.46-1.03 3.66.92 1.27 2.27-.38 2.82-1.15l.51-.82c-.3 1.2-.23 2.47.21 3.62a2.106 2.106 0 002.71 1.24c.38-.14.72-.39.96-.72.77-1 1.27-2.18 1.46-3.42.07 0 .04 0 .05.04.14.6.49 1.14.99 1.51.86.53 1.45-.18 1.77-.92.04.02.03.05.04.09.08.62.3 1.22.65 1.74 1.01 1.45 2.61.85 3.13-.66.2-.65.28-1.33.24-2.01v-.51l.35.58c.82 1.26 2.43 2.15 3.83 1.2.86-.63 1.27-1.71 1.05-2.76-.03-.19-.1-.38-.14-.57.75.62 1.78 1.09 2.62.34.75-.67.37-1.68-.06-2.42l-.24-.37c.77.38 1.7.07 2.09-.69.2-.39.22-.85.06-1.26a4.34 4.34 0 00-.85-1.39c1.54.11 3.01-.7 3.74-2.06.62-1.13.78-2.81-.4-3.64-.12-.09-.32-.16-.43-.24-.03-.02-.05-.03-.04-.07.62-.15 1.16-.52 1.52-1.04 1.34-1.81.06-3.54-1.98-3.65-.41 0-.83.04-1.24.1-.01-.06.01-.04.03-.06.68-.48 1.24-1.12 1.61-1.86.5-.83.4-1.89-.26-2.6a1.69 1.69 0 00-1.27-.28c.71-.77.72-1.96.01-2.74-.23-.24-.53-.41-.85-.49h-.61c.23-.28.45-.58.65-.89.59-.98 1.14-2.66.27-3.62-.43-.43-1-.69-1.6-.74" class="E"/><path d="M328.4 134.94s.02.02 0 .03v-.03z" class="F"/><defs><path id="B" d="M300.46 375.11s.05 0 .07.02.08.16.07.18l-.23-.13c.05 0 .08-.01.1-.07"/><path id="C" d="M317.63 371.77a3.984 3.984 0 015.18-.67c-.14-.69-.11-1.41.1-2.09.45-1.45 2.03-2.82 3.62-2.21 1.32.51 1.71 2.13 1.8 3.4l.62-.77c.82-.86 1.96-1.61 2.91-.43.71.89.22 2.16-.28 3.03l-.37.61c.32-.07.61-.25.93-.32.82-.29 1.74.09 2.1.89.06.09.13-.05.21-.09 1.15-.83 2.46-1.41 3.84-1.7 2.62-.43 3.47 1.39 2.7 3.66-.46 1.2-1.12 2.31-1.95 3.29 0 .07 0 .04.05.05 1.79.29 2.3 1.85 1.84 3.47a4.2 4.2 0 01-2.95 2.63c-.07.02-.48.08-.29.15.2.07.44.1.65.18 2.07.77 1.57 2.84-.04 3.8a10.03 10.03 0 01-3.51 1c-.03 0-.07.02-.08.05l.33.44c.75 1.05 1.01 2.38.71 3.63-.55 1.65-2.56 3.16-4.34 2.79.43 1.39.45 3.2-.89 4.1-2.04 1.37-3.63-1.3-4.15-2.93-.24.12-.49.2-.75.24-1.04.02-1.61-.86-2.02-1.66-.01-.02-.02-.11-.07-.05-.02.02 0 .43 0 .52-.09 1.32-.45 4.27-2.15 4.43-1.84.16-2.13-2.14-2.33-3.45 0-.03-.01-.1-.06-.09-.26.81-.61 1.58-1.05 2.31-.92 1.58-2.71 4-4.83 3.4-1.59-.45-1.55-2.13-1.23-3.46.18-.76.51-1.46.76-2.2l-1.64 1.25c-.97.67-2.55 1.63-3.65.72-.82-.68-.3-1.54.22-2.2-.81.15-1.63.17-2.45.06-3.64-.61-2.78-3.91-.61-5.7.12-.1.33-.2.43-.3.02-.02.04-.05.02-.07s-.62-.21-.75-.27c-.78-.36-1.71-1.2-1.32-2.15.26-.63.99-.68 1.52-.88.05-.02.06.01.05-.07a4.675 4.675 0 01-2.34-3.76c-.12-2.11 1.06-2.97 3.08-2.41.51.17 1.01.39 1.49.64-.7-.93-1.98-2.58-.95-3.69a3.79 3.79 0 01.4-.3c.03-.03.03-.04.02-.08a11.666 11.666 0 01-2.63-4.18c-.37-.8-.18-1.74.46-2.34.91-.75 2.08-.34 3.01.13l.7.42a6.11 6.11 0 00-.27-.58c-.31-.73-.49-1.51-.53-2.31a.2.2 0 01.08-.12c.15-.09.71.06.89.11 1.02.34 1.92.97 2.6 1.81.41.48.74 1.01 1.1 1.52l-.23-1.85c-.07-.7-.09-1.4-.07-2.1.08-1.13.89-1.87 1.74-.77a5.79 5.79 0 01.77 2.32c.22-.32.49-.61.79-.86.82-.65 2.02-.52 2.67.3.07.09.14.19.2.3a3.19 3.19 0 01.25.85v.62z"/><path id="D" d="M343.28 366.33c1.64-.77 3.57-.6 5.06.43a5.31 5.31 0 011.6 5.34 3.6 3.6 0 00-.15.63c.67-.13 1.36-.03 1.97.29a4.57 4.57 0 011.84 4.3 10.96 10.96 0 01-.47 2.19c1.14-.27 2.72-.58 3.61.42.79.9.17 1.91-.5 2.64-.13.14-.35.28-.45.42-.03.03-.06.04-.05.1 1.06.16 2.43.43 2.34 1.79-.08 1.18-1.06 1.87-1.84 2.57-.03.02-.13.11-.1.15 1.58.99 3.38 2.58 3.54 4.56.2 2.6-1.46 4.77-3.13 6.54a23.46 23.46 0 01-1.7 1.61c.09.24.24.46.32.7a3.71 3.71 0 01.03 2.01c-.34.9-.9 1.71-1.62 2.35.35.26.65.58.91.93.58.93.3 2.15-.63 2.74a2.31 2.31 0 01-.58.25c-.6.07-1.21-.01-1.77-.25.22 1 .03 2.04-.53 2.9-.99 1.4-3.95 2.42-5.42 1.29-.08-.06-.26-.31-.35-.28s-.11.49-.13.6c-.63 2.77-3.51 4.35-6.01 2.6l-.94-.85c-.03-.03-.08-.05-.12-.04.17 1.17.44 2.36-.42 3.34-1.12 1.28-3.43-.09-4.43-.95-.06-.05-.5-.51-.53-.49a5.18 5.18 0 01-1.13 3.09c-1.28 1.22-1.84-.37-2.02-1.45-.06-.35-.08-.71-.12-1.07-.06-.07-.43.41-.48.47a4.27 4.27 0 01-4.93.88 4.4 4.4 0 01-1.55-1.45c-.04 0-.46.47-.55.55-1.29 1.08-3 1.5-4.64 1.13a4.331 4.331 0 01-2.56-3.25c-.03-.16-.07-.83-.16-.88-.28.33-.59.64-.92.92-1.9 1.43-3.68.06-4.17-1.94-1.54-.82-2.94-2.25-2.84-4.12-.92.37-1.95.32-2.83-.13a2.62 2.62 0 01-1.21-3.5c.1-.26.27-.49.37-.75-1.99.07-3.8-1.14-4.5-3a7.831 7.831 0 01-.28-3.5c.06-.54.17-1.06.27-1.59-1.64.1-3.09-1.05-3.36-2.67-.24-.99-.11-2.04.38-2.93.1.17.07.41.13.62a1.94 1.94 0 00.75.99c1.1.63 2.62-.11 3.69-.5l-.56.86c-.48.75-.59 1.68-.3 2.52.4.85 1.51 1.09 2.36 1.16 0 .03 0 .07-.02.1-.13.27-.49.66-.66.94-.76 1.2-1.59 3.1-.27 4.24 1.41 1.22 3.01.36 4.3-.54l1.05-.8a5.85 5.85 0 00-.78 3.52c.19 1.1.94 2.02 1.97 2.43 2.19.68 4.48-.89 6.23-2.01.12-.08.24-.15.38-.21-.08.18-.18.35-.31.51-.89 1.3-2.54 3.29-1.38 4.9 1.23 1.7 3.03-.5 3.77-1.54l.69-1.1c-.4 1.61-.31 3.3.28 4.85a2.817 2.817 0 003.63 1.66c.51-.19.96-.53 1.29-.97a9.911 9.911 0 001.95-4.58c.09 0 .05 0 .07.05.19.81.66 1.52 1.33 2.01 1.15.71 1.94-.23 2.36-1.23.05.03.04.07.05.12.11.83.41 1.63.88 2.33 1.36 1.94 3.49 1.13 4.18-.88.26-.87.37-1.78.32-2.69v-.69l.47.78c1.1 1.68 3.25 2.88 5.13 1.6a3.64 3.64 0 001.4-3.69c-.04-.25-.13-.51-.19-.76 1 .84 2.38 1.46 3.51.45 1-.89.49-2.25-.07-3.23l-.33-.49c1.03.51 2.28.1 2.79-.93.26-.53.29-1.14.08-1.69a5.76 5.76 0 00-1.13-1.85 5.28 5.28 0 005-2.76c.83-1.51 1.04-3.75-.53-4.87-.17-.12-.43-.21-.58-.33-.04-.03-.07-.04-.06-.1.82-.2 1.54-.7 2.03-1.39 1.8-2.42.07-4.73-2.65-4.89-.55 0-1.11.05-1.65.13-.02-.08.01-.05.04-.08.91-.64 1.65-1.49 2.15-2.49.49-1.07.7-2.66-.34-3.48a2.28 2.28 0 00-1.72-.37c.95-1.03.96-2.62.02-3.66-.31-.32-.7-.55-1.14-.65h-.8l.87-1.18c.79-1.31 1.53-3.56.37-4.84-.57-.57-1.33-.92-2.14-.99"/><path id="E" d="M95.87 222.79c-.1-.25-.18-.51-.25-.77a5.64 5.64 0 011.1-4.91c1.3-1.32 3.46-.79 5.06-.43-.12-.78.34-1.52 1.09-1.76.83-.28 1.5.42 2.08.89.06-1.03.43-2.02 1.06-2.84 1.14-1.33 3.08.28 4.06 1.07.03-1.01.25-2.01.66-2.93a2.41 2.41 0 011.61-1.36c1.85-.37 1.89 1.82 1.91 3.1a5.88 5.88 0 00.52-.6c1.44-1.57 3.66-2.77 5.69-1.45.61.41 1.07 1 1.32 1.68.05.13.06.3.11.42.04.09.12 0 .17-.04.52-.41.99-.95 1.54-1.37 1.57-1.19 5.39-3.14 6.66-.66a3.91 3.91 0 01.12 2.57c.59-.28 1.17-.59 1.72-.93a6.93 6.93 0 014.74-.44c.64.28 1.16.77 1.49 1.39.09.15.16.4.25.52.02.04.07.07.12.07.81.07 1.56.41 2.14.99 1.16 1.28.42 3.53-.37 4.84a12.82 12.82 0 01-.87 1.18h.82a2.34 2.34 0 011.14.65c.94 1.04.94 2.63-.02 3.66.6-.12 1.22.02 1.72.37 1.04.82.83 2.41.34 3.48-.5.99-1.24 1.85-2.15 2.49-.03.02-.06 0-.04.08.55-.09 1.1-.13 1.65-.13 2.72.16 4.44 2.47 2.65 4.89-.49.69-1.21 1.19-2.03 1.39-.01.06.02.07.06.09.15.11.41.21.58.33 1.57 1.11 1.36 3.36.53 4.87a5.26 5.26 0 01-5 2.76 5.69 5.69 0 011.13 1.85c.42 1.07-.11 2.28-1.18 2.7-.55.21-1.16.19-1.69-.08l.33.49c.56.98 1.07 2.34.07 3.23-1.13 1.01-2.51.38-3.51-.45l.19.76a3.64 3.64 0 01-1.4 3.69c-1.88 1.28-4.04.08-5.14-1.6l-.47-.78v.69c.05.91-.06 1.82-.32 2.69-.69 2.01-2.83 2.82-4.18.88-.47-.7-.77-1.5-.88-2.33 0-.04 0-.09-.05-.12-.43 1-1.22 1.94-2.37 1.23a3.496 3.496 0 01-1.33-2.01c-.01-.05.03-.06-.07-.05-.25 1.67-.93 3.24-1.95 4.58a2.826 2.826 0 01-4.92-.7 8.197 8.197 0 01-.28-4.85l-.69 1.1c-.74 1.03-2.54 3.23-3.77 1.53-1.17-1.6.48-3.59 1.37-4.9.12-.16.22-.33.31-.51-.13.05-.26.12-.38.21-1.75 1.12-4.04 2.69-6.23 2.01a3.22 3.22 0 01-1.97-2.43 5.92 5.92 0 01.78-3.52l-1.05.8c-1.29.89-2.89 1.75-4.3.54-1.32-1.14-.49-3.03.27-4.24.18-.28.53-.67.66-.94.02-.03.02-.07.02-.1-.85-.08-1.97-.32-2.36-1.16-.29-.84-.18-1.77.3-2.52l.56-.86c-1.07.39-2.59 1.13-3.69.5-.35-.24-.62-.58-.75-.99-.06-.21-.03-.44-.14-.62a7.964 7.964 0 013.11-3.32c.08-.05.39-.18.4-.24-.52-.49-.76-1.2-.66-1.9.13-.3.32-.57.56-.8-.33-.34-.6-.73-.8-1.16-.43-.92-.29-2.01.36-2.79.41-.62.89-1.19 1.44-1.69 0-.07-.78-.83-.89-.97a3.023 3.023 0 01-.75-3.28c.23-.69.94-1.08 1.64-.92.18.07.35.15.51.24l.03.03h.03l.23.13-.07-.18c-.02-.03-.07-.02-.07-.02m17.2-3.34v-.62c-.05-.29-.13-.58-.25-.85a1.912 1.912 0 00-2.57-.8c-.11.06-.21.12-.3.2-.3.25-.57.54-.79.86-.09-.82-.36-1.6-.77-2.31-.84-1.1-1.65-.36-1.74.77-.03.7 0 1.4.07 2.1l.23 1.85-1.1-1.52a5.646 5.646 0 00-2.6-1.81c-.18-.05-.75-.2-.89-.11a.2.2 0 00-.08.12c.04.79.22 1.57.53 2.31l.27.58-.7-.42c-.93-.47-2.1-.88-3.01-.13-.65.6-.83 1.54-.47 2.34a11.58 11.58 0 002.63 4.18c.01.04.02.05-.02.08a3.79 3.79 0 00-.4.3c-1.03 1.11.25 2.76.95 3.69-.48-.25-.98-.47-1.5-.64-2.02-.56-3.2.3-3.08 2.41a4.65 4.65 0 002.34 3.76c.01.08 0 .05-.05.07-.53.2-1.27.25-1.52.88-.39.95.55 1.79 1.33 2.15.13.06.72.24.75.27s0 .05-.02.07c-.1.1-.31.2-.43.3-2.17 1.8-3.03 5.1.61 5.7a7.75 7.75 0 002.45-.06c-.51.66-1.03 1.53-.22 2.2 1.1.91 2.68-.05 3.65-.72l1.64-1.25c-.25.73-.58 1.44-.76 2.2-.32 1.33-.36 3.01 1.23 3.46 2.12.6 3.91-1.83 4.83-3.4a11.01 11.01 0 001.05-2.32c.04 0 .05.06.06.09.2 1.31.49 3.61 2.33 3.45 1.71-.15 2.07-3.11 2.15-4.42v-.52c.05-.07.06.02.07.05.41.8.98 1.67 2.02 1.66.26-.04.51-.12.75-.24.52 1.63 2.12 4.3 4.15 2.93 1.34-.9 1.32-2.71.89-4.1 1.79.37 3.79-1.14 4.34-2.79a4.49 4.49 0 00-.71-3.64l-.33-.44s.05-.05.08-.05a10.03 10.03 0 003.51-1c1.62-.96 2.12-3.02.04-3.8-.21-.08-.45-.11-.65-.18-.18-.07.23-.12.29-.15a4.2 4.2 0 002.95-2.63c.46-1.62-.05-3.18-1.84-3.47-.04 0-.06.02-.05-.05.83-.98 1.5-2.09 1.95-3.29.78-2.27-.08-4.1-2.7-3.66a10.06 10.06 0 00-3.84 1.7c-.07.05-.14.18-.21.09-.36-.8-1.27-1.19-2.1-.89-.32.07-.6.26-.93.32l.37-.61c.5-.87.99-2.14.28-3.03-.95-1.18-2.09-.43-2.91.43l-.62.77c-.08-1.27-.48-2.89-1.8-3.4-1.59-.61-3.17.76-3.62 2.21a4.23 4.23 0 00-.1 2.09 3.984 3.984 0 00-5.17.68m28.36 12.29v.03s.02-.02 0-.03"/><path id="F" d="M84.32 184.64c-.06-.15-.11-.3-.15-.45-.25-1 0-2.06.64-2.86.76-.77 2.02-.46 2.95-.25-.07-.45.2-.89.64-1.03.48-.16.87.25 1.21.52.03-.6.25-1.18.61-1.65.67-.78 1.8.16 2.36.62.02-.59.15-1.17.38-1.71.17-.4.52-.69.94-.8 1.08-.21 1.1 1.06 1.11 1.81.11-.11.21-.23.3-.35.84-.92 2.14-1.61 3.32-.84.35.24.62.58.77.98.03.08.03.18.06.25.02.05.07 0 .1-.02.3-.24.58-.55.9-.8.92-.69 3.15-1.83 3.88-.38.19.48.22 1.01.07 1.5.34-.16.68-.34 1.01-.54.86-.41 1.84-.5 2.77-.26.37.16.68.45.87.81.05.09.1.23.14.3.01.02.04.04.07.04.47.04.91.24 1.25.58.68.75.25 2.06-.21 2.82-.16.24-.33.47-.51.69h.48c.25.06.48.19.66.38.55.61.55 1.53-.01 2.13.35-.07.71.01 1 .22.51.56.59 1.38.2 2.03a3.83 3.83 0 01-1.26 1.45c-.02.01-.04 0-.02.04.32-.05.64-.08.96-.08 1.59.09 2.59 1.44 1.54 2.85-.28.4-.7.69-1.19.81 0 .03 0 .04.03.06.09.07.24.12.34.19.79.74.93 1.95.31 2.84a3.08 3.08 0 01-2.92 1.61c.29.32.51.68.66 1.08.24.62-.06 1.33-.69 1.57-.32.13-.68.11-.99-.04l.19.29c.33.57.63 1.36.04 1.89-.66.59-1.46.22-2.04-.26.03.15.09.3.11.44.18.82-.14 1.66-.82 2.15-1.05.58-2.37.2-2.95-.85-.02-.03-.03-.06-.04-.08l-.28-.45v.4a4.4 4.4 0 01-.19 1.57c-.4 1.17-1.65 1.64-2.44.51-.27-.41-.45-.87-.51-1.36 0-.03 0-.05-.03-.07-.25.58-.71 1.13-1.38.72-.39-.29-.66-.7-.77-1.17 0-.03.01-.03-.04-.03-.15.97-.54 1.89-1.14 2.67a1.644 1.644 0 01-2.86-.41c-.34-.9-.4-1.89-.16-2.83l-.4.64c-.43.6-1.48 1.88-2.2.9-.68-.94.28-2.09.8-2.85.07-.09.13-.19.18-.3a.94.94 0 00-.22.12c-1.02.65-2.36 1.57-3.63 1.17-.6-.24-1.04-.78-1.15-1.42-.06-.71.1-1.43.46-2.05l-.61.47c-.75.52-1.69 1.02-2.51.31-.77-.66-.28-1.77.16-2.47.1-.16.31-.39.39-.55 0-.02.01-.04.01-.06-.5-.05-1.15-.18-1.38-.68-.17-.49-.11-1.03.17-1.47l.33-.5c-.62.23-1.51.66-2.15.29-.21-.14-.36-.34-.44-.58-.04-.12-.02-.26-.08-.36.41-.81 1.03-1.48 1.81-1.94.05-.03.22-.11.23-.14-.3-.28-.44-.7-.39-1.11.08-.18.19-.33.33-.47-.19-.2-.35-.43-.47-.68-.25-.54-.17-1.17.21-1.63.24-.36.52-.69.84-.98 0-.04-.45-.49-.52-.57-.52-.49-.69-1.25-.44-1.91.13-.4.55-.63.96-.53.1.04.2.09.3.14l.02.02h.02l.14.08s-.03-.09-.04-.1-.04-.01-.04-.01m10.05-1.98v-.36c-.03-.17-.08-.34-.15-.5a1.11 1.11 0 00-1.5-.46c-.06.03-.12.07-.18.11-.18.14-.33.31-.46.5-.05-.48-.21-.93-.45-1.35-.49-.64-.96-.21-1.01.45-.02.41 0 .82.04 1.23.03.36.08.72.14 1.08-.21-.3-.41-.61-.64-.89-.39-.49-.92-.86-1.52-1.06-.11-.03-.44-.12-.52-.07a.18.18 0 00-.05.07c.03.46.13.92.31 1.35.06.11.11.22.16.34l-.41-.24c-.52-.38-1.21-.41-1.75-.08-.38.35-.49.9-.27 1.36.33.91.85 1.75 1.53 2.44 0 .02.01.03 0 .05-.08.05-.16.11-.23.17-.6.65.14 1.61.56 2.15-.28-.15-.57-.27-.87-.37-1.18-.32-1.86.18-1.8 1.41.06.91.57 1.74 1.36 2.19 0 .05 0 .03-.03.04-.31.11-.74.15-.89.51-.23.56.32 1.04.77 1.25.07.03.42.14.43.16s0 .03-.01.04c-.06.06-.18.11-.25.17-1.27 1.05-1.77 2.97.35 3.32.47.07.96.06 1.43-.03-.3.39-.6.89-.13 1.28.64.53 1.56-.03 2.13-.42.33-.23.64-.49.96-.73-.15.43-.34.84-.44 1.28-.18.77-.21 1.75.72 2.01 1.24.35 2.28-1.07 2.82-1.99.25-.42.46-.88.61-1.35.02 0 .03.04.03.05.11.76.29 2.11 1.36 2.01 1-.09 1.21-1.81 1.26-2.58v-.3c.03-.04.03.01.04.03.24.47.57.98 1.18.97.15-.02.3-.07.44-.14.31.95 1.24 2.51 2.42 1.71.68-.6.89-1.57.52-2.39 1.12.1 2.16-.57 2.53-1.63.17-.73.02-1.51-.41-2.12l-.19-.26s.03-.03.05-.03c.71-.07 1.41-.26 2.05-.58.94-.56 1.23-1.76.03-2.21-.12-.05-.26-.06-.38-.11s.13-.07.17-.09c.79-.19 1.44-.77 1.72-1.53.27-.95-.03-1.86-1.07-2.02-.03 0-.03.01-.03-.03.49-.57.87-1.22 1.14-1.92.45-1.33-.04-2.39-1.57-2.14-.81.17-1.57.51-2.24.99-.04.03-.08.11-.12.05a.974.974 0 00-1.22-.52c-.19.04-.35.15-.54.19l.22-.36c.29-.51.58-1.25.16-1.77-.55-.68-1.22-.25-1.69.25l-.36.45c-.05-.74-.28-1.69-1.05-1.98-.94-.23-1.88.35-2.1 1.28-.12.39-.14.81-.06 1.22-.96-.64-2.25-.48-3.02.39m16.48 7.23v.02s.01-.01 0-.02"/><path id="G" d="M84.32 184.64s.03 0 .04.01.05.09.04.1l-.14-.08s.05 0 .06-.04"/><path id="H" d="M94.33 182.69c.77-.87 2.06-1.03 3.02-.39-.08-.4-.06-.82.06-1.22a1.74 1.74 0 012.1-1.29h.01c.77.29 1 1.24 1.05 1.98l.36-.45c.48-.5 1.14-.94 1.7-.25.42.52.13 1.26-.16 1.77l-.22.36c.19-.04.35-.15.54-.19a.974.974 0 011.22.52c.04.05.08-.03.12-.05a5.94 5.94 0 012.24-.99c1.53-.25 2.02.81 1.57 2.14-.27.7-.65 1.35-1.14 1.92 0 .04 0 .02.03.03 1.04.17 1.34 1.08 1.07 2.02-.28.77-.93 1.34-1.72 1.53-.04.01-.28.05-.17.09s.26.06.38.11c1.21.45.92 1.66-.02 2.21-.64.32-1.34.51-2.05.58-.02 0-.04.01-.05.03l.19.26a2.58 2.58 0 01.41 2.12 2.452 2.452 0 01-2.53 1.63c.37.83.16 1.79-.52 2.39-1.19.8-2.12-.76-2.42-1.71-.14.07-.29.11-.44.14-.6 0-.94-.5-1.18-.97 0-.01-.01-.07-.04-.03v.3c-.05.77-.26 2.49-1.26 2.58-1.07.1-1.24-1.25-1.36-2.01 0-.02 0-.06-.03-.05-.15.47-.35.93-.61 1.35-.54.92-1.58 2.33-2.82 1.99-.93-.26-.9-1.24-.72-2.01.11-.44.3-.85.44-1.28l-.96.73c-.57.39-1.49.95-2.13.42-.48-.39-.17-.9.13-1.29-.47.09-.95.1-1.43.03-2.12-.35-1.62-2.28-.35-3.32.07-.06.19-.12.25-.17.01-.01.02-.03.01-.04s-.36-.12-.43-.16c-.45-.21-1-.7-.77-1.25.15-.37.58-.4.89-.51.03 0 .03 0 .03-.04a2.706 2.706 0 01-1.36-2.19c-.07-1.23.62-1.73 1.8-1.41.3.1.59.23.87.37-.41-.54-1.15-1.51-.55-2.15a1.95 1.95 0 01.23-.17c.02-.02.02-.02 0-.05-.68-.69-1.2-1.53-1.53-2.44a1.18 1.18 0 01.27-1.36c.55-.33 1.24-.3 1.75.08l.41.24-.16-.34a4.15 4.15 0 01-.31-1.35c0-.03.02-.05.05-.07.09-.05.41.04.52.07.6.2 1.12.57 1.51 1.06.24.28.43.59.64.89l-.14-1.08a10.11 10.11 0 01-.04-1.23c.05-.66.52-1.09 1.01-.45.24.41.4.88.45 1.35.13-.19.29-.36.46-.5a1.12 1.12 0 011.68.35c.07.16.12.33.15.5v.35z"/><path id="I" d="M109.29 179.52a2.97 2.97 0 012.95.25c.87.78 1.24 1.98.94 3.12-.04.12-.07.24-.09.37.39-.08.79-.02 1.15.17.79.58 1.2 1.54 1.07 2.51-.05.43-.14.86-.27 1.28.67-.16 1.59-.34 2.1.24.46.52.1 1.12-.29 1.54-.07.08-.2.17-.26.24-.01.02-.04.03-.03.06.62.1 1.42.25 1.36 1.04-.05.69-.62 1.09-1.07 1.5-.02.01-.08.06-.06.09 1.05.53 1.81 1.51 2.06 2.66a5.231 5.231 0 01-1.83 3.82c-.31.33-.65.64-.99.94.05.14.14.27.19.41.11.38.12.79.01 1.17-.2.53-.52 1-.94 1.37.2.15.38.34.53.54.34.54.18 1.26-.36 1.6-.1.07-.22.11-.34.14-.35.04-.71 0-1.03-.15.13.58.02 1.19-.31 1.69-.58.82-2.3 1.41-3.16.75-.05-.04-.15-.18-.2-.16s-.06.29-.08.35a2.248 2.248 0 01-2.53 1.9 2.27 2.27 0 01-.97-.38 8.56 8.56 0 01-.55-.5.108.108 0 00-.07-.03c.22.65.13 1.37-.24 1.95-.65.74-2-.05-2.58-.55-.03-.03-.29-.3-.31-.28a3.01 3.01 0 01-.66 1.8c-.75.71-1.07-.21-1.18-.85-.03-.21-.05-.42-.07-.62-.03-.04-.25.24-.28.27-.75.77-1.9.98-2.87.52-.37-.2-.68-.49-.91-.85-.02 0-.27.27-.32.32-.75.63-1.75.87-2.71.66a2.53 2.53 0 01-1.49-1.89c-.02-.09-.04-.48-.09-.51-.16.19-.34.37-.54.53-1.11.84-2.15.04-2.43-1.13a2.726 2.726 0 01-1.66-2.4c-.53.22-1.14.19-1.65-.07a1.534 1.534 0 01-.71-2.04c.06-.15.16-.29.22-.44-1.16.04-2.22-.66-2.62-1.75-.21-.66-.26-1.36-.16-2.04.03-.31.1-.62.16-.93-.96.06-1.8-.61-1.96-1.56-.14-.58-.06-1.19.22-1.71.06.1.04.24.08.36.08.23.23.44.44.57.64.37 1.53-.06 2.15-.29l-.33.5c-.28.44-.34.98-.17 1.47.23.49.88.63 1.38.68v.06c-.08.16-.28.38-.39.55-.44.7-.93 1.81-.16 2.47.82.71 1.76.21 2.51-.31l.61-.47c-.36.62-.52 1.34-.46 2.05.11.64.55 1.18 1.15 1.42 1.27.4 2.61-.52 3.63-1.17a.94.94 0 01.22-.12c-.05.11-.11.21-.18.3-.52.76-1.48 1.92-.8 2.85.72.99 1.77-.29 2.2-.9l.4-.64c-.24.94-.18 1.92.16 2.83a1.651 1.651 0 002.87.41c.6-.78.99-1.7 1.14-2.67.05 0 .03 0 .04.03.11.47.38.89.77 1.18.67.42 1.13-.14 1.38-.72.03.02.02.04.03.07.06.49.24.95.51 1.36.79 1.13 2.04.66 2.44-.51.15-.51.22-1.04.18-1.57v-.4l.28.45a2.178 2.178 0 002.91.98c.03-.01.06-.03.08-.04.67-.49.99-1.34.82-2.15-.02-.15-.08-.3-.11-.44.58.49 1.39.85 2.05.26.58-.52.29-1.31-.04-1.89l-.19-.29c.6.3 1.33.06 1.63-.54.15-.31.17-.67.04-.99-.15-.4-.37-.77-.66-1.08 1.2.08 2.35-.55 2.92-1.61.62-.89.48-2.1-.31-2.84-.1-.07-.25-.12-.34-.19-.02-.02-.04-.02-.03-.05.48-.12.9-.41 1.18-.81 1.05-1.41.04-2.76-1.55-2.85-.32 0-.65.03-.96.08-.01-.04 0-.03.02-.04.53-.37.96-.87 1.25-1.45.39-.65.31-1.47-.2-2.03-.29-.2-.65-.28-1-.21.56-.6.56-1.53.01-2.13-.18-.19-.41-.32-.66-.38h-.48c.18-.22.35-.45.51-.69.46-.76.89-2.07.21-2.82-.33-.33-.78-.54-1.25-.57"/></defs></svg>