<svg xmlns="http://www.w3.org/2000/svg" data-name="Calque 2" viewBox="0 0 429.8 543.9"><g data-name="Calque 1"><g data-name="parc"><path fill="#d3efde" d="M133.6 0l69.8 165.7L337.1 241l92.7 82.8-57.5 121.4L0 543.9 4.9 207z" data-name="Tracé 1377"/><g data-name="Groupe 425"><path fill="#7cfa72" d="M73.2 391.7l-.3-.8A6 6 0 0174 386c1.3-1.3 3.5-.8 5-.4q0-1.3 1.2-1.8c.8-.2 1.5.5 2 1q.2-1.6 1.1-3c1.2-1.2 3.1.4 4 1.2q.1-1.5.7-3 .5-1.1 1.7-1.3c1.8-.4 1.8 1.8 1.9 3l.5-.5c1.4-1.6 3.6-2.8 5.7-1.5q.9.6 1.3 1.7l.1.4h.2l1.5-1.4c1.6-1.2 5.4-3.1 6.7-.7q.4 1.4 0 2.6 1-.4 1.8-1a7 7 0 014.7-.4 3 3 0 011.5 1.4l.3.6h.1q1.3.1 2.1 1c1.2 1.3.5 3.5-.3 4.9l-.9 1.1h.8q.8.2 1.2.7c1 1 1 2.6 0 3.6q.9-.1 1.7.4c1 .8.8 2.4.3 3.5q-.7 1.5-2.1 2.5h1.6c2.7.1 4.4 2.4 2.6 4.8q-.8 1-2 1.4v.1l.6.3c1.6 1.1 1.4 3.4.6 5a5 5 0 01-5 2.7q.7.8 1 1.8a2 2 0 01-2.8 2.6l.3.5c.6 1 1.1 2.4.1 3.3-1.1 1-2.5.3-3.5-.5l.2.8q.4 2.2-1.4 3.7c-1.9 1.2-4 0-5.1-1.6l-.5-.8v.7q0 1.3-.3 2.7c-.7 2-2.9 2.8-4.2.8q-.7-1-.9-2.3v-.1c-.5 1-1.3 2-2.4 1.2a4 4 0 01-1.3-2h-.1a10 10 0 01-2 4.5 2.8 2.8 0 01-4.9-.7 8 8 0 01-.3-4.8l-.7 1c-.7 1.1-2.5 3.3-3.7 1.6s.5-3.6 1.3-4.9l.4-.5-.4.2c-1.8 1.1-4 2.7-6.3 2a3 3 0 01-2-2.4 6 6 0 01.9-3.5l-1 .8c-1.4.9-3 1.7-4.4.5-1.3-1.1-.5-3 .3-4.2l.6-1c-.8-.1-2-.4-2.3-1.2a3 3 0 01.3-2.5l.6-.9c-1.1.4-2.6 1.1-3.7.5q-.6-.4-.8-1l-.1-.6a8 8 0 013-3.3q.4 0 .5-.3-.8-.8-.7-1.9l.6-.8-.8-1.1q-.6-1.6.3-2.8l1.5-1.7-.9-1a3 3 0 01-.8-3.3q.5-1 1.7-.9.3 0 .5.3l.3.1zm17.2-3.3v-.7l-.3-.8a2 2 0 00-2.6-.8l-.3.2-.8.9q0-1.3-.7-2.4c-.9-1-1.7-.3-1.8.8l.1 2.1.2 1.9-1-1.6a6 6 0 00-2.7-1.8c-.1 0-.7-.2-.9 0a7 7 0 00.8 3l-.7-.5c-1-.5-2.1-.9-3-.1a2 2 0 00-.5 2.3 12 12 0 002.6 4.2l-.4.4c-1 1.1.2 2.7 1 3.7l-1.6-.7q-3.2-.7-3 2.4.2 2.5 2.3 3.8c-.6.3-1.3.3-1.6 1-.4 1 .6 1.7 1.4 2.1l.7.3-.4.3c-2.2 1.8-3 5.1.6 5.7q1.2.2 2.4 0c-.5.6-1 1.5-.2 2.2 1.1.9 2.7 0 3.7-.7l1.6-1.3-.8 2.2c-.3 1.3-.3 3 1.3 3.5 2 .6 3.9-1.9 4.8-3.4q.7-1.2 1-2.3h.1c.2 1.4.5 3.7 2.3 3.5s2.1-3.1 2.2-4.4v-.5c.5.8 1 1.7 2 1.7q.5 0 .8-.3c.5 1.7 2.1 4.3 4.2 3 1.3-1 1.3-2.8.9-4.1 1.8.3 3.8-1.2 4.3-2.8q.4-2-.7-3.7l-.3-.4a10 10 0 003.6-1c1.6-1 2-3 0-3.9l-.7-.1c-.1-.1.3-.2.3-.2a4 4 0 003-2.6c.4-1.6 0-3.2-1.9-3.5q1.2-1.5 2-3.3c.7-2.3-.1-4.1-2.8-3.7a10 10 0 00-3.8 1.7l-.2.1a2 2 0 00-2.1-.9l-1 .3.4-.6c.5-.9 1-2.1.3-3-1-1.2-2-.4-2.9.4l-.6.8c-.1-1.3-.5-2.9-1.8-3.4-1.6-.6-3.2.7-3.6 2.2q-.3 1-.1 2a4 4 0 00-5.2.8m28.4 12.3" data-name="Tracé 1656"/><path fill="#ccea74" d="M73.2 391.7l.1.2-.2-.1" data-name="Tracé 1657"/><path fill="#ecfce6" d="M90.4 388.4a4 4 0 015.1-.7q-.1-1 .1-2c.5-1.5 2-2.9 3.7-2.3 1.3.5 1.7 2.1 1.8 3.4l.6-.8c.8-.8 2-1.6 2.9-.4.7.9.2 2.2-.3 3l-.4.6 1-.3q1.4-.4 2 1l.3-.2q1.7-1.2 3.8-1.7c2.6-.4 3.5 1.4 2.7 3.7q-.7 1.8-2 3.3h.1c1.8.3 2.3 1.9 1.8 3.5a4 4 0 01-2.9 2.6s-.5.1-.3.2l.7.2c2 .7 1.5 2.8 0 3.8a10 10 0 01-3.7 1l.4.5q1.1 1.6.7 3.6c-.6 1.6-2.6 3.1-4.4 2.8.5 1.4.5 3.2-.9 4-2 1.4-3.6-1.2-4.1-2.9l-.8.3c-1 0-1.6-.9-2-1.7v.5c-.1 1.3-.5 4.3-2.2 4.4s-2.1-2.1-2.3-3.4v-.1l-1.1 2.3c-1 1.6-2.8 4-4.9 3.4-1.6-.5-1.5-2.1-1.2-3.5l.8-2.2-1.7 1.3c-1 .7-2.5 1.6-3.6.7-.9-.7-.3-1.5.2-2.2q-1.2.3-2.5 0c-3.6-.5-2.7-3.8-.6-5.6l.5-.3v-.1l-.8-.3c-.8-.3-1.7-1.2-1.3-2.1.3-.7 1-.7 1.5-1a5 5 0 01-2.3-3.7q0-3.2 3.1-2.4l1.5.6c-.7-1-2-2.6-1-3.7l.5-.3a12 12 0 01-2.7-4.3 2 2 0 01.5-2.3c1-.7 2-.3 3 .1l.7.5-.3-.6q-.4-1.1-.5-2.3l.1-.2.9.2q1.6.5 2.6 1.8.6.7 1 1.5l-.2-4c0-1.1.9-1.8 1.7-.7q.6 1 .8 2.3l.8-.9a2 2 0 012.9.6l.2.9z" data-name="Tracé 1659"/><path fill="#338927" d="M116 383c1.6-.8 3.6-.7 5 .4a5 5 0 011.6 5.3l-.1.6a3 3 0 012 .3 5 5 0 011.8 4.3q0 1.2-.5 2.2c1.2-.3 2.8-.6 3.6.4s.2 2-.5 2.7l-.4.4c1 .3 2.4.5 2.3 1.9 0 1.2-1 1.9-1.9 2.6v.1c1.5 1 3.3 2.6 3.5 4.6.2 2.6-1.5 4.7-3.1 6.5l-1.7 1.6q0 .4.3.7.3 1 0 2a6 6 0 01-1.6 2.4l.9.9a2 2 0 01-1.2 3q-.9 0-1.8-.3.3 1.5-.5 3c-1 1.3-4 2.4-5.4 1.2l-.4-.2-.1.6c-.6 2.7-3.5 4.3-6 2.6l-1-1c0 1.2.4 2.4-.5 3.4-1.1 1.3-3.4 0-4.4-1 0 0-.5-.5-.6-.4a5 5 0 01-1 3c-1.4 1.3-2-.3-2.1-1.4l-.1-1-.5.4a4 4 0 01-5 .9q-.9-.6-1.5-1.5l-.5.6q-2 1.6-4.7 1.1a4 4 0 01-2.5-3.2l-.2-1-1 1c-1.8 1.4-3.6 0-4-2-1.6-.8-3-2.2-3-4q-1.4.5-2.8-.2a2.6 2.6 0 01-1.2-3.5l.4-.7c-2 0-3.8-1.2-4.5-3a8 8 0 01-.3-3.5q0-.9.3-1.6-2.7 0-3.4-2.7a4 4 0 01.4-3l.1.7q.3.6.8 1c1 .6 2.6-.1 3.7-.5l-.6.8a3 3 0 00-.3 2.6c.4.8 1.5 1 2.4 1.1v.1l-.7 1c-.8 1.2-1.6 3-.3 4.2s3 .4 4.3-.5l1-.8a6 6 0 00-.7 3.5q.4 1.6 2 2.4c2.2.7 4.4-.9 6.2-2l.4-.2-.3.5c-1 1.3-2.6 3.3-1.4 4.9s3-.5 3.8-1.5l.6-1.1q-.6 2.5.3 4.8a3 3 0 003.7 1.7q.8-.4 1.2-1a10 10 0 002-4.6q.4 1.4 1.4 2c1.1.8 2-.1 2.4-1.1q.2 1.3.9 2.4c1.3 2 3.5 1.1 4.2-.9q.3-1.3.3-2.7v-.7l.5.8c1 1.7 3.2 2.9 5 1.6a4 4 0 001.5-3.7l-.2-.7c1 .8 2.4 1.4 3.5.4 1-.9.5-2.2 0-3.2l-.4-.5a2 2 0 002.9-2.6q-.5-1-1.2-1.9c2.1.2 4-1 5-2.7.9-1.5 1-3.8-.5-4.9l-.6-.3v-.1q1.2-.3 2-1.4c1.8-2.4 0-4.7-2.6-5l-1.7.2q1.5-1 2.2-2.5c.5-1.1.7-2.7-.3-3.5a2 2 0 00-1.8-.4c1-1 1-2.6 0-3.7q-.4-.4-1-.6h-.9l.9-1.2c.8-1.3 1.5-3.5.4-4.8q-1-1-2.2-1" data-name="Tracé 1660"/></g><g data-name="Groupe 425-2"><path fill="#7cfa72" d="M307.5 381.7l-.2-.8a6 6 0 011-4.9c1.4-1.3 3.5-.8 5.1-.4q0-1.4 1.1-1.8c.8-.3 1.5.4 2 .9q.2-1.6 1.1-2.8c1.2-1.4 3.1.2 4.1 1q0-1.5.7-2.9.5-1 1.6-1.4c1.8-.3 1.9 1.9 1.9 3.1q.3-.1.5-.6c1.5-1.5 3.7-2.7 5.7-1.4q.9.6 1.3 1.7l.1.4h.2l1.5-1.4c1.6-1.2 5.4-3.2 6.7-.7q.5 1.2.1 2.6l1.7-1a7 7 0 014.8-.4 3 3 0 011.5 1.4l.2.5.1.1q1.3 0 2.2 1c1.1 1.3.4 3.5-.4 4.8l-.9 1.2h.9q.6.1 1.1.7c1 1 1 2.6 0 3.6q1-.2 1.7.4c1 .8.8 2.4.3 3.5q-.7 1.5-2.1 2.5h1.6c2.7 0 4.4 2.4 2.7 4.8q-.9 1-2 1.4.2.3.6.4c1.5 1.1 1.3 3.4.5 4.9a5 5 0 01-5 2.7q.8.9 1.1 1.9a2 2 0 01-2.8 2.6l.3.5c.5 1 1 2.3 0 3.2s-2.5.4-3.5-.4l.2.7q.4 2.3-1.4 3.7c-1.8 1.3-4 .1-5.1-1.6l-.5-.8v.7q0 1.5-.3 2.7c-.7 2-2.8 2.8-4.2 1l-.9-2.4v-.1c-.4 1-1.2 1.9-2.4 1.2a4 4 0 01-1.3-2 10 10 0 01-2 4.5 2.8 2.8 0 01-5-.7 8 8 0 01-.2-4.8l-.7 1c-.8 1-2.6 3.3-3.8 1.6s.5-3.6 1.4-5l.3-.4-.4.2c-1.7 1.1-4 2.7-6.2 2a3 3 0 01-2-2.4 6 6 0 01.8-3.6l-1 .8c-1.3 1-3 1.8-4.4.6-1.3-1.2-.4-3 .3-4.3l.7-.9c-.9-.2-2-.4-2.4-1.3a3 3 0 01.3-2.5l.6-.8c-1 .4-2.6 1.1-3.7.5q-.5-.4-.7-1 0-.4-.2-.6a8 8 0 013.1-3.4l.4-.2q-.7-.8-.6-1.9.1-.5.5-.8-.5-.5-.8-1.2-.6-1.5.4-2.8l1.4-1.6-.9-1a3 3 0 01-.7-3.3q.5-1 1.6-1l.5.3.3.2zm17.2-3.4v-.6q0-.5-.3-.8a2 2 0 00-2.5-.8q-.3 0-.3.2l-.8.8q-.2-1.2-.8-2.3c-.8-1-1.7-.3-1.7.8v2q0 1 .3 2l-1.1-1.6a6 6 0 00-2.6-1.8l-1-.1v.1a7 7 0 00.8 3l-.7-.5c-1-.5-2.1-.9-3-.1a2 2 0 00-.5 2.3 12 12 0 002.6 4.2l-.4.4c-1 1 .3 2.7 1 3.6l-1.5-.6q-3.1-.8-3.1 2.4.2 2.5 2.3 3.8-1 .1-1.5 1c-.4.9.5 1.7 1.3 2l.7.3v.1l-.4.3c-2.2 1.8-3 5.1.6 5.7h2.4c-.5.6-1 1.5-.2 2.2 1.1.9 2.7 0 3.7-.8l1.6-1.2-.7 2.2c-.4 1.3-.4 3 1.2 3.4 2.1.6 3.9-1.8 4.8-3.4q.7-1 1-2.3l.1.1c.2 1.3.5 3.6 2.4 3.5 1.7-.2 2-3.1 2.1-4.5v-.5q.6 1.5 2.1 1.7.4 0 .7-.2c.6 1.6 2.2 4.3 4.2 3 1.3-1 1.3-2.8.9-4.2 1.8.4 3.8-1.1 4.3-2.8q.4-1.9-.7-3.6l-.3-.4a10 10 0 003.6-1c1.6-1 2.1-3.1 0-3.9l-.6-.2.3-.1a4 4 0 003-2.7c.4-1.6-.1-3.1-2-3.4q1.2-1.5 2-3.4c.7-2.2-.1-4-2.7-3.6a10 10 0 00-3.9 1.7q0 .1-.2 0a2 2 0 00-2-.8q-.6 0-1 .3l.4-.6c.5-.9 1-2.2.2-3-1-1.2-2-.5-2.9.4l-.6.8c0-1.3-.5-3-1.8-3.4-1.6-.7-3.2.7-3.6 2.2q-.4 1-.1 2a4 4 0 00-5.2.7m28.4 12.3" data-name="Tracé 1656-2"/><path fill="#ecfce6" d="M324.7 378.3a4 4 0 015.2-.6q-.2-1 0-2.1c.5-1.5 2-2.8 3.7-2.2 1.3.5 1.7 2.1 1.8 3.4l.6-.8c.8-.9 2-1.6 3-.4.6.9.1 2.1-.4 3l-.3.6.9-.3q1.4-.4 2 .9l.3-.1q1.8-1.2 3.8-1.7c2.7-.4 3.5 1.4 2.7 3.7q-.5 1.8-2 3.2h.1c1.8.4 2.3 2 1.9 3.6a4 4 0 01-3 2.6s-.4 0-.3.1l.7.2c2 .8 1.6 2.9 0 3.8a10 10 0 01-3.6 1l.3.5q1.1 1.6.7 3.6c-.5 1.7-2.6 3.2-4.3 2.8.4 1.4.4 3.2-1 4.1-2 1.4-3.6-1.3-4-2.9l-.8.2q-1.5-.2-2-1.6h-.1v.5c-.1 1.3-.5 4.2-2.2 4.4-1.8.1-2.1-2.2-2.3-3.5l-1.1 2.3c-1 1.5-2.7 4-4.8 3.4-1.6-.5-1.6-2.2-1.3-3.5l.8-2.2-1.6 1.2c-1 .7-2.6 1.7-3.7.8-.8-.7-.3-1.6.2-2.2h-2.4c-3.7-.6-2.8-3.9-.6-5.7l.4-.3-.7-.3c-.8-.4-1.7-1.2-1.4-2.2.3-.6 1-.6 1.6-.8v-.1a5 5 0 01-2.3-3.8q0-3.2 3-2.4l1.5.7c-.7-1-2-2.6-1-3.7l.5-.3v-.1a12 12 0 01-2.6-4.2 2 2 0 01.4-2.3c1-.8 2.1-.4 3 0l.8.5-.3-.6q-.5-1-.5-2.3v-.1l1 .1q1.5.6 2.5 1.8l1.1 1.5-.3-4c.1-1 1-1.8 1.8-.7q.6 1 .7 2.3l.8-.8a2 2 0 012.9.6l.2.8z" data-name="Tracé 1659-2"/><path fill="#338927" d="M350.3 372.9q2.7-1.1 5 .4a5 5 0 011.7 5.4l-.2.6a3 3 0 012 .3 5 5 0 011.8 4.3q0 1.1-.4 2.2c1.1-.3 2.7-.6 3.6.4s.2 1.9-.5 2.6l-.5.4v.2c1 .1 2.4.4 2.3 1.7 0 1.2-1 2-1.8 2.6l-.1.2c1.6 1 3.4 2.5 3.5 4.5.2 2.6-1.4 4.8-3.1 6.6l-1.7 1.6.3.7q.3 1 0 2a6 6 0 01-1.6 2.3l1 1a2 2 0 01-1.3 3q-1 0-1.7-.3.3 1.5-.6 2.9c-1 1.4-4 2.4-5.4 1.3l-.3-.3-.2.6c-.6 2.8-3.5 4.4-6 2.6l-1-.9c.1 1.2.4 2.4-.5 3.4-1 1.2-3.4-.1-4.4-1l-.5-.5a5 5 0 01-1.2 3.1c-1.2 1.2-1.8-.4-2-1.4l-.1-1.1-.5.5a4 4 0 01-5 .8q-.7-.5-1.5-1.4l-.5.5q-2 1.6-4.6 1.2a4 4 0 01-2.6-3.3c0-.1 0-.8-.2-.9l-.9 1c-1.9 1.4-3.7 0-4.2-2-1.5-.8-2.9-2.2-2.8-4.1q-1.6.6-2.8-.1a2.6 2.6 0 01-1.2-3.5q0-.4.3-.8c-2 0-3.8-1.1-4.5-3a8 8 0 01-.2-3.5l.2-1.6c-1.6.1-3-1-3.3-2.6a4 4 0 01.3-3l.2.7q.2.6.7 1c1.1.6 2.6-.2 3.7-.6l-.5.9a3 3 0 00-.3 2.5c.4.9 1.5 1.1 2.3 1.2l-.7 1c-.7 1.2-1.6 3.1-.2 4.3s3 .3 4.3-.6l1-.8a6 6 0 00-.8 3.5q.4 1.7 2 2.5c2.2.7 4.5-1 6.2-2l.4-.2-.3.5c-.9 1.3-2.5 3.3-1.4 4.9 1.3 1.7 3-.5 3.8-1.6l.7-1q-.6 2.3.3 4.8a3 3 0 003.6 1.6q.8-.3 1.3-1a10 10 0 002-4.5q.3 1.3 1.3 2c1.2.8 2-.2 2.4-1.2v.1q.3 1.4 1 2.4c1.3 1.9 3.4 1 4.1-1q.4-1.2.3-2.6v-.7l.5.8c1 1.7 3.2 2.9 5.1 1.6a4 4 0 001.4-3.7l-.2-.8c1 .9 2.4 1.5 3.5.5 1-1 .5-2.3 0-3.2l-.4-.5a2 2 0 003-2.7q-.4-1-1.2-1.8c2 .1 4-1 5-2.8.8-1.5 1-3.7-.5-4.8l-.6-.4q1.1-.4 2-1.5c1.7-2.4 0-4.7-2.7-4.8H353q1.5-1 2.2-2.5c.5-1 .7-2.6-.3-3.5a2 2 0 00-1.7-.3c1-1 1-2.7 0-3.7q-.5-.4-1.1-.6h-.8l.8-1.2c.8-1.3 1.6-3.6.4-4.9q-.9-.8-2.1-1" data-name="Tracé 1660-2"/></g><g data-name="Groupe 425-3"><path fill="#7cfa72" d="M74 176.4l-.2-.8a6 6 0 011-5c1.4-1.2 3.5-.7 5.1-.3q0-1.3 1.1-1.8c.9-.3 1.5.4 2.1.9q0-1.5 1-2.9c1.2-1.3 3.2.3 4.1 1.1q0-1.5.7-3 .5-1 1.6-1.3c1.9-.4 1.9 1.8 2 3.1l.4-.6c1.5-1.6 3.7-2.8 5.7-1.4q.9.7 1.3 1.6l.1.5h.2l1.6-1.4c1.5-1.2 5.3-3.2 6.6-.7q.5 1.2.1 2.6l1.8-1a7 7 0 014.7-.4 3 3 0 011.5 1.4l.2.5h.2q1.2.2 2.1 1c1.2 1.3.4 3.6-.4 5l-.8 1h.8l1.1.7c1 1 1 2.7 0 3.7q1-.2 1.7.4c1 .8.8 2.4.4 3.4q-.8 1.5-2.2 2.5v.1l1.6-.1c2.7.2 4.5 2.5 2.7 4.9q-.8 1-2 1.4.2.3.6.4c1.5 1.1 1.3 3.3.5 4.9a5 5 0 01-5 2.7q.8.9 1.1 1.9a2 2 0 01-2.8 2.6l.3.5c.6 1 1 2.3 0 3.2s-2.4.4-3.4-.4l.1.7q.4 2.3-1.4 3.7c-1.8 1.3-4 0-5-1.6l-.6-.8v.7q0 1.4-.3 2.7c-.7 2-2.8 2.8-4.2.9q-.6-1-.8-2.3v-.2c-.5 1-1.3 2-2.5 1.3a4 4 0 01-1.3-2 10 10 0 01-2 4.5 2.8 2.8 0 01-5-.7 8 8 0 01-.2-4.9l-.7 1.1c-.7 1-2.5 3.3-3.8 1.6-1.1-1.6.5-3.6 1.4-5l.3-.4-.4.2c-1.7 1-4 2.7-6.2 2a3 3 0 01-2-2.5 6 6 0 01.8-3.5l-1 .8c-1.3 1-3 1.8-4.3.6-1.4-1.2-.5-3 .2-4.3l.7-1c-.8 0-2-.3-2.4-1.2a3 3 0 01.3-2.5l.6-.9c-1 .4-2.6 1.2-3.7.5q-.5-.3-.7-1l-.2-.6A8 8 0 0172 190l.4-.2q-.7-.8-.6-2l.5-.7-.8-1.2q-.6-1.5.4-2.8l1.4-1.7-.9-1a3 3 0 01-.7-3.2c.2-.7 1-1 1.6-1l.5.3zl.2.2zm17.2-3.4v-.6l-.2-.9a2 2 0 00-2.6-.8l-.3.2-.8 1q-.2-1.4-.8-2.4c-.8-1.1-1.6-.4-1.7.8v2l.3 2-1.1-1.6a6 6 0 00-2.6-1.8c-.2 0-.8-.2-1-.1v.1a7 7 0 00.8 2.9l-.7-.4c-1-.5-2-1-3-.2a2 2 0 00-.5 2.4 12 12 0 002.7 4.2l-.5.3c-1 1.1.3 2.8 1 3.7l-1.5-.6q-3.1-.8-3 2.4.1 2.5 2.3 3.8h-.1c-.5.2-1.3.3-1.5 1-.4.9.5 1.7 1.3 2l.8.3v.1l-.5.3c-2.2 1.8-3 5.1.6 5.7h2.5c-.5.6-1 1.5-.2 2.1 1 1 2.6 0 3.6-.7l1.6-1.2-.7 2.2c-.3 1.3-.4 3 1.2 3.4 2.1.6 4-1.8 4.8-3.4q.7-1 1-2.3l.2.1c.2 1.3.4 3.6 2.3 3.4 1.7-.1 2-3 2.1-4.4v-.5h.1q.6 1.5 2 1.7l.8-.2c.5 1.6 2 4.3 4.1 3 1.4-1 1.3-2.8 1-4.2 1.7.4 3.7-1.1 4.3-2.8q.4-2-.8-3.6l-.3-.5a10 10 0 003.6-1c1.6-1 2.1-3 0-3.8l-.6-.2.3-.1a4 4 0 003-2.7c.4-1.6-.1-3.2-2-3.4q1.3-1.5 2-3.4c.8-2.3 0-4-2.7-3.6a10 10 0 00-3.8 1.7h-.3a2 2 0 00-2-.8q-.6 0-1 .3l.4-.6c.5-.9 1-2.2.3-3-1-1.2-2.1-.5-3 .4l-.6.7c0-1.2-.4-2.9-1.8-3.4-1.6-.6-3.1.8-3.6 2.2q-.3 1 0 2.1a4 4 0 00-5.3.7m28.4 12.3" data-name="Tracé 1656-3"/><path fill="#ccea74" d="M74 176.4v.2z" data-name="Tracé 1657-3"/><path fill="#ecfce6" d="M91.2 173a4 4 0 015.2-.6q-.2-1.1 0-2.1c.5-1.5 2.1-2.9 3.7-2.2 1.3.5 1.7 2 1.8 3.4l.6-.8c.8-.9 2-1.6 3-.4.6.8.1 2.1-.4 3l-.3.6 1-.3q1.2-.5 2 .9l.2-.1q1.8-1.3 3.9-1.7c2.6-.5 3.4 1.4 2.7 3.6q-.8 1.8-2 3.3c1.8.4 2.4 2 1.9 3.5a4 4 0 01-3 2.7s-.4 0-.2.1l.6.2c2 .8 1.6 2.8 0 3.8a10 10 0 01-3.6 1l.3.5q1.2 1.6.7 3.6c-.5 1.7-2.5 3.2-4.3 2.8.4 1.4.4 3.2-1 4.1-2 1.4-3.5-1.3-4-3l-.8.3q-1.5-.2-2-1.6h-.1v.4c0 1.4-.5 4.3-2.2 4.5-1.8.1-2-2.2-2.3-3.5l-1 2.2c-1 1.6-2.8 4-5 3.4-1.5-.4-1.5-2.1-1.2-3.4l.8-2.2-1.6 1.2c-1 .7-2.6 1.7-3.7.7-.8-.6-.3-1.5.2-2.2q-1.2.3-2.4.1c-3.7-.6-2.8-4-.6-5.7l.4-.3-.7-.3c-.8-.4-1.7-1.2-1.3-2.2.2-.6 1-.7 1.5-.9a5 5 0 01-2.3-3.8q0-3.2 3-2.4l1.6.6c-.7-.9-2-2.5-1-3.7l.4-.3a12 12 0 01-2.6-4.2 2 2 0 01.5-2.4c.9-.7 2-.3 3 .2l.7.4-.3-.6q-.5-1-.5-2.3v-.1h1q1.6.6 2.5 1.9l1.1 1.5-.3-4c.1-1 1-1.8 1.8-.7q.6 1 .7 2.3l.8-.8a2 2 0 013 .6l.2.8z" data-name="Tracé 1659-3"/><path fill="#338927" d="M116.9 167.6q2.6-1.2 5 .4a5 5 0 011.6 5.3l-.1.7a3 3 0 012 .3 5 5 0 011.8 4.3l-.5 2.2c1.1-.3 2.7-.6 3.6.4s.2 1.9-.5 2.6l-.4.4v.1c1 .2 2.3.5 2.2 1.8 0 1.2-1 1.9-1.8 2.6v.1c1.5 1 3.3 2.6 3.4 4.6.3 2.6-1.4 4.8-3 6.5l-1.8 1.6.3.7q.3 1 0 2a6 6 0 01-1.5 2.4l.9 1a2 2 0 01-1.2 3q-1 0-1.8-.3.3 1.5-.5 2.9c-1 1.4-4 2.4-5.5 1.3l-.3-.3-.1.6c-.7 2.8-3.6 4.3-6 2.6l-1.1-.9c.2 1.2.4 2.4-.4 3.3-1.2 1.3-3.5 0-4.5-1l-.5-.4a5 5 0 01-1.1 3c-1.3 1.3-1.9-.3-2-1.4l-.2-1-.4.4a4 4 0 01-5 1q-.9-.7-1.5-1.5l-.6.5q-2 1.7-4.6 1.1a4 4 0 01-2.6-3.2l-.1-.9-1 1c-1.9 1.4-3.6 0-4.1-2-1.6-.8-3-2.3-2.9-4.1q-1.5.5-2.8-.2a2.6 2.6 0 01-1.2-3.5l.4-.7c-2 0-3.8-1.1-4.5-3a8 8 0 01-.3-3.5l.3-1.6q-2.7 0-3.4-2.7a4 4 0 01.4-2.9l.1.6q.2.7.8 1c1 .6 2.6 0 3.6-.5l-.5.9a3 3 0 00-.3 2.5c.4.9 1.5 1 2.3 1.2l-.6 1c-.8 1.2-1.6 3.1-.3 4.2 1.4 1.3 3 .4 4.3-.5l1-.8a6 6 0 00-.7 3.5q.3 1.7 2 2.5c2.1.6 4.4-1 6.2-2l.3-.3q0 .3-.3.5c-.9 1.3-2.5 3.3-1.3 5 1.2 1.6 3-.6 3.7-1.6l.7-1.1q-.6 2.4.3 4.9a3 3 0 003.6 1.6q.8-.3 1.3-1a10 10 0 002-4.5q.3 1.2 1.4 2c1.1.7 1.9-.2 2.3-1.2v.1q.3 1.2 1 2.3c1.3 2 3.4 1.2 4.1-.8q.4-1.4.4-2.7v-.7l.4.8c1.1 1.6 3.3 2.8 5.1 1.6a4 4 0 001.4-3.7l-.1-.8c1 .9 2.3 1.5 3.5.5 1-1 .5-2.3-.1-3.3l-.3-.5a2 2 0 002.8-2.6q-.3-1-1-1.8c2 .1 4-1 5-2.8.7-1.5 1-3.7-.6-4.9l-.6-.3q1.2-.5 2-1.5c1.8-2.4 0-4.7-2.7-4.9l-1.6.2v-.1q1.5-1 2.2-2.5c.5-1 .7-2.7-.4-3.5a2 2 0 00-1.7-.4c1-1 1-2.6 0-3.6q-.5-.5-1.1-.7h-.8l.9-1.1c.7-1.4 1.5-3.6.3-4.9q-.8-1-2.1-1" data-name="Tracé 1660-3"/></g><g data-name="Groupe 425-4"><path fill="#7cfa72" d="M82.2 439.3l-.1-.5q-.4-1.5.6-2.8c.7-.8 2-.5 3-.3q-.2-.7.6-1 .8-.1 1.2.5 0-1 .6-1.6c.7-.8 1.8.1 2.4.6q0-1 .3-1.7.4-.6 1-.8c1-.2 1 1 1 1.8l.4-.4c.8-.9 2.1-1.6 3.3-.8q.5.4.8 1v.2h.1l1-.8c.9-.7 3-1.8 3.8-.4q.3.7 0 1.5l1.1-.5a4 4 0 012.8-.3l.8.8.2.3q.8.1 1.3.7c.7.7.2 2-.2 2.8l-.5.7h.5l.6.3q.9 1.2 0 2.2.6-.1 1 .2.8 1 .2 2a4 4 0 01-1.3 1.5h1c1.6 0 2.6 1.4 1.5 2.8a2 2 0 01-1.2.8l.4.2q1.3 1.4.3 2.9a3 3 0 01-2.9 1.6l.7 1q.3 1.2-.7 1.6-.6.3-1 0l.2.3c.3.6.6 1.4 0 1.9s-1.5.2-2-.3v.5a2 2 0 01-.7 2.1c-1 .6-2.4.2-3-.8v-.1l-.3-.5v.4l-.2 1.6c-.4 1.2-1.7 1.6-2.4.5q-.4-.6-.6-1.4-.3 1.1-1.4.7a2 2 0 01-.7-1.2q-.3 1.5-1.2 2.7a1.6 1.6 0 01-2.9-.4q-.5-1.5-.1-2.9l-.4.7c-.5.6-1.5 1.9-2.2.9s.2-2.1.8-2.9l.1-.3-.2.1c-1 .7-2.3 1.6-3.6 1.2q-.9-.4-1.2-1.4 0-1 .5-2l-.6.4c-.8.5-1.7 1-2.5.3s-.3-1.8.1-2.5q.3-.2.4-.5-.9 0-1.3-.7-.2-.8.1-1.5l.4-.5c-.7.2-1.5.6-2.2.3l-.4-.6-.1-.4q.6-1.2 1.8-1.9l.2-.1q-.4-.4-.4-1.2l.4-.4-.5-.7q-.4-.9.2-1.6l.9-1-.6-.6q-.8-.8-.4-1.9.2-.6 1-.5l.3.1.1.1m10-2v-.4l-.1-.5a1 1 0 00-1.5-.5l-.2.1-.5.5q0-.7-.4-1.3c-.5-.7-1-.2-1 .4v1.3l.1 1-.6-.9q-.7-.7-1.5-1H86l.4 1.7-.4-.3q-.9-.5-1.8 0-.6.6-.3 1.3.6 1.5 1.6 2.5l-.3.2c-.6.6.2 1.6.6 2.1l-.9-.3q-1.7-.6-1.8 1.4.2 1.4 1.4 2.2-.6 0-1 .5c-.2.6.4 1 .8 1.3l.5.1-.3.2c-1.3 1-1.8 3 .4 3.3h1.4q-.6.7-.1 1.3c.6.5 1.5 0 2.1-.4l1-.8-.5 1.3c-.2.8-.2 1.8.7 2 1.3.4 2.3-1 2.9-2l.6-1.3c.1.8.3 2.2 1.4 2 1 0 1.2-1.8 1.2-2.5v-.3q.4.9 1.2 1 .3 0 .5-.2c.3 1 1.2 2.5 2.4 1.7a2 2 0 00.5-2.3c1.1 0 2.2-.6 2.5-1.7q.3-1.2-.4-2l-.2-.4h.1q1 0 2-.6c1-.5 1.3-1.7 0-2.2h-.3l.2-.2q1.2-.3 1.7-1.5.5-1.7-1-2h-.1q.8-1 1.1-2c.5-1.3 0-2.4-1.5-2.1a6 6 0 00-2.3 1h-.1a1 1 0 00-1.2-.5l-.6.2.3-.4q.5-.9.1-1.7c-.5-.7-1.2-.3-1.7.2l-.3.5q0-1.4-1-2-1.7-.2-2.2 1.3v1.2c-1-.6-2.3-.5-3 .4m16.4 7.2" data-name="Tracé 1656-4"/><path fill="#ccea74" d="M82.2 439.3v.1z" data-name="Tracé 1657-4"/><path fill="#ecfce6" d="M92.2 437.3q1.4-1.2 3-.4v-1.2q.6-1.6 2.2-1.3c.8.3 1 1.3 1 2l.4-.4c.5-.5 1.1-1 1.7-.3q.4.9-.2 1.8l-.2.3.6-.1a1 1 0 011.2.5h.1a6 6 0 012.3-1c1.5-.3 2 .7 1.5 2q-.4 1.1-1.1 2 1.5.5 1 2-.4 1.3-1.6 1.6h-.2l.4.2c1.2.4.9 1.6 0 2.2a6 6 0 01-2.2.6l.2.3q.7 1 .4 2a2.5 2.5 0 01-2.5 1.7 2 2 0 01-.5 2.4c-1.2.8-2.1-.8-2.4-1.7l-.5.1q-.9-.1-1.1-1v.3c-.1.8-.3 2.5-1.3 2.6-1.1.1-1.3-1.2-1.4-2l-.6 1.3c-.6 1-1.6 2.3-2.9 2-.9-.3-.9-1.3-.7-2l.5-1.3-1 .7c-.6.4-1.5 1-2.1.4q-.5-.6.1-1.2h-1.4c-2.2-.4-1.7-2.3-.4-3.3l.3-.2-.5-.2c-.4-.2-1-.7-.7-1.3q.3-.4.9-.5a3 3 0 01-1.4-2.2q0-1.8 1.8-1.4l1 .4c-.5-.6-1.2-1.5-.6-2.2l.2-.2a7 7 0 01-1.5-2.4 1 1 0 01.2-1.4q1-.5 1.8 0l.4.3-.2-.3q-.3-.7-.3-1.4h.6q.9.4 1.5 1l.6 1-.1-1.1v-1.2q.1-1.2 1-.5.4.6.4 1.4l.5-.5a1 1 0 011.7.3l.1.5z" data-name="Tracé 1659-4"/><path fill="#338927" d="M107.2 434.2a3 3 0 013 .2q1.3 1.3.9 3.1l-.1.4q.6 0 1.1.2 1.3 1 1 2.5l-.2 1.3q1.2-.5 2.1.2c.5.5.1 1.1-.3 1.5l-.2.3c.6.1 1.4.3 1.3 1q-.2 1.1-1 1.6h-.1a4 4 0 012 2.7 5 5 0 01-1.8 3.9l-1 .9.2.4v1.2q-.3.8-1 1.3l.6.6q.5.9-.4 1.6l-.3.1-1-.1q.1 1-.3 1.7c-.6.8-2.3 1.4-3.2.7l-.2-.1q-.2 0 0 .3a2.2 2.2 0 01-2.6 1.9l-1-.4-.5-.5h-.1q.3 1-.2 2c-.7.7-2-.1-2.6-.6l-.3-.3a3 3 0 01-.7 1.8c-.7.7-1-.2-1.2-.8v-.7l-.3.3q-1.4 1.2-2.9.5-.6-.3-.9-.8l-.3.3q-1.3 1-2.7.7a3 3 0 01-1.5-2l-.1-.4-.5.5c-1.2.8-2.2 0-2.5-1.1a3 3 0 01-1.6-2.4 2 2 0 01-1.7-.1 1.5 1.5 0 01-.7-2l.2-.5q-1.8 0-2.6-1.7-.3-1-.2-2l.2-1q-1.6 0-2-1.6-.2-.9.3-1.7v.4l.5.6c.6.3 1.5-.1 2.1-.3l-.3.5q-.4.7-.2 1.4.6.7 1.4.7-.1.4-.4.6c-.4.7-1 1.8-.1 2.5s1.7.2 2.5-.3l.6-.5q-.6 1-.5 2 .2 1 1.2 1.5c1.2.4 2.6-.5 3.6-1.2l.2-.1q0 .2-.2.3c-.5.8-1.4 2-.8 2.8.8 1 1.8-.2 2.2-.9l.4-.6q-.3 1.6.2 2.8a1.7 1.7 0 002.9.4q1-1.1 1.1-2.6.3.8.8 1.2c.7.4 1.2-.2 1.4-.7q.1.8.5 1.4c.8 1.1 2 .7 2.5-.5l.2-1.6v-.4l.2.5a2.2 2.2 0 003 1v-.1q1-.8.9-2.1l-.2-.5c.6.5 1.4.9 2 .3.7-.5.4-1.3 0-2l-.1-.2a1.2 1.2 0 001.6-1.5q-.2-.6-.6-1.1a3 3 0 002.9-1.6q.9-1.6-.3-2.9l-.4-.2a2 2 0 001.2-.8c1-1.4 0-2.8-1.6-2.9l-1 .1h.1q.8-.6 1.3-1.5t-.2-2q-.5-.3-1-.2.8-1 0-2.1-.3-.4-.7-.4h-.5l.5-.7c.5-.8 1-2 .2-2.8a2 2 0 00-1.2-.6" data-name="Tracé 1660-4"/></g><g data-name="Groupe 425-5"><path fill="#7cfa72" d="M271.3 365.6l-.1-.5q-.4-1.5.6-2.9c.8-.7 2-.4 3-.2q-.1-.7.6-1 .8-.1 1.2.5 0-1 .6-1.7c.7-.7 1.8.2 2.4.7q0-1 .3-1.7.4-.6 1-.8c1-.3 1 1 1 1.8l.4-.4c.8-1 2.1-1.6 3.3-.8q.5.4.8 1v.2h.1l1-.8c.9-.7 3-1.8 3.8-.4q.3.7 0 1.5l1.1-.5a4 4 0 012.8-.3l.8.8.2.3q.8 0 1.3.6c.7.8.2 2-.2 2.9l-.5.6h.5l.6.4q.9 1.1 0 2.2.6-.1 1 .2.8 1 .2 2a4 4 0 01-1.3 1.5h1c1.6 0 2.6 1.4 1.5 2.8a2 2 0 01-1.2.8l.4.2q1.3 1.4.3 2.9a3 3 0 01-2.9 1.6l.7 1q.2 1.2-.7 1.6-.5.2-1 0l.2.3c.3.5.6 1.3 0 1.9s-1.5.2-2-.3v.4a2 2 0 01-.7 2.2c-1 .6-2.4.2-3-.9l-.3-.5v.4l-.2 1.6c-.4 1.2-1.6 1.6-2.4.5q-.5-.6-.5-1.4-.4 1-1.5.7a2 2 0 01-.7-1.2q-.3 1.5-1.2 2.7a1.6 1.6 0 01-2.9-.5q-.5-1.3-.1-2.8l-.4.7c-.5.6-1.5 1.8-2.2.9s.3-2.1.8-2.9l.2-.3-.3.1c-1 .7-2.3 1.6-3.6 1.2q-1-.4-1.1-1.4-.2-1.1.4-2l-.6.4c-.7.5-1.7 1-2.5.3s-.3-1.8.2-2.5l.3-.5c-.4-.1-1.1-.3-1.3-.8q-.3-.8.1-1.4l.4-.5c-.6.2-1.5.6-2.2.3l-.4-.6-.1-.4q.6-1.2 1.8-2h.2q-.4-.5-.3-1.2 0-.3.3-.4l-.5-.7q-.3-1 .2-1.7l.9-1-.6-.5q-.7-.8-.4-2 .3-.5 1-.4zm10-2v-.4l-.1-.5a1 1 0 00-1.5-.4l-.2.1-.5.5q0-.8-.4-1.4-.9-.7-1 .5v1.2l.1 1.1-.6-.9q-.7-.7-1.5-1l-.5-.1.4 1.7-.4-.2q-.8-.6-1.8 0-.6.5-.2 1.3.4 1.3 1.5 2.4l-.2.2c-.6.7 0 1.7.5 2.2l-.9-.4q-1.7-.4-1.8 1.4.2 1.6 1.4 2.2-.6.1-1 .6 0 .8.9 1.2l.4.2-.3.2c-1.2 1-1.7 3 .4 3.3h1.4c-.3.4-.6.9-.1 1.3s1.5 0 2.1-.5l1-.7-.5 1.3q-.5 1.4.7 2c1.3.4 2.3-1 2.9-2l.6-1.3c.1.8.3 2.1 1.4 2 1 0 1.2-1.8 1.2-2.6v-.3q.4.9 1.2 1h.5c.3.9 1.2 2.4 2.4 1.6a2 2 0 00.5-2.4q1.8.1 2.6-1.6.2-1.1-.5-2.1l-.1-.3q1 0 2-.6c1-.6 1.3-1.8 0-2.2l-.3-.1.2-.1q1.2-.4 1.7-1.5.5-1.7-1-2h-.1q.8-1 1.1-2c.5-1.3 0-2.4-1.5-2.1a6 6 0 00-2.3 1h-.1a1 1 0 00-1.2-.5l-.6.2.3-.4q.6-.8.1-1.8c-.5-.6-1.2-.2-1.7.3l-.3.4q0-1.2-1-2-1.7-.2-2.2 1.3v1.3c-1-.7-2.3-.5-3 .4m16.4 7.2" data-name="Tracé 1656-5"/><path fill="#ecfce6" d="M281.3 363.6q1.4-1.3 3-.4V362q.6-1.6 2.2-1.3 1.1.6 1 2l.4-.5c.5-.5 1.2-.9 1.7-.2q.4.9-.2 1.8l-.2.3.6-.2a1 1 0 011.2.6l.1-.1a6 6 0 012.2-1c1.6-.2 2 .8 1.6 2.1q-.3 1-1.1 2 1.5.4 1 2-.4 1.3-1.6 1.5l-.2.1.4.1c1.2.5.9 1.7 0 2.3a6 6 0 01-2.2.6l.2.2q.7 1 .4 2.1a2.5 2.5 0 01-2.5 1.7 2 2 0 01-.5 2.4c-1.2.8-2.1-.8-2.4-1.7l-.5.1q-.8-.1-1.1-1v.3c-.1.8-.3 2.5-1.3 2.6-1.1 0-1.3-1.3-1.4-2l-.6 1.3c-.6.9-1.6 2.3-2.9 2-.9-.3-.9-1.3-.7-2l.5-1.3-1 .7c-.6.4-1.5 1-2.1.4-.5-.4-.2-.9.1-1.3H274c-2.2-.3-1.7-2.2-.4-3.3l.3-.1-.5-.2c-.4-.2-1-.7-.7-1.3q.3-.5.9-.5a3 3 0 01-1.4-2.2q0-2 1.8-1.4l1 .3c-.5-.5-1.2-1.5-.6-2.1l.2-.2a7 7 0 01-1.5-2.5 1 1 0 01.2-1.3q1-.5 1.8 0l.4.3-.2-.4q-.3-.6-.3-1.3h.6q.9.4 1.5 1l.6 1-.1-1.1V362q.1-1.1 1-.4.4.6.4 1.3l.5-.5a1 1 0 011.7.4l.1.5z" data-name="Tracé 1659-5"/><path fill="#338927" d="M296.3 360.4a3 3 0 013 .3q1.3 1.3.9 3.1l-.1.4q.6-.1 1.1.2 1.3.9 1 2.5l-.2 1.2c.7-.1 1.6-.3 2.1.3s.1 1.1-.3 1.5l-.2.3c.6.1 1.4.3 1.3 1q-.2 1.1-1 1.6h-.1a4 4 0 012 2.7 5 5 0 01-1.8 3.8l-1 1 .2.4v1.2q-.3.8-1 1.3l.6.6q.5.9-.4 1.6l-.3.1-1-.1q.1.8-.3 1.6c-.6.9-2.3 1.5-3.2.8l-.2-.2v.4a2.2 2.2 0 01-2.6 1.9l-1-.4-.5-.5h-.1q.3 1-.2 2c-.7.7-2-.1-2.6-.6l-.3-.3a3 3 0 01-.7 1.8c-.7.7-1-.2-1.2-.9v-.6l-.3.3q-1.4 1.2-2.9.5-.6-.3-.9-.8l-.3.3q-1.3 1-2.7.6a3 3 0 01-1.5-1.8l-.1-.6-.5.6c-1.2.8-2.2 0-2.5-1.2a3 3 0 01-1.6-2.4 2 2 0 01-1.7 0 1.5 1.5 0 01-.7-2l.2-.5q-1.8 0-2.6-1.8-.3-1-.2-2l.2-1q-1.6 0-2-1.5-.1-1 .3-1.7v.4l.5.5c.6.4 1.5 0 2.1-.3l-.3.5q-.4.8-.2 1.5.6.6 1.4.7l-.4.6c-.4.7-1 1.8-.1 2.5s1.7.2 2.5-.3l.6-.5q-.5 1-.5 2 .2 1 1.2 1.5c1.2.4 2.6-.6 3.6-1.2l.2-.1-.2.3c-.5.7-1.4 1.9-.8 2.8.8 1 1.8-.3 2.2-.9l.4-.6q-.3 1.5.2 2.8a1.7 1.7 0 002.9.4q1-1.2 1.1-2.6.3.8.8 1.2c.7.4 1.2-.2 1.4-.8v.1q.1.8.5 1.4c.8 1.1 2 .6 2.5-.5l.2-1.6v-.4l.2.4a2.2 2.2 0 003 1q1-.9.9-2.2l-.2-.4q1 .9 2 .3c.7-.6.4-1.4 0-2l-.1-.2a1.2 1.2 0 001.6-1.6q-.1-.6-.6-1a3 3 0 002.9-1.6q.9-1.6-.3-2.9l-.4-.2a2 2 0 001.2-.8c1-1.4 0-2.8-1.6-2.9h-1 .1q.8-.5 1.3-1.4.5-1-.2-2-.5-.3-1-.2.8-1.1 0-2.2-.3-.3-.7-.3h-.5l.5-.7c.5-.8 1-2.1.2-2.9a2 2 0 00-1.2-.5" data-name="Tracé 1660-5"/></g><g data-name="Groupe 425-6"><path fill="#7cfa72" d="M132.6 140.2l-.1-.5q-.4-1.6.6-2.8c.7-.8 2-.5 3-.3q-.2-.7.6-1 .7-.1 1.2.5 0-1 .6-1.6c.7-.8 1.8.1 2.4.6q0-1 .3-1.7t1-.8c1-.3 1 1 1 1.8l.4-.4c.8-.9 2.1-1.6 3.3-.8q.5.3.8 1v.2h.1l1-.8c.9-.7 3-1.8 3.8-.4q.3.8 0 1.5l1.1-.5a4 4 0 012.8-.3l.8.8.2.3q.8.2 1.3.6c.7.8.2 2.1-.2 2.9l-.5.6h.5l.6.4c.6.6.6 1.6 0 2.2q.6-.1 1 .2.8 1 .2 2a4 4 0 01-1.3 1.5h1c1.6 0 2.6 1.4 1.5 2.8a2 2 0 01-1.2.8l.4.2q1.3 1.4.3 2.9a3 3 0 01-2.9 1.6l.7 1q.3 1.2-.7 1.6-.6.2-1 0l.2.3c.3.5.6 1.3 0 1.9s-1.5.2-2-.3v.4a2 2 0 01-.7 2.2c-1 .6-2.4.2-3-.9l-.3-.5v.4l-.2 1.6c-.4 1.2-1.6 1.6-2.4.5q-.5-.6-.5-1.4c-.3.5-.8 1.1-1.5.7a2 2 0 01-.7-1.2q-.3 1.5-1.2 2.7a1.6 1.6 0 01-2.9-.5q-.5-1.3-.1-2.8l-.4.7c-.5.6-1.5 1.8-2.2.9s.3-2.1.8-2.9l.2-.3-.3.1c-1 .7-2.3 1.6-3.6 1.2q-1-.4-1.1-1.4-.2-1.2.4-2l-.6.4c-.7.5-1.7 1-2.5.3s-.3-1.8.2-2.5l.3-.5c-.4-.1-1.1-.3-1.3-.8q-.2-.7.1-1.4l.4-.5c-.6.2-1.5.6-2.2.3l-.4-.6-.1-.4q.6-1.2 1.8-2h.2q-.5-.5-.3-1.2l.3-.4-.5-.7q-.3-1 .2-1.6l.9-1-.6-.6q-.7-.8-.4-1.9.3-.6 1-.5zm10-2v-.3l-.1-.5a1 1 0 00-1.5-.5l-.2.1-.5.5q0-.8-.4-1.3-.9-.9-1 .4v1.2l.1 1.1-.6-.9q-.7-.7-1.5-1l-.5-.1a4 4 0 00.4 1.8l-.4-.3q-.8-.6-1.8 0-.6.5-.2 1.3.5 1.4 1.5 2.4l-.2.3c-.6.6 0 1.6.5 2.1l-.9-.4q-1.7-.4-1.8 1.4.2 1.6 1.4 2.2-.6.1-1 .6 0 .8.9 1.2l.4.2-.3.2c-1.2 1-1.7 3 .4 3.3h1.4q-.7.7-.1 1.3c.6.6 1.5 0 2.1-.4l1-.8-.5 1.3c-.2.8-.2 1.8.7 2 1.3.4 2.3-1 2.9-2l.6-1.3c.1.8.3 2.1 1.4 2 1 0 1.2-1.8 1.2-2.5v-.3q.4.9 1.2 1l.5-.2c.3 1 1.2 2.5 2.4 1.7a2 2 0 00.5-2.4q1.8.1 2.6-1.6.2-1.1-.5-2.1l-.1-.3q1 0 2-.6c1-.5 1.3-1.7 0-2.2l-.3-.1h.2q1.2-.5 1.7-1.6.5-1.7-1-2h-.1q.8-1 1.1-2c.5-1.3 0-2.4-1.5-2.1a6 6 0 00-2.3 1h-.1a1 1 0 00-1.2-.5l-.6.2.3-.4q.6-.8.1-1.8c-.5-.6-1.2-.2-1.7.3l-.3.4q0-1.2-1-2c-1-.2-2 .4-2.2 1.3v1.3c-1-.7-2.3-.5-3 .4m16.4 7.2" data-name="Tracé 1656-6"/><path fill="#ecfce6" d="M142.6 138.2q1.4-1.3 3-.4v-1.2c.3-1 1.3-1.5 2.2-1.3.8.3 1 1.3 1 2l.4-.4c.5-.5 1.2-1 1.7-.3.4.5.1 1.3-.1 1.8l-.3.3.6-.2a1 1 0 011.2.6h.1a6 6 0 012.3-1c1.5-.3 2 .7 1.5 2q-.3 1.2-1.1 2 1.6.4 1 2-.3 1.3-1.6 1.6h-.2l.4.2c1.2.4.9 1.6 0 2.2a6 6 0 01-2.1.6l.1.2q.7 1 .5 2.2a2.5 2.5 0 01-2.6 1.6 2 2 0 01-.5 2.4c-1.2.8-2.1-.8-2.4-1.7l-.5.1q-.8-.1-1.1-1v.3c-.1.8-.3 2.5-1.3 2.6-1.1 0-1.3-1.3-1.4-2l-.6 1.3c-.6.9-1.6 2.3-2.9 2-.9-.3-.9-1.3-.7-2l.5-1.3-1 .7c-.6.4-1.5 1-2.1.4-.5-.4-.2-.9.1-1.3h-1.4c-2.2-.3-1.7-2.2-.4-3.2l.3-.2-.5-.2c-.4-.2-1-.7-.7-1.3q.3-.4.9-.5a3 3 0 01-1.4-2.2q0-1.8 1.8-1.4.4 0 1 .4c-.5-.6-1.2-1.6-.6-2.2l.2-.2a7 7 0 01-1.5-2.5 1 1 0 01.2-1.3q1-.5 1.8 0l.4.3-.2-.3-.3-1.4h.6q.9.3 1.5 1l.6 1-.1-1.1v-1.2q.1-1.2 1-.5.3.6.4 1.4l.5-.5a1 1 0 011.7.3l.1.5z" data-name="Tracé 1659-6"/><path fill="#338927" d="M157.6 135a3 3 0 013 .3q1.3 1.3.9 3.1l-.1.4q.6 0 1.1.2 1.3.9 1 2.5l-.2 1.2c.7-.1 1.6-.3 2.1.3s.1 1.1-.3 1.5l-.2.3c.6.1 1.4.3 1.3 1q-.2 1.1-1 1.6h-.1a4 4 0 012 2.7 5 5 0 01-1.8 3.8l-1 1 .2.4v1.2q-.3.8-1 1.3l.6.6q.5.9-.4 1.6l-.3.1-1-.1q.2.8-.3 1.6c-.6.9-2.3 1.5-3.2.8l-.2-.2v.4a2.2 2.2 0 01-2.6 1.9l-1-.4-.5-.5h-.1q.3 1-.2 2c-.7.7-2-.1-2.6-.6l-.3-.3a3 3 0 01-.7 1.8c-.7.7-1-.2-1.2-.9v-.6l-.3.3q-1.4 1.2-2.9.5-.6-.3-.9-.8l-.3.3q-1.3 1-2.7.6a3 3 0 01-1.5-1.8l-.1-.6-.6.6c-1 .8-2.1 0-2.4-1.2a3 3 0 01-1.6-2.4 2 2 0 01-1.7 0 1.5 1.5 0 01-.7-2l.2-.5q-1.8-.1-2.6-1.7-.3-1-.2-2l.2-1q-1.6 0-2-1.6-.2-1 .3-1.7v.4l.5.5c.6.4 1.5 0 2.1-.3l-.3.6q-.4.7-.2 1.4.6.7 1.4.7l-.4.6c-.4.7-1 1.8-.1 2.5s1.7.2 2.5-.3l.6-.5q-.6 1-.5 2 .2 1 1.2 1.5c1.2.4 2.6-.5 3.6-1.2l.2-.1-.2.3c-.5.7-1.4 1.9-.8 2.8.8 1 1.8-.3 2.2-.9l.4-.6q-.3 1.6.2 2.8a1.7 1.7 0 002.9.4q1-1.1 1.1-2.6.3.8.8 1.2c.7.4 1.1-.2 1.4-.7q.1.8.5 1.4c.8 1.1 2 .6 2.5-.5l.2-1.6v-.4l.2.5a2.2 2.2 0 003 1v-.1q1-.8.8-2.2v-.4c.5.5 1.3.9 2 .3s.3-1.3 0-2l-.2-.2a1.2 1.2 0 001.6-1.5q-.2-.6-.6-1.1a3 3 0 002.9-1.6q.9-1.6-.3-2.9l-.4-.2a2 2 0 001.2-.8c1-1.4 0-2.8-1.6-2.9l-1 .1h.1q.8-.7 1.2-1.5.7-1-.2-2-.3-.3-1-.2.9-1.1 0-2.2l-.6-.3h-.5l.5-.7c.5-.8 1-2.1.2-2.8a2 2 0 00-1.2-.6" data-name="Tracé 1660-6"/></g><g data-name="Groupe 425-7"><path fill="#7cfa72" d="M112.4 431.2l-.2-.6q-.5-2 .8-3.7c1-1 2.6-.6 3.8-.3q-.1-1 .8-1.3.9-.1 1.5.7.1-1.2.8-2.2c.9-1 2.3.3 3 .8q0-1.1.5-2.2.5-.7 1.2-1c1.4-.3 1.5 1.4 1.5 2.3l.4-.4c1-1.2 2.7-2 4.2-1.1q.7.5 1 1.3l.1.3h.1l1.2-1c1.2-1 4-2.4 5-.6q.3 1 0 2l1.3-.7q1.7-.9 3.6-.4.8.4 1.1 1l.2.5q1 0 1.7.8c.8 1 .3 2.6-.3 3.6l-.6.9h.6q.5 0 .8.5c.7.7.7 2 0 2.7q.8-.2 1.3.3 1 1.1.2 2.6a5 5 0 01-1.6 1.8h1.2c2 .1 3.4 1.8 2 3.6q-.5 1-1.5 1v.1l.5.3c1.1.8 1 2.5.4 3.6a4 4 0 01-3.8 2l.9 1.5q.4 1.4-.9 2-.6.2-1.3 0l.3.3c.4.7.8 1.8 0 2.4-.8.8-1.8.3-2.6-.3l.2.6q.3 1.6-1 2.7c-1.5 1-3.1 0-4-1.2l-.3-.6v.5l-.2 2c-.5 1.6-2.1 2.2-3.1.7a4 4 0 01-.7-1.7v-.1c-.4.7-1 1.4-1.8.9q-.8-.6-1-1.5a7 7 0 01-1.5 3.4 2.1 2.1 0 01-3.7-.5 6 6 0 01-.2-3.7l-.5.9c-.5.7-1.9 2.4-2.8 1.1s.3-2.7 1-3.7l.2-.3-.2.1c-1.3.8-3 2-4.7 1.5q-1.2-.5-1.5-1.8 0-1.4.6-2.6l-.8.6c-1 .6-2.1 1.3-3.2.4-1-.9-.4-2.3.2-3.2l.5-.7c-.6-.1-1.5-.3-1.8-1a2 2 0 01.3-1.8l.4-.7c-.8.3-2 .9-2.8.4l-.5-.7-.1-.5a6 6 0 012.3-2.5l.3-.2q-.6-.5-.5-1.4 0-.3.4-.6l-.6-.9a2 2 0 01.3-2q.4-.8 1-1.3l-.6-.7q-1-1.1-.6-2.5a1 1 0 011.3-.7l.3.2.2.1zm12.8-2.5v-.5l-.2-.6a1.4 1.4 0 00-2.2-.5l-.5.7-.6-1.8c-.7-.8-1.3-.2-1.3.6l.2 3-.8-1.2a4 4 0 00-2-1.3l-.6-.1a5 5 0 00.5 2.2l-.5-.3a2 2 0 00-2.3 0q-.7.6-.3 1.7a9 9 0 002 3.1l-.4.3c-.7.8.2 2 .8 2.7l-1.2-.4q-2.3-.7-2.3 1.8.2 1.8 1.8 2.8-.7.1-1.2.7c-.3.7.4 1.3 1 1.6l.6.2-.4.3c-1.6 1.3-2.2 3.8.5 4.2h1.8c-.4.5-.8 1.1-.2 1.6.9.7 2 0 2.8-.5l1.2-1-.6 1.7c-.2 1-.2 2.3 1 2.6 1.5.4 2.9-1.4 3.6-2.6q.5-.7.7-1.7c.2 1 .5 2.8 1.8 2.7 1.3-.2 1.6-2.4 1.6-3.4v-.3q.5 1 1.6 1.2l.6-.2c.4 1.3 1.5 3.3 3 2.2 1-.7 1.2-2 .7-3q2.4 0 3.3-2.1.3-1.6-.6-2.7l-.2-.4q1.5-.1 2.7-.8c1.2-.7 1.6-2.2 0-2.8l-.5-.1c-.2-.1.2-.1.3-.1q1.6-.5 2.2-2c.3-1.2 0-2.4-1.4-2.6a8 8 0 001.4-2.5c.6-1.7 0-3-2-2.8q-1.5.4-2.9 1.3 0 .1-.1 0-.6-.8-1.6-.6l-.7.3.3-.5q.8-1.1.2-2.3c-.7-.8-1.6-.3-2.2.4l-.4.5q0-1.7-1.4-2.5c-1.2-.3-2.4.4-2.7 1.6q-.1.7 0 1.6a3 3 0 00-4 .5m21.2 9.3" data-name="Tracé 1656-7"/><path fill="#ccea74" d="M112.4 431.2v.1h-.1z" data-name="Tracé 1657-7"/><path fill="#ecfce6" d="M125.2 428.7a3 3 0 013.9-.5q-.2-.7 0-1.6c.3-1.2 1.5-2 2.7-1.7 1 .4 1.3 1.6 1.4 2.6l.4-.6c.6-.6 1.5-1.2 2.2-.3q.6 1.1-.2 2.3l-.3.4.7-.2q1-.3 1.6.6h.1q1.4-.9 2.9-1.3c2-.3 2.6 1 2 2.8q-.5 1.4-1.5 2.4 2 .6 1.4 2.7-.5 1.5-2.2 2h-.2l.5.2c1.6.5 1.2 2 0 2.8a7 7 0 01-2.7.8l.2.3q.9 1.3.6 2.7a3 3 0 01-3.3 2.1c.5 1 .2 2.3-.7 3-1.5 1.1-2.7-.9-3-2.1l-.6.2q-1.1-.2-1.5-1.3v.4c-.1 1-.4 3.2-1.7 3.3-1.4.1-1.6-1.6-1.7-2.6l-.8 1.7c-.7 1.2-2 3-3.7 2.5-1.1-.3-1.1-1.6-.9-2.6l.6-1.6-1.2 1c-.8.4-2 1.1-2.8.5-.6-.5-.2-1.2.2-1.7h-1.8c-2.8-.4-2.1-2.9-.5-4.2l.3-.2-.5-.3c-.6-.2-1.3-.9-1-1.6q.4-.6 1.1-.6v-.1a4 4 0 01-1.7-2.8q0-2.4 2.3-1.8l1.1.5c-.5-.7-1.4-2-.7-2.8l.3-.2a9 9 0 01-2-3.2 2 2 0 01.4-1.7 2 2 0 012.3 0l.5.4-.2-.5q-.3-.8-.4-1.7.4-.2.7 0 1.2.4 2 1.3l.8 1.2-.2-1.4v-1.6c0-.8.6-1.4 1.3-.6q.5.9.5 1.8l.6-.7a1.4 1.4 0 012.2.5l.1.6z" data-name="Tracé 1659-7"/><path fill="#338927" d="M144.4 424.6q2-.8 3.7.3a4 4 0 011.2 4v.5q.7-.1 1.4.2 1.5 1.2 1.4 3.2 0 .9-.4 1.7c.9-.2 2-.5 2.7.3.6.6.2 1.4-.3 2l-.4.2v.1c.8.1 1.8.3 1.7 1.4 0 .8-.8 1.4-1.3 1.9h-.1c1.2.8 2.5 2 2.6 3.5.2 2-1 3.6-2.3 4.9L153 450l.2.5q.3.8 0 1.5-.3 1-1.1 1.8l.6.7a1.5 1.5 0 01-.9 2.2q-.7 0-1.3-.2.2 1.2-.4 2.2c-.7 1-3 1.8-4 1l-.3-.3v.5a3 3 0 01-4.6 2l-.7-.7q.3 1.3-.4 2.5c-.8 1-2.5-.1-3.3-.8l-.4-.3q0 1.2-.8 2.3c-1 .9-1.4-.3-1.5-1.1l-.1-.8-.4.4q-1.6 1.5-3.7.6-.6-.4-1.1-1l-.4.3a4 4 0 01-3.5.9 3 3 0 01-2-2.4v-.7l-.7.7c-1.5 1-2.8 0-3.2-1.5a4 4 0 01-2-3q-1.2.3-2.2-.1a2 2 0 01-.9-2.6l.3-.6c-1.5 0-2.9-.8-3.4-2.2q-.4-1.3-.2-2.7l.2-1.2a2.4 2.4 0 01-2.5-2 3 3 0 01.3-2.2v.5l.6.7c.9.5 2 0 2.8-.3l-.4.6q-.6 1-.2 1.9.5.8 1.7.9-.1.4-.5.7c-.6 1-1.2 2.4-.2 3.2 1 1 2.3.3 3.2-.4l.8-.6q-.7 1.2-.6 2.6.3 1.4 1.5 1.9c1.6.5 3.3-.7 4.7-1.5l.2-.2-.2.4c-.7 1-1.9 2.5-1 3.7s2.2-.4 2.8-1.2l.5-.8a6 6 0 00.2 3.6 2 2 0 002.7 1.2l1-.7q1.2-1.5 1.4-3.4h.1q.2 1 1 1.6c.8.5 1.4-.2 1.8-1v.1q0 .9.6 1.8c1 1.4 2.7.8 3.2-.7q.3-1 .2-2v-.5l.4.6c.8 1.2 2.4 2.1 3.8 1.2q1.4-1.1 1-2.8v-.6c.7.7 1.7 1.1 2.5.4s.4-1.7 0-2.4l-.3-.4q1.3.5 2.1-.7.3-.6 0-1.3l-.8-1.4a4 4 0 003.8-2c.6-1.1.7-2.8-.4-3.7l-.5-.2q1-.3 1.5-1.1c1.4-1.8 0-3.5-2-3.7l-1.2.1a5 5 0 001.6-1.9q.7-1.4-.2-2.6a2 2 0 00-1.3-.3c.7-.7.7-2 0-2.7l-.8-.5h-.6l.6-.9c.6-1 1.2-2.6.3-3.6q-.7-.7-1.6-.7" data-name="Tracé 1660-7"/></g></g></g></svg>