<svg xmlns="http://www.w3.org/2000/svg" viewBox="-733 0 3004 471.7"><path fill="#C8FDFE" d="M1389 469.7H354.2c-75 0-141.2-48.7-163.6-120.2L122.2 131a41 41 0 00-39.5-29H-731V2H82.7c61.8 0 116.5 40.2 135 99.2l68.2 218.4a71 71 0 0068.2 50.1h1035a6 6 0 005.7-5.7V170.3c0-85.7 69.8-155.5 155.5-155.5H2269v100h-718.7a55.6 55.6 0 00-55.5 55.5V364c0 58.4-47.3 105.7-105.7 105.7"/><path fill="none" stroke="#75FAFC" stroke-width="4" d="M1389 469.7H354.2c-75 0-141.2-48.7-163.6-120.2L122.2 131a41 41 0 00-39.5-29H-731V2H82.7c61.8 0 116.5 40.2 135 99.2l68.2 218.4a71 71 0 0068.2 50.1h1035a6 6 0 005.7-5.7V170.3c0-85.7 69.8-155.5 155.5-155.5H2269v100h-718.7a55.6 55.6 0 00-55.5 55.5V364c0 58.4-47.3 105.7-105.7 105.7z"/></svg>