<?xml version="1.0" encoding="UTF-8"?>
<svg id="b" data-name="Calque 2" xmlns="http://www.w3.org/2000/svg" width="84" height="84" xmlns:xlink="http://www.w3.org/1999/xlink" viewBox="0 0 84 84">
  <defs>
    <clipPath id="e">
      <rect width="84" height="84" style="fill: none;"/>
    </clipPath>
    <clipPath id="f">
      <rect width="84" height="84" style="fill: none;"/>
    </clipPath>
  </defs>
  <g id="c" data-name="Calque 1">
    <g id="d" data-name="ico-sand-games">
      <g style="clip-path: url(#e);">
        <g style="clip-path: url(#f);">
          <path d="M50.92,65.45c.61-1.17.77-2.5.92-3.78v-.04c.35-2.9.55-5.87.75-8.75.19-2.86.4-5.81.74-8.69.98-.98,2.11-2.34,2.3-4.29.16-1.64-.09-6.41-1.07-7.79-1.08-1.52-3.26-2.46-6.5-2.8-.26-3.31-.65-6.79-1.64-9.99-1.29-4.17-3.36-6.8-6.14-7.83-2.39-.89-4.79-.78-7.11.32-1.97.93-3.84,2.57-5.39,4.73-2.61,3.63-3.69,8.03-4.64,12.61-1.5.12-2.74.26-3.89.43-.23.03-.51.07-.82.11-2.39.31-6.39.82-7.79,2.71-.42.58-.57,1.24-.45,1.97.03.19.12.36.2.53.06.13.14.29.14.36,0,.21-.11.59-.22.96-.12.43-.24.87-.27,1.23-.25,2.99.81,5.96,3.09,8.61.03.77.05,1.57.07,2.37.13,4.55.27,9.72,1.71,14,1.66,4.95,4.8,8,9.59,9.31,3.16.87,7.57,1.36,11.99,1.36.41,0,.82,0,1.23-.01,5.45-.11,10.04-.99,12.94-2.45,1.65-.83,2.65-2.25,2.45-3.45-.09-.52-.49-1.41-2.18-1.75M43.34,28.75c-.09-.76-.16-1.53-.23-2.28-.41-4.26-.82-8.65-3.8-12.06l-2.03-1.56c3.19.17,5.46,2.05,6.92,5.72,1.32,3.31,1.71,7.52,1.96,10.43l-2.82-.24ZM28.7,28.74c.85-4.54,1.83-9.65,4.56-13.32.08-.11.15-.21.23-.31.62-.86.9-1.25,1.95-.89,4.61,1.61,5.23,8.05,5.68,12.75.06.62.12,1.21.18,1.76h-12.59ZM51.28,45.02c-.17,2.56-.38,5.29-.65,8.32-.04.5-.09,1.13-.14,1.86-.22,3.07-.55,7.71-1.35,9.34-1.78,3.59-10.93,4.29-13.69,4.41-3.45.16-7.11.2-10.4-.54-4.03-.91-6.51-2.86-7.34-5.8-.66-3.39-1.05-6.91-1.41-10.31-.24-2.22-.49-4.5-.81-6.75,11.83,2.66,24.19,2.48,35.81-.54M12.55,33.27c.88-.73,4.36-1.25,5.84-1.48l.39-.06c1.3-.2,2.66-.37,4.15-.53l-.34,2.94c-.43.13-1.96.34-2.73.45-.41.06-.74.1-.88.13-.39.07-.99.23-1.63.4-.99.26-2.23.58-2.68.57-.69-.01-2.13-.81-2.41-1.61-.11-.31-.02-.57.28-.82M22.57,36.94s0,.02,0,.02l-2.18-.13-.37-.08,2.53-.39c.03.14.02.44.01.58M12.72,37.02c2.56,1.28,5.45,1.6,8.25,1.9.52.06,1.06.11,1.58.18.16.51.16,1.08.17,1.63,0,1.09,0,2.22,1.23,2.98,1.37.85,3.48.85,4.49-.6l.05-.08-.24-3.49h8.69s.03,0,.03,0c1.21-.12,2.44-.2,3.75-.29,4.02-.26,8.18-.53,11.73-2.01.28-.12.57-.3.85-.48.16-.1.32-.2.45-.27.75,4.06-.52,5.97-4.67,7.04-7.95,2.05-18.62,2.42-28.54.98-.27-.04-.55-.08-.85-.11-2.01-.26-4.75-.61-5.86-2.19-.42-.6-1.11-2.79-1.11-3.55v-1.64ZM29.73,17.43c-.31.7-.63,1.42-.9,2.15-2.17,5.88-3.03,12.66-2.69,21.23-.02-.1-.06-.19-.13-.28-.2-.27-.59-.4-.87-.3-.25.09-.39.32-.38.63,0,.31.2.55.51.64.08.02.16.04.24.04.21,0,.4-.08.51-.23.07-.1.11-.22.12-.33.01.34.03.68.05,1.03-.49.07-.95,0-1.23-.2-.2-.14-.32-.34-.35-.62-.6-4.63.1-11.47,1.69-16.64.93-3.01,2.07-5.37,3.45-7.16,0,.01-.01.03-.02.04M28.22,35.88c1.35-.07,2.72-.08,4.05-.09.83,0,1.69,0,2.53-.03.19,0,.36-.04.52-.08.15-.03.28-.06.41-.07h.32c4.05-.09,8.23-.17,12.26.48h-.01c-6.17.97-12.95,1.31-20.16,1.02l.1-1.24ZM53.24,33.91c-.1.4-.56.79-1.2,1.03-3.48-1.09-7.08-1.33-10.66-1.33-1.37,0-2.74.03-4.09.07-1.76.04-3.57.09-5.34.06h-.01l-3.51.25.47-3.07c.2-.01.38-.05.56-.08.17-.03.33-.06.48-.07,2.79-.18,5.76-.06,8.63.06.77.03,1.53.06,2.28.09.34.01.75.02,1.2.03,3.19.07,9.14.19,10.83,1.97.33.35.46.68.38,1"/>
          <path d="M72.63,26.68c-1.55-.83-8.2-1.27-9.36-1.31-2.92-.11-5.07.07-6.05,3.47-.57,1.96-.5,3.53.21,4.67.6.96,1.64,1.58,3.1,1.84.26.05.62.06.96.07.39.01.79.03.99.09,0,.05-.03.16-.04.22-.03.11-.06.24-.06.37-.05,2.5-.11,4.75-.26,7.01-.23,3.4-.64,6.85-1.05,10.2-.4-.02-.83-.05-1.27-.08-1.33-.09-2.83-.2-4-.05-.88.12-1.35,1.54-1.66,2.48-.04.12-.08.23-.11.33-1.81,5.18-1.58,9.29.68,12.56,1.86,2.7,5.13,4.22,8.45,4.22,1.5,0,3.02-.31,4.42-.96.67-.31,1.8-.95,1.85-1.79.02-.37-.17-.72-.56-1.02,1.46-1.73,2.15-3.79,2.46-5.25.35-1.61.56-3.66.64-6.43v-.09c.02-.54.02-1.1-.17-1.4-.46-.72-4.37-1.75-5.89-2.12l1.58-17.77c.2.02.42.05.64.07,1.7.21,4.03.49,4.98-.99.71-1.1.87-4.67.87-4.7v-.08c.06-1.35.12-2.76-1.35-3.55M64.39,35.52l.94.08c-.11,5.38-.62,11.15-1.57,17.63l-.7-.05c.07-1.05.22-2.11.36-3.15.11-.8.22-1.63.3-2.44.37-3.85.59-7.91.67-12.07M61.42,27.3c2.04-.15,6.75.32,9.02.8q1.44.3,1.38,1.92c-.03.7-.33,3.44-.51,3.75-.12.18-.56.22-.79.24-.92.07-2.47-.08-3.72-.19-.35-.03-.68-.06-.96-.09h-.05c-4.72-.38-6.14-.74-6.5-.97-.28-.18-.44-.72-.44-1.47,0-1.46.58-3.27,1.18-3.67.24-.16.71-.27,1.4-.32ZM69.8,59.03c-.12,3.73-.91,6.44-2.46,8.53-1.43,1.92-3.49,2.96-5.67,2.86-2.23-.1-4.24-1.37-5.52-3.47-2.32-3.82-1.06-8.06.35-11.76h.34c4.4-.06,8.94-.11,12.93,1.79.03.2.07.78.02,2.03"/>
          <path d="M61.65,31.58c1.03.9,3.62,1.41,5.73,1.41.94,0,1.78-.1,2.35-.31.23-.09.7-.35.9-.57.59-.65.61-1.25.51-1.64-.2-.85-1.08-1.46-1.83-1.74-1.47-.56-5.64-.82-7.03-.31-.66.24-1.13.78-1.25,1.45-.12.64.11,1.26.62,1.71M63.32,30.24s.06,0,.1-.01c1.08-.13,4.29.09,5.31.47-1.87.21-3.72.06-5.41-.46"/>
        </g>
      </g>
    </g>
  </g>
</svg>