<svg xmlns="http://www.w3.org/2000/svg" width="49.93" height="51.105" viewBox="0 0 49.93 51.105">
  <g id="Reddit" transform="translate(24.965 25.518)">
    <g id="Groupe_167" data-name="Groupe 167" transform="translate(-24.296 -24.918)">
      <circle id="Ellipse_13" data-name="Ellipse 13" cx="17.18" cy="17.18" r="17.18" transform="translate(1.624 32.542) rotate(-71.265)" fill="none" stroke="#000" stroke-linecap="round" stroke-width="0.946"/>
      <circle id="Ellipse_14" data-name="Ellipse 14" cx="17.18" cy="17.18" r="17.18" transform="translate(0 25.541) rotate(-45)" fill="none" stroke="#000" stroke-linecap="round" stroke-width="0.946"/>
      <circle id="Ellipse_15" data-name="Ellipse 15" cx="14.038" cy="14.038" r="14.038" transform="matrix(0.808, -0.59, 0.59, 0.808, 4.691, 19.473)"/>
      <circle id="Ellipse_16" data-name="Ellipse 16" cx="17.18" cy="17.18" r="17.18" transform="translate(3.741 32.539) rotate(-71.265)" fill="none" stroke="#000" stroke-linecap="round" stroke-width="0.946"/>
      <path id="Tracé_279" data-name="Tracé 279" d="M37.353,25.191a2.434,2.434,0,0,0-4.1-1.772,10.539,10.539,0,0,0-5.623-2.083L28.873,17.6l3.14,1.572c-.005.058-.015.112-.015.175a1.462,1.462,0,1,0,.448-1.051l-3.169-1.582a.94.94,0,0,0-1.314.535L26.614,21.3a10.757,10.757,0,0,0-6.576,2.123,2.435,2.435,0,1,0-2.566,4.036,5.046,5.046,0,0,0-.078.9c0,3.9,4.143,7.059,9.249,7.059s9.249-3.159,9.249-7.059a5.046,5.046,0,0,0-.078-.9A2.434,2.434,0,0,0,37.353,25.191ZM21.775,27.139a1.46,1.46,0,1,1,1.461,1.46A1.459,1.459,0,0,1,21.775,27.139ZM30.455,31.3a4.526,4.526,0,0,1-3.812,1.68,4.528,4.528,0,0,1-3.812-1.68.48.48,0,0,1,.131-.672.491.491,0,0,1,.677.131,3.586,3.586,0,0,0,3,1.246,3.6,3.6,0,0,0,3-1.246.49.49,0,0,1,.677-.127A.484.484,0,0,1,30.455,31.3Zm-.4-2.7a1.46,1.46,0,1,1,1.46-1.46A1.458,1.458,0,0,1,30.051,28.6Z" transform="translate(-2.645 -4.627)" fill="#fff"/>
    </g>
  </g>
</svg>
