<svg xmlns="http://www.w3.org/2000/svg" width="47.883" height="47.883" viewBox="0 0 47.883 47.883">
  <g id="youtube" transform="translate(23.941 23.941)">
    <g id="Groupe_170" data-name="Groupe 170" transform="translate(-23.3 -23.3)">
      <circle id="Ellipse_25" data-name="Ellipse 25" cx="17.18" cy="17.18" r="17.18" transform="translate(0 16.415) rotate(-28.538)" fill="none" stroke="#000" stroke-linecap="round" stroke-width="0.946"/>
      <circle id="Ellipse_26" data-name="Ellipse 26" cx="17.18" cy="17.18" r="17.18" transform="translate(8.667 5.917) rotate(-3.673)" fill="none" stroke="#000" stroke-linecap="round" stroke-width="0.946"/>
      <circle id="Ellipse_27" data-name="Ellipse 27" cx="14.038" cy="14.038" r="14.038" transform="matrix(0.202, -0.979, 0.979, 0.202, 7.343, 33.232)"/>
      <circle id="Ellipse_28" data-name="Ellipse 28" cx="17.18" cy="17.18" r="17.18" transform="translate(4.791 5.156) rotate(-3.673)" fill="none" stroke="#000" stroke-linecap="round" stroke-width="0.946"/>
      <path id="Tracé_282" data-name="Tracé 282" d="M37.84,28.491a2.218,2.218,0,0,0-1.561-1.572,52.428,52.428,0,0,0-6.9-.372,52.428,52.428,0,0,0-6.9.372,2.22,2.22,0,0,0-1.562,1.572,24.978,24.978,0,0,0,0,8.558,2.221,2.221,0,0,0,1.562,1.572,52.494,52.494,0,0,0,6.9.371,52.494,52.494,0,0,0,6.9-.371A2.22,2.22,0,0,0,37.84,37.05a24.978,24.978,0,0,0,0-8.558ZM27.57,35.4V30.144l4.617,2.627Z" transform="translate(-5.449 -10.45)" fill="#fff"/>
    </g>
  </g>
</svg>
