<svg xmlns="http://www.w3.org/2000/svg" width="51.857" height="49.293" viewBox="0 0 51.857 49.293">
  <g id="instagram" transform="translate(25.911 24.646)">
    <g id="Groupe_166" data-name="Groupe 166" transform="translate(-25.286 -23.986)">
      <circle id="Ellipse_9" data-name="Ellipse 9" cx="17.18" cy="17.18" r="17.18" transform="translate(6.647 7.579) rotate(-8.907)" fill="none" stroke="#000" stroke-linecap="round" stroke-width="0.946"/>
      <circle id="Ellipse_10" data-name="Ellipse 10" cx="17.18" cy="17.18" r="17.18" transform="translate(0 14.633) rotate(-24.086)" fill="none" stroke="#000" stroke-linecap="round" stroke-width="0.946"/>
      <circle id="Ellipse_11" data-name="Ellipse 11" cx="14.038" cy="14.038" r="14.038" transform="matrix(0.937, -0.35, 0.35, 0.937, 7.613, 14.638)"/>
      <circle id="Ellipse_12" data-name="Ellipse 12" cx="17.18" cy="17.18" r="17.18" transform="translate(2.6 27.854) rotate(-54.161)" fill="none" stroke="#000" stroke-linecap="round" stroke-width="0.946"/>
      <path id="Tracé_276" data-name="Tracé 276" d="M34.2,23.065c2.259,0,2.527.009,3.419.049a4.676,4.676,0,0,1,1.571.292,2.8,2.8,0,0,1,1.606,1.605,4.689,4.689,0,0,1,.291,1.571c.041.892.049,1.16.049,3.419s-.009,2.527-.049,3.419a4.683,4.683,0,0,1-.291,1.571A2.8,2.8,0,0,1,39.188,36.6a4.692,4.692,0,0,1-1.571.291c-.892.041-1.159.049-3.419.049s-2.527-.009-3.419-.049a4.685,4.685,0,0,1-1.571-.291A2.8,2.8,0,0,1,27.6,34.992a4.679,4.679,0,0,1-.292-1.571c-.041-.892-.049-1.16-.049-3.419s.009-2.527.049-3.419a4.686,4.686,0,0,1,.292-1.571,2.8,2.8,0,0,1,1.606-1.605,4.67,4.67,0,0,1,1.571-.292c.892-.041,1.16-.049,3.419-.049m0-1.524c-2.3,0-2.586.01-3.489.051a6.215,6.215,0,0,0-2.054.393,4.323,4.323,0,0,0-2.474,2.475,6.19,6.19,0,0,0-.393,2.054c-.041.9-.051,1.191-.051,3.489s.01,2.586.051,3.489a6.19,6.19,0,0,0,.393,2.054,4.323,4.323,0,0,0,2.474,2.475,6.215,6.215,0,0,0,2.054.393c.9.041,1.191.051,3.489.051s2.586-.009,3.489-.051a6.212,6.212,0,0,0,2.054-.393,4.326,4.326,0,0,0,2.475-2.475,6.214,6.214,0,0,0,.393-2.054c.041-.9.051-1.191.051-3.489s-.009-2.586-.051-3.489a6.214,6.214,0,0,0-.393-2.054,4.326,4.326,0,0,0-2.475-2.475,6.212,6.212,0,0,0-2.054-.393c-.9-.041-1.191-.051-3.489-.051" transform="translate(-8.526 -7.118)" fill="#fff"/>
      <path id="Tracé_277" data-name="Tracé 277" d="M38.787,30.246a4.345,4.345,0,1,0,4.345,4.345,4.345,4.345,0,0,0-4.345-4.345m0,7.165a2.82,2.82,0,1,1,2.82-2.82,2.82,2.82,0,0,1-2.82,2.82" transform="translate(-13.115 -11.707)" fill="#fff"/>
      <path id="Tracé_278" data-name="Tracé 278" d="M53.067,28.751a1.015,1.015,0,1,1-1.016-1.015,1.015,1.015,0,0,1,1.016,1.015" transform="translate(-21.863 -10.384)" fill="#fff"/>
    </g>
  </g>
</svg>
