<svg width="36" height="36" viewBox="0 0 36 36" xmlns="http://www.w3.org/2000/svg">
<path d="M33.1525 18.9649L32.9982 18.7463C31.9868 17.2849 30.8639 15.8663 29.7796 14.4992C28.8411 13.3163 27.8725 12.0906 26.9768 10.8435C27.0796 10.582 27.2168 10.3249 27.3625 10.0592C27.4996 9.80631 27.6411 9.54917 27.7525 9.27917C28.1682 8.27202 28.6311 6.77202 27.8511 5.39631C27.1739 4.20488 25.5796 3.69917 24.4268 3.82345C22.8754 3.99488 21.5511 5.31488 21.4054 6.82774C21.3111 7.80488 21.7096 8.81202 22.0996 9.54059L17.8696 11.7649L9.31965 11.5206L9.26822 11.5506C8.54393 11.9577 7.81965 12.3949 7.12107 12.8192C6.00679 13.492 4.85822 14.1863 3.67536 14.7777C3.57679 14.8249 3.42679 14.8892 3.25107 14.9577C2.52679 15.2535 2.00822 15.4806 1.87536 15.772C1.63107 16.312 1.79393 16.8863 2.02536 17.4649C2.56536 18.3092 3.10536 19.1535 3.64965 20.002C5.46679 22.8477 7.34393 25.7877 9.29393 28.6035C9.4225 28.792 9.55536 28.9849 9.6925 29.1863C10.2539 30.0049 10.8325 30.8535 11.4196 31.552L11.5139 31.6677C11.7025 31.9035 11.9339 32.1949 12.3582 32.1949C12.3796 32.1949 12.3968 32.1949 12.4182 32.1949C12.7096 32.1777 13.4296 31.7406 14.4968 31.0463L14.6811 30.9263C16.0954 30.0177 17.4625 28.9935 18.7825 28.0035L19.0182 27.8235C22.2239 27.5577 25.3268 26.9749 27.6754 26.4949L27.7525 26.4606C28.8282 25.7234 29.8482 24.8834 30.8339 24.0735C31.3439 23.6535 31.8539 23.2334 32.3682 22.8263C32.4582 22.7577 32.6039 22.6549 32.7796 22.5306C33.6711 21.9049 34.1125 21.562 34.1982 21.2877C34.2325 21.172 34.2496 21.0563 34.2454 20.9149C34.2325 20.5292 33.6968 19.7449 33.1482 18.9735L33.1525 18.9649ZM19.3911 25.5863L16.8411 21.9649C17.3382 22.0763 18.1868 21.6735 17.9296 21.1506C17.8782 21.0434 17.6682 20.9449 17.5482 20.962C17.4025 20.9834 17.2568 21.142 17.1154 21.1977C16.9354 21.2663 16.5711 21.1977 16.5196 21.5063L10.3354 12.7206C10.3611 12.7206 10.3868 12.7206 10.4211 12.7249C11.5525 12.7892 12.7054 12.8192 13.8154 12.8449C14.7282 12.8663 15.6668 12.8877 16.5925 12.9306C16.7682 12.9392 16.9482 12.9306 17.1239 12.9306C17.3125 12.9263 17.4925 12.922 17.6682 12.9306L26.2182 25.162C25.4296 25.2735 24.6368 25.4235 23.8696 25.5649C22.9354 25.7406 21.9711 25.9206 21.0154 26.0363C20.5954 26.0877 20.1711 26.1177 19.7511 26.152C19.6011 26.1649 19.4468 26.1735 19.2968 26.1863C19.4382 26.0192 19.4725 25.792 19.3911 25.5863ZM18.5639 26.3063C16.7382 27.7035 14.7754 28.972 12.8811 30.202L12.5854 30.3949L3.27679 16.2649C4.78536 15.6049 6.20822 14.752 7.58393 13.9206C8.09822 13.612 8.61679 13.2992 9.13536 12.9992L18.5382 26.2677L18.5639 26.3063ZM26.8054 7.73202C26.5225 8.85488 25.7296 10.0677 25.0311 11.1392C24.9196 11.3063 24.8125 11.4735 24.7096 11.6363C24.5554 11.3792 24.3882 11.1177 24.2211 10.852C23.6639 9.96917 23.0896 9.05631 22.7639 8.14345C22.4939 7.38488 22.5582 6.57488 22.9396 5.97059C23.2696 5.44345 23.8182 5.11345 24.4825 5.04488C25.2025 4.97202 25.8839 5.23345 26.3511 5.77345C26.8182 6.31345 26.9854 7.02916 26.8054 7.73202ZM22.7254 10.6077C22.8368 10.8049 22.9439 11.0235 23.0596 11.2506C23.3125 11.752 23.5739 12.2706 23.8739 12.6392C24.1482 12.982 24.4482 13.1663 24.7696 13.1449C24.2082 13.3806 24.7525 14.8549 25.2968 14.302C25.5282 14.0663 25.3182 13.8563 25.2839 13.6635C25.2711 13.5949 25.3311 13.5049 25.3139 13.4235C25.2839 13.2435 25.1211 13.132 24.9454 13.1192C25.4725 12.9949 25.9011 12.4206 26.2525 11.9406L32.7196 20.6792L27.3539 24.8149H27.3411L18.8639 12.622L22.7125 10.6077H22.7254Z"/>
<path d="M9.28536 10.402C9.43965 10.1449 9.13536 8.35774 9.01965 8.00202C8.9125 7.66774 8.71536 7.46631 8.32536 7.57774C8.23965 7.60345 8.07679 7.74917 8.0425 7.83059C7.9225 8.09631 8.29107 10.2349 8.53107 10.4449C8.72822 10.6206 9.1525 10.6249 9.28536 10.4063V10.402Z"/>
<path d="M11.5696 10.2863C11.6554 10.1149 11.9854 8.75202 11.9811 8.57202C11.9682 8.22059 11.5782 8.00631 11.2568 8.10059C10.9696 8.18631 10.6011 9.72059 10.5968 10.012C10.5925 10.4963 11.2911 10.8263 11.5696 10.282V10.2863Z"/>
<path d="M7.10393 11.1563C7.75965 11.3577 8.04679 10.7963 7.63536 10.3592C7.3825 10.0935 6.29822 9.41631 5.92965 9.52774C5.63393 9.61774 5.61679 10.0549 5.77107 10.2735C5.81822 10.3377 7.00965 11.1306 7.10393 11.1606V11.1563Z"/>
<path d="M8.50965 17.4477C8.18822 17.6406 8.09393 18.1077 8.02107 18.4806C8.02107 18.4892 8.02107 18.502 8.01679 18.5106C7.97393 18.4934 7.92679 18.4763 7.87965 18.4592C7.50679 18.3134 6.88536 18.0735 6.6325 18.592C6.52536 18.8149 6.5125 19.012 6.58965 19.1877C6.73107 19.4963 7.10393 19.5949 7.43393 19.6849C7.48965 19.702 7.54965 19.7149 7.60107 19.732C7.57536 19.8049 7.54107 19.8949 7.51107 19.9634C7.3525 20.3492 7.15965 20.8292 7.44679 21.112C7.55393 21.2192 7.73393 21.2706 7.91393 21.2706C8.07679 21.2706 8.23536 21.2277 8.33822 21.1377C8.47536 21.0177 8.54822 20.7906 8.65107 20.4349C8.68107 20.3277 8.72393 20.182 8.75822 20.092C8.84822 20.1135 8.96822 20.1563 9.07107 20.1906C9.43107 20.3149 9.83822 20.4563 10.1425 20.2934C10.2411 20.2377 10.3739 20.1306 10.4296 19.9035C10.5796 19.312 9.85107 19.0849 9.37107 18.9349C9.3025 18.9135 9.22965 18.892 9.16536 18.8706C9.18679 18.8149 9.2125 18.7506 9.23393 18.6949C9.35822 18.3777 9.5125 17.9792 9.37107 17.6834C9.32393 17.5892 9.22965 17.4649 9.03679 17.4049C8.79679 17.332 8.62536 17.392 8.51822 17.452L8.50965 17.4477Z"/>
<path d="M13.3611 23.2592C13.5411 23.3106 14.2825 23.2592 14.4625 23.1949C14.7239 23.1006 14.6982 22.5777 14.3939 22.492C14.2225 22.4406 13.3739 22.5177 13.2625 22.6249C13.1296 22.7535 13.1254 23.1906 13.3611 23.2592Z"/>
<path d="M19.6054 19.0292C19.2668 19.2134 18.7011 20.3277 19.3311 20.4177C19.8154 20.4863 20.4282 18.9734 19.6054 19.0292Z"/>
<path d="M10.3911 22.5135C10.7382 22.6763 11.6768 23.332 11.5954 22.5049C11.5611 22.1492 10.9654 21.892 10.6439 21.952C10.3825 22.0035 10.2196 22.2735 10.3911 22.5092V22.5135Z"/>
<path d="M9.04536 20.6277C8.38965 20.8292 9.36679 22.0163 9.83393 21.5492C10.2025 21.1806 9.48679 20.4949 9.04536 20.6277Z"/>
<path d="M20.3854 18.3563C21.3496 18.5363 20.9168 16.9335 20.3039 17.512C20.1196 17.6877 20.0639 18.2963 20.3854 18.3563Z"/>
<path d="M22.9096 16.702C22.5925 16.7235 22.3268 16.462 22.1296 16.912C21.7439 17.8035 24.1868 17.662 23.6554 16.6463C23.3768 16.4277 23.1539 16.6849 22.9054 16.702H22.9096Z"/>
<path d="M25.1168 15.1163C24.6968 15.1677 24.7911 15.4677 24.7011 15.7677C24.6282 16.0077 24.4096 16.1492 24.6068 16.4577C25.0354 17.1177 25.7982 15.7463 25.4982 15.2363C25.3911 15.1249 25.2668 15.0992 25.1168 15.1163Z"/>
<path d="M24.7096 5.77345C23.9639 5.77345 23.3596 6.37774 23.3596 7.12345C23.3596 7.86916 23.9639 8.47345 24.7096 8.47345C25.4554 8.47345 26.0596 7.86916 26.0596 7.12345C26.0596 6.37774 25.4554 5.77345 24.7096 5.77345Z"/>
</svg>
