<svg width="107" height="123" viewBox="0 0 107 123" xmlns="http://www.w3.org/2000/svg">
<path d="M102.115 2.89707C99.1051 -1.02114 93.0668 0.701359 89.3758 1.76136C69.3304 7.47779 51.9161 18.7403 41.5622 32.6528C26.1733 36.5331 12.2418 47.436 4.2729 61.8217C3.04254 64.0364 0.241115 69.4121 0.562901 71.4942C0.752187 72.6678 3.11826 74.9771 4.34862 75.1853C4.85969 75.261 5.69254 75.0717 9.09969 74.1253C10.4247 73.7467 11.8065 73.3681 12.3175 73.2735C16.5575 72.5353 21.2897 72.3271 25.3215 72.6867C26.1543 72.7624 29.5804 73.2735 30.8865 73.5574L30.9622 73.8035C29.0693 74.9014 27.7822 76.7753 27.4225 78.971C27.025 81.356 27.7065 83.741 29.3343 85.5392C27.9147 88.3406 28.0661 91.5585 29.7508 93.9624C31 95.7417 36.9815 100.758 38.3822 101.837C45.9536 107.724 50.7425 105.982 53.4304 103.502C53.6008 103.332 53.7522 103.143 53.8658 102.954C54.0172 102.954 54.1875 102.991 54.3579 102.991C55.6072 103.105 56.5158 103.181 57.1026 103.105C58.9197 102.859 60.6422 101.761 61.7968 100.095C62.7622 98.7324 63.2543 97.1614 63.1975 95.6281C63.5383 95.5335 63.8411 95.4956 64.0115 95.4956C64.5415 96.4231 65.999 99.8303 66.4154 100.985C67.9108 105.13 68.8193 109.711 69.0275 114.235C69.0465 114.689 69.0276 115.181 68.9708 115.674C68.8383 117.396 68.649 119.989 71.6586 121.049C71.8858 121.125 72.1129 121.163 72.359 121.163C73.6461 121.163 74.9901 120.065 76.2772 118.929L76.5043 118.74C87.8615 108.84 95.149 93.3189 95.5654 78.2517C95.5654 77.646 95.5086 76.7942 95.4329 75.9235V75.791C95.3572 74.9581 95.2247 73.4249 95.3193 73.0842C95.3951 72.8571 96.1143 71.816 96.4551 71.3239C96.8904 70.7181 97.3258 70.0746 97.5718 69.6203C102.626 60.1749 105.654 49.8399 106.582 38.9181C107.301 30.4003 107.188 9.50315 102.134 2.916L102.115 2.89707ZM48.0736 97.5967C47.3733 98.2971 46.3322 98.581 45.2911 98.3349C44.3825 98.051 34.8236 91.9181 34.199 91.2178C33.6122 90.5364 33.404 89.7414 33.5933 88.7571L48.0736 97.5967ZM37.114 39.486C32.4765 47.7389 30.0158 57.0328 30.1483 65.8346C22.3686 64.3771 14.835 64.5853 7.75576 66.4781C13.6425 54.1935 24.5075 44.2181 37.114 39.486ZM33.0822 78.6303C33.5554 78.0056 34.1043 77.7028 34.8236 77.7028C36.1108 77.7028 37.7765 78.6303 39.5179 79.6714C39.9154 79.9174 40.294 80.1446 40.6536 80.3339C43.7579 82.0753 47.4111 84.4035 50.9508 86.921C51.2536 87.1292 51.6322 87.3942 52.0865 87.716C53.3547 88.5867 55.4747 90.0442 56.0804 90.7256C56.989 91.7667 56.7997 92.9592 56.3265 93.7542C55.8343 94.5492 54.7933 95.2685 53.4115 94.9089C52.0865 94.5681 47.9222 92.0128 46.124 90.9339L45.2343 90.4039C40.7861 87.7349 37.2465 85.331 34.6911 83.3056C32.2115 81.3181 31.6815 80.4664 33.0443 78.6492L33.0822 78.6303ZM91.0226 65.0396C84.7572 76.1885 73.5893 84.5171 60.3204 87.9431C59.8661 87.3185 59.2793 86.7885 58.7493 86.3342C54.1308 82.4349 44.6475 76.1128 38.8365 73.5006C37.8333 73.0464 36.8868 72.7435 35.8079 72.5164C33.8393 60.8374 36.6029 48.9881 43.8336 38.2556C50.3261 28.621 60.2826 20.0653 71.8668 14.1785C77.1479 11.4906 89.8868 6.05815 95.3572 5.67957L95.8493 5.64172C97.6854 5.50922 97.799 5.49029 98.1018 6.64493C98.8401 9.50315 99.2186 13.8189 99.4836 16.961V17.0935C101.149 35.9464 98.3101 52.0735 91.0226 65.0396ZM88.6754 81.2614C87.199 92.8456 81.899 103.881 73.9301 111.888C73.5704 106.171 71.9426 100.322 68.9897 94.0381C74.3276 92.4292 79.6465 89.3439 85.7036 84.3089L88.6754 81.2614Z" />
<path d="M33.7447 103.711C32.7983 103.843 32.079 104.676 31.8518 104.96L24.1479 117.188C23.5422 118.38 23.9018 119.724 25.0186 120.462C25.454 120.765 25.984 120.917 26.514 120.917C27.2522 120.917 27.9336 120.595 28.4636 119.97L36.1675 107.78C36.6786 106.891 36.6029 105.679 35.9783 104.79C35.4483 103.995 34.5965 103.616 33.7447 103.729V103.711Z" />
<path d="M26.8358 103.521C27.3279 102.991 27.9904 102.405 28.6719 101.837C29.3912 101.212 30.1483 100.588 30.6783 99.9629C31.5679 98.9218 31.8708 97.2372 30.8108 96.1961C30.0915 95.4958 28.5583 95.3065 27.6119 95.8365L27.4794 95.9311C24.129 98.6568 21.479 101.894 18.7722 105.32L18.6776 105.509C18.2233 106.569 18.4694 107.799 19.3212 108.538C19.7944 108.954 20.3622 109.162 20.9679 109.162C21.4601 109.162 21.9522 109.03 22.4065 108.765C22.9554 108.443 23.7504 107.478 25.454 105.282C26.0408 104.544 26.5897 103.824 26.8737 103.54L26.8358 103.521Z" />
<path d="M41.9597 106.133C41.5622 106.266 41.2215 106.493 40.9376 106.834C40.1426 107.799 38.6094 118.721 38.5904 118.816V118.929C38.5147 119.894 38.4958 120.803 38.9122 121.541L39.0637 121.712C39.6315 122.261 40.3319 122.563 41.0322 122.563C41.2026 122.563 41.3729 122.563 41.5433 122.507C42.3762 122.317 43.0387 121.712 43.3983 120.841C43.9662 119.421 45.3101 110.979 45.3858 109.219C45.4237 108.348 45.3669 107.118 44.4394 106.398C43.8147 105.906 42.9629 105.812 41.9597 106.133Z" />
<path d="M80.309 15.7874C75.9365 16.1471 72.6618 18.4753 71.0529 22.3367C69.2357 26.7471 70.1065 32.3121 73.1729 35.8707C75.255 38.2935 78.0754 39.5617 81.3311 39.5617C82.41 39.5617 83.5268 39.4292 84.6815 39.1453C91.95 37.3849 94.3918 31.0628 93.559 25.9521C92.7072 20.5953 88.1643 15.1439 80.309 15.7685V15.7874Z" />
</svg>
