<svg xmlns="http://www.w3.org/2000/svg" width="64" height="64" viewBox="0 0 64 64">
  <g id="Illustration_43" data-name="Illustration 43" transform="translate(32 32)">
    <g id="Groupe_1403" data-name="Groupe 1403" transform="translate(-32 -32)">
      <g id="Groupe_1402" data-name="Groupe 1402" transform="translate(7.597 7.3)">
        <path id="Tracé_9483" data-name="Tracé 9483" d="M51.725,17.058A23.363,23.363,0,0,0,33.863,9.614a23.77,23.77,0,0,0-17.643,8.645,24.049,24.049,0,0,0-5.029,18.778A24.246,24.246,0,0,0,21.484,53.725l.37.23-.182-.014a72.486,72.486,0,0,0-8.881-.306c-.449.022-1.2.058-1.633.122a1.33,1.33,0,0,0-.992.64,1.539,1.539,0,0,0-.033,1.346c.444,1.088,2.382,1.475,3.663,1.732.176.035.335.066.469.1A64.119,64.119,0,0,0,27.838,59c6.592,0,13.115-1.019,17.539-3.453C52.535,51.612,57.32,45.128,58.5,37.762S57.282,23.039,51.725,17.058Zm.46,28.632a21.407,21.407,0,0,1-19.846,9A21.465,21.465,0,0,1,14.623,41.9a21.811,21.811,0,0,1,1.392-20.013A20.857,20.857,0,0,1,32.483,11.569,21.986,21.986,0,0,1,53.458,22.69,21.063,21.063,0,0,1,52.185,45.691Z" transform="translate(-9.995 -9.603)"/>
        <path id="Tracé_9484" data-name="Tracé 9484" d="M62.793,14.875a.951.951,0,0,0,.588.2.992.992,0,0,0,.642-.239,15.177,15.177,0,0,0,1.166-1.753c.926-1.64.977-2.121.894-2.4L66,10.545c-.133-.148-.536-.6-1.022-.512s-.69.591-.876,1.039a4.191,4.191,0,0,1-.18.4,21.7,21.7,0,0,1-1.372,2.184A.965.965,0,0,0,62.793,14.875Z" transform="translate(-22.573 -9.703)"/>
        <path id="Tracé_9485" data-name="Tracé 9485" d="M66.163,16.987a1.07,1.07,0,0,0,.027,1.249.793.793,0,0,0,.606.274,1.743,1.743,0,0,0,.516-.1,12.218,12.218,0,0,0,3.251-2.387,1.013,1.013,0,0,0-.05-1.2l-.067-.059a1.051,1.051,0,0,0-.868-.2h0a3.423,3.423,0,0,0-1.066.777c-.2.174-.385.338-.5.421s-.35.223-.612.381A5.188,5.188,0,0,0,66.163,16.987Z" transform="translate(-23.422 -10.786)"/>
        <path id="Tracé_9486" data-name="Tracé 9486" d="M60.087,13.794a.91.91,0,0,0,.228.029.99.99,0,0,0,.864-.559,9.281,9.281,0,0,0,.632-2.965.758.758,0,0,0-.379-.461,1.169,1.169,0,0,0-.86-.066.979.979,0,0,0-.58.622,18.92,18.92,0,0,0-.619,2.465A.953.953,0,0,0,60.087,13.794Z" transform="translate(-21.839 -9.631)"/>
        <path id="Tracé_9487" data-name="Tracé 9487" d="M57.173,29.01l-12.43-.081-.215-2.09-.109-.1c-.472-.425-.88-.544-1.216-.357-.633.354-.528,1.719-.328,2.8l.039.213c.13.746.242,1.39,1.406,1.466,1.051.068,2.149.038,3.208.008.785-.021,1.592-.043,2.375-.025a3.744,3.744,0,0,0,1.888,4.129A4.447,4.447,0,0,0,54,35.57a4,4,0,0,0,3.063-1.4c1.17-1.333,1.513-3.776.22-5.05Z" transform="translate(-17.844 -13.608)"/>
        <path id="Tracé_9488" data-name="Tracé 9488" d="M18.7,31.554h5.671a3.87,3.87,0,0,0,2.336,4.336,4.544,4.544,0,0,0,1.851.4A3.935,3.935,0,0,0,32.025,34.3a3.625,3.625,0,0,0,.48-2.867c-.03-.207-.063-.429-.09-.676a.806.806,0,0,1,.028-.135.994.994,0,0,0,.043-.393c0-.027-.492-2.8-.9-3.113a1.09,1.09,0,0,0-1.18-.018c-.553.354-.322,1.231-.1,2.079.045.17.1.376.135.548H18.7a.655.655,0,0,0-.569.315A.977.977,0,0,0,18,30.55C18,31.043,18.261,31.554,18.7,31.554Z" transform="translate(-11.915 -13.759)"/>
        <path id="Tracé_9489" data-name="Tracé 9489" d="M31.963,52.67l-.057-.016-.06,0a10.969,10.969,0,0,1-11.1-7.034l-.033-.09a5.12,5.12,0,0,1-.359-1.212c.072-.037.17-.08.256-.118.493-.215,1.409-.616,1.176-1.5a.84.84,0,0,0-.474-.6c-.461-.2-.981.1-1.485.376a2.679,2.679,0,0,1-.572.272,3.011,3.011,0,0,1-.8-.032c-.625-.078-1.566-.191-1.763.825l-.009.052,0,.054c.074.832,1.177,1,1.851,1.048a12.612,12.612,0,0,0,11.068,9.759c.01,0,.453.032.981.032a3.349,3.349,0,0,0,1.7-.273h0a1.053,1.053,0,0,0,.214-.976A.776.776,0,0,0,31.963,52.67Z" transform="translate(-11.599 -17.385)"/>
      </g>
      <rect id="Rectangle_386" data-name="Rectangle 386" width="64" height="64" fill="none"/>
    </g>
  </g>
</svg>
