<svg width="37" height="36" viewBox="0 0 37 36" xmlns="http://www.w3.org/2000/svg">
<path d="M19.7821 8.9314C19.5335 9.08997 19.2678 9.3214 19.0149 9.54426C18.9464 9.60426 18.8735 9.66426 18.8092 9.72426C18.5864 9.16283 18.1835 8.75569 17.6306 8.5414C16.7306 8.18997 15.4878 8.39569 14.5321 9.0514C11.0692 11.43 10.7906 14.8628 11.0092 18.2143C11.0264 18.4628 11.0649 18.7114 11.1035 18.9557C11.2149 19.6585 11.3221 20.3185 10.8421 20.8243C10.3964 21.2957 9.94207 21.66 9.46207 22.0457L9.28635 22.1871C8.56635 22.7657 8.31778 23.1171 7.83778 23.8971C7.3835 24.6385 7.8635 25.4957 8.02207 25.7785C8.87493 27.2957 11.9478 30.8314 13.4735 31.6457C13.8549 31.8514 14.1935 31.9328 14.4935 31.9328C15.2735 31.9328 15.8306 31.3671 16.3706 30.81C16.5549 30.6214 16.7435 30.4285 16.9449 30.2528C17.9692 29.3528 19.0621 28.47 20.1206 27.6128C22.6535 25.56 25.2764 23.4385 27.3206 20.8628C30.3935 16.9928 30.2906 14.6828 26.8792 10.9671C25.4049 9.36426 22.1778 7.39711 19.7778 8.93569L19.7821 8.9314ZM15.4921 29.8714C15.3678 29.9785 15.2564 30.0985 15.1449 30.2228C14.8235 30.5743 14.6135 30.7843 14.2964 30.6857C13.2292 30.36 10.2121 26.7685 9.40635 25.5985C8.91778 24.8914 8.95207 24.8657 9.50064 24.45C9.58207 24.3857 9.67635 24.3171 9.77493 24.24C10.1264 24.5528 10.4864 24.8614 10.8464 25.17C11.5364 25.7571 12.2478 26.3657 12.8992 27.0128C13.8121 27.9257 14.6821 28.92 15.4921 29.8714ZM12.2649 21.4157C12.2649 21.4157 12.2992 21.4371 12.3164 21.4457L12.3635 21.4757C13.5464 22.1914 15.8649 24.2185 16.8549 25.3114C17.0949 25.5771 17.3221 25.8728 17.5406 26.16C17.8492 26.5628 18.1664 26.9743 18.5349 27.3257L16.4306 29.1171C14.6778 26.97 12.5992 24.9514 10.2549 23.1257L12.2649 21.4157ZM17.3864 11.9014C17.2835 12.1843 17.1849 12.45 17.1292 12.6943C17.0692 12.96 17.0521 13.2514 17.0349 13.53C17.0178 13.8214 17.0006 14.0957 16.9364 14.3057C16.6192 15.3214 15.6292 16.8043 14.9349 17.4985C14.8792 17.5543 14.7935 17.6185 14.6949 17.6914C14.3264 17.97 13.8249 18.3471 14.0049 18.7885C14.1206 19.0714 14.3049 19.1571 14.4421 19.1828C14.9006 19.2685 15.4364 18.7714 15.9506 18.2185L15.9935 18.1714C16.4906 17.64 16.9578 16.9757 17.3821 16.1914C18.3421 18.4071 20.6564 19.8385 23.0521 19.6457C23.5106 19.6071 23.9564 19.5 24.3892 19.3928C24.7406 19.3071 25.0706 19.2257 25.4049 19.1828C25.5292 19.1657 25.7564 19.1743 25.9578 19.1828C26.2278 19.1914 26.3864 19.1914 26.4806 19.17C26.7249 19.1057 26.8921 18.9514 26.9435 18.7414C26.9992 18.5143 26.9049 18.2571 26.6949 18.0728C26.3564 17.7728 25.3406 17.9571 23.9478 18.2528C23.5578 18.3343 23.2235 18.4071 23.0478 18.4243C21.3549 18.5828 19.8035 17.8285 18.8949 16.3971C17.9864 14.9657 17.9649 13.1657 18.8306 11.7C19.6921 10.2471 20.7935 9.53569 22.0878 9.5914C24.3378 9.68997 26.8449 12.1628 27.9721 14.5028C28.8164 16.2514 28.3921 17.3743 27.1878 19.0928C25.2806 21.8143 22.6406 23.9743 20.0864 26.0614L19.4521 26.58C17.8792 24.0857 15.5564 22.26 12.9078 20.31C12.2135 18.0814 12.4621 14.5243 13.4692 12.33C13.9749 11.2243 15.6035 9.0214 17.1335 9.66426C17.9992 10.0328 17.7935 10.7914 17.3821 11.9143L17.3864 11.9014Z"/>
<path d="M26.1206 9.43283C26.1849 9.56569 26.2964 9.65997 26.4378 9.70283C26.5021 9.72426 26.5706 9.73283 26.6478 9.73283C27.0206 9.73283 27.4878 9.5014 27.9506 9.23997L28.0278 9.19711C28.0278 9.19711 29.1978 8.52426 29.3821 8.30569C29.5664 8.0914 29.6392 7.83426 29.5792 7.61997C29.5278 7.43569 29.3864 7.30283 29.1764 7.23854C28.8806 7.14854 28.4521 7.4314 27.8821 7.84283C27.7492 7.9414 27.6292 8.02283 27.5521 8.06997C27.4621 8.1214 27.2606 8.21569 27.0635 8.3014C26.5878 8.51569 26.3564 8.62711 26.2578 8.72569C26.1078 8.88854 26.0135 9.21854 26.1206 9.43283Z"/>
<path d="M24.8306 8.30997C24.9249 8.36569 25.0321 8.39569 25.1349 8.39569C25.3192 8.39569 25.5078 8.31426 25.6449 8.15569C25.8849 7.88569 26.6564 6.36426 26.8106 6.00854C26.8964 5.80711 27.0249 5.50283 26.9178 5.24569C26.8792 5.15997 26.7978 5.03997 26.6221 4.9714C26.3521 4.86854 26.0692 4.9714 25.8421 5.25426C25.5678 5.59711 24.8049 7.02854 24.6464 7.42283C24.4664 7.87711 24.6206 8.17711 24.8306 8.30569V8.30997Z"/>
<path d="M22.8335 7.46569C22.8806 7.46569 22.9278 7.4614 22.9749 7.44426C23.2535 7.36712 23.4335 7.07569 23.4121 6.7414L23.3906 6.65997C23.2535 6.38997 23.1678 5.9914 23.0821 5.60997C22.9878 5.18569 22.8892 4.74426 22.7221 4.43569C22.5506 4.12711 22.2978 4.0114 21.9592 4.09283L21.8735 4.13569C21.6635 4.30283 21.5735 4.52997 21.5949 4.80854C21.6121 5.03569 22.2121 6.92569 22.3021 7.09711C22.4221 7.32854 22.6235 7.46569 22.8335 7.46569Z"/>
<path d="M15.5006 12.8485C14.6392 13.0885 13.7992 13.9028 13.4564 14.8328C13.3964 14.9957 12.9806 16.6328 13.4478 17.0828C13.5035 17.1385 13.6064 17.2071 13.7606 17.2071C13.8292 17.2071 13.9064 17.1943 13.9964 17.1557C14.4378 16.9757 14.4635 16.41 14.4849 15.96C14.4935 15.7757 14.5021 15.6 14.5321 15.48C14.6264 15.1328 14.9735 14.58 15.2306 14.3657C15.2906 14.3143 15.4278 14.2414 15.5564 14.1728C15.9206 13.98 16.2978 13.7785 16.3321 13.4614C16.3492 13.2814 16.2806 13.1057 16.1349 12.9857C15.9635 12.8443 15.7149 12.7885 15.5006 12.8485Z"/>
<path d="M25.3321 14.73C25.4564 14.73 25.5806 14.6914 25.6878 14.6143C25.8378 14.5071 25.9235 14.3357 25.9321 14.1557C25.9535 13.5043 24.7706 12.0171 24.4664 11.6914L24.4578 11.6828C23.8921 11.0871 23.3092 10.5557 22.8721 10.7185C22.6535 10.8 22.5292 11.0228 22.5121 11.3871V11.4771L22.5678 11.5414C22.7649 11.76 22.9792 11.9571 23.1892 12.1457C23.4806 12.4114 23.7592 12.6643 23.9864 12.9685C24.0678 13.0757 24.1921 13.3071 24.3206 13.5514C24.7149 14.2843 24.9249 14.64 25.1735 14.7085C25.2249 14.7214 25.2764 14.73 25.3278 14.73H25.3321Z"/>
<path d="M25.5506 14.8371C25.2721 14.9785 25.0921 15.3514 25.1606 15.6471C25.2206 15.9 25.4349 16.0543 25.7392 16.0585H25.7478C26.0092 16.0585 26.2364 15.9128 26.3478 15.6728C26.4549 15.4457 26.4249 15.1928 26.2706 15.0171C26.0649 14.7814 25.7949 14.7128 25.5506 14.8414V14.8371Z"/>
</svg>
