<svg width="37" height="37" viewBox="0 0 37 37" xmlns="http://www.w3.org/2000/svg">
<path d="M18.7657 19.4638C19.9486 16.481 20.9429 13.7467 21.8043 11.1153L21.8257 11.0553V10.991C21.8171 10.7295 21.2857 9.91954 21.0843 9.80382C20.7286 9.60668 19.7771 9.38382 19.5929 9.34096C15.8986 8.50525 11.9986 9.60239 9.16143 12.2767C6.25572 15.0153 4.90143 18.9453 5.53143 22.7895C6.21715 26.9638 8.99858 30.2981 12.9757 31.7038C14.2614 32.1581 15.59 32.381 16.9143 32.381C19.7771 32.381 22.5971 31.3395 24.8129 29.3681C27.0029 27.4224 28.5243 24.5295 28.6957 22.0053C28.7643 20.9638 28.4771 20.3381 27.95 19.6181L27.8386 19.4638H18.7657ZM16.61 19.481C16.4857 19.6781 16.4943 19.9524 16.6357 20.2653C16.7257 20.4667 16.9271 20.801 17.24 20.801H26.7971C26.6343 22.5367 26.0857 24.1524 25.1943 25.4853C23.7157 27.7053 21.3457 29.2353 18.6971 29.681C16.0229 30.1267 13.3657 29.4753 11.2229 27.8424C7.28858 24.8467 6.30715 19.3481 8.93429 15.0452C10.7343 12.1052 13.8371 10.4295 17.1029 10.4295C18.0114 10.4295 18.9329 10.5581 19.8414 10.8281L16.6143 19.481H16.61Z"/>
<path d="M31.4 15.4781C30.8257 13.0353 29.27 10.7595 27.2386 9.3924C27.2215 9.37955 25.4257 8.23955 24.7529 8.26526C24.3072 8.29097 23.8915 8.59526 23.7415 9.01955L20.9815 17.3038C20.8872 17.8181 21.0543 18.161 21.2129 18.3581C21.4915 18.7053 21.9757 18.9067 22.6143 18.9281C23.7886 18.8381 25.0229 18.8424 26.21 18.8424C27.4272 18.8424 28.6872 18.8424 29.9043 18.7524C30.5557 18.701 31.0272 18.4781 31.3143 18.0838C31.8029 17.4153 31.6357 16.4724 31.4 15.4824V15.4781ZM29.9043 16.9395C28.5329 17.0253 27.0886 17.0167 25.6957 17.0167C24.6457 17.0167 23.5657 17.0081 22.5115 17.0467L24.9372 9.73526C27.7743 10.8238 29.9086 13.7038 30.2515 16.9053C30.1486 16.9224 30.02 16.9353 29.9 16.9438L29.9043 16.9395Z"/>
<path d="M21.2001 6.70954C21.2258 7.67811 21.2515 7.93954 21.4229 8.11096C21.5515 8.23954 21.7358 8.30811 21.9244 8.30811C22.0401 8.30811 22.1601 8.28239 22.2672 8.22668C22.5329 8.09811 22.6744 7.83239 22.6401 7.56668L22.5158 5.57382L22.4987 5.47525C22.3829 5.13668 22.0787 4.93096 21.7744 4.94811C21.4487 4.97382 21.1915 5.23525 21.1315 5.59525L21.1187 5.69382L21.1444 5.77954C21.1787 5.89096 21.1915 6.37954 21.2001 6.70525V6.70954Z"/>
<path d="M23.4328 8.45812C23.5185 8.4924 23.6 8.50954 23.6728 8.50954C24.1014 8.50954 24.38 8.02526 24.5214 7.7724C24.56 7.70383 24.5942 7.63954 24.6285 7.59669C24.6585 7.55383 24.71 7.49383 24.77 7.41669C25.2628 6.81669 25.4214 6.5724 25.3957 6.32812C25.3742 6.13526 25.2671 5.96383 25.0957 5.84812C24.9114 5.72812 24.6842 5.68954 24.4828 5.74954C24.0885 5.86526 23.1328 7.33954 23.0685 7.50669C22.8671 8.02526 23.12 8.33812 23.4242 8.4624L23.4328 8.45812Z"/>
<path d="M19.8071 8.25667C19.8328 8.29524 19.8628 8.35524 19.9014 8.42381C20.0771 8.76238 20.3 9.17809 20.69 9.23809C20.7114 9.23809 20.7414 9.24238 20.7757 9.24238C20.8957 9.24238 21.0628 9.20809 21.2257 9.04524C21.7571 8.50952 20.9385 7.43381 20.66 7.09952C20.3728 6.75667 20.06 6.43524 19.6914 6.42667C19.4985 6.42667 19.3485 6.49524 19.2242 6.63238C18.8 7.09952 19.3271 7.69524 19.64 8.05524C19.7085 8.13238 19.7685 8.20095 19.8071 8.25238V8.25667Z"/>
</svg>
