<?xml version="1.0" encoding="utf-8"?>
<!-- Generator: Adobe Illustrator 16.0.0, SVG Export Plug-In . SVG Version: 6.00 Build 0)  -->
<!DOCTYPE svg PUBLIC "-//W3C//DTD SVG 1.1//EN" "http://www.w3.org/Graphics/SVG/1.1/DTD/svg11.dtd">
<svg version="1.1" id="Calque_1" xmlns="http://www.w3.org/2000/svg" xmlns:xlink="http://www.w3.org/1999/xlink" x="0px" y="0px"
	 width="58px" height="58px" viewBox="0 0 58 58" enable-background="new 0 0 58 58" xml:space="preserve">
<g id="Groupe_2314" transform="translate(12.941 6.502)">
	<path id="Tracé_15266" d="M33.99,23.731c1.328-2.183,1.02-4.988-0.756-6.828c-1.301-1.369-3.65-2.03-6.924-1.971
		c-3.026,0.073-6.027,0.602-8.895,1.563c1.653-3.402,3.477-7.476,3.353-11.474c-0.082-2.706-1.551-5.992-4.108-6.754
		c-0.779-0.283-1.642-0.221-2.372,0.172c-1.381,0.804-2.383,5.181-2.469,5.488c-0.624,2.35-1.482,4.628-2.564,6.805
		c-1.367,2.458-2.956,4.788-4.743,6.961c-1.667,2.047-3.176,4.216-4.516,6.491C-2.783,29.188-4.812,37.125-1.4,43.02l0,0
		c1.146,1.782,2.753,3.221,4.654,4.158c-0.114,0.16-0.184,0.346-0.201,0.538c-0.023,0.57,0.275,1.108,0.771,1.389
		c0.746,0.319,3.553,0.355,4.272,0.295c5-0.417,15.749-2.941,19.353-6.49c1.165-1.116,1.861-2.632,1.951-4.242
		c1.8-0.467,3.269-1.766,3.95-3.494c0.622-1.569,0.456-3.344-0.443-4.772C34.8,28.712,35.252,25.931,33.99,23.731z M19.638,25.702
		c-0.468,0.28-1.034,0.344-1.552,0.166c-0.37-0.137-0.431-0.813-0.318-0.973c0.324-0.289,1.267-0.427,1.308-0.427
		c0.372-0.04,0.733,0.136,0.932,0.452C20.094,25.148,19.959,25.434,19.638,25.702z M22.118,30.634
		c0.165-0.458,0.096-0.967-0.181-1.367c-0.184-0.2-0.454-0.296-0.723-0.258c-0.344,0.014-0.666,0.182-0.874,0.455
		c-0.127,0.299-0.177,1.186-0.188,1.293l0,0c-1.085-0.093-2.129-0.471-3.02-1.093c-0.277-0.602,0.37-1.426,0.904-1.869
		c4.688-0.035,9.307-1.16,13.489-3.283c0.11,0.156,1.112,2.049,0.36,3.244c-0.398,0.723-1.075,1.249-1.871,1.457
		C27.378,30.618,22.107,30.678,22.118,30.634z M18.798,38.9c-0.274-0.246-0.668-0.308-1.002-0.15
		c-0.243,0.133-0.416,0.365-0.479,0.639c-0.637-0.315-1.138-0.853-1.405-1.513c-0.32-0.86-0.374-1.377-0.158-1.668
		c1.008,0.702,2.188,1.123,3.414,1.227c2.594,0.332,5.204,0.503,7.82,0.511c-0.191,1.278-0.55,2.885-1.825,3.223
		c-1.306,0.114-5.188-0.931-5.88-1.063C19.318,39.649,19.137,39.206,18.798,38.9z M20.852,35.472
		c0.128-0.494,0.052-1.021-0.209-1.458c-0.16-0.18-0.389-0.281-0.628-0.283c-0.273-0.009-0.539,0.087-0.743,0.27
		c-0.298,0.409-0.421,0.919-0.34,1.419v0.012c-1.324-0.096-2.52-0.824-3.212-1.955c-0.368-0.649-0.237-1.468,0.314-1.974
		c0.207-0.221,0.908,0.276,1.104,0.369c3.549,1.628,9.328,0.27,13.371-0.895l0.032-0.009c0.498,1.007,1.096,2.814-0.226,3.975
		C28.68,36.477,20.846,35.507,20.852,35.472z M28.791,23.872c-2.203,0.793-4.472,1.391-6.781,1.788l-0.138,0.026
		c0.06-0.169,0.084-0.351,0.074-0.531c-0.058-0.827-0.513-1.576-1.222-2.008c-0.026-0.015-0.048-0.027-0.072-0.041l4.271-2.163
		c0.408-0.288,0.545-0.833,0.314-1.277c-0.281-0.461-0.865-0.636-1.354-0.409c-1.297,0.536-4.816,2.434-4.816,2.434
		c-1.645,0.867-4.131,2.176-3.279,4.635c0.077,0.181,0.177,0.354,0.297,0.511c0,0-1.629,1.979-0.992,3.148
		c-1.336,0.938-1.854,2.669-1.253,4.187c0.097,0.232,0.418,0.744,0.44,0.776c-0.018,0.03-0.53,1.005-0.633,1.506
		c-0.271,2.92,2.315,5.063,4.871,5.597l3.727,0.901c-1.442,0.71-2.927,1.321-4.448,1.838c-4.687,1.571-9.264,2.798-13.631,0.59
		c-2.271-1.099-3.984-3.088-4.735-5.496c-1.522-4.684,0.097-10.551,2.12-14.48c1.327-2.391,2.873-4.652,4.615-6.76
		c1.602-1.958,3.053-4.035,4.339-6.214c1.172-1.982,2.071-4.115,2.672-6.338c0.474,0.076,0.96-0.007,1.383-0.234
		c2.202-1.084,2.581-4.635,2.581-4.635c0.147,0.216,0.281,0.442,0.398,0.677c1.718,3.432,0.192,7.247-1.281,10.938
		c-0.417,1.042-1.473,4.5-1.505,4.627c-0.046,0.024-0.746,0.361-0.897,0.641c-0.499,1.142,0.182,1.057,0.292,1.159
		c-0.155,0.802-1.497,4.342-1.644,4.839c0,0,0.632,0.924,1.039,0.945c0.561-0.044,0.86-0.642,1.143-1.2
		c0.698-1.553,1.197-3.186,1.487-4.862c3.211-1.326,6.641-2.037,10.114-2.097c2.219-0.029,4.652,0.16,5.785,1.785
		c0.536,0.626,0.741,1.471,0.558,2.273c-0.32,1.065-3.836,2.922-3.836,2.922V23.872z M13.741,4.129
		c0.062-0.24,0.514-2.17,0.634-2.534c0.146-0.437,0.602-1.347,0.982-1.475c0.021-0.007,0.044-0.012,0.066-0.012h0.027
		C16.009,2.921,13.844,4.089,13.741,4.129z"/>
	<path id="Tracé_15267" d="M23.847,2.672l2.513-3.207c0.229-0.379,0.153-0.868-0.182-1.159c-0.319-0.332-0.828-0.391-1.215-0.142
		l-2.558,3.198l-0.047,0.076c-0.22,0.429-0.109,0.953,0.262,1.261C22.783,2.835,23.663,2.822,23.847,2.672z"/>
	<path id="Tracé_15268" d="M23.289,5.079c0.163,0.347,0.52,0.562,0.9,0.549c0.121,0,2.717-0.927,3.841-1.496
		c0.364-0.25,0.53-0.705,0.417-1.132c-0.083-0.35-0.376-0.608-0.736-0.646c-0.281,0.007-3.065,0.994-4.128,1.534
		C23.215,4.165,23.094,4.664,23.289,5.079z"/>
	<path id="Tracé_15269" d="M20.393,0.661c0.413,0.105,0.852-0.07,1.078-0.431c0.306-1.129,0.523-2.28,0.649-3.441
		c-0.078-0.409-0.417-0.719-0.828-0.763c-0.44-0.084-0.882,0.136-1.082,0.537c-0.261,1.028-0.449,2.072-0.569,3.126
		C19.651,0.142,19.954,0.538,20.393,0.661z"/>
</g>
</svg>
