<?xml version="1.0" encoding="utf-8"?>
<!-- Generator: Adobe Illustrator 16.0.0, SVG Export Plug-In . SVG Version: 6.00 Build 0)  -->
<!DOCTYPE svg PUBLIC "-//W3C//DTD SVG 1.1//EN" "http://www.w3.org/Graphics/SVG/1.1/DTD/svg11.dtd">
<svg version="1.1" id="Calque_1" xmlns="http://www.w3.org/2000/svg" xmlns:xlink="http://www.w3.org/1999/xlink" x="0px" y="0px"
	 width="37px" height="37px" viewBox="0 0 37 37" enable-background="new 0 0 37 37" xml:space="preserve">
<g>
	<path d="M8.679,8.068C8.86,8.37,9.354,8.307,9.451,7.97c0.081-0.28-0.118-0.643-0.209-0.893C9.105,6.706,8.722,5.325,8.088,5.99
		C7.783,6.372,8.472,7.72,8.679,8.068C8.782,8.24,8.534,7.824,8.679,8.068z"/>
	<path d="M6.721,9.294c0.287,0.157,0.872,0.688,1.14,0.176c0.222-0.644-0.949-1.091-1.375-1.319
		c-0.38-0.205-1.051-0.135-0.781,0.471C5.844,8.931,6.457,9.148,6.721,9.294C6.978,9.436,5.992,8.892,6.721,9.294z"/>
	<path d="M6.078,11.21c0.229-0.02,0.44-0.033,0.668-0.017c0.171-0.021,0.317-0.154,0.364-0.338H7.102
		c0.233-0.818-2.202-0.72-2.177-0.03C4.925,11.396,5.736,11.241,6.078,11.21C6.327,11.188,5.551,11.257,6.078,11.21z"/>
	<path d="M15.082,16.987c1.889,0.612,4.042,0.913,6.016,0.588c1.78-0.292,3.989-0.968,4.986-2.599
		c1.256-2.284-1.499-4.156-3.311-4.799c-2.024-0.72-4.361-0.992-6.487-0.619c-1.747,0.306-4.258,1.045-4.879,2.942
		C10.634,14.865,13.229,16.383,15.082,16.987C16.934,17.587,13.531,16.481,15.082,16.987z M13.664,11.304
		c1.74-0.97,3.912-1.154,5.862-0.981c1.922,0.17,4.75,0.786,5.747,2.662c1.181,2.221-2.285,3.414-3.854,3.686
		c-2.294,0.398-4.836,0.16-6.958-0.828c-0.888-0.428-1.928-1.077-2.242-2.07C11.879,12.698,12.806,11.784,13.664,11.304
		C16.291,9.839,12.069,12.196,13.664,11.304z"/>
	<path d="M10.531,14.806c0.15-0.043,0.244-0.116,0.292-0.223l-0.004,0.004c0.149-0.374-0.344-0.85-0.281-1.289
		c0.054-0.373,0.628-0.772,0.298-1.146c-0.543-0.576-1.032,0.517-1.115,0.925C9.64,13.477,9.744,15.03,10.531,14.806
		C10.681,14.763,10.141,14.917,10.531,14.806z"/>
	<path d="M27.627,15.47c1.001-0.032,0.875-3.113-0.014-2.575l0.004,0.004c-0.394,0.248-0.085,0.933-0.179,1.299
		C27.359,14.502,26.914,15.495,27.627,15.47C28.154,15.453,27.502,15.474,27.627,15.47z"/>
	<path d="M7.651,21.428c0.639-0.847-0.65-1.069-0.926-0.09c-0.194,0.531-0.2,1.167,0.092,1.664c0.171,0.291,0.698,0.667,0.916,0.174
		C7.972,22.576,7.098,22.129,7.651,21.428C7.745,21.303,7.591,21.504,7.651,21.428z"/>
	<path d="M31.783,18.461c-0.144-1.227-0.621-2.271-1.521-3.124c0.227-2.825-0.95-4.909-3.476-6.141
		c-2.198-1.072-4.728-1.443-7.149-1.548c-2.154-0.094-4.31,0.053-6.393,0.634c-2.087,0.582-4.638,1.678-5.392,3.908l-0.004-0.004
		c-0.263,0.771,0.137,1.575-0.146,2.297c-0.419,0.995-0.187,2.24,0.276,3.175c-1.721,0.815-3.622,2.336-3.323,4.461
		c0.14,0.965-0.349,1.82-0.197,2.825c0.128,0.853,0.513,1.634,1.058,2.296c2.172,2.64,6.263,3.754,9.548,3.908
		c3.642,0.171,9.049-0.405,11.155-3.887c0.15-0.248,0.269-0.506,0.372-0.777c0.538-0.183,1.066-0.397,1.572-0.657
		c0.821-0.421,1.595-0.963,2.2-1.666C31.655,22.665,32.014,20.369,31.783,18.461z M30.622,19.065
		c-0.237,3.426-5.545,4.396-8.167,4.573c-3.598,0.245-7.834-0.37-10.724-2.697c2.886,1.385,6.1,1.845,9.271,1.556
		c2.758-0.253,6.06-0.982,7.904-3.246c-0.082,0.299-0.37,1.064,0.254,1.045c0.358-0.012,0.508-0.546,0.579-0.815
		c0.085-0.319,0.138-0.648,0.118-0.979c-0.013-0.219-0.045-0.446-0.156-0.64c0.1-0.257,0.198-0.515,0.271-0.782
		C30.435,17.725,30.667,18.398,30.622,19.065C30.537,20.291,30.667,18.398,30.622,19.065z M19.223,26.51l-0.005,0.004
		c-0.421-0.369-0.334-1.638-0.124-2.086c1.945,0.192,3.908,0.106,5.837-0.249c-0.073,0.639,0.116,1.272,0.339,1.834
		C23.242,26.51,21.207,26.682,19.223,26.51z M9.139,21.439c0.208,1.016,0.796,1.891,1.537,2.6
		C9.795,23.492,8.799,22.584,9.139,21.439C9.143,21.461,9.047,21.749,9.139,21.439z M16.595,20.994
		c0.021,0.189,0.064,0.377,0.116,0.553c-1.912-0.244-3.823-0.887-5.555-1.863c-0.104-0.532-0.042-1.3,0.313-1.741
		c1.628,0.844,3.438,1.284,5.237,1.582C16.578,20.056,16.544,20.54,16.595,20.994C16.617,21.184,16.544,20.54,16.595,20.994z
		 M12.228,22.327c-0.187,0.518-0.377,0.981-0.416,1.543c-1.166-0.84-2.031-2.189-1.92-3.665
		C10.394,20.998,11.178,21.71,12.228,22.327C12.194,22.422,11.178,21.71,12.228,22.327z M12.687,24.509h0.004
		c-0.105-0.531-0.042-1.3,0.313-1.74c1.752,0.909,3.694,1.324,5.232,1.581c-0.16,0.66-0.199,1.367,0.004,2.023
		C16.33,26.129,14.418,25.486,12.687,24.509z M23.735,21.191c-1.976,0.484-4.023,0.669-6.052,0.497
		c-0.42-0.373-0.334-1.633-0.124-2.083c1.945,0.193,3.908,0.107,5.837-0.248C23.324,19.996,23.512,20.63,23.735,21.191
		C21.708,21.688,23.512,20.63,23.735,21.191z M24.245,19.125c1.179-0.275,2.188-0.783,3.244-1.341
		c0.091,0.45,0.339,0.84,0.558,1.166c-0.545,0.607-1.261,1.04-1.992,1.385c-0.403,0.19-0.993,0.573-1.449,0.573v0.005
		C24.121,20.739,24.223,19.497,24.245,19.125C25.051,18.937,24.229,19.404,24.245,19.125z M28.586,18.256
		c-0.141-0.21-0.32-0.763-0.313-0.99c0.391-0.39,0.712-0.746,0.981-1.102C29.187,16.863,28.959,17.574,28.586,18.256
		C28.445,18.046,28.959,17.574,28.586,18.256z M10.736,10.168c4.207-2.515,10.692-2.178,14.979-0.052
		c2.154,1.068,4.625,3.484,2.613,5.872c-2.01,2.385-5.977,2.9-8.888,2.872l0.004,0.004c-3.133-0.027-6.625-0.697-9.155-2.66
		C7.873,14.328,8.144,11.716,10.736,10.168C14.872,7.696,8.546,11.476,10.736,10.168z M8.362,15.384
		c0.501,0.793,1.286,1.504,2.335,2.122c-0.198,0.514-0.378,0.985-0.416,1.543C9.116,18.209,8.25,16.861,8.362,15.384
		C8.864,16.177,8.35,15.552,8.362,15.384z M7.497,26.381c-0.183,0.397-0.275,0.815-0.304,1.252
		c-1.145-0.824-2.066-2.201-1.916-3.664c0.501,0.793,1.286,1.504,2.336,2.121C7.578,26.185,7.54,26.283,7.497,26.381z M8.066,28.271
		h0.004c-0.106-0.531-0.041-1.301,0.313-1.74c1.753,0.908,3.694,1.324,5.233,1.582c-0.163,0.671-0.186,1.355,0.004,2.022
		C11.709,29.892,9.798,29.248,8.066,28.271z M9.339,26.047c-1.571-0.691-3.639-1.936-3.881-3.813
		c-0.243-1.892,1.429-3.146,2.947-3.863c0.238,0.33,0.517,0.64,0.83,0.929c-0.205,0.409-0.184,0.606-0.47,0.967L8.77,20.27
		c-1.612,2.052,0.422,4.129,2.273,4.937c1.213,0.53,2.526,0.764,3.77,1.201c1.27,0.446,2.596,0.757,3.935,0.904
		C15.608,27.691,12.248,27.329,9.339,26.047C7.724,25.336,11.341,26.93,9.339,26.047z M14.598,30.277h-0.004
		c-0.421-0.373-0.333-1.632-0.125-2.083c1.946,0.192,3.909,0.107,5.837-0.249c-0.072,0.639,0.115,1.273,0.338,1.835
		C18.618,30.277,16.582,30.444,14.598,30.277z M22.629,29.077c-0.304,0.132-0.76,0.42-1.109,0.42
		c-0.479-0.166-0.389-1.422-0.36-1.787c0.553-0.127,1.067-0.363,1.631-0.421c0.623-0.064,1.243-0.155,1.856-0.279
		c0.099,0.189,0.207,0.369,0.314,0.529C24.442,28.117,23.68,28.623,22.629,29.077z M25.485,26.818
		c0.008-0.003,0.017-0.004,0.025-0.007c-0.005,0.01-0.01,0.02-0.015,0.028C25.492,26.834,25.488,26.824,25.485,26.818
		C25.493,26.815,25.488,26.824,25.485,26.818z M27.25,25.314c-0.305,0.131-0.761,0.42-1.11,0.42
		c-0.482-0.167-0.384-1.421-0.36-1.787c1.183-0.271,2.176-0.799,3.24-1.338c0.09,0.451,0.338,0.841,0.557,1.162
		c-0.518,0.578-1.281,1.084-2.331,1.539L27.25,25.314z M30.117,23.077c-0.143-0.21-0.322-0.763-0.313-0.989
		c0.39-0.391,0.712-0.746,0.981-1.102C30.717,21.685,30.489,22.396,30.117,23.077C29.975,22.867,30.489,22.396,30.117,23.077z"/>
</g>
</svg>
