<svg width="37" height="37" viewBox="0 0 37 37" xmlns="http://www.w3.org/2000/svg">
<path d="M29.2686 29.0471C29.0801 28.5457 28.3729 27.7229 27.4686 26.6986C27.1901 26.3857 26.9501 26.1114 26.7915 25.9186C26.0158 24.9543 25.2015 23.9171 24.3015 22.7386L24.2115 22.6186L24.2929 22.49C24.3529 22.3957 24.4429 22.2629 24.5072 22.1686C24.6658 21.9329 24.7686 21.7786 24.8201 21.6886C27.3529 17 26.0843 11.5829 21.8029 8.80571C19.2272 7.13429 15.8372 6.86857 12.7429 8.09429C9.64863 9.32 7.36006 11.8271 6.62292 14.8014C5.71435 18.4657 6.80292 22.0829 9.53292 24.47C12.3058 26.8957 16.2529 27.53 19.8272 26.1157C19.8743 26.0986 19.9686 26.0514 20.0843 25.9957C20.1743 25.9529 20.3286 25.88 20.4615 25.82L20.6329 25.7471L20.7315 25.9057C21.5415 27.2 22.4886 28.4814 23.5429 29.72L23.8043 30.0286C24.1001 30.3843 24.4301 30.7829 24.7258 31.0571C25.8058 32.0557 27.2543 32.27 28.4201 31.6057C29.2858 31.1086 29.6458 30.0329 29.2772 29.0471H29.2686ZM16.8529 24.9286C15.8715 24.9286 14.8772 24.7529 13.8958 24.3843C10.3558 23.06 8.23006 19.7257 8.47863 15.8943C8.73578 11.9686 11.9843 8.63429 15.8801 8.30857C16.1329 8.28714 16.3901 8.27857 16.6429 8.27857C19.8186 8.27857 22.6258 9.93714 24.1515 12.71C25.7372 15.5986 25.4715 18.9114 23.4443 21.5729C21.7901 23.7457 19.3815 24.9286 16.8529 24.9286ZM27.9872 30.7229C27.8115 30.8514 27.5715 30.9457 27.3101 30.9457C27.0486 30.9457 26.7872 30.8557 26.5343 30.6286L26.5043 30.5943C25.1886 28.7386 23.7658 26.84 22.2701 24.9457L22.1372 24.7786L22.3086 24.6457C22.7029 24.3371 23.0801 23.99 23.4358 23.6129L23.6029 23.4329L28.3515 29.3386C28.6258 29.9729 28.3301 30.4829 27.9915 30.7271L27.9872 30.7229Z"/>
<path d="M30.1301 11.8443C29.9543 11.7114 29.5129 11.5871 28.8186 11.4714C28.7972 11.4714 26.6415 11.1371 26.1015 11.5014C25.8743 11.6557 25.7672 11.9214 25.8229 12.2C25.8829 12.4871 26.1058 12.71 26.3929 12.7614C26.6801 12.8171 27.0358 12.7957 27.3829 12.7786C27.6101 12.7657 27.8458 12.7571 28.0258 12.77C28.2572 12.7871 28.5443 12.86 28.8186 12.9286C29.1272 13.0057 29.4186 13.0786 29.6801 13.0957C29.6886 13.0957 29.6972 13.0957 29.7143 13.0957C29.8129 13.0957 30.0529 13.0786 30.2201 12.9114C30.3572 12.7743 30.4258 12.5771 30.4129 12.3714C30.4001 12.1571 30.2972 11.9686 30.1343 11.8443H30.1301Z"/>
<path d="M24.5586 8.70286C24.6143 8.72 24.6829 8.72857 24.7643 8.72857C24.9443 8.72857 25.1586 8.67714 25.3001 8.54L25.3686 8.47143L26.3329 5.67714L26.3501 5.59572C26.3972 5.22286 26.1615 4.88 25.7972 4.80286C25.4372 4.72571 25.0943 4.93572 24.9872 5.28714L24.0358 8.08572L24.4215 8.66L24.5672 8.70286H24.5586Z"/>
<path d="M25.5101 9.41429C25.3643 9.53 25.2786 9.71429 25.2658 9.92429C25.2529 10.1343 25.3215 10.3271 25.4501 10.4557C25.5829 10.5886 25.7972 10.6357 25.9001 10.64C25.9086 10.64 25.9172 10.64 25.9215 10.64C26.4143 10.64 27.7043 9.83429 27.9615 9.67143L28.0429 9.62C28.6129 9.26 28.7201 9.17857 28.7886 9.08429C28.9858 8.81429 28.9901 8.48 28.8058 8.24C28.6129 7.98714 28.2572 7.89714 27.9272 8.02143C27.7515 8.08571 27.5415 8.23143 27.2201 8.46286C27.0658 8.57 26.9115 8.68143 26.8086 8.74143C26.7015 8.80143 26.5086 8.89143 26.3243 8.97714C25.9258 9.16143 25.6558 9.29429 25.5015 9.41857L25.5101 9.41429Z"/>
<path d="M20.0629 10.5029C20.0629 10.5029 18.5158 9.44857 17.8686 9.56C17.6115 9.60286 17.4143 9.77429 17.3372 10.0186C17.2558 10.2714 17.3286 10.5586 17.5215 10.7471C17.6286 10.85 17.8043 10.9314 18.2801 11.1286C18.4686 11.21 18.6872 11.3 18.7686 11.3429C20.2901 12.2 21.5458 13.9143 21.8929 15.6071C21.9101 15.6971 21.9315 15.8986 21.9486 16.0743C21.9915 16.5414 22.0172 16.76 22.0858 16.9014C22.1886 17.12 22.4243 17.2571 22.6901 17.2571C22.7243 17.2571 22.7586 17.2571 22.7929 17.2486C23.0972 17.21 23.3243 17 23.3801 16.7129C23.5001 16.0614 23.1529 14.8443 23.1143 14.7071C22.6343 13.0657 21.4943 11.4886 20.0629 10.4943V10.5029Z"/>
<path d="M22.8529 18.0629C22.8315 18.0457 22.8101 18.0329 22.7972 18.02L22.5486 17.78L22.2658 17.9943C22.0386 18.1657 21.9315 18.4143 21.9701 18.6671C22.0086 18.9157 22.1843 19.1257 22.4329 19.2157C22.5101 19.2457 22.5915 19.2586 22.6729 19.2586C22.8529 19.2586 23.0286 19.19 23.1744 19.0614L23.2172 19.0229L23.2472 18.9757C23.5258 18.5343 23.0201 18.1786 22.8529 18.0629ZM22.7501 18.4743C22.7501 18.4743 22.7715 18.5043 22.7758 18.5214C22.7415 18.4914 22.7029 18.4657 22.6686 18.44C22.6943 18.44 22.7243 18.4486 22.7501 18.4743Z"/>
<path d="M27.2972 28.6786C27.2586 28.6486 27.2158 28.6143 27.1943 28.5929C27.1686 28.5629 27.1472 28.5157 27.1129 28.4686C26.9629 28.22 26.7615 27.8814 26.4015 27.8386C26.2901 27.8257 26.0715 27.8343 25.8701 28.04C25.5786 28.3314 25.6215 28.8114 25.9858 29.3171C26.2258 29.6514 26.6029 29.9814 26.9801 29.9814C27.0743 29.9814 27.1686 29.96 27.2586 29.9171L27.3186 29.8871L27.3658 29.84C27.4429 29.7671 27.6701 29.5357 27.6529 29.2314C27.6358 28.9443 27.4258 28.7814 27.2972 28.6829V28.6786Z"/>
</svg>
