<?xml version="1.0" encoding="utf-8"?>
<!-- Generator: Adobe Illustrator 16.0.0, SVG Export Plug-In . SVG Version: 6.00 Build 0)  -->
<!DOCTYPE svg PUBLIC "-//W3C//DTD SVG 1.1//EN" "http://www.w3.org/Graphics/SVG/1.1/DTD/svg11.dtd">
<svg version="1.1" id="Calque_1" xmlns="http://www.w3.org/2000/svg" xmlns:xlink="http://www.w3.org/1999/xlink" x="0px" y="0px"
	 width="32px" height="32px" viewBox="0 0 32 32" enable-background="new 0 0 32 32" xml:space="preserve">
<g id="Illustration_40" transform="translate(16 16)">
	<g id="Groupe_1349" transform="translate(-16 -16)">
		<g id="Groupe_1348" transform="translate(2.685 3.76)">
			<path id="Tracé_9175" d="M22.1,4.894c-1.229-0.442-7.678-2.048-11.446-1.807c-0.805,0.246-1.533,0.694-2.117,1.3
				C8.432,4.48,8.327,4.571,8.216,4.666C7.36,5.466,6.248,6.428,5.07,7.451c-3.074,2.67-4.949,4.334-5.061,4.948
				c-0.128,1.435,1.176,1.86,2.224,2.2c0.222,0.072,0.433,0.141,0.625,0.216c-0.022,1.053,0.044,2.106,0.2,3.147
				c0.074,0.475,0.115,0.953,0.121,1.434c-0.321,0.438-0.39,1.012-0.181,1.513c-0.028,0.106-0.072,0.207-0.129,0.3L2.85,21.254
				c-0.149,0.713-0.157,1.449-0.024,2.166c0.16,0.922,0.961,1.049,1.7,1.049c0.149,0,0.3-0.004,0.434-0.01
				c0.11,0,0.216-0.008,0.326-0.009c1.108-0.069,1.563-0.3,1.51-1.581c0.061-0.816-0.234-1.62-0.808-2.205
				c0.102-0.474-0.033-0.968-0.362-1.324C5.62,19.211,5.593,18.904,5.52,18.11c-0.073-0.794-0.189-2.073-0.21-2.572l0.862,0.224
				l1.087,3.992c0.6,1.457,2.795,1.547,4.245,1.605l0.434,0.02c3.071-0.049,6.045-1.09,8.477-2.968
				c0.666-0.532,1.074-1.322,1.123-2.174c-0.258-1.464-0.605-2.912-1.039-4.334c1.3-1.229,2.501-2.56,3.592-3.979
				c0.064-0.093,0.127-0.18,0.187-0.262c0.306-0.424,0.528-0.73,0.478-1.086C24.653,5.868,23.388,5.353,22.1,4.894z M7.341,16.036
				c1.146,0.224,2.072,0.425,2.889,0.601c4.3,0.939,4.37,0.916,7.748-2.582c0.377-0.391,0.8-0.825,1.271-1.309
				c0.125,0.471,0.268,0.936,0.406,1.389c0.169,0.551,0.344,1.119,0.48,1.685c0.223,1.2-0.344,1.606-1.129,2.176
				c-0.1,0.069-0.192,0.14-0.282,0.208c-2.061,1.383-4.468,2.16-6.948,2.24c-3.59-0.053-3.711-0.624-4.162-2.75
				c-0.1-0.5-0.222-1.048-0.4-1.689L7.341,16.036z M13.741,16.236c-0.017,0-0.033-0.002-0.049-0.007l-0.04-0.007
				c-2.424-0.264-4.823-0.728-7.171-1.387l-0.683-0.171c0.45-0.362,1.222-0.886,2.09-1.474c1.676-1.003,3.221-2.21,4.6-3.594
				c0.111-0.16,0.202-0.334,0.27-0.517c0.081-0.248,0.069-0.314,0.032-0.423c-0.104-0.315-0.355-0.559-0.673-0.654
				c-0.745-0.191-1.74,0.606-2.538,1.247c-0.253,0.214-0.521,0.411-0.8,0.59c-0.825,0.6-1.64,1.221-2.456,1.838
				c-0.925,0.7-1.881,1.423-2.836,2.115l-0.086-0.027c-0.349-0.108-0.711-0.221-1.047-0.362c-0.292-0.122-0.78-0.326-0.881-0.601
				c-0.033-0.099-0.022-0.208,0.029-0.299l0.7-0.7c2.54-2.524,7.825-7.776,9.538-7.776c2.063,0.105,4.115,0.368,6.138,0.785
				c2.982,0.6,4.9,1.334,5.258,2.023c0.093,0.171,0.072,0.382-0.053,0.532c-0.863,1.115-8.248,8.869-9.344,8.869H13.741z
				 M3.99,15.318l0.081,0.855c0.084,0.885,0.21,2.217,0.266,2.801c-0.029-0.004-0.059-0.006-0.089-0.006
				C4.165,18.967,4.083,18.977,4.003,19c-0.008-0.277-0.039-0.673-0.076-1.133c-0.078-0.982-0.241-3.027,0.028-3.245
				c1.882-1.631,4.034-3.165,6.116-4.649l0.47-0.335c0.113-0.069,0.243-0.163,0.381-0.264c0.304-0.272,0.67-0.464,1.067-0.559
				c0.16,0,0.1,0.07,0.1,0.07l-7.193,5.308l-0.108,0.078c-0.347,0.252-0.819,0.591-0.8,1.047H3.99z M3.998,20.144
				c0.092-0.074,0.207-0.115,0.325-0.117c0.096-0.001,0.188,0.035,0.258,0.1l0.01,0.01c0.057,0.041,0.097,0.102,0.113,0.17
				c0.022,0.225-0.124,0.434-0.344,0.488c-0.186,0.072-0.396-0.012-0.482-0.191c-0.084-0.16-0.033-0.359,0.118-0.459H3.998z
				 M3.745,21.706c0.198,0.1,0.415,0.157,0.636,0.169c0.292,0.004,0.58-0.076,0.827-0.234c0.221,0.422,0.292,0.905,0.2,1.371
				l-0.015,0.25c0,0.033-0.042,0.199-0.823,0.254c-0.053,0-0.11,0-0.169,0.009c-0.316,0.019-0.567,0.021-0.675-0.134
				c-0.108-0.557-0.103-1.129,0.017-1.685H3.745z"/>
			<path id="Tracé_9176" d="M22.661,3.372L22.661,3.372c0.123,0.08,0.266,0.122,0.412,0.12c0.033,0,0.066-0.002,0.1-0.006
				c0.414-0.059,0.963-0.818,1.189-1.155c0.324-0.366,0.494-0.843,0.475-1.332c-0.039-0.174-0.15-0.323-0.307-0.41
				c-0.156-0.091-0.344-0.113-0.518-0.061c-0.379,0.114-0.592,0.53-0.764,0.866c-0.039,0.077-0.076,0.15-0.1,0.189
				c-0.036,0.053-0.118,0.148-0.213,0.26c-0.393,0.459-0.612,0.734-0.578,1.033C22.379,3.078,22.491,3.261,22.661,3.372z"/>
			<path id="Tracé_9177" d="M26.602,3.242L26.586,3.19c-0.162-0.343-0.551-0.514-0.912-0.4l-0.082,0.046
				c-0.184,0.094-0.371,0.177-0.563,0.25c-0.718,0.294-1.024,0.437-1.159,0.675c-0.138,0.233-0.12,0.527,0.045,0.742
				c0.149,0.189,0.378,0.298,0.618,0.295c0.071,0,0.142-0.009,0.212-0.027c0.535-0.194,1.054-0.432,1.551-0.709
				C26.575,3.891,26.7,3.553,26.602,3.242z"/>
			<path id="Tracé_9178" d="M20.846,2.901L20.846,2.901c0.037,0.006,0.076,0.01,0.115,0.01c0.031,0,0.063-0.001,0.094-0.006
				c0.303-0.058,0.549-0.276,0.643-0.569c0.135-0.49,0.231-0.989,0.291-1.493c0.009-0.201-0.043-0.399-0.15-0.569
				c-0.131-0.197-0.364-0.302-0.6-0.27c-0.293,0.06-0.535,0.268-0.64,0.549c-0.144,0.528-0.249,1.066-0.317,1.609
				C20.259,2.514,20.501,2.83,20.846,2.901z"/>
		</g>
	</g>
</g>
</svg>
