<svg width="37" height="37" viewBox="0 0 37 37" xmlns="http://www.w3.org/2000/svg">
<path d="M30.366 20.3985C30.3275 19.103 30.3617 17.7733 30.3916 16.4907C30.4045 15.9306 30.4173 15.3705 30.4258 14.8147L30.4344 14.4171C30.4771 12.228 30.537 9.22655 27.4501 8.91444H6.55125C5.44389 9.01278 4.63581 9.86788 4.54175 11.0608V24.4646C4.63153 25.5719 5.32845 26.3629 6.41871 26.5809L12.195 26.5938L12.9432 30.4717C13.1227 30.9505 13.576 31.1943 14.2942 31.1943C14.4182 31.1943 14.5465 31.1857 14.6833 31.1729C15.8976 31.0489 17.2358 29.7149 18.4159 28.5391C18.8135 28.1458 19.1897 27.7695 19.5018 27.5045C20.2714 27.5472 21.0539 27.5429 21.8064 27.5387C22.2596 27.5387 22.7128 27.5387 23.1617 27.5387C23.6833 27.5472 24.222 27.5729 24.7693 27.5985C25.5859 27.637 26.4282 27.6798 27.2192 27.6627C28.3608 27.637 29.1902 27.3206 29.746 26.7049C30.7722 25.5591 30.6097 23.5838 30.4643 21.8394C30.4216 21.3306 30.3831 20.8475 30.3703 20.3943L30.366 20.3985ZM5.62346 19.0646C5.60636 16.3026 5.59353 13.4422 5.69614 10.6503C5.90564 10.2057 6.26479 9.97905 6.80778 9.93629H27.1379C27.7194 9.98332 28.1042 10.2356 28.3094 10.7187L28.3394 24.6741C28.3052 25.2299 27.8049 25.5591 27.3902 25.6318L18.1764 25.6446L17.8771 25.8541L14.0591 30.0612C13.9907 30.0997 13.9351 30.0997 13.9137 30.0741C13.7598 29.4627 13.6486 28.8085 13.546 28.1757C13.4349 27.5002 13.3151 26.8033 13.1441 26.1448L13.127 26.0807C13.0928 25.9182 13.0458 25.7216 12.8961 25.6318L12.8534 25.6061H12.8064C11.8657 25.5206 10.908 25.4992 9.96313 25.4992C9.50564 25.4992 9.05244 25.5035 8.60351 25.5078H8.35125C8.25719 25.5078 8.17168 25.5292 8.09899 25.5463C8.03914 25.5591 7.98783 25.5719 7.9408 25.5719H7.79543C6.53415 25.5933 5.70469 25.5292 5.62346 24.4517C5.64484 22.6603 5.63628 20.8304 5.62346 19.0646Z"/>
<path d="M30.4729 8.65791C30.4729 8.65791 30.4942 8.65791 30.5028 8.65791C30.8277 8.65791 31.1014 8.29021 31.3964 7.84983C31.4477 7.77287 31.4947 7.70447 31.5246 7.66171C31.5503 7.62751 31.6016 7.58047 31.6615 7.51634C32.0463 7.11444 32.3883 6.72964 32.2814 6.4047C32.2472 6.29781 32.1489 6.15672 31.8881 6.10542C31.717 6.07121 31.6401 6.10542 31.5118 6.1781C31.2083 6.35767 30.4515 7.29829 30.2933 7.54199C30.2762 7.56765 30.2548 7.59758 30.2334 7.62751C30.1137 7.79853 29.9341 8.05506 30.071 8.34579C30.1864 8.58522 30.3489 8.64936 30.4643 8.65791H30.4729Z"/>
<path d="M29.3783 7.85838C29.3783 7.85838 29.4125 7.85838 29.4296 7.85838C29.5793 7.85838 29.7204 7.8028 29.8187 7.70446C30.0197 7.49496 29.9341 7.12299 29.8529 6.76812C29.8187 6.62703 29.7845 6.48166 29.7845 6.39615C29.7845 6.33202 29.8016 6.24651 29.8187 6.15245C29.8786 5.83178 29.9812 5.29306 29.5322 5.16052C29.3826 5.11777 29.0919 5.13914 28.9593 5.28024C28.6301 5.618 28.7541 7.30256 28.985 7.64461C29.0705 7.7686 29.2116 7.84556 29.3783 7.85838Z"/>
<path d="M33.0425 7.89686C32.6919 7.79425 31.1441 8.31587 30.9688 8.73914C30.8748 8.97002 30.9859 9.27359 31.2083 9.38047C31.2724 9.4104 31.3408 9.42323 31.4135 9.42323C31.6444 9.42323 31.9223 9.29069 32.1702 9.1667C32.2515 9.12822 32.3199 9.09401 32.3798 9.07264C32.4396 9.05126 32.5166 9.02988 32.5978 9.0085C32.9313 8.92299 33.4315 8.79473 33.4187 8.3458C33.4144 8.1534 33.2092 7.93962 33.0425 7.89259V7.89686Z"/>
</svg>
