<?xml version="1.0" encoding="utf-8"?>
<!-- Generator: Adobe Illustrator 16.0.0, SVG Export Plug-In . SVG Version: 6.00 Build 0)  -->
<!DOCTYPE svg PUBLIC "-//W3C//DTD SVG 1.1//EN" "http://www.w3.org/Graphics/SVG/1.1/DTD/svg11.dtd">
<svg version="1.1" id="Calque_1" xmlns="http://www.w3.org/2000/svg" xmlns:xlink="http://www.w3.org/1999/xlink" x="0px" y="0px"
	 width="111.189px" height="113.604px" viewBox="0 0 111.189 113.604" enable-background="new 0 0 111.189 113.604"
	 xml:space="preserve">
<g>
	<path d="M85.567,50.063c3.25,5.979,5.14,13.722,6.915,18.82c-0.354,4.363-7.179-0.926-5.913,5.01
		c1.049,0.637,2.687,0.778,3.227,2.243c-1.774,1.51-5.705-1.46-6.57,2.323c0.288,1.886,3.603,1.611,2.08,4.118
		c-2.113,1.585-3.729-2.823-5.926-0.152c-5.209,1.982,1.277,4.494-0.584,7.094c-1.72-0.088-3.297-0.946-4.306-2.336
		c-2.695,0.602-5.205,1.827-7.334,3.58c1.04,1.374,1.636,3.036,1.691,4.762c-3.099-1.031-5.979-4.777-10.056-4.68
		c-3.492,1.031,1.323,3.956-2.248,4.651c-1.42-1.438-1.358-4.842-3.708-5.691l-4.581,2.35c-8.922-5.136-13.033-13.937-22.714-17.809
		c-1.602-5.853-5.618-10.584-9.325-14.85c2.19-1.244,4.123-2.071,4.351-4.802c-0.876-1.394-1.625-2.994-2.494-4.392
		c0.544-1.375,2.396-1.116,2.536-2.753l-1.917-3.45c2.319-1.465,5.209-1.992,6.205-4.554c1.476-1.96-0.832-3.359-1.589-4.961
		c0.979-1.133,2.492-0.788,3.581-0.695l0.013-0.002c2.693-0.657,4.735-5.439,7.289-4.459c-0.128,1.644,1.133,2.403,2.68,2.208
		c1.392-0.883,1.239-2.977,3.133-3.264c4.207,4.862,5.497,1.33,10.725,4.514c2.266-0.907,6.807-15.925,10.234-21.577
		c-0.232,1.299,2.381,1.739,2.512,1.527L59.919,25.3c7.386,9.077,17.029,12.073,28.531,13.9c3.23,0.817,4.109-5.815,6.523-1.768
		C94.562,43.772,84.847,44.175,85.567,50.063z"/>
</g>
</svg>
