<?xml version="1.0" encoding="utf-8"?>
<!-- Generator: Adobe Illustrator 16.0.0, SVG Export Plug-In . SVG Version: 6.00 Build 0)  -->
<!DOCTYPE svg PUBLIC "-//W3C//DTD SVG 1.1//EN" "http://www.w3.org/Graphics/SVG/1.1/DTD/svg11.dtd">
<svg version="1.1" id="Calque_1" xmlns="http://www.w3.org/2000/svg" xmlns:xlink="http://www.w3.org/1999/xlink" x="0px" y="0px"
	 width="136.533px" height="126.391px" viewBox="0 0 136.533 126.391" enable-background="new 0 0 136.533 126.391"
	 xml:space="preserve">
<g>
	<path d="M39.033,51.348c0.013-0.013-0.005-0.024-0.04-0.035C39.017,51.361,39.031,51.377,39.033,51.348z M108.43,62.135
		c0.009,0.027,0.012,0.055,0.02,0.083C108.47,62.187,108.461,62.161,108.43,62.135z M92.606,49.318
		c-0.026,0.005-0.061-0.005-0.09-0.006C92.421,49.402,92.436,49.415,92.606,49.318z M99.316,44.488
		c-0.015,0.029-0.014,0.065-0.031,0.091C99.338,44.517,99.344,44.491,99.316,44.488z M127.523,101.352
		c0.018-0.029-0.027-0.005-0.109,0.053C127.417,101.44,127.444,101.434,127.523,101.352z"/>
	<path d="M38.995,51.312c-0.292-0.585-2.088-6.831-2.656-8.649c0.101-1.564,2.491,0.236,3.001,0.251
		c0.196-0.065-0.534-0.89-0.46-1.362c0.533-1.196,2.189-2.702,2.91-3.97c-0.021-0.629-0.335-0.422-0.33-1.171
		c1.33-0.061,1.987-0.731,1.965-2.01c0.205,0.077,0.416,0.127,0.636,0.153c10.052-6.885,19.102-19.894,32.916-21.536
		c0.499,0.028,0.428,0.612,0.317,0.995c-0.068,0.621,1.142,1.426,1.475,0.277c0.407-0.948,15.644-2.706,15.446-2.831
		c0.492,0.343-1.616,0.737-1,1.266c2.354,1.319,4.172,1.064,5.461-0.773c0.697,0.422,0.902,1.048,0.62,1.881
		c0.284,0.171,1.688-0.848,1.856-0.683c0.036,0.153,0.035,0.313-0.006,0.466c0.218-1.487,6.792,5.037,6.516,3.695
		C99.128-7.165,55.974,9.799,56.253,9.883l0,0c0.306,0.095-4.034,2.801-6.323,2.815c0.016-0.51-0.011-0.862-0.19-0.84
		c-3.314,1.105-14.298,9.01-14.995,12.001c-0.109,1.182,2.139,1.926,1.265,2.599C13.951,43.463,16.034,62.36,14.291,76.465
		c-0.394,1.973-0.847-2.721-1.892-2.768c-0.048-0.015-4.183,4.287-4.147,4.729c-0.059-0.541-0.122-0.948-0.371-0.733
		c-0.42,0.051-1.374,1.635-1.412,1.909c-0.049,0.755-0.324,1.41-0.833,1.974c-0.149-0.028-0.235-0.224-0.369-0.318
		c-0.733,1.014-1.765,1.639-3.095,1.873c1.728,4.756,9.483,2.692,17.324,2.889c5.591,0.776,8.727,11.248,8.727,11.248l-4.764,2.46
		c0,0-0.822-1.083-1.531-1.197c-0.062,1.701,0.702,3.843,0.326,5.523c-0.184,0.406-1.211-3.031-2.042-3.043
		c-0.836-0.182-2.667,4.753-2.891,5.198c-0.474,1.002-0.405-1.48-0.846-0.918c0.022,0.695-0.172,1.379-0.561,1.955
		c-0.138-0.014-0.325-0.078-0.435-0.082c0.051,0.599-0.264,0.796-0.729,0.734c-0.161,0.145-1.553,3.099-2.902,3.201
		c2.528,4.926,23.733-0.351,24.775-4.519c0.107-0.399-0.535-1.147-0.68-1.315c-0.579-0.713,5.901,1.79,6.781-1.084
		c-0.433,0.932,11.324,5.517,11.184,5.43c-0.006,1.525,0.787,2.691,2.385,3.502c0.45,0.093,0.635-0.241,0.964-0.38
		c1.313-0.222,6.928,8.202,10.358,3.646c0.004,0.032-0.01,0.061,0.003,0.096c1.211,0.815,7.765,4.894,9.206,3.66
		c0.471-0.449,4.141-2.745,5.456-1.487c-1.22-0.077,1.08,0.124,2.32-0.464c0.969,0.556,1.13,2.267,2.519,2.058
		c2.13-0.377,8.589,0.225,9.953-0.169c2.229-0.474,18.087-8.771,18.021-9.192c2.333,0.557,3.922,0.096,4.756-1.381
		c-0.374-0.459-1.131-0.708-1.479-1.224c-0.162-0.228,0.889-2.032,0.967-2.342c1.469-1.307,3.249-1.838,5.348-1.592
		c-1.014-0.037,2.088-2.516,2.721-2.938c-0.037-0.298,2.275-4.367,1.744-3.109c0.48-1.194,1.332-1.99,2.557-2.399
		c0.2,0.185,0.393,0.877,0.673,0.519c0.667-0.48,1.944-1.6,1.944-1.6c0.121,0.557-2.051-5.068-0.6-4.66
		c0.229,0.036,0.467,0.328,0.627,0.445c-0.021-1.161-1.438-2.785-2.005-1.476c-0.338,1.387-1.989,4.377-1.815,3.388
		c-1.592-2.533-4.779,7.631-4.854,8.543c-0.521-0.896-1.253-1.651-2.13-2.205c-1.036,0.938-6.479,2.379-6.52,3.202
		c0.027,0.206,0.245,0.496,0.4,0.765c-0.872-0.524-6.104,4.171-6.141,4.213c-0.922-0.242-1.766-0.709-2.462-1.356
		c0.229-0.265-8.943,3.322-13.116,3.224c-3.26-0.203-40.994-2.534-37.293-12.578c2.473-3.232,24.382-10.067,20.47-12.776
		c1.414,0.75,1.222-0.491,2.614-0.274c2.438,0.461,0.488-3.269,1.322-4.594c0.78,0.52,1.366,0.422,1.767-0.303
		c0.602,0.221,2-0.313,2-0.313c0.011,0-0.828-3.485,0.166-3.351c0.342,0.069,0.668,0.207,0.954,0.406
		c0.07,1.337,0.224,2.669,0.462,3.988c0.874-1.592,0.757-3.217-0.347-4.884c1.422,0.53,2.591-0.036,3.512-1.692
		c0.662,0.01,1.698,1.051,2.145,0.952c0.417-1.144,0.807-2.295,1.174-3.452c0.121-0.416,6.847-2.602,7.091-2.458
		c-1.346-0.055-0.593-3.906-0.795-4.075c-0.45-0.397,3.273,2.537,3.076,1.521c-1.462-3.084,3.953-3.24,4.396-2.877
		c-0.316-1.14-0.511-2.296-0.579-3.469c0.092-0.545,0.693,0.363,0.604,0.015c-0.074-0.645-0.369-1.247-0.83-1.704
		c-0.677-0.177-0.813,2.693-1.06,3.171c-0.814-0.327-1.129-1.019-0.959-2.071c-0.413,1.048-1.143,1.474-2.19,1.272
		c0.549,1.025,0.56,1.959,0.038,2.809c-0.332-0.461-3.094-3.503-4.53-2.341c-0.621,0.469,1.279,2.62-0.87,1.55
		c-0.594-0.323-2.909-0.235-2.295,1.012c-0.208-0.219-0.482-0.288-0.832-0.188c-0.313-0.406-0.146-0.782-0.073-1.256
		c0.123-1.238-5.228,3.873-4.575,4.167c-0.688-0.058-1.178-1.338-1.823-1.406c-3.218,2.189-7.738,5.388-12.004,6.977
		c-0.313,0.077-0.56-0.202-0.782-0.265c-1.039,0.72-1.885,1.683-2.466,2.804c-0.268-0.545-0.191-1.147-0.753-1.276
		c-2.349-0.31-6.39,4.343-8.404,5.972c-0.378,0.332-1.375-1.293-1.877-1.715c0.285,0.628,0.379,1.289,0.277,1.98
		c-0.334-0.284-0.782-1.515-1.094-1.826c-0.531,0.836-1.287,1.436-2.262,1.802c1.77,1.565-1.689,5.226-3.47,7.374
		c-0.75-2.031-1.867-4.321-1.952-4.108c-0.423,0.586-3.267,5.561-0.953,5.574c0.063,0.007,0.321-0.229,0.439-0.387
		c0.341-0.235,0.582,0.153,0.871,0.497c0.649,0.735,0.849,3.102-0.715,1.922c-0.744-0.691-1.518-0.716-2.327-0.078
		c-0.013-0.045-3.79-4.966-3.244-4.491c-0.703-0.825,0.191,1.203-0.071,1.152c-0.314-0.247-2.172-1.583-2.288-1.438
		c0.541-0.809,1.046-1.642,1.511-2.497c-0.087-0.34-1.994,1.918-2.52,1.557c0.431-1.198,0.984-2.35,1.651-3.433
		c-2.302,0.122-3.529-0.923-3.684-3.145c0.224-0.506,0.519-0.612,0.799-0.887c-1.104,0.095-2.215-0.07-3.243-0.482
		c-0.236-0.313-0.263-0.567-0.072-0.765c9.146-2.957,36.677-21.142,42.979-20.374c0.654,0.28,1.542,1.208,2.396,0.842
		c0.471-0.25-0.118-1.211-0.195-1.142c-0.414-0.041-0.467-1.003-0.247-1.565c0.602-1.315-0.264-2.571,1.721-1.304
		c-0.752,1.645-0.521,2.971,0.697,3.977c0.133-1.815,0.682-3.04-0.344-4.578c0.888,0.375,3.607-2.068,3.595-2.072
		c0.639,0.031,1.59,0.999,2.099,1.012c0.637-0.605,6.48-4.854,6.8-4.825c0.211-0.379,0.262-0.829,0.139-1.246
		c-0.49-2.322,1.678-0.369,2.289,0.122c-1.04-0.591-0.767-3.278-0.811-4.244c-0.392,0.823,3.036,1.552,3.398,1.695
		c0.053-0.126,0.022-0.245-0.09-0.361c1.32-0.615,1.602-1.55,0.848-2.806c-0.056-0.661,4.408,0.034,4.127,0.28
		c0.23-0.542-0.508-2.753-0.428-3.613c0.162-0.616,0.742,0.492,0.62-0.067c-0.062-0.636-0.334-1.231-0.772-1.694
		c-0.573-0.198-1.523,3.958-1.833,3.285c0.048-0.421,0.123-0.84,0.222-1.253c-4.321,0.174-2.785,3.922-3.087,3.305
		c-0.497-0.709-0.108-2.531-1.316-2.121c-0.441,0.06-6.178,1.515-5.904,1.166c-0.895,0.41-0.25,1.132-0.393,1.815
		c-0.276-0.71-0.743-0.996-1.398-0.851c-0.082-0.648-5.096,2.001-5.184,2.766c-0.459-0.927-1.1-1.306-1.94-1.089
		c-1.229,3.508-9.745,4.422-12.897,6.61c-4.809,1.42-8.949,3.846-13.802,6.945c-0.416-0.514-0.974-0.894-1.606-1.09
		c0.537,0.902,0.874,2.068-0.098,1.249c-0.336-0.526-0.619-1.088-0.847-1.671c-0.985,0.32-1.896,0.835-2.676,1.514
		c2.498,2.438-10.296,8.563-7.622,8.63c0.112,0.018,0.333-0.218,0.505-0.367c1.152,0.405,1.487,1.296,1.004,2.674
		c-1.405,0.709-1.392-2.126-2.961-0.178c-0.277,0.256,0.02,0.573,0.156,0.842c0.018,0.065-0.021,0.078-0.105,0.052
		c-0.781-0.521-3.852-5.122-3.843-5.819c-0.208,0.185-0.432,0.351-0.669,0.492c-0.013,0.706,0.425,5.26-1.394,5.125
		c-0.184-0.08-7.099-8.767-7.409-7.393c-0.223,0.609,0.479,1.406,0.311,1.893c-0.342,0.559-0.991,0.855-1.638,0.746
		c-1.447-0.711-1.643-1.972-0.578-3.78c0.271-0.184,1.183-2.721,0.519-3.855"/>
</g>
</svg>
