<?xml version="1.0" encoding="utf-8"?>
<!-- Generator: Adobe Illustrator 16.0.0, SVG Export Plug-In . SVG Version: 6.00 Build 0)  -->
<!DOCTYPE svg PUBLIC "-//W3C//DTD SVG 1.1//EN" "http://www.w3.org/Graphics/SVG/1.1/DTD/svg11.dtd">
<svg version="1.1" id="Calque_1" xmlns="http://www.w3.org/2000/svg" xmlns:xlink="http://www.w3.org/1999/xlink" x="0px" y="0px"
	 width="210.656px" height="210.656px" viewBox="0 0 210.656 210.656" enable-background="new 0 0 210.656 210.656"
	 xml:space="preserve">
<path fill-rule="evenodd" clip-rule="evenodd" d="M173.306,100.021c-1.192,1.882-6.894,9.386-8.132,11.374
	c-3.888,6.362-7.125,13.102-9.658,20.114c-1.298,3.56-2.375,7.337-3.416,10.988c-2.175,7.615-4.414,15.461-8.829,22.223
	c4.2-1.248,10.016-2.744,12.268,0.963c0.854,1.277,1.131,2.854,0.761,4.345c-0.736,2.793-3.694,4.733-6.185,6.115
	c-7.07,3.93-14.596,6.989-22.403,9.109c-22.727,6.094-46.6,3.068-59.125-17.354c-4.793-7.821-7.243-16.514-9.613-24.925
	c-0.808-2.875-1.646-5.848-2.564-8.743c-2.716-8.562-5.984-16.938-9.786-25.076c-1.021-2.179-12.68-23.953-11.158-33.087
	c0.705-3.691,3.482-6.643,7.124-7.571l0.059-0.015c3.37-1.003,7.016,0.051,9.33,2.698c1.745,2.582,7.743,13.291,8.767,14.903
	c1.717-3.707,4.965-6.481,8.895-7.598c2.691-0.653,5.531-0.029,7.7,1.692c1.361-3.493,3.924-8.351,8.051-10.126
	c5.557-2.403,10.308-0.779,13.087,4.433c0.156-8.085,3.853-37.338,6.227-40.771c1.419-2.583,4.16-4.164,7.108-4.1
	c3.186-0.116,6.178,1.522,7.799,4.268c2.594,4.639,3.188,15.433,3.543,21.883l0.094,1.693c0.313,5.381,0.299,11.622,0.283,18.23
	c-0.031,12.946-0.071,27.625,2.644,37.491c0.509,1.46,1.099,2.892,1.769,4.287c1.151,0.197,2.336,0.067,3.415-0.38
	c1.749-0.812,6.016-9.302,6.515-10.111c3.901-6.351,14.647-21,30.248-19.776c4.033,0.314,5.782,2.182,6.532,3.69
	C175.898,93.377,175.406,96.706,173.306,100.021z M72.741,84.061c-1.32-0.596-2.861-0.416-4.008,0.469
	c-2.697,1.835-4.491,4.726-4.94,7.956c0.753,1.471,9.406,18.148,13.645,24.625c0.135-0.875,0.423-1.721,0.852-2.496
	c1.208-2.082,3.455-3.34,5.862-3.283c-1.384-6.037-3.333-11.93-5.82-17.602C75.55,87.594,73.514,84.453,72.741,84.061z
	 M84.359,123.458c1.224,0.937,2.809,1.256,4.298,0.868c-0.449-0.954-0.821-1.939-1.111-2.952c-0.499-1.566-1.064-3.34-1.925-3.875
	c-0.415-0.334-1.891-0.2-2.011-0.003C82.661,118.819,82.895,122.248,84.359,123.458z M101.598,113.602
	c-1.506-6.223-7.059-31.721-8.239-35.253c-0.515-1.398-1.465-3.178-3.065-3.71c-1.466-0.334-3.004,0.022-4.172,0.968
	c-2.229,1.452-5.3,7.879-4.975,10.422c0.714,2.149,4.173,9.069,4.543,9.984c0.902,2.247,5.105,18.802,5.966,21.455
	c0.607-0.972,3.536-2.842,4.115-2.996c1.451-0.382,6.255,0.893,6.255,0.893L101.598,113.602z M98.293,119.679
	c-0.693-0.083-1.382,0.19-1.832,0.724c-0.455,0.697-0.541,1.573-0.233,2.345c0.146,0.42,1.5,3.201,1.95,3.979
	c0.446-0.006,3.443-1.952,4.008-3.177C102.184,122.484,99.424,119.735,98.293,119.679z M170.063,93.24
	c-0.098-0.411-5.264-2.212-10.188,1.672c-3.185,1.857-6.154,4.06-8.853,6.571c0.236,0.426,3.74,2.926,0.979,6.194
	c-1.884,1.376-4.755-1.593-4.882-1.741c-1.601,2.285-2.925,4.749-3.943,7.345c-1.627,3.707-3.308,7.533-6.675,10.249
	c0.178,0.868,3.271,5.177,3.608,5.874c0.485,1.071,0.338,2.323-0.383,3.254c-0.74,0.77-1.849,1.062-2.873,0.753
	c-2.908-0.663-5.252-5.194-5.821-8.106c-7.809-0.408-9.768-9.581-10.623-13.58c-2.35-10.999-2.343-23.314-2.345-35.215
	c0.004-5.38-0.898-33.634-3.288-39.733c-0.373-0.999-1.247-1.726-2.298-1.911c-1.116-0.203-2.256,0.183-3.021,1.021
	c-1.39,1.542-2.173,14.059-2.211,14.61c0.944,0.252,7.393,0.992,8.206,2.528c0.428,0.979,0.328,2.109-0.266,2.999l-0.231,0.29
	c-1.283,1.116-7.789-0.363-8.185-0.446l-1.421,19.954c0.518,0.378,1.055,0.728,1.61,1.05c1.596,0.984,3.4,2.095,3.524,3.681
	c0.033,0.847-0.358,1.655-1.043,2.153c-1.683,1.438-3.438,0.511-4.703-0.415l-1.112,15.331c0.446,2.613,1.045,5.197,1.791,7.741
	c2.258,8.445,5.073,18.958-1.126,24.398c-2.766,2.421-7.259,4.189-13.141-0.877c-6.528,2.958-13.984-1.627-21.052-13.02
	c-3.186-5.126-21.529-39.479-23.17-41.299c-1.035-0.912-2.467-1.225-3.787-0.829l-0.046,0.012c-0.976,0.201-1.749,0.947-1.984,1.915
	c-0.585,3.008,3.316,11.59,3.74,12.738c0.416-0.18,3.285-1.647,4.433-1.48c2.561,3.106,0.941,5.608-2.235,6.608
	c1.628,3.863,7.647,14.639,8.572,16.386c0.405,0.347,4.772-2.713,6.19-2.052c1.266,0.392,2.015,1.693,1.72,2.984
	c-0.435,1.846-2.964,3.654-4.97,4.341c2.839,6.468,5.201,13.137,7.064,19.953c3.72,12.407,7.568,25.238,17.157,34.319
	c11.061,10.477,21.401,10.075,34.525,6.046c21.339-6.563,24.686-18.001,29.326-33.833c1.246-4.271,2.541-8.684,4.297-13.447
	c3.422-9.168,7.964-17.877,13.522-25.93C164.801,101.779,170.466,94.586,170.063,93.24z M144.623,56.171
	c-0.483,0.121-0.988,0.15-1.481,0.085c-4.205-1.343-8.324-2.936-12.338-4.771c-0.993-0.652-1.526-1.815-1.373-2.993
	c0.15-1.045,0.886-1.912,1.891-2.233c1.02-0.359,15.802,4.819,14.909,8.613C145.918,55.525,145.329,56.002,144.623,56.171z
	 M136.584,40.913c-0.476,0.16-7.878,2.939-8.519,2.768c-0.847-0.321-1.48-1.037-1.694-1.915c-0.221-0.877,0.007-1.807,0.604-2.484
	c1.406-1.583,12.263-5.722,14.253-4.642c0.861,0.581,1.436,1.502,1.575,2.533C142.821,39.699,137.084,40.766,136.584,40.913z
	 M124.016,36.952c-0.53,0.147-2.853-1.449-3.155-2.295c-0.15-0.853,0.475-1.989,2.431-4.98c0.426-0.648,2.972-6.594,4.43-6.924
	c1.003-0.369,2.13-0.034,2.771,0.823c1.769,2.591-2.57,9.463-2.615,9.531C127.037,34.382,125.629,36.52,124.016,36.952z"/>
</svg>
