<?xml version="1.0" encoding="utf-8"?>
<!-- Generator: Adobe Illustrator 16.0.0, SVG Export Plug-In . SVG Version: 6.00 Build 0)  -->
<!DOCTYPE svg PUBLIC "-//W3C//DTD SVG 1.1//EN" "http://www.w3.org/Graphics/SVG/1.1/DTD/svg11.dtd">
<svg version="1.1" id="Calque_1" xmlns="http://www.w3.org/2000/svg" xmlns:xlink="http://www.w3.org/1999/xlink" x="0px" y="0px"
	 width="58px" height="58px" viewBox="0 0 58 58" enable-background="new 0 0 58 58" xml:space="preserve">
<g id="Groupe_2314" transform="translate(12.941 6.502)">
	<path id="Tracé_15266" d="M30.934,23.561c1.105-1.816,0.847-4.15-0.63-5.68c-1.082-1.139-3.036-1.689-5.759-1.64
		c-2.518,0.061-5.013,0.5-7.4,1.3c1.376-2.831,2.893-6.22,2.79-9.545c-0.069-2.251-1.29-4.985-3.418-5.619
		c-0.648-0.235-1.366-0.184-1.973,0.143c-1.149,0.669-1.533,2.349-1.842,3.7c-0.072,0.315-0.14,0.61-0.212,0.866
		c-0.519,1.954-1.233,3.85-2.133,5.66c-1.138,2.045-2.459,3.983-3.946,5.791c-1.386,1.703-2.642,3.508-3.757,5.4
		c-2.312,4.162-4,10.766-1.161,15.67l0,0c0.952,1.483,2.29,2.68,3.871,3.459c-0.095,0.133-0.152,0.287-0.167,0.447
		c-0.02,0.476,0.228,0.922,0.641,1.157c0.62,0.265,2.956,0.295,3.554,0.245c4.16-0.346,13.101-2.447,16.101-5.4
		c0.968-0.928,1.549-2.189,1.623-3.528c1.497-0.389,2.719-1.469,3.286-2.907c0.517-1.307,0.38-2.781-0.368-3.971
		C31.609,27.705,31.985,25.391,30.934,23.561z M18.995,25.199c-0.389,0.235-0.861,0.287-1.291,0.14
		c-0.309-0.114-0.338-0.293-0.349-0.352c-0.04-0.157-0.009-0.325,0.084-0.458c0.27-0.24,1.054-0.355,1.088-0.355
		c0.31-0.033,0.61,0.113,0.774,0.376C19.373,24.74,19.262,24.977,18.995,25.199z M21.057,29.303c0.137-0.381,0.08-0.805-0.15-1.138
		c-0.153-0.166-0.377-0.246-0.601-0.214c-0.287,0.012-0.554,0.15-0.728,0.379c-0.104,0.248-0.147,0.986-0.156,1.076l0,0
		c-0.902-0.078-1.77-0.392-2.512-0.91c-0.231-0.5,0.308-1.186,0.752-1.555c3.9-0.029,7.742-0.965,11.221-2.732
		c0.092,0.132,0.926,1.706,0.301,2.7c-0.332,0.6-0.895,1.038-1.557,1.212C25.434,29.29,21.049,29.339,21.057,29.303z M18.295,36.18
		c-0.227-0.205-0.555-0.255-0.832-0.125c-0.203,0.111-0.348,0.305-0.399,0.531c-0.531-0.262-0.947-0.709-1.169-1.259
		c-0.267-0.716-0.312-1.146-0.132-1.388c0.84,0.584,1.819,0.936,2.839,1.021c2.158,0.276,4.331,0.419,6.507,0.425
		c-0.159,1.064-0.458,2.4-1.519,2.682c-1.085,0.094-2.177-0.063-3.19-0.461c-0.558-0.173-1.126-0.314-1.7-0.424
		C18.727,36.803,18.579,36.433,18.295,36.18z M20.004,33.328c0.107-0.412,0.044-0.85-0.174-1.214
		c-0.133-0.149-0.323-0.233-0.522-0.234c-0.228-0.009-0.448,0.071-0.618,0.224c-0.248,0.339-0.35,0.764-0.283,1.179v0.01
		c-1.102-0.079-2.096-0.685-2.672-1.626c-0.307-0.541-0.198-1.222,0.261-1.641c0.172-0.184,0.755,0.229,0.918,0.307
		c2.951,1.352,7.76,0.223,11.123-0.744l0.028-0.009c0.413,0.838,0.91,2.342-0.187,3.306C26.517,34.165,20,33.357,20.004,33.328z
		 M26.61,23.678c-1.834,0.659-3.721,1.157-5.642,1.487l-0.115,0.022c0.05-0.141,0.071-0.291,0.062-0.441
		c-0.047-0.689-0.426-1.313-1.017-1.671c-0.021-0.013-0.039-0.022-0.06-0.034l3.553-1.8c0.341-0.239,0.453-0.692,0.262-1.062
		c-0.234-0.383-0.719-0.529-1.127-0.34c-1.078,0.445-4.006,2.024-4.006,2.024c-1.369,0.721-3.437,1.811-2.728,3.855
		c0.064,0.151,0.147,0.295,0.247,0.426c0,0-1.355,1.646-0.825,2.619c-1.112,0.78-1.543,2.222-1.042,3.484
		c0.08,0.192,0.347,0.619,0.366,0.646c-0.015,0.024-0.441,0.836-0.527,1.252c-0.225,2.429,1.926,4.213,4.052,4.656l3.1,0.75
		c-1.199,0.589-2.435,1.1-3.699,1.529c-3.9,1.307-7.708,2.327-11.341,0.491c-1.889-0.915-3.315-2.57-3.94-4.574
		c-1.266-3.896,0.081-8.776,1.764-12.046c1.104-1.988,2.39-3.87,3.839-5.623c1.333-1.629,2.54-3.357,3.61-5.17
		c0.975-1.649,1.723-3.423,2.223-5.273c0.395,0.063,0.799-0.005,1.151-0.194c1.832-0.903,2.146-3.856,2.146-3.856
		c0.123,0.18,0.234,0.368,0.332,0.563c1.429,2.855,0.16,6.029-1.066,9.1c-0.346,0.867-1.225,3.743-1.252,3.849
		c-0.038,0.02-0.62,0.3-0.746,0.534c-0.415,0.949,0.152,0.878,0.242,0.963c-0.128,0.667-1.245,3.613-1.367,4.026
		c0,0,0.526,0.769,0.864,0.787c0.466-0.036,0.715-0.533,0.95-1c0.581-1.291,0.996-2.649,1.237-4.044
		c2.671-1.103,5.525-1.694,8.414-1.744c1.846-0.025,3.87,0.133,4.813,1.485c0.445,0.521,0.617,1.223,0.463,1.891
		c-0.266,0.886-1.336,1.704-3.182,2.431H26.61z M14.089,7.254c0.051-0.2,0.427-1.806,0.527-2.108c0.121-0.363,0.5-1.121,0.817-1.227
		c0.017-0.006,0.036-0.01,0.054-0.01h0.023C15.976,6.248,14.174,7.22,14.089,7.254z"/>
	<path id="Tracé_15267" d="M21.959,6.241c0.195-0.005,0.385-0.075,0.537-0.2l2.09-2.668c0.19-0.315,0.127-0.722-0.151-0.964
		c-0.265-0.276-0.688-0.325-1.01-0.118l-2.128,2.66l-0.04,0.064c-0.182,0.357-0.091,0.792,0.218,1.048
		C21.611,6.177,21.782,6.239,21.959,6.241z"/>
	<path id="Tracé_15268" d="M22.032,8.044c0.137,0.288,0.432,0.467,0.75,0.456c0.1,0,2.259-0.771,3.194-1.244
		c0.304-0.208,0.442-0.586,0.347-0.942c-0.068-0.291-0.313-0.506-0.611-0.537c-0.235,0.005-2.551,0.827-3.436,1.276
		C21.971,7.284,21.869,7.698,22.032,8.044z"/>
	<path id="Tracé_15269" d="M19.621,4.368c0.346,0.087,0.709-0.058,0.899-0.359c0.254-0.939,0.435-1.896,0.54-2.862
		c-0.065-0.34-0.346-0.598-0.689-0.635c-0.367-0.07-0.734,0.113-0.9,0.447c-0.217,0.855-0.375,1.724-0.475,2.6
		C19.004,3.937,19.257,4.266,19.621,4.368z"/>
</g>
</svg>
