<?xml version="1.0" encoding="UTF-8"?>
<svg id="b" data-name="Calque 2" xmlns="http://www.w3.org/2000/svg" width="84" height="84" viewBox="0 0 84 84">
  <g id="c" data-name="Calque 1">
    <g>
      <rect width="84" height="84" style="fill: none;"/>
      <path d="M37.82,58.78h0c0-1.16.95-2.08,2.11-2.05,4.67.12,15.77-.37,19.79-7.35.5-.86,1.79-.7,2.1.24h0c-4.87,10.56-17.36,11.22-22.12,11.1-1.05-.03-1.88-.89-1.88-1.94Z"/>
      <g>
        <path d="M42,10c-17.67,0-32,14.33-32,32s14.33,32,32,32,32-14.33,32-32S59.67,10,42,10ZM43.12,69.98c-15.71,0-28.49-12.78-28.49-28.49s12.78-28.49,28.49-28.49,28.49,12.78,28.49,28.49-12.78,28.49-28.49,28.49Z"/>
        <polygon points="26.65 40.67 31.62 36.07 36.8 40.68 39.92 39.1 34.35 33.34 39.09 29.07 37.1 27.08 32.5 31.67 27.15 27.83 25.08 29.9 29.67 34.5 25.08 39.1 26.65 40.67"/>
        <polygon points="44.64 28.03 49.23 33 44.62 38.17 46.21 41.3 51.96 35.73 56.23 40.47 58.23 38.48 53.63 33.88 57.47 28.52 55.4 26.45 50.8 31.05 46.21 26.45 44.64 28.03"/>
        <path d="M13.24,71.41c0,1.51,7.34,2.6,15.38,2.87,5.15.17,11.11-.25,13.91-.25,0,0,1.46.1,1.46-1.28s-17.23-4.73-17.23-4.73c-7.18,0-13.53.41-13.53,3.39Z"/>
      </g>
    </g>
  </g>
</svg>