<svg xmlns="http://www.w3.org/2000/svg" width="53.449" height="50.509" viewBox="0 0 53.449 50.509">
  <g id="Tiktok" transform="translate(26.724 25.231)">
    <g id="Groupe_168" data-name="Groupe 168" transform="translate(-26.06 -24.614)">
      <ellipse id="Ellipse_17" data-name="Ellipse 17" cx="17.18" cy="17.18" rx="17.18" ry="17.18" transform="translate(4.479 13.127) rotate(-22.461)" fill="none" stroke="#000" stroke-linecap="round" stroke-width="0.946"/>
      <circle id="Ellipse_18" data-name="Ellipse 18" cx="17.18" cy="17.18" r="17.18" transform="translate(0 27.938) rotate(-51.714)" fill="none" stroke="#000" stroke-linecap="round" stroke-width="0.946"/>
      <ellipse id="Ellipse_19" data-name="Ellipse 19" cx="14.038" cy="14.038" rx="14.038" ry="14.038" transform="translate(10.343 34.797) rotate(-79.374)"/>
      <circle id="Ellipse_20" data-name="Ellipse 20" cx="17.18" cy="17.18" r="17.18" transform="translate(3.862 27.106) rotate(-51.714)" fill="none" stroke="#000" stroke-linecap="round" stroke-width="0.946"/>
      <path id="Tracé_280" data-name="Tracé 280" d="M35.934,32.358V24.481s.888,1.48,4.1,1.571a.307.307,0,0,0,.313-.307V23.519a.31.31,0,0,0-.3-.306,3.922,3.922,0,0,1-3.789-3.8.313.313,0,0,0-.315-.286H33.4a.306.306,0,0,0-.306.306V31.953a2.58,2.58,0,0,1-2.4,2.608,2.521,2.521,0,0,1-.485-5.013,2.591,2.591,0,0,1,.645-.009.308.308,0,0,0,.348-.3V27a.3.3,0,0,0-.279-.306,5.465,5.465,0,0,0-.976.024,5.357,5.357,0,1,0,5.982,5.321" transform="translate(-6.821 -5.296)" fill="#fff"/>
    </g>
  </g>
</svg>
