<?xml version="1.0" encoding="utf-8"?>
<!-- Generator: Adobe Illustrator 16.0.0, SVG Export Plug-In . SVG Version: 6.00 Build 0)  -->
<!DOCTYPE svg PUBLIC "-//W3C//DTD SVG 1.1//EN" "http://www.w3.org/Graphics/SVG/1.1/DTD/svg11.dtd">
<svg version="1.1" id="Calque_1" xmlns="http://www.w3.org/2000/svg" xmlns:xlink="http://www.w3.org/1999/xlink" x="0px" y="0px"
	 width="111.189px" height="113.604px" viewBox="16.441 20.358 111.189 113.604"
	 enable-background="new 16.441 20.358 111.189 113.604" xml:space="preserve">
<g>
	<path d="M127.63,106.758c-1.746,0.584-2.723,2.4-4.723,1.942
		c-1.172,0.678-0.234,2.257-0.537,2.963c-0.916,1.717-2.926-0.389-4.156,1.015c0.334,1.558-0.049,3.185-1.045,4.428
		c-0.826-1.769-2.17-0.181-2.967,0.095c-1.172-2.863-4.377,0.121-5.551-2.109c-0.191,0.52-0.063,1.354-0.787,1.293
		c-0.5-1.059,1.293-2.123-0.391-2.893c-0.814-0.117-0.938-1.583-2.031-1.235c-0.539,0.051-0.6,1.4-1.229,0.771
		c0.285-1.724-1.111-3.585-1.844-5.295c-0.348-1.101,1.602-1.179,0.477-2.243c-0.611-0.243-1.393,0.423-1.965-0.3
		c1.168-2.962,4.115-6.356,3.471-10.294c0.723-0.819,1.82-1.206,2.898-1.021l-0.008-0.006c2.793,1.445,4.801-2.273,7.838-2.069
		c1.389,0.21,0.137,1.856,1.359,2.344c0.338-0.553,0.949-0.939,1.137-1.458c0.295,0.557-0.398,1.909,0.842,2.155
		c1.189,0.142,2.395,0.009,3.525-0.387c1.9,1.662-0.725,7.021,3.715,5.546c-0.633,0.627-1.932,0.471-2.1,1.379
		c0.232,1.282,3.814,0.799,2.25,2.755c-0.447,0.109-0.949,0.313-0.654,0.87C125.425,106.434,127.634,105.504,127.63,106.758z
		 M116.212,37.461c1.434,2.639,2.268,6.056,3.051,8.306c-0.156,1.926-3.168-0.408-2.609,2.211c0.463,0.281,1.186,0.344,1.424,0.99
		c-0.783,0.666-2.518-0.645-2.9,1.025c0.127,0.832,1.59,0.711,0.918,1.818c-0.932,0.699-1.645-1.246-2.615-0.068
		c-2.299,0.875,0.564,1.984-0.258,3.131c-0.758-0.039-1.455-0.418-1.9-1.031c-1.189,0.266-2.297,0.807-3.236,1.58
		c0.459,0.607,0.721,1.34,0.746,2.102c-1.367-0.455-2.639-2.109-4.438-2.066c-1.541,0.455,0.584,1.746-0.992,2.053
		c-0.627-0.635-0.6-2.137-1.637-2.512l-2.021,1.037c-3.938-2.266-5.752-6.15-10.025-7.859c-0.707-2.583-2.479-4.671-4.115-6.554
		c0.967-0.549,1.82-0.914,1.92-2.119c-0.387-0.615-0.717-1.321-1.1-1.938c0.24-0.607,1.057-0.493,1.119-1.215l-0.846-1.523
		c1.023-0.646,2.299-0.879,2.738-2.009c0.652-0.866-0.367-1.483-0.701-2.19c0.432-0.5,1.1-0.348,1.58-0.307l0.006-0.001
		c1.189-0.29,2.09-2.4,3.217-1.967c-0.057,0.725,0.5,1.06,1.182,0.974c0.615-0.389,0.547-1.313,1.383-1.44
		c1.857,2.145,2.426,0.587,4.734,1.992c1-0.4,3.004-7.028,4.516-9.522c-0.102,0.573,1.051,0.767,1.109,0.673l-1.57,5.5
		c3.26,4.006,7.516,5.329,12.592,6.135c1.426,0.361,1.814-2.566,2.879-0.78C120.181,34.685,115.894,34.863,116.212,37.461z
		 M82.244,82.804c-0.982,0.163-2.08,0.509-2.984-0.292c-0.587-1.118-1.766-2.718-0.7-3.843c0.617-1.015,1.729-0.973,2.585-1.34
		c1.131,0.068,2.125,0.771,2.564,1.814c0.461,0.91-0.619,1.645,0.137,2.484C82.994,81.363,82.931,82.716,82.244,82.804z
		 M81.146,77.329h-0.002l0,0H81.146z M69.337,61.8c-0.471,0.845-0.8,1.689-2.006,0.732c-0.4,1.908-2.301,0.246-3.395-0.035
		c-1.125-0.746-1.874-1.941-2.059-3.277c0.115-0.814,0.564-1.555,0.108-2.467c0.632-0.625,2.398-0.82,1.829-2.176
		c1.91-0.943,3.336-0.373,4.828,0.623c0,0,1.005-0.913,1.486,1.063s1.148,3.102,0.752,4.383
		C70.064,60.616,69.667,61.208,69.337,61.8z M63.815,54.575c0.001,0.001,0.001,0.001,0.001,0.002c0,0,0,0-0.001,0V54.575z
		 M55.49,100.124c1.035,0.378,2.301,0.387,2.996,1.317c1.5,2.938,3.786,5.844,4.793,8.351c-1.356,0.569-3.041-0.2-4.082,0.682
		c0.699,0.935-0.72,2.223,0.838,2.786c0.048,1.169-1.383,1.44-2.273,1.659c-0.084,1.593,4.99,2.401,2.334,3.442
		c-0.338,1.185-1.516-0.416-2-0.455c0.042-0.361,0.008-0.729-0.1-1.077c-3.488-0.093-6.5-1.8-9.931-1.986
		c-1.423,2.553,0.677,5.345,0.048,8.253c-0.738-0.45-0.508-2.079-1.171-2.859l-2.185-1.199c-2.032,2.3-4.133,0.142-6.163,1.188
		c0.101-0.573,0.843-1.389,0.81-2.163c1.161-1.699-1.75-1.699-1.277-3.311c-1.109-0.676-2.6,0.32-3.859,0.312
		c-0.546,1.313-2.009,1.437-2.313,2.77c-0.954,0.94-0.888-1.044-1.61-1.1c1.811-1.933,4.6-3.399,5.451-6.051
		c-1.594-0.712,1.141-1.458-0.564-1.985l-1.43,0.269c0.304-0.342,0.273-0.863-0.066-1.166l-0.164-0.115
		c-1,0.048-1.99,0.209-2.953,0.485c0.188-0.518,0.879-1.24,0.458-1.999l-1.851-0.499c1.751-0.083,3.365-0.971,4.372-2.405
		c-0.274-0.801-1.575-0.325-1.59-0.715c0.39-0.018,1.354,0.063,1.633-0.398c-1.12-1.695-3.392-3.579-5.318-3.74
		c0.666,0.153,0.1-0.572,0.263-0.851c2.186,0.571,4.422,1.677,6.592,1.854c-0.119-1.461,2.275,0.626,2.176-1.709
		c-0.199-0.5-1.352-0.064-1.179-0.97c2.132-3.512,1.494-8.705,1.166-12.956c0.513,0.818,2.129,0.66,2.418,1.849
		c0.62,1.896-0.94,5.5,2.323,5.334c3.063,0.86,5.643,2.93,7.145,5.734c4.5,0.711,4.331-5.464,8.908-5.085
		c0.663,0.683,0.93,1.656,0.709,2.582C58.341,96.675,55.413,97.55,55.49,100.124z M54.355,61.609
		c-0.018-0.391,0.117-0.816,0.598-0.775l0.276,0.168C54.472,60.79,54.629,61.777,54.355,61.609z M54.955,60.833c0,0,0,0-0.002,0l0,0
		H54.955z M17.609,107.088c-0.465-0.281-1.317,0.087-1.146-0.823c0.376-1.035,1.339-0.958,2.192-0.691l0.736,0.445
		C19.351,107.135,18.109,106.888,17.609,107.088z M32.152,132.499c0.102,0.542-0.092,1.099-0.509,1.463
		C31.087,133.624,31.466,132.587,32.152,132.499z M35.047,118.573c0.815,0.118,0.528,1.837-0.3,1.331
		C34.191,119.571,34.147,118.405,35.047,118.573z M86.945,59.022c0.004-0.694,0.029-1.388,1.164-1.317l-0.002-0.006
		c0.158-1.301,1.576-0.301,1.9-1.25c0.705,0.372,1.363,0.195,2,0.02c0.838-0.23,1.641-0.462,2.467,0.543
		c2.367,0.682,0.244,2.932,2.5,3.801c-0.941,1.961-0.346,5.357-3.766,6.189c-0.674,0.553-2.957-0.678-3.484,0.539
		c-0.064-0.738-0.432-1.418-1.012-1.879c-0.201-0.121-1.465,0.086-1.631-0.232c-0.1-1.076,0.162-2.557-1.285-2.676
		c1.023-0.643,0.625-1.65-0.037-2.428C86.96,60.474,86.941,59.747,86.945,59.022z M101.986,92.32L101.986,92.32
		c-0.061,0.726,0.285,1.822-0.734,1.833c-0.611-0.028-1.086-0.549-1.057-1.162c0.004-0.111,0.025-0.223,0.064-0.328
		C100.654,92.014,101.601,91.704,101.986,92.32z"/>
</g>
</svg>
