<?xml version="1.0" encoding="utf-8"?>
<!-- Generator: Adobe Illustrator 16.0.0, SVG Export Plug-In . SVG Version: 6.00 Build 0)  -->
<!DOCTYPE svg PUBLIC "-//W3C//DTD SVG 1.1//EN" "http://www.w3.org/Graphics/SVG/1.1/DTD/svg11.dtd">
<svg version="1.1" id="Calque_1" xmlns="http://www.w3.org/2000/svg" xmlns:xlink="http://www.w3.org/1999/xlink" x="0px" y="0px"
	 width="109.613px" height="125.458px" viewBox="0 0 109.613 125.458" enable-background="new 0 0 109.613 125.458"
	 xml:space="preserve">
<g>
	<path d="M57.053,12.745c0.661,0.353,1.434,0.436,2.154,0.233c0.31-0.038,2.143-0.2,2.555-0.266c1.15-0.06,2.289-0.258,3.392-0.592
		c0.544-0.311,2.994-1.407,3.333-1.457c1.349,0.106,2.676-0.384,3.632-1.341c0.371-0.307,0.659-0.494,0.883-0.421
		c0.22,0.12,0.467,0.184,0.718,0.184c0.714-0.067,1.698-1.386,1.863-0.673c0.139,0.124,1.018-0.836,1.33-0.692
		c0.341,0.005,0.835,0.438,0.89,0.513c0.322,0.511-0.021,0.941-0.135,1.501c0.014,0.968-0.069,6.439-0.196,7.035
		c-0.026,0.398,0.063,0.796,0.256,1.145c0.441,0.855-0.131,1.05-0.194,1.796c-0.021,0.367-0.148,0.9,0.386,0.592
		c0.436-0.193,0.74,0.432,0.729,0.847c0.049,0.602-1.536,1.044-1.026,1.816c0.156,0.213-0.055,0.375-0.161,0.579
		c-0.609,0.729-0.025,1.688-0.041,2.556c-0.091,0.539-0.176,1.597,0.258,1.188c0.182-0.197,0.145-0.564,0.303-0.778
		c0.324-0.299,0.621,0.279,0.575,0.646c-0.004,0.462-0.432,0.845-0.601,1.22c-0.135,0.584,1.094,0.053,1.183,0.123
		c0.547,0.384,0.436-0.647,0.346-0.946c-0.222-0.499-0.32-1.043-0.286-1.588c0.104-0.344,0.359-1.231,0.483-1.284
		c0.183-0.091,0.077-0.941,0.222-1.29c0.03-0.278,0.269-0.372,0.412-0.581c0.18-0.383,0.257-0.805,0.226-1.227
		c-0.027-1.328,0.123-1.921,0.178-3.243c-0.125-1.006,0.637-2.538-0.086-3.344c-0.311-0.179-0.521,0.063-0.578-0.376
		c-0.085-0.519,0.322-0.473,0.704-0.941c0.288-0.715,0.409-1.487,0.353-2.256c0.252-2.398,0.071-5.944-2.603-7.07
		c-0.731-0.185-3.119,0.095-3.508,0.323c-1.527,0.66-3.764,1.428-5.063,1.991c-0.928,0.541-1.95,0.897-3.014,1.049
		c-1.955,0.696-3.81,1.65-5.513,2.836c-1.035,0.601-2.176,0.997-3.36,1.166c-0.499,0.028-1.663,0.438-1.066,0.973L57.053,12.745z"/>
	<path d="M94.601,109.1c-0.156-0.627-0.18-1.281-0.07-1.92c-0.08-1.146-0.172-2.277-0.143-3.484
		c0.045-1.119-0.492-1.475-0.483-2.591c0.065-1.429-0.097-2.859-0.482-4.237c-0.07-0.346-0.029-0.704,0.118-1.024
		c0.121-0.083,0.329,0.751,0.462,0.865c-0.085-2.139-0.41-4.261-0.97-6.327c-0.29-1.561-0.554-2.23-0.697-3.444
		c0.494-2.892-0.895-5.375-0.819-8.389c-0.192-4.116-0.782-7.911-1.249-11.957c-0.433-3.013-0.505-6.123-1.324-9.078
		c-0.021-0.109,0.142-0.974,0.114-1.388c-0.328-3.3-0.627-7.334-3.729-9.506c-2.649-2.151-4.801-1.879-7.725-2.265
		c-0.787-0.145-2.494-0.486-2.763-0.43c-0.973,0.244-7.068,1.596-7.838,2.534c-0.703,0.917-1.31,1.904-1.81,2.946
		c-0.635,0.857-0.86,1.95-0.615,2.988c0.291,1.152,0.523,2.318,0.696,3.493c0.014,0.297-0.045,0.261-0.169-0.088
		c-0.279-0.759-1.026-4.228-1.018-1.428c0.024,1.448,1.229,4.789,1.281,4.369c0.142-1.824,0.664-1.203,0.621,0.278
		c-0.03,0.653,0.114,3.376,0.069,3.84c-0.031,0.039-1.378,1.791-1.293,2.347c0.17,0.971,1.258,3.816,1.094,5.212
		c-0.162,0.582-0.271,1.178-0.323,1.78c0.029,1.253,0.404,5.499,0.392,6.378c0.096,2.279,0.778,11.727,0.777,14.084
		c-0.142,4.586,0.42,9.334,0.439,13.766c0.027,1.116,0.241,4.248,0.299,4.662c0.188,0.832,0.861,4.322,0.825,4.508
		c-0.031,1.689,2.06,3.445,3.186,4.231c0.896,0.599,1.892,1.031,2.939,1.279c0.473,0.087,0.928,0.253,1.347,0.488
		c1.528,0.142,7.683-1.104,9.244-1.279c0.676-0.02,1.346-0.122,1.997-0.304c-0.096-0.098-0.828-0.273-0.281-0.445
		c1.947-0.4,3.981-0.553,5.694-1.662c0.539-0.183,1.056-0.428,1.538-0.731c0.537-0.579,0.831-1.341,0.822-2.131l0.014-0.134
		c0.029-0.678-0.012-1.47,0.029-1.611c0.025-0.307,0.33,0.979,0.389,0.48C95.161,112.2,94.965,110.633,94.601,109.1z
		 M94.031,102.954l0.002-0.004l0.081,0.092C94.084,103.014,94.057,102.985,94.031,102.954z"/>
	<path d="M63.397,110.388c-0.169,0.182-0.218,1.155-0.501,0.79c-0.359-0.666,0.008-1.77,0.003-2.537
		c0.081-0.672-0.53-1.37,0.132-1.715c0.253-0.058,0.298-0.398,0.475-0.557c0.658-0.271,0.75-0.579,0.35-1.687
		c-0.209-0.843-0.624-1.744-0.761-2.632c-0.186-1.561,0.375-1.761,0.257-2.917c-0.007-1.344-0.833-16.663-0.727-18.921
		c-0.211-3.975-0.23-7.215-0.563-10.838c0.452-1.486-1.06-2.924-1.051-4.221c0.086-0.355,0.089-0.727,0.009-1.084
		c-1.099-1.909-2.965-3.254-5.124-3.692c-1.901-1.337-10.051-0.057-10.031-0.008c0.622,0.716-1.252,0.49-2.456,0.791
		c-1.154,0.418-3.009,0.834-3.764,1.53c-2.15,1.851-0.982,5.694-0.896,6.798c-0.111,0.719,0.09,8.953,0.108,9.532
		c-0.069,0.431-0.442-0.019-0.566-0.069c-0.34,2.496,0.905,5.804,0.802,8.016c-0.552,1.783,0.27,3.483,0.21,5.361
		c-0.115,6.014,0.149,12.029,0.791,18.01c0.031,0.41-0.02,0.822-0.151,1.212c-0.206,5.22,4.607,8.894,9.569,8.339
		c0.86,0.031,4.556,0.266,5.15,0.228c0.588,0.101,1.189,0.089,1.773-0.032c1.152-0.336,5.703-2.354,6.418-3.244
		c0.667-0.87,0.563-4.197,0.631-4.012c0.163,0.68,0.266,1.371,0.309,2.068c0.141,1.095,0.521,0.239,0.546-0.444l0.009-0.136
		c0.073-0.778,0.041-1.563-0.096-2.332C64.104,111.481,63.565,110.207,63.397,110.388z"/>
	<path d="M31.368,117.625c0.325-0.235,0.642-0.465,0.936-0.702c-0.098,0.151-0.118,0.274-0.125,0.402
		c-0.012,0.226-0.022,0.438-0.567,0.68c0.596-0.125,0.348-0.349,0.741-0.231c0.443-0.479,0.278-0.533,0.154-0.603
		c-0.113-0.062-0.17-0.138,0.069-0.483c0.827-0.731,1.381-1.574,1.148-2.916c-0.218-2.265,0.208-0.553,0.378,0.23
		c0.273,1.232,0.51,0.521,0.527-0.146l0.002-0.108c0.132-0.623-0.313-3.166-0.953-2.836c-0.118,0.123-0.198,0.355-0.324,0.46
		c-0.349-0.015-0.087-2.291-0.192-2.87c-0.015-0.271,0.062-0.332,0.263-0.411c0.278-0.259,0.875-0.507,1.006-0.749
		c0.256-0.172-0.015-0.824-0.158-1.207c-0.362-0.822-0.542-1.713-0.526-2.611c0.042-0.563,0.288-0.801,0.279-1.301
		c-0.192-3.051-0.146-5.957-0.301-9.051c-0.154-3.945,0.221-7.965,0.012-11.902c-0.126-0.979-0.447-1.922-0.944-2.773
		c-0.351-0.726-0.317-1.059-0.856-1.383c-0.59-0.557-1.827-0.598-2.368-1.033c-0.494-0.692-1.274-1.127-2.124-1.182
		c-1.751-0.025-3.502,0.045-5.245,0.209c-1.551,0.316-3.133,0.459-4.716,0.424c-0.267,0.041-0.797-0.048-0.952,0.123
		c-0.06,0.335-0.182,0.449-1.233,0.604c-1.271,0.188-2.517,0.521-3.71,0.999c-0.356,0.21-0.719,1.374-0.859,1.737
		c-0.143,0.432-0.271-0.102-0.412,0.254c-0.192,0.601-0.244,1.237-0.149,1.861c0.252,1.216,0.305,2.465,0.158,3.698
		c-0.085,1.165,0.419,2.243,0.334,3.681c0.06,0.563,0.592,2.139-0.13,1.579c-0.149-0.059-0.162,0.044-0.164,0.235
		c0.231,1.753,0.605,3.483,1.116,5.176c0.016,0.477-0.006,0.954-0.064,1.428c-0.063,0.867,0.45,2.076,0.496,3.146
		c0.2,4.662,0.71,9.305,1.525,13.898c0.209,0.591-0.133,1.272,0.111,1.858c0.929,4.039,6.26,3.378,9.184,3.146
		c0.523,0.054,1.05,0.079,1.576,0.077c0.563,0.014,0.828,0.367,1.368,0.337c0.233-0.054,1.892-0.207,2.337-0.17
		C29.049,118.988,31.368,117.625,31.368,117.625z M12.2,77.636c-0.167,0.141-0.323,0.293-0.468,0.456
		c-0.007-0.006-0.01-0.016-0.021-0.021l-0.195,0.201c0.18-0.391,0.225-0.84,0.598-0.941C12.309,77.295,12.26,77.467,12.2,77.636z"/>
	<path d="M12.633,61.51c0.467,0.397,1.386,0.153,2.14,0.069l0.117-0.016c1-0.346,2.036-0.578,3.089-0.689
		c0.443-0.073,0.88-0.182,1.307-0.325c0.582-0.049,1.159-0.142,1.728-0.277c2.077-0.839,4.379-1.062,6.46-1.876
		c0.388-0.218,1.269-0.528,1.358-0.947c-0.061-0.149-0.354-0.207-0.468-0.333c-0.397-0.217,1.257-0.858,1.562-0.947
		c0.299-0.02,0.364,0.504,0.658,0.613c1.004,0.232,2.2-0.639,3.202-0.979c4.695-2.399,9.724-4.461,13.399-8.34
		c0.884-0.967,1.942-0.571,2.905-1.621c1.657-1.692,4.5-3.129,5.803-4.998c1.253-1.25,2.594-2.095,3.508-3.679
		c0.632-0.913,1.097-0.952,2.122-1.821c1.431-1.568,2.74-3.028,4.031-4.679c1.376-2.243,2.03-3.713,3.049-5.398
		c1.166-3.193,2.802-6.194,4.854-8.904c0.416-0.69,1.378-1.632,0.83-2.291c-1.078-0.249-3.545,2.905-3.858,3.493
		c-0.823,0.633-2.883,3.53-3.22,3.971c-0.442,0.56-1.362,1.088-1.886,1.777c-0.868,0.917-1.495,2.347-2.473,3.083
		c-0.316,0.37-0.232,1.008-0.741,1.538c-0.52,0.541-2.65,2.83-2.782,3.642c-0.433,0.669-1.123,0.348-1.998,1.096
		c-0.631,0.557-1.205,1.176-1.713,1.848c-1.011,1.074-1.851,2.296-2.49,3.624c-0.399,0.691-0.85-0.002-1.397,0.172
		c-0.885,0.085-1.958,1.949-2.465,2.604c-0.367,0.437-0.771,0.037-0.671-0.14c0.035-0.06-0.43,0.289-0.693,0.52
		c-0.727,0.541-0.911,1.33-1.506,1.844c-0.153,0.055-3.164,1.782-3.627,2.251c-0.508,0.421-0.669,1.291-1.424,1.342
		c-0.254,0.051-0.656-0.21-0.688-0.011c-0.109,0.24-1.62,1.462-2.098,1.947c-0.863,0.869-1.452,0.248-2.566,0.914
		c-0.618,0.247-1.4,1.043-1.917,1.228c-1.906,0.452-3.692,1.309-5.238,2.512c-0.88,0.581-1.182,0.138-2.004,0.35
		c-0.761,0.204-1.166,1.223-1.628,1.354c-1.863-0.908-3.29,0.949-4.783,1.649c-0.498,0.244-0.576-0.091-1.26-0.072
		c-0.427-0.121-4.079,0.549-2.171,0.723c0.726,0.026,0.689,0.883-0.047,1.09c-0.175,0.066-1.642,0.799-2.166,0.406
		c-0.694-0.684-1.638-1.057-2.612-1.033c-0.836,0.065,0.234,0.912-0.864,0.54c-1.557-0.903-2.937-0.277-4.536,0.021
		c-0.81,0.215-3.173-0.155-3.467-0.064c-0.171,0.063-0.104,0.574-0.022,0.61c0.395,0.34,1.901,0.066,2.144,0.387
		c0.099,0.092-0.887,0.894-1.347,0.987c-1.438,0.209-2.176-1.518-3.239-1.313c-0.213-0.02-0.401,0.137-0.421,0.35
		c-0.014,0.147,1.057,0.894,1.092,1.089c-0.135,0.174-1.095,0.179-1.094,0.568c0.151,0.316,2.897,0.344,3.813-0.119
		c0.329-0.146,0.401-0.018,0.845,0.019c1.09-0.028,2.175-0.161,3.24-0.395c0.296-0.028,0.577,0.84,1.156,0.891
		c0.855,0.069,1.77-0.392,2.601-0.329C12.457,61.101,12.494,61.249,12.633,61.51z"/>
</g>
</svg>
